%TF.GenerationSoftware,KiCad,Pcbnew,10.0.3*%
%TF.CreationDate,2026-07-13T19:26:38+01:00*%
%TF.ProjectId,CC1101_Multx,43433131-3031-45f4-9d75-6c74782e6b69,rev?*%
%TF.SameCoordinates,Original*%
%TF.FileFunction,Copper,L2,Inr*%
%TF.FilePolarity,Positive*%
%FSLAX46Y46*%
G04 Gerber Fmt 4.6, Leading zero omitted, Abs format (unit mm)*
G04 Created by KiCad (PCBNEW 10.0.3) date 2026-07-13 19:26:38*
%MOMM*%
%LPD*%
G01*
G04 APERTURE LIST*
%TA.AperFunction,ComponentPad*%
%ADD10R,1.700000X1.700000*%
%TD*%
%TA.AperFunction,ComponentPad*%
%ADD11C,1.700000*%
%TD*%
%TA.AperFunction,ViaPad*%
%ADD12C,0.600000*%
%TD*%
G04 APERTURE END LIST*
D10*
%TO.N,Net-(J8-Pin_1)*%
%TO.C,J8*%
X148180000Y-86290000D03*
%TD*%
%TO.N,Net-(J7-Pin_1)*%
%TO.C,J7*%
X145640000Y-81210000D03*
%TD*%
%TO.N,Net-(IC1-GDO2)*%
%TO.C,J3*%
X148180000Y-78670000D03*
%TD*%
%TO.N,/AVDD*%
%TO.C,BT1*%
X148180000Y-73590000D03*
D11*
%TO.N,/AGND*%
X145640000Y-73590000D03*
%TD*%
D10*
%TO.N,Net-(IC1-SCLK)*%
%TO.C,J1*%
X148180000Y-76130000D03*
%TD*%
%TO.N,Net-(IC1-CSN)*%
%TO.C,J6*%
X148180000Y-83750000D03*
%TD*%
%TO.N,Net-(IC1-SI)*%
%TO.C,J4*%
X145640000Y-83750000D03*
%TD*%
%TO.N,Net-(IC1-SO_(GDO1))*%
%TO.C,J2*%
X145640000Y-86290000D03*
%TD*%
%TO.N,Net-(IC1-GDO0_(ATEST))*%
%TO.C,J5*%
X148180000Y-81210000D03*
%TD*%
%TO.N,/AGND*%
%TO.C,J9*%
X145640000Y-78670000D03*
%TD*%
%TO.N,/AGND*%
%TO.C,J1*%
X145640000Y-76130000D03*
%TD*%
D12*
%TO.N,/AGND*%
X153800000Y-83990000D03*
X151600000Y-83740000D03*
X150810000Y-81000000D03*
X150850000Y-79930000D03*
X172431969Y-74629870D03*
X172360000Y-72820000D03*
X172100000Y-86920000D03*
X172230000Y-85130000D03*
X172720000Y-83820000D03*
X172720000Y-76200000D03*
X161290000Y-74930000D03*
X161290000Y-72390000D03*
X161290000Y-69850000D03*
X144780000Y-88900000D03*
X147320000Y-88900000D03*
X152400000Y-91440000D03*
X152400000Y-73660000D03*
X154940000Y-71120000D03*
X149860000Y-71120000D03*
X147320000Y-71120000D03*
X147320000Y-68580000D03*
X149860000Y-68580000D03*
X152400000Y-68580000D03*
X154940000Y-68580000D03*
X157480000Y-68580000D03*
X160020000Y-68580000D03*
X177800000Y-88900000D03*
X177800000Y-83820000D03*
X177800000Y-71120000D03*
X177800000Y-76200000D03*
X175260000Y-76200000D03*
X175260000Y-71120000D03*
X175260000Y-83820000D03*
X175260000Y-88900000D03*
X172720000Y-88900000D03*
X172720000Y-91440000D03*
X170180000Y-91440000D03*
X170180000Y-78740000D03*
X170180000Y-76200000D03*
X170180000Y-73660000D03*
X172720000Y-71120000D03*
X170180000Y-68580000D03*
X172720000Y-68580000D03*
X175977636Y-69468796D03*
X175977636Y-77988796D03*
X175977636Y-81714953D03*
X175977636Y-90234953D03*
X167640000Y-73660000D03*
X157480000Y-71120000D03*
X162540000Y-85410000D03*
X156210000Y-72390000D03*
X155230000Y-88760000D03*
X152400000Y-87630000D03*
X161290000Y-87630000D03*
X158750000Y-69850000D03*
X160020000Y-73660000D03*
X158470000Y-84900000D03*
X167640000Y-71120000D03*
X156210000Y-74930000D03*
X157886400Y-77724000D03*
X162560000Y-91440000D03*
X164717711Y-86205900D03*
X163676917Y-78375000D03*
X166607711Y-78335900D03*
X165100000Y-91440000D03*
X168192117Y-79044800D03*
X161590000Y-83360000D03*
X165100000Y-73660000D03*
X144780000Y-71120000D03*
X163830000Y-69850000D03*
X163830000Y-87630000D03*
X162560000Y-88900000D03*
X163830000Y-74930000D03*
X163734250Y-80415196D03*
X165100000Y-68580000D03*
X161610000Y-81050000D03*
X163830000Y-72390000D03*
X165753711Y-89107500D03*
X149860000Y-88900000D03*
X168910000Y-87630000D03*
X165100000Y-71120000D03*
X167226917Y-78994000D03*
X151485600Y-79121000D03*
X158750000Y-74930000D03*
X162560000Y-68580000D03*
X168910000Y-74930000D03*
X163710076Y-83989957D03*
X160730000Y-85420000D03*
X154940000Y-73660000D03*
X158750000Y-90170000D03*
X167640000Y-91440000D03*
X168910000Y-72390000D03*
X168415046Y-84768326D03*
X166370000Y-74930000D03*
X166370000Y-69850000D03*
X157480000Y-76200000D03*
X162590000Y-79010000D03*
X156596000Y-81873600D03*
X162560000Y-71120000D03*
X159380000Y-77920000D03*
X166370000Y-90170000D03*
X161290000Y-90170000D03*
X164857711Y-88005900D03*
X160020000Y-71120000D03*
X153670000Y-74930000D03*
X158318200Y-88544400D03*
X163830000Y-90170000D03*
X166370000Y-72390000D03*
X167640000Y-88900000D03*
X167640000Y-76200000D03*
X168910000Y-69850000D03*
X165100000Y-76200000D03*
X167517711Y-86415900D03*
X157480000Y-91440000D03*
X147320000Y-91440000D03*
X168910000Y-90170000D03*
X164737711Y-78135900D03*
X166617711Y-87975900D03*
X169360517Y-79445900D03*
X158750000Y-72390000D03*
X164747711Y-87015900D03*
X160020000Y-76200000D03*
X168910000Y-77470000D03*
X146050000Y-88900000D03*
X151130000Y-74930000D03*
X166687711Y-87005900D03*
X161540000Y-84510000D03*
X154940000Y-76200000D03*
X168447711Y-86455900D03*
X167640000Y-68580000D03*
X169557711Y-86295900D03*
X162560000Y-73660000D03*
X158900000Y-78660000D03*
X166677711Y-86100700D03*
X161610000Y-79860000D03*
X157480000Y-73660000D03*
X154940000Y-91440000D03*
X162560000Y-76200000D03*
X163430000Y-85800000D03*
X162560000Y-86360000D03*
X165753711Y-77118700D03*
X146050000Y-68580000D03*
X156210000Y-69850000D03*
X156210000Y-90170000D03*
%TO.N,Net-(J7-Pin_1)*%
X160300000Y-79040000D03*
%TO.N,/AVDD*%
X158750000Y-83921600D03*
X152552400Y-79146400D03*
X156819600Y-85191600D03*
X158648400Y-79959200D03*
X160432866Y-81678930D03*
%TO.N,Net-(IC1-SO_(GDO1))*%
X154090000Y-78910000D03*
%TO.N,Net-(IC1-SI)*%
X155549600Y-78536800D03*
%TO.N,Net-(J8-Pin_1)*%
X160462717Y-82478375D03*
%TD*%
%TA.AperFunction,Conductor*%
%TO.N,/AGND*%
G36*
X176203736Y-67320726D02*
G01*
X176469690Y-67336813D01*
X176484551Y-67338617D01*
X176742938Y-67385968D01*
X176757463Y-67389549D01*
X177008251Y-67467698D01*
X177022242Y-67473003D01*
X177261798Y-67580818D01*
X177275044Y-67587771D01*
X177499852Y-67723672D01*
X177512163Y-67732170D01*
X177624209Y-67819952D01*
X177718949Y-67894176D01*
X177730157Y-67904106D01*
X177915893Y-68089842D01*
X177925823Y-68101050D01*
X178087825Y-68307830D01*
X178096329Y-68320150D01*
X178232225Y-68544949D01*
X178239184Y-68558208D01*
X178346994Y-68797752D01*
X178352303Y-68811753D01*
X178430448Y-69062529D01*
X178434032Y-69077068D01*
X178481381Y-69335447D01*
X178483186Y-69350311D01*
X178499274Y-69616263D01*
X178499500Y-69623750D01*
X178499500Y-89926249D01*
X178499274Y-89933736D01*
X178483186Y-90199688D01*
X178481381Y-90214552D01*
X178434032Y-90472931D01*
X178430448Y-90487470D01*
X178352303Y-90738246D01*
X178346994Y-90752247D01*
X178239184Y-90991791D01*
X178232225Y-91005050D01*
X178096331Y-91229846D01*
X178087825Y-91242169D01*
X177925823Y-91448949D01*
X177915893Y-91460157D01*
X177730157Y-91645893D01*
X177718949Y-91655823D01*
X177512169Y-91817825D01*
X177499846Y-91826331D01*
X177275050Y-91962225D01*
X177261791Y-91969184D01*
X177022247Y-92076994D01*
X177008246Y-92082303D01*
X176757470Y-92160448D01*
X176742931Y-92164032D01*
X176484552Y-92211381D01*
X176469688Y-92213186D01*
X176203736Y-92229274D01*
X176196249Y-92229500D01*
X146363751Y-92229500D01*
X146356264Y-92229274D01*
X146090311Y-92213186D01*
X146075447Y-92211381D01*
X145817068Y-92164032D01*
X145802529Y-92160448D01*
X145551753Y-92082303D01*
X145537752Y-92076994D01*
X145298208Y-91969184D01*
X145284949Y-91962225D01*
X145060153Y-91826331D01*
X145047830Y-91817825D01*
X144841050Y-91655823D01*
X144829842Y-91645893D01*
X144644106Y-91460157D01*
X144634176Y-91448949D01*
X144472174Y-91242169D01*
X144463672Y-91229852D01*
X144327771Y-91005044D01*
X144320818Y-90991798D01*
X144213003Y-90752242D01*
X144207696Y-90738246D01*
X144197351Y-90705048D01*
X144129549Y-90487463D01*
X144125967Y-90472931D01*
X144078618Y-90214552D01*
X144076813Y-90199688D01*
X144076628Y-90196635D01*
X144060726Y-89933736D01*
X144060500Y-89926249D01*
X144060500Y-89443713D01*
X151049500Y-89443713D01*
X151049500Y-89656286D01*
X151082415Y-89864108D01*
X151082754Y-89866243D01*
X151102251Y-89926249D01*
X151148444Y-90068414D01*
X151244951Y-90257820D01*
X151369890Y-90429786D01*
X151520213Y-90580109D01*
X151692179Y-90705048D01*
X151692181Y-90705049D01*
X151692184Y-90705051D01*
X151881588Y-90801557D01*
X152083757Y-90867246D01*
X152293713Y-90900500D01*
X152293714Y-90900500D01*
X152506286Y-90900500D01*
X152506287Y-90900500D01*
X152716243Y-90867246D01*
X152918412Y-90801557D01*
X153107816Y-90705051D01*
X153192025Y-90643870D01*
X153279786Y-90580109D01*
X153279788Y-90580106D01*
X153279792Y-90580104D01*
X153430104Y-90429792D01*
X153430106Y-90429788D01*
X153430109Y-90429786D01*
X153555048Y-90257820D01*
X153555047Y-90257820D01*
X153555051Y-90257816D01*
X153651557Y-90068412D01*
X153717246Y-89866243D01*
X153750500Y-89656287D01*
X153750500Y-89443713D01*
X153740810Y-89382532D01*
X169409500Y-89382532D01*
X169409500Y-89595106D01*
X169442754Y-89805062D01*
X169482130Y-89926249D01*
X169508444Y-90007233D01*
X169604951Y-90196639D01*
X169729890Y-90368605D01*
X169880213Y-90518928D01*
X170052179Y-90643867D01*
X170052181Y-90643868D01*
X170052184Y-90643870D01*
X170241588Y-90740376D01*
X170443757Y-90806065D01*
X170653713Y-90839319D01*
X170653714Y-90839319D01*
X170866286Y-90839319D01*
X170866287Y-90839319D01*
X171076243Y-90806065D01*
X171278412Y-90740376D01*
X171467816Y-90643870D01*
X171555583Y-90580104D01*
X171639786Y-90518928D01*
X171639788Y-90518925D01*
X171639792Y-90518923D01*
X171790104Y-90368611D01*
X171790106Y-90368607D01*
X171790109Y-90368605D01*
X171915048Y-90196639D01*
X171915047Y-90196639D01*
X171915051Y-90196635D01*
X172011557Y-90007231D01*
X172077246Y-89805062D01*
X172110500Y-89595106D01*
X172110500Y-89382532D01*
X172077246Y-89172576D01*
X172011557Y-88970407D01*
X171915051Y-88781003D01*
X171915049Y-88781000D01*
X171915048Y-88780998D01*
X171790109Y-88609032D01*
X171639786Y-88458709D01*
X171467820Y-88333770D01*
X171278414Y-88237263D01*
X171278413Y-88237262D01*
X171278412Y-88237262D01*
X171076243Y-88171573D01*
X171076241Y-88171572D01*
X171076240Y-88171572D01*
X170914957Y-88146027D01*
X170866287Y-88138319D01*
X170653713Y-88138319D01*
X170605042Y-88146027D01*
X170443760Y-88171572D01*
X170241585Y-88237263D01*
X170052179Y-88333770D01*
X169880213Y-88458709D01*
X169729890Y-88609032D01*
X169604951Y-88780998D01*
X169508444Y-88970404D01*
X169442753Y-89172579D01*
X169433063Y-89233759D01*
X169409500Y-89382532D01*
X153740810Y-89382532D01*
X153717246Y-89233757D01*
X153651557Y-89031588D01*
X153555051Y-88842184D01*
X153555049Y-88842181D01*
X153555048Y-88842179D01*
X153430109Y-88670213D01*
X153279786Y-88519890D01*
X153107820Y-88394951D01*
X152918414Y-88298444D01*
X152918413Y-88298443D01*
X152918412Y-88298443D01*
X152716243Y-88232754D01*
X152716241Y-88232753D01*
X152716240Y-88232753D01*
X152554957Y-88207208D01*
X152506287Y-88199500D01*
X152293713Y-88199500D01*
X152245042Y-88207208D01*
X152083760Y-88232753D01*
X151881585Y-88298444D01*
X151692179Y-88394951D01*
X151520213Y-88519890D01*
X151369890Y-88670213D01*
X151244951Y-88842179D01*
X151148444Y-89031585D01*
X151082753Y-89233760D01*
X151049500Y-89443713D01*
X144060500Y-89443713D01*
X144060500Y-87303613D01*
X144080185Y-87236574D01*
X144132989Y-87190819D01*
X144202147Y-87180875D01*
X144265703Y-87209900D01*
X144300682Y-87260280D01*
X144346202Y-87382328D01*
X144346206Y-87382335D01*
X144432452Y-87497544D01*
X144432455Y-87497547D01*
X144547664Y-87583793D01*
X144547671Y-87583797D01*
X144682517Y-87634091D01*
X144682516Y-87634091D01*
X144689444Y-87634835D01*
X144742127Y-87640500D01*
X146537872Y-87640499D01*
X146597483Y-87634091D01*
X146732331Y-87583796D01*
X146835690Y-87506421D01*
X146901152Y-87482004D01*
X146969425Y-87496855D01*
X146984303Y-87506416D01*
X147087665Y-87583793D01*
X147087668Y-87583795D01*
X147087671Y-87583797D01*
X147222517Y-87634091D01*
X147222516Y-87634091D01*
X147229444Y-87634835D01*
X147282127Y-87640500D01*
X149077872Y-87640499D01*
X149137483Y-87634091D01*
X149272331Y-87583796D01*
X149387546Y-87497546D01*
X149473796Y-87382331D01*
X149524091Y-87247483D01*
X149530500Y-87187873D01*
X149530499Y-85392128D01*
X149524091Y-85332517D01*
X149500939Y-85270444D01*
X149473797Y-85197671D01*
X149473795Y-85197668D01*
X149461301Y-85180978D01*
X149449999Y-85165881D01*
X149410228Y-85112753D01*
X156019100Y-85112753D01*
X156019100Y-85270446D01*
X156049861Y-85425089D01*
X156049864Y-85425101D01*
X156110202Y-85570772D01*
X156110209Y-85570785D01*
X156197810Y-85701888D01*
X156197813Y-85701892D01*
X156309307Y-85813386D01*
X156309311Y-85813389D01*
X156440414Y-85900990D01*
X156440427Y-85900997D01*
X156586098Y-85961335D01*
X156586103Y-85961337D01*
X156740753Y-85992099D01*
X156740756Y-85992100D01*
X156740758Y-85992100D01*
X156898444Y-85992100D01*
X156898445Y-85992099D01*
X157053097Y-85961337D01*
X157198779Y-85900994D01*
X157329889Y-85813389D01*
X157441389Y-85701889D01*
X157528994Y-85570779D01*
X157589337Y-85425097D01*
X157620100Y-85270442D01*
X157620100Y-85112758D01*
X157620100Y-85112755D01*
X157620099Y-85112753D01*
X157599889Y-85011153D01*
X157589337Y-84958103D01*
X157541382Y-84842328D01*
X157528997Y-84812427D01*
X157528990Y-84812414D01*
X157441389Y-84681311D01*
X157441386Y-84681307D01*
X157329892Y-84569813D01*
X157329888Y-84569810D01*
X157198785Y-84482209D01*
X157198772Y-84482202D01*
X157053101Y-84421864D01*
X157053089Y-84421861D01*
X156898445Y-84391100D01*
X156898442Y-84391100D01*
X156740758Y-84391100D01*
X156740755Y-84391100D01*
X156586110Y-84421861D01*
X156586098Y-84421864D01*
X156440427Y-84482202D01*
X156440414Y-84482209D01*
X156309311Y-84569810D01*
X156309307Y-84569813D01*
X156197813Y-84681307D01*
X156197810Y-84681311D01*
X156110209Y-84812414D01*
X156110202Y-84812427D01*
X156049864Y-84958098D01*
X156049861Y-84958110D01*
X156019100Y-85112753D01*
X149410228Y-85112753D01*
X149396421Y-85094309D01*
X149372004Y-85028848D01*
X149386855Y-84960574D01*
X149396416Y-84945696D01*
X149473796Y-84842331D01*
X149524091Y-84707483D01*
X149530500Y-84647873D01*
X149530499Y-83842753D01*
X157949500Y-83842753D01*
X157949500Y-84000446D01*
X157980261Y-84155089D01*
X157980264Y-84155101D01*
X158040602Y-84300772D01*
X158040609Y-84300785D01*
X158128210Y-84431888D01*
X158128213Y-84431892D01*
X158239707Y-84543386D01*
X158239711Y-84543389D01*
X158370814Y-84630990D01*
X158370827Y-84630997D01*
X158464749Y-84669900D01*
X158516503Y-84691337D01*
X158662008Y-84720280D01*
X158671153Y-84722099D01*
X158671156Y-84722100D01*
X158671158Y-84722100D01*
X158828844Y-84722100D01*
X158828845Y-84722099D01*
X158983497Y-84691337D01*
X159129179Y-84630994D01*
X159260289Y-84543389D01*
X159371789Y-84431889D01*
X159459394Y-84300779D01*
X159519737Y-84155097D01*
X159550500Y-84000442D01*
X159550500Y-83842758D01*
X159550500Y-83842755D01*
X159550499Y-83842753D01*
X159519738Y-83688110D01*
X159519737Y-83688103D01*
X159519735Y-83688098D01*
X159459397Y-83542427D01*
X159459390Y-83542414D01*
X159371789Y-83411311D01*
X159371786Y-83411307D01*
X159260292Y-83299813D01*
X159260288Y-83299810D01*
X159129185Y-83212209D01*
X159129172Y-83212202D01*
X158983501Y-83151864D01*
X158983489Y-83151861D01*
X158828845Y-83121100D01*
X158828842Y-83121100D01*
X158671158Y-83121100D01*
X158671155Y-83121100D01*
X158516510Y-83151861D01*
X158516498Y-83151864D01*
X158370827Y-83212202D01*
X158370814Y-83212209D01*
X158239711Y-83299810D01*
X158239707Y-83299813D01*
X158128213Y-83411307D01*
X158128210Y-83411311D01*
X158040609Y-83542414D01*
X158040602Y-83542427D01*
X157980264Y-83688098D01*
X157980261Y-83688110D01*
X157949500Y-83842753D01*
X149530499Y-83842753D01*
X149530499Y-83688110D01*
X149530499Y-82852129D01*
X149530498Y-82852123D01*
X149524091Y-82792516D01*
X149473797Y-82657671D01*
X149473795Y-82657668D01*
X149449999Y-82625881D01*
X149396421Y-82554309D01*
X149372004Y-82488848D01*
X149386855Y-82420575D01*
X149396416Y-82405696D01*
X149473796Y-82302331D01*
X149524091Y-82167483D01*
X149530500Y-82107873D01*
X149530499Y-81600083D01*
X159632366Y-81600083D01*
X159632366Y-81757776D01*
X159663127Y-81912419D01*
X159663130Y-81912431D01*
X159725803Y-82063737D01*
X159724038Y-82064467D01*
X159736475Y-82124187D01*
X159727436Y-82161693D01*
X159692979Y-82244881D01*
X159692977Y-82244886D01*
X159662217Y-82399528D01*
X159662217Y-82557221D01*
X159692978Y-82711864D01*
X159692981Y-82711876D01*
X159753319Y-82857547D01*
X159753326Y-82857560D01*
X159840927Y-82988663D01*
X159840930Y-82988667D01*
X159952424Y-83100161D01*
X159952428Y-83100164D01*
X160083531Y-83187765D01*
X160083544Y-83187772D01*
X160229215Y-83248110D01*
X160229220Y-83248112D01*
X160383870Y-83278874D01*
X160383873Y-83278875D01*
X160383875Y-83278875D01*
X160541561Y-83278875D01*
X160541562Y-83278874D01*
X160696214Y-83248112D01*
X160841896Y-83187769D01*
X160973006Y-83100164D01*
X161084506Y-82988664D01*
X161172111Y-82857554D01*
X161232454Y-82711872D01*
X161263217Y-82557217D01*
X161263217Y-82399533D01*
X161263217Y-82399530D01*
X161263216Y-82399528D01*
X161243882Y-82302330D01*
X161232454Y-82244878D01*
X161182463Y-82124187D01*
X161169780Y-82093568D01*
X161171543Y-82092837D01*
X161159108Y-82033114D01*
X161168144Y-81995615D01*
X161202603Y-81912427D01*
X161233366Y-81757772D01*
X161233366Y-81600088D01*
X161233366Y-81600085D01*
X161233365Y-81600083D01*
X161202604Y-81445440D01*
X161202603Y-81445433D01*
X161202601Y-81445428D01*
X161142263Y-81299757D01*
X161142256Y-81299744D01*
X161054655Y-81168641D01*
X161054652Y-81168637D01*
X160943158Y-81057143D01*
X160943154Y-81057140D01*
X160812051Y-80969539D01*
X160812038Y-80969532D01*
X160666367Y-80909194D01*
X160666355Y-80909191D01*
X160511711Y-80878430D01*
X160511708Y-80878430D01*
X160354024Y-80878430D01*
X160354021Y-80878430D01*
X160199376Y-80909191D01*
X160199364Y-80909194D01*
X160053693Y-80969532D01*
X160053680Y-80969539D01*
X159922577Y-81057140D01*
X159922573Y-81057143D01*
X159811079Y-81168637D01*
X159811076Y-81168641D01*
X159723475Y-81299744D01*
X159723468Y-81299757D01*
X159663130Y-81445428D01*
X159663127Y-81445440D01*
X159632366Y-81600083D01*
X149530499Y-81600083D01*
X149530499Y-81168641D01*
X149530499Y-80312129D01*
X149530498Y-80312123D01*
X149524091Y-80252516D01*
X149473797Y-80117671D01*
X149473795Y-80117668D01*
X149449999Y-80085881D01*
X149396421Y-80014309D01*
X149372004Y-79948848D01*
X149386855Y-79880575D01*
X149396416Y-79865696D01*
X149473796Y-79762331D01*
X149524091Y-79627483D01*
X149530500Y-79567873D01*
X149530499Y-79067553D01*
X151751900Y-79067553D01*
X151751900Y-79225246D01*
X151782661Y-79379889D01*
X151782664Y-79379901D01*
X151843002Y-79525572D01*
X151843009Y-79525585D01*
X151930610Y-79656688D01*
X151930613Y-79656692D01*
X152042107Y-79768186D01*
X152042111Y-79768189D01*
X152173214Y-79855790D01*
X152173227Y-79855797D01*
X152310960Y-79912847D01*
X152318903Y-79916137D01*
X152438870Y-79940000D01*
X152473553Y-79946899D01*
X152473556Y-79946900D01*
X152473558Y-79946900D01*
X152631244Y-79946900D01*
X152631245Y-79946899D01*
X152785897Y-79916137D01*
X152872288Y-79880353D01*
X157847900Y-79880353D01*
X157847900Y-80038046D01*
X157878661Y-80192689D01*
X157878664Y-80192701D01*
X157939002Y-80338372D01*
X157939009Y-80338385D01*
X158026610Y-80469488D01*
X158026613Y-80469492D01*
X158138107Y-80580986D01*
X158138111Y-80580989D01*
X158269214Y-80668590D01*
X158269227Y-80668597D01*
X158414898Y-80728935D01*
X158414903Y-80728937D01*
X158569553Y-80759699D01*
X158569556Y-80759700D01*
X158569558Y-80759700D01*
X158727244Y-80759700D01*
X158727245Y-80759699D01*
X158881897Y-80728937D01*
X159027579Y-80668594D01*
X159158689Y-80580989D01*
X159270189Y-80469489D01*
X159357794Y-80338379D01*
X159418137Y-80192697D01*
X159448900Y-80038042D01*
X159448900Y-79880358D01*
X159448900Y-79880355D01*
X159448899Y-79880353D01*
X159434853Y-79809738D01*
X159418137Y-79725703D01*
X159399098Y-79679738D01*
X159357797Y-79580027D01*
X159357790Y-79580014D01*
X159270189Y-79448911D01*
X159270186Y-79448907D01*
X159158692Y-79337413D01*
X159158688Y-79337410D01*
X159027585Y-79249809D01*
X159027572Y-79249802D01*
X158881901Y-79189464D01*
X158881889Y-79189461D01*
X158727245Y-79158700D01*
X158727242Y-79158700D01*
X158569558Y-79158700D01*
X158569555Y-79158700D01*
X158414910Y-79189461D01*
X158414898Y-79189464D01*
X158269227Y-79249802D01*
X158269214Y-79249809D01*
X158138111Y-79337410D01*
X158138107Y-79337413D01*
X158026613Y-79448907D01*
X158026610Y-79448911D01*
X157939009Y-79580014D01*
X157939002Y-79580027D01*
X157878664Y-79725698D01*
X157878661Y-79725710D01*
X157847900Y-79880353D01*
X152872288Y-79880353D01*
X152907159Y-79865909D01*
X152931572Y-79855797D01*
X152931572Y-79855796D01*
X152931579Y-79855794D01*
X153062689Y-79768189D01*
X153174189Y-79656689D01*
X153261794Y-79525579D01*
X153282072Y-79476622D01*
X153325911Y-79422219D01*
X153392205Y-79400153D01*
X153459904Y-79417431D01*
X153484314Y-79436393D01*
X153579707Y-79531786D01*
X153579711Y-79531789D01*
X153710814Y-79619390D01*
X153710827Y-79619397D01*
X153813165Y-79661786D01*
X153856503Y-79679737D01*
X154011153Y-79710499D01*
X154011156Y-79710500D01*
X154011158Y-79710500D01*
X154168844Y-79710500D01*
X154168845Y-79710499D01*
X154323497Y-79679737D01*
X154469179Y-79619394D01*
X154600289Y-79531789D01*
X154711789Y-79420289D01*
X154799394Y-79289179D01*
X154836895Y-79198642D01*
X154880734Y-79144241D01*
X154947028Y-79122175D01*
X155014727Y-79139453D01*
X155034516Y-79154826D01*
X155034601Y-79154724D01*
X155038435Y-79157870D01*
X155039136Y-79158415D01*
X155039307Y-79158586D01*
X155039311Y-79158589D01*
X155170414Y-79246190D01*
X155170427Y-79246197D01*
X155274211Y-79289185D01*
X155316103Y-79306537D01*
X155470753Y-79337299D01*
X155470756Y-79337300D01*
X155470758Y-79337300D01*
X155628444Y-79337300D01*
X155628445Y-79337299D01*
X155783097Y-79306537D01*
X155920059Y-79249806D01*
X155928772Y-79246197D01*
X155928772Y-79246196D01*
X155928779Y-79246194D01*
X156059889Y-79158589D01*
X156171389Y-79047089D01*
X156228810Y-78961153D01*
X159499500Y-78961153D01*
X159499500Y-79118846D01*
X159530261Y-79273489D01*
X159530264Y-79273501D01*
X159590602Y-79419172D01*
X159590609Y-79419185D01*
X159678210Y-79550288D01*
X159678213Y-79550292D01*
X159789707Y-79661786D01*
X159789711Y-79661789D01*
X159920814Y-79749390D01*
X159920827Y-79749397D01*
X160066498Y-79809735D01*
X160066503Y-79809737D01*
X160221153Y-79840499D01*
X160221156Y-79840500D01*
X160221158Y-79840500D01*
X160378844Y-79840500D01*
X160378845Y-79840499D01*
X160533497Y-79809737D01*
X160679179Y-79749394D01*
X160810289Y-79661789D01*
X160921789Y-79550289D01*
X161009394Y-79419179D01*
X161069737Y-79273497D01*
X161100500Y-79118842D01*
X161100500Y-78961158D01*
X161100500Y-78961155D01*
X161100499Y-78961153D01*
X161069738Y-78806510D01*
X161069737Y-78806503D01*
X161054737Y-78770289D01*
X161009397Y-78660827D01*
X161009390Y-78660814D01*
X160921789Y-78529711D01*
X160921786Y-78529707D01*
X160810292Y-78418213D01*
X160810288Y-78418210D01*
X160679185Y-78330609D01*
X160679172Y-78330602D01*
X160533501Y-78270264D01*
X160533489Y-78270261D01*
X160378845Y-78239500D01*
X160378842Y-78239500D01*
X160221158Y-78239500D01*
X160221155Y-78239500D01*
X160066510Y-78270261D01*
X160066498Y-78270264D01*
X159920827Y-78330602D01*
X159920814Y-78330609D01*
X159789711Y-78418210D01*
X159789707Y-78418213D01*
X159678213Y-78529707D01*
X159678210Y-78529711D01*
X159590609Y-78660814D01*
X159590602Y-78660827D01*
X159530264Y-78806498D01*
X159530261Y-78806510D01*
X159499500Y-78961153D01*
X156228810Y-78961153D01*
X156258994Y-78915979D01*
X156319337Y-78770297D01*
X156350100Y-78615642D01*
X156350100Y-78457958D01*
X156350100Y-78457955D01*
X156350099Y-78457953D01*
X156342194Y-78418211D01*
X156319337Y-78303303D01*
X156314644Y-78291973D01*
X156258997Y-78157627D01*
X156258990Y-78157614D01*
X156171389Y-78026511D01*
X156171386Y-78026507D01*
X156059892Y-77915013D01*
X156059888Y-77915010D01*
X155928785Y-77827409D01*
X155928772Y-77827402D01*
X155783101Y-77767064D01*
X155783089Y-77767061D01*
X155628445Y-77736300D01*
X155628442Y-77736300D01*
X155470758Y-77736300D01*
X155470755Y-77736300D01*
X155316110Y-77767061D01*
X155316098Y-77767064D01*
X155170427Y-77827402D01*
X155170414Y-77827409D01*
X155039311Y-77915010D01*
X155039307Y-77915013D01*
X154927813Y-78026507D01*
X154927810Y-78026511D01*
X154840209Y-78157614D01*
X154840204Y-78157623D01*
X154802705Y-78248156D01*
X154758864Y-78302559D01*
X154692570Y-78324624D01*
X154624871Y-78307345D01*
X154605083Y-78291973D01*
X154604999Y-78292076D01*
X154601159Y-78288925D01*
X154600463Y-78288384D01*
X154600292Y-78288213D01*
X154600288Y-78288210D01*
X154469185Y-78200609D01*
X154469172Y-78200602D01*
X154323501Y-78140264D01*
X154323489Y-78140261D01*
X154168845Y-78109500D01*
X154168842Y-78109500D01*
X154011158Y-78109500D01*
X154011155Y-78109500D01*
X153856510Y-78140261D01*
X153856498Y-78140264D01*
X153710827Y-78200602D01*
X153710814Y-78200609D01*
X153579711Y-78288210D01*
X153579707Y-78288213D01*
X153468213Y-78399707D01*
X153468210Y-78399711D01*
X153380609Y-78530814D01*
X153380604Y-78530824D01*
X153360327Y-78579778D01*
X153316486Y-78634181D01*
X153250192Y-78656246D01*
X153182492Y-78638967D01*
X153158085Y-78620006D01*
X153062692Y-78524613D01*
X153062688Y-78524610D01*
X152931585Y-78437009D01*
X152931572Y-78437002D01*
X152785901Y-78376664D01*
X152785889Y-78376661D01*
X152631245Y-78345900D01*
X152631242Y-78345900D01*
X152473558Y-78345900D01*
X152473555Y-78345900D01*
X152318910Y-78376661D01*
X152318898Y-78376664D01*
X152173227Y-78437002D01*
X152173214Y-78437009D01*
X152042111Y-78524610D01*
X152042107Y-78524613D01*
X151930613Y-78636107D01*
X151930610Y-78636111D01*
X151843009Y-78767214D01*
X151843002Y-78767227D01*
X151782664Y-78912898D01*
X151782661Y-78912910D01*
X151751900Y-79067553D01*
X149530499Y-79067553D01*
X149530499Y-78660827D01*
X149530499Y-77772129D01*
X149530498Y-77772123D01*
X149530497Y-77772116D01*
X149524091Y-77712517D01*
X149473796Y-77577669D01*
X149396421Y-77474309D01*
X149372004Y-77408848D01*
X149386855Y-77340575D01*
X149396416Y-77325696D01*
X149473796Y-77222331D01*
X149524091Y-77087483D01*
X149530500Y-77027873D01*
X149530499Y-75232128D01*
X149524091Y-75172517D01*
X149473796Y-75037669D01*
X149396421Y-74934309D01*
X149372004Y-74868848D01*
X149386855Y-74800575D01*
X149396416Y-74785696D01*
X149473796Y-74682331D01*
X149524091Y-74547483D01*
X149530500Y-74487873D01*
X149530499Y-72692128D01*
X149524091Y-72632517D01*
X149473796Y-72497669D01*
X149473795Y-72497668D01*
X149473793Y-72497664D01*
X149387547Y-72382455D01*
X149387544Y-72382452D01*
X149272335Y-72296206D01*
X149272328Y-72296202D01*
X149137482Y-72245908D01*
X149137483Y-72245908D01*
X149077883Y-72239501D01*
X149077881Y-72239500D01*
X149077873Y-72239500D01*
X149077864Y-72239500D01*
X147282129Y-72239500D01*
X147282123Y-72239501D01*
X147222516Y-72245908D01*
X147087671Y-72296202D01*
X147087664Y-72296206D01*
X146972455Y-72382452D01*
X146972452Y-72382455D01*
X146886206Y-72497664D01*
X146886202Y-72497671D01*
X146835908Y-72632517D01*
X146830763Y-72680376D01*
X146829501Y-72692123D01*
X146829500Y-72692135D01*
X146829500Y-74487870D01*
X146829501Y-74487876D01*
X146835908Y-74547483D01*
X146886202Y-74682328D01*
X146886203Y-74682330D01*
X146963578Y-74785689D01*
X146987995Y-74851153D01*
X146973144Y-74919426D01*
X146963578Y-74934311D01*
X146886203Y-75037669D01*
X146886202Y-75037671D01*
X146835908Y-75172517D01*
X146829501Y-75232116D01*
X146829501Y-75232123D01*
X146829500Y-75232135D01*
X146829500Y-77027870D01*
X146829501Y-77027876D01*
X146835908Y-77087483D01*
X146886202Y-77222328D01*
X146886203Y-77222330D01*
X146963578Y-77325689D01*
X146987995Y-77391153D01*
X146973144Y-77459426D01*
X146963578Y-77474311D01*
X146886203Y-77577669D01*
X146886202Y-77577671D01*
X146835908Y-77712517D01*
X146830044Y-77767063D01*
X146829501Y-77772123D01*
X146829500Y-77772135D01*
X146829500Y-79567870D01*
X146829501Y-79567876D01*
X146835908Y-79627483D01*
X146882847Y-79753332D01*
X146887831Y-79823024D01*
X146854346Y-79884347D01*
X146793022Y-79917831D01*
X146723332Y-79912847D01*
X146597482Y-79865908D01*
X146597483Y-79865908D01*
X146537883Y-79859501D01*
X146537881Y-79859500D01*
X146537873Y-79859500D01*
X146537864Y-79859500D01*
X144742129Y-79859500D01*
X144742123Y-79859501D01*
X144682516Y-79865908D01*
X144547671Y-79916202D01*
X144547664Y-79916206D01*
X144432455Y-80002452D01*
X144432452Y-80002455D01*
X144346206Y-80117664D01*
X144346202Y-80117671D01*
X144300682Y-80239719D01*
X144258811Y-80295653D01*
X144193347Y-80320070D01*
X144125074Y-80305219D01*
X144075668Y-80255813D01*
X144060500Y-80196386D01*
X144060500Y-71383713D01*
X151049500Y-71383713D01*
X151049500Y-71596286D01*
X151082753Y-71806239D01*
X151148444Y-72008414D01*
X151244951Y-72197820D01*
X151369890Y-72369786D01*
X151520213Y-72520109D01*
X151692179Y-72645048D01*
X151692181Y-72645049D01*
X151692184Y-72645051D01*
X151881588Y-72741557D01*
X152083757Y-72807246D01*
X152293713Y-72840500D01*
X152293714Y-72840500D01*
X152506286Y-72840500D01*
X152506287Y-72840500D01*
X152716243Y-72807246D01*
X152918412Y-72741557D01*
X153107816Y-72645051D01*
X153192025Y-72583870D01*
X153279786Y-72520109D01*
X153279788Y-72520106D01*
X153279792Y-72520104D01*
X153430104Y-72369792D01*
X153430106Y-72369788D01*
X153430109Y-72369786D01*
X153555048Y-72197820D01*
X153555047Y-72197820D01*
X153555051Y-72197816D01*
X153651557Y-72008412D01*
X153717246Y-71806243D01*
X153750500Y-71596287D01*
X153750500Y-71383713D01*
X153740810Y-71322532D01*
X169409500Y-71322532D01*
X169409500Y-71535105D01*
X169442753Y-71745058D01*
X169508444Y-71947233D01*
X169604951Y-72136639D01*
X169729890Y-72308605D01*
X169880213Y-72458928D01*
X170052179Y-72583867D01*
X170052181Y-72583868D01*
X170052184Y-72583870D01*
X170241588Y-72680376D01*
X170443757Y-72746065D01*
X170653713Y-72779319D01*
X170653714Y-72779319D01*
X170866286Y-72779319D01*
X170866287Y-72779319D01*
X171076243Y-72746065D01*
X171278412Y-72680376D01*
X171467816Y-72583870D01*
X171586460Y-72497671D01*
X171639786Y-72458928D01*
X171639788Y-72458925D01*
X171639792Y-72458923D01*
X171790104Y-72308611D01*
X171790106Y-72308607D01*
X171790109Y-72308605D01*
X171915048Y-72136639D01*
X171915047Y-72136639D01*
X171915051Y-72136635D01*
X172011557Y-71947231D01*
X172077246Y-71745062D01*
X172110500Y-71535106D01*
X172110500Y-71322532D01*
X172077246Y-71112576D01*
X172011557Y-70910407D01*
X171915051Y-70721003D01*
X171915049Y-70721000D01*
X171915048Y-70720998D01*
X171790109Y-70549032D01*
X171639786Y-70398709D01*
X171467820Y-70273770D01*
X171278414Y-70177263D01*
X171278413Y-70177262D01*
X171278412Y-70177262D01*
X171076243Y-70111573D01*
X171076241Y-70111572D01*
X171076240Y-70111572D01*
X170914957Y-70086027D01*
X170866287Y-70078319D01*
X170653713Y-70078319D01*
X170605042Y-70086027D01*
X170443760Y-70111572D01*
X170241585Y-70177263D01*
X170052179Y-70273770D01*
X169880213Y-70398709D01*
X169729890Y-70549032D01*
X169604951Y-70720998D01*
X169508444Y-70910404D01*
X169442753Y-71112579D01*
X169409500Y-71322532D01*
X153740810Y-71322532D01*
X153717246Y-71173757D01*
X153651557Y-70971588D01*
X153555051Y-70782184D01*
X153555049Y-70782181D01*
X153555048Y-70782179D01*
X153430109Y-70610213D01*
X153279786Y-70459890D01*
X153107820Y-70334951D01*
X152918414Y-70238444D01*
X152918413Y-70238443D01*
X152918412Y-70238443D01*
X152716243Y-70172754D01*
X152716241Y-70172753D01*
X152716240Y-70172753D01*
X152554957Y-70147208D01*
X152506287Y-70139500D01*
X152293713Y-70139500D01*
X152245042Y-70147208D01*
X152083760Y-70172753D01*
X151881585Y-70238444D01*
X151692179Y-70334951D01*
X151520213Y-70459890D01*
X151369890Y-70610213D01*
X151244951Y-70782179D01*
X151148444Y-70971585D01*
X151082753Y-71173760D01*
X151049500Y-71383713D01*
X144060500Y-71383713D01*
X144060500Y-69623750D01*
X144060726Y-69616263D01*
X144076813Y-69350311D01*
X144078618Y-69335447D01*
X144121219Y-69102980D01*
X144125969Y-69077057D01*
X144129548Y-69062539D01*
X144207699Y-68811743D01*
X144213001Y-68797762D01*
X144320822Y-68558194D01*
X144327767Y-68544961D01*
X144463677Y-68320139D01*
X144472164Y-68307843D01*
X144634183Y-68101041D01*
X144644098Y-68089850D01*
X144829850Y-67904098D01*
X144841041Y-67894183D01*
X145047843Y-67732164D01*
X145060139Y-67723677D01*
X145284961Y-67587767D01*
X145298194Y-67580822D01*
X145537762Y-67473001D01*
X145551743Y-67467699D01*
X145802539Y-67389548D01*
X145817057Y-67385969D01*
X146075450Y-67338617D01*
X146090307Y-67336813D01*
X146356264Y-67320726D01*
X146363751Y-67320500D01*
X146425892Y-67320500D01*
X176134108Y-67320500D01*
X176196249Y-67320500D01*
X176203736Y-67320726D01*
G37*
%TD.AperFunction*%
%TD*%
M02*
