%TF.GenerationSoftware,KiCad,Pcbnew,10.0.3*%
%TF.CreationDate,2026-07-04T14:53:50+01:00*%
%TF.ProjectId,CC1101_Multx,43433131-3031-45f4-9d75-6c74782e6b69,rev?*%
%TF.SameCoordinates,Original*%
%TF.FileFunction,Copper,L1,Top*%
%TF.FilePolarity,Positive*%
%FSLAX46Y46*%
G04 Gerber Fmt 4.6, Leading zero omitted, Abs format (unit mm)*
G04 Created by KiCad (PCBNEW 10.0.3) date 2026-07-04 14:53:50*
%MOMM*%
%LPD*%
G01*
G04 APERTURE LIST*
G04 Aperture macros list*
%AMRoundRect*
0 Rectangle with rounded corners*
0 $1 Rounding radius*
0 $2 $3 $4 $5 $6 $7 $8 $9 X,Y pos of 4 corners*
0 Add a 4 corners polygon primitive as box body*
4,1,4,$2,$3,$4,$5,$6,$7,$8,$9,$2,$3,0*
0 Add four circle primitives for the rounded corners*
1,1,$1+$1,$2,$3*
1,1,$1+$1,$4,$5*
1,1,$1+$1,$6,$7*
1,1,$1+$1,$8,$9*
0 Add four rect primitives between the rounded corners*
20,1,$1+$1,$2,$3,$4,$5,0*
20,1,$1+$1,$4,$5,$6,$7,0*
20,1,$1+$1,$6,$7,$8,$9,0*
20,1,$1+$1,$8,$9,$2,$3,0*%
G04 Aperture macros list end*
%TA.AperFunction,EtchedComponent*%
%ADD10C,0.460000*%
%TD*%
%TA.AperFunction,SMDPad,CuDef*%
%ADD11RoundRect,0.147500X-0.147500X-0.172500X0.147500X-0.172500X0.147500X0.172500X-0.147500X0.172500X0*%
%TD*%
%TA.AperFunction,SMDPad,CuDef*%
%ADD12RoundRect,0.037500X-0.137500X-0.087500X0.137500X-0.087500X0.137500X0.087500X-0.137500X0.087500X0*%
%TD*%
%TA.AperFunction,SMDPad,CuDef*%
%ADD13RoundRect,0.140000X-0.170000X0.140000X-0.170000X-0.140000X0.170000X-0.140000X0.170000X0.140000X0*%
%TD*%
%TA.AperFunction,SMDPad,CuDef*%
%ADD14R,0.950000X0.300000*%
%TD*%
%TA.AperFunction,SMDPad,CuDef*%
%ADD15R,0.300000X0.950000*%
%TD*%
%TA.AperFunction,SMDPad,CuDef*%
%ADD16R,2.500000X2.500000*%
%TD*%
%TA.AperFunction,ComponentPad*%
%ADD17R,1.700000X1.700000*%
%TD*%
%TA.AperFunction,SMDPad,CuDef*%
%ADD18RoundRect,0.147500X0.172500X-0.147500X0.172500X0.147500X-0.172500X0.147500X-0.172500X-0.147500X0*%
%TD*%
%TA.AperFunction,SMDPad,CuDef*%
%ADD19RoundRect,0.140000X-0.140000X-0.170000X0.140000X-0.170000X0.140000X0.170000X-0.140000X0.170000X0*%
%TD*%
%TA.AperFunction,SMDPad,CuDef*%
%ADD20RoundRect,0.140000X0.140000X0.170000X-0.140000X0.170000X-0.140000X-0.170000X0.140000X-0.170000X0*%
%TD*%
%TA.AperFunction,SMDPad,CuDef*%
%ADD21RoundRect,0.140000X0.170000X-0.140000X0.170000X0.140000X-0.170000X0.140000X-0.170000X-0.140000X0*%
%TD*%
%TA.AperFunction,ComponentPad*%
%ADD22RoundRect,0.249999X0.850001X0.850001X-0.850001X0.850001X-0.850001X-0.850001X0.850001X-0.850001X0*%
%TD*%
%TA.AperFunction,ComponentPad*%
%ADD23C,2.200000*%
%TD*%
%TA.AperFunction,SMDPad,CuDef*%
%ADD24RoundRect,0.102000X-0.373000X-0.323000X0.373000X-0.323000X0.373000X0.323000X-0.373000X0.323000X0*%
%TD*%
%TA.AperFunction,SMDPad,CuDef*%
%ADD25RoundRect,0.037500X0.137500X0.087500X-0.137500X0.087500X-0.137500X-0.087500X0.137500X-0.087500X0*%
%TD*%
%TA.AperFunction,SMDPad,CuDef*%
%ADD26RoundRect,0.218750X-0.218750X-0.256250X0.218750X-0.256250X0.218750X0.256250X-0.218750X0.256250X0*%
%TD*%
%TA.AperFunction,SMDPad,CuDef*%
%ADD27RoundRect,0.250000X-1.595000X-0.640000X1.595000X-0.640000X1.595000X0.640000X-1.595000X0.640000X0*%
%TD*%
%TA.AperFunction,ComponentPad*%
%ADD28C,0.970000*%
%TD*%
%TA.AperFunction,SMDPad,CuDef*%
%ADD29RoundRect,0.250000X-1.595000X-1.082500X1.595000X-1.082500X1.595000X1.082500X-1.595000X1.082500X0*%
%TD*%
%TA.AperFunction,SMDPad,CuDef*%
%ADD30RoundRect,0.135000X-0.185000X0.135000X-0.185000X-0.135000X0.185000X-0.135000X0.185000X0.135000X0*%
%TD*%
%TA.AperFunction,SMDPad,CuDef*%
%ADD31RoundRect,0.147500X0.147500X0.172500X-0.147500X0.172500X-0.147500X-0.172500X0.147500X-0.172500X0*%
%TD*%
%TA.AperFunction,ViaPad*%
%ADD32C,0.600000*%
%TD*%
%TA.AperFunction,Conductor*%
%ADD33C,0.200000*%
%TD*%
%TA.AperFunction,Conductor*%
%ADD34C,0.150000*%
%TD*%
G04 APERTURE END LIST*
%TO.C,AE1*%
D10*
X178410794Y-79468200D02*
X175675794Y-79468200D01*
X178410794Y-86453200D02*
X175675794Y-86453200D01*
%TD*%
D11*
%TO.P,L131_1,1,1_1*%
%TO.N,/433_N*%
X165478600Y-79959200D03*
%TO.P,L131_1,2,2_2*%
%TO.N,Net-(C121_1-Pad2)*%
X166448600Y-79959200D03*
%TD*%
D12*
%TO.P,IC4,1,RF2_1*%
%TO.N,/433_A*%
X172280094Y-82623200D03*
%TO.P,IC4,2,GND_2*%
%TO.N,/AGND*%
X172280094Y-83023200D03*
%TO.P,IC4,3,RF1_3*%
%TO.N,/868_A*%
X172280094Y-83423200D03*
%TO.P,IC4,4,VDD_4*%
%TO.N,/AVDD*%
X172830094Y-83423200D03*
%TO.P,IC4,5,RFC_5*%
%TO.N,/To_Ant*%
X172830094Y-83023200D03*
%TO.P,IC4,6,VCTL_6*%
%TO.N,Net-(IC4-VCTL)*%
X172830094Y-82623200D03*
%TD*%
D13*
%TO.P,C123_1,1*%
%TO.N,/AGND*%
X170789594Y-78670700D03*
%TO.P,C123_1,2*%
%TO.N,Net-(C123_1-Pad2)*%
X170789594Y-79630700D03*
%TD*%
D14*
%TO.P,IC1,1,SCLK_1*%
%TO.N,Net-(IC1-SCLK)*%
X154696000Y-80873600D03*
%TO.P,IC1,2,SO_(GDO1)_2*%
%TO.N,Net-(IC1-SO_(GDO1))*%
X154696000Y-81373600D03*
%TO.P,IC1,3,GDO2_3*%
%TO.N,Net-(IC1-GDO2)*%
X154696000Y-81873600D03*
%TO.P,IC1,4,DVDD_4*%
%TO.N,/AVDD*%
X154696000Y-82373600D03*
%TO.P,IC1,5,DCOUPL_5*%
%TO.N,Net-(IC1-DCOUPL)*%
X154696000Y-82873600D03*
D15*
%TO.P,IC1,6,GDO0_(ATEST)_6*%
%TO.N,Net-(IC1-GDO0_(ATEST))*%
X155596000Y-83773600D03*
%TO.P,IC1,7,CSN_7*%
%TO.N,Net-(IC1-CSN)*%
X156096000Y-83773600D03*
%TO.P,IC1,8,XOSC_Q1_8*%
%TO.N,Net-(IC1-XOSC_Q1)*%
X156596000Y-83773600D03*
%TO.P,IC1,9,AVDD_1_9*%
%TO.N,/AVDD*%
X157096000Y-83773600D03*
%TO.P,IC1,10,XOSC_Q2_10*%
%TO.N,Net-(IC1-XOSC_Q2)*%
X157596000Y-83773600D03*
D14*
%TO.P,IC1,11,AVDD_2_11*%
%TO.N,/AVDD*%
X158496000Y-82873600D03*
%TO.P,IC1,12,RF_P_12*%
%TO.N,/RF_P*%
X158496000Y-82373600D03*
%TO.P,IC1,13,RF_N_13*%
%TO.N,/RF_N*%
X158496000Y-81873600D03*
%TO.P,IC1,14,AVDD_3_14*%
%TO.N,/AVDD*%
X158496000Y-81373600D03*
%TO.P,IC1,15,AVDD_4_15*%
X158496000Y-80873600D03*
D15*
%TO.P,IC1,16,GND_1_16*%
%TO.N,/AGND*%
X157596000Y-79973600D03*
%TO.P,IC1,17,RBIAS_17*%
%TO.N,Net-(IC1-RBIAS)*%
X157096000Y-79973600D03*
%TO.P,IC1,18,DGUARD_18*%
%TO.N,/AGND*%
X156596000Y-79973600D03*
%TO.P,IC1,19,GND_2_19*%
X156096000Y-79973600D03*
%TO.P,IC1,20,SI_20*%
%TO.N,Net-(IC1-SI)*%
X155596000Y-79973600D03*
D16*
%TO.P,IC1,21,GND_3_21*%
%TO.N,/AGND*%
X156596000Y-81873600D03*
%TD*%
D17*
%TO.P,J8,1,Pin_1_1*%
%TO.N,Net-(IC3-VCTL)*%
X148336000Y-89865200D03*
%TD*%
%TO.P,J7,1,Pin_1_1*%
%TO.N,Net-(IC2-VCTL)*%
X148336000Y-72085200D03*
%TD*%
D18*
%TO.P,L121_1,1,1_1*%
%TO.N,Net-(C124_1-Pad2)*%
X163626794Y-86493700D03*
%TO.P,L121_1,2,2_2*%
%TO.N,/433_P*%
X163626794Y-85523700D03*
%TD*%
D19*
%TO.P,C3,1*%
%TO.N,/AGND*%
X151513600Y-82092800D03*
%TO.P,C3,2*%
%TO.N,/AVDD*%
X152473600Y-82092800D03*
%TD*%
D20*
%TO.P,C51,1*%
%TO.N,Net-(IC1-DCOUPL)*%
X152473600Y-83159600D03*
%TO.P,C51,2*%
%TO.N,/AGND*%
X151513600Y-83159600D03*
%TD*%
D11*
%TO.P,L122_1,1,1_1*%
%TO.N,Net-(C121_1-Pad2)*%
X168475794Y-82351100D03*
%TO.P,L122_1,2,2_2*%
%TO.N,Net-(C122_1-Pad2)*%
X169445794Y-82351100D03*
%TD*%
D17*
%TO.P,J3,1,Pin_1_1*%
%TO.N,Net-(IC1-GDO2)*%
X148336000Y-82245200D03*
%TD*%
D21*
%TO.P,C131_1,1*%
%TO.N,/433_N*%
X163626794Y-78868700D03*
%TO.P,C131_1,2*%
%TO.N,/AGND*%
X163626794Y-77908700D03*
%TD*%
D22*
%TO.P,BT1,1,+_1*%
%TO.N,/AVDD*%
X159240000Y-73120000D03*
D23*
%TO.P,BT1,2,-_2*%
%TO.N,/AGND*%
X156700000Y-73120000D03*
%TD*%
D17*
%TO.P,J1,1,Pin_1_1*%
%TO.N,Net-(IC1-SCLK)*%
X148336000Y-79705200D03*
%TD*%
D20*
%TO.P,C131_2,1*%
%TO.N,Net-(C121_2-Pad1)*%
X163217794Y-79988900D03*
%TO.P,C131_2,2*%
%TO.N,/AGND*%
X162257794Y-79988900D03*
%TD*%
D11*
%TO.P,L132_2,1,1_1*%
%TO.N,Net-(C121_2-Pad1)*%
X164284794Y-81004900D03*
%TO.P,L132_2,2,2_2*%
%TO.N,Net-(C122_2-Pad2)*%
X165254794Y-81004900D03*
%TD*%
D20*
%TO.P,C121_2,1*%
%TO.N,Net-(C121_2-Pad1)*%
X164208394Y-82097100D03*
%TO.P,C121_2,2*%
%TO.N,Net-(C121_2-Pad2)*%
X163248394Y-82097100D03*
%TD*%
D17*
%TO.P,J6,1,Pin_1_1*%
%TO.N,Net-(IC1-CSN)*%
X148336000Y-87325200D03*
%TD*%
D19*
%TO.P,C2,1*%
%TO.N,/AGND*%
X151513600Y-81026000D03*
%TO.P,C2,2*%
%TO.N,/AVDD*%
X152473600Y-81026000D03*
%TD*%
D17*
%TO.P,J4,1,Pin_1_1*%
%TO.N,Net-(IC1-SI)*%
X148336000Y-74625200D03*
%TD*%
D24*
%TO.P,Y1,1,1_1*%
%TO.N,Net-(IC1-XOSC_Q1)*%
X156069200Y-87747800D03*
%TO.P,Y1,2,G_2*%
%TO.N,/AGND*%
X157519200Y-87747800D03*
%TO.P,Y1,3,3_3*%
%TO.N,Net-(IC1-XOSC_Q2)*%
X157519200Y-86597800D03*
%TO.P,Y1,4,G_4*%
%TO.N,/AGND*%
X156069200Y-86597800D03*
%TD*%
D25*
%TO.P,IC3,1,RF2_1*%
%TO.N,/433_P*%
X160561500Y-84055900D03*
%TO.P,IC3,2,GND_2*%
%TO.N,/AGND*%
X160561500Y-83655900D03*
%TO.P,IC3,3,RF1_3*%
%TO.N,/868_P*%
X160561500Y-83255900D03*
%TO.P,IC3,4,VDD_4*%
%TO.N,/AVDD*%
X160011500Y-83255900D03*
%TO.P,IC3,5,RFC_5*%
%TO.N,/RF_P*%
X160011500Y-83655900D03*
%TO.P,IC3,6,VCTL_6*%
%TO.N,Net-(IC3-VCTL)*%
X160011500Y-84055900D03*
%TD*%
D17*
%TO.P,J2,1,Pin_1_1*%
%TO.N,Net-(IC1-SO_(GDO1))*%
X148336000Y-77165200D03*
%TD*%
D19*
%TO.P,C122_2,1*%
%TO.N,Net-(C121_2-Pad2)*%
X164264394Y-83214700D03*
%TO.P,C122_2,2*%
%TO.N,Net-(C122_2-Pad2)*%
X165224394Y-83214700D03*
%TD*%
D17*
%TO.P,J5,1,Pin_1_1*%
%TO.N,Net-(IC1-GDO0_(ATEST))*%
X148336000Y-84785200D03*
%TD*%
D21*
%TO.P,C4,1*%
%TO.N,/AGND*%
X154762200Y-87881400D03*
%TO.P,C4,2*%
%TO.N,Net-(IC1-XOSC_Q1)*%
X154762200Y-86921400D03*
%TD*%
D26*
%TO.P,L124_2,1,1_1*%
%TO.N,Net-(C123_2-Pad2)*%
X167563694Y-83773500D03*
%TO.P,L124_2,2,2_2*%
%TO.N,Net-(C125_2-Pad2)*%
X169138694Y-83773500D03*
%TD*%
D21*
%TO.P,C123_2,1*%
%TO.N,/AGND*%
X166268394Y-84151900D03*
%TO.P,C123_2,2*%
%TO.N,Net-(C123_2-Pad2)*%
X166268394Y-83191900D03*
%TD*%
D27*
%TO.P,AE1,1,A_1*%
%TO.N,/To_Ant*%
X178410794Y-82960700D03*
D28*
%TO.P,AE1,2,Shield_2*%
%TO.N,/AGND*%
X175675794Y-79468200D03*
X175675794Y-86453200D03*
D29*
X178410794Y-79468200D03*
X178410794Y-86453200D03*
%TD*%
D19*
%TO.P,C1,1*%
%TO.N,/AGND*%
X151513600Y-79959200D03*
%TO.P,C1,2*%
%TO.N,/AVDD*%
X152473600Y-79959200D03*
%TD*%
D13*
%TO.P,C122_1,1*%
%TO.N,/AGND*%
X169519594Y-80194700D03*
%TO.P,C122_1,2*%
%TO.N,Net-(C122_1-Pad2)*%
X169519594Y-81154700D03*
%TD*%
D20*
%TO.P,C125_2,1*%
%TO.N,/868_A*%
X171320394Y-83722700D03*
%TO.P,C125_2,2*%
%TO.N,Net-(C125_2-Pad2)*%
X170360394Y-83722700D03*
%TD*%
D25*
%TO.P,IC2,1,RF2_1*%
%TO.N,/868_N*%
X160578800Y-81826000D03*
%TO.P,IC2,2,GND_2*%
%TO.N,/AGND*%
X160578800Y-81426000D03*
%TO.P,IC2,3,RF1_3*%
%TO.N,/433_N*%
X160578800Y-81026000D03*
%TO.P,IC2,4,VDD_4*%
%TO.N,/AVDD*%
X160028800Y-81026000D03*
%TO.P,IC2,5,RFC_5*%
%TO.N,/RF_N*%
X160028800Y-81426000D03*
%TO.P,IC2,6,VCTL_6*%
%TO.N,Net-(IC2-VCTL)*%
X160028800Y-81826000D03*
%TD*%
D19*
%TO.P,C121_1,1*%
%TO.N,/433_P*%
X165839194Y-85500700D03*
%TO.P,C121_1,2*%
%TO.N,Net-(C121_1-Pad2)*%
X166799194Y-85500700D03*
%TD*%
D30*
%TO.P,R171,1*%
%TO.N,/AGND*%
X157073600Y-77671200D03*
%TO.P,R171,2*%
%TO.N,Net-(IC1-RBIAS)*%
X157073600Y-78691200D03*
%TD*%
D11*
%TO.P,L121_2,1,1_1*%
%TO.N,/868_P*%
X162278194Y-83214700D03*
%TO.P,L121_2,2,2_2*%
%TO.N,Net-(C121_2-Pad2)*%
X163248194Y-83214700D03*
%TD*%
D19*
%TO.P,C124_2,1*%
%TO.N,/AGND*%
X162308594Y-84230700D03*
%TO.P,C124_2,2*%
%TO.N,Net-(C124_2-Pad2)*%
X163268594Y-84230700D03*
%TD*%
D21*
%TO.P,C125_1,1*%
%TO.N,/433_A*%
X171856394Y-81662700D03*
%TO.P,C125_1,2*%
%TO.N,Net-(C123_1-Pad2)*%
X171856394Y-80702700D03*
%TD*%
D17*
%TO.P,J9,1,Pin_1_1*%
%TO.N,Net-(IC4-VCTL)*%
X148336000Y-69545200D03*
%TD*%
D18*
%TO.P,L123_1,1,1_1*%
%TO.N,Net-(C122_1-Pad2)*%
X170789594Y-81667700D03*
%TO.P,L123_1,2,2_2*%
%TO.N,Net-(C123_1-Pad2)*%
X170789594Y-80697700D03*
%TD*%
D21*
%TO.P,C5,1*%
%TO.N,/AGND*%
X158863200Y-87636600D03*
%TO.P,C5,2*%
%TO.N,Net-(IC1-XOSC_Q2)*%
X158863200Y-86676600D03*
%TD*%
D31*
%TO.P,L122_2,1,1_1*%
%TO.N,Net-(C121_2-Pad2)*%
X165229394Y-84281500D03*
%TO.P,L122_2,2,2_2*%
%TO.N,Net-(C124_2-Pad2)*%
X164259394Y-84281500D03*
%TD*%
D11*
%TO.P,L123_2,1,1_1*%
%TO.N,Net-(C122_2-Pad2)*%
X165275394Y-82097100D03*
%TO.P,L123_2,2,2_2*%
%TO.N,Net-(C123_2-Pad2)*%
X166245394Y-82097100D03*
%TD*%
%TO.P,L131_2,1,1_1*%
%TO.N,/868_N*%
X162252794Y-81004900D03*
%TO.P,L131_2,2,2_2*%
%TO.N,Net-(C121_2-Pad1)*%
X163222794Y-81004900D03*
%TD*%
D21*
%TO.P,C124_1,1*%
%TO.N,/AGND*%
X163626794Y-88469900D03*
%TO.P,C124_1,2*%
%TO.N,Net-(C124_1-Pad2)*%
X163626794Y-87509900D03*
%TD*%
D32*
%TO.N,/AGND*%
X168910000Y-90170000D03*
X166370000Y-87630000D03*
X166370000Y-69850000D03*
X168910000Y-72390000D03*
X165100000Y-71120000D03*
X167640000Y-73660000D03*
X165100000Y-73660000D03*
X166370000Y-74930000D03*
X176530000Y-72390000D03*
X175260000Y-71120000D03*
X161340794Y-87735900D03*
X177800000Y-73660000D03*
X170130794Y-84785900D03*
X155230000Y-88760000D03*
X171500794Y-87735900D03*
X172720000Y-88900000D03*
X171450000Y-77470000D03*
X179070000Y-77470000D03*
X160500794Y-86135900D03*
X175260000Y-91440000D03*
X170180000Y-73660000D03*
X175800792Y-82110700D03*
X172720000Y-71120000D03*
X156210000Y-74930000D03*
X172313600Y-79857600D03*
X175260000Y-68580000D03*
X172720000Y-91440000D03*
X157886400Y-77724000D03*
X165100000Y-91440000D03*
X170230794Y-86465900D03*
X162590794Y-86205900D03*
X161550000Y-78375000D03*
X174990793Y-82090700D03*
X177800000Y-71120000D03*
X164480794Y-78335900D03*
X166065200Y-79044800D03*
X173990000Y-72390000D03*
X170484800Y-82651600D03*
X163830000Y-69850000D03*
X171450000Y-72390000D03*
X171670794Y-79105900D03*
X163830000Y-74930000D03*
X172240794Y-84945900D03*
X165100000Y-68580000D03*
X163830000Y-72390000D03*
X167640000Y-76200000D03*
X163626794Y-89107500D03*
X177800000Y-88900000D03*
X165100000Y-78994000D03*
X163830000Y-90170000D03*
X151485600Y-79121000D03*
X158750000Y-74930000D03*
X161737600Y-80299344D03*
X162560000Y-68580000D03*
X168910000Y-74930000D03*
X162458400Y-84923700D03*
X168550794Y-81345900D03*
X161290000Y-90170000D03*
X158750000Y-90170000D03*
X173990000Y-87630000D03*
X166288129Y-84768326D03*
X176530000Y-69850000D03*
X171450000Y-74930000D03*
X172720000Y-86360000D03*
X172720000Y-68580000D03*
X157480000Y-76200000D03*
X169722794Y-79049100D03*
X160825000Y-78975000D03*
X156596000Y-81873600D03*
X162610794Y-89005900D03*
X179070000Y-72390000D03*
X162560000Y-71120000D03*
X173990000Y-77470000D03*
X159380000Y-77920000D03*
X169010794Y-84995900D03*
X172720000Y-76200000D03*
X162730794Y-88005900D03*
X170180000Y-68580000D03*
X158318200Y-88544400D03*
X168910000Y-77470000D03*
X174150794Y-83920700D03*
X179070000Y-74930000D03*
X170180000Y-71120000D03*
X173990000Y-69850000D03*
X167640000Y-91440000D03*
X168910000Y-69850000D03*
X173990000Y-90170000D03*
X165390794Y-86415900D03*
X157480000Y-91440000D03*
X176530000Y-77470000D03*
X162560000Y-91440000D03*
X162610794Y-78135900D03*
X166370000Y-77470000D03*
X164490794Y-87975900D03*
X176530000Y-74930000D03*
X170180000Y-91440000D03*
X167233600Y-79445900D03*
X170230794Y-89005900D03*
X162620794Y-87015900D03*
X160020000Y-76200000D03*
X175800792Y-83920700D03*
X164560794Y-87005900D03*
X168290794Y-85555900D03*
X171551600Y-82854800D03*
X170180000Y-76200000D03*
X168960794Y-87735900D03*
X171450000Y-69850000D03*
X167740794Y-80545900D03*
X177800000Y-76200000D03*
X179070000Y-69850000D03*
X154940000Y-76200000D03*
X175260000Y-88900000D03*
X166320794Y-86455900D03*
X167640000Y-68580000D03*
X177800000Y-68580000D03*
X171450000Y-90170000D03*
X167430794Y-86295900D03*
X162560000Y-73660000D03*
X174040800Y-81280000D03*
X160416800Y-80050000D03*
X175260000Y-76200000D03*
X179070000Y-90170000D03*
X176530000Y-90170000D03*
X164550794Y-86100700D03*
X165100000Y-76200000D03*
X172720000Y-80721200D03*
X172720000Y-73660000D03*
X161594800Y-84023200D03*
X177800000Y-91440000D03*
X154940000Y-91440000D03*
X174180794Y-82100700D03*
X162560000Y-76200000D03*
X174975793Y-83920700D03*
X161560794Y-86185900D03*
X175260000Y-73660000D03*
X163626794Y-77118700D03*
X171180794Y-84765900D03*
X156210000Y-90170000D03*
X173990000Y-74930000D03*
%TO.N,/AVDD*%
X158750000Y-83921600D03*
X152552400Y-79146400D03*
X161036000Y-82550000D03*
X156819600Y-85191600D03*
X158648400Y-79959200D03*
X173075600Y-84074000D03*
%TO.N,Net-(IC4-VCTL)*%
X173177194Y-81690700D03*
%TO.N,Net-(IC1-SCLK)*%
X154696000Y-80210000D03*
%TO.N,Net-(IC1-SO_(GDO1))*%
X153660218Y-78979782D03*
%TO.N,Net-(IC1-GDO2)*%
X153517600Y-81773600D03*
%TO.N,Net-(IC1-GDO0_(ATEST))*%
X152646705Y-85181787D03*
%TO.N,Net-(IC1-CSN)*%
X152857200Y-85953600D03*
%TO.N,Net-(IC1-SI)*%
X155549600Y-78536800D03*
%TO.N,Net-(IC3-VCTL)*%
X159816800Y-84937600D03*
%TO.N,Net-(IC2-VCTL)*%
X159816800Y-82397600D03*
%TD*%
%TO.N,/433_N*%
D33*
X164790894Y-79959200D02*
X165478600Y-79959200D01*
X161137600Y-79654400D02*
X161137600Y-80467200D01*
X163700394Y-78868700D02*
X164790894Y-79959200D01*
X160603800Y-81001000D02*
X160578800Y-81001000D01*
X161923300Y-78868700D02*
X161137600Y-79654400D01*
X163626794Y-78868700D02*
X161923300Y-78868700D01*
X161137600Y-80467200D02*
X160603800Y-81001000D01*
X163626794Y-78868700D02*
X163700394Y-78868700D01*
%TO.N,Net-(C121_1-Pad2)*%
X168301194Y-84250686D02*
X167051180Y-85500700D01*
X166448600Y-80323906D02*
X166448600Y-79959200D01*
X168475794Y-82351100D02*
X166448600Y-80323906D01*
X168301194Y-82525700D02*
X168301194Y-84250686D01*
X167051180Y-85500700D02*
X166799194Y-85500700D01*
X168475794Y-82351100D02*
X168301194Y-82525700D01*
%TO.N,/433_A*%
X171856394Y-82174500D02*
X172280094Y-82598200D01*
X171856394Y-81662700D02*
X171856394Y-82174500D01*
%TO.N,/AGND*%
D34*
X171551600Y-82854800D02*
X171656263Y-82959463D01*
D33*
X162130794Y-80115900D02*
X162257794Y-79988900D01*
X162458400Y-84923700D02*
X162458400Y-84380506D01*
X157394600Y-87747800D02*
X156244600Y-86597800D01*
X156096000Y-79973600D02*
X156096000Y-81373600D01*
D34*
X161737600Y-80299344D02*
X161737600Y-80375200D01*
D33*
X154762200Y-88292200D02*
X155230000Y-88760000D01*
D34*
X161737600Y-80375200D02*
X161645600Y-80467200D01*
D33*
X163626794Y-89107500D02*
X163626794Y-88469900D01*
D34*
X161645600Y-80467200D02*
X161645600Y-80627180D01*
D33*
X158863200Y-87999400D02*
X158318200Y-88544400D01*
X157596000Y-80873600D02*
X156596000Y-81873600D01*
D34*
X171656263Y-83010263D02*
X171669200Y-83023200D01*
X171656263Y-82959463D02*
X171656263Y-83010263D01*
D33*
X161872856Y-80299344D02*
X162056300Y-80115900D01*
X154762200Y-87881400D02*
X154762200Y-88292200D01*
X162458400Y-84380506D02*
X162308594Y-84230700D01*
X158318200Y-88544400D02*
X158315800Y-88544400D01*
X151513600Y-83159600D02*
X151513600Y-79149000D01*
X162458400Y-84886800D02*
X162458400Y-84923700D01*
X157596000Y-79973600D02*
X157596000Y-80873600D01*
X156596000Y-79973600D02*
X156596000Y-81873600D01*
X170151994Y-78670700D02*
X170789594Y-78670700D01*
X166268394Y-84748591D02*
X166268394Y-84151900D01*
X158863200Y-87636600D02*
X158863200Y-87999400D01*
X151513600Y-79149000D02*
X151485600Y-79121000D01*
X169519594Y-80194700D02*
X169519594Y-79303100D01*
D34*
X161645600Y-80627180D02*
X160846780Y-81426000D01*
X160846780Y-81426000D02*
X160578800Y-81426000D01*
D33*
X156096000Y-81373600D02*
X156596000Y-81873600D01*
X156244600Y-86597800D02*
X156069200Y-86597800D01*
X166288129Y-84768326D02*
X166268394Y-84748591D01*
X161594800Y-84023200D02*
X162458400Y-84886800D01*
D34*
X161227500Y-83655900D02*
X160561500Y-83655900D01*
D33*
X161737600Y-80299344D02*
X161872856Y-80299344D01*
X163626794Y-77908700D02*
X163626794Y-77118700D01*
X161594800Y-84023200D02*
X161747200Y-84175600D01*
X157833600Y-77671200D02*
X157886400Y-77724000D01*
D34*
X161747200Y-84175600D02*
X161227500Y-83655900D01*
D33*
X169519594Y-79303100D02*
X170151994Y-78670700D01*
X157519200Y-87747800D02*
X157394600Y-87747800D01*
D34*
X171669200Y-83023200D02*
X172280094Y-83023200D01*
D33*
X162056300Y-80115900D02*
X162130794Y-80115900D01*
X157073600Y-77671200D02*
X157833600Y-77671200D01*
X158315800Y-88544400D02*
X157519200Y-87747800D01*
%TO.N,/868_A*%
X172005594Y-83722700D02*
X172280094Y-83448200D01*
X171320394Y-83722700D02*
X172005594Y-83722700D01*
%TO.N,/AVDD*%
X160395815Y-82830900D02*
X160283164Y-82830900D01*
X154696000Y-82373600D02*
X152754400Y-82373600D01*
X158496000Y-83667600D02*
X158750000Y-83921600D01*
X152473600Y-79959200D02*
X152473600Y-79225200D01*
X157096000Y-83773600D02*
X157096000Y-84915200D01*
X160086500Y-83230900D02*
X160011500Y-83230900D01*
X158496000Y-82873600D02*
X158496000Y-83667600D01*
X152473600Y-79225200D02*
X152552400Y-79146400D01*
X173075600Y-84074000D02*
X173075600Y-83668706D01*
X160743386Y-82814700D02*
X160412015Y-82814700D01*
X152473600Y-81611600D02*
X152473600Y-82092800D01*
X160395814Y-82830900D02*
X160395815Y-82830900D01*
X152473600Y-79959200D02*
X152473600Y-82092800D01*
X158496000Y-80873600D02*
X158496000Y-80111600D01*
X160412015Y-82814700D02*
X160412014Y-82814700D01*
X152754400Y-82373600D02*
X152473600Y-82092800D01*
X158648400Y-79959200D02*
X158902400Y-79959200D01*
X173075600Y-83668706D02*
X172855094Y-83448200D01*
X152524400Y-81662400D02*
X152473600Y-81611600D01*
X160283164Y-82830900D02*
X160086500Y-83027564D01*
X172855094Y-83448200D02*
X172830094Y-83448200D01*
X161036000Y-82550000D02*
X160771300Y-82814700D01*
X160412014Y-82814700D02*
X160395814Y-82830900D01*
X157096000Y-84915200D02*
X156819600Y-85191600D01*
X160771300Y-82814700D02*
X160743386Y-82814700D01*
X158496000Y-80111600D02*
X158648400Y-79959200D01*
X160086500Y-83027564D02*
X160086500Y-83230900D01*
X158496000Y-80873600D02*
X158496000Y-81373600D01*
X159944200Y-81001000D02*
X160028800Y-81001000D01*
X158902400Y-79959200D02*
X159944200Y-81001000D01*
%TO.N,/To_Ant*%
X178911594Y-83014300D02*
X178962394Y-82963500D01*
X172805594Y-83014300D02*
X178911594Y-83014300D01*
%TO.N,Net-(IC4-VCTL)*%
X172830094Y-82037800D02*
X172830094Y-82598200D01*
X173177194Y-81690700D02*
X172830094Y-82037800D01*
%TO.N,Net-(C123_1-Pad2)*%
X171851394Y-80697700D02*
X171856394Y-80702700D01*
X170789594Y-79630700D02*
X170789594Y-80697700D01*
X170789594Y-80697700D02*
X171851394Y-80697700D01*
%TO.N,Net-(IC1-SCLK)*%
X154696000Y-80210000D02*
X154696000Y-80873600D01*
%TO.N,Net-(IC1-SO_(GDO1))*%
X153971000Y-81373600D02*
X154696000Y-81373600D01*
X153660218Y-79015162D02*
X153822400Y-79177344D01*
X153822400Y-81225000D02*
X153971000Y-81373600D01*
X153822400Y-79177344D02*
X153822400Y-81225000D01*
X153660218Y-78979782D02*
X153660218Y-79015162D01*
%TO.N,Net-(IC1-GDO2)*%
X153517600Y-81773600D02*
X153805315Y-81773600D01*
X153905315Y-81873600D02*
X154696000Y-81873600D01*
X153805315Y-81773600D02*
X153905315Y-81873600D01*
%TO.N,Net-(IC1-DCOUPL)*%
X154696000Y-82873600D02*
X154359200Y-83210400D01*
X152524400Y-83210400D02*
X152473600Y-83159600D01*
X154359200Y-83210400D02*
X152524400Y-83210400D01*
%TO.N,Net-(IC1-GDO0_(ATEST))*%
X155189600Y-83773600D02*
X155596000Y-83773600D01*
X152646705Y-85181787D02*
X153781413Y-85181787D01*
X153781413Y-85181787D02*
X155189600Y-83773600D01*
%TO.N,Net-(IC1-CSN)*%
X156096000Y-84432914D02*
X156096000Y-83773600D01*
X154575314Y-85953600D02*
X156096000Y-84432914D01*
X152857200Y-85953600D02*
X154575314Y-85953600D01*
%TO.N,Net-(IC1-XOSC_Q1)*%
X156596000Y-84498600D02*
X154762200Y-86332400D01*
X156300400Y-87979000D02*
X156069200Y-87747800D01*
X156596000Y-83773600D02*
X156596000Y-84498600D01*
X154762200Y-86332400D02*
X154762200Y-86921400D01*
X155588600Y-87747800D02*
X154762200Y-86921400D01*
X156069200Y-87747800D02*
X155588600Y-87747800D01*
%TO.N,Net-(IC1-XOSC_Q2)*%
X157596000Y-86521000D02*
X157596000Y-83773600D01*
X157598000Y-86676600D02*
X157519200Y-86597800D01*
X158863200Y-86676600D02*
X157598000Y-86676600D01*
X157519200Y-86597800D02*
X157596000Y-86521000D01*
%TO.N,/RF_P*%
D34*
X158496000Y-82373600D02*
X158571000Y-82448600D01*
X158571000Y-82448600D02*
X159145820Y-82448600D01*
X159743520Y-83655900D02*
X160011500Y-83655900D01*
X159246000Y-83158380D02*
X159743520Y-83655900D01*
X159246000Y-82548780D02*
X159246000Y-83158380D01*
X159145820Y-82448600D02*
X159246000Y-82548780D01*
%TO.N,/RF_N*%
X159221000Y-81873600D02*
X159668600Y-81426000D01*
X159668600Y-81426000D02*
X160028800Y-81426000D01*
X158496000Y-81873600D02*
X159221000Y-81873600D01*
%TO.N,Net-(IC1-RBIAS)*%
D33*
X157073600Y-79951200D02*
X157096000Y-79973600D01*
X157073600Y-78691200D02*
X157073600Y-79951200D01*
%TO.N,Net-(IC1-SI)*%
X155596000Y-78583200D02*
X155549600Y-78536800D01*
X155596000Y-79973600D02*
X155596000Y-78583200D01*
%TO.N,Net-(IC3-VCTL)*%
X159816800Y-84937600D02*
X159816800Y-84250600D01*
X159986500Y-84080900D02*
X160011500Y-84080900D01*
X159816800Y-84250600D02*
X159986500Y-84080900D01*
%TO.N,Net-(IC2-VCTL)*%
X159867600Y-82346800D02*
X159867600Y-81987200D01*
X159867600Y-81987200D02*
X160003800Y-81851000D01*
X160003800Y-81851000D02*
X160028800Y-81851000D01*
%TO.N,Net-(C124_1-Pad2)*%
X163626794Y-87509900D02*
X163626794Y-86493700D01*
%TO.N,/433_P*%
X163649794Y-85500700D02*
X163626794Y-85523700D01*
X163626794Y-85523700D02*
X162028500Y-85523700D01*
X162028500Y-85523700D02*
X160629600Y-84124800D01*
X165839194Y-85500700D02*
X163649794Y-85500700D01*
%TO.N,Net-(C122_1-Pad2)*%
X169519594Y-81154700D02*
X170276594Y-81154700D01*
X169445794Y-81228500D02*
X169519594Y-81154700D01*
X170276594Y-81154700D02*
X170789594Y-81667700D01*
X169445794Y-82351100D02*
X169445794Y-81228500D01*
%TO.N,Net-(C121_2-Pad1)*%
X164208394Y-81081300D02*
X164284794Y-81004900D01*
X164208394Y-82097100D02*
X164208394Y-81081300D01*
X163217794Y-79988900D02*
X163217794Y-80999900D01*
X164284794Y-81004900D02*
X163222794Y-81004900D01*
X163217794Y-80999900D02*
X163222794Y-81004900D01*
%TO.N,Net-(C122_2-Pad2)*%
X165224394Y-83214700D02*
X165224394Y-81035300D01*
X165224394Y-81035300D02*
X165254794Y-81004900D01*
%TO.N,Net-(C121_2-Pad2)*%
X163248394Y-83214500D02*
X163248194Y-83214700D01*
X165229394Y-84179700D02*
X164264394Y-83214700D01*
X165229394Y-84281500D02*
X165229394Y-84179700D01*
X163248194Y-83214700D02*
X164264394Y-83214700D01*
X163248394Y-82097100D02*
X163248394Y-83214500D01*
%TO.N,/868_P*%
X160577700Y-83214700D02*
X160561500Y-83230900D01*
X162278194Y-83214700D02*
X160577700Y-83214700D01*
%TO.N,Net-(C123_2-Pad2)*%
X166245394Y-83168900D02*
X166268394Y-83191900D01*
X166268394Y-83191900D02*
X166982094Y-83191900D01*
X166982094Y-83191900D02*
X167563694Y-83773500D01*
X166245394Y-82097100D02*
X166245394Y-83168900D01*
%TO.N,Net-(C125_2-Pad2)*%
X170309594Y-83773500D02*
X170360394Y-83722700D01*
X169138694Y-83773500D02*
X170309594Y-83773500D01*
%TO.N,/868_N*%
X162252794Y-81180806D02*
X161582600Y-81851000D01*
X162252794Y-81004900D02*
X162252794Y-81180806D01*
X161582600Y-81851000D02*
X160578800Y-81851000D01*
%TO.N,Net-(C124_2-Pad2)*%
X163268594Y-84230700D02*
X164208594Y-84230700D01*
X164208594Y-84230700D02*
X164259394Y-84281500D01*
%TD*%
%TA.AperFunction,Conductor*%
%TO.N,/AGND*%
G36*
X177580944Y-66479910D02*
G01*
X177870982Y-66497454D01*
X177885843Y-66499258D01*
X177992061Y-66518724D01*
X178167983Y-66550963D01*
X178182520Y-66554546D01*
X178456368Y-66639881D01*
X178470349Y-66645183D01*
X178731920Y-66762907D01*
X178745173Y-66769863D01*
X178990644Y-66918254D01*
X179002962Y-66926756D01*
X179228759Y-67103657D01*
X179239967Y-67113587D01*
X179442781Y-67316401D01*
X179452711Y-67327609D01*
X179629608Y-67553400D01*
X179638114Y-67565724D01*
X179786505Y-67811195D01*
X179793463Y-67824452D01*
X179911180Y-68086006D01*
X179916490Y-68100008D01*
X180001821Y-68373847D01*
X180005405Y-68388385D01*
X180057109Y-68670523D01*
X180058914Y-68685388D01*
X180076459Y-68975438D01*
X180076685Y-68982941D01*
X180075070Y-81446216D01*
X180055377Y-81513253D01*
X180002567Y-81559001D01*
X179951070Y-81570200D01*
X176765792Y-81570200D01*
X176765775Y-81570201D01*
X176662997Y-81580700D01*
X176662994Y-81580701D01*
X176496462Y-81635885D01*
X176496457Y-81635887D01*
X176347136Y-81727989D01*
X176223083Y-81852042D01*
X176130981Y-82001363D01*
X176130980Y-82001366D01*
X176075795Y-82167903D01*
X176075795Y-82167904D01*
X176075794Y-82167904D01*
X176065294Y-82270683D01*
X176065294Y-82289800D01*
X176045609Y-82356839D01*
X175992805Y-82402594D01*
X175941294Y-82413800D01*
X173885535Y-82413800D01*
X173818496Y-82394115D01*
X173772741Y-82341311D01*
X173762797Y-82272153D01*
X173791822Y-82208597D01*
X173797854Y-82202119D01*
X173798980Y-82200992D01*
X173798983Y-82200989D01*
X173886588Y-82069879D01*
X173946931Y-81924197D01*
X173977694Y-81769542D01*
X173977694Y-81611858D01*
X173977694Y-81611855D01*
X173977693Y-81611853D01*
X173962106Y-81533491D01*
X173946931Y-81457203D01*
X173946929Y-81457198D01*
X173886591Y-81311527D01*
X173886584Y-81311514D01*
X173798983Y-81180411D01*
X173798980Y-81180407D01*
X173687486Y-81068913D01*
X173687482Y-81068910D01*
X173556379Y-80981309D01*
X173556366Y-80981302D01*
X173410695Y-80920964D01*
X173410683Y-80920961D01*
X173256039Y-80890200D01*
X173256036Y-80890200D01*
X173098352Y-80890200D01*
X173098349Y-80890200D01*
X172943704Y-80920961D01*
X172943697Y-80920963D01*
X172838345Y-80964600D01*
X172768876Y-80972068D01*
X172706397Y-80940792D01*
X172670745Y-80880703D01*
X172666894Y-80850038D01*
X172666894Y-80498017D01*
X172666893Y-80498002D01*
X172666830Y-80497205D01*
X172664037Y-80461707D01*
X172657472Y-80439111D01*
X172618889Y-80306309D01*
X172618888Y-80306306D01*
X172618888Y-80306305D01*
X172536511Y-80167013D01*
X172536509Y-80167011D01*
X172536506Y-80167007D01*
X172422086Y-80052587D01*
X172422078Y-80052581D01*
X172282787Y-79970205D01*
X172282784Y-79970204D01*
X172127391Y-79925057D01*
X172127385Y-79925056D01*
X172091091Y-79922200D01*
X172091084Y-79922200D01*
X171724094Y-79922200D01*
X171657055Y-79902515D01*
X171611300Y-79849711D01*
X171600094Y-79798200D01*
X171600094Y-79426017D01*
X171600094Y-79426010D01*
X171597752Y-79396247D01*
X174945294Y-79396247D01*
X174945294Y-79540152D01*
X174973364Y-79681271D01*
X174973366Y-79681279D01*
X174974711Y-79684525D01*
X175028431Y-79814219D01*
X175028436Y-79814228D01*
X175108376Y-79933866D01*
X175108379Y-79933870D01*
X175210123Y-80035614D01*
X175210127Y-80035617D01*
X175329765Y-80115557D01*
X175329774Y-80115562D01*
X175354327Y-80125732D01*
X175462715Y-80170628D01*
X175603841Y-80198699D01*
X175603845Y-80198700D01*
X175603846Y-80198700D01*
X178482743Y-80198700D01*
X178482744Y-80198699D01*
X178623873Y-80170628D01*
X178756816Y-80115561D01*
X178876461Y-80035617D01*
X178978211Y-79933867D01*
X179058155Y-79814222D01*
X179113222Y-79681279D01*
X179141294Y-79540148D01*
X179141294Y-79396252D01*
X179113222Y-79255121D01*
X179058155Y-79122178D01*
X179058154Y-79122177D01*
X179058151Y-79122171D01*
X178978211Y-79002533D01*
X178978208Y-79002529D01*
X178876464Y-78900785D01*
X178876460Y-78900782D01*
X178756822Y-78820842D01*
X178756813Y-78820837D01*
X178634778Y-78770289D01*
X178623873Y-78765772D01*
X178623869Y-78765771D01*
X178623865Y-78765770D01*
X178482746Y-78737700D01*
X178482742Y-78737700D01*
X175603846Y-78737700D01*
X175603841Y-78737700D01*
X175462722Y-78765770D01*
X175462712Y-78765773D01*
X175329774Y-78820837D01*
X175329765Y-78820842D01*
X175210127Y-78900782D01*
X175210123Y-78900785D01*
X175108379Y-79002529D01*
X175108376Y-79002533D01*
X175028436Y-79122171D01*
X175028431Y-79122180D01*
X174973367Y-79255118D01*
X174973364Y-79255128D01*
X174945294Y-79396247D01*
X171597752Y-79396247D01*
X171597237Y-79389707D01*
X171596270Y-79386380D01*
X171558508Y-79256404D01*
X171552088Y-79234305D01*
X171469711Y-79095013D01*
X171469709Y-79095011D01*
X171469706Y-79095007D01*
X171355286Y-78980587D01*
X171355278Y-78980581D01*
X171246052Y-78915985D01*
X171215989Y-78898206D01*
X171215988Y-78898205D01*
X171215987Y-78898205D01*
X171215984Y-78898204D01*
X171060591Y-78853057D01*
X171060585Y-78853056D01*
X171024291Y-78850200D01*
X171024284Y-78850200D01*
X170554904Y-78850200D01*
X170554896Y-78850200D01*
X170518602Y-78853056D01*
X170518596Y-78853057D01*
X170363203Y-78898204D01*
X170363200Y-78898205D01*
X170223909Y-78980581D01*
X170223901Y-78980587D01*
X170109481Y-79095007D01*
X170109475Y-79095015D01*
X170027099Y-79234306D01*
X170027098Y-79234309D01*
X169981951Y-79389702D01*
X169981950Y-79389708D01*
X169979094Y-79426002D01*
X169979094Y-79835397D01*
X169981950Y-79871691D01*
X169981951Y-79871697D01*
X170027098Y-80027090D01*
X170027099Y-80027093D01*
X170063029Y-80087848D01*
X170065287Y-80096749D01*
X170071025Y-80103921D01*
X170073743Y-80130078D01*
X170080212Y-80155572D01*
X170077490Y-80166125D01*
X170078248Y-80173416D01*
X170069758Y-80196104D01*
X170066984Y-80206864D01*
X170065117Y-80210560D01*
X170017663Y-80290803D01*
X170008269Y-80323134D01*
X170003084Y-80333403D01*
X169986734Y-80350840D01*
X169973864Y-80370992D01*
X169963268Y-80375866D01*
X169955294Y-80384372D01*
X169932110Y-80390202D01*
X169910390Y-80400196D01*
X169896237Y-80399224D01*
X169887534Y-80401413D01*
X169877140Y-80397912D01*
X169857803Y-80396585D01*
X169790585Y-80377056D01*
X169754291Y-80374200D01*
X169754284Y-80374200D01*
X169284904Y-80374200D01*
X169284896Y-80374200D01*
X169248602Y-80377056D01*
X169248596Y-80377057D01*
X169093203Y-80422204D01*
X169093200Y-80422205D01*
X168953909Y-80504581D01*
X168953901Y-80504587D01*
X168839481Y-80619007D01*
X168839475Y-80619015D01*
X168757099Y-80758306D01*
X168757098Y-80758309D01*
X168711951Y-80913702D01*
X168711950Y-80913708D01*
X168709094Y-80950002D01*
X168709094Y-81359395D01*
X168712044Y-81396871D01*
X168709184Y-81410481D01*
X168711164Y-81424247D01*
X168702143Y-81443998D01*
X168697680Y-81465248D01*
X168687916Y-81475152D01*
X168682139Y-81487803D01*
X168663872Y-81499542D01*
X168648629Y-81515005D01*
X168633857Y-81518831D01*
X168623361Y-81525577D01*
X168588426Y-81530600D01*
X168555891Y-81530600D01*
X168488852Y-81510915D01*
X168468210Y-81494281D01*
X167279193Y-80305264D01*
X167245708Y-80243941D01*
X167243257Y-80207848D01*
X167243335Y-80206864D01*
X167244100Y-80197140D01*
X167244100Y-79721260D01*
X167241209Y-79684525D01*
X167240264Y-79681271D01*
X167195533Y-79527307D01*
X167195531Y-79527304D01*
X167195531Y-79527303D01*
X167112190Y-79386380D01*
X167112188Y-79386378D01*
X167112185Y-79386374D01*
X166996425Y-79270614D01*
X166996417Y-79270608D01*
X166918535Y-79224549D01*
X166855497Y-79187269D01*
X166855496Y-79187268D01*
X166855495Y-79187268D01*
X166855492Y-79187266D01*
X166698279Y-79141591D01*
X166698273Y-79141590D01*
X166661547Y-79138700D01*
X166661540Y-79138700D01*
X166235660Y-79138700D01*
X166235652Y-79138700D01*
X166198926Y-79141590D01*
X166198920Y-79141591D01*
X166041705Y-79187267D01*
X166026717Y-79196131D01*
X165958992Y-79213310D01*
X165900483Y-79196131D01*
X165885494Y-79187267D01*
X165728279Y-79141591D01*
X165728273Y-79141590D01*
X165691547Y-79138700D01*
X165691540Y-79138700D01*
X165265660Y-79138700D01*
X165265652Y-79138700D01*
X165228926Y-79141590D01*
X165228920Y-79141591D01*
X165071707Y-79187267D01*
X165071696Y-79187271D01*
X165026611Y-79213934D01*
X164958887Y-79231115D01*
X164892625Y-79208955D01*
X164875811Y-79194882D01*
X164473613Y-78792684D01*
X164440128Y-78731361D01*
X164437294Y-78705003D01*
X164437294Y-78664017D01*
X164437293Y-78664002D01*
X164434437Y-78627708D01*
X164434436Y-78627702D01*
X164389289Y-78472309D01*
X164389288Y-78472306D01*
X164389288Y-78472305D01*
X164306911Y-78333013D01*
X164306909Y-78333011D01*
X164306906Y-78333007D01*
X164192486Y-78218587D01*
X164192478Y-78218581D01*
X164115501Y-78173057D01*
X164053189Y-78136206D01*
X164053188Y-78136205D01*
X164053187Y-78136205D01*
X164053184Y-78136204D01*
X163897791Y-78091057D01*
X163897785Y-78091056D01*
X163861491Y-78088200D01*
X163861484Y-78088200D01*
X163392104Y-78088200D01*
X163392096Y-78088200D01*
X163355802Y-78091056D01*
X163355796Y-78091057D01*
X163200403Y-78136204D01*
X163200400Y-78136205D01*
X163061109Y-78218581D01*
X163061101Y-78218587D01*
X163047808Y-78231881D01*
X162986485Y-78265366D01*
X162960127Y-78268200D01*
X162009970Y-78268200D01*
X162009954Y-78268199D01*
X162002358Y-78268199D01*
X161844243Y-78268199D01*
X161785573Y-78283920D01*
X161691514Y-78309123D01*
X161691509Y-78309126D01*
X161554590Y-78388175D01*
X161554582Y-78388181D01*
X160657079Y-79285684D01*
X160641352Y-79312926D01*
X160627280Y-79337300D01*
X160597023Y-79389707D01*
X160578091Y-79422498D01*
X160578023Y-79422615D01*
X160537099Y-79575343D01*
X160537099Y-79575345D01*
X160537099Y-79743446D01*
X160537100Y-79743459D01*
X160537100Y-80167102D01*
X160528455Y-80196542D01*
X160521932Y-80226529D01*
X160518177Y-80231544D01*
X160517415Y-80234141D01*
X160500781Y-80254784D01*
X160381962Y-80373602D01*
X160320639Y-80407086D01*
X160279496Y-80409035D01*
X160233397Y-80403499D01*
X160169183Y-80375962D01*
X160160501Y-80368065D01*
X159389990Y-79597555D01*
X159389988Y-79597552D01*
X159336904Y-79544468D01*
X159321483Y-79525677D01*
X159270192Y-79448915D01*
X159270186Y-79448907D01*
X159158692Y-79337413D01*
X159158688Y-79337410D01*
X159027585Y-79249809D01*
X159027572Y-79249802D01*
X158881901Y-79189464D01*
X158881889Y-79189461D01*
X158727245Y-79158700D01*
X158727242Y-79158700D01*
X158569558Y-79158700D01*
X158569555Y-79158700D01*
X158414910Y-79189461D01*
X158414898Y-79189464D01*
X158269227Y-79249802D01*
X158269214Y-79249809D01*
X158138111Y-79337410D01*
X158138107Y-79337413D01*
X158026613Y-79448907D01*
X158026610Y-79448911D01*
X157973601Y-79528245D01*
X157919989Y-79573050D01*
X157850664Y-79581757D01*
X157787636Y-79551602D01*
X157750917Y-79492159D01*
X157748533Y-79481723D01*
X157746499Y-79470632D01*
X157746499Y-79450728D01*
X157740091Y-79391117D01*
X157724006Y-79347992D01*
X157722038Y-79337259D01*
X157724582Y-79312926D01*
X157722838Y-79288533D01*
X157728152Y-79278800D01*
X157729306Y-79267768D01*
X157744600Y-79248675D01*
X157756319Y-79227213D01*
X157764735Y-79218798D01*
X157846469Y-79080593D01*
X157891265Y-78926404D01*
X157894100Y-78890381D01*
X157894099Y-78492020D01*
X157891265Y-78455996D01*
X157846469Y-78301807D01*
X157764735Y-78163602D01*
X157764733Y-78163600D01*
X157764730Y-78163596D01*
X157651203Y-78050069D01*
X157651195Y-78050063D01*
X157512993Y-77968331D01*
X157512988Y-77968329D01*
X157358808Y-77923535D01*
X157358802Y-77923534D01*
X157322781Y-77920700D01*
X156824430Y-77920700D01*
X156824408Y-77920701D01*
X156788394Y-77923535D01*
X156634211Y-77968329D01*
X156634206Y-77968331D01*
X156496004Y-78050063D01*
X156496000Y-78050066D01*
X156417684Y-78128382D01*
X156356360Y-78161866D01*
X156286669Y-78156882D01*
X156230735Y-78115010D01*
X156226912Y-78109607D01*
X156171389Y-78026511D01*
X156171387Y-78026508D01*
X156059892Y-77915013D01*
X156059888Y-77915010D01*
X155928785Y-77827409D01*
X155928772Y-77827402D01*
X155783101Y-77767064D01*
X155783089Y-77767061D01*
X155628445Y-77736300D01*
X155628442Y-77736300D01*
X155470758Y-77736300D01*
X155470755Y-77736300D01*
X155316110Y-77767061D01*
X155316098Y-77767064D01*
X155170427Y-77827402D01*
X155170414Y-77827409D01*
X155039311Y-77915010D01*
X155039307Y-77915013D01*
X154927813Y-78026507D01*
X154927810Y-78026511D01*
X154840209Y-78157614D01*
X154840202Y-78157627D01*
X154779864Y-78303298D01*
X154779861Y-78303310D01*
X154749100Y-78457953D01*
X154749100Y-78615646D01*
X154779861Y-78770289D01*
X154779864Y-78770301D01*
X154840202Y-78915972D01*
X154840209Y-78915985D01*
X154927810Y-79047088D01*
X154927813Y-79047092D01*
X154959180Y-79078458D01*
X154973885Y-79105388D01*
X154990477Y-79131205D01*
X154991368Y-79137403D01*
X154992666Y-79139780D01*
X154995500Y-79166140D01*
X154995500Y-79251871D01*
X154987682Y-79295203D01*
X154983136Y-79307394D01*
X154970173Y-79342148D01*
X154928301Y-79398081D01*
X154862837Y-79422498D01*
X154829800Y-79420431D01*
X154774846Y-79409500D01*
X154774842Y-79409500D01*
X154617158Y-79409500D01*
X154571090Y-79418663D01*
X154550105Y-79416784D01*
X154529253Y-79419783D01*
X154516003Y-79413732D01*
X154501498Y-79412434D01*
X154484861Y-79399510D01*
X154465697Y-79390758D01*
X154457822Y-79378505D01*
X154446322Y-79369571D01*
X154439313Y-79349704D01*
X154427923Y-79331980D01*
X154424388Y-79307394D01*
X154423078Y-79303681D01*
X154422900Y-79297045D01*
X154422900Y-79266403D01*
X154422901Y-79266390D01*
X154422901Y-79254927D01*
X154428241Y-79218929D01*
X154429950Y-79213289D01*
X154429955Y-79213279D01*
X154460718Y-79058624D01*
X154460718Y-78900940D01*
X154460718Y-78900937D01*
X154460717Y-78900935D01*
X154444784Y-78820837D01*
X154429955Y-78746285D01*
X154384320Y-78636111D01*
X154369615Y-78600609D01*
X154369608Y-78600596D01*
X154282007Y-78469493D01*
X154282004Y-78469489D01*
X154170510Y-78357995D01*
X154170506Y-78357992D01*
X154039403Y-78270391D01*
X154039390Y-78270384D01*
X153893719Y-78210046D01*
X153893707Y-78210043D01*
X153739063Y-78179282D01*
X153739060Y-78179282D01*
X153581376Y-78179282D01*
X153581373Y-78179282D01*
X153426728Y-78210043D01*
X153426716Y-78210046D01*
X153281045Y-78270384D01*
X153281032Y-78270391D01*
X153149929Y-78357992D01*
X153087063Y-78420858D01*
X153025739Y-78454342D01*
X152956048Y-78449357D01*
X152937077Y-78439648D01*
X152936954Y-78439879D01*
X152931572Y-78437002D01*
X152785901Y-78376664D01*
X152785889Y-78376661D01*
X152631245Y-78345900D01*
X152631242Y-78345900D01*
X152473558Y-78345900D01*
X152473555Y-78345900D01*
X152318910Y-78376661D01*
X152318898Y-78376664D01*
X152173227Y-78437002D01*
X152173214Y-78437009D01*
X152042111Y-78524610D01*
X152042107Y-78524613D01*
X151930613Y-78636107D01*
X151930610Y-78636111D01*
X151843009Y-78767214D01*
X151843002Y-78767227D01*
X151782664Y-78912898D01*
X151782661Y-78912910D01*
X151751900Y-79067553D01*
X151751900Y-79225246D01*
X151782661Y-79379893D01*
X151783403Y-79382337D01*
X151783414Y-79383679D01*
X151783851Y-79385872D01*
X151783435Y-79385954D01*
X151784026Y-79452204D01*
X151771475Y-79481450D01*
X151741108Y-79532798D01*
X151741104Y-79532808D01*
X151695957Y-79688202D01*
X151695956Y-79688208D01*
X151693100Y-79724502D01*
X151693100Y-80193897D01*
X151695956Y-80230191D01*
X151695957Y-80230197D01*
X151741104Y-80385590D01*
X151741106Y-80385595D01*
X151767059Y-80429481D01*
X151784240Y-80497205D01*
X151767059Y-80555719D01*
X151741106Y-80599604D01*
X151741104Y-80599609D01*
X151695957Y-80755002D01*
X151695956Y-80755008D01*
X151693100Y-80791302D01*
X151693100Y-81260697D01*
X151695956Y-81296991D01*
X151695957Y-81296997D01*
X151741104Y-81452390D01*
X151741106Y-81452395D01*
X151767059Y-81496281D01*
X151784240Y-81564005D01*
X151767059Y-81622519D01*
X151741106Y-81666404D01*
X151741104Y-81666409D01*
X151695957Y-81821802D01*
X151695956Y-81821808D01*
X151693100Y-81858102D01*
X151693100Y-82327497D01*
X151695956Y-82363791D01*
X151695957Y-82363797D01*
X151741104Y-82519190D01*
X151741106Y-82519195D01*
X151767059Y-82563081D01*
X151784240Y-82630805D01*
X151767059Y-82689319D01*
X151741106Y-82733204D01*
X151741104Y-82733209D01*
X151695957Y-82888602D01*
X151695956Y-82888608D01*
X151693100Y-82924902D01*
X151693100Y-83394297D01*
X151695956Y-83430591D01*
X151695957Y-83430597D01*
X151741104Y-83585990D01*
X151741105Y-83585993D01*
X151741106Y-83585995D01*
X151743186Y-83589512D01*
X151823481Y-83725284D01*
X151823487Y-83725292D01*
X151937907Y-83839712D01*
X151937911Y-83839715D01*
X151937913Y-83839717D01*
X152077205Y-83922094D01*
X152118187Y-83934000D01*
X152232602Y-83967242D01*
X152232605Y-83967242D01*
X152232607Y-83967243D01*
X152268910Y-83970100D01*
X152268918Y-83970100D01*
X152678282Y-83970100D01*
X152678290Y-83970100D01*
X152714593Y-83967243D01*
X152714595Y-83967242D01*
X152714597Y-83967242D01*
X152792984Y-83944468D01*
X152869995Y-83922094D01*
X153009287Y-83839717D01*
X153009288Y-83839716D01*
X153012895Y-83836919D01*
X153077932Y-83811385D01*
X153088893Y-83810900D01*
X154003703Y-83810900D01*
X154070742Y-83830585D01*
X154116497Y-83883389D01*
X154126441Y-83952547D01*
X154097416Y-84016103D01*
X154091384Y-84022581D01*
X153568997Y-84544968D01*
X153507674Y-84578453D01*
X153481316Y-84581287D01*
X153226471Y-84581287D01*
X153159432Y-84561602D01*
X153157580Y-84560389D01*
X153025890Y-84472396D01*
X153025877Y-84472389D01*
X152880206Y-84412051D01*
X152880194Y-84412048D01*
X152725550Y-84381287D01*
X152725547Y-84381287D01*
X152567863Y-84381287D01*
X152567860Y-84381287D01*
X152413215Y-84412048D01*
X152413203Y-84412051D01*
X152267532Y-84472389D01*
X152267519Y-84472396D01*
X152136416Y-84559997D01*
X152136412Y-84560000D01*
X152024918Y-84671494D01*
X152024915Y-84671498D01*
X151937314Y-84802601D01*
X151937307Y-84802614D01*
X151876969Y-84948285D01*
X151876966Y-84948297D01*
X151846205Y-85102940D01*
X151846205Y-85260633D01*
X151876966Y-85415276D01*
X151876969Y-85415288D01*
X151937307Y-85560959D01*
X151937314Y-85560972D01*
X152024915Y-85692075D01*
X152024917Y-85692078D01*
X152034865Y-85702025D01*
X152068352Y-85763347D01*
X152068805Y-85813899D01*
X152056700Y-85874759D01*
X152056700Y-86032446D01*
X152087461Y-86187089D01*
X152087464Y-86187101D01*
X152147802Y-86332772D01*
X152147809Y-86332785D01*
X152235410Y-86463888D01*
X152235413Y-86463892D01*
X152346907Y-86575386D01*
X152346911Y-86575389D01*
X152478014Y-86662990D01*
X152478027Y-86662997D01*
X152583409Y-86706647D01*
X152623703Y-86723337D01*
X152756796Y-86749811D01*
X152778353Y-86754099D01*
X152778356Y-86754100D01*
X152778358Y-86754100D01*
X152936044Y-86754100D01*
X152936045Y-86754099D01*
X153090697Y-86723337D01*
X153203366Y-86676667D01*
X153236372Y-86662997D01*
X153236372Y-86662996D01*
X153236379Y-86662994D01*
X153290863Y-86626589D01*
X153368075Y-86574998D01*
X153434753Y-86554120D01*
X153436966Y-86554100D01*
X153830355Y-86554100D01*
X153897394Y-86573785D01*
X153943149Y-86626589D01*
X153953973Y-86687829D01*
X153951700Y-86716704D01*
X153951700Y-87126097D01*
X153954556Y-87162391D01*
X153954557Y-87162397D01*
X153999704Y-87317790D01*
X153999705Y-87317793D01*
X153999706Y-87317795D01*
X154004983Y-87326718D01*
X154082081Y-87457084D01*
X154082087Y-87457092D01*
X154196507Y-87571512D01*
X154196511Y-87571515D01*
X154196513Y-87571517D01*
X154335805Y-87653894D01*
X154376787Y-87665800D01*
X154491202Y-87699042D01*
X154491205Y-87699042D01*
X154491207Y-87699043D01*
X154527510Y-87701900D01*
X154642103Y-87701900D01*
X154709142Y-87721585D01*
X154729784Y-87738219D01*
X155062699Y-88071134D01*
X155096184Y-88132457D01*
X155097957Y-88142629D01*
X155109208Y-88228082D01*
X155109209Y-88228087D01*
X155169915Y-88374648D01*
X155169917Y-88374651D01*
X155266491Y-88500507D01*
X155266492Y-88500508D01*
X155392348Y-88597082D01*
X155392351Y-88597084D01*
X155484771Y-88635364D01*
X155538916Y-88657792D01*
X155656710Y-88673300D01*
X155656717Y-88673300D01*
X156481683Y-88673300D01*
X156481690Y-88673300D01*
X156599484Y-88657792D01*
X156746050Y-88597083D01*
X156871908Y-88500508D01*
X156968483Y-88374650D01*
X157029192Y-88228084D01*
X157044700Y-88110290D01*
X157044700Y-87647300D01*
X157064385Y-87580261D01*
X157117189Y-87534506D01*
X157168700Y-87523300D01*
X157931683Y-87523300D01*
X157931690Y-87523300D01*
X158049484Y-87507792D01*
X158178764Y-87454243D01*
X158196048Y-87447084D01*
X158196051Y-87447082D01*
X158262320Y-87396231D01*
X158327486Y-87371037D01*
X158395931Y-87385074D01*
X158400916Y-87387869D01*
X158436805Y-87409094D01*
X158477787Y-87421000D01*
X158592202Y-87454242D01*
X158592205Y-87454242D01*
X158592207Y-87454243D01*
X158628510Y-87457100D01*
X158628518Y-87457100D01*
X159097882Y-87457100D01*
X159097890Y-87457100D01*
X159134193Y-87454243D01*
X159134195Y-87454242D01*
X159134197Y-87454242D01*
X159175175Y-87442336D01*
X159289595Y-87409094D01*
X159428887Y-87326717D01*
X159543317Y-87212287D01*
X159625694Y-87072995D01*
X159670843Y-86917593D01*
X159673700Y-86881290D01*
X159673700Y-86471910D01*
X159670843Y-86435607D01*
X159668437Y-86427327D01*
X159625855Y-86280760D01*
X159625694Y-86280205D01*
X159543317Y-86140913D01*
X159543315Y-86140911D01*
X159543312Y-86140907D01*
X159428892Y-86026487D01*
X159428884Y-86026481D01*
X159289593Y-85944105D01*
X159289590Y-85944104D01*
X159134197Y-85898957D01*
X159134191Y-85898956D01*
X159097897Y-85896100D01*
X159097890Y-85896100D01*
X158628510Y-85896100D01*
X158628502Y-85896100D01*
X158592208Y-85898956D01*
X158592202Y-85898957D01*
X158486360Y-85929708D01*
X158416491Y-85929509D01*
X158367008Y-85901143D01*
X158359581Y-85894188D01*
X158321908Y-85845092D01*
X158240187Y-85782385D01*
X158235743Y-85778223D01*
X158220966Y-85753153D01*
X158203811Y-85729659D01*
X158202422Y-85721694D01*
X158200264Y-85718032D01*
X158200539Y-85710889D01*
X158196500Y-85687712D01*
X158196500Y-84744367D01*
X158216185Y-84677328D01*
X158268989Y-84631573D01*
X158338147Y-84621629D01*
X158367952Y-84629806D01*
X158512995Y-84689884D01*
X158516503Y-84691337D01*
X158629688Y-84713851D01*
X158671153Y-84722099D01*
X158671156Y-84722100D01*
X158671158Y-84722100D01*
X158828842Y-84722100D01*
X158870310Y-84713851D01*
X158939900Y-84720077D01*
X158995078Y-84762939D01*
X159018324Y-84828828D01*
X159016621Y-84852665D01*
X159016897Y-84852693D01*
X159016300Y-84858755D01*
X159016300Y-85016446D01*
X159047061Y-85171089D01*
X159047064Y-85171101D01*
X159107402Y-85316772D01*
X159107409Y-85316785D01*
X159195010Y-85447888D01*
X159195013Y-85447892D01*
X159306507Y-85559386D01*
X159306511Y-85559389D01*
X159437614Y-85646990D01*
X159437627Y-85646997D01*
X159583298Y-85707335D01*
X159583303Y-85707337D01*
X159695523Y-85729659D01*
X159737953Y-85738099D01*
X159737956Y-85738100D01*
X159737958Y-85738100D01*
X159895644Y-85738100D01*
X159895645Y-85738099D01*
X160050297Y-85707337D01*
X160195979Y-85646994D01*
X160327089Y-85559389D01*
X160438589Y-85447889D01*
X160526194Y-85316779D01*
X160585850Y-85172756D01*
X160629690Y-85118352D01*
X160695985Y-85096287D01*
X160763684Y-85113566D01*
X160788092Y-85132527D01*
X161543639Y-85888074D01*
X161543649Y-85888085D01*
X161547979Y-85892415D01*
X161547980Y-85892416D01*
X161659784Y-86004220D01*
X161659786Y-86004221D01*
X161659790Y-86004224D01*
X161763410Y-86064048D01*
X161796716Y-86083277D01*
X161885916Y-86107178D01*
X161949442Y-86124200D01*
X161949443Y-86124200D01*
X162684473Y-86124200D01*
X162751512Y-86143885D01*
X162797267Y-86196689D01*
X162808091Y-86257929D01*
X162806294Y-86280754D01*
X162806294Y-86706647D01*
X162809184Y-86743373D01*
X162809185Y-86743379D01*
X162854860Y-86900592D01*
X162854863Y-86900597D01*
X162885208Y-86951910D01*
X162902389Y-87019634D01*
X162885209Y-87078147D01*
X162864301Y-87113501D01*
X162864298Y-87113510D01*
X162819151Y-87268902D01*
X162819150Y-87268908D01*
X162816294Y-87305202D01*
X162816294Y-87714597D01*
X162819150Y-87750891D01*
X162819151Y-87750897D01*
X162864298Y-87906290D01*
X162864299Y-87906293D01*
X162946675Y-88045584D01*
X162946681Y-88045592D01*
X163061101Y-88160012D01*
X163061105Y-88160015D01*
X163061107Y-88160017D01*
X163200399Y-88242394D01*
X163241381Y-88254300D01*
X163355796Y-88287542D01*
X163355799Y-88287542D01*
X163355801Y-88287543D01*
X163392104Y-88290400D01*
X163392112Y-88290400D01*
X163861476Y-88290400D01*
X163861484Y-88290400D01*
X163897787Y-88287543D01*
X163897789Y-88287542D01*
X163897791Y-88287542D01*
X163938769Y-88275636D01*
X164053189Y-88242394D01*
X164192481Y-88160017D01*
X164306911Y-88045587D01*
X164389288Y-87906295D01*
X164434437Y-87750893D01*
X164437294Y-87714590D01*
X164437294Y-87305210D01*
X164434437Y-87268907D01*
X164417986Y-87212284D01*
X164389289Y-87113509D01*
X164389288Y-87113506D01*
X164389288Y-87113505D01*
X164368378Y-87078147D01*
X164351196Y-87010426D01*
X164368377Y-86951911D01*
X164398725Y-86900597D01*
X164404333Y-86881297D01*
X164444402Y-86743379D01*
X164444403Y-86743373D01*
X164445980Y-86723335D01*
X164447294Y-86706640D01*
X164447294Y-86381247D01*
X174945294Y-86381247D01*
X174945294Y-86525152D01*
X174973364Y-86666271D01*
X174973367Y-86666281D01*
X175028431Y-86799219D01*
X175028436Y-86799228D01*
X175108376Y-86918866D01*
X175108379Y-86918870D01*
X175210123Y-87020614D01*
X175210127Y-87020617D01*
X175329765Y-87100557D01*
X175329771Y-87100560D01*
X175329772Y-87100561D01*
X175462715Y-87155628D01*
X175603841Y-87183699D01*
X175603845Y-87183700D01*
X175603846Y-87183700D01*
X178482743Y-87183700D01*
X178482744Y-87183699D01*
X178623873Y-87155628D01*
X178756816Y-87100561D01*
X178876461Y-87020617D01*
X178978211Y-86918867D01*
X179058155Y-86799222D01*
X179113222Y-86666279D01*
X179141294Y-86525148D01*
X179141294Y-86381252D01*
X179113222Y-86240121D01*
X179058155Y-86107178D01*
X179058154Y-86107177D01*
X179058151Y-86107171D01*
X178978211Y-85987533D01*
X178978208Y-85987529D01*
X178876464Y-85885785D01*
X178876460Y-85885782D01*
X178756822Y-85805842D01*
X178756813Y-85805837D01*
X178623875Y-85750773D01*
X178623876Y-85750773D01*
X178623873Y-85750772D01*
X178623869Y-85750771D01*
X178623865Y-85750770D01*
X178482746Y-85722700D01*
X178482742Y-85722700D01*
X175603846Y-85722700D01*
X175603841Y-85722700D01*
X175462722Y-85750770D01*
X175462712Y-85750773D01*
X175329774Y-85805837D01*
X175329765Y-85805842D01*
X175210127Y-85885782D01*
X175210123Y-85885785D01*
X175108379Y-85987529D01*
X175108376Y-85987533D01*
X175028436Y-86107171D01*
X175028433Y-86107178D01*
X174973367Y-86240118D01*
X174973364Y-86240128D01*
X174945294Y-86381247D01*
X164447294Y-86381247D01*
X164447294Y-86280760D01*
X164444403Y-86244025D01*
X164443906Y-86237708D01*
X164446083Y-86237536D01*
X164452349Y-86178004D01*
X164496068Y-86123502D01*
X164562313Y-86101289D01*
X164567016Y-86101200D01*
X165172528Y-86101200D01*
X165239567Y-86120885D01*
X165260210Y-86137520D01*
X165303501Y-86180812D01*
X165303505Y-86180815D01*
X165303507Y-86180817D01*
X165442799Y-86263194D01*
X165483781Y-86275100D01*
X165598196Y-86308342D01*
X165598199Y-86308342D01*
X165598201Y-86308343D01*
X165634504Y-86311200D01*
X165634512Y-86311200D01*
X166043876Y-86311200D01*
X166043884Y-86311200D01*
X166080187Y-86308343D01*
X166080189Y-86308342D01*
X166080191Y-86308342D01*
X166121169Y-86296436D01*
X166235589Y-86263194D01*
X166256073Y-86251079D01*
X166323795Y-86233896D01*
X166382313Y-86251079D01*
X166402799Y-86263194D01*
X166402801Y-86263194D01*
X166402802Y-86263195D01*
X166558196Y-86308342D01*
X166558199Y-86308342D01*
X166558201Y-86308343D01*
X166594504Y-86311200D01*
X166594512Y-86311200D01*
X167003876Y-86311200D01*
X167003884Y-86311200D01*
X167040187Y-86308343D01*
X167040189Y-86308342D01*
X167040191Y-86308342D01*
X167195586Y-86263195D01*
X167195586Y-86263194D01*
X167195589Y-86263194D01*
X167334881Y-86180817D01*
X167449311Y-86066387D01*
X167531688Y-85927095D01*
X167546421Y-85876381D01*
X167577813Y-85823300D01*
X168635806Y-84765307D01*
X168697127Y-84731824D01*
X168762488Y-84735283D01*
X168773509Y-84738936D01*
X168872020Y-84749000D01*
X168872025Y-84749000D01*
X169405363Y-84749000D01*
X169405368Y-84749000D01*
X169503879Y-84738936D01*
X169663481Y-84686049D01*
X169806585Y-84597781D01*
X169877409Y-84526957D01*
X169938732Y-84493472D01*
X169999685Y-84495561D01*
X170119401Y-84530343D01*
X170155704Y-84533200D01*
X170155712Y-84533200D01*
X170565076Y-84533200D01*
X170565084Y-84533200D01*
X170601387Y-84530343D01*
X170601389Y-84530342D01*
X170601391Y-84530342D01*
X170642369Y-84518436D01*
X170756789Y-84485194D01*
X170777273Y-84473079D01*
X170844995Y-84455896D01*
X170903513Y-84473079D01*
X170923999Y-84485194D01*
X170924001Y-84485194D01*
X170924002Y-84485195D01*
X171079396Y-84530342D01*
X171079399Y-84530342D01*
X171079401Y-84530343D01*
X171115704Y-84533200D01*
X171115712Y-84533200D01*
X171525076Y-84533200D01*
X171525084Y-84533200D01*
X171561387Y-84530343D01*
X171561389Y-84530342D01*
X171561391Y-84530342D01*
X171602369Y-84518436D01*
X171716789Y-84485194D01*
X171856081Y-84402817D01*
X171899377Y-84359521D01*
X171919264Y-84348661D01*
X171936519Y-84333968D01*
X171952347Y-84330595D01*
X171960700Y-84326035D01*
X171970467Y-84324316D01*
X171978725Y-84323201D01*
X172084651Y-84323201D01*
X172192237Y-84294372D01*
X172200080Y-84293314D01*
X172227103Y-84297436D01*
X172254427Y-84298087D01*
X172261137Y-84302628D01*
X172269151Y-84303851D01*
X172289659Y-84321932D01*
X172312290Y-84337249D01*
X172318225Y-84347117D01*
X172321560Y-84350058D01*
X172322964Y-84354998D01*
X172331233Y-84368747D01*
X172366202Y-84453172D01*
X172366209Y-84453185D01*
X172453810Y-84584288D01*
X172453813Y-84584292D01*
X172565307Y-84695786D01*
X172565311Y-84695789D01*
X172696414Y-84783390D01*
X172696427Y-84783397D01*
X172777184Y-84816847D01*
X172842103Y-84843737D01*
X172974467Y-84870066D01*
X172996753Y-84874499D01*
X172996756Y-84874500D01*
X172996758Y-84874500D01*
X173154444Y-84874500D01*
X173154445Y-84874499D01*
X173309097Y-84843737D01*
X173423411Y-84796387D01*
X173454772Y-84783397D01*
X173454772Y-84783396D01*
X173454779Y-84783394D01*
X173585889Y-84695789D01*
X173697389Y-84584289D01*
X173784994Y-84453179D01*
X173845337Y-84307497D01*
X173876100Y-84152842D01*
X173876100Y-83995158D01*
X173876100Y-83995155D01*
X173876099Y-83995153D01*
X173873668Y-83982932D01*
X173845337Y-83840503D01*
X173845012Y-83839718D01*
X173822866Y-83786252D01*
X173815397Y-83716783D01*
X173846672Y-83654304D01*
X173906761Y-83618652D01*
X173937427Y-83614800D01*
X175949648Y-83614800D01*
X176016687Y-83634485D01*
X176062442Y-83687289D01*
X176073006Y-83726197D01*
X176075795Y-83753497D01*
X176075795Y-83753499D01*
X176130979Y-83920031D01*
X176130981Y-83920036D01*
X176132251Y-83922095D01*
X176223082Y-84069356D01*
X176347138Y-84193412D01*
X176496460Y-84285514D01*
X176662997Y-84340699D01*
X176765785Y-84351200D01*
X179950677Y-84351199D01*
X180017716Y-84370884D01*
X180063471Y-84423688D01*
X180074677Y-84475215D01*
X180074007Y-89656286D01*
X180074004Y-89679451D01*
X180073996Y-89679482D01*
X180073996Y-89741607D01*
X180073996Y-89741623D01*
X180073770Y-89749110D01*
X180056224Y-90039168D01*
X180054419Y-90054033D01*
X180002715Y-90336171D01*
X179999131Y-90350709D01*
X179913800Y-90624548D01*
X179908490Y-90638550D01*
X179790773Y-90900104D01*
X179783815Y-90913361D01*
X179635424Y-91158832D01*
X179626918Y-91171156D01*
X179450021Y-91396947D01*
X179440091Y-91408155D01*
X179237277Y-91610969D01*
X179226069Y-91620899D01*
X179000278Y-91797796D01*
X178987954Y-91806302D01*
X178742483Y-91954693D01*
X178729226Y-91961651D01*
X178467672Y-92079368D01*
X178453670Y-92084678D01*
X178179831Y-92170009D01*
X178165293Y-92173593D01*
X177883155Y-92225297D01*
X177868290Y-92227102D01*
X177578232Y-92244648D01*
X177570849Y-92244874D01*
X177508604Y-92244874D01*
X177508405Y-92244926D01*
X177500280Y-92244933D01*
X177500279Y-92244932D01*
X177500277Y-92244933D01*
X148895122Y-92268177D01*
X148887534Y-92267951D01*
X148597525Y-92250408D01*
X148582660Y-92248603D01*
X148300522Y-92196899D01*
X148285984Y-92193315D01*
X148012145Y-92107984D01*
X147998147Y-92102675D01*
X147845416Y-92033936D01*
X147736589Y-91984957D01*
X147723332Y-91977999D01*
X147477861Y-91829608D01*
X147465537Y-91821102D01*
X147446646Y-91806302D01*
X147239746Y-91644205D01*
X147228538Y-91634275D01*
X147025724Y-91431461D01*
X147015794Y-91420253D01*
X146997535Y-91396947D01*
X146838893Y-91194456D01*
X146830391Y-91182138D01*
X146682000Y-90936667D01*
X146675042Y-90923410D01*
X146557320Y-90661843D01*
X146552018Y-90647862D01*
X146466683Y-90374014D01*
X146463100Y-90359477D01*
X146411396Y-90077339D01*
X146409591Y-90062474D01*
X146392045Y-89772404D01*
X146391820Y-89764913D01*
X146400471Y-69065996D01*
X146400500Y-69065892D01*
X146400500Y-69003692D01*
X146400501Y-69003685D01*
X146400726Y-68996263D01*
X146418271Y-68706205D01*
X146420076Y-68691339D01*
X146428141Y-68647335D01*
X146985500Y-68647335D01*
X146985500Y-70443070D01*
X146985501Y-70443076D01*
X146991908Y-70502683D01*
X147042202Y-70637528D01*
X147042203Y-70637530D01*
X147119578Y-70740889D01*
X147143995Y-70806353D01*
X147129144Y-70874626D01*
X147119578Y-70889511D01*
X147042203Y-70992869D01*
X147042202Y-70992871D01*
X146991908Y-71127717D01*
X146985501Y-71187316D01*
X146985501Y-71187323D01*
X146985500Y-71187335D01*
X146985500Y-72983070D01*
X146985501Y-72983076D01*
X146991908Y-73042683D01*
X147042202Y-73177528D01*
X147042203Y-73177530D01*
X147119578Y-73280889D01*
X147143995Y-73346353D01*
X147129144Y-73414626D01*
X147119578Y-73429511D01*
X147042203Y-73532869D01*
X147042202Y-73532871D01*
X146991908Y-73667717D01*
X146985501Y-73727316D01*
X146985501Y-73727323D01*
X146985500Y-73727335D01*
X146985500Y-75523070D01*
X146985501Y-75523076D01*
X146991908Y-75582683D01*
X147042202Y-75717528D01*
X147042203Y-75717530D01*
X147119578Y-75820889D01*
X147143995Y-75886353D01*
X147129144Y-75954626D01*
X147119578Y-75969511D01*
X147042203Y-76072869D01*
X147042202Y-76072871D01*
X146991908Y-76207717D01*
X146985501Y-76267316D01*
X146985501Y-76267323D01*
X146985500Y-76267335D01*
X146985500Y-78063070D01*
X146985501Y-78063076D01*
X146991908Y-78122683D01*
X147042202Y-78257528D01*
X147042203Y-78257530D01*
X147042204Y-78257531D01*
X147117411Y-78357995D01*
X147119578Y-78360889D01*
X147143995Y-78426353D01*
X147129144Y-78494626D01*
X147119578Y-78509511D01*
X147042203Y-78612869D01*
X147042202Y-78612871D01*
X146991908Y-78747717D01*
X146987074Y-78792684D01*
X146985501Y-78807323D01*
X146985500Y-78807335D01*
X146985500Y-80603070D01*
X146985501Y-80603076D01*
X146991908Y-80662683D01*
X147042202Y-80797528D01*
X147042203Y-80797530D01*
X147119578Y-80900889D01*
X147143995Y-80966353D01*
X147129144Y-81034626D01*
X147119578Y-81049511D01*
X147042203Y-81152869D01*
X147042202Y-81152871D01*
X146991908Y-81287717D01*
X146985501Y-81347316D01*
X146985501Y-81347323D01*
X146985500Y-81347335D01*
X146985500Y-83143070D01*
X146985501Y-83143076D01*
X146991908Y-83202683D01*
X147042202Y-83337528D01*
X147042203Y-83337530D01*
X147119578Y-83440889D01*
X147143995Y-83506353D01*
X147129144Y-83574626D01*
X147119578Y-83589511D01*
X147042203Y-83692869D01*
X147042202Y-83692871D01*
X146991908Y-83827717D01*
X146985923Y-83883389D01*
X146985501Y-83887323D01*
X146985500Y-83887335D01*
X146985500Y-85683070D01*
X146985501Y-85683076D01*
X146991908Y-85742683D01*
X147042202Y-85877528D01*
X147042203Y-85877530D01*
X147119578Y-85980889D01*
X147143995Y-86046353D01*
X147129144Y-86114626D01*
X147119578Y-86129511D01*
X147042203Y-86232869D01*
X147042202Y-86232871D01*
X146991908Y-86367717D01*
X146985501Y-86427316D01*
X146985501Y-86427323D01*
X146985500Y-86427335D01*
X146985500Y-88223070D01*
X146985501Y-88223076D01*
X146991908Y-88282683D01*
X147042202Y-88417528D01*
X147042203Y-88417530D01*
X147042204Y-88417531D01*
X147118834Y-88519896D01*
X147119578Y-88520889D01*
X147143995Y-88586353D01*
X147129144Y-88654626D01*
X147119578Y-88669509D01*
X147109168Y-88683416D01*
X147042203Y-88772869D01*
X147042202Y-88772871D01*
X146991908Y-88907717D01*
X146985501Y-88967316D01*
X146985501Y-88967323D01*
X146985500Y-88967335D01*
X146985500Y-90763070D01*
X146985501Y-90763076D01*
X146991908Y-90822683D01*
X147042202Y-90957528D01*
X147042206Y-90957535D01*
X147128452Y-91072744D01*
X147128455Y-91072747D01*
X147243664Y-91158993D01*
X147243671Y-91158997D01*
X147378517Y-91209291D01*
X147378516Y-91209291D01*
X147385444Y-91210035D01*
X147438127Y-91215700D01*
X149233872Y-91215699D01*
X149293483Y-91209291D01*
X149428331Y-91158996D01*
X149543546Y-91072746D01*
X149629796Y-90957531D01*
X149680091Y-90822683D01*
X149686500Y-90763073D01*
X149686499Y-89443713D01*
X151049500Y-89443713D01*
X151049500Y-89656286D01*
X151077720Y-89834463D01*
X151082754Y-89866243D01*
X151099357Y-89917343D01*
X151148444Y-90068414D01*
X151244951Y-90257820D01*
X151369890Y-90429786D01*
X151520213Y-90580109D01*
X151692179Y-90705048D01*
X151692181Y-90705049D01*
X151692184Y-90705051D01*
X151881588Y-90801557D01*
X152083757Y-90867246D01*
X152293713Y-90900500D01*
X152293714Y-90900500D01*
X152506286Y-90900500D01*
X152506287Y-90900500D01*
X152716243Y-90867246D01*
X152918412Y-90801557D01*
X153107816Y-90705051D01*
X153176685Y-90655015D01*
X153279786Y-90580109D01*
X153279788Y-90580106D01*
X153279792Y-90580104D01*
X153430104Y-90429792D01*
X153430106Y-90429788D01*
X153430109Y-90429786D01*
X153555048Y-90257820D01*
X153555047Y-90257820D01*
X153555051Y-90257816D01*
X153651557Y-90068412D01*
X153717246Y-89866243D01*
X153750500Y-89656287D01*
X153750500Y-89443713D01*
X165785034Y-89443713D01*
X165785034Y-89656286D01*
X165813254Y-89834463D01*
X165818288Y-89866243D01*
X165834891Y-89917343D01*
X165883978Y-90068414D01*
X165980485Y-90257820D01*
X166105424Y-90429786D01*
X166255747Y-90580109D01*
X166427713Y-90705048D01*
X166427715Y-90705049D01*
X166427718Y-90705051D01*
X166617122Y-90801557D01*
X166819291Y-90867246D01*
X167029247Y-90900500D01*
X167029248Y-90900500D01*
X167241820Y-90900500D01*
X167241821Y-90900500D01*
X167451777Y-90867246D01*
X167653946Y-90801557D01*
X167843350Y-90705051D01*
X167912219Y-90655015D01*
X168015320Y-90580109D01*
X168015322Y-90580106D01*
X168015326Y-90580104D01*
X168165638Y-90429792D01*
X168165640Y-90429788D01*
X168165643Y-90429786D01*
X168290582Y-90257820D01*
X168290581Y-90257820D01*
X168290585Y-90257816D01*
X168387091Y-90068412D01*
X168452780Y-89866243D01*
X168486034Y-89656287D01*
X168486034Y-89443713D01*
X168452780Y-89233757D01*
X168387091Y-89031588D01*
X168290585Y-88842184D01*
X168290583Y-88842181D01*
X168290582Y-88842179D01*
X168165643Y-88670213D01*
X168015320Y-88519890D01*
X167843354Y-88394951D01*
X167653948Y-88298444D01*
X167653947Y-88298443D01*
X167653946Y-88298443D01*
X167451777Y-88232754D01*
X167451775Y-88232753D01*
X167451774Y-88232753D01*
X167290491Y-88207208D01*
X167241821Y-88199500D01*
X167029247Y-88199500D01*
X166980576Y-88207208D01*
X166819294Y-88232753D01*
X166617119Y-88298444D01*
X166427713Y-88394951D01*
X166255747Y-88519890D01*
X166105424Y-88670213D01*
X165980485Y-88842179D01*
X165883978Y-89031585D01*
X165818287Y-89233760D01*
X165785034Y-89443713D01*
X153750500Y-89443713D01*
X153717246Y-89233757D01*
X153651557Y-89031588D01*
X153555051Y-88842184D01*
X153555049Y-88842181D01*
X153555048Y-88842179D01*
X153430109Y-88670213D01*
X153279786Y-88519890D01*
X153107820Y-88394951D01*
X152918414Y-88298444D01*
X152918413Y-88298443D01*
X152918412Y-88298443D01*
X152716243Y-88232754D01*
X152716241Y-88232753D01*
X152716240Y-88232753D01*
X152554957Y-88207208D01*
X152506287Y-88199500D01*
X152293713Y-88199500D01*
X152245042Y-88207208D01*
X152083760Y-88232753D01*
X151881585Y-88298444D01*
X151692179Y-88394951D01*
X151520213Y-88519890D01*
X151369890Y-88670213D01*
X151244951Y-88842179D01*
X151148444Y-89031585D01*
X151082753Y-89233760D01*
X151049500Y-89443713D01*
X149686499Y-89443713D01*
X149686499Y-88967328D01*
X149680091Y-88907717D01*
X149629796Y-88772869D01*
X149552421Y-88669509D01*
X149528004Y-88604048D01*
X149542855Y-88535775D01*
X149552416Y-88520896D01*
X149629796Y-88417531D01*
X149680091Y-88282683D01*
X149686500Y-88223073D01*
X149686499Y-86427328D01*
X149680091Y-86367717D01*
X149667062Y-86332785D01*
X149629797Y-86232871D01*
X149629795Y-86232868D01*
X149552421Y-86129509D01*
X149528004Y-86064048D01*
X149542855Y-85995775D01*
X149552416Y-85980896D01*
X149629796Y-85877531D01*
X149680091Y-85742683D01*
X149686500Y-85683073D01*
X149686499Y-83887328D01*
X149680091Y-83827717D01*
X149675540Y-83815516D01*
X149629797Y-83692871D01*
X149629795Y-83692868D01*
X149598234Y-83650708D01*
X149552421Y-83589509D01*
X149528004Y-83524048D01*
X149542855Y-83455775D01*
X149552416Y-83440896D01*
X149629796Y-83337531D01*
X149680091Y-83202683D01*
X149686500Y-83143073D01*
X149686499Y-81347328D01*
X149680091Y-81287717D01*
X149670013Y-81260697D01*
X149629797Y-81152871D01*
X149629795Y-81152868D01*
X149617804Y-81136850D01*
X149552421Y-81049509D01*
X149528004Y-80984048D01*
X149542855Y-80915775D01*
X149552416Y-80900896D01*
X149629796Y-80797531D01*
X149680091Y-80662683D01*
X149686500Y-80603073D01*
X149686499Y-78807328D01*
X149680091Y-78747717D01*
X149648870Y-78664010D01*
X149629797Y-78612871D01*
X149629795Y-78612868D01*
X149620618Y-78600609D01*
X149552421Y-78509509D01*
X149528004Y-78444048D01*
X149542855Y-78375775D01*
X149552416Y-78360896D01*
X149629796Y-78257531D01*
X149680091Y-78122683D01*
X149686500Y-78063073D01*
X149686499Y-76267328D01*
X149680091Y-76207717D01*
X149629796Y-76072869D01*
X149552421Y-75969509D01*
X149528004Y-75904048D01*
X149542855Y-75835775D01*
X149552416Y-75820896D01*
X149629796Y-75717531D01*
X149680091Y-75582683D01*
X149686500Y-75523073D01*
X149686499Y-73727328D01*
X149680091Y-73667717D01*
X149629796Y-73532869D01*
X149552421Y-73429509D01*
X149528004Y-73364048D01*
X149542855Y-73295775D01*
X149552416Y-73280896D01*
X149629796Y-73177531D01*
X149680091Y-73042683D01*
X149686500Y-72983073D01*
X149686499Y-71383713D01*
X151049500Y-71383713D01*
X151049500Y-71596286D01*
X151081977Y-71801342D01*
X151082754Y-71806243D01*
X151146639Y-72002861D01*
X151148444Y-72008414D01*
X151244951Y-72197820D01*
X151369890Y-72369786D01*
X151520213Y-72520109D01*
X151692179Y-72645048D01*
X151692181Y-72645049D01*
X151692184Y-72645051D01*
X151881588Y-72741557D01*
X152083757Y-72807246D01*
X152293713Y-72840500D01*
X152293714Y-72840500D01*
X152506286Y-72840500D01*
X152506287Y-72840500D01*
X152716243Y-72807246D01*
X152918412Y-72741557D01*
X153107816Y-72645051D01*
X153129789Y-72629086D01*
X153279786Y-72520109D01*
X153279788Y-72520106D01*
X153279792Y-72520104D01*
X153430104Y-72369792D01*
X153430106Y-72369788D01*
X153430109Y-72369786D01*
X153484899Y-72294371D01*
X153538946Y-72219982D01*
X157639500Y-72219982D01*
X157639500Y-74020017D01*
X157650000Y-74122796D01*
X157650001Y-74122798D01*
X157705186Y-74289335D01*
X157797288Y-74438656D01*
X157921344Y-74562712D01*
X158070665Y-74654814D01*
X158237202Y-74709999D01*
X158339990Y-74720500D01*
X158339995Y-74720500D01*
X160140005Y-74720500D01*
X160140010Y-74720500D01*
X160242798Y-74709999D01*
X160409335Y-74654814D01*
X160558656Y-74562712D01*
X160682712Y-74438656D01*
X160774814Y-74289335D01*
X160829999Y-74122798D01*
X160840500Y-74020010D01*
X160840500Y-72219990D01*
X160829999Y-72117202D01*
X160774814Y-71950665D01*
X160682712Y-71801344D01*
X160558656Y-71677288D01*
X160418333Y-71590736D01*
X160409337Y-71585187D01*
X160409332Y-71585185D01*
X160407863Y-71584698D01*
X160242798Y-71530001D01*
X160242796Y-71530000D01*
X160140017Y-71519500D01*
X160140010Y-71519500D01*
X159683575Y-71519500D01*
X159651074Y-71509956D01*
X159618408Y-71500995D01*
X159617638Y-71500138D01*
X159616536Y-71499815D01*
X159594367Y-71474230D01*
X159571718Y-71449016D01*
X159571533Y-71447879D01*
X159570781Y-71447011D01*
X159565959Y-71413479D01*
X159560542Y-71380046D01*
X159561000Y-71378992D01*
X159560881Y-71378162D01*
X165785034Y-71378162D01*
X165785034Y-71590736D01*
X165818288Y-71800692D01*
X165867017Y-71950665D01*
X165883978Y-72002863D01*
X165980485Y-72192269D01*
X166105424Y-72364235D01*
X166255747Y-72514558D01*
X166427713Y-72639497D01*
X166427715Y-72639498D01*
X166427718Y-72639500D01*
X166617122Y-72736006D01*
X166819291Y-72801695D01*
X167029247Y-72834949D01*
X167029248Y-72834949D01*
X167241820Y-72834949D01*
X167241821Y-72834949D01*
X167451777Y-72801695D01*
X167653946Y-72736006D01*
X167843350Y-72639500D01*
X167865323Y-72623535D01*
X168015320Y-72514558D01*
X168015322Y-72514555D01*
X168015326Y-72514553D01*
X168165638Y-72364241D01*
X168165640Y-72364237D01*
X168165643Y-72364235D01*
X168290582Y-72192269D01*
X168290581Y-72192269D01*
X168290585Y-72192265D01*
X168387091Y-72002861D01*
X168452780Y-71800692D01*
X168486034Y-71590736D01*
X168486034Y-71378162D01*
X168452780Y-71168206D01*
X168387091Y-70966037D01*
X168290585Y-70776633D01*
X168290583Y-70776630D01*
X168290582Y-70776628D01*
X168165643Y-70604662D01*
X168015320Y-70454339D01*
X167843354Y-70329400D01*
X167653948Y-70232893D01*
X167653947Y-70232892D01*
X167653946Y-70232892D01*
X167451777Y-70167203D01*
X167451775Y-70167202D01*
X167451774Y-70167202D01*
X167276868Y-70139500D01*
X167241821Y-70133949D01*
X167029247Y-70133949D01*
X166994200Y-70139500D01*
X166819294Y-70167202D01*
X166617119Y-70232893D01*
X166427713Y-70329400D01*
X166255747Y-70454339D01*
X166105424Y-70604662D01*
X165980485Y-70776628D01*
X165883978Y-70966034D01*
X165818287Y-71168209D01*
X165789536Y-71349735D01*
X165785034Y-71378162D01*
X159560881Y-71378162D01*
X159560837Y-71377853D01*
X159574912Y-71347032D01*
X159588428Y-71315982D01*
X159589554Y-71314970D01*
X159589862Y-71314297D01*
X159614685Y-71292397D01*
X159647925Y-71270187D01*
X159647925Y-71270186D01*
X159750289Y-71201789D01*
X159861789Y-71090289D01*
X159949394Y-70959179D01*
X160009737Y-70813497D01*
X160040500Y-70658842D01*
X160040500Y-70501158D01*
X160040500Y-70501155D01*
X160040499Y-70501153D01*
X160028946Y-70443072D01*
X160009737Y-70346503D01*
X159964978Y-70238444D01*
X159949397Y-70200827D01*
X159949390Y-70200814D01*
X159861789Y-70069711D01*
X159861786Y-70069707D01*
X159750292Y-69958213D01*
X159750288Y-69958210D01*
X159619185Y-69870609D01*
X159619172Y-69870602D01*
X159473501Y-69810264D01*
X159473489Y-69810261D01*
X159318845Y-69779500D01*
X159318842Y-69779500D01*
X159161158Y-69779500D01*
X159161155Y-69779500D01*
X159006510Y-69810261D01*
X159006498Y-69810264D01*
X158860827Y-69870602D01*
X158860814Y-69870609D01*
X158729711Y-69958210D01*
X158729707Y-69958213D01*
X158618213Y-70069707D01*
X158618210Y-70069711D01*
X158530609Y-70200814D01*
X158530602Y-70200827D01*
X158470264Y-70346498D01*
X158470261Y-70346510D01*
X158439500Y-70501153D01*
X158439500Y-70658846D01*
X158470261Y-70813489D01*
X158470264Y-70813501D01*
X158530602Y-70959172D01*
X158530609Y-70959185D01*
X158618210Y-71090288D01*
X158618213Y-71090292D01*
X158729707Y-71201786D01*
X158729711Y-71201789D01*
X158865316Y-71292398D01*
X158910121Y-71346010D01*
X158918828Y-71415335D01*
X158888674Y-71478363D01*
X158829230Y-71515082D01*
X158796425Y-71519500D01*
X158339982Y-71519500D01*
X158237203Y-71530000D01*
X158237202Y-71530001D01*
X158154669Y-71557349D01*
X158070667Y-71585185D01*
X158070662Y-71585187D01*
X157921342Y-71677289D01*
X157797289Y-71801342D01*
X157705187Y-71950662D01*
X157705185Y-71950667D01*
X157686050Y-72008414D01*
X157650001Y-72117202D01*
X157650001Y-72117203D01*
X157650000Y-72117203D01*
X157639500Y-72219982D01*
X153538946Y-72219982D01*
X153555051Y-72197816D01*
X153651557Y-72008412D01*
X153717246Y-71806243D01*
X153750500Y-71596287D01*
X153750500Y-71383713D01*
X153717246Y-71173757D01*
X153651557Y-70971588D01*
X153555051Y-70782184D01*
X153555049Y-70782181D01*
X153555048Y-70782179D01*
X153430109Y-70610213D01*
X153321049Y-70501153D01*
X155899500Y-70501153D01*
X155899500Y-70658846D01*
X155930261Y-70813489D01*
X155930264Y-70813501D01*
X155990602Y-70959172D01*
X155990609Y-70959185D01*
X156078210Y-71090288D01*
X156078213Y-71090292D01*
X156189707Y-71201786D01*
X156189711Y-71201789D01*
X156320814Y-71289390D01*
X156320827Y-71289397D01*
X156466498Y-71349735D01*
X156466503Y-71349737D01*
X156607851Y-71377853D01*
X156621153Y-71380499D01*
X156621156Y-71380500D01*
X156621158Y-71380500D01*
X156778844Y-71380500D01*
X156778845Y-71380499D01*
X156933497Y-71349737D01*
X157079179Y-71289394D01*
X157210289Y-71201789D01*
X157321789Y-71090289D01*
X157409394Y-70959179D01*
X157469737Y-70813497D01*
X157500500Y-70658842D01*
X157500500Y-70501158D01*
X157500500Y-70501155D01*
X157500499Y-70501153D01*
X157488946Y-70443072D01*
X157469737Y-70346503D01*
X157424978Y-70238444D01*
X157409397Y-70200827D01*
X157409390Y-70200814D01*
X157321789Y-70069711D01*
X157321786Y-70069707D01*
X157210292Y-69958213D01*
X157210288Y-69958210D01*
X157079185Y-69870609D01*
X157079172Y-69870602D01*
X156933501Y-69810264D01*
X156933489Y-69810261D01*
X156778845Y-69779500D01*
X156778842Y-69779500D01*
X156621158Y-69779500D01*
X156621155Y-69779500D01*
X156466510Y-69810261D01*
X156466498Y-69810264D01*
X156320827Y-69870602D01*
X156320814Y-69870609D01*
X156189711Y-69958210D01*
X156189707Y-69958213D01*
X156078213Y-70069707D01*
X156078210Y-70069711D01*
X155990609Y-70200814D01*
X155990602Y-70200827D01*
X155930264Y-70346498D01*
X155930261Y-70346510D01*
X155899500Y-70501153D01*
X153321049Y-70501153D01*
X153279786Y-70459890D01*
X153107820Y-70334951D01*
X152918414Y-70238444D01*
X152918413Y-70238443D01*
X152918412Y-70238443D01*
X152716243Y-70172754D01*
X152716241Y-70172753D01*
X152716240Y-70172753D01*
X152554957Y-70147208D01*
X152506287Y-70139500D01*
X152293713Y-70139500D01*
X152245042Y-70147208D01*
X152083760Y-70172753D01*
X151881585Y-70238444D01*
X151692179Y-70334951D01*
X151520213Y-70459890D01*
X151369890Y-70610213D01*
X151244951Y-70782179D01*
X151148444Y-70971585D01*
X151082753Y-71173760D01*
X151049500Y-71383713D01*
X149686499Y-71383713D01*
X149686499Y-71187328D01*
X149680091Y-71127717D01*
X149666132Y-71090292D01*
X149629797Y-70992871D01*
X149629795Y-70992868D01*
X149613865Y-70971588D01*
X149552421Y-70889509D01*
X149528004Y-70824048D01*
X149542855Y-70755775D01*
X149552416Y-70740896D01*
X149629796Y-70637531D01*
X149680091Y-70502683D01*
X149686500Y-70443073D01*
X149686499Y-68647328D01*
X149680091Y-68587717D01*
X149629796Y-68452869D01*
X149629795Y-68452868D01*
X149629793Y-68452864D01*
X149543547Y-68337655D01*
X149543544Y-68337652D01*
X149428335Y-68251406D01*
X149428328Y-68251402D01*
X149293482Y-68201108D01*
X149293483Y-68201108D01*
X149233883Y-68194701D01*
X149233881Y-68194700D01*
X149233873Y-68194700D01*
X149233864Y-68194700D01*
X147438129Y-68194700D01*
X147438123Y-68194701D01*
X147378516Y-68201108D01*
X147243671Y-68251402D01*
X147243664Y-68251406D01*
X147128455Y-68337652D01*
X147128452Y-68337655D01*
X147042206Y-68452864D01*
X147042202Y-68452871D01*
X146991908Y-68587717D01*
X146988260Y-68621653D01*
X146985501Y-68647323D01*
X146985500Y-68647335D01*
X146428141Y-68647335D01*
X146471780Y-68409202D01*
X146475364Y-68394664D01*
X146477321Y-68388385D01*
X146560699Y-68120812D01*
X146565997Y-68106842D01*
X146683727Y-67845258D01*
X146690680Y-67832012D01*
X146730959Y-67765381D01*
X146839075Y-67586534D01*
X146847567Y-67574230D01*
X147024481Y-67348417D01*
X147034396Y-67337226D01*
X147237226Y-67134396D01*
X147248417Y-67124481D01*
X147474230Y-66947567D01*
X147486534Y-66939075D01*
X147732012Y-66790680D01*
X147745258Y-66783727D01*
X148006842Y-66665997D01*
X148020812Y-66660699D01*
X148294668Y-66575362D01*
X148309198Y-66571780D01*
X148591344Y-66520075D01*
X148606202Y-66518271D01*
X148896256Y-66500726D01*
X148903647Y-66500500D01*
X148965892Y-66500500D01*
X148966069Y-66500452D01*
X177573415Y-66479685D01*
X177580944Y-66479910D01*
G37*
%TD.AperFunction*%
%TA.AperFunction,Conductor*%
G36*
X156263211Y-85783136D02*
G01*
X156304486Y-85809663D01*
X156304601Y-85809524D01*
X156305795Y-85810504D01*
X156307558Y-85811637D01*
X156309307Y-85813386D01*
X156309311Y-85813389D01*
X156440414Y-85900990D01*
X156440418Y-85900992D01*
X156440421Y-85900994D01*
X156503804Y-85927248D01*
X156558205Y-85971087D01*
X156580271Y-86037381D01*
X156570912Y-86089258D01*
X156559209Y-86117512D01*
X156559208Y-86117516D01*
X156543700Y-86235302D01*
X156543700Y-86698300D01*
X156524015Y-86765339D01*
X156471211Y-86811094D01*
X156419700Y-86822300D01*
X155695635Y-86822300D01*
X155628596Y-86802615D01*
X155582841Y-86749811D01*
X155575451Y-86728825D01*
X155572700Y-86717993D01*
X155572700Y-86716710D01*
X155569843Y-86680407D01*
X155524694Y-86525005D01*
X155522922Y-86522009D01*
X155519804Y-86509732D01*
X155520740Y-86484335D01*
X155517627Y-86459113D01*
X155522007Y-86450006D01*
X155522380Y-86439910D01*
X155536897Y-86419052D01*
X155547915Y-86396149D01*
X155552287Y-86391546D01*
X156132198Y-85811635D01*
X156193519Y-85778152D01*
X156263211Y-85783136D01*
G37*
%TD.AperFunction*%
%TA.AperFunction,Conductor*%
G36*
X161657961Y-83834885D02*
G01*
X161678604Y-83851520D01*
X161730368Y-83903285D01*
X161730372Y-83903288D01*
X161730374Y-83903290D01*
X161871297Y-83986631D01*
X161871298Y-83986631D01*
X161871301Y-83986633D01*
X162028514Y-84032308D01*
X162028517Y-84032308D01*
X162028519Y-84032309D01*
X162065254Y-84035200D01*
X162364094Y-84035200D01*
X162431133Y-84054885D01*
X162476888Y-84107689D01*
X162488094Y-84159200D01*
X162488094Y-84465397D01*
X162490950Y-84501691D01*
X162490951Y-84501697D01*
X162536098Y-84657090D01*
X162536099Y-84657093D01*
X162536100Y-84657095D01*
X162568113Y-84711226D01*
X162582811Y-84736079D01*
X162584466Y-84742603D01*
X162588873Y-84747689D01*
X162592948Y-84776035D01*
X162599994Y-84803803D01*
X162597859Y-84810186D01*
X162598817Y-84816847D01*
X162586918Y-84842900D01*
X162577834Y-84870066D01*
X162572587Y-84874281D01*
X162569792Y-84880403D01*
X162545697Y-84895887D01*
X162523368Y-84913829D01*
X162515288Y-84915430D01*
X162511014Y-84918177D01*
X162476079Y-84923200D01*
X162328597Y-84923200D01*
X162261558Y-84903515D01*
X162240916Y-84886881D01*
X161380916Y-84026881D01*
X161347431Y-83965558D01*
X161352415Y-83895866D01*
X161394287Y-83839933D01*
X161459751Y-83815516D01*
X161468597Y-83815200D01*
X161590922Y-83815200D01*
X161657961Y-83834885D01*
G37*
%TD.AperFunction*%
%TA.AperFunction,Conductor*%
G36*
X166505487Y-83973141D02*
G01*
X166508042Y-83972504D01*
X166538828Y-83982932D01*
X166570000Y-83992085D01*
X166571723Y-83994074D01*
X166574218Y-83994919D01*
X166594482Y-84020338D01*
X166615755Y-84044889D01*
X166616634Y-84048126D01*
X166617771Y-84049553D01*
X166626319Y-84083797D01*
X166635757Y-84176182D01*
X166635758Y-84176185D01*
X166686925Y-84330595D01*
X166688644Y-84335784D01*
X166688649Y-84335795D01*
X166776910Y-84478887D01*
X166781391Y-84484554D01*
X166780305Y-84485412D01*
X166810026Y-84539842D01*
X166805042Y-84609534D01*
X166763170Y-84665467D01*
X166697706Y-84689884D01*
X166688860Y-84690200D01*
X166594496Y-84690200D01*
X166558202Y-84693056D01*
X166558196Y-84693057D01*
X166402802Y-84738204D01*
X166402796Y-84738206D01*
X166382314Y-84750320D01*
X166314590Y-84767501D01*
X166278374Y-84760676D01*
X166266706Y-84756608D01*
X166235589Y-84738206D01*
X166105560Y-84700428D01*
X166102469Y-84699351D01*
X166076601Y-84680842D01*
X166049808Y-84663731D01*
X166048395Y-84660661D01*
X166045646Y-84658694D01*
X166033892Y-84629141D01*
X166020602Y-84600259D01*
X166020678Y-84595918D01*
X166019824Y-84593771D01*
X166020804Y-84588747D01*
X166021309Y-84559972D01*
X166022001Y-84556180D01*
X166022003Y-84556175D01*
X166024894Y-84519440D01*
X166024894Y-84096400D01*
X166044579Y-84029361D01*
X166097383Y-83983606D01*
X166148894Y-83972400D01*
X166502961Y-83972400D01*
X166505487Y-83973141D01*
G37*
%TD.AperFunction*%
%TA.AperFunction,Conductor*%
G36*
X171266623Y-82422016D02*
G01*
X171325294Y-82459957D01*
X171338737Y-82478893D01*
X171375871Y-82543212D01*
X171375875Y-82543217D01*
X171494743Y-82662085D01*
X171494749Y-82662090D01*
X171533178Y-82700519D01*
X171566663Y-82761842D01*
X171561679Y-82831534D01*
X171519807Y-82887467D01*
X171454343Y-82911884D01*
X171445497Y-82912200D01*
X171115696Y-82912200D01*
X171079402Y-82915056D01*
X171079396Y-82915057D01*
X170924002Y-82960204D01*
X170923996Y-82960206D01*
X170903514Y-82972320D01*
X170835790Y-82989501D01*
X170777274Y-82972320D01*
X170756791Y-82960206D01*
X170756785Y-82960204D01*
X170601391Y-82915057D01*
X170601385Y-82915056D01*
X170565091Y-82912200D01*
X170565084Y-82912200D01*
X170320341Y-82912200D01*
X170300872Y-82906483D01*
X170280595Y-82905658D01*
X170268027Y-82896839D01*
X170253302Y-82892515D01*
X170240015Y-82877181D01*
X170223402Y-82865523D01*
X170217597Y-82851310D01*
X170207547Y-82839711D01*
X170204659Y-82819627D01*
X170196987Y-82800840D01*
X170198908Y-82779629D01*
X170197603Y-82770553D01*
X170198423Y-82765575D01*
X170199548Y-82759511D01*
X170238403Y-82625775D01*
X170241294Y-82589040D01*
X170241294Y-82534559D01*
X170243376Y-82523340D01*
X170254220Y-82501942D01*
X170260979Y-82478926D01*
X170269727Y-82471345D01*
X170274962Y-82461017D01*
X170295656Y-82448877D01*
X170313783Y-82433171D01*
X170325240Y-82431523D01*
X170335228Y-82425665D01*
X170359198Y-82426640D01*
X170382941Y-82423227D01*
X170399884Y-82426887D01*
X170514919Y-82460309D01*
X170551654Y-82463200D01*
X170551662Y-82463200D01*
X171027526Y-82463200D01*
X171027534Y-82463200D01*
X171064269Y-82460309D01*
X171196757Y-82421817D01*
X171266623Y-82422016D01*
G37*
%TD.AperFunction*%
%TA.AperFunction,Conductor*%
G36*
X156405426Y-80518127D02*
G01*
X156454832Y-80567532D01*
X156462182Y-80583627D01*
X156502202Y-80690928D01*
X156502206Y-80690935D01*
X156588452Y-80806144D01*
X156588455Y-80806147D01*
X156703664Y-80892393D01*
X156703671Y-80892397D01*
X156726437Y-80900888D01*
X156838517Y-80942691D01*
X156898127Y-80949100D01*
X157293872Y-80949099D01*
X157353483Y-80942691D01*
X157353485Y-80942690D01*
X157353487Y-80942690D01*
X157361031Y-80940908D01*
X157361342Y-80942226D01*
X157379268Y-80940942D01*
X157404835Y-80935270D01*
X157413564Y-80938484D01*
X157422842Y-80937820D01*
X157445828Y-80950367D01*
X157470400Y-80959417D01*
X157476004Y-80966839D01*
X157484170Y-80971297D01*
X157496723Y-80994279D01*
X157512502Y-81015177D01*
X157514693Y-81027179D01*
X157517663Y-81032616D01*
X157520146Y-81049633D01*
X157520500Y-81054323D01*
X157520501Y-81071472D01*
X157524885Y-81112259D01*
X157525035Y-81114240D01*
X157524679Y-81115909D01*
X157524679Y-81136850D01*
X157520500Y-81175722D01*
X157520500Y-81571469D01*
X157520501Y-81571478D01*
X157524679Y-81610345D01*
X157524679Y-81636850D01*
X157520500Y-81675722D01*
X157520500Y-82071469D01*
X157520501Y-82071478D01*
X157524679Y-82110345D01*
X157524679Y-82136850D01*
X157520500Y-82175722D01*
X157520500Y-82571469D01*
X157520501Y-82571478D01*
X157524679Y-82610345D01*
X157524812Y-82635545D01*
X157524741Y-82636269D01*
X157520500Y-82675727D01*
X157520500Y-82680087D01*
X157519923Y-82686048D01*
X157509038Y-82713133D01*
X157500815Y-82741139D01*
X157496164Y-82745168D01*
X157493870Y-82750879D01*
X157470067Y-82767781D01*
X157448011Y-82786894D01*
X157441004Y-82788420D01*
X157436903Y-82791333D01*
X157425132Y-82791878D01*
X157401390Y-82797050D01*
X157401426Y-82797736D01*
X157401428Y-82797746D01*
X157401427Y-82797746D01*
X157401437Y-82797924D01*
X157398118Y-82798101D01*
X157359253Y-82802279D01*
X157332748Y-82802279D01*
X157293874Y-82798100D01*
X156898130Y-82798100D01*
X156898119Y-82798101D01*
X156859253Y-82802279D01*
X156832748Y-82802279D01*
X156793874Y-82798100D01*
X156398130Y-82798100D01*
X156398119Y-82798101D01*
X156359253Y-82802279D01*
X156332748Y-82802279D01*
X156293874Y-82798100D01*
X155898130Y-82798100D01*
X155898119Y-82798101D01*
X155859253Y-82802279D01*
X155834054Y-82802412D01*
X155833332Y-82802342D01*
X155793873Y-82798100D01*
X155789511Y-82798100D01*
X155783551Y-82797523D01*
X155756465Y-82786638D01*
X155728460Y-82778415D01*
X155724430Y-82773764D01*
X155718720Y-82771470D01*
X155701817Y-82747667D01*
X155682705Y-82725611D01*
X155681181Y-82718608D01*
X155678266Y-82714503D01*
X155677718Y-82702690D01*
X155672562Y-82678987D01*
X155671958Y-82679019D01*
X155671855Y-82679031D01*
X155671854Y-82679025D01*
X155671676Y-82679035D01*
X155671498Y-82675711D01*
X155667320Y-82636853D01*
X155667320Y-82610345D01*
X155671500Y-82571473D01*
X155671499Y-82175728D01*
X155671499Y-82175727D01*
X155671498Y-82175711D01*
X155667320Y-82136853D01*
X155667320Y-82110345D01*
X155671500Y-82071473D01*
X155671499Y-81675728D01*
X155671499Y-81675727D01*
X155671498Y-81675711D01*
X155667320Y-81636853D01*
X155667320Y-81610345D01*
X155671500Y-81571473D01*
X155671499Y-81175728D01*
X155671499Y-81175727D01*
X155671498Y-81175711D01*
X155667320Y-81136853D01*
X155667187Y-81111643D01*
X155667244Y-81111051D01*
X155671500Y-81071473D01*
X155671499Y-81067113D01*
X155672078Y-81061145D01*
X155682962Y-81034061D01*
X155691185Y-81006060D01*
X155695836Y-81002029D01*
X155698133Y-80996315D01*
X155721938Y-80979411D01*
X155743989Y-80960305D01*
X155750993Y-80958781D01*
X155755102Y-80955864D01*
X155766916Y-80955317D01*
X155790611Y-80950162D01*
X155790576Y-80949500D01*
X155790571Y-80949454D01*
X155790573Y-80949453D01*
X155790564Y-80949276D01*
X155793857Y-80949099D01*
X155793872Y-80949099D01*
X155853483Y-80942691D01*
X155988331Y-80892396D01*
X156103546Y-80806146D01*
X156189796Y-80690931D01*
X156223857Y-80599609D01*
X156229818Y-80583627D01*
X156271689Y-80527693D01*
X156337153Y-80503276D01*
X156405426Y-80518127D01*
G37*
%TD.AperFunction*%
%TA.AperFunction,Conductor*%
G36*
X162414294Y-79488885D02*
G01*
X162460049Y-79541689D01*
X162469993Y-79610847D01*
X162466331Y-79627795D01*
X162440151Y-79717902D01*
X162440150Y-79717908D01*
X162437294Y-79754202D01*
X162437294Y-80060400D01*
X162417609Y-80127439D01*
X162364805Y-80173194D01*
X162313294Y-80184400D01*
X162039846Y-80184400D01*
X162003120Y-80187290D01*
X161896694Y-80218210D01*
X161870437Y-80218134D01*
X161844453Y-80221871D01*
X161836056Y-80218036D01*
X161826825Y-80218010D01*
X161804779Y-80203752D01*
X161780897Y-80192846D01*
X161775905Y-80185079D01*
X161768155Y-80180067D01*
X161757317Y-80156154D01*
X161743123Y-80134068D01*
X161741179Y-80120548D01*
X161739312Y-80116429D01*
X161738100Y-80099133D01*
X161738100Y-79954497D01*
X161757785Y-79887458D01*
X161774419Y-79866816D01*
X162135717Y-79505519D01*
X162197040Y-79472034D01*
X162223398Y-79469200D01*
X162347255Y-79469200D01*
X162414294Y-79488885D01*
G37*
%TD.AperFunction*%
%TD*%
M02*
