%TF.GenerationSoftware,KiCad,Pcbnew,10.0.3*%
%TF.CreationDate,2026-07-08T17:57:28+01:00*%
%TF.ProjectId,CC1101_Multx,43433131-3031-45f4-9d75-6c74782e6b69,rev?*%
%TF.SameCoordinates,Original*%
%TF.FileFunction,Copper,L1,Top*%
%TF.FilePolarity,Positive*%
%FSLAX46Y46*%
G04 Gerber Fmt 4.6, Leading zero omitted, Abs format (unit mm)*
G04 Created by KiCad (PCBNEW 10.0.3) date 2026-07-08 17:57:28*
%MOMM*%
%LPD*%
G01*
G04 APERTURE LIST*
G04 Aperture macros list*
%AMRoundRect*
0 Rectangle with rounded corners*
0 $1 Rounding radius*
0 $2 $3 $4 $5 $6 $7 $8 $9 X,Y pos of 4 corners*
0 Add a 4 corners polygon primitive as box body*
4,1,4,$2,$3,$4,$5,$6,$7,$8,$9,$2,$3,0*
0 Add four circle primitives for the rounded corners*
1,1,$1+$1,$2,$3*
1,1,$1+$1,$4,$5*
1,1,$1+$1,$6,$7*
1,1,$1+$1,$8,$9*
0 Add four rect primitives between the rounded corners*
20,1,$1+$1,$2,$3,$4,$5,0*
20,1,$1+$1,$4,$5,$6,$7,0*
20,1,$1+$1,$6,$7,$8,$9,0*
20,1,$1+$1,$8,$9,$2,$3,0*%
G04 Aperture macros list end*
%TA.AperFunction,SMDPad,CuDef*%
%ADD10RoundRect,0.240000X-2.210000X-0.560000X2.210000X-0.560000X2.210000X0.560000X-2.210000X0.560000X0*%
%TD*%
%TA.AperFunction,SMDPad,CuDef*%
%ADD11RoundRect,0.225000X-2.575000X-0.525000X2.575000X-0.525000X2.575000X0.525000X-2.575000X0.525000X0*%
%TD*%
%TA.AperFunction,SMDPad,CuDef*%
%ADD12R,0.990600X0.355600*%
%TD*%
%TA.AperFunction,ComponentPad*%
%ADD13R,1.700000X1.700000*%
%TD*%
%TA.AperFunction,ComponentPad*%
%ADD14C,1.700000*%
%TD*%
%TA.AperFunction,SMDPad,CuDef*%
%ADD15RoundRect,0.147500X-0.147500X-0.172500X0.147500X-0.172500X0.147500X0.172500X-0.147500X0.172500X0*%
%TD*%
%TA.AperFunction,SMDPad,CuDef*%
%ADD16RoundRect,0.140000X-0.170000X0.140000X-0.170000X-0.140000X0.170000X-0.140000X0.170000X0.140000X0*%
%TD*%
%TA.AperFunction,SMDPad,CuDef*%
%ADD17R,0.950000X0.300000*%
%TD*%
%TA.AperFunction,SMDPad,CuDef*%
%ADD18R,0.300000X0.950000*%
%TD*%
%TA.AperFunction,SMDPad,CuDef*%
%ADD19R,2.500000X2.500000*%
%TD*%
%TA.AperFunction,SMDPad,CuDef*%
%ADD20RoundRect,0.147500X0.172500X-0.147500X0.172500X0.147500X-0.172500X0.147500X-0.172500X-0.147500X0*%
%TD*%
%TA.AperFunction,SMDPad,CuDef*%
%ADD21RoundRect,0.140000X-0.140000X-0.170000X0.140000X-0.170000X0.140000X0.170000X-0.140000X0.170000X0*%
%TD*%
%TA.AperFunction,SMDPad,CuDef*%
%ADD22RoundRect,0.140000X0.140000X0.170000X-0.140000X0.170000X-0.140000X-0.170000X0.140000X-0.170000X0*%
%TD*%
%TA.AperFunction,SMDPad,CuDef*%
%ADD23RoundRect,0.140000X0.170000X-0.140000X0.170000X0.140000X-0.170000X0.140000X-0.170000X-0.140000X0*%
%TD*%
%TA.AperFunction,SMDPad,CuDef*%
%ADD24RoundRect,0.102000X-0.373000X-0.323000X0.373000X-0.323000X0.373000X0.323000X-0.373000X0.323000X0*%
%TD*%
%TA.AperFunction,SMDPad,CuDef*%
%ADD25RoundRect,0.218750X-0.218750X-0.256250X0.218750X-0.256250X0.218750X0.256250X-0.218750X0.256250X0*%
%TD*%
%TA.AperFunction,SMDPad,CuDef*%
%ADD26RoundRect,0.135000X-0.185000X0.135000X-0.185000X-0.135000X0.185000X-0.135000X0.185000X0.135000X0*%
%TD*%
%TA.AperFunction,SMDPad,CuDef*%
%ADD27RoundRect,0.147500X0.147500X0.172500X-0.147500X0.172500X-0.147500X-0.172500X0.147500X-0.172500X0*%
%TD*%
%TA.AperFunction,ViaPad*%
%ADD28C,0.600000*%
%TD*%
%TA.AperFunction,Conductor*%
%ADD29C,0.200000*%
%TD*%
%TA.AperFunction,Conductor*%
%ADD30C,0.150000*%
%TD*%
G04 APERTURE END LIST*
D10*
%TO.P,AE1,2,Shield_2*%
%TO.N,/AGND*%
X184250000Y-87217501D03*
X184250000Y-78697501D03*
D11*
%TO.P,AE1,1,A_1*%
%TO.N,/To_Ant*%
X183900000Y-82957501D03*
%TD*%
D12*
%TO.P,U2,6,\u002ACTRL/VDD_6*%
%TO.N,/AVDD*%
X177959711Y-82310001D03*
%TO.P,U2,5,RFC_5*%
%TO.N,/To_Ant*%
X177959711Y-82960000D03*
%TO.P,U2,4,CTRL_4*%
%TO.N,Net-(J9-Pin_1)*%
X177959711Y-83609999D03*
%TO.P,U2,3,RF2_3*%
%TO.N,/868_A*%
X175622911Y-83609999D03*
%TO.P,U2,2,GND_2*%
%TO.N,/AGND*%
X175622911Y-82960000D03*
%TO.P,U2,1,RF1_1*%
%TO.N,/433_A*%
X175622911Y-82310001D03*
%TD*%
D13*
%TO.P,J1,1,Pin_1_1*%
%TO.N,/AGND*%
X145640000Y-76130000D03*
%TD*%
D12*
%TO.P,U3,1,RF1_1*%
%TO.N,/433_P*%
X162779876Y-84414462D03*
%TO.P,U3,2,GND_2*%
%TO.N,/AGND*%
X162779876Y-83764463D03*
%TO.P,U3,3,RF2_3*%
%TO.N,/868_P*%
X162779876Y-83114464D03*
%TO.P,U3,4,CTRL_4*%
%TO.N,Net-(J8-Pin_1)*%
X160443076Y-83114464D03*
%TO.P,U3,5,RFC_5*%
%TO.N,/RF_P*%
X160443076Y-83764463D03*
%TO.P,U3,6,\u002ACTRL/VDD_6*%
%TO.N,/AVDD*%
X160443076Y-84414462D03*
%TD*%
%TO.P,U1,1,RF1_1*%
%TO.N,/868_N*%
X162779876Y-81239999D03*
%TO.P,U1,2,GND_2*%
%TO.N,/AGND*%
X162779876Y-80590000D03*
%TO.P,U1,3,RF2_3*%
%TO.N,/433_N*%
X162779876Y-79940001D03*
%TO.P,U1,4,CTRL_4*%
%TO.N,Net-(J7-Pin_1)*%
X160443076Y-79940001D03*
%TO.P,U1,5,RFC_5*%
%TO.N,/RF_N*%
X160443076Y-80590000D03*
%TO.P,U1,6,\u002ACTRL/VDD_6*%
%TO.N,/AVDD*%
X160443076Y-81239999D03*
%TD*%
D13*
%TO.P,BT1,1,+_1*%
%TO.N,/AVDD*%
X148180000Y-73590000D03*
D14*
%TO.P,BT1,2,-_2*%
%TO.N,/AGND*%
X145640000Y-73590000D03*
%TD*%
D15*
%TO.P,L131_1,1,1_1*%
%TO.N,/433_N*%
X167605517Y-79959200D03*
%TO.P,L131_1,2,2_2*%
%TO.N,Net-(C121_1-Pad2)*%
X168575517Y-79959200D03*
%TD*%
D16*
%TO.P,C123_1,1*%
%TO.N,/AGND*%
X172916511Y-78670700D03*
%TO.P,C123_1,2*%
%TO.N,Net-(C123_1-Pad2)*%
X172916511Y-79630700D03*
%TD*%
D17*
%TO.P,IC1,1,SCLK_1*%
%TO.N,Net-(IC1-SCLK)*%
X154696000Y-80873600D03*
%TO.P,IC1,2,SO_(GDO1)_2*%
%TO.N,Net-(IC1-SO_(GDO1))*%
X154696000Y-81373600D03*
%TO.P,IC1,3,GDO2_3*%
%TO.N,Net-(IC1-GDO2)*%
X154696000Y-81873600D03*
%TO.P,IC1,4,DVDD_4*%
%TO.N,/AVDD*%
X154696000Y-82373600D03*
%TO.P,IC1,5,DCOUPL_5*%
%TO.N,Net-(IC1-DCOUPL)*%
X154696000Y-82873600D03*
D18*
%TO.P,IC1,6,GDO0_(ATEST)_6*%
%TO.N,Net-(IC1-GDO0_(ATEST))*%
X155596000Y-83773600D03*
%TO.P,IC1,7,CSN_7*%
%TO.N,Net-(IC1-CSN)*%
X156096000Y-83773600D03*
%TO.P,IC1,8,XOSC_Q1_8*%
%TO.N,Net-(IC1-XOSC_Q1)*%
X156596000Y-83773600D03*
%TO.P,IC1,9,AVDD_1_9*%
%TO.N,/AVDD*%
X157096000Y-83773600D03*
%TO.P,IC1,10,XOSC_Q2_10*%
%TO.N,Net-(IC1-XOSC_Q2)*%
X157596000Y-83773600D03*
D17*
%TO.P,IC1,11,AVDD_2_11*%
%TO.N,/AVDD*%
X158496000Y-82873600D03*
%TO.P,IC1,12,RF_P_12*%
%TO.N,/RF_P*%
X158496000Y-82373600D03*
%TO.P,IC1,13,RF_N_13*%
%TO.N,/RF_N*%
X158496000Y-81873600D03*
%TO.P,IC1,14,AVDD_3_14*%
%TO.N,/AVDD*%
X158496000Y-81373600D03*
%TO.P,IC1,15,AVDD_4_15*%
X158496000Y-80873600D03*
D18*
%TO.P,IC1,16,GND_1_16*%
%TO.N,/AGND*%
X157596000Y-79973600D03*
%TO.P,IC1,17,RBIAS_17*%
%TO.N,Net-(IC1-RBIAS)*%
X157096000Y-79973600D03*
%TO.P,IC1,18,DGUARD_18*%
%TO.N,/AGND*%
X156596000Y-79973600D03*
%TO.P,IC1,19,GND_2_19*%
X156096000Y-79973600D03*
%TO.P,IC1,20,SI_20*%
%TO.N,Net-(IC1-SI)*%
X155596000Y-79973600D03*
D19*
%TO.P,IC1,21,GND_3_21*%
%TO.N,/AGND*%
X156596000Y-81873600D03*
%TD*%
D13*
%TO.P,J8,1,Pin_1_1*%
%TO.N,Net-(J8-Pin_1)*%
X148180000Y-86290000D03*
%TD*%
%TO.P,J7,1,Pin_1_1*%
%TO.N,Net-(J7-Pin_1)*%
X145640000Y-81210000D03*
%TD*%
D20*
%TO.P,L121_1,1,1_1*%
%TO.N,Net-(C124_1-Pad2)*%
X165753711Y-86493700D03*
%TO.P,L121_1,2,2_2*%
%TO.N,/433_P*%
X165753711Y-85523700D03*
%TD*%
D21*
%TO.P,C3,1*%
%TO.N,/AGND*%
X151513600Y-82092800D03*
%TO.P,C3,2*%
%TO.N,/AVDD*%
X152473600Y-82092800D03*
%TD*%
D22*
%TO.P,C51,1*%
%TO.N,Net-(IC1-DCOUPL)*%
X152473600Y-83159600D03*
%TO.P,C51,2*%
%TO.N,/AGND*%
X151513600Y-83159600D03*
%TD*%
D15*
%TO.P,L122_1,1,1_1*%
%TO.N,Net-(C121_1-Pad2)*%
X170602711Y-82351100D03*
%TO.P,L122_1,2,2_2*%
%TO.N,Net-(C122_1-Pad2)*%
X171572711Y-82351100D03*
%TD*%
D13*
%TO.P,J3,1,Pin_1_1*%
%TO.N,Net-(IC1-GDO2)*%
X148180000Y-78670000D03*
%TD*%
D23*
%TO.P,C131_1,1*%
%TO.N,/433_N*%
X165753711Y-78868700D03*
%TO.P,C131_1,2*%
%TO.N,/AGND*%
X165753711Y-77908700D03*
%TD*%
D13*
%TO.P,J1,1,Pin_1_1*%
%TO.N,Net-(IC1-SCLK)*%
X148180000Y-76130000D03*
%TD*%
D22*
%TO.P,C131_2,1*%
%TO.N,Net-(C121_2-Pad1)*%
X165344711Y-79988900D03*
%TO.P,C131_2,2*%
%TO.N,/AGND*%
X164384711Y-79988900D03*
%TD*%
D15*
%TO.P,L132_2,1,1_1*%
%TO.N,Net-(C121_2-Pad1)*%
X166411711Y-81004900D03*
%TO.P,L132_2,2,2_2*%
%TO.N,Net-(C122_2-Pad2)*%
X167381711Y-81004900D03*
%TD*%
D22*
%TO.P,C121_2,1*%
%TO.N,Net-(C121_2-Pad1)*%
X166335311Y-82097100D03*
%TO.P,C121_2,2*%
%TO.N,Net-(C121_2-Pad2)*%
X165375311Y-82097100D03*
%TD*%
D13*
%TO.P,J6,1,Pin_1_1*%
%TO.N,Net-(IC1-CSN)*%
X148180000Y-83750000D03*
%TD*%
D21*
%TO.P,C2,1*%
%TO.N,/AGND*%
X151513600Y-81026000D03*
%TO.P,C2,2*%
%TO.N,/AVDD*%
X152473600Y-81026000D03*
%TD*%
D13*
%TO.P,J4,1,Pin_1_1*%
%TO.N,Net-(IC1-SI)*%
X145640000Y-83750000D03*
%TD*%
D24*
%TO.P,Y1,1,1_1*%
%TO.N,Net-(IC1-XOSC_Q1)*%
X156069200Y-87747800D03*
%TO.P,Y1,2,G_2*%
%TO.N,/AGND*%
X157519200Y-87747800D03*
%TO.P,Y1,3,3_3*%
%TO.N,Net-(IC1-XOSC_Q2)*%
X157519200Y-86597800D03*
%TO.P,Y1,4,G_4*%
%TO.N,/AGND*%
X156069200Y-86597800D03*
%TD*%
D13*
%TO.P,J2,1,Pin_1_1*%
%TO.N,Net-(IC1-SO_(GDO1))*%
X145640000Y-86290000D03*
%TD*%
D21*
%TO.P,C122_2,1*%
%TO.N,Net-(C121_2-Pad2)*%
X166391311Y-83214700D03*
%TO.P,C122_2,2*%
%TO.N,Net-(C122_2-Pad2)*%
X167351311Y-83214700D03*
%TD*%
D13*
%TO.P,J5,1,Pin_1_1*%
%TO.N,Net-(IC1-GDO0_(ATEST))*%
X148180000Y-81210000D03*
%TD*%
D23*
%TO.P,C4,1*%
%TO.N,/AGND*%
X154762200Y-87881400D03*
%TO.P,C4,2*%
%TO.N,Net-(IC1-XOSC_Q1)*%
X154762200Y-86921400D03*
%TD*%
D25*
%TO.P,L124_2,1,1_1*%
%TO.N,Net-(C123_2-Pad2)*%
X169690611Y-83773500D03*
%TO.P,L124_2,2,2_2*%
%TO.N,Net-(C125_2-Pad2)*%
X171265611Y-83773500D03*
%TD*%
D23*
%TO.P,C123_2,1*%
%TO.N,/AGND*%
X168395311Y-84151900D03*
%TO.P,C123_2,2*%
%TO.N,Net-(C123_2-Pad2)*%
X168395311Y-83191900D03*
%TD*%
D21*
%TO.P,C1,1*%
%TO.N,/AGND*%
X151513600Y-79959200D03*
%TO.P,C1,2*%
%TO.N,/AVDD*%
X152473600Y-79959200D03*
%TD*%
D16*
%TO.P,C122_1,1*%
%TO.N,/AGND*%
X171646511Y-80194700D03*
%TO.P,C122_1,2*%
%TO.N,Net-(C122_1-Pad2)*%
X171646511Y-81154700D03*
%TD*%
D22*
%TO.P,C125_2,1*%
%TO.N,/868_A*%
X173447311Y-83670000D03*
%TO.P,C125_2,2*%
%TO.N,Net-(C125_2-Pad2)*%
X172487311Y-83670000D03*
%TD*%
D21*
%TO.P,C121_1,1*%
%TO.N,/433_P*%
X167966111Y-85500700D03*
%TO.P,C121_1,2*%
%TO.N,Net-(C121_1-Pad2)*%
X168926111Y-85500700D03*
%TD*%
D26*
%TO.P,R171,1*%
%TO.N,/AGND*%
X157073600Y-77671200D03*
%TO.P,R171,2*%
%TO.N,Net-(IC1-RBIAS)*%
X157073600Y-78691200D03*
%TD*%
D15*
%TO.P,L121_2,1,1_1*%
%TO.N,/868_P*%
X164405111Y-83214700D03*
%TO.P,L121_2,2,2_2*%
%TO.N,Net-(C121_2-Pad2)*%
X165375111Y-83214700D03*
%TD*%
D21*
%TO.P,C124_2,1*%
%TO.N,/AGND*%
X164435511Y-84230700D03*
%TO.P,C124_2,2*%
%TO.N,Net-(C124_2-Pad2)*%
X165395511Y-84230700D03*
%TD*%
D23*
%TO.P,C125_1,1*%
%TO.N,/433_A*%
X173980000Y-82000000D03*
%TO.P,C125_1,2*%
%TO.N,Net-(C123_1-Pad2)*%
X173980000Y-81040000D03*
%TD*%
D13*
%TO.P,J9,1,Pin_1_1*%
%TO.N,Net-(J9-Pin_1)*%
X145640000Y-78670000D03*
%TD*%
D20*
%TO.P,L123_1,1,1_1*%
%TO.N,Net-(C122_1-Pad2)*%
X172916511Y-81667700D03*
%TO.P,L123_1,2,2_2*%
%TO.N,Net-(C123_1-Pad2)*%
X172916511Y-80697700D03*
%TD*%
D23*
%TO.P,C5,1*%
%TO.N,/AGND*%
X158863200Y-87636600D03*
%TO.P,C5,2*%
%TO.N,Net-(IC1-XOSC_Q2)*%
X158863200Y-86676600D03*
%TD*%
D27*
%TO.P,L122_2,1,1_1*%
%TO.N,Net-(C121_2-Pad2)*%
X167356311Y-84281500D03*
%TO.P,L122_2,2,2_2*%
%TO.N,Net-(C124_2-Pad2)*%
X166386311Y-84281500D03*
%TD*%
D15*
%TO.P,L123_2,1,1_1*%
%TO.N,Net-(C122_2-Pad2)*%
X167402311Y-82097100D03*
%TO.P,L123_2,2,2_2*%
%TO.N,Net-(C123_2-Pad2)*%
X168372311Y-82097100D03*
%TD*%
%TO.P,L131_2,1,1_1*%
%TO.N,/868_N*%
X164379711Y-81004900D03*
%TO.P,L131_2,2,2_2*%
%TO.N,Net-(C121_2-Pad1)*%
X165349711Y-81004900D03*
%TD*%
D23*
%TO.P,C124_1,1*%
%TO.N,/AGND*%
X165753711Y-88469900D03*
%TO.P,C124_1,2*%
%TO.N,Net-(C124_1-Pad2)*%
X165753711Y-87509900D03*
%TD*%
D28*
%TO.N,/AGND*%
X167640000Y-71120000D03*
X166370000Y-72390000D03*
X176530000Y-69850000D03*
X152400000Y-87630000D03*
X149860000Y-88900000D03*
X147320000Y-91440000D03*
X146050000Y-88900000D03*
X144780000Y-71120000D03*
X151130000Y-74930000D03*
X153670000Y-74930000D03*
X154940000Y-73660000D03*
X156210000Y-69850000D03*
X156210000Y-72390000D03*
X158750000Y-69850000D03*
X157480000Y-71120000D03*
X160020000Y-71120000D03*
X158750000Y-72390000D03*
X160020000Y-73660000D03*
X157480000Y-73660000D03*
X146050000Y-68580000D03*
X161290000Y-90170000D03*
X161290000Y-87630000D03*
X163830000Y-87630000D03*
X163830000Y-90170000D03*
X166370000Y-90170000D03*
X168910000Y-87630000D03*
X168910000Y-90170000D03*
X173990000Y-87630000D03*
X171450000Y-87630000D03*
X171450000Y-90170000D03*
X173990000Y-90170000D03*
X176530000Y-87630000D03*
X184150000Y-90170000D03*
X181610000Y-90170000D03*
X179070000Y-87630000D03*
X179070000Y-80010000D03*
X165100000Y-76200000D03*
X168910000Y-77470000D03*
X171450000Y-77470000D03*
X176530000Y-77470000D03*
X181610000Y-77470000D03*
X179070000Y-77470000D03*
X184150000Y-74930000D03*
X181610000Y-74930000D03*
X181610000Y-72390000D03*
X184150000Y-72390000D03*
X184150000Y-69850000D03*
X181610000Y-69850000D03*
X162560000Y-86360000D03*
X162560000Y-88900000D03*
X162560000Y-91440000D03*
X165100000Y-91440000D03*
X167640000Y-91440000D03*
X170180000Y-91440000D03*
X172720000Y-91440000D03*
X175260000Y-91440000D03*
X177800000Y-91440000D03*
X185420000Y-88900000D03*
X182880000Y-88900000D03*
X182880000Y-91440000D03*
X180340000Y-91440000D03*
X180340000Y-88900000D03*
X175260000Y-88900000D03*
X172720000Y-88900000D03*
X170180000Y-88900000D03*
X167640000Y-88900000D03*
X172720000Y-86360000D03*
X177800000Y-86360000D03*
X175260000Y-86360000D03*
X180340000Y-86360000D03*
X170180000Y-78740000D03*
X167640000Y-76200000D03*
X170180000Y-76200000D03*
X172720000Y-76200000D03*
X177800000Y-78740000D03*
X180340000Y-78740000D03*
X180340000Y-76200000D03*
X182880000Y-76200000D03*
X185420000Y-76200000D03*
X185420000Y-73660000D03*
X182880000Y-73660000D03*
X180340000Y-73660000D03*
X182880000Y-71120000D03*
X185420000Y-71120000D03*
X180340000Y-71120000D03*
X182880000Y-68580000D03*
X180340000Y-68580000D03*
X184250000Y-87217501D03*
X184250000Y-78697501D03*
X161540000Y-84510000D03*
X161590000Y-83360000D03*
X161610000Y-79860000D03*
X161610000Y-81050000D03*
%TO.N,Net-(J9-Pin_1)*%
X146775735Y-71735735D03*
X177220000Y-84200000D03*
%TO.N,/AVDD*%
X177740000Y-81190000D03*
%TO.N,Net-(J7-Pin_1)*%
X160300000Y-79040000D03*
%TO.N,Net-(J8-Pin_1)*%
X160124014Y-82615368D03*
%TO.N,/AVDD*%
X160240000Y-81710000D03*
%TO.N,/AGND*%
X163734250Y-80415196D03*
X167640000Y-73660000D03*
X162540000Y-85410000D03*
X177800000Y-73660000D03*
X172257711Y-84785900D03*
X155230000Y-88760000D03*
X175260000Y-71120000D03*
X174310000Y-84580000D03*
X176290000Y-84600000D03*
X158470000Y-84900000D03*
X170180000Y-73660000D03*
X180530000Y-82110000D03*
X172720000Y-71120000D03*
X156210000Y-74930000D03*
X174440517Y-79857600D03*
X175260000Y-68580000D03*
X157886400Y-77724000D03*
X164717711Y-86205900D03*
X163676917Y-78375000D03*
X179720001Y-82090000D03*
X166607711Y-78335900D03*
X168192117Y-79044800D03*
X165100000Y-73660000D03*
X173990000Y-72390000D03*
X174660000Y-83070000D03*
X163830000Y-69850000D03*
X171450000Y-72390000D03*
X173797711Y-79105900D03*
X163830000Y-74930000D03*
X165100000Y-68580000D03*
X163830000Y-72390000D03*
X165753711Y-89107500D03*
X165100000Y-71120000D03*
X167226917Y-78994000D03*
X151485600Y-79121000D03*
X158750000Y-74930000D03*
X162560000Y-68580000D03*
X168910000Y-74930000D03*
X163710076Y-83989957D03*
X160730000Y-85420000D03*
X158750000Y-90170000D03*
X175340000Y-84530000D03*
X168910000Y-72390000D03*
X168415046Y-84768326D03*
X166370000Y-74930000D03*
X171450000Y-74930000D03*
X166370000Y-69850000D03*
X172720000Y-68580000D03*
X157480000Y-76200000D03*
X171849711Y-79049100D03*
X162590000Y-79010000D03*
X156596000Y-81873600D03*
X173340000Y-84710000D03*
X179070000Y-72390000D03*
X162560000Y-71120000D03*
X159380000Y-77920000D03*
X171137711Y-84995900D03*
X164857711Y-88005900D03*
X170180000Y-68580000D03*
X158318200Y-88544400D03*
X178864233Y-84075095D03*
X179070000Y-74930000D03*
X170180000Y-71120000D03*
X173990000Y-69850000D03*
X168910000Y-69850000D03*
X167517711Y-86415900D03*
X157480000Y-91440000D03*
X164737711Y-78135900D03*
X166617711Y-87975900D03*
X176530000Y-74930000D03*
X169360517Y-79445900D03*
X164747711Y-87015900D03*
X160020000Y-76200000D03*
X180520000Y-83940000D03*
X166687711Y-87005900D03*
X170417711Y-85555900D03*
X171450000Y-69850000D03*
X169867711Y-80545900D03*
X177800000Y-76200000D03*
X179070000Y-69850000D03*
X154940000Y-76200000D03*
X178210000Y-84470000D03*
X168447711Y-86455900D03*
X167640000Y-68580000D03*
X177800000Y-68580000D03*
X169557711Y-86295900D03*
X162560000Y-73660000D03*
X158900000Y-78660000D03*
X175260000Y-76200000D03*
X177260000Y-85220000D03*
X166677711Y-86100700D03*
X174846917Y-80721200D03*
X172720000Y-73660000D03*
X154940000Y-91440000D03*
X178897421Y-81899231D03*
X162560000Y-76200000D03*
X179705001Y-83920000D03*
X163430000Y-85800000D03*
X175260000Y-73660000D03*
X165753711Y-77118700D03*
X156210000Y-90170000D03*
X173990000Y-74930000D03*
%TO.N,/AVDD*%
X158750000Y-83921600D03*
X152552400Y-79146400D03*
X156819600Y-85191600D03*
X158648400Y-79959200D03*
%TO.N,Net-(IC1-SO_(GDO1))*%
X154090000Y-78910000D03*
%TO.N,Net-(IC1-SI)*%
X155549600Y-78536800D03*
%TD*%
%TO.N,Net-(J9-Pin_1)*%
D29*
X146830000Y-77480000D02*
X145640000Y-78670000D01*
X146775735Y-71735735D02*
X146830000Y-71790000D01*
X146830000Y-71790000D02*
X146830000Y-77480000D01*
%TO.N,/AVDD*%
X160443076Y-81506924D02*
X160443076Y-81239999D01*
X160240000Y-81710000D02*
X160443076Y-81506924D01*
X177959711Y-81489711D02*
X177959711Y-82310001D01*
X177740000Y-81190000D02*
X177740000Y-81270000D01*
X177740000Y-81270000D02*
X177959711Y-81489711D01*
%TO.N,/AGND*%
X175452911Y-82790000D02*
X175622911Y-82960000D01*
X174660000Y-83070000D02*
X174940000Y-82790000D01*
X174940000Y-82790000D02*
X175452911Y-82790000D01*
%TO.N,/To_Ant*%
X184867501Y-82960000D02*
X184870000Y-82957501D01*
X177959711Y-82960000D02*
X184867501Y-82960000D01*
%TO.N,/AGND*%
X145640000Y-76130000D02*
X145640000Y-73590000D01*
%TO.N,Net-(IC1-SCLK)*%
X154696000Y-78667471D02*
X154696000Y-80873600D01*
X152158529Y-76130000D02*
X154696000Y-78667471D01*
X148180000Y-76130000D02*
X152158529Y-76130000D01*
%TO.N,Net-(IC1-GDO2)*%
X153422400Y-81678400D02*
X153517600Y-81773600D01*
X153422400Y-79011659D02*
X153422400Y-81678400D01*
X152931741Y-78521000D02*
X153422400Y-79011659D01*
X148329000Y-78521000D02*
X152931741Y-78521000D01*
X148180000Y-78670000D02*
X148329000Y-78521000D01*
%TO.N,Net-(IC1-SO_(GDO1))*%
X154090000Y-78910000D02*
X154089744Y-78910000D01*
X154089744Y-78910000D02*
X153822400Y-79177344D01*
X153822400Y-79177344D02*
X153822400Y-81225000D01*
X153822400Y-81225000D02*
X153971000Y-81373600D01*
X153971000Y-81373600D02*
X154696000Y-81373600D01*
%TO.N,/AVDD*%
X152754400Y-82373600D02*
X152473600Y-82092800D01*
X152473600Y-79225200D02*
X152473600Y-82092800D01*
X152552400Y-79146400D02*
X152473600Y-79225200D01*
%TO.N,/AGND*%
X151485600Y-79931200D02*
X151513600Y-79959200D01*
X151485600Y-79121000D02*
X151485600Y-79931200D01*
X151513600Y-83159600D02*
X151513600Y-79959200D01*
%TO.N,Net-(IC1-GDO0_(ATEST))*%
X148180000Y-81380000D02*
X148180000Y-81210000D01*
X151981787Y-85181787D02*
X148180000Y-81380000D01*
X153781413Y-85181787D02*
X151981787Y-85181787D01*
X155189600Y-83773600D02*
X153781413Y-85181787D01*
X155596000Y-83773600D02*
X155189600Y-83773600D01*
%TO.N,Net-(IC1-CSN)*%
X148180000Y-83750000D02*
X150383600Y-85953600D01*
X150383600Y-85953600D02*
X152857200Y-85953600D01*
%TO.N,Net-(J9-Pin_1)*%
X177810001Y-83609999D02*
X177220000Y-84200000D01*
X177959711Y-83609999D02*
X177810001Y-83609999D01*
%TO.N,/868_A*%
X175562910Y-83670000D02*
X175622911Y-83609999D01*
X173447311Y-83670000D02*
X175562910Y-83670000D01*
%TO.N,/433_A*%
X174000000Y-82300000D02*
X175612910Y-82300000D01*
X175612910Y-82300000D02*
X175622911Y-82310001D01*
X173980000Y-82280000D02*
X174000000Y-82300000D01*
X173980000Y-82000000D02*
X173980000Y-82280000D01*
%TO.N,Net-(C123_1-Pad2)*%
X173980000Y-80887700D02*
X173790000Y-80697700D01*
X173980000Y-81040000D02*
X173980000Y-80887700D01*
%TO.N,Net-(J7-Pin_1)*%
X160443076Y-79183076D02*
X160300000Y-79040000D01*
X160443076Y-79940001D02*
X160443076Y-79183076D01*
%TO.N,Net-(J8-Pin_1)*%
X160443076Y-82873076D02*
X160443076Y-83114464D01*
X160185368Y-82615368D02*
X160443076Y-82873076D01*
X160124014Y-82615368D02*
X160124014Y-82565986D01*
X160124014Y-82565986D02*
X160130000Y-82560000D01*
X160124014Y-82615368D02*
X160185368Y-82615368D01*
%TO.N,/AVDD*%
X159242862Y-84414462D02*
X158750000Y-83921600D01*
X160443076Y-84414462D02*
X159242862Y-84414462D01*
%TO.N,/RF_P*%
X159221000Y-82373600D02*
X158496000Y-82373600D01*
X159271000Y-82423600D02*
X159230000Y-82423600D01*
X159271000Y-83287687D02*
X159271000Y-82423600D01*
X159230000Y-82423600D02*
X159230000Y-82382600D01*
X159747776Y-83764463D02*
X159271000Y-83287687D01*
X160443076Y-83764463D02*
X159747776Y-83764463D01*
X159230000Y-82382600D02*
X159221000Y-82373600D01*
%TO.N,/RF_N*%
X159221000Y-81873600D02*
X159000000Y-81873600D01*
X159747776Y-80590000D02*
X159271000Y-81066776D01*
X160443076Y-80590000D02*
X159747776Y-80590000D01*
X159271000Y-81066776D02*
X159271000Y-81823600D01*
X159271000Y-81823600D02*
X159221000Y-81873600D01*
%TO.N,/433_N*%
X162978916Y-79940001D02*
X164050217Y-78868700D01*
X162779876Y-79940001D02*
X162978916Y-79940001D01*
%TO.N,/AGND*%
X163734250Y-80415196D02*
X163734250Y-80564867D01*
X163734250Y-80564867D02*
X163709117Y-80590000D01*
X164257711Y-80115900D02*
X164384711Y-79988900D01*
X164033546Y-80115900D02*
X164257711Y-80115900D01*
X163734250Y-80415196D02*
X164033546Y-80115900D01*
X163709117Y-80590000D02*
X162779876Y-80590000D01*
%TO.N,/868_N*%
X162779876Y-81239999D02*
X164144612Y-81239999D01*
X164144612Y-81239999D02*
X164379711Y-81004900D01*
%TO.N,/868_P*%
X164304875Y-83114464D02*
X164405111Y-83214700D01*
X162779876Y-83114464D02*
X164304875Y-83114464D01*
%TO.N,/AGND*%
X163710076Y-83989957D02*
X163484582Y-83764463D01*
X163710076Y-83989957D02*
X163950819Y-84230700D01*
X163950819Y-84230700D02*
X164435511Y-84230700D01*
X163484582Y-83764463D02*
X162779876Y-83764463D01*
%TO.N,/433_P*%
X164440000Y-85580000D02*
X163274462Y-84414462D01*
X163274462Y-84414462D02*
X162779876Y-84414462D01*
X165697411Y-85580000D02*
X164440000Y-85580000D01*
X165753711Y-85523700D02*
X165697411Y-85580000D01*
%TO.N,/433_N*%
X166917811Y-79959200D02*
X167605517Y-79959200D01*
X165827311Y-78868700D02*
X166917811Y-79959200D01*
X165753711Y-78868700D02*
X164050217Y-78868700D01*
X165753711Y-78868700D02*
X165827311Y-78868700D01*
%TO.N,Net-(C121_1-Pad2)*%
X170428111Y-84250686D02*
X169178097Y-85500700D01*
X168575517Y-80323906D02*
X168575517Y-79959200D01*
X170602711Y-82351100D02*
X168575517Y-80323906D01*
X170428111Y-82525700D02*
X170428111Y-84250686D01*
X169178097Y-85500700D02*
X168926111Y-85500700D01*
X170602711Y-82351100D02*
X170428111Y-82525700D01*
%TO.N,/AGND*%
X157394600Y-87747800D02*
X156244600Y-86597800D01*
X156096000Y-79973600D02*
X156096000Y-81373600D01*
X154762200Y-88292200D02*
X155230000Y-88760000D01*
X165753711Y-89107500D02*
X165753711Y-88469900D01*
X158863200Y-87999400D02*
X158318200Y-88544400D01*
X157596000Y-80873600D02*
X156596000Y-81873600D01*
X154762200Y-87881400D02*
X154762200Y-88292200D01*
X158318200Y-88544400D02*
X158315800Y-88544400D01*
X157596000Y-79973600D02*
X157596000Y-80873600D01*
X156596000Y-79973600D02*
X156596000Y-81873600D01*
X172278911Y-78670700D02*
X172916511Y-78670700D01*
X168395311Y-84748591D02*
X168395311Y-84151900D01*
X158863200Y-87636600D02*
X158863200Y-87999400D01*
X171646511Y-80194700D02*
X171646511Y-79303100D01*
X156096000Y-81373600D02*
X156596000Y-81873600D01*
X156244600Y-86597800D02*
X156069200Y-86597800D01*
X168415046Y-84768326D02*
X168395311Y-84748591D01*
X165753711Y-77908700D02*
X165753711Y-77118700D01*
X157833600Y-77671200D02*
X157886400Y-77724000D01*
X171646511Y-79303100D02*
X172278911Y-78670700D01*
X157519200Y-87747800D02*
X157394600Y-87747800D01*
X157073600Y-77671200D02*
X157833600Y-77671200D01*
X158315800Y-88544400D02*
X157519200Y-87747800D01*
%TO.N,/AVDD*%
X154696000Y-82373600D02*
X152754400Y-82373600D01*
X158496000Y-83667600D02*
X158750000Y-83921600D01*
X157096000Y-83773600D02*
X157096000Y-84915200D01*
X158496000Y-82873600D02*
X158496000Y-83667600D01*
X158496000Y-80873600D02*
X158496000Y-80111600D01*
X158648400Y-79959200D02*
X158902400Y-79959200D01*
X157096000Y-84915200D02*
X156819600Y-85191600D01*
X158496000Y-80111600D02*
X158648400Y-79959200D01*
X158496000Y-80873600D02*
X158496000Y-81373600D01*
%TO.N,Net-(C123_1-Pad2)*%
X172916511Y-79630700D02*
X172916511Y-80697700D01*
X172916511Y-80697700D02*
X173790000Y-80697700D01*
%TO.N,Net-(IC1-GDO2)*%
X153517600Y-81773600D02*
X153805315Y-81773600D01*
X153905315Y-81873600D02*
X154696000Y-81873600D01*
X153805315Y-81773600D02*
X153905315Y-81873600D01*
%TO.N,Net-(IC1-DCOUPL)*%
X154696000Y-82873600D02*
X154359200Y-83210400D01*
X154359200Y-83210400D02*
X152524400Y-83210400D01*
%TO.N,Net-(IC1-CSN)*%
X156096000Y-84432914D02*
X156096000Y-83773600D01*
X154575314Y-85953600D02*
X156096000Y-84432914D01*
X152857200Y-85953600D02*
X154575314Y-85953600D01*
%TO.N,Net-(IC1-XOSC_Q1)*%
X156596000Y-84498600D02*
X154762200Y-86332400D01*
X156300400Y-87979000D02*
X156069200Y-87747800D01*
X156596000Y-83773600D02*
X156596000Y-84498600D01*
X154762200Y-86332400D02*
X154762200Y-86921400D01*
X155588600Y-87747800D02*
X154762200Y-86921400D01*
X156069200Y-87747800D02*
X155588600Y-87747800D01*
%TO.N,Net-(IC1-XOSC_Q2)*%
X157596000Y-86521000D02*
X157596000Y-83773600D01*
X157598000Y-86676600D02*
X157519200Y-86597800D01*
X158863200Y-86676600D02*
X157598000Y-86676600D01*
X157519200Y-86597800D02*
X157596000Y-86521000D01*
%TO.N,/RF_P*%
D30*
X158496000Y-82373600D02*
X158571000Y-82448600D01*
%TO.N,/RF_N*%
X158496000Y-81873600D02*
X159221000Y-81873600D01*
%TO.N,Net-(IC1-RBIAS)*%
D29*
X157073600Y-79951200D02*
X157096000Y-79973600D01*
X157073600Y-78691200D02*
X157073600Y-79951200D01*
%TO.N,Net-(IC1-SI)*%
X155596000Y-78583200D02*
X155549600Y-78536800D01*
X155596000Y-79973600D02*
X155596000Y-78583200D01*
%TO.N,Net-(C124_1-Pad2)*%
X165753711Y-87509900D02*
X165753711Y-86493700D01*
%TO.N,/433_P*%
X165776711Y-85500700D02*
X165753711Y-85523700D01*
X167966111Y-85500700D02*
X165776711Y-85500700D01*
%TO.N,Net-(C122_1-Pad2)*%
X171646511Y-81154700D02*
X172403511Y-81154700D01*
X171572711Y-81228500D02*
X171646511Y-81154700D01*
X172403511Y-81154700D02*
X172916511Y-81667700D01*
X171572711Y-82351100D02*
X171572711Y-81228500D01*
%TO.N,Net-(C121_2-Pad1)*%
X166335311Y-81081300D02*
X166411711Y-81004900D01*
X166335311Y-82097100D02*
X166335311Y-81081300D01*
X165344711Y-79988900D02*
X165344711Y-80999900D01*
X166411711Y-81004900D02*
X165349711Y-81004900D01*
X165344711Y-80999900D02*
X165349711Y-81004900D01*
%TO.N,Net-(C122_2-Pad2)*%
X167351311Y-83214700D02*
X167351311Y-81035300D01*
X167351311Y-81035300D02*
X167381711Y-81004900D01*
%TO.N,Net-(C121_2-Pad2)*%
X165375311Y-83214500D02*
X165375111Y-83214700D01*
X167356311Y-84179700D02*
X166391311Y-83214700D01*
X167356311Y-84281500D02*
X167356311Y-84179700D01*
X165375111Y-83214700D02*
X166391311Y-83214700D01*
X165375311Y-82097100D02*
X165375311Y-83214500D01*
%TO.N,Net-(C123_2-Pad2)*%
X168372311Y-83168900D02*
X168395311Y-83191900D01*
X168395311Y-83191900D02*
X169109011Y-83191900D01*
X169109011Y-83191900D02*
X169690611Y-83773500D01*
X168372311Y-82097100D02*
X168372311Y-83168900D01*
%TO.N,Net-(C125_2-Pad2)*%
X172436511Y-83773500D02*
X172487311Y-83722700D01*
X171265611Y-83773500D02*
X172436511Y-83773500D01*
%TO.N,/868_N*%
X164379711Y-81004900D02*
X164379711Y-81180806D01*
%TO.N,Net-(C124_2-Pad2)*%
X165395511Y-84230700D02*
X166335511Y-84230700D01*
X166335511Y-84230700D02*
X166386311Y-84281500D01*
%TD*%
%TA.AperFunction,Conductor*%
%TO.N,/AGND*%
G36*
X183233032Y-67320648D02*
G01*
X183566929Y-67337052D01*
X183579037Y-67338245D01*
X183682146Y-67353539D01*
X183906699Y-67386849D01*
X183918617Y-67389219D01*
X184239951Y-67469709D01*
X184251588Y-67473240D01*
X184322806Y-67498722D01*
X184563467Y-67584832D01*
X184574688Y-67589479D01*
X184874163Y-67731120D01*
X184884871Y-67736844D01*
X185168988Y-67907137D01*
X185179106Y-67913897D01*
X185445170Y-68111224D01*
X185454576Y-68118944D01*
X185700013Y-68341395D01*
X185708604Y-68349986D01*
X185895755Y-68556475D01*
X185931055Y-68595423D01*
X185938775Y-68604829D01*
X186136102Y-68870893D01*
X186142862Y-68881011D01*
X186271776Y-69096092D01*
X186313148Y-69165116D01*
X186318885Y-69175848D01*
X186460514Y-69475297D01*
X186465170Y-69486540D01*
X186576759Y-69798411D01*
X186580292Y-69810055D01*
X186660777Y-70131369D01*
X186663151Y-70143305D01*
X186711754Y-70470962D01*
X186712947Y-70483071D01*
X186729351Y-70816966D01*
X186729500Y-70823051D01*
X186729500Y-81590748D01*
X186709815Y-81657787D01*
X186657011Y-81703542D01*
X186592898Y-81714106D01*
X186523347Y-81707001D01*
X181276662Y-81707001D01*
X181276644Y-81707002D01*
X181177292Y-81717151D01*
X181177289Y-81717152D01*
X181016305Y-81770497D01*
X181016294Y-81770502D01*
X180871959Y-81859530D01*
X180871955Y-81859533D01*
X180752032Y-81979456D01*
X180752029Y-81979460D01*
X180663001Y-82123795D01*
X180662996Y-82123806D01*
X180613060Y-82274504D01*
X180573287Y-82331949D01*
X180508771Y-82358772D01*
X180495354Y-82359500D01*
X179079511Y-82359500D01*
X179012472Y-82339815D01*
X178966717Y-82287011D01*
X178955511Y-82235501D01*
X178955510Y-82084331D01*
X178955509Y-82084324D01*
X178954128Y-82071478D01*
X178949102Y-82024718D01*
X178932220Y-81979456D01*
X178898808Y-81889872D01*
X178898804Y-81889865D01*
X178812558Y-81774656D01*
X178812555Y-81774653D01*
X178697346Y-81688407D01*
X178697339Y-81688403D01*
X178640878Y-81667345D01*
X178627886Y-81657619D01*
X178612539Y-81652351D01*
X178600495Y-81637115D01*
X178584944Y-81625474D01*
X178578822Y-81609699D01*
X178569210Y-81597539D01*
X178564314Y-81572310D01*
X178560803Y-81563261D01*
X178560211Y-81557222D01*
X178560211Y-81410654D01*
X178558433Y-81404016D01*
X178537552Y-81326092D01*
X178536558Y-81315944D01*
X178539100Y-81302572D01*
X178538350Y-81279649D01*
X178540500Y-81268842D01*
X178540500Y-81111158D01*
X178540500Y-81111155D01*
X178540499Y-81111153D01*
X178521238Y-81014322D01*
X178509737Y-80956503D01*
X178507195Y-80950367D01*
X178449397Y-80810827D01*
X178449390Y-80810814D01*
X178361789Y-80679711D01*
X178361786Y-80679707D01*
X178250292Y-80568213D01*
X178250288Y-80568210D01*
X178119185Y-80480609D01*
X178119172Y-80480602D01*
X177973501Y-80420264D01*
X177973489Y-80420261D01*
X177818845Y-80389500D01*
X177818842Y-80389500D01*
X177661158Y-80389500D01*
X177661155Y-80389500D01*
X177506510Y-80420261D01*
X177506498Y-80420264D01*
X177360827Y-80480602D01*
X177360814Y-80480609D01*
X177229711Y-80568210D01*
X177229707Y-80568213D01*
X177118213Y-80679707D01*
X177118210Y-80679711D01*
X177030609Y-80810814D01*
X177030602Y-80810827D01*
X176970264Y-80956498D01*
X176970261Y-80956510D01*
X176939500Y-81111153D01*
X176939500Y-81268846D01*
X176970261Y-81423489D01*
X176970264Y-81423501D01*
X177030602Y-81569172D01*
X177030609Y-81569185D01*
X177090365Y-81658616D01*
X177111243Y-81725294D01*
X177092758Y-81792674D01*
X177086530Y-81801818D01*
X177020615Y-81889869D01*
X177020613Y-81889872D01*
X176980375Y-81997758D01*
X176970320Y-82024718D01*
X176963911Y-82084328D01*
X176963911Y-82084335D01*
X176963911Y-82084336D01*
X176963911Y-82535671D01*
X176963912Y-82535677D01*
X176970320Y-82595288D01*
X176972103Y-82602832D01*
X176969806Y-82603374D01*
X176973957Y-82661351D01*
X176971501Y-82669717D01*
X176970319Y-82674717D01*
X176963912Y-82734317D01*
X176963911Y-82734336D01*
X176963911Y-83185670D01*
X176963912Y-83185676D01*
X176970320Y-83245287D01*
X176972103Y-83252831D01*
X176970189Y-83253283D01*
X176975441Y-83303234D01*
X176973524Y-83316123D01*
X176970320Y-83324716D01*
X176965285Y-83371537D01*
X176964916Y-83374026D01*
X176951258Y-83403557D01*
X176938814Y-83433599D01*
X176936596Y-83435258D01*
X176935587Y-83437442D01*
X176922919Y-83445497D01*
X176889717Y-83470352D01*
X176840824Y-83490604D01*
X176840816Y-83490608D01*
X176811600Y-83510130D01*
X176744922Y-83531007D01*
X176677542Y-83512522D01*
X176630852Y-83460542D01*
X176618710Y-83407027D01*
X176618710Y-83384328D01*
X176618709Y-83384322D01*
X176617602Y-83374026D01*
X176612302Y-83324716D01*
X176585659Y-83253283D01*
X176562008Y-83189870D01*
X176562004Y-83189863D01*
X176475758Y-83074655D01*
X176475759Y-83074655D01*
X176475757Y-83074653D01*
X176455201Y-83059265D01*
X176413332Y-83003333D01*
X176408348Y-82933641D01*
X176441833Y-82872318D01*
X176455196Y-82860738D01*
X176475757Y-82845347D01*
X176562007Y-82730132D01*
X176612302Y-82595284D01*
X176618711Y-82535674D01*
X176618710Y-82084329D01*
X176612302Y-82024718D01*
X176595420Y-81979456D01*
X176562008Y-81889872D01*
X176562004Y-81889865D01*
X176475758Y-81774656D01*
X176475755Y-81774653D01*
X176360546Y-81688407D01*
X176360539Y-81688403D01*
X176225693Y-81638109D01*
X176225694Y-81638109D01*
X176166094Y-81631702D01*
X176166092Y-81631701D01*
X176166084Y-81631701D01*
X176166075Y-81631701D01*
X175079740Y-81631701D01*
X175079734Y-81631702D01*
X175020125Y-81638110D01*
X174903826Y-81681486D01*
X174834134Y-81686470D01*
X174772812Y-81652984D01*
X174750305Y-81622176D01*
X174744778Y-81611468D01*
X174742494Y-81603605D01*
X174728553Y-81580032D01*
X174726922Y-81576872D01*
X174720945Y-81545938D01*
X174713196Y-81515399D01*
X174714310Y-81511603D01*
X174713667Y-81508272D01*
X174719774Y-81492994D01*
X174730379Y-81456880D01*
X174742494Y-81436395D01*
X174787643Y-81280993D01*
X174790500Y-81244690D01*
X174790500Y-80835310D01*
X174787643Y-80799007D01*
X174785404Y-80791302D01*
X174742495Y-80643609D01*
X174742494Y-80643606D01*
X174742494Y-80643605D01*
X174660117Y-80504313D01*
X174660115Y-80504311D01*
X174660112Y-80504307D01*
X174545692Y-80389887D01*
X174545684Y-80389881D01*
X174450184Y-80333403D01*
X174406395Y-80307506D01*
X174406394Y-80307505D01*
X174406393Y-80307505D01*
X174406390Y-80307504D01*
X174250997Y-80262357D01*
X174250983Y-80262355D01*
X174245468Y-80261921D01*
X174187852Y-80242419D01*
X174176816Y-80235280D01*
X174158716Y-80217180D01*
X174069502Y-80165673D01*
X174066789Y-80164106D01*
X174066785Y-80164104D01*
X174044034Y-80150969D01*
X174021785Y-80138123D01*
X173869057Y-80097199D01*
X173823791Y-80097199D01*
X173756752Y-80077514D01*
X173710997Y-80024710D01*
X173701053Y-79955552D01*
X173704715Y-79938604D01*
X173724153Y-79871697D01*
X173724154Y-79871691D01*
X173727011Y-79835390D01*
X173727011Y-79426010D01*
X173724154Y-79389707D01*
X173723187Y-79386380D01*
X173683509Y-79249809D01*
X173679005Y-79234305D01*
X173596628Y-79095013D01*
X173596626Y-79095011D01*
X173596623Y-79095007D01*
X173482203Y-78980587D01*
X173482195Y-78980581D01*
X173342904Y-78898205D01*
X173342901Y-78898204D01*
X173187508Y-78853057D01*
X173187502Y-78853056D01*
X173151208Y-78850200D01*
X173151201Y-78850200D01*
X172681821Y-78850200D01*
X172681813Y-78850200D01*
X172645519Y-78853056D01*
X172645513Y-78853057D01*
X172490120Y-78898204D01*
X172490117Y-78898205D01*
X172350826Y-78980581D01*
X172350818Y-78980587D01*
X172236398Y-79095007D01*
X172236392Y-79095015D01*
X172154016Y-79234306D01*
X172154015Y-79234309D01*
X172108868Y-79389702D01*
X172108867Y-79389708D01*
X172106011Y-79426002D01*
X172106011Y-79835397D01*
X172108867Y-79871691D01*
X172108868Y-79871697D01*
X172154015Y-80027090D01*
X172154016Y-80027093D01*
X172189946Y-80087848D01*
X172192204Y-80096749D01*
X172197942Y-80103921D01*
X172200660Y-80130078D01*
X172207129Y-80155572D01*
X172204407Y-80166125D01*
X172205165Y-80173416D01*
X172196675Y-80196104D01*
X172193901Y-80206864D01*
X172192034Y-80210560D01*
X172144580Y-80290803D01*
X172135186Y-80323134D01*
X172130001Y-80333403D01*
X172113651Y-80350840D01*
X172100781Y-80370992D01*
X172090185Y-80375866D01*
X172082211Y-80384372D01*
X172059027Y-80390202D01*
X172037307Y-80400196D01*
X172023154Y-80399224D01*
X172014451Y-80401413D01*
X172004057Y-80397912D01*
X171984720Y-80396585D01*
X171917502Y-80377056D01*
X171881208Y-80374200D01*
X171881201Y-80374200D01*
X171411821Y-80374200D01*
X171411813Y-80374200D01*
X171375519Y-80377056D01*
X171375513Y-80377057D01*
X171220120Y-80422204D01*
X171220117Y-80422205D01*
X171080826Y-80504581D01*
X171080818Y-80504587D01*
X170966398Y-80619007D01*
X170966392Y-80619015D01*
X170884016Y-80758306D01*
X170884015Y-80758309D01*
X170838868Y-80913702D01*
X170838867Y-80913708D01*
X170836011Y-80950002D01*
X170836011Y-81359395D01*
X170838961Y-81396871D01*
X170836101Y-81410481D01*
X170838081Y-81424247D01*
X170829060Y-81443998D01*
X170824597Y-81465248D01*
X170814833Y-81475152D01*
X170809056Y-81487803D01*
X170790789Y-81499542D01*
X170775546Y-81515005D01*
X170760774Y-81518831D01*
X170750278Y-81525577D01*
X170715343Y-81530600D01*
X170682808Y-81530600D01*
X170615769Y-81510915D01*
X170595127Y-81494281D01*
X169406110Y-80305264D01*
X169372625Y-80243941D01*
X169370174Y-80207848D01*
X169370252Y-80206864D01*
X169371017Y-80197140D01*
X169371017Y-79721260D01*
X169368126Y-79684525D01*
X169367861Y-79683613D01*
X169322450Y-79527307D01*
X169322448Y-79527304D01*
X169322448Y-79527303D01*
X169239107Y-79386380D01*
X169239105Y-79386378D01*
X169239102Y-79386374D01*
X169123342Y-79270614D01*
X169123334Y-79270608D01*
X168993777Y-79193989D01*
X168982414Y-79187269D01*
X168982413Y-79187268D01*
X168982412Y-79187268D01*
X168982409Y-79187266D01*
X168825196Y-79141591D01*
X168825190Y-79141590D01*
X168788464Y-79138700D01*
X168788457Y-79138700D01*
X168362577Y-79138700D01*
X168362569Y-79138700D01*
X168325843Y-79141590D01*
X168325837Y-79141591D01*
X168168622Y-79187267D01*
X168153634Y-79196131D01*
X168085909Y-79213310D01*
X168027400Y-79196131D01*
X168012411Y-79187267D01*
X167855196Y-79141591D01*
X167855190Y-79141590D01*
X167818464Y-79138700D01*
X167818457Y-79138700D01*
X167392577Y-79138700D01*
X167392569Y-79138700D01*
X167355843Y-79141590D01*
X167355837Y-79141591D01*
X167198624Y-79187267D01*
X167198613Y-79187271D01*
X167153528Y-79213934D01*
X167085804Y-79231115D01*
X167019542Y-79208955D01*
X167002728Y-79194882D01*
X166600530Y-78792684D01*
X166567045Y-78731361D01*
X166564211Y-78705003D01*
X166564211Y-78664017D01*
X166564210Y-78664002D01*
X166563960Y-78660827D01*
X166561354Y-78627707D01*
X166516205Y-78472305D01*
X166433828Y-78333013D01*
X166433826Y-78333011D01*
X166433823Y-78333007D01*
X166319403Y-78218587D01*
X166319395Y-78218581D01*
X166242418Y-78173057D01*
X166180106Y-78136206D01*
X166180105Y-78136205D01*
X166180104Y-78136205D01*
X166180101Y-78136204D01*
X166024708Y-78091057D01*
X166024702Y-78091056D01*
X165988408Y-78088200D01*
X165988401Y-78088200D01*
X165519021Y-78088200D01*
X165519013Y-78088200D01*
X165482719Y-78091056D01*
X165482713Y-78091057D01*
X165327320Y-78136204D01*
X165327317Y-78136205D01*
X165188026Y-78218581D01*
X165188018Y-78218587D01*
X165174725Y-78231881D01*
X165113402Y-78265366D01*
X165087044Y-78268200D01*
X163971157Y-78268200D01*
X163930236Y-78279164D01*
X163930236Y-78279165D01*
X163892968Y-78289151D01*
X163818431Y-78309123D01*
X163818426Y-78309126D01*
X163681507Y-78388175D01*
X163681499Y-78388181D01*
X163569695Y-78499986D01*
X162844298Y-79225382D01*
X162782975Y-79258867D01*
X162756617Y-79261701D01*
X162236705Y-79261701D01*
X162236699Y-79261702D01*
X162177092Y-79268109D01*
X162042247Y-79318403D01*
X162042240Y-79318407D01*
X161927031Y-79404653D01*
X161927028Y-79404656D01*
X161840782Y-79519865D01*
X161840778Y-79519872D01*
X161790486Y-79654714D01*
X161790485Y-79654718D01*
X161784076Y-79714328D01*
X161784076Y-79714335D01*
X161784076Y-79714336D01*
X161784076Y-80165671D01*
X161784077Y-80165672D01*
X161790484Y-80225284D01*
X161840778Y-80360129D01*
X161840782Y-80360136D01*
X161927028Y-80475345D01*
X161927029Y-80475346D01*
X161947585Y-80490735D01*
X161989455Y-80546669D01*
X161994438Y-80616361D01*
X161960951Y-80677683D01*
X161947585Y-80689265D01*
X161927029Y-80704653D01*
X161927028Y-80704654D01*
X161840782Y-80819863D01*
X161840778Y-80819870D01*
X161792107Y-80950367D01*
X161790485Y-80954716D01*
X161784076Y-81014326D01*
X161784076Y-81014333D01*
X161784076Y-81014334D01*
X161784076Y-81465669D01*
X161784077Y-81465675D01*
X161790484Y-81525282D01*
X161840778Y-81660127D01*
X161840782Y-81660134D01*
X161927028Y-81775343D01*
X161927031Y-81775346D01*
X162042240Y-81861592D01*
X162042247Y-81861596D01*
X162177093Y-81911890D01*
X162177092Y-81911890D01*
X162184020Y-81912634D01*
X162236703Y-81918299D01*
X163323048Y-81918298D01*
X163382659Y-81911890D01*
X163517507Y-81861595D01*
X163517510Y-81861592D01*
X163525290Y-81857345D01*
X163526730Y-81859982D01*
X163578098Y-81840816D01*
X163586959Y-81840499D01*
X164065551Y-81840499D01*
X164065555Y-81840500D01*
X164223669Y-81840500D01*
X164276182Y-81826428D01*
X164288510Y-81825648D01*
X164290701Y-81826143D01*
X164296348Y-81825400D01*
X164470811Y-81825400D01*
X164537850Y-81845085D01*
X164583605Y-81897889D01*
X164594811Y-81949400D01*
X164594811Y-82270200D01*
X164575126Y-82337239D01*
X164522322Y-82382994D01*
X164470811Y-82394200D01*
X164192163Y-82394200D01*
X164155437Y-82397090D01*
X164155431Y-82397091D01*
X163998218Y-82442766D01*
X163998215Y-82442768D01*
X163907028Y-82496696D01*
X163843907Y-82513964D01*
X163586959Y-82513964D01*
X163525883Y-82496030D01*
X163525290Y-82497118D01*
X163520289Y-82494387D01*
X163519920Y-82494279D01*
X163519290Y-82493842D01*
X163517504Y-82492866D01*
X163382658Y-82442572D01*
X163382659Y-82442572D01*
X163323059Y-82436165D01*
X163323057Y-82436164D01*
X163323049Y-82436164D01*
X163323040Y-82436164D01*
X162236705Y-82436164D01*
X162236699Y-82436165D01*
X162177092Y-82442572D01*
X162042247Y-82492866D01*
X162042240Y-82492870D01*
X161927031Y-82579116D01*
X161927028Y-82579119D01*
X161840782Y-82694328D01*
X161840778Y-82694335D01*
X161790486Y-82829177D01*
X161790485Y-82829181D01*
X161784076Y-82888791D01*
X161784076Y-82888798D01*
X161784076Y-82888799D01*
X161784076Y-83340134D01*
X161784077Y-83340140D01*
X161790484Y-83399747D01*
X161840778Y-83534592D01*
X161840782Y-83534599D01*
X161927028Y-83649808D01*
X161927029Y-83649809D01*
X161947585Y-83665198D01*
X161989455Y-83721132D01*
X161994438Y-83790824D01*
X161960951Y-83852146D01*
X161947585Y-83863728D01*
X161927029Y-83879116D01*
X161927028Y-83879117D01*
X161840782Y-83994326D01*
X161840778Y-83994333D01*
X161793301Y-84121628D01*
X161790485Y-84129179D01*
X161784076Y-84188789D01*
X161784076Y-84188796D01*
X161784076Y-84188797D01*
X161784076Y-84640132D01*
X161784077Y-84640138D01*
X161790484Y-84699745D01*
X161840778Y-84834590D01*
X161840782Y-84834597D01*
X161927028Y-84949806D01*
X161927031Y-84949809D01*
X162042240Y-85036055D01*
X162042247Y-85036059D01*
X162177093Y-85086353D01*
X162177092Y-85086353D01*
X162184020Y-85087097D01*
X162236703Y-85092762D01*
X163052163Y-85092761D01*
X163119202Y-85112445D01*
X163139844Y-85129080D01*
X164071284Y-86060520D01*
X164071286Y-86060521D01*
X164071290Y-86060524D01*
X164169998Y-86117512D01*
X164208216Y-86139577D01*
X164360943Y-86180501D01*
X164360945Y-86180501D01*
X164526654Y-86180501D01*
X164526670Y-86180500D01*
X164809211Y-86180500D01*
X164876250Y-86200185D01*
X164922005Y-86252989D01*
X164933211Y-86304500D01*
X164933211Y-86706647D01*
X164936101Y-86743373D01*
X164936102Y-86743379D01*
X164981777Y-86900592D01*
X164981780Y-86900597D01*
X165012125Y-86951910D01*
X165029306Y-87019634D01*
X165012126Y-87078147D01*
X164991218Y-87113501D01*
X164991215Y-87113510D01*
X164946068Y-87268902D01*
X164946067Y-87268908D01*
X164943211Y-87305202D01*
X164943211Y-87714597D01*
X164946067Y-87750891D01*
X164946068Y-87750897D01*
X164991215Y-87906290D01*
X164991216Y-87906293D01*
X165073592Y-88045584D01*
X165073598Y-88045592D01*
X165188018Y-88160012D01*
X165188022Y-88160015D01*
X165188024Y-88160017D01*
X165327316Y-88242394D01*
X165368298Y-88254300D01*
X165482713Y-88287542D01*
X165482716Y-88287542D01*
X165482718Y-88287543D01*
X165519021Y-88290400D01*
X165519029Y-88290400D01*
X165988393Y-88290400D01*
X165988401Y-88290400D01*
X166024704Y-88287543D01*
X166024706Y-88287542D01*
X166024708Y-88287542D01*
X166065686Y-88275636D01*
X166180106Y-88242394D01*
X166319398Y-88160017D01*
X166433828Y-88045587D01*
X166516205Y-87906295D01*
X166561354Y-87750893D01*
X166564211Y-87714590D01*
X166564211Y-87305210D01*
X166561354Y-87268907D01*
X166555129Y-87247482D01*
X166516206Y-87113509D01*
X166516205Y-87113506D01*
X166516205Y-87113505D01*
X166495295Y-87078147D01*
X166478113Y-87010426D01*
X166495294Y-86951911D01*
X166525642Y-86900597D01*
X166531250Y-86881297D01*
X166571319Y-86743379D01*
X166571320Y-86743373D01*
X166572465Y-86728825D01*
X166574211Y-86706640D01*
X166574211Y-86280760D01*
X166571320Y-86244025D01*
X166570823Y-86237708D01*
X166573000Y-86237536D01*
X166579266Y-86178004D01*
X166622985Y-86123502D01*
X166689230Y-86101289D01*
X166693933Y-86101200D01*
X167299445Y-86101200D01*
X167366484Y-86120885D01*
X167387127Y-86137520D01*
X167430418Y-86180812D01*
X167430422Y-86180815D01*
X167430424Y-86180817D01*
X167569716Y-86263194D01*
X167610698Y-86275100D01*
X167725113Y-86308342D01*
X167725116Y-86308342D01*
X167725118Y-86308343D01*
X167761421Y-86311200D01*
X167761429Y-86311200D01*
X168170793Y-86311200D01*
X168170801Y-86311200D01*
X168207104Y-86308343D01*
X168207106Y-86308342D01*
X168207108Y-86308342D01*
X168248086Y-86296436D01*
X168362506Y-86263194D01*
X168382990Y-86251079D01*
X168450712Y-86233896D01*
X168509230Y-86251079D01*
X168529716Y-86263194D01*
X168529718Y-86263194D01*
X168529719Y-86263195D01*
X168685113Y-86308342D01*
X168685116Y-86308342D01*
X168685118Y-86308343D01*
X168721421Y-86311200D01*
X168721429Y-86311200D01*
X169130793Y-86311200D01*
X169130801Y-86311200D01*
X169167104Y-86308343D01*
X169167106Y-86308342D01*
X169167108Y-86308342D01*
X169208086Y-86296436D01*
X169322506Y-86263194D01*
X169461798Y-86180817D01*
X169576228Y-86066387D01*
X169658605Y-85927095D01*
X169673338Y-85876381D01*
X169704730Y-85823300D01*
X170762723Y-84765307D01*
X170824044Y-84731824D01*
X170889405Y-84735283D01*
X170900426Y-84738936D01*
X170998937Y-84749000D01*
X170998942Y-84749000D01*
X171532280Y-84749000D01*
X171532285Y-84749000D01*
X171630796Y-84738936D01*
X171790398Y-84686049D01*
X171933502Y-84597781D01*
X172045164Y-84486118D01*
X172106483Y-84452636D01*
X172167437Y-84454726D01*
X172246313Y-84477642D01*
X172246316Y-84477642D01*
X172246318Y-84477643D01*
X172282621Y-84480500D01*
X172282629Y-84480500D01*
X172691993Y-84480500D01*
X172692001Y-84480500D01*
X172728304Y-84477643D01*
X172728306Y-84477642D01*
X172728308Y-84477642D01*
X172770479Y-84465390D01*
X172883706Y-84432494D01*
X172904190Y-84420379D01*
X172971912Y-84403196D01*
X173030430Y-84420379D01*
X173050916Y-84432494D01*
X173050918Y-84432494D01*
X173050919Y-84432495D01*
X173206313Y-84477642D01*
X173206316Y-84477642D01*
X173206318Y-84477643D01*
X173242621Y-84480500D01*
X173242629Y-84480500D01*
X173651993Y-84480500D01*
X173652001Y-84480500D01*
X173688304Y-84477643D01*
X173688306Y-84477642D01*
X173688308Y-84477642D01*
X173730479Y-84465390D01*
X173843706Y-84432494D01*
X173982998Y-84350117D01*
X174026295Y-84306820D01*
X174087618Y-84273334D01*
X174113977Y-84270500D01*
X174967217Y-84270500D01*
X175010551Y-84278319D01*
X175020119Y-84281887D01*
X175020122Y-84281887D01*
X175020128Y-84281890D01*
X175079738Y-84288299D01*
X176166083Y-84288298D01*
X176225694Y-84281890D01*
X176270155Y-84265306D01*
X176339846Y-84260323D01*
X176401169Y-84293808D01*
X176434654Y-84355131D01*
X176435105Y-84357297D01*
X176450261Y-84433491D01*
X176450264Y-84433501D01*
X176510602Y-84579172D01*
X176510609Y-84579185D01*
X176598210Y-84710288D01*
X176598213Y-84710292D01*
X176709707Y-84821786D01*
X176709711Y-84821789D01*
X176840814Y-84909390D01*
X176840827Y-84909397D01*
X176938392Y-84949809D01*
X176986503Y-84969737D01*
X177141153Y-85000499D01*
X177141156Y-85000500D01*
X177141158Y-85000500D01*
X177298844Y-85000500D01*
X177298845Y-85000499D01*
X177453497Y-84969737D01*
X177599179Y-84909394D01*
X177730289Y-84821789D01*
X177841789Y-84710289D01*
X177929394Y-84579179D01*
X177989737Y-84433497D01*
X177995764Y-84403196D01*
X177998766Y-84388107D01*
X178031151Y-84326196D01*
X178091867Y-84291622D01*
X178120383Y-84288298D01*
X178502882Y-84288298D01*
X178502883Y-84288298D01*
X178562494Y-84281890D01*
X178697342Y-84231595D01*
X178812557Y-84145345D01*
X178898807Y-84030130D01*
X178949102Y-83895282D01*
X178955511Y-83835672D01*
X178955510Y-83684499D01*
X178975194Y-83617461D01*
X179027998Y-83571706D01*
X179079510Y-83560500D01*
X180497010Y-83560500D01*
X180564049Y-83580185D01*
X180609804Y-83632989D01*
X180614716Y-83645496D01*
X180662996Y-83791195D01*
X180663001Y-83791206D01*
X180752029Y-83935541D01*
X180752032Y-83935545D01*
X180871955Y-84055468D01*
X180871959Y-84055471D01*
X181016294Y-84144499D01*
X181016297Y-84144500D01*
X181016303Y-84144504D01*
X181177292Y-84197850D01*
X181276655Y-84208001D01*
X186523344Y-84208000D01*
X186592899Y-84200895D01*
X186661591Y-84213665D01*
X186712476Y-84261546D01*
X186729500Y-84324253D01*
X186729500Y-88726948D01*
X186729351Y-88733033D01*
X186712947Y-89066928D01*
X186711754Y-89079037D01*
X186663151Y-89406694D01*
X186660777Y-89418630D01*
X186580292Y-89739944D01*
X186576759Y-89751588D01*
X186465170Y-90063459D01*
X186460514Y-90074702D01*
X186318885Y-90374151D01*
X186313148Y-90384883D01*
X186142862Y-90668988D01*
X186136102Y-90679106D01*
X185938775Y-90945170D01*
X185931055Y-90954576D01*
X185708611Y-91200006D01*
X185700006Y-91208611D01*
X185454576Y-91431055D01*
X185445170Y-91438775D01*
X185179106Y-91636102D01*
X185168988Y-91642862D01*
X184884883Y-91813148D01*
X184874151Y-91818885D01*
X184574702Y-91960514D01*
X184563459Y-91965170D01*
X184251588Y-92076759D01*
X184239944Y-92080292D01*
X183918630Y-92160777D01*
X183906694Y-92163151D01*
X183579037Y-92211754D01*
X183566928Y-92212947D01*
X183251989Y-92228419D01*
X183233031Y-92229351D01*
X183226949Y-92229500D01*
X147563051Y-92229500D01*
X147556968Y-92229351D01*
X147536900Y-92228365D01*
X147223071Y-92212947D01*
X147210962Y-92211754D01*
X146883305Y-92163151D01*
X146871369Y-92160777D01*
X146550055Y-92080292D01*
X146538411Y-92076759D01*
X146226540Y-91965170D01*
X146215301Y-91960515D01*
X145915844Y-91818883D01*
X145905121Y-91813150D01*
X145621011Y-91642862D01*
X145610893Y-91636102D01*
X145344829Y-91438775D01*
X145335423Y-91431055D01*
X145296475Y-91395755D01*
X145089986Y-91208604D01*
X145081395Y-91200013D01*
X144858944Y-90954576D01*
X144851224Y-90945170D01*
X144796544Y-90871443D01*
X144653895Y-90679103D01*
X144647137Y-90668988D01*
X144593862Y-90580104D01*
X144476844Y-90384871D01*
X144471120Y-90374163D01*
X144329479Y-90074688D01*
X144324829Y-90063459D01*
X144213240Y-89751588D01*
X144209707Y-89739943D01*
X144141832Y-89468971D01*
X144135505Y-89443713D01*
X151049500Y-89443713D01*
X151049500Y-89656287D01*
X151082754Y-89866243D01*
X151084116Y-89870436D01*
X151148444Y-90068414D01*
X151244951Y-90257820D01*
X151369890Y-90429786D01*
X151520213Y-90580109D01*
X151692179Y-90705048D01*
X151692181Y-90705049D01*
X151692184Y-90705051D01*
X151881588Y-90801557D01*
X152083757Y-90867246D01*
X152293713Y-90900500D01*
X152293714Y-90900500D01*
X152506286Y-90900500D01*
X152506287Y-90900500D01*
X152716243Y-90867246D01*
X152918412Y-90801557D01*
X153107816Y-90705051D01*
X153129789Y-90689086D01*
X153279786Y-90580109D01*
X153279788Y-90580106D01*
X153279792Y-90580104D01*
X153430104Y-90429792D01*
X153430106Y-90429788D01*
X153430109Y-90429786D01*
X153555048Y-90257820D01*
X153555047Y-90257820D01*
X153555051Y-90257816D01*
X153651557Y-90068412D01*
X153717246Y-89866243D01*
X153750500Y-89656287D01*
X153750500Y-89447910D01*
X176269500Y-89447910D01*
X176269500Y-89660483D01*
X176302088Y-89866239D01*
X176302754Y-89870440D01*
X176367079Y-90068412D01*
X176368444Y-90072611D01*
X176464951Y-90262017D01*
X176589890Y-90433983D01*
X176740213Y-90584306D01*
X176912179Y-90709245D01*
X176912181Y-90709246D01*
X176912184Y-90709248D01*
X177101588Y-90805754D01*
X177303757Y-90871443D01*
X177513713Y-90904697D01*
X177513714Y-90904697D01*
X177726286Y-90904697D01*
X177726287Y-90904697D01*
X177936243Y-90871443D01*
X178138412Y-90805754D01*
X178327816Y-90709248D01*
X178383230Y-90668988D01*
X178499786Y-90584306D01*
X178499788Y-90584303D01*
X178499792Y-90584301D01*
X178650104Y-90433989D01*
X178650106Y-90433985D01*
X178650109Y-90433983D01*
X178775048Y-90262017D01*
X178775047Y-90262017D01*
X178775051Y-90262013D01*
X178871557Y-90072609D01*
X178937246Y-89870440D01*
X178970500Y-89660484D01*
X178970500Y-89447910D01*
X178937246Y-89237954D01*
X178871557Y-89035785D01*
X178775051Y-88846381D01*
X178775049Y-88846378D01*
X178775048Y-88846376D01*
X178650109Y-88674410D01*
X178499786Y-88524087D01*
X178327820Y-88399148D01*
X178138414Y-88302641D01*
X178138413Y-88302640D01*
X178138412Y-88302640D01*
X177936243Y-88236951D01*
X177936241Y-88236950D01*
X177936240Y-88236950D01*
X177774957Y-88211405D01*
X177726287Y-88203697D01*
X177513713Y-88203697D01*
X177465042Y-88211405D01*
X177303760Y-88236950D01*
X177101585Y-88302641D01*
X176912179Y-88399148D01*
X176740213Y-88524087D01*
X176589890Y-88674410D01*
X176464951Y-88846376D01*
X176368444Y-89035782D01*
X176302753Y-89237957D01*
X176269500Y-89447910D01*
X153750500Y-89447910D01*
X153750500Y-89443713D01*
X153717246Y-89233757D01*
X153651557Y-89031588D01*
X153555051Y-88842184D01*
X153555049Y-88842181D01*
X153555048Y-88842179D01*
X153430109Y-88670213D01*
X153279786Y-88519890D01*
X153107820Y-88394951D01*
X152918414Y-88298444D01*
X152918413Y-88298443D01*
X152918412Y-88298443D01*
X152716243Y-88232754D01*
X152716241Y-88232753D01*
X152716240Y-88232753D01*
X152554957Y-88207208D01*
X152506287Y-88199500D01*
X152293713Y-88199500D01*
X152245042Y-88207208D01*
X152083760Y-88232753D01*
X151881585Y-88298444D01*
X151692179Y-88394951D01*
X151520213Y-88519890D01*
X151369890Y-88670213D01*
X151244951Y-88842179D01*
X151148444Y-89031585D01*
X151082753Y-89233760D01*
X151069412Y-89317993D01*
X151049500Y-89443713D01*
X144135505Y-89443713D01*
X144129219Y-89418617D01*
X144126848Y-89406694D01*
X144078245Y-89079037D01*
X144077052Y-89066927D01*
X144060649Y-88733032D01*
X144060500Y-88726948D01*
X144060500Y-87303613D01*
X144080185Y-87236574D01*
X144132989Y-87190819D01*
X144202147Y-87180875D01*
X144265703Y-87209900D01*
X144300682Y-87260280D01*
X144346202Y-87382328D01*
X144346206Y-87382335D01*
X144432452Y-87497544D01*
X144432455Y-87497547D01*
X144547664Y-87583793D01*
X144547671Y-87583797D01*
X144682517Y-87634091D01*
X144682516Y-87634091D01*
X144689444Y-87634835D01*
X144742127Y-87640500D01*
X146537872Y-87640499D01*
X146597483Y-87634091D01*
X146732331Y-87583796D01*
X146835690Y-87506421D01*
X146901152Y-87482004D01*
X146969425Y-87496855D01*
X146984303Y-87506416D01*
X147071268Y-87571518D01*
X147087668Y-87583795D01*
X147087671Y-87583797D01*
X147222517Y-87634091D01*
X147222516Y-87634091D01*
X147229444Y-87634835D01*
X147282127Y-87640500D01*
X149077872Y-87640499D01*
X149137483Y-87634091D01*
X149272331Y-87583796D01*
X149387546Y-87497546D01*
X149473796Y-87382331D01*
X149524091Y-87247483D01*
X149530500Y-87187873D01*
X149530499Y-86249095D01*
X149536737Y-86227849D01*
X149538317Y-86205762D01*
X149546388Y-86194979D01*
X149550183Y-86182057D01*
X149566919Y-86167555D01*
X149580189Y-86149829D01*
X149592807Y-86145122D01*
X149602987Y-86136302D01*
X149624905Y-86133150D01*
X149645653Y-86125412D01*
X149658813Y-86128274D01*
X149672146Y-86126358D01*
X149692289Y-86135557D01*
X149713926Y-86140264D01*
X149731651Y-86153532D01*
X149735702Y-86155383D01*
X149742180Y-86161415D01*
X149898739Y-86317974D01*
X149898749Y-86317985D01*
X149903079Y-86322315D01*
X149903080Y-86322316D01*
X150014884Y-86434120D01*
X150014886Y-86434121D01*
X150014887Y-86434122D01*
X150017461Y-86435608D01*
X150080339Y-86471910D01*
X150151815Y-86513177D01*
X150304543Y-86554101D01*
X150304546Y-86554101D01*
X150470253Y-86554101D01*
X150470269Y-86554100D01*
X152778143Y-86554100D01*
X153830355Y-86554100D01*
X153897394Y-86573785D01*
X153943149Y-86626589D01*
X153953973Y-86687829D01*
X153951700Y-86716704D01*
X153951700Y-87126097D01*
X153954556Y-87162391D01*
X153954557Y-87162397D01*
X153999704Y-87317790D01*
X153999705Y-87317793D01*
X153999706Y-87317795D01*
X154004983Y-87326718D01*
X154082081Y-87457084D01*
X154082087Y-87457092D01*
X154196507Y-87571512D01*
X154196511Y-87571515D01*
X154196513Y-87571517D01*
X154335805Y-87653894D01*
X154376787Y-87665800D01*
X154491202Y-87699042D01*
X154491205Y-87699042D01*
X154491207Y-87699043D01*
X154527510Y-87701900D01*
X154642103Y-87701900D01*
X154709142Y-87721585D01*
X154729784Y-87738219D01*
X155062699Y-88071134D01*
X155096184Y-88132457D01*
X155097957Y-88142629D01*
X155109208Y-88228082D01*
X155109209Y-88228087D01*
X155169915Y-88374648D01*
X155169917Y-88374651D01*
X155266491Y-88500507D01*
X155266492Y-88500508D01*
X155392348Y-88597082D01*
X155392351Y-88597084D01*
X155484771Y-88635364D01*
X155538916Y-88657792D01*
X155656710Y-88673300D01*
X155656717Y-88673300D01*
X156481683Y-88673300D01*
X156481690Y-88673300D01*
X156599484Y-88657792D01*
X156746050Y-88597083D01*
X156871908Y-88500508D01*
X156968483Y-88374650D01*
X157029192Y-88228084D01*
X157044700Y-88110290D01*
X157044700Y-87647300D01*
X157064385Y-87580261D01*
X157117189Y-87534506D01*
X157168700Y-87523300D01*
X157931683Y-87523300D01*
X157931690Y-87523300D01*
X158049484Y-87507792D01*
X158178764Y-87454243D01*
X158196048Y-87447084D01*
X158196051Y-87447082D01*
X158262320Y-87396231D01*
X158327486Y-87371037D01*
X158395931Y-87385074D01*
X158400916Y-87387869D01*
X158436805Y-87409094D01*
X158454098Y-87414118D01*
X158592202Y-87454242D01*
X158592205Y-87454242D01*
X158592207Y-87454243D01*
X158628510Y-87457100D01*
X158628518Y-87457100D01*
X159097882Y-87457100D01*
X159097890Y-87457100D01*
X159134193Y-87454243D01*
X159134195Y-87454242D01*
X159134197Y-87454242D01*
X159175175Y-87442336D01*
X159289595Y-87409094D01*
X159428887Y-87326717D01*
X159543317Y-87212287D01*
X159625694Y-87072995D01*
X159670843Y-86917593D01*
X159673700Y-86881290D01*
X159673700Y-86471910D01*
X159670843Y-86435607D01*
X159670411Y-86434121D01*
X159625695Y-86280209D01*
X159625694Y-86280206D01*
X159625694Y-86280205D01*
X159543317Y-86140913D01*
X159543315Y-86140911D01*
X159543312Y-86140907D01*
X159428892Y-86026487D01*
X159428884Y-86026481D01*
X159289593Y-85944105D01*
X159289590Y-85944104D01*
X159134197Y-85898957D01*
X159134191Y-85898956D01*
X159097897Y-85896100D01*
X159097890Y-85896100D01*
X158628510Y-85896100D01*
X158628502Y-85896100D01*
X158592208Y-85898956D01*
X158592202Y-85898957D01*
X158486360Y-85929708D01*
X158416491Y-85929509D01*
X158367008Y-85901143D01*
X158359581Y-85894188D01*
X158321908Y-85845092D01*
X158240187Y-85782385D01*
X158235743Y-85778223D01*
X158220966Y-85753153D01*
X158203811Y-85729659D01*
X158202422Y-85721694D01*
X158200264Y-85718032D01*
X158200539Y-85710889D01*
X158196500Y-85687712D01*
X158196500Y-84744367D01*
X158216185Y-84677328D01*
X158268989Y-84631573D01*
X158338147Y-84621629D01*
X158367952Y-84629806D01*
X158512995Y-84689884D01*
X158516503Y-84691337D01*
X158558773Y-84699745D01*
X158671849Y-84722238D01*
X158688605Y-84731002D01*
X158707085Y-84735023D01*
X158732123Y-84753767D01*
X158733760Y-84754623D01*
X158735339Y-84756174D01*
X158758001Y-84778836D01*
X158758011Y-84778847D01*
X158762341Y-84783177D01*
X158762342Y-84783178D01*
X158874146Y-84894982D01*
X158951254Y-84939500D01*
X159011077Y-84974039D01*
X159163805Y-85014962D01*
X159635993Y-85014962D01*
X159697068Y-85032895D01*
X159697662Y-85031808D01*
X159702662Y-85034538D01*
X159703032Y-85034647D01*
X159703661Y-85035083D01*
X159705447Y-85036059D01*
X159840293Y-85086353D01*
X159840292Y-85086353D01*
X159847220Y-85087097D01*
X159899903Y-85092762D01*
X160986248Y-85092761D01*
X161045859Y-85086353D01*
X161180707Y-85036058D01*
X161295922Y-84949808D01*
X161382172Y-84834593D01*
X161432467Y-84699745D01*
X161438876Y-84640135D01*
X161438875Y-84188790D01*
X161432467Y-84129179D01*
X161432466Y-84129175D01*
X161430683Y-84121628D01*
X161432978Y-84121085D01*
X161428833Y-84063099D01*
X161431283Y-84054752D01*
X161432465Y-84049752D01*
X161432465Y-84049751D01*
X161432467Y-84049746D01*
X161438876Y-83990136D01*
X161438875Y-83538791D01*
X161432467Y-83479180D01*
X161432467Y-83479179D01*
X161430683Y-83471629D01*
X161432978Y-83471086D01*
X161428833Y-83413100D01*
X161431283Y-83404753D01*
X161432465Y-83399753D01*
X161432465Y-83399752D01*
X161432467Y-83399747D01*
X161438876Y-83340137D01*
X161438875Y-82888792D01*
X161433160Y-82835625D01*
X161432467Y-82829180D01*
X161382173Y-82694335D01*
X161382169Y-82694328D01*
X161295923Y-82579119D01*
X161295920Y-82579116D01*
X161180711Y-82492870D01*
X161180704Y-82492866D01*
X161045859Y-82442572D01*
X160986125Y-82436150D01*
X160973681Y-82430995D01*
X160960223Y-82430515D01*
X160942034Y-82417886D01*
X160921575Y-82409412D01*
X160912643Y-82397480D01*
X160902830Y-82390667D01*
X160884821Y-82360313D01*
X160884484Y-82359500D01*
X160865565Y-82313826D01*
X160858097Y-82244358D01*
X160877023Y-82197488D01*
X160949394Y-82089179D01*
X160949395Y-82089175D01*
X160949397Y-82089173D01*
X160997965Y-81971917D01*
X161041805Y-81917513D01*
X161069193Y-81903187D01*
X161104911Y-81889865D01*
X161180707Y-81861595D01*
X161295922Y-81775345D01*
X161382172Y-81660130D01*
X161432467Y-81525282D01*
X161438876Y-81465672D01*
X161438875Y-81014327D01*
X161432659Y-80956498D01*
X161432467Y-80954715D01*
X161430683Y-80947165D01*
X161432978Y-80946622D01*
X161428833Y-80888636D01*
X161431283Y-80880289D01*
X161432465Y-80875289D01*
X161432465Y-80875288D01*
X161432467Y-80875283D01*
X161438876Y-80815673D01*
X161438875Y-80364328D01*
X161432467Y-80304717D01*
X161432467Y-80304716D01*
X161430683Y-80297166D01*
X161432978Y-80296623D01*
X161428833Y-80238637D01*
X161431283Y-80230290D01*
X161432465Y-80225290D01*
X161432465Y-80225289D01*
X161432467Y-80225284D01*
X161438876Y-80165674D01*
X161438875Y-79714329D01*
X161432467Y-79654718D01*
X161422425Y-79627795D01*
X161382173Y-79519872D01*
X161382169Y-79519865D01*
X161295923Y-79404656D01*
X161295920Y-79404653D01*
X161180711Y-79318407D01*
X161180702Y-79318402D01*
X161167957Y-79313649D01*
X161112023Y-79271779D01*
X161087605Y-79206315D01*
X161089671Y-79173279D01*
X161100500Y-79118842D01*
X161100500Y-78961158D01*
X161100500Y-78961155D01*
X161100499Y-78961153D01*
X161093587Y-78926404D01*
X161069737Y-78806503D01*
X161064013Y-78792684D01*
X161009397Y-78660827D01*
X161009390Y-78660814D01*
X160921789Y-78529711D01*
X160921786Y-78529707D01*
X160810292Y-78418213D01*
X160810288Y-78418210D01*
X160679185Y-78330609D01*
X160679172Y-78330602D01*
X160533501Y-78270264D01*
X160533489Y-78270261D01*
X160378845Y-78239500D01*
X160378842Y-78239500D01*
X160221158Y-78239500D01*
X160221155Y-78239500D01*
X160066510Y-78270261D01*
X160066498Y-78270264D01*
X159920827Y-78330602D01*
X159920814Y-78330609D01*
X159789711Y-78418210D01*
X159789707Y-78418213D01*
X159678213Y-78529707D01*
X159678210Y-78529711D01*
X159590609Y-78660814D01*
X159590602Y-78660827D01*
X159530264Y-78806498D01*
X159530261Y-78806510D01*
X159499500Y-78961153D01*
X159499500Y-79118846D01*
X159529921Y-79271779D01*
X159530263Y-79273497D01*
X159556736Y-79337410D01*
X159559577Y-79344267D01*
X159560781Y-79355472D01*
X159566182Y-79365363D01*
X159564449Y-79389585D01*
X159567046Y-79413737D01*
X159561871Y-79425624D01*
X159561197Y-79435055D01*
X159544283Y-79466031D01*
X159510515Y-79511139D01*
X159454581Y-79553010D01*
X159384889Y-79557994D01*
X159323566Y-79524509D01*
X159308145Y-79505717D01*
X159296898Y-79488885D01*
X159281628Y-79466031D01*
X159270190Y-79448912D01*
X159270186Y-79448907D01*
X159158692Y-79337413D01*
X159158688Y-79337410D01*
X159027585Y-79249809D01*
X159027572Y-79249802D01*
X158881901Y-79189464D01*
X158881889Y-79189461D01*
X158727245Y-79158700D01*
X158727242Y-79158700D01*
X158569558Y-79158700D01*
X158569555Y-79158700D01*
X158414910Y-79189461D01*
X158414898Y-79189464D01*
X158269227Y-79249802D01*
X158269214Y-79249809D01*
X158138111Y-79337410D01*
X158138107Y-79337413D01*
X158026613Y-79448907D01*
X158026610Y-79448911D01*
X157973601Y-79528245D01*
X157919989Y-79573050D01*
X157850664Y-79581757D01*
X157787636Y-79551602D01*
X157750917Y-79492159D01*
X157748533Y-79481723D01*
X157746499Y-79470632D01*
X157746499Y-79450728D01*
X157740091Y-79391117D01*
X157724006Y-79347992D01*
X157722038Y-79337259D01*
X157724582Y-79312926D01*
X157722838Y-79288533D01*
X157728152Y-79278800D01*
X157729306Y-79267768D01*
X157744600Y-79248675D01*
X157756319Y-79227213D01*
X157764735Y-79218798D01*
X157846469Y-79080593D01*
X157881169Y-78961155D01*
X157891264Y-78926408D01*
X157891265Y-78926402D01*
X157894099Y-78890388D01*
X157894100Y-78890381D01*
X157894099Y-78492020D01*
X157891265Y-78455996D01*
X157846469Y-78301807D01*
X157764735Y-78163602D01*
X157764733Y-78163600D01*
X157764730Y-78163596D01*
X157651203Y-78050069D01*
X157651195Y-78050063D01*
X157512993Y-77968331D01*
X157512988Y-77968329D01*
X157358808Y-77923535D01*
X157358802Y-77923534D01*
X157322781Y-77920700D01*
X156824430Y-77920700D01*
X156824408Y-77920701D01*
X156788394Y-77923535D01*
X156634211Y-77968329D01*
X156634206Y-77968331D01*
X156496004Y-78050063D01*
X156496000Y-78050066D01*
X156417684Y-78128382D01*
X156356360Y-78161866D01*
X156286669Y-78156882D01*
X156230735Y-78115010D01*
X156226912Y-78109607D01*
X156171389Y-78026511D01*
X156171387Y-78026508D01*
X156059892Y-77915013D01*
X156059888Y-77915010D01*
X155928785Y-77827409D01*
X155928772Y-77827402D01*
X155783101Y-77767064D01*
X155783089Y-77767061D01*
X155628445Y-77736300D01*
X155628442Y-77736300D01*
X155470758Y-77736300D01*
X155470755Y-77736300D01*
X155316110Y-77767061D01*
X155316098Y-77767064D01*
X155170427Y-77827402D01*
X155170414Y-77827409D01*
X155039311Y-77915010D01*
X155039306Y-77915014D01*
X155003722Y-77950598D01*
X154942399Y-77984083D01*
X154872707Y-77979097D01*
X154828361Y-77950597D01*
X152646119Y-75768355D01*
X152646117Y-75768352D01*
X152527246Y-75649481D01*
X152527245Y-75649480D01*
X152440433Y-75599360D01*
X152440433Y-75599359D01*
X152440429Y-75599358D01*
X152390314Y-75570423D01*
X152237586Y-75529499D01*
X152079472Y-75529499D01*
X152071876Y-75529499D01*
X152071860Y-75529500D01*
X149654499Y-75529500D01*
X149587460Y-75509815D01*
X149541705Y-75457011D01*
X149530499Y-75405500D01*
X149530499Y-75232129D01*
X149530498Y-75232123D01*
X149524091Y-75172516D01*
X149473797Y-75037671D01*
X149473795Y-75037668D01*
X149396421Y-74934309D01*
X149372004Y-74868848D01*
X149386855Y-74800575D01*
X149396416Y-74785696D01*
X149473796Y-74682331D01*
X149524091Y-74547483D01*
X149530500Y-74487873D01*
X149530499Y-72692128D01*
X149524091Y-72632517D01*
X149473796Y-72497669D01*
X149473795Y-72497668D01*
X149473793Y-72497664D01*
X149387547Y-72382455D01*
X149387544Y-72382452D01*
X149272335Y-72296206D01*
X149272328Y-72296202D01*
X149137482Y-72245908D01*
X149137483Y-72245908D01*
X149077883Y-72239501D01*
X149077881Y-72239500D01*
X149077873Y-72239500D01*
X149077865Y-72239500D01*
X147619103Y-72239500D01*
X147552064Y-72219815D01*
X147506309Y-72167011D01*
X147496365Y-72097853D01*
X147504542Y-72068048D01*
X147545470Y-71969236D01*
X147545472Y-71969232D01*
X147576235Y-71814577D01*
X147576235Y-71656893D01*
X147576235Y-71656890D01*
X147576234Y-71656888D01*
X147565014Y-71600483D01*
X147545472Y-71502238D01*
X147514015Y-71426293D01*
X147496378Y-71383713D01*
X151049500Y-71383713D01*
X151049500Y-71596287D01*
X151082754Y-71806243D01*
X151084116Y-71810436D01*
X151148444Y-72008414D01*
X151244951Y-72197820D01*
X151369890Y-72369786D01*
X151520213Y-72520109D01*
X151692179Y-72645048D01*
X151692181Y-72645049D01*
X151692184Y-72645051D01*
X151881588Y-72741557D01*
X152083757Y-72807246D01*
X152293713Y-72840500D01*
X152293714Y-72840500D01*
X152506286Y-72840500D01*
X152506287Y-72840500D01*
X152716243Y-72807246D01*
X152918412Y-72741557D01*
X153107816Y-72645051D01*
X153129789Y-72629086D01*
X153279786Y-72520109D01*
X153279788Y-72520106D01*
X153279792Y-72520104D01*
X153430104Y-72369792D01*
X153430106Y-72369788D01*
X153430109Y-72369786D01*
X153555048Y-72197820D01*
X153555047Y-72197820D01*
X153555051Y-72197816D01*
X153651557Y-72008412D01*
X153717246Y-71806243D01*
X153750500Y-71596287D01*
X153750500Y-71387910D01*
X176269500Y-71387910D01*
X176269500Y-71600483D01*
X176302088Y-71806239D01*
X176302754Y-71810440D01*
X176367079Y-72008412D01*
X176368444Y-72012611D01*
X176464951Y-72202017D01*
X176589890Y-72373983D01*
X176740213Y-72524306D01*
X176912179Y-72649245D01*
X176912181Y-72649246D01*
X176912184Y-72649248D01*
X177101588Y-72745754D01*
X177303757Y-72811443D01*
X177513713Y-72844697D01*
X177513714Y-72844697D01*
X177726286Y-72844697D01*
X177726287Y-72844697D01*
X177936243Y-72811443D01*
X178138412Y-72745754D01*
X178327816Y-72649248D01*
X178350846Y-72632516D01*
X178499786Y-72524306D01*
X178499788Y-72524303D01*
X178499792Y-72524301D01*
X178650104Y-72373989D01*
X178650106Y-72373985D01*
X178650109Y-72373983D01*
X178775048Y-72202017D01*
X178775047Y-72202017D01*
X178775051Y-72202013D01*
X178871557Y-72012609D01*
X178937246Y-71810440D01*
X178970500Y-71600484D01*
X178970500Y-71387910D01*
X178937246Y-71177954D01*
X178871557Y-70975785D01*
X178775051Y-70786381D01*
X178775049Y-70786378D01*
X178775048Y-70786376D01*
X178650109Y-70614410D01*
X178499786Y-70464087D01*
X178327820Y-70339148D01*
X178138414Y-70242641D01*
X178138413Y-70242640D01*
X178138412Y-70242640D01*
X177936243Y-70176951D01*
X177936241Y-70176950D01*
X177936240Y-70176950D01*
X177774957Y-70151405D01*
X177726287Y-70143697D01*
X177513713Y-70143697D01*
X177465042Y-70151405D01*
X177303760Y-70176950D01*
X177101585Y-70242641D01*
X176912179Y-70339148D01*
X176740213Y-70464087D01*
X176589890Y-70614410D01*
X176464951Y-70786376D01*
X176368444Y-70975782D01*
X176302753Y-71177957D01*
X176269500Y-71387910D01*
X153750500Y-71387910D01*
X153750500Y-71383713D01*
X153717246Y-71173757D01*
X153651557Y-70971588D01*
X153555051Y-70782184D01*
X153555049Y-70782181D01*
X153555048Y-70782179D01*
X153430109Y-70610213D01*
X153279786Y-70459890D01*
X153107820Y-70334951D01*
X152918414Y-70238444D01*
X152918413Y-70238443D01*
X152918412Y-70238443D01*
X152716243Y-70172754D01*
X152716241Y-70172753D01*
X152716240Y-70172753D01*
X152554957Y-70147208D01*
X152506287Y-70139500D01*
X152293713Y-70139500D01*
X152245042Y-70147208D01*
X152083760Y-70172753D01*
X151881585Y-70238444D01*
X151692179Y-70334951D01*
X151520213Y-70459890D01*
X151369890Y-70610213D01*
X151244951Y-70782179D01*
X151148444Y-70971585D01*
X151082753Y-71173760D01*
X151074567Y-71225446D01*
X151049500Y-71383713D01*
X147496378Y-71383713D01*
X147485132Y-71356562D01*
X147485125Y-71356549D01*
X147397524Y-71225446D01*
X147397521Y-71225442D01*
X147286027Y-71113948D01*
X147286023Y-71113945D01*
X147154920Y-71026344D01*
X147154907Y-71026337D01*
X147009236Y-70965999D01*
X147009224Y-70965996D01*
X146854580Y-70935235D01*
X146854577Y-70935235D01*
X146696893Y-70935235D01*
X146696890Y-70935235D01*
X146542245Y-70965996D01*
X146542233Y-70965999D01*
X146396562Y-71026337D01*
X146396549Y-71026344D01*
X146265446Y-71113945D01*
X146265442Y-71113948D01*
X146153948Y-71225442D01*
X146153945Y-71225446D01*
X146066344Y-71356549D01*
X146066337Y-71356562D01*
X146005999Y-71502233D01*
X146005996Y-71502245D01*
X145975235Y-71656888D01*
X145975235Y-71814581D01*
X146005996Y-71969224D01*
X146005999Y-71969236D01*
X146066337Y-72114907D01*
X146066344Y-72114920D01*
X146153945Y-72246023D01*
X146153948Y-72246027D01*
X146193180Y-72285258D01*
X146226666Y-72346581D01*
X146229500Y-72372940D01*
X146229500Y-77179901D01*
X146220855Y-77209341D01*
X146214332Y-77239328D01*
X146210577Y-77244343D01*
X146209815Y-77246940D01*
X146193181Y-77267582D01*
X146177582Y-77283181D01*
X146116259Y-77316666D01*
X146089901Y-77319500D01*
X144742129Y-77319500D01*
X144742123Y-77319501D01*
X144682516Y-77325908D01*
X144547671Y-77376202D01*
X144547664Y-77376206D01*
X144432455Y-77462452D01*
X144432452Y-77462455D01*
X144346206Y-77577664D01*
X144346202Y-77577671D01*
X144300682Y-77699719D01*
X144258811Y-77755653D01*
X144193347Y-77780070D01*
X144125074Y-77765219D01*
X144075668Y-77715813D01*
X144060500Y-77656386D01*
X144060500Y-70823051D01*
X144060649Y-70816967D01*
X144077052Y-70483072D01*
X144078245Y-70470962D01*
X144079265Y-70464087D01*
X144126849Y-70143296D01*
X144129218Y-70131385D01*
X144209710Y-69810043D01*
X144213240Y-69798411D01*
X144324835Y-69486525D01*
X144329476Y-69475318D01*
X144471124Y-69175828D01*
X144476840Y-69165136D01*
X144647145Y-68880998D01*
X144653888Y-68870905D01*
X144851232Y-68604818D01*
X144858935Y-68595433D01*
X145081405Y-68349975D01*
X145089975Y-68341405D01*
X145335433Y-68118935D01*
X145344818Y-68111232D01*
X145610905Y-67913888D01*
X145620998Y-67907145D01*
X145905136Y-67736840D01*
X145915828Y-67731124D01*
X146215318Y-67589476D01*
X146226525Y-67584835D01*
X146538412Y-67473239D01*
X146550043Y-67469710D01*
X146871385Y-67389218D01*
X146883296Y-67386849D01*
X147210962Y-67338244D01*
X147223068Y-67337052D01*
X147556967Y-67320648D01*
X147563051Y-67320500D01*
X147625892Y-67320500D01*
X183164108Y-67320500D01*
X183226949Y-67320500D01*
X183233032Y-67320648D01*
G37*
%TD.AperFunction*%
%TA.AperFunction,Conductor*%
G36*
X156263211Y-85783136D02*
G01*
X156304486Y-85809663D01*
X156304601Y-85809524D01*
X156305795Y-85810504D01*
X156307558Y-85811637D01*
X156309307Y-85813386D01*
X156309311Y-85813389D01*
X156440414Y-85900990D01*
X156440418Y-85900992D01*
X156440421Y-85900994D01*
X156503804Y-85927248D01*
X156558205Y-85971087D01*
X156580271Y-86037381D01*
X156570912Y-86089258D01*
X156559209Y-86117512D01*
X156559208Y-86117516D01*
X156543700Y-86235302D01*
X156543700Y-86698300D01*
X156524015Y-86765339D01*
X156471211Y-86811094D01*
X156419700Y-86822300D01*
X155695635Y-86822300D01*
X155628596Y-86802615D01*
X155582841Y-86749811D01*
X155575451Y-86728825D01*
X155572700Y-86717993D01*
X155572700Y-86716710D01*
X155569843Y-86680407D01*
X155524694Y-86525005D01*
X155522922Y-86522009D01*
X155519804Y-86509732D01*
X155520740Y-86484335D01*
X155517627Y-86459113D01*
X155522007Y-86450006D01*
X155522380Y-86439910D01*
X155536897Y-86419052D01*
X155547915Y-86396149D01*
X155552287Y-86391546D01*
X156132198Y-85811635D01*
X156193519Y-85778152D01*
X156263211Y-85783136D01*
G37*
%TD.AperFunction*%
%TA.AperFunction,Conductor*%
G36*
X164035827Y-83997558D02*
G01*
X164155436Y-84032309D01*
X164192171Y-84035200D01*
X164491011Y-84035200D01*
X164558050Y-84054885D01*
X164603805Y-84107689D01*
X164615011Y-84159200D01*
X164615011Y-84465397D01*
X164617867Y-84501691D01*
X164617868Y-84501697D01*
X164649770Y-84611501D01*
X164649571Y-84681370D01*
X164611629Y-84740040D01*
X164547991Y-84768884D01*
X164478861Y-84758743D01*
X164443013Y-84733777D01*
X163913551Y-84204316D01*
X163880066Y-84142993D01*
X163885050Y-84073302D01*
X163926921Y-84017368D01*
X163992386Y-83992951D01*
X164035827Y-83997558D01*
G37*
%TD.AperFunction*%
%TA.AperFunction,Conductor*%
G36*
X168632404Y-83973141D02*
G01*
X168634959Y-83972504D01*
X168665745Y-83982932D01*
X168696917Y-83992085D01*
X168698640Y-83994074D01*
X168701135Y-83994919D01*
X168721399Y-84020338D01*
X168742672Y-84044889D01*
X168743551Y-84048126D01*
X168744688Y-84049553D01*
X168753236Y-84083797D01*
X168762674Y-84176182D01*
X168762675Y-84176185D01*
X168799826Y-84288298D01*
X168815561Y-84335784D01*
X168815566Y-84335795D01*
X168903827Y-84478887D01*
X168908308Y-84484554D01*
X168907222Y-84485412D01*
X168936943Y-84539842D01*
X168931959Y-84609534D01*
X168890087Y-84665467D01*
X168824623Y-84689884D01*
X168815777Y-84690200D01*
X168721413Y-84690200D01*
X168685119Y-84693056D01*
X168685113Y-84693057D01*
X168529719Y-84738204D01*
X168529713Y-84738206D01*
X168509231Y-84750320D01*
X168441507Y-84767501D01*
X168405291Y-84760676D01*
X168393623Y-84756608D01*
X168362506Y-84738206D01*
X168232477Y-84700428D01*
X168229386Y-84699351D01*
X168203518Y-84680842D01*
X168176725Y-84663731D01*
X168175312Y-84660661D01*
X168172563Y-84658694D01*
X168160809Y-84629141D01*
X168147519Y-84600259D01*
X168147595Y-84595918D01*
X168146741Y-84593771D01*
X168147721Y-84588747D01*
X168148226Y-84559972D01*
X168148918Y-84556180D01*
X168148920Y-84556175D01*
X168151811Y-84519440D01*
X168151811Y-84096400D01*
X168171496Y-84029361D01*
X168224300Y-83983606D01*
X168275811Y-83972400D01*
X168629878Y-83972400D01*
X168632404Y-83973141D01*
G37*
%TD.AperFunction*%
%TA.AperFunction,Conductor*%
G36*
X151696539Y-79141185D02*
G01*
X151742294Y-79193989D01*
X151751117Y-79221309D01*
X151782661Y-79379893D01*
X151783403Y-79382337D01*
X151783414Y-79383679D01*
X151783851Y-79385872D01*
X151783435Y-79385954D01*
X151784026Y-79452204D01*
X151771475Y-79481450D01*
X151741108Y-79532798D01*
X151741104Y-79532808D01*
X151695957Y-79688202D01*
X151695956Y-79688208D01*
X151693100Y-79724502D01*
X151693100Y-80193897D01*
X151695956Y-80230191D01*
X151695957Y-80230197D01*
X151741104Y-80385590D01*
X151741106Y-80385595D01*
X151767059Y-80429481D01*
X151784240Y-80497205D01*
X151767059Y-80555719D01*
X151741106Y-80599604D01*
X151741104Y-80599609D01*
X151695957Y-80755002D01*
X151695956Y-80755008D01*
X151693100Y-80791302D01*
X151693100Y-81260697D01*
X151695956Y-81296991D01*
X151695957Y-81296997D01*
X151741104Y-81452390D01*
X151741106Y-81452395D01*
X151767059Y-81496281D01*
X151784240Y-81564005D01*
X151767059Y-81622519D01*
X151741106Y-81666404D01*
X151741104Y-81666409D01*
X151695957Y-81821802D01*
X151695956Y-81821808D01*
X151693100Y-81858102D01*
X151693100Y-82327497D01*
X151695956Y-82363791D01*
X151695957Y-82363797D01*
X151741104Y-82519190D01*
X151741106Y-82519195D01*
X151767059Y-82563081D01*
X151784240Y-82630805D01*
X151767059Y-82689319D01*
X151741106Y-82733204D01*
X151741104Y-82733209D01*
X151695957Y-82888602D01*
X151695956Y-82888608D01*
X151693100Y-82924902D01*
X151693100Y-83394297D01*
X151695956Y-83430591D01*
X151695957Y-83430597D01*
X151741104Y-83585990D01*
X151741105Y-83585993D01*
X151823481Y-83725284D01*
X151823487Y-83725292D01*
X151937907Y-83839712D01*
X151937911Y-83839715D01*
X151937913Y-83839717D01*
X152077205Y-83922094D01*
X152118187Y-83934000D01*
X152232602Y-83967242D01*
X152232605Y-83967242D01*
X152232607Y-83967243D01*
X152268910Y-83970100D01*
X152268918Y-83970100D01*
X152678282Y-83970100D01*
X152678290Y-83970100D01*
X152714593Y-83967243D01*
X152714595Y-83967242D01*
X152714597Y-83967242D01*
X152792984Y-83944468D01*
X152869995Y-83922094D01*
X153009287Y-83839717D01*
X153009288Y-83839716D01*
X153012895Y-83836919D01*
X153077932Y-83811385D01*
X153088893Y-83810900D01*
X154003703Y-83810900D01*
X154070742Y-83830585D01*
X154116497Y-83883389D01*
X154126441Y-83952547D01*
X154097416Y-84016103D01*
X154091384Y-84022581D01*
X153568997Y-84544968D01*
X153507674Y-84578453D01*
X153481316Y-84581287D01*
X152281885Y-84581287D01*
X152214846Y-84561602D01*
X152194204Y-84544968D01*
X149566818Y-81917582D01*
X149533333Y-81856259D01*
X149530499Y-81829901D01*
X149530499Y-80312129D01*
X149530498Y-80312123D01*
X149528890Y-80297166D01*
X149525102Y-80261921D01*
X149524091Y-80252516D01*
X149473797Y-80117671D01*
X149473795Y-80117668D01*
X149449999Y-80085881D01*
X149396421Y-80014309D01*
X149372004Y-79948848D01*
X149386855Y-79880575D01*
X149396416Y-79865696D01*
X149473796Y-79762331D01*
X149524091Y-79627483D01*
X149530500Y-79567873D01*
X149530500Y-79245500D01*
X149550185Y-79178461D01*
X149602989Y-79132706D01*
X149654500Y-79121500D01*
X151629500Y-79121500D01*
X151696539Y-79141185D01*
G37*
%TD.AperFunction*%
%TA.AperFunction,Conductor*%
G36*
X156405426Y-80518127D02*
G01*
X156454832Y-80567532D01*
X156462182Y-80583627D01*
X156502202Y-80690928D01*
X156502206Y-80690935D01*
X156588452Y-80806144D01*
X156588455Y-80806147D01*
X156703664Y-80892393D01*
X156703671Y-80892397D01*
X156748618Y-80909161D01*
X156838517Y-80942691D01*
X156898127Y-80949100D01*
X157293872Y-80949099D01*
X157353483Y-80942691D01*
X157353485Y-80942690D01*
X157353487Y-80942690D01*
X157361031Y-80940908D01*
X157361342Y-80942226D01*
X157379268Y-80940942D01*
X157404835Y-80935270D01*
X157413564Y-80938484D01*
X157422842Y-80937820D01*
X157445828Y-80950367D01*
X157470400Y-80959417D01*
X157476004Y-80966839D01*
X157484170Y-80971297D01*
X157496723Y-80994279D01*
X157512502Y-81015177D01*
X157514693Y-81027179D01*
X157517663Y-81032616D01*
X157520146Y-81049633D01*
X157520500Y-81054323D01*
X157520501Y-81071472D01*
X157524885Y-81112259D01*
X157525035Y-81114240D01*
X157524679Y-81115909D01*
X157524679Y-81136850D01*
X157520500Y-81175722D01*
X157520500Y-81571469D01*
X157520501Y-81571478D01*
X157524679Y-81610345D01*
X157524679Y-81636850D01*
X157520500Y-81675722D01*
X157520500Y-82071469D01*
X157520501Y-82071478D01*
X157524679Y-82110345D01*
X157524679Y-82136850D01*
X157520500Y-82175722D01*
X157520500Y-82571469D01*
X157520501Y-82571478D01*
X157524679Y-82610345D01*
X157524812Y-82635545D01*
X157524741Y-82636269D01*
X157520500Y-82675727D01*
X157520500Y-82680087D01*
X157519923Y-82686048D01*
X157509038Y-82713133D01*
X157500815Y-82741139D01*
X157496164Y-82745168D01*
X157493870Y-82750879D01*
X157470067Y-82767781D01*
X157448011Y-82786894D01*
X157441004Y-82788420D01*
X157436903Y-82791333D01*
X157425132Y-82791878D01*
X157401390Y-82797050D01*
X157401426Y-82797736D01*
X157401428Y-82797746D01*
X157401427Y-82797746D01*
X157401437Y-82797924D01*
X157398118Y-82798101D01*
X157359253Y-82802279D01*
X157332748Y-82802279D01*
X157293874Y-82798100D01*
X156898130Y-82798100D01*
X156898119Y-82798101D01*
X156859253Y-82802279D01*
X156832748Y-82802279D01*
X156793874Y-82798100D01*
X156398130Y-82798100D01*
X156398119Y-82798101D01*
X156359253Y-82802279D01*
X156332748Y-82802279D01*
X156293874Y-82798100D01*
X155898130Y-82798100D01*
X155898119Y-82798101D01*
X155859253Y-82802279D01*
X155834054Y-82802412D01*
X155833332Y-82802342D01*
X155793873Y-82798100D01*
X155789511Y-82798100D01*
X155783551Y-82797523D01*
X155756465Y-82786638D01*
X155728460Y-82778415D01*
X155724430Y-82773764D01*
X155718720Y-82771470D01*
X155701817Y-82747667D01*
X155682705Y-82725611D01*
X155681181Y-82718608D01*
X155678266Y-82714503D01*
X155677718Y-82702690D01*
X155672562Y-82678987D01*
X155671958Y-82679019D01*
X155671855Y-82679031D01*
X155671854Y-82679025D01*
X155671676Y-82679035D01*
X155671498Y-82675711D01*
X155667320Y-82636853D01*
X155667320Y-82610345D01*
X155671500Y-82571473D01*
X155671499Y-82175728D01*
X155671499Y-82175727D01*
X155671498Y-82175711D01*
X155667320Y-82136853D01*
X155667320Y-82110345D01*
X155671500Y-82071473D01*
X155671499Y-81675728D01*
X155671499Y-81675727D01*
X155671498Y-81675711D01*
X155667320Y-81636853D01*
X155667320Y-81610345D01*
X155671500Y-81571473D01*
X155671499Y-81175728D01*
X155671499Y-81175727D01*
X155671498Y-81175711D01*
X155667320Y-81136853D01*
X155667187Y-81111643D01*
X155667244Y-81111051D01*
X155671500Y-81071473D01*
X155671499Y-81067113D01*
X155672078Y-81061145D01*
X155682962Y-81034061D01*
X155691185Y-81006060D01*
X155695836Y-81002029D01*
X155698133Y-80996315D01*
X155721938Y-80979411D01*
X155743989Y-80960305D01*
X155750993Y-80958781D01*
X155755102Y-80955864D01*
X155766916Y-80955317D01*
X155790611Y-80950162D01*
X155790576Y-80949500D01*
X155790571Y-80949454D01*
X155790573Y-80949453D01*
X155790564Y-80949276D01*
X155793857Y-80949099D01*
X155793872Y-80949099D01*
X155853483Y-80942691D01*
X155988331Y-80892396D01*
X156103546Y-80806146D01*
X156189796Y-80690931D01*
X156223857Y-80599609D01*
X156229818Y-80583627D01*
X156271689Y-80527693D01*
X156337153Y-80503276D01*
X156405426Y-80518127D01*
G37*
%TD.AperFunction*%
%TA.AperFunction,Conductor*%
G36*
X164499361Y-79476596D02*
G01*
X164525362Y-79480259D01*
X164532356Y-79486285D01*
X164541211Y-79488885D01*
X164558399Y-79508721D01*
X164578296Y-79525863D01*
X164580922Y-79534714D01*
X164586966Y-79541689D01*
X164590702Y-79567675D01*
X164598171Y-79592846D01*
X164596266Y-79606368D01*
X164596910Y-79610847D01*
X164593248Y-79627795D01*
X164567068Y-79717902D01*
X164567067Y-79717908D01*
X164564211Y-79754202D01*
X164564211Y-80060400D01*
X164544526Y-80127439D01*
X164491722Y-80173194D01*
X164440211Y-80184400D01*
X164166763Y-80184400D01*
X164130037Y-80187290D01*
X164130031Y-80187291D01*
X163972818Y-80232966D01*
X163972810Y-80232970D01*
X163962792Y-80238895D01*
X163895067Y-80256075D01*
X163828806Y-80233913D01*
X163785044Y-80179446D01*
X163775675Y-80132165D01*
X163775675Y-80043835D01*
X163795360Y-79976798D01*
X163811989Y-79956161D01*
X164262633Y-79505519D01*
X164323956Y-79472034D01*
X164350314Y-79469200D01*
X164474172Y-79469200D01*
X164499361Y-79476596D01*
G37*
%TD.AperFunction*%
%TD*%
M02*
