%TF.GenerationSoftware,KiCad,Pcbnew,10.0.3*%
%TF.CreationDate,2026-07-14T10:57:24+01:00*%
%TF.ProjectId,CC1101_Multx,43433131-3031-45f4-9d75-6c74782e6b69,rev?*%
%TF.SameCoordinates,Original*%
%TF.FileFunction,Copper,L2,Inr*%
%TF.FilePolarity,Positive*%
%FSLAX46Y46*%
G04 Gerber Fmt 4.6, Leading zero omitted, Abs format (unit mm)*
G04 Created by KiCad (PCBNEW 10.0.3) date 2026-07-14 10:57:24*
%MOMM*%
%LPD*%
G01*
G04 APERTURE LIST*
%TA.AperFunction,ComponentPad*%
%ADD10R,1.700000X1.700000*%
%TD*%
%TA.AperFunction,ComponentPad*%
%ADD11C,1.700000*%
%TD*%
%TA.AperFunction,ViaPad*%
%ADD12C,0.600000*%
%TD*%
G04 APERTURE END LIST*
D10*
%TO.N,Net-(J8-Pin_1)*%
%TO.C,J8*%
X148180000Y-86290000D03*
%TD*%
%TO.N,Net-(J7-Pin_1)*%
%TO.C,J7*%
X145640000Y-81210000D03*
%TD*%
%TO.N,Net-(IC1-GDO2)*%
%TO.C,J3*%
X148180000Y-78670000D03*
%TD*%
D11*
%TO.N,/AGND*%
%TO.C,BT1*%
X145640000Y-73590000D03*
D10*
%TO.N,/AVDD*%
X148180000Y-73590000D03*
%TD*%
%TO.N,Net-(IC1-SCLK)*%
%TO.C,J1*%
X148180000Y-76130000D03*
%TD*%
%TO.N,Net-(IC1-CSN)*%
%TO.C,J6*%
X148180000Y-83750000D03*
%TD*%
%TO.N,Net-(IC1-SI)*%
%TO.C,J4*%
X145640000Y-83750000D03*
%TD*%
%TO.N,Net-(IC1-SO_(GDO1))*%
%TO.C,J2*%
X145640000Y-86290000D03*
%TD*%
%TO.N,Net-(IC1-GDO0_(ATEST))*%
%TO.C,J5*%
X148180000Y-81210000D03*
%TD*%
%TO.N,/AGND*%
%TO.C,J9*%
X145640000Y-78670000D03*
%TD*%
%TO.N,/AGND*%
%TO.C,J1*%
X145640000Y-76130000D03*
%TD*%
D12*
%TO.N,/AGND*%
X167138111Y-69800000D03*
X175658111Y-69800000D03*
X170500000Y-75340000D03*
X170500000Y-74515000D03*
X172310000Y-73690000D03*
X172300000Y-74515000D03*
X172300000Y-75340000D03*
X170600000Y-86960000D03*
X170260000Y-85520000D03*
X168090000Y-86530000D03*
X166820000Y-86380000D03*
X164730000Y-86450000D03*
X163200000Y-85600000D03*
X161620000Y-85120000D03*
X170430000Y-79030000D03*
X169600000Y-78140000D03*
X168080000Y-77820000D03*
X166670000Y-77970000D03*
X164880000Y-77970000D03*
X163070000Y-78570000D03*
X161450000Y-78980000D03*
X168910000Y-77470000D03*
X163830000Y-77470000D03*
X161290000Y-77470000D03*
X153670000Y-87630000D03*
X151130000Y-87630000D03*
X158750000Y-90170000D03*
X156210000Y-90170000D03*
X153670000Y-90170000D03*
X151130000Y-90170000D03*
X169330000Y-86380000D03*
X168910000Y-87630000D03*
X163830000Y-87630000D03*
X161290000Y-87630000D03*
X161290000Y-90170000D03*
X163830000Y-90170000D03*
X166370000Y-90170000D03*
X168910000Y-90170000D03*
X171450000Y-90170000D03*
X173990000Y-74930000D03*
X173990000Y-77470000D03*
X176530000Y-77470000D03*
X176530000Y-74930000D03*
X168910000Y-74930000D03*
X166370000Y-74930000D03*
X151130000Y-72390000D03*
X153670000Y-72390000D03*
X154940000Y-71120000D03*
X153670000Y-69850000D03*
X151130000Y-69850000D03*
X165100000Y-88900000D03*
X160020000Y-86360000D03*
X162560000Y-86360000D03*
X162560000Y-88900000D03*
X160020000Y-88900000D03*
X152400000Y-88900000D03*
X149860000Y-88900000D03*
X149860000Y-91440000D03*
X152400000Y-91440000D03*
X154940000Y-91440000D03*
X157480000Y-91440000D03*
X160020000Y-91440000D03*
X162560000Y-91440000D03*
X165100000Y-91440000D03*
X170180000Y-91440000D03*
X167640000Y-91440000D03*
X167640000Y-88900000D03*
X170180000Y-88900000D03*
X177800000Y-73660000D03*
X177800000Y-76200000D03*
X177800000Y-78740000D03*
X175260000Y-78740000D03*
X172720000Y-78740000D03*
X172720000Y-76200000D03*
X175260000Y-76200000D03*
X175260000Y-73660000D03*
X167640000Y-73660000D03*
X170500000Y-73690000D03*
X170180000Y-76200000D03*
X167640000Y-76200000D03*
X165100000Y-76200000D03*
X162560000Y-76200000D03*
X152400000Y-71120000D03*
X149860000Y-71120000D03*
X149860000Y-68580000D03*
X152400000Y-68580000D03*
X154940000Y-68580000D03*
X157156497Y-89476707D03*
X157480000Y-71120000D03*
X156210000Y-72390000D03*
X158750000Y-69850000D03*
X160020000Y-73660000D03*
X158550000Y-84910000D03*
X156210000Y-74930000D03*
X157886400Y-77724000D03*
X157480000Y-68580000D03*
X161290000Y-74930000D03*
X165100000Y-73660000D03*
X163830000Y-69850000D03*
X172230000Y-85130000D03*
X160020000Y-68580000D03*
X163830000Y-74930000D03*
X163734250Y-80415196D03*
X165100000Y-68580000D03*
X172720000Y-83820000D03*
X151600000Y-83740000D03*
X163830000Y-72390000D03*
X165100000Y-71120000D03*
X150810000Y-81000000D03*
X154080000Y-83720000D03*
X151485600Y-79121000D03*
X158750000Y-74930000D03*
X162560000Y-68580000D03*
X163710076Y-83989957D03*
X159640000Y-85330000D03*
X175977636Y-81714953D03*
X154940000Y-73660000D03*
X168406523Y-84690805D03*
X157480000Y-76200000D03*
X156596000Y-81873600D03*
X162560000Y-71120000D03*
X159380000Y-77920000D03*
X172720000Y-88900000D03*
X175260000Y-88900000D03*
X160020000Y-71120000D03*
X153670000Y-74930000D03*
X150850000Y-79930000D03*
X158750000Y-72390000D03*
X160020000Y-76200000D03*
X151130000Y-74930000D03*
X152400000Y-73660000D03*
X154940000Y-76200000D03*
X177800000Y-88900000D03*
X172230000Y-86920000D03*
X177800000Y-83820000D03*
X162560000Y-73660000D03*
X158464265Y-78675735D03*
X175260000Y-83820000D03*
X161290000Y-69850000D03*
X157480000Y-73660000D03*
X156210000Y-69850000D03*
X161290000Y-72390000D03*
%TO.N,Net-(J7-Pin_1)*%
X161460000Y-79940000D03*
%TO.N,/AVDD*%
X158750000Y-83921600D03*
X152552400Y-79146400D03*
X157060000Y-85320000D03*
X158480000Y-79910000D03*
X161230000Y-81720000D03*
%TO.N,Net-(IC1-SO_(GDO1))*%
X154090000Y-78910000D03*
%TO.N,Net-(IC1-SI)*%
X155549600Y-78536800D03*
%TO.N,Net-(J8-Pin_1)*%
X161250000Y-82650000D03*
%TO.N,/AGND*%
X172720000Y-91440000D03*
X175977636Y-90234953D03*
%TD*%
%TA.AperFunction,Conductor*%
%TO.N,/AGND*%
G36*
X176203736Y-67320726D02*
G01*
X176469690Y-67336813D01*
X176484551Y-67338617D01*
X176742938Y-67385968D01*
X176757463Y-67389549D01*
X177008251Y-67467698D01*
X177022242Y-67473003D01*
X177261798Y-67580818D01*
X177275044Y-67587771D01*
X177499852Y-67723672D01*
X177512163Y-67732170D01*
X177624209Y-67819952D01*
X177718949Y-67894176D01*
X177730157Y-67904106D01*
X177915893Y-68089842D01*
X177925823Y-68101050D01*
X178087825Y-68307830D01*
X178096329Y-68320150D01*
X178192895Y-68479890D01*
X178232225Y-68544949D01*
X178239184Y-68558208D01*
X178346994Y-68797752D01*
X178352303Y-68811753D01*
X178430448Y-69062529D01*
X178434032Y-69077068D01*
X178481381Y-69335447D01*
X178483186Y-69350311D01*
X178499274Y-69616263D01*
X178499500Y-69623750D01*
X178499500Y-90086249D01*
X178499274Y-90093736D01*
X178483186Y-90359688D01*
X178481381Y-90374552D01*
X178434032Y-90632931D01*
X178430448Y-90647470D01*
X178352303Y-90898246D01*
X178346994Y-90912247D01*
X178239184Y-91151791D01*
X178232225Y-91165050D01*
X178096331Y-91389846D01*
X178087825Y-91402169D01*
X177925823Y-91608949D01*
X177915893Y-91620157D01*
X177730157Y-91805893D01*
X177718949Y-91815823D01*
X177512169Y-91977825D01*
X177499846Y-91986331D01*
X177275050Y-92122225D01*
X177261791Y-92129184D01*
X177022247Y-92236994D01*
X177008246Y-92242303D01*
X176757470Y-92320448D01*
X176742931Y-92324032D01*
X176484552Y-92371381D01*
X176469688Y-92373186D01*
X176203736Y-92389274D01*
X176196249Y-92389500D01*
X146363751Y-92389500D01*
X146356264Y-92389274D01*
X146090311Y-92373186D01*
X146075447Y-92371381D01*
X145817068Y-92324032D01*
X145802529Y-92320448D01*
X145551753Y-92242303D01*
X145537752Y-92236994D01*
X145298208Y-92129184D01*
X145284949Y-92122225D01*
X145060153Y-91986331D01*
X145047830Y-91977825D01*
X144841050Y-91815823D01*
X144829842Y-91805893D01*
X144644106Y-91620157D01*
X144634176Y-91608949D01*
X144564529Y-91520051D01*
X144472170Y-91402163D01*
X144463672Y-91389852D01*
X144327771Y-91165044D01*
X144320818Y-91151798D01*
X144213003Y-90912242D01*
X144207696Y-90898246D01*
X144129549Y-90647463D01*
X144125967Y-90632931D01*
X144078618Y-90374552D01*
X144076813Y-90359688D01*
X144070705Y-90258713D01*
X144922300Y-90258713D01*
X144922300Y-90471286D01*
X144955553Y-90681239D01*
X145021244Y-90883414D01*
X145117751Y-91072820D01*
X145242690Y-91244786D01*
X145393013Y-91395109D01*
X145564979Y-91520048D01*
X145564981Y-91520049D01*
X145564984Y-91520051D01*
X145754388Y-91616557D01*
X145956557Y-91682246D01*
X146166513Y-91715500D01*
X146166514Y-91715500D01*
X146379086Y-91715500D01*
X146379087Y-91715500D01*
X146589043Y-91682246D01*
X146791212Y-91616557D01*
X146980616Y-91520051D01*
X147002589Y-91504086D01*
X147152586Y-91395109D01*
X147152588Y-91395106D01*
X147152592Y-91395104D01*
X147302904Y-91244792D01*
X147302906Y-91244788D01*
X147302909Y-91244786D01*
X147427848Y-91072820D01*
X147427847Y-91072820D01*
X147427851Y-91072816D01*
X147524357Y-90883412D01*
X147590046Y-90681243D01*
X147623300Y-90471287D01*
X147623300Y-90258713D01*
X147590046Y-90048757D01*
X147524357Y-89846588D01*
X147427851Y-89657184D01*
X147427849Y-89657181D01*
X147427848Y-89657179D01*
X147302909Y-89485213D01*
X147152586Y-89334890D01*
X146980620Y-89209951D01*
X146791214Y-89113444D01*
X146791213Y-89113443D01*
X146791212Y-89113443D01*
X146589043Y-89047754D01*
X146589041Y-89047753D01*
X146589040Y-89047753D01*
X146427757Y-89022208D01*
X146379087Y-89014500D01*
X146166513Y-89014500D01*
X146117842Y-89022208D01*
X145956560Y-89047753D01*
X145754385Y-89113444D01*
X145564979Y-89209951D01*
X145393013Y-89334890D01*
X145242690Y-89485213D01*
X145117751Y-89657179D01*
X145021244Y-89846585D01*
X144955553Y-90048760D01*
X144922300Y-90258713D01*
X144070705Y-90258713D01*
X144060726Y-90093736D01*
X144060500Y-90086249D01*
X144060500Y-87303613D01*
X144080185Y-87236574D01*
X144132989Y-87190819D01*
X144202147Y-87180875D01*
X144265703Y-87209900D01*
X144300682Y-87260280D01*
X144346202Y-87382328D01*
X144346206Y-87382335D01*
X144432452Y-87497544D01*
X144432455Y-87497547D01*
X144547664Y-87583793D01*
X144547671Y-87583797D01*
X144682517Y-87634091D01*
X144682516Y-87634091D01*
X144689444Y-87634835D01*
X144742127Y-87640500D01*
X146537872Y-87640499D01*
X146597483Y-87634091D01*
X146732331Y-87583796D01*
X146835690Y-87506421D01*
X146901152Y-87482004D01*
X146969425Y-87496855D01*
X146984303Y-87506416D01*
X147087665Y-87583793D01*
X147087668Y-87583795D01*
X147087671Y-87583797D01*
X147222517Y-87634091D01*
X147222516Y-87634091D01*
X147229444Y-87634835D01*
X147282127Y-87640500D01*
X149077872Y-87640499D01*
X149137483Y-87634091D01*
X149272331Y-87583796D01*
X149387546Y-87497546D01*
X149473796Y-87382331D01*
X149524091Y-87247483D01*
X149530500Y-87187873D01*
X149530499Y-85392128D01*
X149524091Y-85332517D01*
X149490014Y-85241153D01*
X156259500Y-85241153D01*
X156259500Y-85398846D01*
X156290261Y-85553489D01*
X156290264Y-85553501D01*
X156350602Y-85699172D01*
X156350609Y-85699185D01*
X156438210Y-85830288D01*
X156438213Y-85830292D01*
X156549707Y-85941786D01*
X156549711Y-85941789D01*
X156680814Y-86029390D01*
X156680827Y-86029397D01*
X156826498Y-86089735D01*
X156826503Y-86089737D01*
X156981153Y-86120499D01*
X156981156Y-86120500D01*
X156981158Y-86120500D01*
X157138844Y-86120500D01*
X157138845Y-86120499D01*
X157293497Y-86089737D01*
X157439179Y-86029394D01*
X157570289Y-85941789D01*
X157681789Y-85830289D01*
X157769394Y-85699179D01*
X157829737Y-85553497D01*
X157860500Y-85398842D01*
X157860500Y-85241158D01*
X157860500Y-85241155D01*
X157860499Y-85241153D01*
X157829738Y-85086510D01*
X157829737Y-85086503D01*
X157802191Y-85020000D01*
X157769397Y-84940827D01*
X157769390Y-84940814D01*
X157681789Y-84809711D01*
X157681786Y-84809707D01*
X157570292Y-84698213D01*
X157570288Y-84698210D01*
X157439185Y-84610609D01*
X157439172Y-84610602D01*
X157293501Y-84550264D01*
X157293489Y-84550261D01*
X157138845Y-84519500D01*
X157138842Y-84519500D01*
X156981158Y-84519500D01*
X156981155Y-84519500D01*
X156826510Y-84550261D01*
X156826498Y-84550264D01*
X156680827Y-84610602D01*
X156680814Y-84610609D01*
X156549711Y-84698210D01*
X156549707Y-84698213D01*
X156438213Y-84809707D01*
X156438210Y-84809711D01*
X156350609Y-84940814D01*
X156350602Y-84940827D01*
X156290264Y-85086498D01*
X156290261Y-85086510D01*
X156259500Y-85241153D01*
X149490014Y-85241153D01*
X149473796Y-85197669D01*
X149392021Y-85088431D01*
X149388351Y-85082087D01*
X149381753Y-85054984D01*
X149372004Y-85028848D01*
X149373601Y-85021502D01*
X149371824Y-85014200D01*
X149380925Y-84987831D01*
X149386855Y-84960575D01*
X149394372Y-84948876D01*
X149394622Y-84948155D01*
X149395056Y-84947812D01*
X149396416Y-84945696D01*
X149473796Y-84842331D01*
X149524091Y-84707483D01*
X149530500Y-84647873D01*
X149530499Y-83842753D01*
X157949500Y-83842753D01*
X157949500Y-84000446D01*
X157980261Y-84155089D01*
X157980264Y-84155101D01*
X158040602Y-84300772D01*
X158040609Y-84300785D01*
X158128210Y-84431888D01*
X158128213Y-84431892D01*
X158239707Y-84543386D01*
X158239711Y-84543389D01*
X158370814Y-84630990D01*
X158370827Y-84630997D01*
X158464749Y-84669900D01*
X158516503Y-84691337D01*
X158662008Y-84720280D01*
X158671153Y-84722099D01*
X158671156Y-84722100D01*
X158671158Y-84722100D01*
X158828844Y-84722100D01*
X158828845Y-84722099D01*
X158983497Y-84691337D01*
X159129179Y-84630994D01*
X159260289Y-84543389D01*
X159371789Y-84431889D01*
X159459394Y-84300779D01*
X159519737Y-84155097D01*
X159550500Y-84000442D01*
X159550500Y-83842758D01*
X159550500Y-83842755D01*
X159550499Y-83842753D01*
X159519738Y-83688110D01*
X159519737Y-83688103D01*
X159519735Y-83688098D01*
X159459397Y-83542427D01*
X159459390Y-83542414D01*
X159371789Y-83411311D01*
X159371786Y-83411307D01*
X159260292Y-83299813D01*
X159260288Y-83299810D01*
X159129185Y-83212209D01*
X159129172Y-83212202D01*
X158983501Y-83151864D01*
X158983489Y-83151861D01*
X158828845Y-83121100D01*
X158828842Y-83121100D01*
X158671158Y-83121100D01*
X158671155Y-83121100D01*
X158516510Y-83151861D01*
X158516498Y-83151864D01*
X158370827Y-83212202D01*
X158370814Y-83212209D01*
X158239711Y-83299810D01*
X158239707Y-83299813D01*
X158128213Y-83411307D01*
X158128210Y-83411311D01*
X158040609Y-83542414D01*
X158040602Y-83542427D01*
X157980264Y-83688098D01*
X157980261Y-83688110D01*
X157949500Y-83842753D01*
X149530499Y-83842753D01*
X149530499Y-83688110D01*
X149530499Y-82852129D01*
X149530498Y-82852123D01*
X149524091Y-82792516D01*
X149473797Y-82657671D01*
X149473795Y-82657668D01*
X149449999Y-82625881D01*
X149396421Y-82554309D01*
X149372004Y-82488848D01*
X149386855Y-82420575D01*
X149396416Y-82405696D01*
X149473796Y-82302331D01*
X149524091Y-82167483D01*
X149530500Y-82107873D01*
X149530499Y-81641153D01*
X160429500Y-81641153D01*
X160429500Y-81798846D01*
X160460261Y-81953489D01*
X160460264Y-81953501D01*
X160520602Y-82099171D01*
X160520604Y-82099176D01*
X160520606Y-82099179D01*
X160526414Y-82107872D01*
X160541919Y-82131076D01*
X160562796Y-82197753D01*
X160544311Y-82265133D01*
X160541920Y-82268854D01*
X160540610Y-82270814D01*
X160540602Y-82270828D01*
X160480264Y-82416498D01*
X160480261Y-82416510D01*
X160449500Y-82571153D01*
X160449500Y-82728846D01*
X160480261Y-82883489D01*
X160480264Y-82883501D01*
X160540602Y-83029172D01*
X160540609Y-83029185D01*
X160628210Y-83160288D01*
X160628213Y-83160292D01*
X160739707Y-83271786D01*
X160739711Y-83271789D01*
X160870814Y-83359390D01*
X160870827Y-83359397D01*
X161016498Y-83419735D01*
X161016503Y-83419737D01*
X161171153Y-83450499D01*
X161171156Y-83450500D01*
X161171158Y-83450500D01*
X161328844Y-83450500D01*
X161328845Y-83450499D01*
X161483497Y-83419737D01*
X161629179Y-83359394D01*
X161760289Y-83271789D01*
X161871789Y-83160289D01*
X161959394Y-83029179D01*
X162019737Y-82883497D01*
X162050500Y-82728842D01*
X162050500Y-82571158D01*
X162050500Y-82571155D01*
X162050499Y-82571153D01*
X162032367Y-82480000D01*
X162019737Y-82416503D01*
X161959394Y-82270821D01*
X161938080Y-82238923D01*
X161917203Y-82172247D01*
X161935687Y-82104866D01*
X161938061Y-82101172D01*
X161939394Y-82099179D01*
X161999737Y-81953497D01*
X162030500Y-81798842D01*
X162030500Y-81641158D01*
X162030500Y-81641155D01*
X162030499Y-81641153D01*
X161999738Y-81486510D01*
X161999737Y-81486503D01*
X161999735Y-81486498D01*
X161939397Y-81340827D01*
X161939390Y-81340814D01*
X161851789Y-81209711D01*
X161851786Y-81209707D01*
X161740292Y-81098213D01*
X161740288Y-81098210D01*
X161609185Y-81010609D01*
X161609176Y-81010604D01*
X161523477Y-80975107D01*
X161469074Y-80931266D01*
X161447009Y-80864972D01*
X161464288Y-80797273D01*
X161515425Y-80749662D01*
X161546737Y-80738929D01*
X161693497Y-80709737D01*
X161839179Y-80649394D01*
X161970289Y-80561789D01*
X162081789Y-80450289D01*
X162169394Y-80319179D01*
X162229737Y-80173497D01*
X162260500Y-80018842D01*
X162260500Y-79861158D01*
X162260500Y-79861155D01*
X162260499Y-79861153D01*
X162242007Y-79768189D01*
X162229737Y-79706503D01*
X162218650Y-79679737D01*
X162169397Y-79560827D01*
X162169390Y-79560814D01*
X162081789Y-79429711D01*
X162081786Y-79429707D01*
X161970292Y-79318213D01*
X161970288Y-79318210D01*
X161839185Y-79230609D01*
X161839172Y-79230602D01*
X161693501Y-79170264D01*
X161693489Y-79170261D01*
X161538845Y-79139500D01*
X161538842Y-79139500D01*
X161381158Y-79139500D01*
X161381155Y-79139500D01*
X161226510Y-79170261D01*
X161226498Y-79170264D01*
X161080827Y-79230602D01*
X161080814Y-79230609D01*
X160949711Y-79318210D01*
X160949707Y-79318213D01*
X160838213Y-79429707D01*
X160838210Y-79429711D01*
X160750609Y-79560814D01*
X160750602Y-79560827D01*
X160690264Y-79706498D01*
X160690261Y-79706510D01*
X160659500Y-79861153D01*
X160659500Y-80018846D01*
X160690261Y-80173489D01*
X160690264Y-80173501D01*
X160750602Y-80319172D01*
X160750609Y-80319185D01*
X160838210Y-80450288D01*
X160838213Y-80450292D01*
X160949707Y-80561786D01*
X160949711Y-80561789D01*
X161080814Y-80649390D01*
X161080827Y-80649397D01*
X161166521Y-80684892D01*
X161220925Y-80728732D01*
X161242990Y-80795026D01*
X161225711Y-80862726D01*
X161174574Y-80910337D01*
X161143261Y-80921070D01*
X160996508Y-80950261D01*
X160996498Y-80950264D01*
X160850827Y-81010602D01*
X160850814Y-81010609D01*
X160719711Y-81098210D01*
X160719707Y-81098213D01*
X160608213Y-81209707D01*
X160608210Y-81209711D01*
X160520609Y-81340814D01*
X160520602Y-81340827D01*
X160460264Y-81486498D01*
X160460261Y-81486510D01*
X160429500Y-81641153D01*
X149530499Y-81641153D01*
X149530499Y-81209711D01*
X149530499Y-80312129D01*
X149530498Y-80312123D01*
X149528032Y-80289185D01*
X149524091Y-80252517D01*
X149494618Y-80173497D01*
X149473797Y-80117671D01*
X149473795Y-80117668D01*
X149449999Y-80085881D01*
X149396421Y-80014309D01*
X149372004Y-79948848D01*
X149386855Y-79880575D01*
X149396416Y-79865696D01*
X149473796Y-79762331D01*
X149524091Y-79627483D01*
X149530500Y-79567873D01*
X149530499Y-79067553D01*
X151751900Y-79067553D01*
X151751900Y-79225246D01*
X151782661Y-79379889D01*
X151782664Y-79379901D01*
X151843002Y-79525572D01*
X151843009Y-79525585D01*
X151930610Y-79656688D01*
X151930613Y-79656692D01*
X152042107Y-79768186D01*
X152042111Y-79768189D01*
X152173214Y-79855790D01*
X152173227Y-79855797D01*
X152310960Y-79912847D01*
X152318903Y-79916137D01*
X152438870Y-79940000D01*
X152473553Y-79946899D01*
X152473556Y-79946900D01*
X152473558Y-79946900D01*
X152631244Y-79946900D01*
X152631245Y-79946899D01*
X152785897Y-79916137D01*
X152907159Y-79865909D01*
X152931572Y-79855797D01*
X152931572Y-79855796D01*
X152931579Y-79855794D01*
X152968457Y-79831153D01*
X157679500Y-79831153D01*
X157679500Y-79988846D01*
X157710261Y-80143489D01*
X157710264Y-80143501D01*
X157770602Y-80289172D01*
X157770609Y-80289185D01*
X157858210Y-80420288D01*
X157858213Y-80420292D01*
X157969707Y-80531786D01*
X157969711Y-80531789D01*
X158100814Y-80619390D01*
X158100827Y-80619397D01*
X158246498Y-80679735D01*
X158246503Y-80679737D01*
X158397312Y-80709735D01*
X158401153Y-80710499D01*
X158401156Y-80710500D01*
X158401158Y-80710500D01*
X158558844Y-80710500D01*
X158558845Y-80710499D01*
X158713497Y-80679737D01*
X158859179Y-80619394D01*
X158990289Y-80531789D01*
X159101789Y-80420289D01*
X159189394Y-80289179D01*
X159249737Y-80143497D01*
X159280500Y-79988842D01*
X159280500Y-79831158D01*
X159280500Y-79831155D01*
X159280499Y-79831153D01*
X159278882Y-79823024D01*
X159249737Y-79676503D01*
X159241530Y-79656689D01*
X159189397Y-79530827D01*
X159189390Y-79530814D01*
X159101789Y-79399711D01*
X159101786Y-79399707D01*
X158990292Y-79288213D01*
X158990288Y-79288210D01*
X158859185Y-79200609D01*
X158859172Y-79200602D01*
X158713501Y-79140264D01*
X158713489Y-79140261D01*
X158558845Y-79109500D01*
X158558842Y-79109500D01*
X158401158Y-79109500D01*
X158401155Y-79109500D01*
X158246510Y-79140261D01*
X158246498Y-79140264D01*
X158100827Y-79200602D01*
X158100814Y-79200609D01*
X157969711Y-79288210D01*
X157969707Y-79288213D01*
X157858213Y-79399707D01*
X157858210Y-79399711D01*
X157770609Y-79530814D01*
X157770602Y-79530827D01*
X157710264Y-79676498D01*
X157710261Y-79676510D01*
X157679500Y-79831153D01*
X152968457Y-79831153D01*
X153062689Y-79768189D01*
X153174189Y-79656689D01*
X153261794Y-79525579D01*
X153282072Y-79476622D01*
X153325911Y-79422219D01*
X153392205Y-79400153D01*
X153459904Y-79417431D01*
X153484314Y-79436393D01*
X153579707Y-79531786D01*
X153579711Y-79531789D01*
X153710814Y-79619390D01*
X153710827Y-79619397D01*
X153848683Y-79676498D01*
X153856503Y-79679737D01*
X153991039Y-79706498D01*
X154011153Y-79710499D01*
X154011156Y-79710500D01*
X154011158Y-79710500D01*
X154168844Y-79710500D01*
X154168845Y-79710499D01*
X154179179Y-79708443D01*
X154204287Y-79703450D01*
X154204292Y-79703449D01*
X154289800Y-79686439D01*
X154323497Y-79679737D01*
X154469179Y-79619394D01*
X154600289Y-79531789D01*
X154711789Y-79420289D01*
X154799394Y-79289179D01*
X154836895Y-79198642D01*
X154880734Y-79144241D01*
X154947028Y-79122175D01*
X155014727Y-79139453D01*
X155034516Y-79154826D01*
X155034601Y-79154724D01*
X155038435Y-79157870D01*
X155039136Y-79158415D01*
X155039307Y-79158586D01*
X155039311Y-79158589D01*
X155170414Y-79246190D01*
X155170427Y-79246197D01*
X155274211Y-79289185D01*
X155316103Y-79306537D01*
X155470753Y-79337299D01*
X155470756Y-79337300D01*
X155470758Y-79337300D01*
X155628444Y-79337300D01*
X155628445Y-79337299D01*
X155783097Y-79306537D01*
X155928779Y-79246194D01*
X156059889Y-79158589D01*
X156171389Y-79047089D01*
X156258994Y-78915979D01*
X156319337Y-78770297D01*
X156350100Y-78615642D01*
X156350100Y-78457958D01*
X156350100Y-78457955D01*
X156350099Y-78457953D01*
X156338513Y-78399707D01*
X156319337Y-78303303D01*
X156314644Y-78291973D01*
X156258997Y-78157627D01*
X156258990Y-78157614D01*
X156171389Y-78026511D01*
X156171386Y-78026507D01*
X156059892Y-77915013D01*
X156059888Y-77915010D01*
X155928785Y-77827409D01*
X155928772Y-77827402D01*
X155783101Y-77767064D01*
X155783089Y-77767061D01*
X155628445Y-77736300D01*
X155628442Y-77736300D01*
X155470758Y-77736300D01*
X155470755Y-77736300D01*
X155316110Y-77767061D01*
X155316098Y-77767064D01*
X155170427Y-77827402D01*
X155170414Y-77827409D01*
X155039311Y-77915010D01*
X155039307Y-77915013D01*
X154927813Y-78026507D01*
X154927810Y-78026511D01*
X154840209Y-78157614D01*
X154840204Y-78157623D01*
X154802705Y-78248156D01*
X154758864Y-78302559D01*
X154692570Y-78324624D01*
X154624871Y-78307345D01*
X154605083Y-78291973D01*
X154604999Y-78292076D01*
X154601159Y-78288925D01*
X154600463Y-78288384D01*
X154600292Y-78288213D01*
X154600288Y-78288210D01*
X154469185Y-78200609D01*
X154469172Y-78200602D01*
X154323501Y-78140264D01*
X154323489Y-78140261D01*
X154168845Y-78109500D01*
X154168842Y-78109500D01*
X154011158Y-78109500D01*
X154011155Y-78109500D01*
X153856510Y-78140261D01*
X153856498Y-78140264D01*
X153710827Y-78200602D01*
X153710814Y-78200609D01*
X153579711Y-78288210D01*
X153579707Y-78288213D01*
X153468213Y-78399707D01*
X153468210Y-78399711D01*
X153380609Y-78530814D01*
X153380604Y-78530824D01*
X153360327Y-78579778D01*
X153316486Y-78634181D01*
X153250192Y-78656246D01*
X153182492Y-78638967D01*
X153158085Y-78620006D01*
X153062692Y-78524613D01*
X153062688Y-78524610D01*
X152931585Y-78437009D01*
X152931572Y-78437002D01*
X152785901Y-78376664D01*
X152785889Y-78376661D01*
X152631245Y-78345900D01*
X152631242Y-78345900D01*
X152473558Y-78345900D01*
X152473555Y-78345900D01*
X152318910Y-78376661D01*
X152318898Y-78376664D01*
X152173227Y-78437002D01*
X152173214Y-78437009D01*
X152042111Y-78524610D01*
X152042107Y-78524613D01*
X151930613Y-78636107D01*
X151930610Y-78636111D01*
X151843009Y-78767214D01*
X151843002Y-78767227D01*
X151782664Y-78912898D01*
X151782661Y-78912910D01*
X151751900Y-79067553D01*
X149530499Y-79067553D01*
X149530499Y-78656246D01*
X149530499Y-77772129D01*
X149530498Y-77772123D01*
X149530497Y-77772116D01*
X149524091Y-77712517D01*
X149473796Y-77577669D01*
X149396421Y-77474309D01*
X149372004Y-77408848D01*
X149386855Y-77340575D01*
X149396416Y-77325696D01*
X149473796Y-77222331D01*
X149524091Y-77087483D01*
X149530500Y-77027873D01*
X149530499Y-75232128D01*
X149524091Y-75172517D01*
X149473796Y-75037669D01*
X149396421Y-74934309D01*
X149372004Y-74868848D01*
X149386855Y-74800575D01*
X149396416Y-74785696D01*
X149473796Y-74682331D01*
X149524091Y-74547483D01*
X149530500Y-74487873D01*
X149530499Y-72692128D01*
X149524091Y-72632517D01*
X149473796Y-72497669D01*
X149473795Y-72497668D01*
X149473793Y-72497664D01*
X149387547Y-72382455D01*
X149387544Y-72382452D01*
X149272335Y-72296206D01*
X149272328Y-72296202D01*
X149137482Y-72245908D01*
X149137483Y-72245908D01*
X149077883Y-72239501D01*
X149077881Y-72239500D01*
X149077873Y-72239500D01*
X149077864Y-72239500D01*
X147282129Y-72239500D01*
X147282123Y-72239501D01*
X147222516Y-72245908D01*
X147087671Y-72296202D01*
X147087664Y-72296206D01*
X146972455Y-72382452D01*
X146972452Y-72382455D01*
X146886206Y-72497664D01*
X146886202Y-72497671D01*
X146835908Y-72632517D01*
X146829501Y-72692116D01*
X146829501Y-72692123D01*
X146829500Y-72692135D01*
X146829500Y-74487870D01*
X146829501Y-74487876D01*
X146835908Y-74547483D01*
X146886202Y-74682328D01*
X146886203Y-74682330D01*
X146963578Y-74785689D01*
X146987995Y-74851153D01*
X146973144Y-74919426D01*
X146963578Y-74934311D01*
X146886203Y-75037669D01*
X146886202Y-75037671D01*
X146835908Y-75172517D01*
X146829501Y-75232116D01*
X146829501Y-75232123D01*
X146829500Y-75232135D01*
X146829500Y-77027870D01*
X146829501Y-77027876D01*
X146835908Y-77087483D01*
X146886202Y-77222328D01*
X146886203Y-77222330D01*
X146963578Y-77325689D01*
X146987995Y-77391153D01*
X146973144Y-77459426D01*
X146963578Y-77474311D01*
X146886203Y-77577669D01*
X146886202Y-77577671D01*
X146835908Y-77712517D01*
X146830044Y-77767063D01*
X146829501Y-77772123D01*
X146829500Y-77772135D01*
X146829500Y-79567870D01*
X146829501Y-79567876D01*
X146835908Y-79627483D01*
X146882847Y-79753332D01*
X146887831Y-79823024D01*
X146854346Y-79884347D01*
X146793022Y-79917831D01*
X146723332Y-79912847D01*
X146597482Y-79865908D01*
X146597483Y-79865908D01*
X146537883Y-79859501D01*
X146537881Y-79859500D01*
X146537873Y-79859500D01*
X146537864Y-79859500D01*
X144742129Y-79859500D01*
X144742123Y-79859501D01*
X144682516Y-79865908D01*
X144547671Y-79916202D01*
X144547664Y-79916206D01*
X144432455Y-80002452D01*
X144432452Y-80002455D01*
X144346206Y-80117664D01*
X144346202Y-80117671D01*
X144300682Y-80239719D01*
X144258811Y-80295653D01*
X144193347Y-80320070D01*
X144125074Y-80305219D01*
X144075668Y-80255813D01*
X144060500Y-80196386D01*
X144060500Y-69623750D01*
X144060726Y-69616263D01*
X144064486Y-69554108D01*
X144073583Y-69403713D01*
X144929500Y-69403713D01*
X144929500Y-69616286D01*
X144962753Y-69826239D01*
X145028444Y-70028414D01*
X145124951Y-70217820D01*
X145249890Y-70389786D01*
X145400213Y-70540109D01*
X145572179Y-70665048D01*
X145572181Y-70665049D01*
X145572184Y-70665051D01*
X145761588Y-70761557D01*
X145963757Y-70827246D01*
X146173713Y-70860500D01*
X146173714Y-70860500D01*
X146386286Y-70860500D01*
X146386287Y-70860500D01*
X146596243Y-70827246D01*
X146798412Y-70761557D01*
X146987816Y-70665051D01*
X147009789Y-70649086D01*
X147159786Y-70540109D01*
X147159788Y-70540106D01*
X147159792Y-70540104D01*
X147310104Y-70389792D01*
X147310106Y-70389788D01*
X147310109Y-70389786D01*
X147435048Y-70217820D01*
X147435047Y-70217820D01*
X147435051Y-70217816D01*
X147531557Y-70028412D01*
X147597246Y-69826243D01*
X147630500Y-69616287D01*
X147630500Y-69403713D01*
X147597246Y-69193757D01*
X147531557Y-68991588D01*
X147435051Y-68802184D01*
X147435049Y-68802181D01*
X147435048Y-68802179D01*
X147310109Y-68630213D01*
X147159786Y-68479890D01*
X146987820Y-68354951D01*
X146798414Y-68258444D01*
X146798413Y-68258443D01*
X146798412Y-68258443D01*
X146596243Y-68192754D01*
X146596241Y-68192753D01*
X146596240Y-68192753D01*
X146434957Y-68167208D01*
X146386287Y-68159500D01*
X146173713Y-68159500D01*
X146125042Y-68167208D01*
X145963760Y-68192753D01*
X145761585Y-68258444D01*
X145572179Y-68354951D01*
X145400213Y-68479890D01*
X145249890Y-68630213D01*
X145124951Y-68802179D01*
X145028444Y-68991585D01*
X144962753Y-69193760D01*
X144929500Y-69403713D01*
X144073583Y-69403713D01*
X144076813Y-69350305D01*
X144078618Y-69335447D01*
X144104583Y-69193760D01*
X144125969Y-69077057D01*
X144129548Y-69062539D01*
X144207699Y-68811743D01*
X144213001Y-68797762D01*
X144320822Y-68558194D01*
X144327767Y-68544961D01*
X144463677Y-68320139D01*
X144472164Y-68307843D01*
X144634183Y-68101041D01*
X144644098Y-68089850D01*
X144829850Y-67904098D01*
X144841041Y-67894183D01*
X145047843Y-67732164D01*
X145060139Y-67723677D01*
X145284961Y-67587767D01*
X145298194Y-67580822D01*
X145537762Y-67473001D01*
X145551743Y-67467699D01*
X145802539Y-67389548D01*
X145817057Y-67385969D01*
X146075450Y-67338617D01*
X146090307Y-67336813D01*
X146356264Y-67320726D01*
X146363751Y-67320500D01*
X146425892Y-67320500D01*
X176134108Y-67320500D01*
X176196249Y-67320500D01*
X176203736Y-67320726D01*
G37*
%TD.AperFunction*%
%TD*%
M02*
