%TF.GenerationSoftware,KiCad,Pcbnew,10.0.3*%
%TF.CreationDate,2026-07-04T14:53:50+01:00*%
%TF.ProjectId,CC1101_Multx,43433131-3031-45f4-9d75-6c74782e6b69,rev?*%
%TF.SameCoordinates,Original*%
%TF.FileFunction,Copper,L3,Inr*%
%TF.FilePolarity,Positive*%
%FSLAX46Y46*%
G04 Gerber Fmt 4.6, Leading zero omitted, Abs format (unit mm)*
G04 Created by KiCad (PCBNEW 10.0.3) date 2026-07-04 14:53:50*
%MOMM*%
%LPD*%
G01*
G04 APERTURE LIST*
G04 Aperture macros list*
%AMRoundRect*
0 Rectangle with rounded corners*
0 $1 Rounding radius*
0 $2 $3 $4 $5 $6 $7 $8 $9 X,Y pos of 4 corners*
0 Add a 4 corners polygon primitive as box body*
4,1,4,$2,$3,$4,$5,$6,$7,$8,$9,$2,$3,0*
0 Add four circle primitives for the rounded corners*
1,1,$1+$1,$2,$3*
1,1,$1+$1,$4,$5*
1,1,$1+$1,$6,$7*
1,1,$1+$1,$8,$9*
0 Add four rect primitives between the rounded corners*
20,1,$1+$1,$2,$3,$4,$5,0*
20,1,$1+$1,$4,$5,$6,$7,0*
20,1,$1+$1,$6,$7,$8,$9,0*
20,1,$1+$1,$8,$9,$2,$3,0*%
G04 Aperture macros list end*
%TA.AperFunction,ComponentPad*%
%ADD10R,1.700000X1.700000*%
%TD*%
%TA.AperFunction,ComponentPad*%
%ADD11RoundRect,0.249999X0.850001X0.850001X-0.850001X0.850001X-0.850001X-0.850001X0.850001X-0.850001X0*%
%TD*%
%TA.AperFunction,ComponentPad*%
%ADD12C,2.200000*%
%TD*%
%TA.AperFunction,ComponentPad*%
%ADD13C,0.970000*%
%TD*%
%TA.AperFunction,ViaPad*%
%ADD14C,0.600000*%
%TD*%
G04 APERTURE END LIST*
D10*
%TO.N,Net-(IC3-VCTL)*%
%TO.C,J8*%
X148336000Y-89865200D03*
%TD*%
%TO.N,Net-(IC2-VCTL)*%
%TO.C,J7*%
X148336000Y-72085200D03*
%TD*%
%TO.N,Net-(IC1-GDO2)*%
%TO.C,J3*%
X148336000Y-82245200D03*
%TD*%
D11*
%TO.N,/AVDD*%
%TO.C,BT1*%
X159240000Y-73120000D03*
D12*
%TO.N,/AGND*%
X156700000Y-73120000D03*
%TD*%
D10*
%TO.N,Net-(IC1-SCLK)*%
%TO.C,J1*%
X148336000Y-79705200D03*
%TD*%
%TO.N,Net-(IC1-CSN)*%
%TO.C,J6*%
X148336000Y-87325200D03*
%TD*%
%TO.N,Net-(IC1-SI)*%
%TO.C,J4*%
X148336000Y-74625200D03*
%TD*%
%TO.N,Net-(IC1-SO_(GDO1))*%
%TO.C,J2*%
X148336000Y-77165200D03*
%TD*%
%TO.N,Net-(IC1-GDO0_(ATEST))*%
%TO.C,J5*%
X148336000Y-84785200D03*
%TD*%
D13*
%TO.N,/AGND*%
%TO.C,AE1*%
X175675794Y-79468200D03*
X175675794Y-86453200D03*
%TD*%
D10*
%TO.N,Net-(IC4-VCTL)*%
%TO.C,J9*%
X148336000Y-69545200D03*
%TD*%
D14*
%TO.N,/AGND*%
X168910000Y-90170000D03*
X166370000Y-87630000D03*
X166370000Y-69850000D03*
X168910000Y-72390000D03*
X165100000Y-71120000D03*
X167640000Y-73660000D03*
X165100000Y-73660000D03*
X166370000Y-74930000D03*
X176530000Y-72390000D03*
X175260000Y-71120000D03*
X161340794Y-87735900D03*
X177800000Y-73660000D03*
X170130794Y-84785900D03*
X155230000Y-88760000D03*
X171500794Y-87735900D03*
X172720000Y-88900000D03*
X171450000Y-77470000D03*
X179070000Y-77470000D03*
X160500794Y-86135900D03*
X175260000Y-91440000D03*
X170180000Y-73660000D03*
X175800792Y-82110700D03*
X172720000Y-71120000D03*
X156210000Y-74930000D03*
X172313600Y-79857600D03*
X175260000Y-68580000D03*
X172720000Y-91440000D03*
X157886400Y-77724000D03*
X165100000Y-91440000D03*
X170230794Y-86465900D03*
X162590794Y-86205900D03*
X161550000Y-78375000D03*
X174990793Y-82090700D03*
X177800000Y-71120000D03*
X164480794Y-78335900D03*
X166065200Y-79044800D03*
X173990000Y-72390000D03*
X170484800Y-82651600D03*
X163830000Y-69850000D03*
X171450000Y-72390000D03*
X171670794Y-79105900D03*
X163830000Y-74930000D03*
X172240794Y-84945900D03*
X165100000Y-68580000D03*
X163830000Y-72390000D03*
X167640000Y-76200000D03*
X163626794Y-89107500D03*
X177800000Y-88900000D03*
X165100000Y-78994000D03*
X163830000Y-90170000D03*
X151485600Y-79121000D03*
X158750000Y-74930000D03*
X161737600Y-80299344D03*
X162560000Y-68580000D03*
X168910000Y-74930000D03*
X162458400Y-84923700D03*
X168550794Y-81345900D03*
X161290000Y-90170000D03*
X158750000Y-90170000D03*
X173990000Y-87630000D03*
X166288129Y-84768326D03*
X176530000Y-69850000D03*
X171450000Y-74930000D03*
X172720000Y-86360000D03*
X172720000Y-68580000D03*
X157480000Y-76200000D03*
X169722794Y-79049100D03*
X160825000Y-78975000D03*
X156596000Y-81873600D03*
X162610794Y-89005900D03*
X179070000Y-72390000D03*
X162560000Y-71120000D03*
X173990000Y-77470000D03*
X159380000Y-77920000D03*
X169010794Y-84995900D03*
X172720000Y-76200000D03*
X162730794Y-88005900D03*
X170180000Y-68580000D03*
X158318200Y-88544400D03*
X168910000Y-77470000D03*
X174150794Y-83920700D03*
X179070000Y-74930000D03*
X170180000Y-71120000D03*
X173990000Y-69850000D03*
X167640000Y-91440000D03*
X168910000Y-69850000D03*
X173990000Y-90170000D03*
X165390794Y-86415900D03*
X157480000Y-91440000D03*
X176530000Y-77470000D03*
X162560000Y-91440000D03*
X162610794Y-78135900D03*
X166370000Y-77470000D03*
X164490794Y-87975900D03*
X176530000Y-74930000D03*
X170180000Y-91440000D03*
X167233600Y-79445900D03*
X170230794Y-89005900D03*
X162620794Y-87015900D03*
X160020000Y-76200000D03*
X175800792Y-83920700D03*
X164560794Y-87005900D03*
X168290794Y-85555900D03*
X171551600Y-82854800D03*
X170180000Y-76200000D03*
X168960794Y-87735900D03*
X171450000Y-69850000D03*
X167740794Y-80545900D03*
X177800000Y-76200000D03*
X179070000Y-69850000D03*
X154940000Y-76200000D03*
X175260000Y-88900000D03*
X166320794Y-86455900D03*
X167640000Y-68580000D03*
X177800000Y-68580000D03*
X171450000Y-90170000D03*
X167430794Y-86295900D03*
X162560000Y-73660000D03*
X174040800Y-81280000D03*
X160416800Y-80050000D03*
X175260000Y-76200000D03*
X179070000Y-90170000D03*
X176530000Y-90170000D03*
X164550794Y-86100700D03*
X165100000Y-76200000D03*
X172720000Y-80721200D03*
X172720000Y-73660000D03*
X161594800Y-84023200D03*
X177800000Y-91440000D03*
X154940000Y-91440000D03*
X174180794Y-82100700D03*
X162560000Y-76200000D03*
X174975793Y-83920700D03*
X161560794Y-86185900D03*
X175260000Y-73660000D03*
X163626794Y-77118700D03*
X171180794Y-84765900D03*
X156210000Y-90170000D03*
X173990000Y-74930000D03*
%TO.N,/AVDD*%
X158750000Y-83921600D03*
X152552400Y-79146400D03*
X161036000Y-82550000D03*
X156819600Y-85191600D03*
X158648400Y-79959200D03*
X173075600Y-84074000D03*
%TO.N,Net-(IC4-VCTL)*%
X173177194Y-81690700D03*
%TO.N,Net-(IC1-SCLK)*%
X154696000Y-80210000D03*
%TO.N,Net-(IC1-SO_(GDO1))*%
X153660218Y-78979782D03*
%TO.N,Net-(IC1-GDO2)*%
X153517600Y-81773600D03*
%TO.N,Net-(IC1-GDO0_(ATEST))*%
X152646705Y-85181787D03*
%TO.N,Net-(IC1-CSN)*%
X152857200Y-85953600D03*
%TO.N,Net-(IC1-SI)*%
X155549600Y-78536800D03*
%TO.N,Net-(IC3-VCTL)*%
X159816800Y-84937600D03*
%TO.N,Net-(IC2-VCTL)*%
X159816800Y-82397600D03*
%TD*%
%TA.AperFunction,Conductor*%
%TO.N,/AVDD*%
G36*
X177580944Y-66479910D02*
G01*
X177870982Y-66497454D01*
X177885843Y-66499258D01*
X177992061Y-66518724D01*
X178167983Y-66550963D01*
X178182520Y-66554546D01*
X178456368Y-66639881D01*
X178470349Y-66645183D01*
X178731920Y-66762907D01*
X178745173Y-66769863D01*
X178990644Y-66918254D01*
X179002962Y-66926756D01*
X179228759Y-67103657D01*
X179239967Y-67113587D01*
X179442781Y-67316401D01*
X179452711Y-67327609D01*
X179629608Y-67553400D01*
X179638114Y-67565724D01*
X179786505Y-67811195D01*
X179793463Y-67824452D01*
X179814237Y-67870609D01*
X179853664Y-67958213D01*
X179911180Y-68086006D01*
X179916490Y-68100008D01*
X180001821Y-68373847D01*
X180005405Y-68388385D01*
X180057109Y-68670523D01*
X180058914Y-68685388D01*
X180076459Y-68975438D01*
X180076685Y-68982941D01*
X180076610Y-69564991D01*
X180056917Y-69632028D01*
X180004107Y-69677776D01*
X179934947Y-69687711D01*
X179871395Y-69658677D01*
X179838049Y-69612427D01*
X179779397Y-69470827D01*
X179779390Y-69470814D01*
X179691789Y-69339711D01*
X179691786Y-69339707D01*
X179580292Y-69228213D01*
X179580288Y-69228210D01*
X179449185Y-69140609D01*
X179449172Y-69140602D01*
X179303501Y-69080264D01*
X179303489Y-69080261D01*
X179148845Y-69049500D01*
X179148842Y-69049500D01*
X178991158Y-69049500D01*
X178991155Y-69049500D01*
X178836510Y-69080261D01*
X178836498Y-69080264D01*
X178690827Y-69140602D01*
X178690811Y-69140611D01*
X178662389Y-69159602D01*
X178595712Y-69180479D01*
X178528332Y-69161994D01*
X178481642Y-69110014D01*
X178470467Y-69041044D01*
X178490398Y-68987608D01*
X178509394Y-68959179D01*
X178569737Y-68813497D01*
X178600500Y-68658842D01*
X178600500Y-68501158D01*
X178600500Y-68501155D01*
X178600499Y-68501153D01*
X178578068Y-68388385D01*
X178569737Y-68346503D01*
X178530346Y-68251404D01*
X178509397Y-68200827D01*
X178509390Y-68200814D01*
X178421789Y-68069711D01*
X178421786Y-68069707D01*
X178310292Y-67958213D01*
X178310288Y-67958210D01*
X178179185Y-67870609D01*
X178179172Y-67870602D01*
X178033501Y-67810264D01*
X178033489Y-67810261D01*
X177878845Y-67779500D01*
X177878842Y-67779500D01*
X177721158Y-67779500D01*
X177721155Y-67779500D01*
X177566510Y-67810261D01*
X177566498Y-67810264D01*
X177420827Y-67870602D01*
X177420814Y-67870609D01*
X177289711Y-67958210D01*
X177289707Y-67958213D01*
X177178213Y-68069707D01*
X177178210Y-68069711D01*
X177090609Y-68200814D01*
X177090602Y-68200827D01*
X177030264Y-68346498D01*
X177030261Y-68346510D01*
X176999500Y-68501153D01*
X176999500Y-68658846D01*
X177030261Y-68813489D01*
X177030264Y-68813501D01*
X177090602Y-68959172D01*
X177090609Y-68959185D01*
X177109601Y-68987608D01*
X177130479Y-69054286D01*
X177111994Y-69121666D01*
X177060016Y-69168356D01*
X176991046Y-69179532D01*
X176937608Y-69159601D01*
X176909185Y-69140609D01*
X176909172Y-69140602D01*
X176763501Y-69080264D01*
X176763489Y-69080261D01*
X176608845Y-69049500D01*
X176608842Y-69049500D01*
X176451158Y-69049500D01*
X176451155Y-69049500D01*
X176296510Y-69080261D01*
X176296498Y-69080264D01*
X176150827Y-69140602D01*
X176150811Y-69140611D01*
X176122389Y-69159602D01*
X176055712Y-69180479D01*
X175988332Y-69161994D01*
X175941642Y-69110014D01*
X175930467Y-69041044D01*
X175950398Y-68987608D01*
X175969394Y-68959179D01*
X176029737Y-68813497D01*
X176060500Y-68658842D01*
X176060500Y-68501158D01*
X176060500Y-68501155D01*
X176060499Y-68501153D01*
X176038068Y-68388385D01*
X176029737Y-68346503D01*
X175990346Y-68251404D01*
X175969397Y-68200827D01*
X175969390Y-68200814D01*
X175881789Y-68069711D01*
X175881786Y-68069707D01*
X175770292Y-67958213D01*
X175770288Y-67958210D01*
X175639185Y-67870609D01*
X175639172Y-67870602D01*
X175493501Y-67810264D01*
X175493489Y-67810261D01*
X175338845Y-67779500D01*
X175338842Y-67779500D01*
X175181158Y-67779500D01*
X175181155Y-67779500D01*
X175026510Y-67810261D01*
X175026498Y-67810264D01*
X174880827Y-67870602D01*
X174880814Y-67870609D01*
X174749711Y-67958210D01*
X174749707Y-67958213D01*
X174638213Y-68069707D01*
X174638210Y-68069711D01*
X174550609Y-68200814D01*
X174550602Y-68200827D01*
X174490264Y-68346498D01*
X174490261Y-68346510D01*
X174459500Y-68501153D01*
X174459500Y-68658846D01*
X174490261Y-68813489D01*
X174490264Y-68813501D01*
X174550602Y-68959172D01*
X174550609Y-68959185D01*
X174569601Y-68987608D01*
X174590479Y-69054286D01*
X174571994Y-69121666D01*
X174520016Y-69168356D01*
X174451046Y-69179532D01*
X174397608Y-69159601D01*
X174369185Y-69140609D01*
X174369172Y-69140602D01*
X174223501Y-69080264D01*
X174223489Y-69080261D01*
X174068845Y-69049500D01*
X174068842Y-69049500D01*
X173911158Y-69049500D01*
X173911155Y-69049500D01*
X173756510Y-69080261D01*
X173756498Y-69080264D01*
X173610827Y-69140602D01*
X173610811Y-69140611D01*
X173582389Y-69159602D01*
X173515712Y-69180479D01*
X173448332Y-69161994D01*
X173401642Y-69110014D01*
X173390467Y-69041044D01*
X173410398Y-68987608D01*
X173429394Y-68959179D01*
X173489737Y-68813497D01*
X173520500Y-68658842D01*
X173520500Y-68501158D01*
X173520500Y-68501155D01*
X173520499Y-68501153D01*
X173498068Y-68388385D01*
X173489737Y-68346503D01*
X173450346Y-68251404D01*
X173429397Y-68200827D01*
X173429390Y-68200814D01*
X173341789Y-68069711D01*
X173341786Y-68069707D01*
X173230292Y-67958213D01*
X173230288Y-67958210D01*
X173099185Y-67870609D01*
X173099172Y-67870602D01*
X172953501Y-67810264D01*
X172953489Y-67810261D01*
X172798845Y-67779500D01*
X172798842Y-67779500D01*
X172641158Y-67779500D01*
X172641155Y-67779500D01*
X172486510Y-67810261D01*
X172486498Y-67810264D01*
X172340827Y-67870602D01*
X172340814Y-67870609D01*
X172209711Y-67958210D01*
X172209707Y-67958213D01*
X172098213Y-68069707D01*
X172098210Y-68069711D01*
X172010609Y-68200814D01*
X172010602Y-68200827D01*
X171950264Y-68346498D01*
X171950261Y-68346510D01*
X171919500Y-68501153D01*
X171919500Y-68658846D01*
X171950261Y-68813489D01*
X171950264Y-68813501D01*
X172010602Y-68959172D01*
X172010609Y-68959185D01*
X172029601Y-68987608D01*
X172050479Y-69054286D01*
X172031994Y-69121666D01*
X171980016Y-69168356D01*
X171911046Y-69179532D01*
X171857608Y-69159601D01*
X171829185Y-69140609D01*
X171829172Y-69140602D01*
X171683501Y-69080264D01*
X171683489Y-69080261D01*
X171528845Y-69049500D01*
X171528842Y-69049500D01*
X171371158Y-69049500D01*
X171371155Y-69049500D01*
X171216510Y-69080261D01*
X171216498Y-69080264D01*
X171070827Y-69140602D01*
X171070811Y-69140611D01*
X171042389Y-69159602D01*
X170975712Y-69180479D01*
X170908332Y-69161994D01*
X170861642Y-69110014D01*
X170850467Y-69041044D01*
X170870398Y-68987608D01*
X170889394Y-68959179D01*
X170949737Y-68813497D01*
X170980500Y-68658842D01*
X170980500Y-68501158D01*
X170980500Y-68501155D01*
X170980499Y-68501153D01*
X170958068Y-68388385D01*
X170949737Y-68346503D01*
X170910346Y-68251404D01*
X170889397Y-68200827D01*
X170889390Y-68200814D01*
X170801789Y-68069711D01*
X170801786Y-68069707D01*
X170690292Y-67958213D01*
X170690288Y-67958210D01*
X170559185Y-67870609D01*
X170559172Y-67870602D01*
X170413501Y-67810264D01*
X170413489Y-67810261D01*
X170258845Y-67779500D01*
X170258842Y-67779500D01*
X170101158Y-67779500D01*
X170101155Y-67779500D01*
X169946510Y-67810261D01*
X169946498Y-67810264D01*
X169800827Y-67870602D01*
X169800814Y-67870609D01*
X169669711Y-67958210D01*
X169669707Y-67958213D01*
X169558213Y-68069707D01*
X169558210Y-68069711D01*
X169470609Y-68200814D01*
X169470602Y-68200827D01*
X169410264Y-68346498D01*
X169410261Y-68346510D01*
X169379500Y-68501153D01*
X169379500Y-68658846D01*
X169410261Y-68813489D01*
X169410264Y-68813501D01*
X169470602Y-68959172D01*
X169470609Y-68959185D01*
X169489601Y-68987608D01*
X169510479Y-69054286D01*
X169491994Y-69121666D01*
X169440016Y-69168356D01*
X169371046Y-69179532D01*
X169317608Y-69159601D01*
X169289185Y-69140609D01*
X169289172Y-69140602D01*
X169143501Y-69080264D01*
X169143489Y-69080261D01*
X168988845Y-69049500D01*
X168988842Y-69049500D01*
X168831158Y-69049500D01*
X168831155Y-69049500D01*
X168676510Y-69080261D01*
X168676498Y-69080264D01*
X168530827Y-69140602D01*
X168530811Y-69140611D01*
X168502389Y-69159602D01*
X168435712Y-69180479D01*
X168368332Y-69161994D01*
X168321642Y-69110014D01*
X168310467Y-69041044D01*
X168330398Y-68987608D01*
X168349394Y-68959179D01*
X168409737Y-68813497D01*
X168440500Y-68658842D01*
X168440500Y-68501158D01*
X168440500Y-68501155D01*
X168440499Y-68501153D01*
X168418068Y-68388385D01*
X168409737Y-68346503D01*
X168370346Y-68251404D01*
X168349397Y-68200827D01*
X168349390Y-68200814D01*
X168261789Y-68069711D01*
X168261786Y-68069707D01*
X168150292Y-67958213D01*
X168150288Y-67958210D01*
X168019185Y-67870609D01*
X168019172Y-67870602D01*
X167873501Y-67810264D01*
X167873489Y-67810261D01*
X167718845Y-67779500D01*
X167718842Y-67779500D01*
X167561158Y-67779500D01*
X167561155Y-67779500D01*
X167406510Y-67810261D01*
X167406498Y-67810264D01*
X167260827Y-67870602D01*
X167260814Y-67870609D01*
X167129711Y-67958210D01*
X167129707Y-67958213D01*
X167018213Y-68069707D01*
X167018210Y-68069711D01*
X166930609Y-68200814D01*
X166930602Y-68200827D01*
X166870264Y-68346498D01*
X166870261Y-68346510D01*
X166839500Y-68501153D01*
X166839500Y-68658846D01*
X166870261Y-68813489D01*
X166870264Y-68813501D01*
X166930602Y-68959172D01*
X166930609Y-68959185D01*
X166949601Y-68987608D01*
X166970479Y-69054286D01*
X166951994Y-69121666D01*
X166900016Y-69168356D01*
X166831046Y-69179532D01*
X166777608Y-69159601D01*
X166749185Y-69140609D01*
X166749172Y-69140602D01*
X166603501Y-69080264D01*
X166603489Y-69080261D01*
X166448845Y-69049500D01*
X166448842Y-69049500D01*
X166291158Y-69049500D01*
X166291155Y-69049500D01*
X166136510Y-69080261D01*
X166136498Y-69080264D01*
X165990827Y-69140602D01*
X165990811Y-69140611D01*
X165962389Y-69159602D01*
X165895712Y-69180479D01*
X165828332Y-69161994D01*
X165781642Y-69110014D01*
X165770467Y-69041044D01*
X165790398Y-68987608D01*
X165809394Y-68959179D01*
X165869737Y-68813497D01*
X165900500Y-68658842D01*
X165900500Y-68501158D01*
X165900500Y-68501155D01*
X165900499Y-68501153D01*
X165878068Y-68388385D01*
X165869737Y-68346503D01*
X165830346Y-68251404D01*
X165809397Y-68200827D01*
X165809390Y-68200814D01*
X165721789Y-68069711D01*
X165721786Y-68069707D01*
X165610292Y-67958213D01*
X165610288Y-67958210D01*
X165479185Y-67870609D01*
X165479172Y-67870602D01*
X165333501Y-67810264D01*
X165333489Y-67810261D01*
X165178845Y-67779500D01*
X165178842Y-67779500D01*
X165021158Y-67779500D01*
X165021155Y-67779500D01*
X164866510Y-67810261D01*
X164866498Y-67810264D01*
X164720827Y-67870602D01*
X164720814Y-67870609D01*
X164589711Y-67958210D01*
X164589707Y-67958213D01*
X164478213Y-68069707D01*
X164478210Y-68069711D01*
X164390609Y-68200814D01*
X164390602Y-68200827D01*
X164330264Y-68346498D01*
X164330261Y-68346510D01*
X164299500Y-68501153D01*
X164299500Y-68658846D01*
X164330261Y-68813489D01*
X164330264Y-68813501D01*
X164390602Y-68959172D01*
X164390609Y-68959185D01*
X164409601Y-68987608D01*
X164430479Y-69054286D01*
X164411994Y-69121666D01*
X164360016Y-69168356D01*
X164291046Y-69179532D01*
X164237608Y-69159601D01*
X164209185Y-69140609D01*
X164209172Y-69140602D01*
X164063501Y-69080264D01*
X164063489Y-69080261D01*
X163908845Y-69049500D01*
X163908842Y-69049500D01*
X163751158Y-69049500D01*
X163751155Y-69049500D01*
X163596510Y-69080261D01*
X163596498Y-69080264D01*
X163450827Y-69140602D01*
X163450811Y-69140611D01*
X163422389Y-69159602D01*
X163355712Y-69180479D01*
X163288332Y-69161994D01*
X163241642Y-69110014D01*
X163230467Y-69041044D01*
X163250398Y-68987608D01*
X163269394Y-68959179D01*
X163329737Y-68813497D01*
X163360500Y-68658842D01*
X163360500Y-68501158D01*
X163360500Y-68501155D01*
X163360499Y-68501153D01*
X163338068Y-68388385D01*
X163329737Y-68346503D01*
X163290346Y-68251404D01*
X163269397Y-68200827D01*
X163269390Y-68200814D01*
X163181789Y-68069711D01*
X163181786Y-68069707D01*
X163070292Y-67958213D01*
X163070288Y-67958210D01*
X162939185Y-67870609D01*
X162939172Y-67870602D01*
X162793501Y-67810264D01*
X162793489Y-67810261D01*
X162638845Y-67779500D01*
X162638842Y-67779500D01*
X162481158Y-67779500D01*
X162481155Y-67779500D01*
X162326510Y-67810261D01*
X162326498Y-67810264D01*
X162180827Y-67870602D01*
X162180814Y-67870609D01*
X162049711Y-67958210D01*
X162049707Y-67958213D01*
X161938213Y-68069707D01*
X161938210Y-68069711D01*
X161850609Y-68200814D01*
X161850602Y-68200827D01*
X161790264Y-68346498D01*
X161790261Y-68346510D01*
X161759500Y-68501153D01*
X161759500Y-68658846D01*
X161790261Y-68813489D01*
X161790264Y-68813501D01*
X161850602Y-68959172D01*
X161850609Y-68959185D01*
X161938210Y-69090288D01*
X161938213Y-69090292D01*
X162049707Y-69201786D01*
X162049711Y-69201789D01*
X162180814Y-69289390D01*
X162180827Y-69289397D01*
X162302288Y-69339707D01*
X162326503Y-69349737D01*
X162481153Y-69380499D01*
X162481156Y-69380500D01*
X162481158Y-69380500D01*
X162638844Y-69380500D01*
X162638845Y-69380499D01*
X162793497Y-69349737D01*
X162939179Y-69289394D01*
X162967607Y-69270398D01*
X163034283Y-69249520D01*
X163101664Y-69268003D01*
X163148355Y-69319981D01*
X163159533Y-69388951D01*
X163139602Y-69442389D01*
X163120611Y-69470811D01*
X163120602Y-69470827D01*
X163060264Y-69616498D01*
X163060261Y-69616510D01*
X163029500Y-69771153D01*
X163029500Y-69928846D01*
X163060261Y-70083489D01*
X163060264Y-70083501D01*
X163120602Y-70229172D01*
X163120609Y-70229185D01*
X163139601Y-70257608D01*
X163160479Y-70324286D01*
X163141994Y-70391666D01*
X163090016Y-70438356D01*
X163021046Y-70449532D01*
X162967608Y-70429601D01*
X162939185Y-70410609D01*
X162939172Y-70410602D01*
X162793501Y-70350264D01*
X162793489Y-70350261D01*
X162638845Y-70319500D01*
X162638842Y-70319500D01*
X162481158Y-70319500D01*
X162481155Y-70319500D01*
X162326510Y-70350261D01*
X162326498Y-70350264D01*
X162180827Y-70410602D01*
X162180814Y-70410609D01*
X162049711Y-70498210D01*
X162049707Y-70498213D01*
X161938213Y-70609707D01*
X161938210Y-70609711D01*
X161850609Y-70740814D01*
X161850602Y-70740827D01*
X161790264Y-70886498D01*
X161790261Y-70886510D01*
X161759500Y-71041153D01*
X161759500Y-71198846D01*
X161790261Y-71353489D01*
X161790264Y-71353501D01*
X161850602Y-71499172D01*
X161850609Y-71499185D01*
X161938210Y-71630288D01*
X161938213Y-71630292D01*
X162049707Y-71741786D01*
X162049711Y-71741789D01*
X162180814Y-71829390D01*
X162180827Y-71829397D01*
X162302288Y-71879707D01*
X162326503Y-71889737D01*
X162481153Y-71920499D01*
X162481156Y-71920500D01*
X162481158Y-71920500D01*
X162638844Y-71920500D01*
X162638845Y-71920499D01*
X162793497Y-71889737D01*
X162939179Y-71829394D01*
X162967607Y-71810398D01*
X163034283Y-71789520D01*
X163101664Y-71808003D01*
X163148355Y-71859981D01*
X163159533Y-71928951D01*
X163139602Y-71982389D01*
X163120611Y-72010811D01*
X163120602Y-72010827D01*
X163060264Y-72156498D01*
X163060261Y-72156510D01*
X163029500Y-72311153D01*
X163029500Y-72468846D01*
X163060261Y-72623489D01*
X163060264Y-72623501D01*
X163120602Y-72769172D01*
X163120609Y-72769185D01*
X163139601Y-72797608D01*
X163160479Y-72864286D01*
X163141994Y-72931666D01*
X163090016Y-72978356D01*
X163021046Y-72989532D01*
X162967608Y-72969601D01*
X162939185Y-72950609D01*
X162939172Y-72950602D01*
X162793501Y-72890264D01*
X162793489Y-72890261D01*
X162638845Y-72859500D01*
X162638842Y-72859500D01*
X162481158Y-72859500D01*
X162481155Y-72859500D01*
X162326510Y-72890261D01*
X162326498Y-72890264D01*
X162180827Y-72950602D01*
X162180814Y-72950609D01*
X162049711Y-73038210D01*
X162049707Y-73038213D01*
X161938213Y-73149707D01*
X161938210Y-73149711D01*
X161850609Y-73280814D01*
X161850602Y-73280827D01*
X161790264Y-73426498D01*
X161790261Y-73426510D01*
X161759500Y-73581153D01*
X161759500Y-73738846D01*
X161790261Y-73893489D01*
X161790264Y-73893501D01*
X161850602Y-74039172D01*
X161850609Y-74039185D01*
X161938210Y-74170288D01*
X161938213Y-74170292D01*
X162049707Y-74281786D01*
X162049711Y-74281789D01*
X162180814Y-74369390D01*
X162180827Y-74369397D01*
X162326498Y-74429735D01*
X162326503Y-74429737D01*
X162481153Y-74460499D01*
X162481156Y-74460500D01*
X162481158Y-74460500D01*
X162638844Y-74460500D01*
X162638845Y-74460499D01*
X162793497Y-74429737D01*
X162939179Y-74369394D01*
X162967607Y-74350398D01*
X163034283Y-74329520D01*
X163101664Y-74348003D01*
X163148355Y-74399981D01*
X163159533Y-74468951D01*
X163139602Y-74522389D01*
X163120611Y-74550811D01*
X163120602Y-74550827D01*
X163060264Y-74696498D01*
X163060261Y-74696510D01*
X163029500Y-74851153D01*
X163029500Y-75008846D01*
X163060261Y-75163489D01*
X163060264Y-75163501D01*
X163120602Y-75309172D01*
X163120609Y-75309185D01*
X163139601Y-75337608D01*
X163160479Y-75404286D01*
X163141994Y-75471666D01*
X163090016Y-75518356D01*
X163021046Y-75529532D01*
X162967608Y-75509601D01*
X162939185Y-75490609D01*
X162939172Y-75490602D01*
X162793501Y-75430264D01*
X162793489Y-75430261D01*
X162638845Y-75399500D01*
X162638842Y-75399500D01*
X162481158Y-75399500D01*
X162481155Y-75399500D01*
X162326510Y-75430261D01*
X162326498Y-75430264D01*
X162180827Y-75490602D01*
X162180814Y-75490609D01*
X162049711Y-75578210D01*
X162049707Y-75578213D01*
X161938213Y-75689707D01*
X161938210Y-75689711D01*
X161850609Y-75820814D01*
X161850602Y-75820827D01*
X161790264Y-75966498D01*
X161790261Y-75966510D01*
X161759500Y-76121153D01*
X161759500Y-76278846D01*
X161790261Y-76433489D01*
X161790264Y-76433501D01*
X161850602Y-76579172D01*
X161850609Y-76579185D01*
X161938210Y-76710288D01*
X161938213Y-76710292D01*
X162049707Y-76821786D01*
X162049711Y-76821789D01*
X162180814Y-76909390D01*
X162180827Y-76909397D01*
X162302288Y-76959707D01*
X162326503Y-76969737D01*
X162466443Y-76997573D01*
X162481153Y-77000499D01*
X162481156Y-77000500D01*
X162481158Y-77000500D01*
X162638844Y-77000500D01*
X162678102Y-76992691D01*
X162698572Y-76994522D01*
X162718891Y-76991424D01*
X162732666Y-76997573D01*
X162747694Y-76998918D01*
X162763926Y-77011527D01*
X162782693Y-77019905D01*
X162790957Y-77032526D01*
X162802871Y-77041781D01*
X162809708Y-77061163D01*
X162820968Y-77078358D01*
X162824727Y-77103734D01*
X162826116Y-77107670D01*
X162826289Y-77113248D01*
X162826294Y-77113833D01*
X162826294Y-77197542D01*
X162827041Y-77201300D01*
X162827125Y-77211068D01*
X162819028Y-77239543D01*
X162813510Y-77268627D01*
X162809578Y-77272773D01*
X162808015Y-77278274D01*
X162785801Y-77297856D01*
X162765442Y-77319334D01*
X162759892Y-77320697D01*
X162755604Y-77324478D01*
X162726335Y-77328941D01*
X162697590Y-77336004D01*
X162690993Y-77335533D01*
X162689641Y-77335400D01*
X162689636Y-77335400D01*
X162531952Y-77335400D01*
X162531949Y-77335400D01*
X162377304Y-77366161D01*
X162377292Y-77366164D01*
X162231621Y-77426502D01*
X162231608Y-77426509D01*
X162100505Y-77514110D01*
X162100501Y-77514113D01*
X162001788Y-77612827D01*
X161940465Y-77646312D01*
X161870773Y-77641328D01*
X161866655Y-77639707D01*
X161783501Y-77605264D01*
X161783489Y-77605261D01*
X161628845Y-77574500D01*
X161628842Y-77574500D01*
X161471158Y-77574500D01*
X161471155Y-77574500D01*
X161316510Y-77605261D01*
X161316498Y-77605264D01*
X161170827Y-77665602D01*
X161170814Y-77665609D01*
X161039711Y-77753210D01*
X161039707Y-77753213D01*
X160928213Y-77864707D01*
X160928210Y-77864711D01*
X160840609Y-77995814D01*
X160840604Y-77995823D01*
X160793794Y-78108835D01*
X160749953Y-78163238D01*
X160703425Y-78182999D01*
X160591508Y-78205261D01*
X160591498Y-78205264D01*
X160445827Y-78265602D01*
X160445809Y-78265612D01*
X160312104Y-78354951D01*
X160245427Y-78375829D01*
X160178047Y-78357344D01*
X160131357Y-78305365D01*
X160120181Y-78236395D01*
X160128650Y-78204405D01*
X160149737Y-78153497D01*
X160180500Y-77998842D01*
X160180500Y-77841158D01*
X160180500Y-77841155D01*
X160180499Y-77841153D01*
X160177765Y-77827409D01*
X160149737Y-77686503D01*
X160147415Y-77680897D01*
X160089397Y-77540827D01*
X160089390Y-77540814D01*
X160001789Y-77409711D01*
X160001786Y-77409707D01*
X159890292Y-77298213D01*
X159890288Y-77298210D01*
X159754114Y-77207221D01*
X159755354Y-77205364D01*
X159712649Y-77163419D01*
X159697184Y-77095283D01*
X159721012Y-77029602D01*
X159776567Y-76987229D01*
X159845135Y-76981400D01*
X159941155Y-77000500D01*
X159941158Y-77000500D01*
X160098844Y-77000500D01*
X160098845Y-77000499D01*
X160253497Y-76969737D01*
X160385618Y-76915011D01*
X160399172Y-76909397D01*
X160399172Y-76909396D01*
X160399179Y-76909394D01*
X160530289Y-76821789D01*
X160641789Y-76710289D01*
X160729394Y-76579179D01*
X160789737Y-76433497D01*
X160820500Y-76278842D01*
X160820500Y-76121158D01*
X160820500Y-76121155D01*
X160820499Y-76121153D01*
X160810894Y-76072868D01*
X160789737Y-75966503D01*
X160786072Y-75957654D01*
X160729397Y-75820827D01*
X160729390Y-75820814D01*
X160641789Y-75689711D01*
X160641786Y-75689707D01*
X160530292Y-75578213D01*
X160530288Y-75578210D01*
X160399185Y-75490609D01*
X160399172Y-75490602D01*
X160253501Y-75430264D01*
X160253489Y-75430261D01*
X160098845Y-75399500D01*
X160098842Y-75399500D01*
X159941158Y-75399500D01*
X159941155Y-75399500D01*
X159786510Y-75430261D01*
X159786498Y-75430264D01*
X159640827Y-75490602D01*
X159640811Y-75490611D01*
X159612389Y-75509602D01*
X159545712Y-75530479D01*
X159478332Y-75511994D01*
X159431642Y-75460014D01*
X159420467Y-75391044D01*
X159440398Y-75337608D01*
X159459394Y-75309179D01*
X159519737Y-75163497D01*
X159550500Y-75008842D01*
X159550500Y-74851158D01*
X159550500Y-74851155D01*
X159550499Y-74851153D01*
X159519738Y-74696510D01*
X159519737Y-74696503D01*
X159518839Y-74694336D01*
X159459397Y-74550827D01*
X159459390Y-74550814D01*
X159371789Y-74419711D01*
X159371786Y-74419707D01*
X159260292Y-74308213D01*
X159260288Y-74308210D01*
X159129185Y-74220609D01*
X159129172Y-74220602D01*
X158983501Y-74160264D01*
X158983489Y-74160261D01*
X158828845Y-74129500D01*
X158828842Y-74129500D01*
X158671158Y-74129500D01*
X158671155Y-74129500D01*
X158516510Y-74160261D01*
X158516498Y-74160264D01*
X158370827Y-74220602D01*
X158370814Y-74220609D01*
X158239711Y-74308210D01*
X158239707Y-74308213D01*
X158128213Y-74419707D01*
X158128210Y-74419711D01*
X158040609Y-74550814D01*
X158040602Y-74550827D01*
X157980264Y-74696498D01*
X157980261Y-74696510D01*
X157949500Y-74851153D01*
X157949500Y-75008846D01*
X157980261Y-75163489D01*
X157980264Y-75163501D01*
X158040602Y-75309172D01*
X158040609Y-75309185D01*
X158059601Y-75337608D01*
X158080479Y-75404286D01*
X158061994Y-75471666D01*
X158010016Y-75518356D01*
X157941046Y-75529532D01*
X157887608Y-75509601D01*
X157859185Y-75490609D01*
X157859172Y-75490602D01*
X157713501Y-75430264D01*
X157713489Y-75430261D01*
X157558845Y-75399500D01*
X157558842Y-75399500D01*
X157401158Y-75399500D01*
X157401155Y-75399500D01*
X157246510Y-75430261D01*
X157246498Y-75430264D01*
X157100827Y-75490602D01*
X157100811Y-75490611D01*
X157072389Y-75509602D01*
X157005712Y-75530479D01*
X156938332Y-75511994D01*
X156891642Y-75460014D01*
X156880467Y-75391044D01*
X156900398Y-75337608D01*
X156919394Y-75309179D01*
X156979737Y-75163497D01*
X157010500Y-75008842D01*
X157010500Y-74851158D01*
X157010500Y-74851155D01*
X157010499Y-74851153D01*
X157004125Y-74819105D01*
X157010352Y-74749513D01*
X157053215Y-74694336D01*
X157087422Y-74676983D01*
X157314379Y-74603241D01*
X157538845Y-74488870D01*
X157742656Y-74340793D01*
X157920793Y-74162656D01*
X158068870Y-73958845D01*
X158183241Y-73734379D01*
X158261090Y-73494785D01*
X158300500Y-73245962D01*
X158300500Y-72994038D01*
X158261090Y-72745215D01*
X158183241Y-72505621D01*
X158183239Y-72505618D01*
X158183239Y-72505616D01*
X158139808Y-72420379D01*
X158068870Y-72281155D01*
X158022246Y-72216982D01*
X157920798Y-72077350D01*
X157920794Y-72077345D01*
X157742654Y-71899205D01*
X157742649Y-71899201D01*
X157538848Y-71751132D01*
X157538847Y-71751131D01*
X157538845Y-71751130D01*
X157442410Y-71701994D01*
X157314383Y-71636760D01*
X157074787Y-71558910D01*
X157041528Y-71553642D01*
X156978394Y-71523711D01*
X156941463Y-71464399D01*
X156942463Y-71394536D01*
X156981074Y-71336304D01*
X157013472Y-71316610D01*
X157079179Y-71289394D01*
X157210289Y-71201789D01*
X157321789Y-71090289D01*
X157409394Y-70959179D01*
X157469737Y-70813497D01*
X157500500Y-70658842D01*
X157500500Y-70501158D01*
X157500500Y-70501155D01*
X157500499Y-70501153D01*
X158439500Y-70501153D01*
X158439500Y-70658846D01*
X158470261Y-70813489D01*
X158470264Y-70813501D01*
X158530602Y-70959172D01*
X158530609Y-70959185D01*
X158618210Y-71090288D01*
X158618213Y-71090292D01*
X158729707Y-71201786D01*
X158729711Y-71201789D01*
X158860814Y-71289390D01*
X158860827Y-71289397D01*
X159006498Y-71349735D01*
X159006503Y-71349737D01*
X159149404Y-71378162D01*
X159161153Y-71380499D01*
X159161156Y-71380500D01*
X159161158Y-71380500D01*
X159318844Y-71380500D01*
X159318845Y-71380499D01*
X159473497Y-71349737D01*
X159619179Y-71289394D01*
X159750289Y-71201789D01*
X159861789Y-71090289D01*
X159949394Y-70959179D01*
X160009737Y-70813497D01*
X160040500Y-70658842D01*
X160040500Y-70501158D01*
X160040500Y-70501155D01*
X160040499Y-70501153D01*
X160034658Y-70471789D01*
X160009737Y-70346503D01*
X160002652Y-70329398D01*
X159949397Y-70200827D01*
X159949390Y-70200814D01*
X159861789Y-70069711D01*
X159861786Y-70069707D01*
X159750292Y-69958213D01*
X159750288Y-69958210D01*
X159619185Y-69870609D01*
X159619172Y-69870602D01*
X159473501Y-69810264D01*
X159473489Y-69810261D01*
X159318845Y-69779500D01*
X159318842Y-69779500D01*
X159161158Y-69779500D01*
X159161155Y-69779500D01*
X159006510Y-69810261D01*
X159006498Y-69810264D01*
X158860827Y-69870602D01*
X158860814Y-69870609D01*
X158729711Y-69958210D01*
X158729707Y-69958213D01*
X158618213Y-70069707D01*
X158618210Y-70069711D01*
X158530609Y-70200814D01*
X158530602Y-70200827D01*
X158470264Y-70346498D01*
X158470261Y-70346510D01*
X158439500Y-70501153D01*
X157500499Y-70501153D01*
X157494658Y-70471789D01*
X157469737Y-70346503D01*
X157462652Y-70329398D01*
X157409397Y-70200827D01*
X157409390Y-70200814D01*
X157321789Y-70069711D01*
X157321786Y-70069707D01*
X157210292Y-69958213D01*
X157210288Y-69958210D01*
X157079185Y-69870609D01*
X157079172Y-69870602D01*
X156933501Y-69810264D01*
X156933489Y-69810261D01*
X156778845Y-69779500D01*
X156778842Y-69779500D01*
X156621158Y-69779500D01*
X156621155Y-69779500D01*
X156466510Y-69810261D01*
X156466498Y-69810264D01*
X156320827Y-69870602D01*
X156320814Y-69870609D01*
X156189711Y-69958210D01*
X156189707Y-69958213D01*
X156078213Y-70069707D01*
X156078210Y-70069711D01*
X155990609Y-70200814D01*
X155990602Y-70200827D01*
X155930264Y-70346498D01*
X155930261Y-70346510D01*
X155899500Y-70501153D01*
X155899500Y-70658846D01*
X155930261Y-70813489D01*
X155930264Y-70813501D01*
X155990602Y-70959172D01*
X155990609Y-70959185D01*
X156078210Y-71090288D01*
X156078213Y-71090292D01*
X156189707Y-71201786D01*
X156189711Y-71201789D01*
X156320814Y-71289390D01*
X156320821Y-71289394D01*
X156386524Y-71316609D01*
X156440926Y-71360447D01*
X156462992Y-71426741D01*
X156445714Y-71494441D01*
X156394577Y-71542052D01*
X156358472Y-71553642D01*
X156325211Y-71558910D01*
X156085616Y-71636760D01*
X155861151Y-71751132D01*
X155657350Y-71899201D01*
X155657345Y-71899205D01*
X155479205Y-72077345D01*
X155479201Y-72077350D01*
X155331132Y-72281151D01*
X155216760Y-72505616D01*
X155138910Y-72745214D01*
X155135114Y-72769179D01*
X155099500Y-72994038D01*
X155099500Y-73245962D01*
X155116802Y-73355200D01*
X155138910Y-73494785D01*
X155216760Y-73734383D01*
X155295413Y-73888747D01*
X155297829Y-73893489D01*
X155331132Y-73958848D01*
X155479201Y-74162649D01*
X155479205Y-74162654D01*
X155575553Y-74259002D01*
X155609038Y-74320325D01*
X155604054Y-74390017D01*
X155590974Y-74415573D01*
X155500612Y-74550809D01*
X155500602Y-74550827D01*
X155440264Y-74696498D01*
X155440261Y-74696510D01*
X155409500Y-74851153D01*
X155409500Y-75008846D01*
X155440261Y-75163489D01*
X155440264Y-75163501D01*
X155500602Y-75309172D01*
X155500609Y-75309185D01*
X155519601Y-75337608D01*
X155540479Y-75404286D01*
X155521994Y-75471666D01*
X155470016Y-75518356D01*
X155401046Y-75529532D01*
X155347608Y-75509601D01*
X155319185Y-75490609D01*
X155319172Y-75490602D01*
X155173501Y-75430264D01*
X155173489Y-75430261D01*
X155018845Y-75399500D01*
X155018842Y-75399500D01*
X154861158Y-75399500D01*
X154861155Y-75399500D01*
X154706510Y-75430261D01*
X154706498Y-75430264D01*
X154560827Y-75490602D01*
X154560814Y-75490609D01*
X154429711Y-75578210D01*
X154429707Y-75578213D01*
X154318213Y-75689707D01*
X154318210Y-75689711D01*
X154230609Y-75820814D01*
X154230602Y-75820827D01*
X154170264Y-75966498D01*
X154170261Y-75966510D01*
X154139500Y-76121153D01*
X154139500Y-76278846D01*
X154170261Y-76433489D01*
X154170264Y-76433501D01*
X154230602Y-76579172D01*
X154230609Y-76579185D01*
X154318210Y-76710288D01*
X154318213Y-76710292D01*
X154429707Y-76821786D01*
X154429711Y-76821789D01*
X154560814Y-76909390D01*
X154560827Y-76909397D01*
X154682288Y-76959707D01*
X154706503Y-76969737D01*
X154846443Y-76997573D01*
X154861153Y-77000499D01*
X154861156Y-77000500D01*
X154861158Y-77000500D01*
X155018844Y-77000500D01*
X155018845Y-77000499D01*
X155173497Y-76969737D01*
X155305618Y-76915011D01*
X155319172Y-76909397D01*
X155319172Y-76909396D01*
X155319179Y-76909394D01*
X155450289Y-76821789D01*
X155561789Y-76710289D01*
X155649394Y-76579179D01*
X155709737Y-76433497D01*
X155740500Y-76278842D01*
X155740500Y-76121158D01*
X155740500Y-76121155D01*
X155740499Y-76121153D01*
X155730894Y-76072868D01*
X155709737Y-75966503D01*
X155706072Y-75957654D01*
X155649397Y-75820827D01*
X155649395Y-75820823D01*
X155649394Y-75820821D01*
X155630398Y-75792391D01*
X155609520Y-75725714D01*
X155628004Y-75658334D01*
X155679983Y-75611643D01*
X155748953Y-75600467D01*
X155802391Y-75620398D01*
X155830815Y-75639390D01*
X155830821Y-75639394D01*
X155830823Y-75639395D01*
X155830827Y-75639397D01*
X155952288Y-75689707D01*
X155976503Y-75699737D01*
X156131153Y-75730499D01*
X156131156Y-75730500D01*
X156131158Y-75730500D01*
X156288844Y-75730500D01*
X156288845Y-75730499D01*
X156443497Y-75699737D01*
X156589179Y-75639394D01*
X156617607Y-75620398D01*
X156684283Y-75599520D01*
X156751664Y-75618003D01*
X156798355Y-75669981D01*
X156809533Y-75738951D01*
X156789602Y-75792389D01*
X156770611Y-75820811D01*
X156770602Y-75820827D01*
X156710264Y-75966498D01*
X156710261Y-75966510D01*
X156679500Y-76121153D01*
X156679500Y-76278846D01*
X156710261Y-76433489D01*
X156710264Y-76433501D01*
X156770602Y-76579172D01*
X156770609Y-76579185D01*
X156858210Y-76710288D01*
X156858213Y-76710292D01*
X156969707Y-76821786D01*
X156969711Y-76821789D01*
X157100814Y-76909390D01*
X157100827Y-76909397D01*
X157246502Y-76969737D01*
X157249617Y-76970682D01*
X157251047Y-76971619D01*
X157252130Y-76972068D01*
X157252044Y-76972273D01*
X157308054Y-77008982D01*
X157336508Y-77072795D01*
X157325945Y-77141862D01*
X157301299Y-77177021D01*
X157264614Y-77213706D01*
X157264610Y-77213711D01*
X157177009Y-77344814D01*
X157177002Y-77344827D01*
X157116664Y-77490498D01*
X157116661Y-77490510D01*
X157085900Y-77645153D01*
X157085900Y-77802846D01*
X157116661Y-77957489D01*
X157116664Y-77957501D01*
X157177002Y-78103172D01*
X157177009Y-78103185D01*
X157264610Y-78234288D01*
X157264613Y-78234292D01*
X157376107Y-78345786D01*
X157376111Y-78345789D01*
X157507214Y-78433390D01*
X157507227Y-78433397D01*
X157629668Y-78484113D01*
X157652903Y-78493737D01*
X157787806Y-78520571D01*
X157807553Y-78524499D01*
X157807556Y-78524500D01*
X157807558Y-78524500D01*
X157965244Y-78524500D01*
X157965245Y-78524499D01*
X158119897Y-78493737D01*
X158265579Y-78433394D01*
X158396689Y-78345789D01*
X158473205Y-78269272D01*
X158534526Y-78235789D01*
X158604218Y-78240773D01*
X158660152Y-78282644D01*
X158670242Y-78298499D01*
X158670606Y-78299180D01*
X158758210Y-78430288D01*
X158758213Y-78430292D01*
X158869707Y-78541786D01*
X158869711Y-78541789D01*
X159000814Y-78629390D01*
X159000827Y-78629397D01*
X159133345Y-78684287D01*
X159146503Y-78689737D01*
X159301153Y-78720499D01*
X159301156Y-78720500D01*
X159301158Y-78720500D01*
X159458844Y-78720500D01*
X159458845Y-78720499D01*
X159613497Y-78689737D01*
X159759179Y-78629394D01*
X159890289Y-78541789D01*
X159890290Y-78541787D01*
X159892894Y-78540048D01*
X159959571Y-78519170D01*
X160026951Y-78537654D01*
X160073642Y-78589633D01*
X160084818Y-78658603D01*
X160076347Y-78690600D01*
X160055263Y-78741503D01*
X160055262Y-78741506D01*
X160055262Y-78741507D01*
X160055261Y-78741510D01*
X160024500Y-78896153D01*
X160024500Y-79053846D01*
X160055260Y-79208488D01*
X160055265Y-79208504D01*
X160055359Y-79208730D01*
X160055372Y-79208857D01*
X160057030Y-79214320D01*
X160055993Y-79214634D01*
X160062820Y-79278200D01*
X160031539Y-79340676D01*
X160009684Y-79359272D01*
X159906511Y-79428210D01*
X159906507Y-79428213D01*
X159795013Y-79539707D01*
X159795010Y-79539711D01*
X159707409Y-79670814D01*
X159707402Y-79670827D01*
X159647064Y-79816498D01*
X159647061Y-79816510D01*
X159616300Y-79971153D01*
X159616300Y-80128846D01*
X159647061Y-80283489D01*
X159647064Y-80283501D01*
X159707402Y-80429172D01*
X159707409Y-80429185D01*
X159795010Y-80560288D01*
X159795013Y-80560292D01*
X159906507Y-80671786D01*
X159906511Y-80671789D01*
X160037614Y-80759390D01*
X160037627Y-80759397D01*
X160183298Y-80819735D01*
X160183303Y-80819737D01*
X160337953Y-80850499D01*
X160337956Y-80850500D01*
X160337958Y-80850500D01*
X160495644Y-80850500D01*
X160495645Y-80850499D01*
X160650297Y-80819737D01*
X160795979Y-80759394D01*
X160890784Y-80696046D01*
X160957459Y-80675170D01*
X161024839Y-80693654D01*
X161062775Y-80730260D01*
X161115807Y-80809628D01*
X161115813Y-80809636D01*
X161227307Y-80921130D01*
X161227311Y-80921133D01*
X161358414Y-81008734D01*
X161358427Y-81008741D01*
X161492341Y-81064209D01*
X161504103Y-81069081D01*
X161658753Y-81099843D01*
X161658756Y-81099844D01*
X161658758Y-81099844D01*
X161816444Y-81099844D01*
X161816445Y-81099843D01*
X161971097Y-81069081D01*
X162116779Y-81008738D01*
X162247889Y-80921133D01*
X162359389Y-80809633D01*
X162446994Y-80678523D01*
X162507337Y-80532841D01*
X162538100Y-80378186D01*
X162538100Y-80220502D01*
X162538100Y-80220499D01*
X162538099Y-80220497D01*
X162520328Y-80131158D01*
X162507337Y-80065847D01*
X162484953Y-80011806D01*
X162446997Y-79920171D01*
X162446990Y-79920158D01*
X162359389Y-79789055D01*
X162359386Y-79789051D01*
X162247892Y-79677557D01*
X162247888Y-79677554D01*
X162116785Y-79589953D01*
X162116772Y-79589946D01*
X161971101Y-79529608D01*
X161971089Y-79529605D01*
X161816445Y-79498844D01*
X161816442Y-79498844D01*
X161660051Y-79498844D01*
X161628581Y-79489603D01*
X161596779Y-79481487D01*
X161595213Y-79479805D01*
X161593012Y-79479159D01*
X161571537Y-79454376D01*
X161549168Y-79430350D01*
X161548760Y-79428089D01*
X161547257Y-79426355D01*
X161542588Y-79393886D01*
X161536761Y-79361591D01*
X161537518Y-79358624D01*
X161537313Y-79357197D01*
X161545489Y-79327393D01*
X161581206Y-79241163D01*
X161625045Y-79186762D01*
X161671575Y-79167000D01*
X161697649Y-79161813D01*
X161783497Y-79144737D01*
X161929179Y-79084394D01*
X162060289Y-78996789D01*
X162159007Y-78898070D01*
X162220328Y-78864587D01*
X162290020Y-78869571D01*
X162294115Y-78871182D01*
X162377297Y-78905637D01*
X162531947Y-78936399D01*
X162531950Y-78936400D01*
X162531952Y-78936400D01*
X162689638Y-78936400D01*
X162689639Y-78936399D01*
X162844291Y-78905637D01*
X162989973Y-78845294D01*
X163121083Y-78757689D01*
X163232583Y-78646189D01*
X163320188Y-78515079D01*
X163380531Y-78369397D01*
X163411294Y-78214742D01*
X163411294Y-78057058D01*
X163411294Y-78057055D01*
X163411055Y-78054630D01*
X163411294Y-78053369D01*
X163411294Y-78050966D01*
X163411750Y-78050966D01*
X163413994Y-78039129D01*
X163411919Y-78023488D01*
X163420369Y-78005504D01*
X163424071Y-77985983D01*
X163434923Y-77974532D01*
X163441634Y-77960252D01*
X163458466Y-77949691D01*
X163472134Y-77935271D01*
X163488211Y-77931030D01*
X163500821Y-77923120D01*
X163526986Y-77920804D01*
X163535808Y-77918478D01*
X163544815Y-77918576D01*
X163547952Y-77919200D01*
X163602072Y-77919200D01*
X163602714Y-77919207D01*
X163635551Y-77929238D01*
X163668402Y-77938885D01*
X163668861Y-77939415D01*
X163669535Y-77939621D01*
X163691736Y-77965813D01*
X163714157Y-77991689D01*
X163714256Y-77992384D01*
X163714712Y-77992921D01*
X163719221Y-78026911D01*
X163724101Y-78060847D01*
X163723846Y-78061773D01*
X163723901Y-78062183D01*
X163723501Y-78063034D01*
X163715926Y-78090647D01*
X163711057Y-78102403D01*
X163711056Y-78102406D01*
X163711056Y-78102407D01*
X163711055Y-78102410D01*
X163680294Y-78257053D01*
X163680294Y-78414746D01*
X163711055Y-78569389D01*
X163711058Y-78569401D01*
X163771396Y-78715072D01*
X163771403Y-78715085D01*
X163859004Y-78846188D01*
X163859007Y-78846192D01*
X163970501Y-78957686D01*
X163970505Y-78957689D01*
X164101608Y-79045290D01*
X164101612Y-79045292D01*
X164101615Y-79045294D01*
X164247297Y-79105637D01*
X164247305Y-79105638D01*
X164250061Y-79106780D01*
X164304464Y-79150621D01*
X164324226Y-79197150D01*
X164330261Y-79227491D01*
X164330264Y-79227501D01*
X164390602Y-79373172D01*
X164390609Y-79373185D01*
X164478210Y-79504288D01*
X164478213Y-79504292D01*
X164589707Y-79615786D01*
X164589711Y-79615789D01*
X164720814Y-79703390D01*
X164720827Y-79703397D01*
X164853845Y-79758494D01*
X164866503Y-79763737D01*
X165021153Y-79794499D01*
X165021156Y-79794500D01*
X165021158Y-79794500D01*
X165178844Y-79794500D01*
X165178845Y-79794499D01*
X165333497Y-79763737D01*
X165479179Y-79703394D01*
X165479184Y-79703390D01*
X165484552Y-79700522D01*
X165485664Y-79702603D01*
X165542358Y-79684844D01*
X165609740Y-79703321D01*
X165613477Y-79705722D01*
X165686014Y-79754190D01*
X165686027Y-79754197D01*
X165783329Y-79794500D01*
X165831703Y-79814537D01*
X165986353Y-79845299D01*
X165986356Y-79845300D01*
X165986358Y-79845300D01*
X166144044Y-79845300D01*
X166144045Y-79845299D01*
X166298697Y-79814537D01*
X166375789Y-79782604D01*
X166445255Y-79775136D01*
X166507734Y-79806411D01*
X166526341Y-79828275D01*
X166611810Y-79956188D01*
X166611813Y-79956192D01*
X166723307Y-80067686D01*
X166723311Y-80067689D01*
X166854414Y-80155290D01*
X166854421Y-80155294D01*
X166897032Y-80172944D01*
X166951435Y-80216784D01*
X166973501Y-80283078D01*
X166971197Y-80311696D01*
X166940294Y-80467053D01*
X166940294Y-80624746D01*
X166971055Y-80779389D01*
X166971058Y-80779401D01*
X167031396Y-80925072D01*
X167031403Y-80925085D01*
X167119004Y-81056188D01*
X167119007Y-81056192D01*
X167230501Y-81167686D01*
X167230505Y-81167689D01*
X167361608Y-81255290D01*
X167361621Y-81255297D01*
X167445886Y-81290200D01*
X167507297Y-81315637D01*
X167579535Y-81330006D01*
X167656445Y-81345305D01*
X167718356Y-81377690D01*
X167752930Y-81438405D01*
X167753871Y-81442730D01*
X167781055Y-81579391D01*
X167781058Y-81579401D01*
X167841396Y-81725072D01*
X167841403Y-81725085D01*
X167929004Y-81856188D01*
X167929007Y-81856192D01*
X168040501Y-81967686D01*
X168040505Y-81967689D01*
X168171608Y-82055290D01*
X168171621Y-82055297D01*
X168317292Y-82115635D01*
X168317297Y-82115637D01*
X168436007Y-82139250D01*
X168471947Y-82146399D01*
X168471950Y-82146400D01*
X168471952Y-82146400D01*
X168629638Y-82146400D01*
X168629639Y-82146399D01*
X168784291Y-82115637D01*
X168929973Y-82055294D01*
X169061083Y-81967689D01*
X169172583Y-81856189D01*
X169260188Y-81725079D01*
X169320531Y-81579397D01*
X169351294Y-81424742D01*
X169351294Y-81267058D01*
X169351294Y-81267055D01*
X169351293Y-81267053D01*
X169341478Y-81217711D01*
X169320531Y-81112403D01*
X169300569Y-81064209D01*
X169260191Y-80966727D01*
X169260184Y-80966714D01*
X169172583Y-80835611D01*
X169172580Y-80835607D01*
X169061086Y-80724113D01*
X169061082Y-80724110D01*
X168929979Y-80636509D01*
X168929966Y-80636502D01*
X168784295Y-80576164D01*
X168784285Y-80576161D01*
X168635141Y-80546494D01*
X168573230Y-80514109D01*
X168538656Y-80453393D01*
X168537716Y-80449068D01*
X168523080Y-80375492D01*
X168510531Y-80312403D01*
X168510238Y-80311696D01*
X168450191Y-80166727D01*
X168450184Y-80166714D01*
X168362583Y-80035611D01*
X168362580Y-80035607D01*
X168251086Y-79924113D01*
X168251082Y-79924110D01*
X168119979Y-79836509D01*
X168119970Y-79836504D01*
X168077360Y-79818855D01*
X168022957Y-79775014D01*
X168000892Y-79708720D01*
X168003196Y-79680102D01*
X168003335Y-79679400D01*
X168003337Y-79679397D01*
X168023534Y-79577857D01*
X168034100Y-79524744D01*
X168034100Y-79367055D01*
X168034099Y-79367053D01*
X168032422Y-79358624D01*
X168003337Y-79212403D01*
X167990222Y-79180740D01*
X167942997Y-79066727D01*
X167942990Y-79066714D01*
X167855389Y-78935611D01*
X167855386Y-78935607D01*
X167743892Y-78824113D01*
X167743888Y-78824110D01*
X167612785Y-78736509D01*
X167612772Y-78736502D01*
X167467101Y-78676164D01*
X167467089Y-78676161D01*
X167312445Y-78645400D01*
X167312442Y-78645400D01*
X167154758Y-78645400D01*
X167154755Y-78645400D01*
X167000110Y-78676161D01*
X167000107Y-78676162D01*
X167000106Y-78676162D01*
X167000103Y-78676163D01*
X166923012Y-78708095D01*
X166853542Y-78715563D01*
X166791063Y-78684287D01*
X166772458Y-78662424D01*
X166686989Y-78534511D01*
X166686986Y-78534507D01*
X166585322Y-78432843D01*
X166551837Y-78371520D01*
X166556821Y-78301828D01*
X166598693Y-78245895D01*
X166625541Y-78230605D01*
X166749179Y-78179394D01*
X166880289Y-78091789D01*
X166991789Y-77980289D01*
X167079394Y-77849179D01*
X167082719Y-77841153D01*
X167119145Y-77753210D01*
X167139737Y-77703497D01*
X167170500Y-77548842D01*
X167170500Y-77391158D01*
X167170500Y-77391155D01*
X167170499Y-77391153D01*
X167165528Y-77366161D01*
X167139737Y-77236503D01*
X167129202Y-77211068D01*
X167079397Y-77090827D01*
X167079395Y-77090823D01*
X167079394Y-77090821D01*
X167079099Y-77090380D01*
X167060398Y-77062391D01*
X167039520Y-76995714D01*
X167058004Y-76928334D01*
X167109983Y-76881643D01*
X167178953Y-76870467D01*
X167232391Y-76890398D01*
X167247718Y-76900639D01*
X167260821Y-76909394D01*
X167260823Y-76909395D01*
X167260827Y-76909397D01*
X167382288Y-76959707D01*
X167406503Y-76969737D01*
X167546443Y-76997573D01*
X167561153Y-77000499D01*
X167561156Y-77000500D01*
X167561158Y-77000500D01*
X167718844Y-77000500D01*
X167718845Y-77000499D01*
X167873497Y-76969737D01*
X168005618Y-76915011D01*
X168019172Y-76909397D01*
X168019172Y-76909396D01*
X168019179Y-76909394D01*
X168047607Y-76890398D01*
X168114283Y-76869520D01*
X168181664Y-76888003D01*
X168228355Y-76939981D01*
X168239533Y-77008951D01*
X168219602Y-77062389D01*
X168200611Y-77090811D01*
X168200602Y-77090827D01*
X168140264Y-77236498D01*
X168140261Y-77236510D01*
X168109500Y-77391153D01*
X168109500Y-77548846D01*
X168140261Y-77703489D01*
X168140264Y-77703501D01*
X168200602Y-77849172D01*
X168200609Y-77849185D01*
X168288210Y-77980288D01*
X168288213Y-77980292D01*
X168399707Y-78091786D01*
X168399711Y-78091789D01*
X168530814Y-78179390D01*
X168530827Y-78179397D01*
X168674132Y-78238755D01*
X168676503Y-78239737D01*
X168824995Y-78269274D01*
X168831153Y-78270499D01*
X168831156Y-78270500D01*
X168831158Y-78270500D01*
X168988843Y-78270500D01*
X169031564Y-78262002D01*
X169062868Y-78255775D01*
X169132459Y-78262002D01*
X169187637Y-78304864D01*
X169210882Y-78370754D01*
X169194815Y-78438751D01*
X169174742Y-78465073D01*
X169101004Y-78538811D01*
X169013403Y-78669914D01*
X169013396Y-78669927D01*
X168953058Y-78815598D01*
X168953055Y-78815610D01*
X168922294Y-78970253D01*
X168922294Y-79127946D01*
X168953055Y-79282589D01*
X168953058Y-79282601D01*
X169013396Y-79428272D01*
X169013403Y-79428285D01*
X169101004Y-79559388D01*
X169101007Y-79559392D01*
X169212501Y-79670886D01*
X169212505Y-79670889D01*
X169343608Y-79758490D01*
X169343621Y-79758497D01*
X169483486Y-79816430D01*
X169489297Y-79818837D01*
X169578140Y-79836509D01*
X169643947Y-79849599D01*
X169643950Y-79849600D01*
X169643952Y-79849600D01*
X169801638Y-79849600D01*
X169801639Y-79849599D01*
X169956291Y-79818837D01*
X170101973Y-79758494D01*
X170233083Y-79670889D01*
X170344583Y-79559389D01*
X170432188Y-79428279D01*
X170439967Y-79409500D01*
X170454940Y-79373350D01*
X170492531Y-79282597D01*
X170523294Y-79127942D01*
X170523294Y-78970258D01*
X170523294Y-78970255D01*
X170523293Y-78970253D01*
X170510440Y-78905636D01*
X170492531Y-78815603D01*
X170489104Y-78807329D01*
X170432191Y-78669927D01*
X170432184Y-78669914D01*
X170344583Y-78538811D01*
X170344580Y-78538807D01*
X170233086Y-78427313D01*
X170233082Y-78427310D01*
X170101979Y-78339709D01*
X170101966Y-78339702D01*
X169956295Y-78279364D01*
X169956283Y-78279361D01*
X169801639Y-78248600D01*
X169801636Y-78248600D01*
X169643952Y-78248600D01*
X169643947Y-78248600D01*
X169569924Y-78263324D01*
X169500332Y-78257097D01*
X169445155Y-78214233D01*
X169421911Y-78148343D01*
X169437979Y-78080347D01*
X169458048Y-78054029D01*
X169531789Y-77980289D01*
X169619394Y-77849179D01*
X169622719Y-77841153D01*
X169659145Y-77753210D01*
X169679737Y-77703497D01*
X169710500Y-77548842D01*
X169710500Y-77391158D01*
X169710500Y-77391155D01*
X169710499Y-77391153D01*
X169705528Y-77366161D01*
X169679737Y-77236503D01*
X169669202Y-77211068D01*
X169619397Y-77090827D01*
X169619395Y-77090823D01*
X169619394Y-77090821D01*
X169619099Y-77090380D01*
X169600398Y-77062391D01*
X169579520Y-76995714D01*
X169598004Y-76928334D01*
X169649983Y-76881643D01*
X169718953Y-76870467D01*
X169772391Y-76890398D01*
X169787718Y-76900639D01*
X169800821Y-76909394D01*
X169800823Y-76909395D01*
X169800827Y-76909397D01*
X169922288Y-76959707D01*
X169946503Y-76969737D01*
X170086443Y-76997573D01*
X170101153Y-77000499D01*
X170101156Y-77000500D01*
X170101158Y-77000500D01*
X170258844Y-77000500D01*
X170258845Y-77000499D01*
X170413497Y-76969737D01*
X170545618Y-76915011D01*
X170559172Y-76909397D01*
X170559172Y-76909396D01*
X170559179Y-76909394D01*
X170587607Y-76890398D01*
X170654283Y-76869520D01*
X170721664Y-76888003D01*
X170768355Y-76939981D01*
X170779533Y-77008951D01*
X170759602Y-77062389D01*
X170740611Y-77090811D01*
X170740602Y-77090827D01*
X170680264Y-77236498D01*
X170680261Y-77236510D01*
X170649500Y-77391153D01*
X170649500Y-77548846D01*
X170680261Y-77703489D01*
X170680264Y-77703501D01*
X170740602Y-77849172D01*
X170740609Y-77849185D01*
X170828210Y-77980288D01*
X170828213Y-77980292D01*
X170939707Y-78091786D01*
X170939711Y-78091789D01*
X171070814Y-78179390D01*
X171070827Y-78179397D01*
X171193376Y-78230158D01*
X171247780Y-78273999D01*
X171269845Y-78340293D01*
X171252566Y-78407992D01*
X171214816Y-78447821D01*
X171160501Y-78484113D01*
X171049007Y-78595607D01*
X171049004Y-78595611D01*
X170961403Y-78726714D01*
X170961396Y-78726727D01*
X170901058Y-78872398D01*
X170901055Y-78872410D01*
X170870294Y-79027053D01*
X170870294Y-79184746D01*
X170901055Y-79339389D01*
X170901058Y-79339401D01*
X170961396Y-79485072D01*
X170961403Y-79485085D01*
X171049004Y-79616188D01*
X171049007Y-79616192D01*
X171160501Y-79727686D01*
X171160505Y-79727689D01*
X171291608Y-79815290D01*
X171291621Y-79815297D01*
X171442925Y-79877968D01*
X171442102Y-79879954D01*
X171492415Y-79912930D01*
X171519595Y-79969097D01*
X171543861Y-80091091D01*
X171543864Y-80091101D01*
X171604202Y-80236772D01*
X171604209Y-80236785D01*
X171691810Y-80367888D01*
X171691813Y-80367892D01*
X171803310Y-80479389D01*
X171865592Y-80521004D01*
X171910397Y-80574616D01*
X171918119Y-80636099D01*
X171920097Y-80636294D01*
X171919500Y-80642356D01*
X171919500Y-80800046D01*
X171950261Y-80954689D01*
X171950264Y-80954701D01*
X172010602Y-81100372D01*
X172010609Y-81100385D01*
X172098210Y-81231488D01*
X172098213Y-81231492D01*
X172209707Y-81342986D01*
X172209715Y-81342992D01*
X172335419Y-81426985D01*
X172380225Y-81480597D01*
X172388932Y-81549922D01*
X172388147Y-81554277D01*
X172379630Y-81597100D01*
X172376694Y-81611859D01*
X172376694Y-81769546D01*
X172407455Y-81924189D01*
X172407458Y-81924201D01*
X172467796Y-82069872D01*
X172467803Y-82069885D01*
X172555404Y-82200988D01*
X172555407Y-82200992D01*
X172666901Y-82312486D01*
X172666905Y-82312489D01*
X172798008Y-82400090D01*
X172798021Y-82400097D01*
X172898751Y-82441820D01*
X172943697Y-82460437D01*
X173091676Y-82489872D01*
X173098347Y-82491199D01*
X173098350Y-82491200D01*
X173098352Y-82491200D01*
X173256038Y-82491200D01*
X173371548Y-82468223D01*
X173441140Y-82474450D01*
X173496317Y-82517313D01*
X173498842Y-82520949D01*
X173559004Y-82610989D01*
X173670501Y-82722486D01*
X173670505Y-82722489D01*
X173801608Y-82810090D01*
X173801621Y-82810097D01*
X173923157Y-82860438D01*
X173947297Y-82870437D01*
X173990066Y-82878944D01*
X174026033Y-82886099D01*
X174087944Y-82918484D01*
X174122518Y-82979199D01*
X174118779Y-83048969D01*
X174077912Y-83105641D01*
X174026034Y-83129333D01*
X173917302Y-83150961D01*
X173917292Y-83150964D01*
X173771621Y-83211302D01*
X173771608Y-83211309D01*
X173640505Y-83298910D01*
X173640501Y-83298913D01*
X173529007Y-83410407D01*
X173529004Y-83410411D01*
X173441403Y-83541514D01*
X173441396Y-83541527D01*
X173381058Y-83687198D01*
X173381055Y-83687210D01*
X173350294Y-83841853D01*
X173350294Y-83999546D01*
X173381055Y-84154189D01*
X173381058Y-84154201D01*
X173441396Y-84299872D01*
X173441403Y-84299885D01*
X173529004Y-84430988D01*
X173529007Y-84430992D01*
X173640501Y-84542486D01*
X173640505Y-84542489D01*
X173771608Y-84630090D01*
X173771621Y-84630097D01*
X173909550Y-84687228D01*
X173917297Y-84690437D01*
X174071947Y-84721199D01*
X174071950Y-84721200D01*
X174071952Y-84721200D01*
X174229638Y-84721200D01*
X174229639Y-84721199D01*
X174384291Y-84690437D01*
X174515843Y-84635946D01*
X174585309Y-84628478D01*
X174610740Y-84635945D01*
X174742296Y-84690437D01*
X174896946Y-84721199D01*
X174896949Y-84721200D01*
X174896951Y-84721200D01*
X175054637Y-84721200D01*
X175054638Y-84721199D01*
X175209290Y-84690437D01*
X175340842Y-84635946D01*
X175410308Y-84628478D01*
X175435739Y-84635945D01*
X175567295Y-84690437D01*
X175721945Y-84721199D01*
X175721948Y-84721200D01*
X175721950Y-84721200D01*
X175879636Y-84721200D01*
X175879637Y-84721199D01*
X176034289Y-84690437D01*
X176179971Y-84630094D01*
X176311081Y-84542489D01*
X176422581Y-84430989D01*
X176510186Y-84299879D01*
X176570529Y-84154197D01*
X176601292Y-83999542D01*
X176601292Y-83841858D01*
X176601292Y-83841855D01*
X176601291Y-83841853D01*
X176571656Y-83692869D01*
X176570529Y-83687203D01*
X176570527Y-83687198D01*
X176510189Y-83541527D01*
X176510182Y-83541514D01*
X176422581Y-83410411D01*
X176422578Y-83410407D01*
X176311084Y-83298913D01*
X176311080Y-83298910D01*
X176179977Y-83211309D01*
X176179964Y-83211302D01*
X176034293Y-83150964D01*
X176034281Y-83150961D01*
X175965689Y-83137317D01*
X175903778Y-83104932D01*
X175869204Y-83044216D01*
X175872943Y-82974447D01*
X175913810Y-82917775D01*
X175965689Y-82894083D01*
X176005824Y-82886099D01*
X176034289Y-82880437D01*
X176179971Y-82820094D01*
X176311081Y-82732489D01*
X176422581Y-82620989D01*
X176510186Y-82489879D01*
X176513040Y-82482990D01*
X176523859Y-82456866D01*
X176570529Y-82344197D01*
X176601292Y-82189542D01*
X176601292Y-82031858D01*
X176601292Y-82031855D01*
X176601291Y-82031853D01*
X176585495Y-81952442D01*
X176570529Y-81877203D01*
X176561825Y-81856189D01*
X176510189Y-81731527D01*
X176510182Y-81731514D01*
X176422581Y-81600411D01*
X176422578Y-81600407D01*
X176311084Y-81488913D01*
X176311080Y-81488910D01*
X176179977Y-81401309D01*
X176179964Y-81401302D01*
X176034293Y-81340964D01*
X176034281Y-81340961D01*
X175879637Y-81310200D01*
X175879634Y-81310200D01*
X175721950Y-81310200D01*
X175721947Y-81310200D01*
X175567302Y-81340961D01*
X175567295Y-81340963D01*
X175467385Y-81382346D01*
X175397916Y-81389814D01*
X175372482Y-81382345D01*
X175224294Y-81320964D01*
X175224282Y-81320961D01*
X175069638Y-81290200D01*
X175069635Y-81290200D01*
X174960776Y-81290200D01*
X174893737Y-81270515D01*
X174847982Y-81217711D01*
X174839159Y-81190392D01*
X174810538Y-81046508D01*
X174810537Y-81046507D01*
X174810537Y-81046503D01*
X174806872Y-81037654D01*
X174750197Y-80900827D01*
X174750190Y-80900814D01*
X174662589Y-80769711D01*
X174662586Y-80769707D01*
X174551092Y-80658213D01*
X174551088Y-80658210D01*
X174419985Y-80570609D01*
X174419972Y-80570602D01*
X174274301Y-80510264D01*
X174274289Y-80510261D01*
X174119645Y-80479500D01*
X174119642Y-80479500D01*
X173961958Y-80479500D01*
X173961955Y-80479500D01*
X173807310Y-80510261D01*
X173807307Y-80510262D01*
X173807306Y-80510262D01*
X173807303Y-80510263D01*
X173752785Y-80532845D01*
X173657648Y-80572251D01*
X173588178Y-80579719D01*
X173525699Y-80548443D01*
X173492874Y-80493119D01*
X173491506Y-80493535D01*
X173489735Y-80487698D01*
X173429397Y-80342027D01*
X173429390Y-80342014D01*
X173341789Y-80210911D01*
X173341786Y-80210907D01*
X173230291Y-80099412D01*
X173213077Y-80087910D01*
X173168006Y-80057795D01*
X173123203Y-80004185D01*
X173115480Y-79942701D01*
X173113503Y-79942507D01*
X173114100Y-79936444D01*
X173114100Y-79778755D01*
X173114099Y-79778753D01*
X173108284Y-79749519D01*
X173083337Y-79624103D01*
X173069192Y-79589953D01*
X173058966Y-79565265D01*
X174690293Y-79565265D01*
X174728165Y-79755654D01*
X174728167Y-79755660D01*
X174793310Y-79912930D01*
X174802456Y-79935009D01*
X174826610Y-79971158D01*
X174910307Y-80096421D01*
X175047572Y-80233686D01*
X175047575Y-80233688D01*
X175208985Y-80341538D01*
X175388334Y-80415827D01*
X175388338Y-80415827D01*
X175388339Y-80415828D01*
X175578728Y-80453700D01*
X175578731Y-80453700D01*
X175772859Y-80453700D01*
X175900948Y-80428220D01*
X175963254Y-80415827D01*
X176142603Y-80341538D01*
X176304013Y-80233688D01*
X176441282Y-80096419D01*
X176549132Y-79935009D01*
X176623421Y-79755660D01*
X176648160Y-79631292D01*
X176661294Y-79565265D01*
X176661294Y-79371134D01*
X176623422Y-79180745D01*
X176623421Y-79180744D01*
X176623421Y-79180740D01*
X176549132Y-79001391D01*
X176441282Y-78839981D01*
X176441280Y-78839978D01*
X176304015Y-78702713D01*
X176218239Y-78645400D01*
X176142603Y-78594862D01*
X175963254Y-78520573D01*
X175963248Y-78520571D01*
X175772859Y-78482700D01*
X175772857Y-78482700D01*
X175578731Y-78482700D01*
X175578729Y-78482700D01*
X175388339Y-78520571D01*
X175388333Y-78520573D01*
X175208986Y-78594861D01*
X175047572Y-78702713D01*
X174910307Y-78839978D01*
X174802455Y-79001392D01*
X174728167Y-79180739D01*
X174728165Y-79180745D01*
X174690294Y-79371134D01*
X174690294Y-79371137D01*
X174690294Y-79565263D01*
X174690294Y-79565265D01*
X174690293Y-79565265D01*
X173058966Y-79565265D01*
X173022997Y-79478427D01*
X173022987Y-79478409D01*
X172993272Y-79433937D01*
X172993271Y-79433936D01*
X172935389Y-79347311D01*
X172935386Y-79347307D01*
X172823892Y-79235813D01*
X172823888Y-79235810D01*
X172692785Y-79148209D01*
X172692772Y-79148202D01*
X172541470Y-79085532D01*
X172542291Y-79083549D01*
X172491966Y-79050556D01*
X172464798Y-78994401D01*
X172459995Y-78970253D01*
X172440531Y-78872403D01*
X172429673Y-78846189D01*
X172380191Y-78726727D01*
X172380184Y-78726714D01*
X172292583Y-78595611D01*
X172292580Y-78595607D01*
X172181086Y-78484113D01*
X172181082Y-78484110D01*
X172049979Y-78396509D01*
X172049970Y-78396504D01*
X171927416Y-78345741D01*
X171873013Y-78301900D01*
X171850948Y-78235606D01*
X171868227Y-78167906D01*
X171905976Y-78128079D01*
X171960289Y-78091789D01*
X172071789Y-77980289D01*
X172159394Y-77849179D01*
X172162719Y-77841153D01*
X172199145Y-77753210D01*
X172219737Y-77703497D01*
X172250500Y-77548842D01*
X172250500Y-77391158D01*
X172250500Y-77391155D01*
X172250499Y-77391153D01*
X172245528Y-77366161D01*
X172219737Y-77236503D01*
X172209202Y-77211068D01*
X172159397Y-77090827D01*
X172159395Y-77090823D01*
X172159394Y-77090821D01*
X172159099Y-77090380D01*
X172140398Y-77062391D01*
X172119520Y-76995714D01*
X172138004Y-76928334D01*
X172189983Y-76881643D01*
X172258953Y-76870467D01*
X172312391Y-76890398D01*
X172327718Y-76900639D01*
X172340821Y-76909394D01*
X172340823Y-76909395D01*
X172340827Y-76909397D01*
X172462288Y-76959707D01*
X172486503Y-76969737D01*
X172626443Y-76997573D01*
X172641153Y-77000499D01*
X172641156Y-77000500D01*
X172641158Y-77000500D01*
X172798844Y-77000500D01*
X172798845Y-77000499D01*
X172953497Y-76969737D01*
X173085618Y-76915011D01*
X173099172Y-76909397D01*
X173099172Y-76909396D01*
X173099179Y-76909394D01*
X173127607Y-76890398D01*
X173194283Y-76869520D01*
X173261664Y-76888003D01*
X173308355Y-76939981D01*
X173319533Y-77008951D01*
X173299602Y-77062389D01*
X173280611Y-77090811D01*
X173280602Y-77090827D01*
X173220264Y-77236498D01*
X173220261Y-77236510D01*
X173189500Y-77391153D01*
X173189500Y-77548846D01*
X173220261Y-77703489D01*
X173220264Y-77703501D01*
X173280602Y-77849172D01*
X173280609Y-77849185D01*
X173368210Y-77980288D01*
X173368213Y-77980292D01*
X173479707Y-78091786D01*
X173479711Y-78091789D01*
X173610814Y-78179390D01*
X173610827Y-78179397D01*
X173754132Y-78238755D01*
X173756503Y-78239737D01*
X173904995Y-78269274D01*
X173911153Y-78270499D01*
X173911156Y-78270500D01*
X173911158Y-78270500D01*
X174068844Y-78270500D01*
X174068845Y-78270499D01*
X174223497Y-78239737D01*
X174369179Y-78179394D01*
X174500289Y-78091789D01*
X174611789Y-77980289D01*
X174699394Y-77849179D01*
X174702719Y-77841153D01*
X174739145Y-77753210D01*
X174759737Y-77703497D01*
X174790500Y-77548842D01*
X174790500Y-77391158D01*
X174790500Y-77391155D01*
X174790499Y-77391153D01*
X174785528Y-77366161D01*
X174759737Y-77236503D01*
X174749202Y-77211068D01*
X174699397Y-77090827D01*
X174699395Y-77090823D01*
X174699394Y-77090821D01*
X174699099Y-77090380D01*
X174680398Y-77062391D01*
X174659520Y-76995714D01*
X174678004Y-76928334D01*
X174729983Y-76881643D01*
X174798953Y-76870467D01*
X174852391Y-76890398D01*
X174867718Y-76900639D01*
X174880821Y-76909394D01*
X174880823Y-76909395D01*
X174880827Y-76909397D01*
X175002288Y-76959707D01*
X175026503Y-76969737D01*
X175166443Y-76997573D01*
X175181153Y-77000499D01*
X175181156Y-77000500D01*
X175181158Y-77000500D01*
X175338844Y-77000500D01*
X175338845Y-77000499D01*
X175493497Y-76969737D01*
X175625618Y-76915011D01*
X175639172Y-76909397D01*
X175639172Y-76909396D01*
X175639179Y-76909394D01*
X175667607Y-76890398D01*
X175734283Y-76869520D01*
X175801664Y-76888003D01*
X175848355Y-76939981D01*
X175859533Y-77008951D01*
X175839602Y-77062389D01*
X175820611Y-77090811D01*
X175820602Y-77090827D01*
X175760264Y-77236498D01*
X175760261Y-77236510D01*
X175729500Y-77391153D01*
X175729500Y-77548846D01*
X175760261Y-77703489D01*
X175760264Y-77703501D01*
X175820602Y-77849172D01*
X175820609Y-77849185D01*
X175908210Y-77980288D01*
X175908213Y-77980292D01*
X176019707Y-78091786D01*
X176019711Y-78091789D01*
X176150814Y-78179390D01*
X176150827Y-78179397D01*
X176294132Y-78238755D01*
X176296503Y-78239737D01*
X176444995Y-78269274D01*
X176451153Y-78270499D01*
X176451156Y-78270500D01*
X176451158Y-78270500D01*
X176608844Y-78270500D01*
X176608845Y-78270499D01*
X176763497Y-78239737D01*
X176909179Y-78179394D01*
X177040289Y-78091789D01*
X177151789Y-77980289D01*
X177239394Y-77849179D01*
X177242719Y-77841153D01*
X177279145Y-77753210D01*
X177299737Y-77703497D01*
X177330500Y-77548842D01*
X177330500Y-77391158D01*
X177330500Y-77391155D01*
X177330499Y-77391153D01*
X177325528Y-77366161D01*
X177299737Y-77236503D01*
X177289202Y-77211068D01*
X177239397Y-77090827D01*
X177239395Y-77090823D01*
X177239394Y-77090821D01*
X177239099Y-77090380D01*
X177220398Y-77062391D01*
X177199520Y-76995714D01*
X177218004Y-76928334D01*
X177269983Y-76881643D01*
X177338953Y-76870467D01*
X177392391Y-76890398D01*
X177407718Y-76900639D01*
X177420821Y-76909394D01*
X177420823Y-76909395D01*
X177420827Y-76909397D01*
X177542288Y-76959707D01*
X177566503Y-76969737D01*
X177706443Y-76997573D01*
X177721153Y-77000499D01*
X177721156Y-77000500D01*
X177721158Y-77000500D01*
X177878844Y-77000500D01*
X177878845Y-77000499D01*
X178033497Y-76969737D01*
X178165618Y-76915011D01*
X178179172Y-76909397D01*
X178179172Y-76909396D01*
X178179179Y-76909394D01*
X178207607Y-76890398D01*
X178274283Y-76869520D01*
X178341664Y-76888003D01*
X178388355Y-76939981D01*
X178399533Y-77008951D01*
X178379602Y-77062389D01*
X178360611Y-77090811D01*
X178360602Y-77090827D01*
X178300264Y-77236498D01*
X178300261Y-77236510D01*
X178269500Y-77391153D01*
X178269500Y-77548846D01*
X178300261Y-77703489D01*
X178300264Y-77703501D01*
X178360602Y-77849172D01*
X178360609Y-77849185D01*
X178448210Y-77980288D01*
X178448213Y-77980292D01*
X178559707Y-78091786D01*
X178559711Y-78091789D01*
X178690814Y-78179390D01*
X178690827Y-78179397D01*
X178834132Y-78238755D01*
X178836503Y-78239737D01*
X178984995Y-78269274D01*
X178991153Y-78270499D01*
X178991156Y-78270500D01*
X178991158Y-78270500D01*
X179148844Y-78270500D01*
X179148845Y-78270499D01*
X179303497Y-78239737D01*
X179449179Y-78179394D01*
X179580289Y-78091789D01*
X179691789Y-77980289D01*
X179779394Y-77849179D01*
X179779395Y-77849176D01*
X179779397Y-77849173D01*
X179819145Y-77753210D01*
X179836987Y-77710133D01*
X179880827Y-77655731D01*
X179947121Y-77633666D01*
X180014821Y-77650945D01*
X180062431Y-77702081D01*
X180075548Y-77757603D01*
X180074070Y-89170497D01*
X180074004Y-89679451D01*
X180073996Y-89679482D01*
X180073996Y-89741426D01*
X180073996Y-89741623D01*
X180073770Y-89749111D01*
X180066536Y-89868689D01*
X180042839Y-89934417D01*
X179987368Y-89976900D01*
X179917736Y-89982649D01*
X179856049Y-89949839D01*
X179828201Y-89908653D01*
X179779397Y-89790826D01*
X179779390Y-89790814D01*
X179691789Y-89659711D01*
X179691786Y-89659707D01*
X179580292Y-89548213D01*
X179580288Y-89548210D01*
X179449185Y-89460609D01*
X179449172Y-89460602D01*
X179303501Y-89400264D01*
X179303489Y-89400261D01*
X179148845Y-89369500D01*
X179148842Y-89369500D01*
X178991158Y-89369500D01*
X178991155Y-89369500D01*
X178836510Y-89400261D01*
X178836498Y-89400264D01*
X178690827Y-89460602D01*
X178690811Y-89460611D01*
X178662389Y-89479602D01*
X178595712Y-89500479D01*
X178528332Y-89481994D01*
X178481642Y-89430014D01*
X178470467Y-89361044D01*
X178490398Y-89307608D01*
X178509394Y-89279179D01*
X178519908Y-89253797D01*
X178554411Y-89170497D01*
X178569737Y-89133497D01*
X178600500Y-88978842D01*
X178600500Y-88821158D01*
X178600500Y-88821155D01*
X178600499Y-88821153D01*
X178596256Y-88799823D01*
X178569737Y-88666503D01*
X178566072Y-88657654D01*
X178509397Y-88520827D01*
X178509390Y-88520814D01*
X178421789Y-88389711D01*
X178421786Y-88389707D01*
X178310292Y-88278213D01*
X178310288Y-88278210D01*
X178179185Y-88190609D01*
X178179172Y-88190602D01*
X178033501Y-88130264D01*
X178033489Y-88130261D01*
X177878845Y-88099500D01*
X177878842Y-88099500D01*
X177721158Y-88099500D01*
X177721155Y-88099500D01*
X177566510Y-88130261D01*
X177566498Y-88130264D01*
X177420827Y-88190602D01*
X177420814Y-88190609D01*
X177289711Y-88278210D01*
X177289707Y-88278213D01*
X177178213Y-88389707D01*
X177178210Y-88389711D01*
X177090609Y-88520814D01*
X177090602Y-88520827D01*
X177030264Y-88666498D01*
X177030261Y-88666510D01*
X176999500Y-88821153D01*
X176999500Y-88978846D01*
X177030261Y-89133489D01*
X177030264Y-89133501D01*
X177090602Y-89279172D01*
X177090609Y-89279185D01*
X177109601Y-89307608D01*
X177130479Y-89374286D01*
X177111994Y-89441666D01*
X177060016Y-89488356D01*
X176991046Y-89499532D01*
X176937608Y-89479601D01*
X176909185Y-89460609D01*
X176909172Y-89460602D01*
X176763501Y-89400264D01*
X176763489Y-89400261D01*
X176608845Y-89369500D01*
X176608842Y-89369500D01*
X176451158Y-89369500D01*
X176451155Y-89369500D01*
X176296510Y-89400261D01*
X176296498Y-89400264D01*
X176150827Y-89460602D01*
X176150811Y-89460611D01*
X176122389Y-89479602D01*
X176055712Y-89500479D01*
X175988332Y-89481994D01*
X175941642Y-89430014D01*
X175930467Y-89361044D01*
X175950398Y-89307608D01*
X175969394Y-89279179D01*
X175979908Y-89253797D01*
X176014411Y-89170497D01*
X176029737Y-89133497D01*
X176060500Y-88978842D01*
X176060500Y-88821158D01*
X176060500Y-88821155D01*
X176060499Y-88821153D01*
X176056256Y-88799823D01*
X176029737Y-88666503D01*
X176026072Y-88657654D01*
X175969397Y-88520827D01*
X175969390Y-88520814D01*
X175881789Y-88389711D01*
X175881786Y-88389707D01*
X175770292Y-88278213D01*
X175770288Y-88278210D01*
X175639185Y-88190609D01*
X175639172Y-88190602D01*
X175493501Y-88130264D01*
X175493489Y-88130261D01*
X175338845Y-88099500D01*
X175338842Y-88099500D01*
X175181158Y-88099500D01*
X175181155Y-88099500D01*
X175026510Y-88130261D01*
X175026498Y-88130264D01*
X174880827Y-88190602D01*
X174880811Y-88190611D01*
X174852389Y-88209602D01*
X174785712Y-88230479D01*
X174718332Y-88211994D01*
X174671642Y-88160014D01*
X174660467Y-88091044D01*
X174680398Y-88037608D01*
X174699394Y-88009179D01*
X174759737Y-87863497D01*
X174790500Y-87708842D01*
X174790500Y-87551158D01*
X174790500Y-87551155D01*
X174790499Y-87551153D01*
X174784801Y-87522506D01*
X174759737Y-87396503D01*
X174759147Y-87395079D01*
X174699397Y-87250827D01*
X174699390Y-87250814D01*
X174611789Y-87119711D01*
X174611786Y-87119707D01*
X174500292Y-87008213D01*
X174500288Y-87008210D01*
X174369185Y-86920609D01*
X174369172Y-86920602D01*
X174223501Y-86860264D01*
X174223489Y-86860261D01*
X174068845Y-86829500D01*
X174068842Y-86829500D01*
X173911158Y-86829500D01*
X173911155Y-86829500D01*
X173756510Y-86860261D01*
X173756498Y-86860264D01*
X173610827Y-86920602D01*
X173610811Y-86920611D01*
X173582389Y-86939602D01*
X173515712Y-86960479D01*
X173448332Y-86941994D01*
X173401642Y-86890014D01*
X173390467Y-86821044D01*
X173410398Y-86767608D01*
X173429394Y-86739179D01*
X173489737Y-86593497D01*
X173498336Y-86550265D01*
X174690293Y-86550265D01*
X174728165Y-86740654D01*
X174728167Y-86740660D01*
X174800777Y-86915957D01*
X174802456Y-86920009D01*
X174819065Y-86944866D01*
X174910307Y-87081421D01*
X175047572Y-87218686D01*
X175047575Y-87218688D01*
X175208985Y-87326538D01*
X175388334Y-87400827D01*
X175388338Y-87400827D01*
X175388339Y-87400828D01*
X175578728Y-87438700D01*
X175578731Y-87438700D01*
X175772859Y-87438700D01*
X175900948Y-87413220D01*
X175963254Y-87400827D01*
X176142603Y-87326538D01*
X176304013Y-87218688D01*
X176441282Y-87081419D01*
X176549132Y-86920009D01*
X176623421Y-86740660D01*
X176636466Y-86675079D01*
X176661294Y-86550265D01*
X176661294Y-86356134D01*
X176623422Y-86165745D01*
X176623421Y-86165744D01*
X176623421Y-86165740D01*
X176549132Y-85986391D01*
X176441282Y-85824981D01*
X176441280Y-85824978D01*
X176304015Y-85687713D01*
X176184186Y-85607647D01*
X176142603Y-85579862D01*
X176133728Y-85576186D01*
X175963254Y-85505573D01*
X175963248Y-85505571D01*
X175772859Y-85467700D01*
X175772857Y-85467700D01*
X175578731Y-85467700D01*
X175578729Y-85467700D01*
X175388339Y-85505571D01*
X175388333Y-85505573D01*
X175208986Y-85579861D01*
X175047572Y-85687713D01*
X174910307Y-85824978D01*
X174802455Y-85986392D01*
X174728167Y-86165739D01*
X174728165Y-86165745D01*
X174690294Y-86356134D01*
X174690294Y-86356137D01*
X174690294Y-86550263D01*
X174690294Y-86550265D01*
X174690293Y-86550265D01*
X173498336Y-86550265D01*
X173520500Y-86438842D01*
X173520500Y-86281158D01*
X173520500Y-86281155D01*
X173520499Y-86281153D01*
X173500287Y-86179542D01*
X173489737Y-86126503D01*
X173486072Y-86117654D01*
X173429397Y-85980827D01*
X173429390Y-85980814D01*
X173341789Y-85849711D01*
X173341786Y-85849707D01*
X173230292Y-85738213D01*
X173230288Y-85738210D01*
X173099185Y-85650609D01*
X173099172Y-85650602D01*
X172951719Y-85589526D01*
X172897315Y-85545685D01*
X172875250Y-85479391D01*
X172892529Y-85411692D01*
X172896069Y-85406074D01*
X172950184Y-85325085D01*
X172950184Y-85325084D01*
X172950188Y-85325079D01*
X172951297Y-85322403D01*
X172976884Y-85260629D01*
X173010531Y-85179397D01*
X173041294Y-85024742D01*
X173041294Y-84867058D01*
X173041294Y-84867055D01*
X173041293Y-84867053D01*
X173037338Y-84847168D01*
X173010531Y-84712403D01*
X173001433Y-84690438D01*
X172950191Y-84566727D01*
X172950184Y-84566714D01*
X172862583Y-84435611D01*
X172862580Y-84435607D01*
X172751086Y-84324113D01*
X172751082Y-84324110D01*
X172619979Y-84236509D01*
X172619966Y-84236502D01*
X172474295Y-84176164D01*
X172474283Y-84176161D01*
X172319639Y-84145400D01*
X172319636Y-84145400D01*
X172161952Y-84145400D01*
X172161949Y-84145400D01*
X172007304Y-84176161D01*
X172007301Y-84176162D01*
X172007300Y-84176162D01*
X172007297Y-84176163D01*
X171947808Y-84200804D01*
X171882910Y-84227685D01*
X171813440Y-84235153D01*
X171750961Y-84203877D01*
X171747777Y-84200804D01*
X171691086Y-84144113D01*
X171691082Y-84144110D01*
X171559979Y-84056509D01*
X171559966Y-84056502D01*
X171414295Y-83996164D01*
X171414283Y-83996161D01*
X171259639Y-83965400D01*
X171259636Y-83965400D01*
X171101952Y-83965400D01*
X171101949Y-83965400D01*
X170947304Y-83996161D01*
X170947292Y-83996164D01*
X170801621Y-84056502D01*
X170801608Y-84056509D01*
X170709719Y-84117908D01*
X170643041Y-84138786D01*
X170575661Y-84120301D01*
X170571938Y-84117908D01*
X170509984Y-84076512D01*
X170509966Y-84076502D01*
X170364295Y-84016164D01*
X170364283Y-84016161D01*
X170209639Y-83985400D01*
X170209636Y-83985400D01*
X170051952Y-83985400D01*
X170051949Y-83985400D01*
X169897304Y-84016161D01*
X169897292Y-84016164D01*
X169751621Y-84076502D01*
X169751608Y-84076509D01*
X169620505Y-84164110D01*
X169620501Y-84164113D01*
X169525024Y-84259591D01*
X169463701Y-84293076D01*
X169394009Y-84288092D01*
X169389891Y-84286471D01*
X169244295Y-84226164D01*
X169244283Y-84226161D01*
X169089639Y-84195400D01*
X169089636Y-84195400D01*
X168931952Y-84195400D01*
X168931949Y-84195400D01*
X168777304Y-84226161D01*
X168777292Y-84226164D01*
X168631621Y-84286502D01*
X168631608Y-84286509D01*
X168500505Y-84374110D01*
X168500501Y-84374113D01*
X168389007Y-84485607D01*
X168389004Y-84485611D01*
X168301402Y-84616716D01*
X168272195Y-84687228D01*
X168228353Y-84741631D01*
X168181826Y-84761391D01*
X168057302Y-84786161D01*
X168057292Y-84786164D01*
X167911621Y-84846502D01*
X167911608Y-84846509D01*
X167780505Y-84934110D01*
X167780501Y-84934113D01*
X167669007Y-85045607D01*
X167669004Y-85045611D01*
X167581403Y-85176714D01*
X167581396Y-85176727D01*
X167521058Y-85322398D01*
X167521055Y-85322408D01*
X167506498Y-85395592D01*
X167474113Y-85457503D01*
X167413397Y-85492077D01*
X167384881Y-85495400D01*
X167351949Y-85495400D01*
X167197304Y-85526161D01*
X167197292Y-85526164D01*
X167051621Y-85586502D01*
X167051608Y-85586509D01*
X166920505Y-85674110D01*
X166860732Y-85733883D01*
X166799408Y-85767367D01*
X166729717Y-85762382D01*
X166721720Y-85759077D01*
X166712536Y-85754900D01*
X166699973Y-85746506D01*
X166633841Y-85719113D01*
X166631883Y-85718223D01*
X166606987Y-85696720D01*
X166581358Y-85676067D01*
X166580665Y-85673986D01*
X166579006Y-85672553D01*
X166569683Y-85640990D01*
X166559293Y-85609772D01*
X166559835Y-85607647D01*
X166559214Y-85605545D01*
X166568431Y-85573966D01*
X166576572Y-85542073D01*
X166578177Y-85540577D01*
X166578792Y-85538474D01*
X166603619Y-85516891D01*
X166627710Y-85494463D01*
X166631313Y-85492817D01*
X166631523Y-85492635D01*
X166631800Y-85492594D01*
X166635730Y-85490799D01*
X166667308Y-85477720D01*
X166798418Y-85390115D01*
X166909918Y-85278615D01*
X166997523Y-85147505D01*
X167057866Y-85001823D01*
X167088629Y-84847168D01*
X167088629Y-84689484D01*
X167088629Y-84689481D01*
X167088628Y-84689479D01*
X167085051Y-84671498D01*
X167057866Y-84534829D01*
X167057311Y-84533488D01*
X166997526Y-84389153D01*
X166997519Y-84389140D01*
X166909918Y-84258037D01*
X166909915Y-84258033D01*
X166798421Y-84146539D01*
X166798417Y-84146536D01*
X166667314Y-84058935D01*
X166667301Y-84058928D01*
X166521630Y-83998590D01*
X166521618Y-83998587D01*
X166366974Y-83967826D01*
X166366971Y-83967826D01*
X166209287Y-83967826D01*
X166209284Y-83967826D01*
X166054639Y-83998587D01*
X166054627Y-83998590D01*
X165908956Y-84058928D01*
X165908943Y-84058935D01*
X165777840Y-84146536D01*
X165777836Y-84146539D01*
X165666342Y-84258033D01*
X165666339Y-84258037D01*
X165578738Y-84389140D01*
X165578731Y-84389153D01*
X165518393Y-84534824D01*
X165518390Y-84534836D01*
X165487629Y-84689479D01*
X165487629Y-84847172D01*
X165518390Y-85001815D01*
X165518393Y-85001827D01*
X165578731Y-85147498D01*
X165578738Y-85147511D01*
X165666339Y-85278614D01*
X165666342Y-85278618D01*
X165777836Y-85390112D01*
X165777840Y-85390115D01*
X165908943Y-85477716D01*
X165908956Y-85477723D01*
X165973160Y-85504317D01*
X165990165Y-85518020D01*
X166009746Y-85527699D01*
X166016836Y-85539513D01*
X166027564Y-85548158D01*
X166034461Y-85568880D01*
X166045700Y-85587607D01*
X166045277Y-85601378D01*
X166049629Y-85614452D01*
X166044227Y-85635614D01*
X166043558Y-85657444D01*
X166035757Y-85668800D01*
X166032350Y-85682151D01*
X166016365Y-85697033D01*
X166004000Y-85715036D01*
X165984586Y-85726621D01*
X165981213Y-85729762D01*
X165973737Y-85733199D01*
X165973444Y-85733322D01*
X165941615Y-85746506D01*
X165940855Y-85747013D01*
X165934637Y-85749626D01*
X165905405Y-85752917D01*
X165876608Y-85758901D01*
X165870657Y-85756830D01*
X165865206Y-85757444D01*
X165848043Y-85748961D01*
X165817718Y-85738408D01*
X165790322Y-85720103D01*
X165769973Y-85706506D01*
X165769970Y-85706504D01*
X165769965Y-85706502D01*
X165624295Y-85646164D01*
X165624283Y-85646161D01*
X165469639Y-85615400D01*
X165469636Y-85615400D01*
X165311952Y-85615400D01*
X165311951Y-85615400D01*
X165281551Y-85621446D01*
X165211959Y-85615217D01*
X165169682Y-85587509D01*
X165061086Y-85478913D01*
X165061082Y-85478910D01*
X164929979Y-85391309D01*
X164929966Y-85391302D01*
X164784295Y-85330964D01*
X164784283Y-85330961D01*
X164629639Y-85300200D01*
X164629636Y-85300200D01*
X164471952Y-85300200D01*
X164471949Y-85300200D01*
X164317304Y-85330961D01*
X164317292Y-85330964D01*
X164171621Y-85391302D01*
X164171608Y-85391309D01*
X164040505Y-85478910D01*
X164040501Y-85478913D01*
X163929007Y-85590407D01*
X163929004Y-85590411D01*
X163841403Y-85721514D01*
X163841396Y-85721527D01*
X163781058Y-85867198D01*
X163781055Y-85867210D01*
X163750294Y-86021853D01*
X163750294Y-86179546D01*
X163781055Y-86334189D01*
X163781058Y-86334201D01*
X163841396Y-86479871D01*
X163841402Y-86479882D01*
X163849427Y-86491892D01*
X163870304Y-86558569D01*
X163853234Y-86620791D01*
X163854273Y-86621347D01*
X163851825Y-86625926D01*
X163851819Y-86625950D01*
X163851781Y-86626007D01*
X163851396Y-86626728D01*
X163791058Y-86772398D01*
X163791055Y-86772410D01*
X163760294Y-86927053D01*
X163760294Y-87084746D01*
X163791055Y-87239389D01*
X163791058Y-87239401D01*
X163853365Y-87389824D01*
X163860834Y-87459293D01*
X163841906Y-87506167D01*
X163781403Y-87596714D01*
X163781398Y-87596724D01*
X163719141Y-87747026D01*
X163675300Y-87801429D01*
X163609006Y-87823494D01*
X163541306Y-87806215D01*
X163493696Y-87755077D01*
X163490020Y-87747028D01*
X163474204Y-87708844D01*
X163440191Y-87626726D01*
X163440184Y-87626714D01*
X163349875Y-87491558D01*
X163328997Y-87424881D01*
X163338416Y-87375214D01*
X163390531Y-87249397D01*
X163421294Y-87094742D01*
X163421294Y-86937058D01*
X163421294Y-86937055D01*
X163421293Y-86937053D01*
X163415044Y-86905637D01*
X163390531Y-86782403D01*
X163366065Y-86723337D01*
X163330191Y-86636727D01*
X163328887Y-86634288D01*
X163328589Y-86632860D01*
X163327857Y-86631092D01*
X163328192Y-86630953D01*
X163314637Y-86565887D01*
X163323675Y-86528374D01*
X163360531Y-86439397D01*
X163391294Y-86284742D01*
X163391294Y-86127058D01*
X163391294Y-86127055D01*
X163391293Y-86127053D01*
X163377000Y-86055200D01*
X163360531Y-85972403D01*
X163331539Y-85902410D01*
X163300191Y-85826727D01*
X163300184Y-85826714D01*
X163212583Y-85695611D01*
X163212580Y-85695607D01*
X163100386Y-85583413D01*
X163066901Y-85522090D01*
X163071885Y-85452398D01*
X163084965Y-85426841D01*
X163092685Y-85415288D01*
X163167794Y-85302879D01*
X163228137Y-85157197D01*
X163258900Y-85002542D01*
X163258900Y-84844858D01*
X163258900Y-84844855D01*
X163258899Y-84844853D01*
X163250496Y-84802608D01*
X163228137Y-84690203D01*
X163205664Y-84635947D01*
X163167797Y-84544527D01*
X163167790Y-84544514D01*
X163080189Y-84413411D01*
X163080186Y-84413407D01*
X162968692Y-84301913D01*
X162968688Y-84301910D01*
X162837585Y-84214309D01*
X162837572Y-84214302D01*
X162691901Y-84153964D01*
X162691889Y-84153961D01*
X162537245Y-84123200D01*
X162537242Y-84123200D01*
X162519300Y-84123200D01*
X162452261Y-84103515D01*
X162406506Y-84050711D01*
X162395300Y-83999200D01*
X162395300Y-83944355D01*
X162395299Y-83944353D01*
X162383955Y-83887323D01*
X162364537Y-83789703D01*
X162364535Y-83789698D01*
X162304197Y-83644027D01*
X162304190Y-83644014D01*
X162216589Y-83512911D01*
X162216586Y-83512907D01*
X162105092Y-83401413D01*
X162105088Y-83401410D01*
X161973985Y-83313809D01*
X161973972Y-83313802D01*
X161828301Y-83253464D01*
X161828289Y-83253461D01*
X161673645Y-83222700D01*
X161673642Y-83222700D01*
X161515958Y-83222700D01*
X161515955Y-83222700D01*
X161361310Y-83253461D01*
X161361298Y-83253464D01*
X161215627Y-83313802D01*
X161215614Y-83313809D01*
X161084511Y-83401410D01*
X161084507Y-83401413D01*
X160973013Y-83512907D01*
X160973010Y-83512911D01*
X160885409Y-83644014D01*
X160885402Y-83644027D01*
X160825064Y-83789698D01*
X160825061Y-83789710D01*
X160794300Y-83944353D01*
X160794300Y-84102046D01*
X160825061Y-84256689D01*
X160825064Y-84256701D01*
X160885402Y-84402372D01*
X160885409Y-84402385D01*
X160973010Y-84533488D01*
X160973013Y-84533492D01*
X161084507Y-84644986D01*
X161084511Y-84644989D01*
X161215614Y-84732590D01*
X161215627Y-84732597D01*
X161344944Y-84786161D01*
X161361303Y-84792937D01*
X161515953Y-84823699D01*
X161515956Y-84823700D01*
X161515958Y-84823700D01*
X161533900Y-84823700D01*
X161600939Y-84843385D01*
X161646694Y-84896189D01*
X161657900Y-84947700D01*
X161657900Y-85002546D01*
X161686735Y-85147505D01*
X161688663Y-85157197D01*
X161697860Y-85179401D01*
X161712170Y-85213949D01*
X161719638Y-85283418D01*
X161688362Y-85345897D01*
X161628273Y-85381549D01*
X161597608Y-85385400D01*
X161481949Y-85385400D01*
X161327304Y-85416161D01*
X161327292Y-85416164D01*
X161181621Y-85476502D01*
X161181610Y-85476508D01*
X161137099Y-85506250D01*
X161070422Y-85527127D01*
X161003042Y-85508642D01*
X160999318Y-85506249D01*
X160879979Y-85426509D01*
X160879966Y-85426502D01*
X160734295Y-85366164D01*
X160734283Y-85366161D01*
X160671326Y-85353638D01*
X160609415Y-85321253D01*
X160574841Y-85260538D01*
X160578580Y-85190768D01*
X160580942Y-85184603D01*
X160586537Y-85171097D01*
X160617300Y-85016442D01*
X160617300Y-84858758D01*
X160617300Y-84858755D01*
X160617299Y-84858753D01*
X160614995Y-84847168D01*
X160586537Y-84704103D01*
X160580877Y-84690438D01*
X160526197Y-84558427D01*
X160526190Y-84558414D01*
X160438589Y-84427311D01*
X160438586Y-84427307D01*
X160327092Y-84315813D01*
X160327088Y-84315810D01*
X160195985Y-84228209D01*
X160195972Y-84228202D01*
X160050301Y-84167864D01*
X160050289Y-84167861D01*
X159895645Y-84137100D01*
X159895642Y-84137100D01*
X159737958Y-84137100D01*
X159737955Y-84137100D01*
X159583310Y-84167861D01*
X159583298Y-84167864D01*
X159437627Y-84228202D01*
X159437614Y-84228209D01*
X159306511Y-84315810D01*
X159306507Y-84315813D01*
X159195013Y-84427307D01*
X159195010Y-84427311D01*
X159107409Y-84558414D01*
X159107402Y-84558427D01*
X159047064Y-84704098D01*
X159047061Y-84704110D01*
X159016300Y-84858753D01*
X159016300Y-85016446D01*
X159047061Y-85171089D01*
X159047064Y-85171101D01*
X159107402Y-85316772D01*
X159107409Y-85316785D01*
X159195010Y-85447888D01*
X159195013Y-85447892D01*
X159306507Y-85559386D01*
X159306511Y-85559389D01*
X159437614Y-85646990D01*
X159437627Y-85646997D01*
X159583298Y-85707335D01*
X159583303Y-85707337D01*
X159646269Y-85719861D01*
X159708177Y-85752245D01*
X159742752Y-85812960D01*
X159739013Y-85882730D01*
X159736638Y-85888928D01*
X159731058Y-85902398D01*
X159731055Y-85902410D01*
X159700294Y-86057053D01*
X159700294Y-86214746D01*
X159731055Y-86369389D01*
X159731058Y-86369401D01*
X159791396Y-86515072D01*
X159791403Y-86515085D01*
X159879004Y-86646188D01*
X159879007Y-86646192D01*
X159990501Y-86757686D01*
X159990505Y-86757689D01*
X160121608Y-86845290D01*
X160121621Y-86845297D01*
X160267292Y-86905635D01*
X160267297Y-86905637D01*
X160416925Y-86935400D01*
X160421947Y-86936399D01*
X160421950Y-86936400D01*
X160421952Y-86936400D01*
X160579638Y-86936400D01*
X160682409Y-86915957D01*
X160713713Y-86909730D01*
X160783305Y-86915957D01*
X160838482Y-86958820D01*
X160861727Y-87024709D01*
X160845660Y-87092706D01*
X160825587Y-87119028D01*
X160719004Y-87225611D01*
X160631403Y-87356714D01*
X160631396Y-87356727D01*
X160571058Y-87502398D01*
X160571055Y-87502410D01*
X160540294Y-87657053D01*
X160540294Y-87814746D01*
X160571055Y-87969389D01*
X160571058Y-87969401D01*
X160631396Y-88115072D01*
X160631403Y-88115085D01*
X160719004Y-88246188D01*
X160719007Y-88246192D01*
X160830501Y-88357686D01*
X160830505Y-88357689D01*
X160961608Y-88445290D01*
X160961621Y-88445297D01*
X161060352Y-88486192D01*
X161107297Y-88505637D01*
X161243582Y-88532746D01*
X161261947Y-88536399D01*
X161261950Y-88536400D01*
X161261952Y-88536400D01*
X161419638Y-88536400D01*
X161419639Y-88536399D01*
X161574291Y-88505637D01*
X161719973Y-88445294D01*
X161748401Y-88426298D01*
X161815077Y-88405420D01*
X161882458Y-88423903D01*
X161929149Y-88475881D01*
X161940327Y-88544851D01*
X161920396Y-88598289D01*
X161901405Y-88626711D01*
X161901396Y-88626727D01*
X161841058Y-88772398D01*
X161841055Y-88772410D01*
X161810294Y-88927053D01*
X161810294Y-89084746D01*
X161841055Y-89239389D01*
X161841058Y-89239401D01*
X161877092Y-89326396D01*
X161884561Y-89395866D01*
X161853285Y-89458345D01*
X161793196Y-89493996D01*
X161723371Y-89491502D01*
X161693639Y-89476950D01*
X161682335Y-89469397D01*
X161669179Y-89460606D01*
X161669172Y-89460602D01*
X161523501Y-89400264D01*
X161523489Y-89400261D01*
X161368845Y-89369500D01*
X161368842Y-89369500D01*
X161211158Y-89369500D01*
X161211155Y-89369500D01*
X161056510Y-89400261D01*
X161056498Y-89400264D01*
X160910827Y-89460602D01*
X160910814Y-89460609D01*
X160779711Y-89548210D01*
X160779707Y-89548213D01*
X160668213Y-89659707D01*
X160668210Y-89659711D01*
X160580609Y-89790814D01*
X160580602Y-89790827D01*
X160520264Y-89936498D01*
X160520261Y-89936510D01*
X160489500Y-90091153D01*
X160489500Y-90248846D01*
X160520261Y-90403489D01*
X160520264Y-90403501D01*
X160580602Y-90549172D01*
X160580609Y-90549185D01*
X160668210Y-90680288D01*
X160668213Y-90680292D01*
X160779707Y-90791786D01*
X160779711Y-90791789D01*
X160910814Y-90879390D01*
X160910827Y-90879397D01*
X161023529Y-90926079D01*
X161056503Y-90939737D01*
X161211153Y-90970499D01*
X161211156Y-90970500D01*
X161211158Y-90970500D01*
X161368844Y-90970500D01*
X161368845Y-90970499D01*
X161523497Y-90939737D01*
X161669179Y-90879394D01*
X161697607Y-90860398D01*
X161764283Y-90839520D01*
X161831664Y-90858003D01*
X161878355Y-90909981D01*
X161889533Y-90978951D01*
X161869602Y-91032389D01*
X161850611Y-91060811D01*
X161850602Y-91060827D01*
X161790264Y-91206498D01*
X161790261Y-91206510D01*
X161759500Y-91361153D01*
X161759500Y-91518846D01*
X161790261Y-91673489D01*
X161790264Y-91673501D01*
X161850602Y-91819172D01*
X161850609Y-91819185D01*
X161938210Y-91950288D01*
X161938213Y-91950292D01*
X162033812Y-92045891D01*
X162067297Y-92107214D01*
X162062313Y-92176906D01*
X162020441Y-92232839D01*
X161954977Y-92257256D01*
X161946232Y-92257572D01*
X158090837Y-92260704D01*
X158023781Y-92241074D01*
X157977984Y-92188307D01*
X157967984Y-92119157D01*
X157996957Y-92055577D01*
X158003041Y-92049036D01*
X158101789Y-91950289D01*
X158189394Y-91819179D01*
X158249737Y-91673497D01*
X158280500Y-91518842D01*
X158280500Y-91361158D01*
X158280500Y-91361155D01*
X158280499Y-91361153D01*
X158251566Y-91215698D01*
X158249737Y-91206503D01*
X158249735Y-91206498D01*
X158189397Y-91060827D01*
X158189395Y-91060823D01*
X158189394Y-91060821D01*
X158170398Y-91032391D01*
X158149520Y-90965714D01*
X158168004Y-90898334D01*
X158219983Y-90851643D01*
X158288953Y-90840467D01*
X158342391Y-90860398D01*
X158358875Y-90871412D01*
X158370821Y-90879394D01*
X158370823Y-90879395D01*
X158370827Y-90879397D01*
X158483529Y-90926079D01*
X158516503Y-90939737D01*
X158671153Y-90970499D01*
X158671156Y-90970500D01*
X158671158Y-90970500D01*
X158828844Y-90970500D01*
X158828845Y-90970499D01*
X158983497Y-90939737D01*
X159129179Y-90879394D01*
X159260289Y-90791789D01*
X159371789Y-90680289D01*
X159459394Y-90549179D01*
X159519737Y-90403497D01*
X159550500Y-90248842D01*
X159550500Y-90091158D01*
X159550500Y-90091155D01*
X159550499Y-90091153D01*
X159545976Y-90068414D01*
X159519737Y-89936503D01*
X159465847Y-89806399D01*
X159459397Y-89790827D01*
X159459390Y-89790814D01*
X159371789Y-89659711D01*
X159371786Y-89659707D01*
X159260292Y-89548213D01*
X159260288Y-89548210D01*
X159129185Y-89460609D01*
X159129172Y-89460602D01*
X158983501Y-89400264D01*
X158983489Y-89400261D01*
X158886292Y-89380927D01*
X158824381Y-89348542D01*
X158789806Y-89287826D01*
X158793546Y-89218057D01*
X158825774Y-89172089D01*
X158824182Y-89170497D01*
X158939986Y-89054692D01*
X158939989Y-89054689D01*
X159027594Y-88923579D01*
X159087937Y-88777897D01*
X159118700Y-88623242D01*
X159118700Y-88465558D01*
X159118700Y-88465555D01*
X159118699Y-88465553D01*
X159117704Y-88460551D01*
X159087937Y-88310903D01*
X159076248Y-88282682D01*
X159027597Y-88165227D01*
X159027590Y-88165214D01*
X158939989Y-88034111D01*
X158939986Y-88034107D01*
X158828492Y-87922613D01*
X158828488Y-87922610D01*
X158697385Y-87835009D01*
X158697372Y-87835002D01*
X158551701Y-87774664D01*
X158551689Y-87774661D01*
X158397045Y-87743900D01*
X158397042Y-87743900D01*
X158239358Y-87743900D01*
X158239355Y-87743900D01*
X158084710Y-87774661D01*
X158084698Y-87774664D01*
X157939027Y-87835002D01*
X157939014Y-87835009D01*
X157807911Y-87922610D01*
X157807907Y-87922613D01*
X157696413Y-88034107D01*
X157696410Y-88034111D01*
X157608809Y-88165214D01*
X157608802Y-88165227D01*
X157548464Y-88310898D01*
X157548461Y-88310910D01*
X157517700Y-88465553D01*
X157517700Y-88623246D01*
X157548461Y-88777889D01*
X157548464Y-88777901D01*
X157608802Y-88923572D01*
X157608809Y-88923585D01*
X157696410Y-89054688D01*
X157696413Y-89054692D01*
X157807907Y-89166186D01*
X157807911Y-89166189D01*
X157939014Y-89253790D01*
X157939027Y-89253797D01*
X158021182Y-89287826D01*
X158084703Y-89314137D01*
X158181910Y-89333472D01*
X158243818Y-89365856D01*
X158278392Y-89426572D01*
X158274653Y-89496341D01*
X158242440Y-89542325D01*
X158244018Y-89543903D01*
X158128213Y-89659707D01*
X158128210Y-89659711D01*
X158040609Y-89790814D01*
X158040602Y-89790827D01*
X157980264Y-89936498D01*
X157980261Y-89936510D01*
X157949500Y-90091153D01*
X157949500Y-90248846D01*
X157980261Y-90403489D01*
X157980264Y-90403501D01*
X158040602Y-90549172D01*
X158040609Y-90549185D01*
X158059601Y-90577608D01*
X158080479Y-90644286D01*
X158061994Y-90711666D01*
X158010016Y-90758356D01*
X157941046Y-90769532D01*
X157887608Y-90749601D01*
X157859185Y-90730609D01*
X157859172Y-90730602D01*
X157713501Y-90670264D01*
X157713489Y-90670261D01*
X157558845Y-90639500D01*
X157558842Y-90639500D01*
X157401158Y-90639500D01*
X157401155Y-90639500D01*
X157246510Y-90670261D01*
X157246498Y-90670264D01*
X157100827Y-90730602D01*
X157100811Y-90730611D01*
X157072389Y-90749602D01*
X157005712Y-90770479D01*
X156938332Y-90751994D01*
X156891642Y-90700014D01*
X156880467Y-90631044D01*
X156900398Y-90577608D01*
X156919394Y-90549179D01*
X156979737Y-90403497D01*
X157010500Y-90248842D01*
X157010500Y-90091158D01*
X157010500Y-90091155D01*
X157010499Y-90091153D01*
X157005976Y-90068414D01*
X156979737Y-89936503D01*
X156925847Y-89806399D01*
X156919397Y-89790827D01*
X156919390Y-89790814D01*
X156831789Y-89659711D01*
X156831786Y-89659707D01*
X156720292Y-89548213D01*
X156720288Y-89548210D01*
X156589185Y-89460609D01*
X156589172Y-89460602D01*
X156443501Y-89400264D01*
X156443489Y-89400261D01*
X156288845Y-89369500D01*
X156288842Y-89369500D01*
X156131158Y-89369500D01*
X156026124Y-89390392D01*
X155956533Y-89384164D01*
X155901356Y-89341300D01*
X155878112Y-89275410D01*
X155894180Y-89207413D01*
X155898826Y-89199892D01*
X155939394Y-89139179D01*
X155999737Y-88993497D01*
X156030500Y-88838842D01*
X156030500Y-88681158D01*
X156030500Y-88681155D01*
X156030499Y-88681153D01*
X156025222Y-88654626D01*
X155999737Y-88526503D01*
X155997386Y-88520827D01*
X155939397Y-88380827D01*
X155939390Y-88380814D01*
X155851789Y-88249711D01*
X155851786Y-88249707D01*
X155740292Y-88138213D01*
X155740288Y-88138210D01*
X155609185Y-88050609D01*
X155609172Y-88050602D01*
X155463501Y-87990264D01*
X155463489Y-87990261D01*
X155308845Y-87959500D01*
X155308842Y-87959500D01*
X155151158Y-87959500D01*
X155151155Y-87959500D01*
X154996510Y-87990261D01*
X154996498Y-87990264D01*
X154850827Y-88050602D01*
X154850814Y-88050609D01*
X154719711Y-88138210D01*
X154719707Y-88138213D01*
X154608213Y-88249707D01*
X154608210Y-88249711D01*
X154520609Y-88380814D01*
X154520602Y-88380827D01*
X154460264Y-88526498D01*
X154460261Y-88526510D01*
X154429500Y-88681153D01*
X154429500Y-88838846D01*
X154460261Y-88993489D01*
X154460264Y-88993501D01*
X154520602Y-89139172D01*
X154520609Y-89139185D01*
X154608210Y-89270288D01*
X154608213Y-89270292D01*
X154719707Y-89381786D01*
X154719711Y-89381789D01*
X154850814Y-89469390D01*
X154850827Y-89469397D01*
X154983983Y-89524551D01*
X154996503Y-89529737D01*
X155151153Y-89560499D01*
X155151156Y-89560500D01*
X155151158Y-89560500D01*
X155308844Y-89560500D01*
X155413873Y-89539608D01*
X155483465Y-89545835D01*
X155538642Y-89588698D01*
X155561887Y-89654587D01*
X155545819Y-89722584D01*
X155541167Y-89730116D01*
X155500609Y-89790814D01*
X155500602Y-89790827D01*
X155440264Y-89936498D01*
X155440261Y-89936510D01*
X155409500Y-90091153D01*
X155409500Y-90248846D01*
X155440261Y-90403489D01*
X155440264Y-90403501D01*
X155500602Y-90549172D01*
X155500609Y-90549185D01*
X155519601Y-90577608D01*
X155540479Y-90644286D01*
X155521994Y-90711666D01*
X155470016Y-90758356D01*
X155401046Y-90769532D01*
X155347608Y-90749601D01*
X155319185Y-90730609D01*
X155319172Y-90730602D01*
X155173501Y-90670264D01*
X155173489Y-90670261D01*
X155018845Y-90639500D01*
X155018842Y-90639500D01*
X154861158Y-90639500D01*
X154861155Y-90639500D01*
X154706510Y-90670261D01*
X154706498Y-90670264D01*
X154560827Y-90730602D01*
X154560814Y-90730609D01*
X154429711Y-90818210D01*
X154429707Y-90818213D01*
X154318213Y-90929707D01*
X154318210Y-90929711D01*
X154230609Y-91060814D01*
X154230602Y-91060827D01*
X154170264Y-91206498D01*
X154170261Y-91206510D01*
X154139500Y-91361153D01*
X154139500Y-91518846D01*
X154170261Y-91673489D01*
X154170264Y-91673501D01*
X154230602Y-91819172D01*
X154230609Y-91819185D01*
X154318210Y-91950288D01*
X154318213Y-91950292D01*
X154419998Y-92052077D01*
X154453483Y-92113400D01*
X154448499Y-92183092D01*
X154406627Y-92239025D01*
X154341163Y-92263442D01*
X154332418Y-92263758D01*
X148895122Y-92268177D01*
X148887534Y-92267951D01*
X148597525Y-92250408D01*
X148582660Y-92248603D01*
X148300522Y-92196899D01*
X148285984Y-92193315D01*
X148012145Y-92107984D01*
X147998147Y-92102675D01*
X147844484Y-92033517D01*
X147736589Y-91984957D01*
X147723332Y-91977999D01*
X147477861Y-91829608D01*
X147465537Y-91821102D01*
X147463090Y-91819185D01*
X147239746Y-91644205D01*
X147228538Y-91634275D01*
X147025724Y-91431461D01*
X147015794Y-91420253D01*
X146969496Y-91361158D01*
X146838893Y-91194456D01*
X146830391Y-91182138D01*
X146682000Y-90936667D01*
X146675042Y-90923410D01*
X146668705Y-90909329D01*
X146557320Y-90661843D01*
X146552018Y-90647862D01*
X146466683Y-90374014D01*
X146463100Y-90359477D01*
X146442825Y-90248842D01*
X146411395Y-90077337D01*
X146409591Y-90062474D01*
X146408634Y-90046655D01*
X146392045Y-89772404D01*
X146391820Y-89764913D01*
X146400471Y-69065996D01*
X146400500Y-69065892D01*
X146400500Y-69003692D01*
X146400501Y-69003685D01*
X146400726Y-68996263D01*
X146418271Y-68706205D01*
X146420076Y-68691339D01*
X146428141Y-68647335D01*
X146985500Y-68647335D01*
X146985500Y-70443070D01*
X146985501Y-70443076D01*
X146991908Y-70502683D01*
X147042202Y-70637528D01*
X147042203Y-70637530D01*
X147058157Y-70658842D01*
X147119531Y-70740827D01*
X147119578Y-70740889D01*
X147143995Y-70806353D01*
X147129144Y-70874626D01*
X147119578Y-70889511D01*
X147042203Y-70992869D01*
X147042202Y-70992871D01*
X146991908Y-71127717D01*
X146985501Y-71187316D01*
X146985501Y-71187323D01*
X146985500Y-71187335D01*
X146985500Y-72983070D01*
X146985501Y-72983076D01*
X146991908Y-73042683D01*
X147042202Y-73177528D01*
X147042203Y-73177530D01*
X147058239Y-73198951D01*
X147119531Y-73280827D01*
X147119578Y-73280889D01*
X147143995Y-73346353D01*
X147129144Y-73414626D01*
X147119578Y-73429511D01*
X147042203Y-73532869D01*
X147042202Y-73532871D01*
X146991908Y-73667717D01*
X146985501Y-73727316D01*
X146985501Y-73727323D01*
X146985500Y-73727335D01*
X146985500Y-75523070D01*
X146985501Y-75523076D01*
X146991908Y-75582683D01*
X147042202Y-75717528D01*
X147042203Y-75717530D01*
X147058239Y-75738951D01*
X147119531Y-75820827D01*
X147119578Y-75820889D01*
X147143995Y-75886353D01*
X147129144Y-75954626D01*
X147119578Y-75969511D01*
X147042203Y-76072869D01*
X147042202Y-76072871D01*
X146991908Y-76207717D01*
X146985501Y-76267316D01*
X146985501Y-76267323D01*
X146985500Y-76267335D01*
X146985500Y-78063070D01*
X146985501Y-78063076D01*
X146991908Y-78122683D01*
X147042202Y-78257528D01*
X147042203Y-78257530D01*
X147078039Y-78305400D01*
X147117411Y-78357995D01*
X147119578Y-78360889D01*
X147143995Y-78426353D01*
X147129144Y-78494626D01*
X147119578Y-78509511D01*
X147042203Y-78612869D01*
X147042202Y-78612871D01*
X146991908Y-78747717D01*
X146985501Y-78807316D01*
X146985501Y-78807323D01*
X146985500Y-78807335D01*
X146985500Y-80603070D01*
X146985501Y-80603076D01*
X146991908Y-80662683D01*
X147042202Y-80797528D01*
X147042203Y-80797530D01*
X147070708Y-80835607D01*
X147119531Y-80900827D01*
X147119578Y-80900889D01*
X147143995Y-80966353D01*
X147129144Y-81034626D01*
X147119578Y-81049509D01*
X147109168Y-81063416D01*
X147042203Y-81152869D01*
X147042202Y-81152871D01*
X146991908Y-81287717D01*
X146985501Y-81347316D01*
X146985501Y-81347323D01*
X146985500Y-81347335D01*
X146985500Y-83143070D01*
X146985501Y-83143076D01*
X146991908Y-83202683D01*
X147042202Y-83337528D01*
X147042203Y-83337530D01*
X147062833Y-83365088D01*
X147104940Y-83421336D01*
X147119578Y-83440889D01*
X147143995Y-83506353D01*
X147129144Y-83574626D01*
X147119578Y-83589511D01*
X147042203Y-83692869D01*
X147042202Y-83692871D01*
X146991908Y-83827717D01*
X146985501Y-83887316D01*
X146985501Y-83887323D01*
X146985500Y-83887335D01*
X146985500Y-85683070D01*
X146985501Y-85683076D01*
X146991908Y-85742683D01*
X147042202Y-85877528D01*
X147042203Y-85877530D01*
X147060819Y-85902398D01*
X147119531Y-85980827D01*
X147119578Y-85980889D01*
X147143995Y-86046353D01*
X147129144Y-86114626D01*
X147119578Y-86129511D01*
X147042203Y-86232869D01*
X147042202Y-86232871D01*
X146991908Y-86367717D01*
X146989051Y-86394297D01*
X146985501Y-86427323D01*
X146985500Y-86427335D01*
X146985500Y-88223070D01*
X146985501Y-88223076D01*
X146991908Y-88282683D01*
X147042202Y-88417528D01*
X147042203Y-88417530D01*
X147074409Y-88460551D01*
X147119531Y-88520827D01*
X147119578Y-88520889D01*
X147143995Y-88586353D01*
X147129144Y-88654626D01*
X147119578Y-88669511D01*
X147042203Y-88772869D01*
X147042202Y-88772871D01*
X146991908Y-88907717D01*
X146985501Y-88967316D01*
X146985501Y-88967323D01*
X146985500Y-88967335D01*
X146985500Y-90763070D01*
X146985501Y-90763076D01*
X146991908Y-90822683D01*
X147042202Y-90957528D01*
X147042206Y-90957535D01*
X147128452Y-91072744D01*
X147128455Y-91072747D01*
X147243664Y-91158993D01*
X147243671Y-91158997D01*
X147378517Y-91209291D01*
X147378516Y-91209291D01*
X147385444Y-91210035D01*
X147438127Y-91215700D01*
X149233872Y-91215699D01*
X149293483Y-91209291D01*
X149428331Y-91158996D01*
X149543546Y-91072746D01*
X149629796Y-90957531D01*
X149680091Y-90822683D01*
X149686500Y-90763073D01*
X149686499Y-89443713D01*
X151049500Y-89443713D01*
X151049500Y-89656287D01*
X151051706Y-89670217D01*
X151080102Y-89849503D01*
X151082754Y-89866243D01*
X151105585Y-89936510D01*
X151148444Y-90068414D01*
X151244951Y-90257820D01*
X151369890Y-90429786D01*
X151520213Y-90580109D01*
X151692179Y-90705048D01*
X151692181Y-90705049D01*
X151692184Y-90705051D01*
X151881588Y-90801557D01*
X152083757Y-90867246D01*
X152293713Y-90900500D01*
X152293714Y-90900500D01*
X152506286Y-90900500D01*
X152506287Y-90900500D01*
X152716243Y-90867246D01*
X152918412Y-90801557D01*
X153107816Y-90705051D01*
X153176685Y-90655015D01*
X153279786Y-90580109D01*
X153279788Y-90580106D01*
X153279792Y-90580104D01*
X153430104Y-90429792D01*
X153430106Y-90429788D01*
X153430109Y-90429786D01*
X153555048Y-90257820D01*
X153555047Y-90257820D01*
X153555051Y-90257816D01*
X153651557Y-90068412D01*
X153717246Y-89866243D01*
X153750500Y-89656287D01*
X153750500Y-89443713D01*
X153717246Y-89233757D01*
X153651557Y-89031588D01*
X153555051Y-88842184D01*
X153555049Y-88842181D01*
X153555048Y-88842179D01*
X153430109Y-88670213D01*
X153279786Y-88519890D01*
X153107820Y-88394951D01*
X152918414Y-88298444D01*
X152918413Y-88298443D01*
X152918412Y-88298443D01*
X152716243Y-88232754D01*
X152716241Y-88232753D01*
X152716240Y-88232753D01*
X152543538Y-88205400D01*
X152506287Y-88199500D01*
X152293713Y-88199500D01*
X152256462Y-88205400D01*
X152083760Y-88232753D01*
X152042399Y-88246192D01*
X151887550Y-88296506D01*
X151881585Y-88298444D01*
X151692179Y-88394951D01*
X151520213Y-88519890D01*
X151369890Y-88670213D01*
X151244951Y-88842179D01*
X151148444Y-89031585D01*
X151082753Y-89233760D01*
X151061831Y-89365856D01*
X151049500Y-89443713D01*
X149686499Y-89443713D01*
X149686499Y-88967328D01*
X149680091Y-88907717D01*
X149654402Y-88838842D01*
X149629797Y-88772871D01*
X149629795Y-88772868D01*
X149623376Y-88764293D01*
X149552421Y-88669509D01*
X149528004Y-88604048D01*
X149542855Y-88535775D01*
X149552416Y-88520896D01*
X149629796Y-88417531D01*
X149680091Y-88282683D01*
X149686500Y-88223073D01*
X149686499Y-86427328D01*
X149680091Y-86367717D01*
X149677109Y-86359723D01*
X149629797Y-86232871D01*
X149629795Y-86232868D01*
X149588488Y-86177689D01*
X149552421Y-86129509D01*
X149528004Y-86064048D01*
X149542855Y-85995775D01*
X149552416Y-85980896D01*
X149629796Y-85877531D01*
X149680091Y-85742683D01*
X149686500Y-85683073D01*
X149686499Y-85102940D01*
X151846205Y-85102940D01*
X151846205Y-85260633D01*
X151876966Y-85415276D01*
X151876969Y-85415288D01*
X151937307Y-85560959D01*
X151937314Y-85560972D01*
X152024915Y-85692075D01*
X152024917Y-85692078D01*
X152034865Y-85702025D01*
X152068352Y-85763347D01*
X152068805Y-85813899D01*
X152056700Y-85874759D01*
X152056700Y-86032446D01*
X152087461Y-86187089D01*
X152087464Y-86187101D01*
X152147802Y-86332772D01*
X152147809Y-86332785D01*
X152235410Y-86463888D01*
X152235413Y-86463892D01*
X152346907Y-86575386D01*
X152346911Y-86575389D01*
X152478014Y-86662990D01*
X152478027Y-86662997D01*
X152623698Y-86723335D01*
X152623703Y-86723337D01*
X152778353Y-86754099D01*
X152778356Y-86754100D01*
X152778358Y-86754100D01*
X152936044Y-86754100D01*
X152936045Y-86754099D01*
X153090697Y-86723337D01*
X153236379Y-86662994D01*
X153367489Y-86575389D01*
X153478989Y-86463889D01*
X153566594Y-86332779D01*
X153626937Y-86187097D01*
X153657700Y-86032442D01*
X153657700Y-85874758D01*
X153657700Y-85874755D01*
X153657699Y-85874753D01*
X153645594Y-85813899D01*
X153626937Y-85720103D01*
X153611599Y-85683073D01*
X153566597Y-85574427D01*
X153566590Y-85574414D01*
X153478989Y-85443311D01*
X153478986Y-85443307D01*
X153469036Y-85433357D01*
X153435551Y-85372034D01*
X153435100Y-85321484D01*
X153447205Y-85260631D01*
X153447205Y-85102942D01*
X153447204Y-85102940D01*
X153416443Y-84948297D01*
X153416442Y-84948290D01*
X153410569Y-84934111D01*
X153356102Y-84802614D01*
X153356095Y-84802601D01*
X153268494Y-84671498D01*
X153268491Y-84671494D01*
X153156997Y-84560000D01*
X153156993Y-84559997D01*
X153025890Y-84472396D01*
X153025877Y-84472389D01*
X152880206Y-84412051D01*
X152880194Y-84412048D01*
X152725550Y-84381287D01*
X152725547Y-84381287D01*
X152567863Y-84381287D01*
X152567860Y-84381287D01*
X152413215Y-84412048D01*
X152413203Y-84412051D01*
X152267532Y-84472389D01*
X152267519Y-84472396D01*
X152136416Y-84559997D01*
X152136412Y-84560000D01*
X152024918Y-84671494D01*
X152024915Y-84671498D01*
X151937314Y-84802601D01*
X151937307Y-84802614D01*
X151876969Y-84948285D01*
X151876966Y-84948297D01*
X151846205Y-85102940D01*
X149686499Y-85102940D01*
X149686499Y-84761391D01*
X149686499Y-83887329D01*
X149686498Y-83887323D01*
X149686497Y-83887316D01*
X149680091Y-83827717D01*
X149665915Y-83789710D01*
X149629797Y-83692871D01*
X149629795Y-83692868D01*
X149552421Y-83589509D01*
X149528004Y-83524048D01*
X149542855Y-83455775D01*
X149552416Y-83440896D01*
X149629796Y-83337531D01*
X149680091Y-83202683D01*
X149686500Y-83143073D01*
X149686499Y-81694753D01*
X152717100Y-81694753D01*
X152717100Y-81852446D01*
X152747861Y-82007089D01*
X152747864Y-82007101D01*
X152808202Y-82152772D01*
X152808209Y-82152785D01*
X152895810Y-82283888D01*
X152895813Y-82283892D01*
X153007307Y-82395386D01*
X153007311Y-82395389D01*
X153138414Y-82482990D01*
X153138427Y-82482997D01*
X153284098Y-82543335D01*
X153284103Y-82543337D01*
X153431986Y-82572753D01*
X153438753Y-82574099D01*
X153438756Y-82574100D01*
X153438758Y-82574100D01*
X153596444Y-82574100D01*
X153596445Y-82574099D01*
X153751097Y-82543337D01*
X153896779Y-82482994D01*
X154027889Y-82395389D01*
X154139389Y-82283889D01*
X154226994Y-82152779D01*
X154287337Y-82007097D01*
X154318100Y-81852442D01*
X154318100Y-81794753D01*
X155795500Y-81794753D01*
X155795500Y-81952446D01*
X155826261Y-82107089D01*
X155826264Y-82107101D01*
X155886602Y-82252772D01*
X155886609Y-82252785D01*
X155974210Y-82383888D01*
X155974213Y-82383892D01*
X156085707Y-82495386D01*
X156085711Y-82495389D01*
X156216814Y-82582990D01*
X156216827Y-82582997D01*
X156332962Y-82631101D01*
X156362503Y-82643337D01*
X156517153Y-82674099D01*
X156517156Y-82674100D01*
X156517158Y-82674100D01*
X156674844Y-82674100D01*
X156674845Y-82674099D01*
X156829497Y-82643337D01*
X156975179Y-82582994D01*
X157106289Y-82495389D01*
X157217789Y-82383889D01*
X157261312Y-82318753D01*
X159016300Y-82318753D01*
X159016300Y-82476446D01*
X159047061Y-82631089D01*
X159047064Y-82631101D01*
X159107402Y-82776772D01*
X159107409Y-82776785D01*
X159195010Y-82907888D01*
X159195013Y-82907892D01*
X159306507Y-83019386D01*
X159306511Y-83019389D01*
X159437614Y-83106990D01*
X159437627Y-83106997D01*
X159583298Y-83167335D01*
X159583303Y-83167337D01*
X159737953Y-83198099D01*
X159737956Y-83198100D01*
X159737958Y-83198100D01*
X159895644Y-83198100D01*
X159895645Y-83198099D01*
X160050297Y-83167337D01*
X160195979Y-83106994D01*
X160327089Y-83019389D01*
X160438589Y-82907889D01*
X160526194Y-82776779D01*
X160586537Y-82631097D01*
X160596105Y-82582997D01*
X160598143Y-82572753D01*
X169684300Y-82572753D01*
X169684300Y-82730446D01*
X169715061Y-82885089D01*
X169715064Y-82885101D01*
X169775402Y-83030772D01*
X169775409Y-83030785D01*
X169863010Y-83161888D01*
X169863013Y-83161892D01*
X169974507Y-83273386D01*
X169974511Y-83273389D01*
X170105614Y-83360990D01*
X170105627Y-83360997D01*
X170203407Y-83401498D01*
X170251303Y-83421337D01*
X170405953Y-83452099D01*
X170405956Y-83452100D01*
X170405958Y-83452100D01*
X170563644Y-83452100D01*
X170563645Y-83452099D01*
X170718297Y-83421337D01*
X170831088Y-83374617D01*
X170900554Y-83367149D01*
X170963034Y-83398424D01*
X170966219Y-83401498D01*
X171041307Y-83476586D01*
X171041311Y-83476589D01*
X171172414Y-83564190D01*
X171172427Y-83564197D01*
X171318098Y-83624535D01*
X171318103Y-83624537D01*
X171472753Y-83655299D01*
X171472756Y-83655300D01*
X171472758Y-83655300D01*
X171630444Y-83655300D01*
X171630445Y-83655299D01*
X171785097Y-83624537D01*
X171930779Y-83564194D01*
X172061889Y-83476589D01*
X172173389Y-83365089D01*
X172260994Y-83233979D01*
X172261164Y-83233570D01*
X172298648Y-83143073D01*
X172321337Y-83088297D01*
X172352100Y-82933642D01*
X172352100Y-82775958D01*
X172352100Y-82775955D01*
X172352099Y-82775953D01*
X172323284Y-82631091D01*
X172321337Y-82621303D01*
X172305469Y-82582994D01*
X172260997Y-82475627D01*
X172260990Y-82475614D01*
X172173389Y-82344511D01*
X172173386Y-82344507D01*
X172061892Y-82233013D01*
X172061888Y-82233010D01*
X171930785Y-82145409D01*
X171930772Y-82145402D01*
X171785101Y-82085064D01*
X171785089Y-82085061D01*
X171630445Y-82054300D01*
X171630442Y-82054300D01*
X171472758Y-82054300D01*
X171472755Y-82054300D01*
X171318110Y-82085061D01*
X171318098Y-82085064D01*
X171205313Y-82131781D01*
X171135844Y-82139250D01*
X171073365Y-82107974D01*
X171070180Y-82104901D01*
X170995092Y-82029813D01*
X170995088Y-82029810D01*
X170863985Y-81942209D01*
X170863972Y-81942202D01*
X170718301Y-81881864D01*
X170718289Y-81881861D01*
X170563645Y-81851100D01*
X170563642Y-81851100D01*
X170405958Y-81851100D01*
X170405955Y-81851100D01*
X170251310Y-81881861D01*
X170251298Y-81881864D01*
X170105627Y-81942202D01*
X170105614Y-81942209D01*
X169974511Y-82029810D01*
X169974507Y-82029813D01*
X169863013Y-82141307D01*
X169863010Y-82141311D01*
X169775409Y-82272414D01*
X169775402Y-82272427D01*
X169715064Y-82418098D01*
X169715061Y-82418110D01*
X169684300Y-82572753D01*
X160598143Y-82572753D01*
X160604166Y-82542474D01*
X160604166Y-82542473D01*
X160615997Y-82482994D01*
X160617300Y-82476442D01*
X160617300Y-82318758D01*
X160617300Y-82318755D01*
X160617299Y-82318753D01*
X160608083Y-82272421D01*
X160586537Y-82164103D01*
X160581849Y-82152785D01*
X160526197Y-82018427D01*
X160526190Y-82018414D01*
X160438589Y-81887311D01*
X160438586Y-81887307D01*
X160327092Y-81775813D01*
X160327088Y-81775810D01*
X160195985Y-81688209D01*
X160195972Y-81688202D01*
X160050301Y-81627864D01*
X160050289Y-81627861D01*
X159895645Y-81597100D01*
X159895642Y-81597100D01*
X159737958Y-81597100D01*
X159737955Y-81597100D01*
X159583310Y-81627861D01*
X159583298Y-81627864D01*
X159437627Y-81688202D01*
X159437614Y-81688209D01*
X159306511Y-81775810D01*
X159306507Y-81775813D01*
X159195013Y-81887307D01*
X159195010Y-81887311D01*
X159107409Y-82018414D01*
X159107402Y-82018427D01*
X159047064Y-82164098D01*
X159047061Y-82164110D01*
X159016300Y-82318753D01*
X157261312Y-82318753D01*
X157305394Y-82252779D01*
X157365737Y-82107097D01*
X157396500Y-81952442D01*
X157396500Y-81794758D01*
X157396500Y-81794755D01*
X157396499Y-81794753D01*
X157382638Y-81725072D01*
X157365737Y-81640103D01*
X157365735Y-81640098D01*
X157305397Y-81494427D01*
X157305390Y-81494414D01*
X157217789Y-81363311D01*
X157217786Y-81363307D01*
X157106292Y-81251813D01*
X157106288Y-81251810D01*
X156975185Y-81164209D01*
X156975172Y-81164202D01*
X156829501Y-81103864D01*
X156829489Y-81103861D01*
X156674845Y-81073100D01*
X156674842Y-81073100D01*
X156517158Y-81073100D01*
X156517155Y-81073100D01*
X156362510Y-81103861D01*
X156362498Y-81103864D01*
X156216827Y-81164202D01*
X156216814Y-81164209D01*
X156085711Y-81251810D01*
X156085707Y-81251813D01*
X155974213Y-81363307D01*
X155974210Y-81363311D01*
X155886609Y-81494414D01*
X155886602Y-81494427D01*
X155826264Y-81640098D01*
X155826261Y-81640110D01*
X155795500Y-81794753D01*
X154318100Y-81794753D01*
X154318100Y-81694758D01*
X154318100Y-81694755D01*
X154318099Y-81694753D01*
X154304794Y-81627864D01*
X154287337Y-81540103D01*
X154266133Y-81488911D01*
X154226997Y-81394427D01*
X154226990Y-81394414D01*
X154139389Y-81263311D01*
X154139386Y-81263307D01*
X154027892Y-81151813D01*
X154027888Y-81151810D01*
X153896785Y-81064209D01*
X153896772Y-81064202D01*
X153751101Y-81003864D01*
X153751089Y-81003861D01*
X153596445Y-80973100D01*
X153596442Y-80973100D01*
X153438758Y-80973100D01*
X153438755Y-80973100D01*
X153284110Y-81003861D01*
X153284098Y-81003864D01*
X153138427Y-81064202D01*
X153138414Y-81064209D01*
X153007311Y-81151810D01*
X153007307Y-81151813D01*
X152895813Y-81263307D01*
X152895810Y-81263311D01*
X152808209Y-81394414D01*
X152808202Y-81394427D01*
X152747864Y-81540098D01*
X152747861Y-81540110D01*
X152717100Y-81694753D01*
X149686499Y-81694753D01*
X149686499Y-81347328D01*
X149680091Y-81287717D01*
X149670988Y-81263311D01*
X149629797Y-81152871D01*
X149629795Y-81152868D01*
X149599499Y-81112398D01*
X149552421Y-81049509D01*
X149528004Y-80984048D01*
X149542855Y-80915775D01*
X149552416Y-80900896D01*
X149629796Y-80797531D01*
X149680091Y-80662683D01*
X149686500Y-80603073D01*
X149686499Y-79042153D01*
X150685100Y-79042153D01*
X150685100Y-79199846D01*
X150715861Y-79354489D01*
X150715864Y-79354501D01*
X150776202Y-79500172D01*
X150776209Y-79500185D01*
X150863810Y-79631288D01*
X150863813Y-79631292D01*
X150975307Y-79742786D01*
X150975311Y-79742789D01*
X151106414Y-79830390D01*
X151106427Y-79830397D01*
X151226070Y-79879954D01*
X151252103Y-79890737D01*
X151400011Y-79920158D01*
X151406753Y-79921499D01*
X151406756Y-79921500D01*
X151406758Y-79921500D01*
X151564444Y-79921500D01*
X151564445Y-79921499D01*
X151719097Y-79890737D01*
X151864779Y-79830394D01*
X151995889Y-79742789D01*
X152107389Y-79631289D01*
X152194994Y-79500179D01*
X152201252Y-79485072D01*
X152222432Y-79433937D01*
X152255337Y-79354497D01*
X152286100Y-79199842D01*
X152286100Y-79042158D01*
X152286100Y-79042155D01*
X152261610Y-78919040D01*
X152258009Y-78900935D01*
X152859718Y-78900935D01*
X152859718Y-79058628D01*
X152890479Y-79213271D01*
X152890482Y-79213283D01*
X152950820Y-79358954D01*
X152950827Y-79358967D01*
X153038428Y-79490070D01*
X153038431Y-79490074D01*
X153149925Y-79601568D01*
X153149929Y-79601571D01*
X153281032Y-79689172D01*
X153281045Y-79689179D01*
X153374011Y-79727686D01*
X153426721Y-79749519D01*
X153581371Y-79780281D01*
X153581374Y-79780282D01*
X153581376Y-79780282D01*
X153739061Y-79780282D01*
X153759767Y-79776163D01*
X153804117Y-79767341D01*
X153873707Y-79773568D01*
X153928885Y-79816430D01*
X153952130Y-79882319D01*
X153942870Y-79936409D01*
X153926263Y-79976503D01*
X153926261Y-79976510D01*
X153895500Y-80131153D01*
X153895500Y-80288846D01*
X153926261Y-80443489D01*
X153926264Y-80443501D01*
X153986602Y-80589172D01*
X153986609Y-80589185D01*
X154074210Y-80720288D01*
X154074213Y-80720292D01*
X154185707Y-80831786D01*
X154185711Y-80831789D01*
X154316814Y-80919390D01*
X154316827Y-80919397D01*
X154462498Y-80979735D01*
X154462503Y-80979737D01*
X154583782Y-81003861D01*
X154617153Y-81010499D01*
X154617156Y-81010500D01*
X154617158Y-81010500D01*
X154774844Y-81010500D01*
X154774845Y-81010499D01*
X154929497Y-80979737D01*
X155075179Y-80919394D01*
X155206289Y-80831789D01*
X155317789Y-80720289D01*
X155405394Y-80589179D01*
X155409313Y-80579719D01*
X155455980Y-80467053D01*
X155465737Y-80443497D01*
X155496500Y-80288842D01*
X155496500Y-80131158D01*
X155496500Y-80131155D01*
X155496499Y-80131153D01*
X155483875Y-80067689D01*
X155465737Y-79976503D01*
X155449144Y-79936444D01*
X155405397Y-79830827D01*
X155405390Y-79830814D01*
X155317789Y-79699711D01*
X155317786Y-79699707D01*
X155206292Y-79588213D01*
X155206288Y-79588210D01*
X155075185Y-79500609D01*
X155075172Y-79500602D01*
X154929501Y-79440264D01*
X154929489Y-79440261D01*
X154774845Y-79409500D01*
X154774842Y-79409500D01*
X154617158Y-79409500D01*
X154617153Y-79409500D01*
X154552100Y-79422440D01*
X154482508Y-79416213D01*
X154427331Y-79373350D01*
X154404087Y-79307460D01*
X154413347Y-79253374D01*
X154429955Y-79213279D01*
X154460718Y-79058624D01*
X154460718Y-78900940D01*
X154460718Y-78900937D01*
X154460717Y-78900935D01*
X154445436Y-78824113D01*
X154429955Y-78746285D01*
X154429953Y-78746280D01*
X154369615Y-78600609D01*
X154369608Y-78600596D01*
X154316261Y-78520757D01*
X154282007Y-78469493D01*
X154282004Y-78469489D01*
X154270468Y-78457953D01*
X154749100Y-78457953D01*
X154749100Y-78615646D01*
X154779861Y-78770289D01*
X154779864Y-78770301D01*
X154840202Y-78915972D01*
X154840209Y-78915985D01*
X154927810Y-79047088D01*
X154927813Y-79047092D01*
X155039307Y-79158586D01*
X155039311Y-79158589D01*
X155170414Y-79246190D01*
X155170427Y-79246197D01*
X155316098Y-79306535D01*
X155316103Y-79306537D01*
X155470753Y-79337299D01*
X155470756Y-79337300D01*
X155470758Y-79337300D01*
X155628444Y-79337300D01*
X155628445Y-79337299D01*
X155783097Y-79306537D01*
X155928779Y-79246194D01*
X156059889Y-79158589D01*
X156171389Y-79047089D01*
X156258994Y-78915979D01*
X156319337Y-78770297D01*
X156350100Y-78615642D01*
X156350100Y-78457958D01*
X156350100Y-78457955D01*
X156350099Y-78457953D01*
X156343813Y-78426353D01*
X156319337Y-78303303D01*
X156311592Y-78284604D01*
X156258997Y-78157627D01*
X156258990Y-78157614D01*
X156171389Y-78026511D01*
X156171386Y-78026507D01*
X156059892Y-77915013D01*
X156059888Y-77915010D01*
X155928785Y-77827409D01*
X155928772Y-77827402D01*
X155783101Y-77767064D01*
X155783089Y-77767061D01*
X155628445Y-77736300D01*
X155628442Y-77736300D01*
X155470758Y-77736300D01*
X155470755Y-77736300D01*
X155316110Y-77767061D01*
X155316098Y-77767064D01*
X155170427Y-77827402D01*
X155170414Y-77827409D01*
X155039311Y-77915010D01*
X155039307Y-77915013D01*
X154927813Y-78026507D01*
X154927810Y-78026511D01*
X154840209Y-78157614D01*
X154840202Y-78157627D01*
X154779864Y-78303298D01*
X154779861Y-78303310D01*
X154749100Y-78457953D01*
X154270468Y-78457953D01*
X154170510Y-78357995D01*
X154170506Y-78357992D01*
X154039403Y-78270391D01*
X154039390Y-78270384D01*
X153893719Y-78210046D01*
X153893707Y-78210043D01*
X153739063Y-78179282D01*
X153739060Y-78179282D01*
X153581376Y-78179282D01*
X153581373Y-78179282D01*
X153426728Y-78210043D01*
X153426716Y-78210046D01*
X153281045Y-78270384D01*
X153281032Y-78270391D01*
X153149929Y-78357992D01*
X153149925Y-78357995D01*
X153038431Y-78469489D01*
X153038428Y-78469493D01*
X152950827Y-78600596D01*
X152950820Y-78600609D01*
X152890482Y-78746280D01*
X152890479Y-78746292D01*
X152859718Y-78900935D01*
X152258009Y-78900935D01*
X152255337Y-78887503D01*
X152249085Y-78872410D01*
X152194997Y-78741827D01*
X152194990Y-78741814D01*
X152107389Y-78610711D01*
X152107386Y-78610707D01*
X151995892Y-78499213D01*
X151995888Y-78499210D01*
X151864785Y-78411609D01*
X151864772Y-78411602D01*
X151719101Y-78351264D01*
X151719089Y-78351261D01*
X151564445Y-78320500D01*
X151564442Y-78320500D01*
X151406758Y-78320500D01*
X151406755Y-78320500D01*
X151252110Y-78351261D01*
X151252098Y-78351264D01*
X151106427Y-78411602D01*
X151106414Y-78411609D01*
X150975311Y-78499210D01*
X150975307Y-78499213D01*
X150863813Y-78610707D01*
X150863810Y-78610711D01*
X150776209Y-78741814D01*
X150776202Y-78741827D01*
X150715864Y-78887498D01*
X150715861Y-78887510D01*
X150685100Y-79042153D01*
X149686499Y-79042153D01*
X149686499Y-78807328D01*
X149680091Y-78747717D01*
X149677894Y-78741827D01*
X149629797Y-78612871D01*
X149629795Y-78612868D01*
X149552421Y-78509509D01*
X149528004Y-78444048D01*
X149542855Y-78375775D01*
X149552416Y-78360896D01*
X149629796Y-78257531D01*
X149680091Y-78122683D01*
X149686500Y-78063073D01*
X149686499Y-76267328D01*
X149680091Y-76207717D01*
X149678850Y-76204391D01*
X149629797Y-76072871D01*
X149629795Y-76072868D01*
X149552421Y-75969509D01*
X149528004Y-75904048D01*
X149542855Y-75835775D01*
X149552416Y-75820896D01*
X149629796Y-75717531D01*
X149680091Y-75582683D01*
X149686500Y-75523073D01*
X149686499Y-73727328D01*
X149680091Y-73667717D01*
X149647805Y-73581155D01*
X149629797Y-73532871D01*
X149629795Y-73532868D01*
X149601286Y-73494785D01*
X149552421Y-73429509D01*
X149528004Y-73364048D01*
X149542855Y-73295775D01*
X149552416Y-73280896D01*
X149629796Y-73177531D01*
X149680091Y-73042683D01*
X149686500Y-72983073D01*
X149686499Y-71383713D01*
X151049500Y-71383713D01*
X151049500Y-71596287D01*
X151053298Y-71620264D01*
X151081874Y-71800692D01*
X151082754Y-71806243D01*
X151146639Y-72002861D01*
X151148444Y-72008414D01*
X151244951Y-72197820D01*
X151369890Y-72369786D01*
X151520213Y-72520109D01*
X151692179Y-72645048D01*
X151692181Y-72645049D01*
X151692184Y-72645051D01*
X151881588Y-72741557D01*
X152083757Y-72807246D01*
X152293713Y-72840500D01*
X152293714Y-72840500D01*
X152506286Y-72840500D01*
X152506287Y-72840500D01*
X152716243Y-72807246D01*
X152918412Y-72741557D01*
X153107816Y-72645051D01*
X153205416Y-72574141D01*
X153279786Y-72520109D01*
X153279788Y-72520106D01*
X153279792Y-72520104D01*
X153430104Y-72369792D01*
X153430106Y-72369788D01*
X153430109Y-72369786D01*
X153555048Y-72197820D01*
X153555047Y-72197820D01*
X153555051Y-72197816D01*
X153651557Y-72008412D01*
X153717246Y-71806243D01*
X153750500Y-71596287D01*
X153750500Y-71383713D01*
X153717246Y-71173757D01*
X153651557Y-70971588D01*
X153555051Y-70782184D01*
X153555049Y-70782181D01*
X153555048Y-70782179D01*
X153430109Y-70610213D01*
X153279786Y-70459890D01*
X153107820Y-70334951D01*
X152918414Y-70238444D01*
X152918413Y-70238443D01*
X152918412Y-70238443D01*
X152716243Y-70172754D01*
X152716241Y-70172753D01*
X152716240Y-70172753D01*
X152554957Y-70147208D01*
X152506287Y-70139500D01*
X152293713Y-70139500D01*
X152245042Y-70147208D01*
X152083760Y-70172753D01*
X151881585Y-70238444D01*
X151692179Y-70334951D01*
X151520213Y-70459890D01*
X151369890Y-70610213D01*
X151244951Y-70782179D01*
X151148444Y-70971585D01*
X151082753Y-71173760D01*
X151057009Y-71336304D01*
X151049500Y-71383713D01*
X149686499Y-71383713D01*
X149686499Y-71187328D01*
X149680091Y-71127717D01*
X149666132Y-71090292D01*
X149629797Y-70992871D01*
X149629795Y-70992868D01*
X149613865Y-70971588D01*
X149552421Y-70889509D01*
X149528004Y-70824048D01*
X149542855Y-70755775D01*
X149552416Y-70740896D01*
X149629796Y-70637531D01*
X149680091Y-70502683D01*
X149686500Y-70443073D01*
X149686499Y-68647328D01*
X149680091Y-68587717D01*
X149647805Y-68501155D01*
X149629797Y-68452871D01*
X149629793Y-68452864D01*
X149543547Y-68337655D01*
X149543544Y-68337652D01*
X149428335Y-68251406D01*
X149428328Y-68251402D01*
X149293482Y-68201108D01*
X149293483Y-68201108D01*
X149233883Y-68194701D01*
X149233881Y-68194700D01*
X149233873Y-68194700D01*
X149233864Y-68194700D01*
X147438129Y-68194700D01*
X147438123Y-68194701D01*
X147378516Y-68201108D01*
X147243671Y-68251402D01*
X147243664Y-68251406D01*
X147128455Y-68337652D01*
X147128452Y-68337655D01*
X147042206Y-68452864D01*
X147042202Y-68452871D01*
X146991908Y-68587717D01*
X146988260Y-68621653D01*
X146985501Y-68647323D01*
X146985500Y-68647335D01*
X146428141Y-68647335D01*
X146471780Y-68409202D01*
X146475364Y-68394664D01*
X146477321Y-68388385D01*
X146560699Y-68120812D01*
X146565997Y-68106842D01*
X146683727Y-67845258D01*
X146690680Y-67832012D01*
X146730959Y-67765381D01*
X146839075Y-67586534D01*
X146847567Y-67574230D01*
X147024481Y-67348417D01*
X147034396Y-67337226D01*
X147237226Y-67134396D01*
X147248417Y-67124481D01*
X147474230Y-66947567D01*
X147486534Y-66939075D01*
X147732012Y-66790680D01*
X147745258Y-66783727D01*
X148006842Y-66665997D01*
X148020812Y-66660699D01*
X148294668Y-66575362D01*
X148309198Y-66571780D01*
X148591344Y-66520075D01*
X148606202Y-66518271D01*
X148896256Y-66500726D01*
X148903647Y-66500500D01*
X148965892Y-66500500D01*
X148966069Y-66500452D01*
X177573415Y-66479685D01*
X177580944Y-66479910D01*
G37*
%TD.AperFunction*%
%TD*%
M02*
