%TF.GenerationSoftware,KiCad,Pcbnew,10.0.3*%
%TF.CreationDate,2026-07-13T19:26:38+01:00*%
%TF.ProjectId,CC1101_Multx,43433131-3031-45f4-9d75-6c74782e6b69,rev?*%
%TF.SameCoordinates,Original*%
%TF.FileFunction,Copper,L1,Top*%
%TF.FilePolarity,Positive*%
%FSLAX46Y46*%
G04 Gerber Fmt 4.6, Leading zero omitted, Abs format (unit mm)*
G04 Created by KiCad (PCBNEW 10.0.3) date 2026-07-13 19:26:38*
%MOMM*%
%LPD*%
G01*
G04 APERTURE LIST*
G04 Aperture macros list*
%AMRoundRect*
0 Rectangle with rounded corners*
0 $1 Rounding radius*
0 $2 $3 $4 $5 $6 $7 $8 $9 X,Y pos of 4 corners*
0 Add a 4 corners polygon primitive as box body*
4,1,4,$2,$3,$4,$5,$6,$7,$8,$9,$2,$3,0*
0 Add four circle primitives for the rounded corners*
1,1,$1+$1,$2,$3*
1,1,$1+$1,$4,$5*
1,1,$1+$1,$6,$7*
1,1,$1+$1,$8,$9*
0 Add four rect primitives between the rounded corners*
20,1,$1+$1,$2,$3,$4,$5,0*
20,1,$1+$1,$4,$5,$6,$7,0*
20,1,$1+$1,$6,$7,$8,$9,0*
20,1,$1+$1,$8,$9,$2,$3,0*%
G04 Aperture macros list end*
%TA.AperFunction,SMDPad,CuDef*%
%ADD10RoundRect,0.147500X-0.147500X-0.172500X0.147500X-0.172500X0.147500X0.172500X-0.147500X0.172500X0*%
%TD*%
%TA.AperFunction,SMDPad,CuDef*%
%ADD11RoundRect,0.140000X-0.140000X-0.170000X0.140000X-0.170000X0.140000X0.170000X-0.140000X0.170000X0*%
%TD*%
%TA.AperFunction,SMDPad,CuDef*%
%ADD12RoundRect,0.147500X0.172500X-0.147500X0.172500X0.147500X-0.172500X0.147500X-0.172500X-0.147500X0*%
%TD*%
%TA.AperFunction,SMDPad,CuDef*%
%ADD13RoundRect,0.140000X-0.170000X0.140000X-0.170000X-0.140000X0.170000X-0.140000X0.170000X0.140000X0*%
%TD*%
%TA.AperFunction,SMDPad,CuDef*%
%ADD14RoundRect,0.240000X-2.210000X-0.560000X2.210000X-0.560000X2.210000X0.560000X-2.210000X0.560000X0*%
%TD*%
%TA.AperFunction,SMDPad,CuDef*%
%ADD15RoundRect,0.225000X-2.575000X-0.525000X2.575000X-0.525000X2.575000X0.525000X-2.575000X0.525000X0*%
%TD*%
%TA.AperFunction,SMDPad,CuDef*%
%ADD16R,0.990600X0.355600*%
%TD*%
%TA.AperFunction,SMDPad,CuDef*%
%ADD17R,0.950000X0.300000*%
%TD*%
%TA.AperFunction,SMDPad,CuDef*%
%ADD18R,0.300000X0.950000*%
%TD*%
%TA.AperFunction,SMDPad,CuDef*%
%ADD19R,2.500000X2.500000*%
%TD*%
%TA.AperFunction,ComponentPad*%
%ADD20R,1.700000X1.700000*%
%TD*%
%TA.AperFunction,SMDPad,CuDef*%
%ADD21RoundRect,0.140000X0.140000X0.170000X-0.140000X0.170000X-0.140000X-0.170000X0.140000X-0.170000X0*%
%TD*%
%TA.AperFunction,SMDPad,CuDef*%
%ADD22RoundRect,0.140000X0.170000X-0.140000X0.170000X0.140000X-0.170000X0.140000X-0.170000X-0.140000X0*%
%TD*%
%TA.AperFunction,ComponentPad*%
%ADD23C,1.700000*%
%TD*%
%TA.AperFunction,SMDPad,CuDef*%
%ADD24RoundRect,0.102000X-0.373000X-0.323000X0.373000X-0.323000X0.373000X0.323000X-0.373000X0.323000X0*%
%TD*%
%TA.AperFunction,SMDPad,CuDef*%
%ADD25RoundRect,0.218750X-0.218750X-0.256250X0.218750X-0.256250X0.218750X0.256250X-0.218750X0.256250X0*%
%TD*%
%TA.AperFunction,SMDPad,CuDef*%
%ADD26RoundRect,0.135000X-0.185000X0.135000X-0.185000X-0.135000X0.185000X-0.135000X0.185000X0.135000X0*%
%TD*%
%TA.AperFunction,SMDPad,CuDef*%
%ADD27RoundRect,0.147500X0.147500X0.172500X-0.147500X0.172500X-0.147500X-0.172500X0.147500X-0.172500X0*%
%TD*%
%TA.AperFunction,ViaPad*%
%ADD28C,0.600000*%
%TD*%
%TA.AperFunction,Conductor*%
%ADD29C,0.200000*%
%TD*%
%TA.AperFunction,Conductor*%
%ADD30C,0.150000*%
%TD*%
G04 APERTURE END LIST*
D10*
%TO.P,L122_1,1,1_1*%
%TO.N,Net-(C121_1-Pad2)*%
X170602711Y-82351100D03*
%TO.P,L122_1,2,2_2*%
%TO.N,Net-(C122_1-Pad2)*%
X171572711Y-82351100D03*
%TD*%
D11*
%TO.P,C122_1,2*%
%TO.N,Net-(C122_1-Pad2)*%
X171572711Y-80655524D03*
%TO.P,C122_1,1*%
%TO.N,/AGND*%
X170612711Y-80655524D03*
%TD*%
D12*
%TO.P,L123_1,2,2_2*%
%TO.N,Net-(C123_1-Pad2)*%
X171572711Y-78014948D03*
%TO.P,L123_1,1,1_1*%
%TO.N,Net-(C122_1-Pad2)*%
X171572711Y-78984948D03*
%TD*%
D11*
%TO.P,C123_1,2*%
%TO.N,Net-(C123_1-Pad2)*%
X171572711Y-76344372D03*
%TO.P,C123_1,1*%
%TO.N,/AGND*%
X170612711Y-76344372D03*
%TD*%
D13*
%TO.P,C125_1,2*%
%TO.N,Net-(C123_1-Pad2)*%
X171572711Y-74688796D03*
%TO.P,C125_1,1*%
%TO.N,/433_A*%
X171572711Y-73728796D03*
%TD*%
D14*
%TO.P,AE2,2,Shield_2*%
%TO.N,/AGND*%
X175977636Y-90234953D03*
X175977636Y-81714953D03*
D15*
%TO.P,AE2,1,A_1*%
%TO.N,/868_A*%
X175627636Y-85974953D03*
%TD*%
D16*
%TO.P,U1,1,RF1_1*%
%TO.N,/868_N*%
X162779876Y-81239999D03*
%TO.P,U1,2,GND_2*%
%TO.N,/AGND*%
X162779876Y-80590000D03*
%TO.P,U1,3,RF2_3*%
%TO.N,/433_N*%
X162779876Y-79940001D03*
%TO.P,U1,4,CTRL_4*%
%TO.N,Net-(J7-Pin_1)*%
X160443076Y-79940001D03*
%TO.P,U1,5,RFC_5*%
%TO.N,/RF_N*%
X160443076Y-80590000D03*
%TO.P,U1,6,\u002ACTRL/VDD_6*%
%TO.N,/AVDD*%
X160443076Y-81239999D03*
%TD*%
D10*
%TO.P,L131_1,1,1_1*%
%TO.N,/433_N*%
X167605517Y-79959200D03*
%TO.P,L131_1,2,2_2*%
%TO.N,Net-(C121_1-Pad2)*%
X168575517Y-79959200D03*
%TD*%
D17*
%TO.P,IC1,1,SCLK_1*%
%TO.N,Net-(IC1-SCLK)*%
X154696000Y-80873600D03*
%TO.P,IC1,2,SO_(GDO1)_2*%
%TO.N,Net-(IC1-SO_(GDO1))*%
X154696000Y-81373600D03*
%TO.P,IC1,3,GDO2_3*%
%TO.N,Net-(IC1-GDO2)*%
X154696000Y-81873600D03*
%TO.P,IC1,4,DVDD_4*%
%TO.N,/AVDD*%
X154696000Y-82373600D03*
%TO.P,IC1,5,DCOUPL_5*%
%TO.N,Net-(IC1-DCOUPL)*%
X154696000Y-82873600D03*
D18*
%TO.P,IC1,6,GDO0_(ATEST)_6*%
%TO.N,Net-(IC1-GDO0_(ATEST))*%
X155596000Y-83773600D03*
%TO.P,IC1,7,CSN_7*%
%TO.N,Net-(IC1-CSN)*%
X156096000Y-83773600D03*
%TO.P,IC1,8,XOSC_Q1_8*%
%TO.N,Net-(IC1-XOSC_Q1)*%
X156596000Y-83773600D03*
%TO.P,IC1,9,AVDD_1_9*%
%TO.N,/AVDD*%
X157096000Y-83773600D03*
%TO.P,IC1,10,XOSC_Q2_10*%
%TO.N,Net-(IC1-XOSC_Q2)*%
X157596000Y-83773600D03*
D17*
%TO.P,IC1,11,AVDD_2_11*%
%TO.N,/AVDD*%
X158496000Y-82873600D03*
%TO.P,IC1,12,RF_P_12*%
%TO.N,/RF_P*%
X158496000Y-82373600D03*
%TO.P,IC1,13,RF_N_13*%
%TO.N,/RF_N*%
X158496000Y-81873600D03*
%TO.P,IC1,14,AVDD_3_14*%
%TO.N,/AVDD*%
X158496000Y-81373600D03*
%TO.P,IC1,15,AVDD_4_15*%
X158496000Y-80873600D03*
D18*
%TO.P,IC1,16,GND_1_16*%
%TO.N,/AGND*%
X157596000Y-79973600D03*
%TO.P,IC1,17,RBIAS_17*%
%TO.N,Net-(IC1-RBIAS)*%
X157096000Y-79973600D03*
%TO.P,IC1,18,DGUARD_18*%
%TO.N,/AGND*%
X156596000Y-79973600D03*
%TO.P,IC1,19,GND_2_19*%
X156096000Y-79973600D03*
%TO.P,IC1,20,SI_20*%
%TO.N,Net-(IC1-SI)*%
X155596000Y-79973600D03*
D19*
%TO.P,IC1,21,GND_3_21*%
%TO.N,/AGND*%
X156596000Y-81873600D03*
%TD*%
D20*
%TO.P,J8,1,Pin_1_1*%
%TO.N,Net-(J8-Pin_1)*%
X148180000Y-86290000D03*
%TD*%
%TO.P,J7,1,Pin_1_1*%
%TO.N,Net-(J7-Pin_1)*%
X145640000Y-81210000D03*
%TD*%
D12*
%TO.P,L121_1,1,1_1*%
%TO.N,Net-(C124_1-Pad2)*%
X165753711Y-86493700D03*
%TO.P,L121_1,2,2_2*%
%TO.N,/433_P*%
X165753711Y-85523700D03*
%TD*%
D11*
%TO.P,C3,1*%
%TO.N,/AGND*%
X151513600Y-82092800D03*
%TO.P,C3,2*%
%TO.N,/AVDD*%
X152473600Y-82092800D03*
%TD*%
D21*
%TO.P,C51,1*%
%TO.N,Net-(IC1-DCOUPL)*%
X152473600Y-83159600D03*
%TO.P,C51,2*%
%TO.N,/AGND*%
X151513600Y-83159600D03*
%TD*%
D20*
%TO.P,J3,1,Pin_1_1*%
%TO.N,Net-(IC1-GDO2)*%
X148180000Y-78670000D03*
%TD*%
D22*
%TO.P,C131_1,1*%
%TO.N,/433_N*%
X165753711Y-78868700D03*
%TO.P,C131_1,2*%
%TO.N,/AGND*%
X165753711Y-77908700D03*
%TD*%
D20*
%TO.P,BT1,1,+_1*%
%TO.N,/AVDD*%
X148180000Y-73590000D03*
D23*
%TO.P,BT1,2,-_2*%
%TO.N,/AGND*%
X145640000Y-73590000D03*
%TD*%
D16*
%TO.P,U3,1,RF1_1*%
%TO.N,/433_P*%
X162779876Y-84414462D03*
%TO.P,U3,2,GND_2*%
%TO.N,/AGND*%
X162779876Y-83764463D03*
%TO.P,U3,3,RF2_3*%
%TO.N,/868_P*%
X162779876Y-83114464D03*
%TO.P,U3,4,CTRL_4*%
%TO.N,Net-(J8-Pin_1)*%
X160443076Y-83114464D03*
%TO.P,U3,5,RFC_5*%
%TO.N,/RF_P*%
X160443076Y-83764463D03*
%TO.P,U3,6,\u002ACTRL/VDD_6*%
%TO.N,/AVDD*%
X160443076Y-84414462D03*
%TD*%
D20*
%TO.P,J1,1,Pin_1_1*%
%TO.N,Net-(IC1-SCLK)*%
X148180000Y-76130000D03*
%TD*%
D21*
%TO.P,C131_2,1*%
%TO.N,Net-(C121_2-Pad1)*%
X165344711Y-79988900D03*
%TO.P,C131_2,2*%
%TO.N,/AGND*%
X164384711Y-79988900D03*
%TD*%
D10*
%TO.P,L132_2,1,1_1*%
%TO.N,Net-(C121_2-Pad1)*%
X166411711Y-81004900D03*
%TO.P,L132_2,2,2_2*%
%TO.N,Net-(C122_2-Pad2)*%
X167381711Y-81004900D03*
%TD*%
D21*
%TO.P,C121_2,1*%
%TO.N,Net-(C121_2-Pad1)*%
X166335311Y-82097100D03*
%TO.P,C121_2,2*%
%TO.N,Net-(C121_2-Pad2)*%
X165375311Y-82097100D03*
%TD*%
D20*
%TO.P,J6,1,Pin_1_1*%
%TO.N,Net-(IC1-CSN)*%
X148180000Y-83750000D03*
%TD*%
D11*
%TO.P,C2,1*%
%TO.N,/AGND*%
X151513600Y-81026000D03*
%TO.P,C2,2*%
%TO.N,/AVDD*%
X152473600Y-81026000D03*
%TD*%
D20*
%TO.P,J4,1,Pin_1_1*%
%TO.N,Net-(IC1-SI)*%
X145640000Y-83750000D03*
%TD*%
D24*
%TO.P,Y1,1,1_1*%
%TO.N,Net-(IC1-XOSC_Q1)*%
X156069200Y-87747800D03*
%TO.P,Y1,2,G_2*%
%TO.N,/AGND*%
X157519200Y-87747800D03*
%TO.P,Y1,3,3_3*%
%TO.N,Net-(IC1-XOSC_Q2)*%
X157519200Y-86597800D03*
%TO.P,Y1,4,G_4*%
%TO.N,/AGND*%
X156069200Y-86597800D03*
%TD*%
D20*
%TO.P,J2,1,Pin_1_1*%
%TO.N,Net-(IC1-SO_(GDO1))*%
X145640000Y-86290000D03*
%TD*%
D11*
%TO.P,C122_2,1*%
%TO.N,Net-(C121_2-Pad2)*%
X166391311Y-83214700D03*
%TO.P,C122_2,2*%
%TO.N,Net-(C122_2-Pad2)*%
X167351311Y-83214700D03*
%TD*%
D20*
%TO.P,J5,1,Pin_1_1*%
%TO.N,Net-(IC1-GDO0_(ATEST))*%
X148180000Y-81210000D03*
%TD*%
D22*
%TO.P,C4,1*%
%TO.N,/AGND*%
X154762200Y-87881400D03*
%TO.P,C4,2*%
%TO.N,Net-(IC1-XOSC_Q1)*%
X154762200Y-86921400D03*
%TD*%
D25*
%TO.P,L124_2,1,1_1*%
%TO.N,Net-(C123_2-Pad2)*%
X169690611Y-83773500D03*
%TO.P,L124_2,2,2_2*%
%TO.N,Net-(C125_2-Pad2)*%
X171265611Y-83773500D03*
%TD*%
D22*
%TO.P,C123_2,1*%
%TO.N,/AGND*%
X168395311Y-84151900D03*
%TO.P,C123_2,2*%
%TO.N,Net-(C123_2-Pad2)*%
X168395311Y-83191900D03*
%TD*%
D15*
%TO.P,AE1,1,A_1*%
%TO.N,/433_A*%
X175627636Y-73728796D03*
D14*
%TO.P,AE1,2,Shield_2*%
%TO.N,/AGND*%
X175977636Y-69468796D03*
X175977636Y-77988796D03*
%TD*%
D11*
%TO.P,C1,1*%
%TO.N,/AGND*%
X151513600Y-79959200D03*
%TO.P,C1,2*%
%TO.N,/AVDD*%
X152473600Y-79959200D03*
%TD*%
D22*
%TO.P,C125_2,1*%
%TO.N,/868_A*%
X171270000Y-86040000D03*
%TO.P,C125_2,2*%
%TO.N,Net-(C125_2-Pad2)*%
X171270000Y-85080000D03*
%TD*%
D11*
%TO.P,C121_1,1*%
%TO.N,/433_P*%
X167966111Y-85500700D03*
%TO.P,C121_1,2*%
%TO.N,Net-(C121_1-Pad2)*%
X168926111Y-85500700D03*
%TD*%
D26*
%TO.P,R171,1*%
%TO.N,/AGND*%
X157073600Y-77671200D03*
%TO.P,R171,2*%
%TO.N,Net-(IC1-RBIAS)*%
X157073600Y-78691200D03*
%TD*%
D10*
%TO.P,L121_2,1,1_1*%
%TO.N,/868_P*%
X164405111Y-83214700D03*
%TO.P,L121_2,2,2_2*%
%TO.N,Net-(C121_2-Pad2)*%
X165375111Y-83214700D03*
%TD*%
D11*
%TO.P,C124_2,1*%
%TO.N,/AGND*%
X164435511Y-84230700D03*
%TO.P,C124_2,2*%
%TO.N,Net-(C124_2-Pad2)*%
X165395511Y-84230700D03*
%TD*%
D20*
%TO.P,J9,1,Pin_1_1*%
%TO.N,/AGND*%
X145640000Y-78670000D03*
%TD*%
%TO.P,J1,1,Pin_1_1*%
%TO.N,/AGND*%
X145640000Y-76130000D03*
%TD*%
D22*
%TO.P,C5,1*%
%TO.N,/AGND*%
X158863200Y-87636600D03*
%TO.P,C5,2*%
%TO.N,Net-(IC1-XOSC_Q2)*%
X158863200Y-86676600D03*
%TD*%
D27*
%TO.P,L122_2,1,1_1*%
%TO.N,Net-(C121_2-Pad2)*%
X167356311Y-84281500D03*
%TO.P,L122_2,2,2_2*%
%TO.N,Net-(C124_2-Pad2)*%
X166386311Y-84281500D03*
%TD*%
D10*
%TO.P,L123_2,1,1_1*%
%TO.N,Net-(C122_2-Pad2)*%
X167402311Y-82097100D03*
%TO.P,L123_2,2,2_2*%
%TO.N,Net-(C123_2-Pad2)*%
X168372311Y-82097100D03*
%TD*%
%TO.P,L131_2,1,1_1*%
%TO.N,/868_N*%
X164379711Y-81004900D03*
%TO.P,L131_2,2,2_2*%
%TO.N,Net-(C121_2-Pad1)*%
X165349711Y-81004900D03*
%TD*%
D22*
%TO.P,C124_1,1*%
%TO.N,/AGND*%
X165753711Y-88469900D03*
%TO.P,C124_1,2*%
%TO.N,Net-(C124_1-Pad2)*%
X165753711Y-87509900D03*
%TD*%
D28*
%TO.N,/AGND*%
X153800000Y-83990000D03*
X151600000Y-83740000D03*
X150810000Y-81000000D03*
X150850000Y-79930000D03*
X172431969Y-74629870D03*
X172360000Y-72820000D03*
X172100000Y-86920000D03*
X172230000Y-85130000D03*
X172720000Y-83820000D03*
X172720000Y-76200000D03*
X161290000Y-74930000D03*
X161290000Y-72390000D03*
X161290000Y-69850000D03*
X144780000Y-88900000D03*
X147320000Y-88900000D03*
X152400000Y-91440000D03*
X152400000Y-73660000D03*
X154940000Y-71120000D03*
X149860000Y-71120000D03*
X147320000Y-71120000D03*
X147320000Y-68580000D03*
X149860000Y-68580000D03*
X152400000Y-68580000D03*
X154940000Y-68580000D03*
X157480000Y-68580000D03*
X160020000Y-68580000D03*
X177800000Y-88900000D03*
X177800000Y-83820000D03*
X177800000Y-71120000D03*
X177800000Y-76200000D03*
X175260000Y-76200000D03*
X175260000Y-71120000D03*
X175260000Y-83820000D03*
X175260000Y-88900000D03*
X172720000Y-88900000D03*
X172720000Y-91440000D03*
X170180000Y-91440000D03*
X170180000Y-78740000D03*
X170180000Y-76200000D03*
X170180000Y-73660000D03*
X172720000Y-71120000D03*
X170180000Y-68580000D03*
X172720000Y-68580000D03*
X175977636Y-69468796D03*
X175977636Y-77988796D03*
X175977636Y-81714953D03*
X175977636Y-90234953D03*
X167640000Y-73660000D03*
X157480000Y-71120000D03*
X162540000Y-85410000D03*
X156210000Y-72390000D03*
X155230000Y-88760000D03*
X152400000Y-87630000D03*
X161290000Y-87630000D03*
X158750000Y-69850000D03*
X160020000Y-73660000D03*
X158470000Y-84900000D03*
X167640000Y-71120000D03*
X156210000Y-74930000D03*
X157886400Y-77724000D03*
X162560000Y-91440000D03*
X164717711Y-86205900D03*
X163676917Y-78375000D03*
X166607711Y-78335900D03*
X165100000Y-91440000D03*
X168192117Y-79044800D03*
X161590000Y-83360000D03*
X165100000Y-73660000D03*
X144780000Y-71120000D03*
X163830000Y-69850000D03*
X163830000Y-87630000D03*
X162560000Y-88900000D03*
X163830000Y-74930000D03*
X163734250Y-80415196D03*
X165100000Y-68580000D03*
X161610000Y-81050000D03*
X163830000Y-72390000D03*
X165753711Y-89107500D03*
X149860000Y-88900000D03*
X168910000Y-87630000D03*
X165100000Y-71120000D03*
X167226917Y-78994000D03*
X151485600Y-79121000D03*
X158750000Y-74930000D03*
X162560000Y-68580000D03*
X168910000Y-74930000D03*
X163710076Y-83989957D03*
X160730000Y-85420000D03*
X154940000Y-73660000D03*
X158750000Y-90170000D03*
X167640000Y-91440000D03*
X168910000Y-72390000D03*
X168415046Y-84768326D03*
X166370000Y-74930000D03*
X166370000Y-69850000D03*
X157480000Y-76200000D03*
X162590000Y-79010000D03*
X156596000Y-81873600D03*
X162560000Y-71120000D03*
X159380000Y-77920000D03*
X166370000Y-90170000D03*
X161290000Y-90170000D03*
X164857711Y-88005900D03*
X160020000Y-71120000D03*
X153670000Y-74930000D03*
X158318200Y-88544400D03*
X163830000Y-90170000D03*
X166370000Y-72390000D03*
X167640000Y-88900000D03*
X167640000Y-76200000D03*
X168910000Y-69850000D03*
X165100000Y-76200000D03*
X167517711Y-86415900D03*
X157480000Y-91440000D03*
X147320000Y-91440000D03*
X168910000Y-90170000D03*
X164737711Y-78135900D03*
X166617711Y-87975900D03*
X169360517Y-79445900D03*
X158750000Y-72390000D03*
X164747711Y-87015900D03*
X160020000Y-76200000D03*
X168910000Y-77470000D03*
X146050000Y-88900000D03*
X151130000Y-74930000D03*
X166687711Y-87005900D03*
X161540000Y-84510000D03*
X154940000Y-76200000D03*
X168447711Y-86455900D03*
X167640000Y-68580000D03*
X169557711Y-86295900D03*
X162560000Y-73660000D03*
X158900000Y-78660000D03*
X166677711Y-86100700D03*
X161610000Y-79860000D03*
X157480000Y-73660000D03*
X154940000Y-91440000D03*
X162560000Y-76200000D03*
X163430000Y-85800000D03*
X162560000Y-86360000D03*
X165753711Y-77118700D03*
X146050000Y-68580000D03*
X156210000Y-69850000D03*
X156210000Y-90170000D03*
%TO.N,Net-(J7-Pin_1)*%
X160300000Y-79040000D03*
%TO.N,/AVDD*%
X158750000Y-83921600D03*
X152552400Y-79146400D03*
X156819600Y-85191600D03*
X158648400Y-79959200D03*
X160432866Y-81678930D03*
%TO.N,Net-(IC1-SO_(GDO1))*%
X154090000Y-78910000D03*
%TO.N,Net-(IC1-SI)*%
X155549600Y-78536800D03*
%TO.N,Net-(J8-Pin_1)*%
X160462717Y-82478375D03*
%TD*%
%TO.N,Net-(C122_1-Pad2)*%
D29*
X171572711Y-78984948D02*
X171572711Y-82351100D01*
%TO.N,Net-(C123_1-Pad2)*%
X171572711Y-74688796D02*
X171572711Y-78014948D01*
%TO.N,/433_A*%
X171572711Y-73728796D02*
X175627636Y-73728796D01*
%TO.N,Net-(C125_2-Pad2)*%
X171270000Y-83777889D02*
X171265611Y-83773500D01*
X171270000Y-85080000D02*
X171270000Y-83777889D01*
%TO.N,/868_A*%
X175562589Y-86040000D02*
X175627636Y-85974953D01*
X171270000Y-86040000D02*
X175562589Y-86040000D01*
%TO.N,/868_N*%
X162829875Y-81190000D02*
X164194611Y-81190000D01*
X162779876Y-81239999D02*
X162829875Y-81190000D01*
X164194611Y-81190000D02*
X164379711Y-81004900D01*
X164379711Y-81004900D02*
X164379711Y-81180806D01*
%TO.N,/AGND*%
X163958415Y-80415196D02*
X164384711Y-79988900D01*
X163734250Y-80415196D02*
X163734250Y-80564867D01*
X151513600Y-83159600D02*
X151513600Y-79959200D01*
X157394600Y-87747800D02*
X156244600Y-86597800D01*
X156096000Y-79973600D02*
X156096000Y-81373600D01*
X154762200Y-88292200D02*
X155230000Y-88760000D01*
X165753711Y-89107500D02*
X165753711Y-88469900D01*
X163950819Y-84230700D02*
X164435511Y-84230700D01*
X158863200Y-87999400D02*
X158318200Y-88544400D01*
X157596000Y-80873600D02*
X156596000Y-81873600D01*
X163710076Y-83989957D02*
X163484582Y-83764463D01*
X154762200Y-87881400D02*
X154762200Y-88292200D01*
X163734250Y-80415196D02*
X163958415Y-80415196D01*
X158318200Y-88544400D02*
X158315800Y-88544400D01*
X163710076Y-83989957D02*
X163950819Y-84230700D01*
X157596000Y-79973600D02*
X157596000Y-80873600D01*
X151485600Y-79931200D02*
X151513600Y-79959200D01*
X156596000Y-79973600D02*
X156596000Y-81873600D01*
X168395311Y-84748591D02*
X168395311Y-84151900D01*
X158863200Y-87636600D02*
X158863200Y-87999400D01*
X151485600Y-79121000D02*
X151485600Y-79931200D01*
X163484582Y-83764463D02*
X162779876Y-83764463D01*
X156096000Y-81373600D02*
X156596000Y-81873600D01*
X156244600Y-86597800D02*
X156069200Y-86597800D01*
X168415046Y-84768326D02*
X168395311Y-84748591D01*
X165753711Y-77908700D02*
X165753711Y-77118700D01*
X157833600Y-77671200D02*
X157886400Y-77724000D01*
X163709117Y-80590000D02*
X162779876Y-80590000D01*
X145640000Y-76130000D02*
X145640000Y-73590000D01*
X163734250Y-80564867D02*
X163709117Y-80590000D01*
X157519200Y-87747800D02*
X157394600Y-87747800D01*
X157073600Y-77671200D02*
X157833600Y-77671200D01*
X158315800Y-88544400D02*
X157519200Y-87747800D01*
%TO.N,/433_N*%
X166917811Y-79959200D02*
X167605517Y-79959200D01*
X162779876Y-79940001D02*
X162978916Y-79940001D01*
X165827311Y-78868700D02*
X166917811Y-79959200D01*
X165753711Y-78868700D02*
X164050217Y-78868700D01*
X162978916Y-79940001D02*
X164050217Y-78868700D01*
X165753711Y-78868700D02*
X165827311Y-78868700D01*
%TO.N,Net-(J7-Pin_1)*%
X160443076Y-79940001D02*
X160443076Y-79183076D01*
X160443076Y-79183076D02*
X160300000Y-79040000D01*
%TO.N,/RF_N*%
X159271000Y-81823600D02*
X159221000Y-81873600D01*
X159221000Y-81873600D02*
X159000000Y-81873600D01*
X159747776Y-80590000D02*
X159271000Y-81066776D01*
X160443076Y-80590000D02*
X159747776Y-80590000D01*
D30*
X158496000Y-81873600D02*
X159221000Y-81873600D01*
D29*
X159271000Y-81066776D02*
X159271000Y-81823600D01*
%TO.N,/AVDD*%
X154696000Y-82373600D02*
X152754400Y-82373600D01*
X158496000Y-83667600D02*
X158750000Y-83921600D01*
X157096000Y-83773600D02*
X157096000Y-84915200D01*
X158496000Y-82873600D02*
X158496000Y-83667600D01*
X152473600Y-79225200D02*
X152473600Y-82092800D01*
X160432866Y-81517134D02*
X160443076Y-81506924D01*
X160443076Y-84414462D02*
X159242862Y-84414462D01*
X158496000Y-80873600D02*
X158496000Y-80111600D01*
X159242862Y-84414462D02*
X158750000Y-83921600D01*
X160443076Y-81506924D02*
X160443076Y-81239999D01*
X152552400Y-79146400D02*
X152473600Y-79225200D01*
X157096000Y-84915200D02*
X156819600Y-85191600D01*
X158496000Y-80111600D02*
X158648400Y-79959200D01*
X160432866Y-81678930D02*
X160432866Y-81517134D01*
X158496000Y-80873600D02*
X158496000Y-81373600D01*
X152754400Y-82373600D02*
X152473600Y-82092800D01*
%TO.N,Net-(IC1-SCLK)*%
X148180000Y-76130000D02*
X152158529Y-76130000D01*
X154696000Y-78667471D02*
X154696000Y-80873600D01*
X152158529Y-76130000D02*
X154696000Y-78667471D01*
%TO.N,Net-(IC1-SO_(GDO1))*%
X154089744Y-78910000D02*
X153822400Y-79177344D01*
X153971000Y-81373600D02*
X154696000Y-81373600D01*
X154090000Y-78910000D02*
X154089744Y-78910000D01*
X153822400Y-79177344D02*
X153822400Y-81225000D01*
X153822400Y-81225000D02*
X153971000Y-81373600D01*
%TO.N,Net-(IC1-GDO2)*%
X153517600Y-81773600D02*
X153805315Y-81773600D01*
X148329000Y-78521000D02*
X152931741Y-78521000D01*
X152931741Y-78521000D02*
X153422400Y-79011659D01*
X153422400Y-81678400D02*
X153517600Y-81773600D01*
X153905315Y-81873600D02*
X154696000Y-81873600D01*
X153422400Y-79011659D02*
X153422400Y-81678400D01*
X153805315Y-81773600D02*
X153905315Y-81873600D01*
X148180000Y-78670000D02*
X148329000Y-78521000D01*
%TO.N,Net-(IC1-DCOUPL)*%
X154696000Y-82873600D02*
X154359200Y-83210400D01*
X154359200Y-83210400D02*
X152524400Y-83210400D01*
%TO.N,Net-(IC1-GDO0_(ATEST))*%
X148180000Y-81380000D02*
X148180000Y-81210000D01*
X155189600Y-83773600D02*
X153781413Y-85181787D01*
X151981787Y-85181787D02*
X148180000Y-81380000D01*
X153781413Y-85181787D02*
X151981787Y-85181787D01*
X155596000Y-83773600D02*
X155189600Y-83773600D01*
%TO.N,Net-(IC1-CSN)*%
X156096000Y-84432914D02*
X156096000Y-83773600D01*
X154575314Y-85953600D02*
X156096000Y-84432914D01*
X150383600Y-85953600D02*
X152857200Y-85953600D01*
X152857200Y-85953600D02*
X154575314Y-85953600D01*
X148180000Y-83750000D02*
X150383600Y-85953600D01*
%TO.N,Net-(IC1-XOSC_Q1)*%
X156596000Y-84498600D02*
X154762200Y-86332400D01*
X156300400Y-87979000D02*
X156069200Y-87747800D01*
X156596000Y-83773600D02*
X156596000Y-84498600D01*
X154762200Y-86332400D02*
X154762200Y-86921400D01*
X155588600Y-87747800D02*
X154762200Y-86921400D01*
X156069200Y-87747800D02*
X155588600Y-87747800D01*
%TO.N,Net-(IC1-XOSC_Q2)*%
X157596000Y-86521000D02*
X157596000Y-83773600D01*
X157598000Y-86676600D02*
X157519200Y-86597800D01*
X158863200Y-86676600D02*
X157598000Y-86676600D01*
X157519200Y-86597800D02*
X157596000Y-86521000D01*
%TO.N,/RF_P*%
D30*
X158496000Y-82373600D02*
X158571000Y-82448600D01*
D29*
X159271000Y-82423600D02*
X159230000Y-82423600D01*
X159271000Y-83287687D02*
X159271000Y-82423600D01*
X159747776Y-83764463D02*
X159271000Y-83287687D01*
X159230000Y-82423600D02*
X159230000Y-82382600D01*
X159221000Y-82373600D02*
X158496000Y-82373600D01*
X159230000Y-82382600D02*
X159221000Y-82373600D01*
X160443076Y-83764463D02*
X159747776Y-83764463D01*
%TO.N,Net-(IC1-RBIAS)*%
X157073600Y-79951200D02*
X157096000Y-79973600D01*
X157073600Y-78691200D02*
X157073600Y-79951200D01*
%TO.N,Net-(IC1-SI)*%
X155596000Y-78583200D02*
X155549600Y-78536800D01*
X155596000Y-79973600D02*
X155596000Y-78583200D01*
%TO.N,Net-(J8-Pin_1)*%
X160443076Y-83093076D02*
X160443076Y-83114464D01*
X160462717Y-82478375D02*
X160462717Y-83073435D01*
X160462717Y-83073435D02*
X160443076Y-83093076D01*
%TO.N,Net-(C124_1-Pad2)*%
X165753711Y-87509900D02*
X165753711Y-86493700D01*
%TO.N,/433_P*%
X165697411Y-85580000D02*
X164440000Y-85580000D01*
X165776711Y-85500700D02*
X165753711Y-85523700D01*
X164440000Y-85580000D02*
X163274462Y-84414462D01*
X165753711Y-85523700D02*
X165697411Y-85580000D01*
X167966111Y-85500700D02*
X165776711Y-85500700D01*
X163274462Y-84414462D02*
X162779876Y-84414462D01*
%TO.N,/868_P*%
X162779876Y-83114464D02*
X164304875Y-83114464D01*
X164304875Y-83114464D02*
X164405111Y-83214700D01*
%TO.N,Net-(C121_2-Pad1)*%
X166335311Y-81081300D02*
X166411711Y-81004900D01*
X166335311Y-82097100D02*
X166335311Y-81081300D01*
X165344711Y-79988900D02*
X165344711Y-80999900D01*
X166411711Y-81004900D02*
X165349711Y-81004900D01*
X165344711Y-80999900D02*
X165349711Y-81004900D01*
%TO.N,Net-(C122_2-Pad2)*%
X167351311Y-83214700D02*
X167351311Y-81035300D01*
X167351311Y-81035300D02*
X167381711Y-81004900D01*
%TO.N,Net-(C121_2-Pad2)*%
X165375311Y-83214500D02*
X165375111Y-83214700D01*
X167356311Y-84179700D02*
X166391311Y-83214700D01*
X167356311Y-84281500D02*
X167356311Y-84179700D01*
X165375111Y-83214700D02*
X166391311Y-83214700D01*
X165375311Y-82097100D02*
X165375311Y-83214500D01*
%TO.N,Net-(C123_2-Pad2)*%
X168372311Y-83168900D02*
X168395311Y-83191900D01*
X168395311Y-83191900D02*
X169109011Y-83191900D01*
X169109011Y-83191900D02*
X169690611Y-83773500D01*
X168372311Y-82097100D02*
X168372311Y-83168900D01*
%TO.N,Net-(C124_2-Pad2)*%
X165395511Y-84230700D02*
X166335511Y-84230700D01*
X166335511Y-84230700D02*
X166386311Y-84281500D01*
%TO.N,Net-(C121_1-Pad2)*%
X168575517Y-80323906D02*
X168575517Y-79959200D01*
X170602711Y-82351100D02*
X170428111Y-82525700D01*
X170602711Y-82351100D02*
X168575517Y-80323906D01*
X170428111Y-82525700D02*
X170428111Y-84250686D01*
X169178097Y-85500700D02*
X168926111Y-85500700D01*
X170428111Y-84250686D02*
X169178097Y-85500700D01*
%TD*%
%TA.AperFunction,Conductor*%
%TO.N,/AGND*%
G36*
X176203736Y-67320726D02*
G01*
X176469690Y-67336813D01*
X176484551Y-67338617D01*
X176742938Y-67385968D01*
X176757463Y-67389549D01*
X177008251Y-67467698D01*
X177022242Y-67473003D01*
X177261798Y-67580818D01*
X177275044Y-67587771D01*
X177499852Y-67723672D01*
X177512163Y-67732170D01*
X177624209Y-67819952D01*
X177718949Y-67894176D01*
X177730157Y-67904106D01*
X177915893Y-68089842D01*
X177925823Y-68101050D01*
X178087825Y-68307830D01*
X178096329Y-68320150D01*
X178232225Y-68544949D01*
X178239184Y-68558208D01*
X178346994Y-68797752D01*
X178352303Y-68811753D01*
X178430448Y-69062529D01*
X178434032Y-69077068D01*
X178481381Y-69335447D01*
X178483186Y-69350311D01*
X178499274Y-69616263D01*
X178499500Y-69623750D01*
X178499500Y-72367022D01*
X178479815Y-72434061D01*
X178427011Y-72479816D01*
X178357853Y-72489760D01*
X178350715Y-72488485D01*
X178350344Y-72488447D01*
X178265860Y-72479816D01*
X178250982Y-72478296D01*
X173004298Y-72478296D01*
X173004280Y-72478297D01*
X172904928Y-72488446D01*
X172904925Y-72488447D01*
X172743941Y-72541792D01*
X172743930Y-72541797D01*
X172599595Y-72630825D01*
X172599591Y-72630828D01*
X172479668Y-72750751D01*
X172479665Y-72750755D01*
X172390637Y-72895090D01*
X172390633Y-72895099D01*
X172345396Y-73031614D01*
X172305623Y-73089058D01*
X172241107Y-73115881D01*
X172172331Y-73103566D01*
X172140003Y-73080284D01*
X172138400Y-73078681D01*
X172138395Y-73078677D01*
X171999104Y-72996301D01*
X171999101Y-72996300D01*
X171843708Y-72951153D01*
X171843702Y-72951152D01*
X171807408Y-72948296D01*
X171807401Y-72948296D01*
X171338021Y-72948296D01*
X171338013Y-72948296D01*
X171301719Y-72951152D01*
X171301713Y-72951153D01*
X171146320Y-72996300D01*
X171146317Y-72996301D01*
X171007026Y-73078677D01*
X171007018Y-73078683D01*
X170892598Y-73193103D01*
X170892592Y-73193111D01*
X170810216Y-73332402D01*
X170810215Y-73332405D01*
X170765068Y-73487798D01*
X170765067Y-73487804D01*
X170762211Y-73524098D01*
X170762211Y-73933493D01*
X170765067Y-73969787D01*
X170765068Y-73969793D01*
X170810215Y-74125187D01*
X170810217Y-74125193D01*
X170822331Y-74145676D01*
X170839512Y-74213400D01*
X170822331Y-74271916D01*
X170810217Y-74292398D01*
X170810215Y-74292404D01*
X170765068Y-74447798D01*
X170765067Y-74447804D01*
X170762211Y-74484098D01*
X170762211Y-74893493D01*
X170765067Y-74929787D01*
X170765068Y-74929793D01*
X170810215Y-75085186D01*
X170810216Y-75085189D01*
X170892592Y-75224480D01*
X170892598Y-75224488D01*
X170935891Y-75267780D01*
X170969377Y-75329103D01*
X170972211Y-75355462D01*
X170972211Y-75677705D01*
X170952526Y-75744744D01*
X170935892Y-75765386D01*
X170922598Y-75778679D01*
X170922592Y-75778687D01*
X170840216Y-75917978D01*
X170840215Y-75917981D01*
X170795068Y-76073374D01*
X170795067Y-76073380D01*
X170792211Y-76109674D01*
X170792211Y-76579069D01*
X170795067Y-76615363D01*
X170795068Y-76615369D01*
X170840215Y-76770762D01*
X170840216Y-76770765D01*
X170889736Y-76854500D01*
X170922594Y-76910059D01*
X170935891Y-76923356D01*
X170969377Y-76984677D01*
X170972211Y-77011038D01*
X170972211Y-77327675D01*
X170952526Y-77394714D01*
X170935892Y-77415356D01*
X170884125Y-77467122D01*
X170884119Y-77467130D01*
X170800779Y-77608052D01*
X170800777Y-77608055D01*
X170755102Y-77765268D01*
X170755101Y-77765274D01*
X170752211Y-77802000D01*
X170752211Y-78227895D01*
X170755101Y-78264621D01*
X170755102Y-78264627D01*
X170800778Y-78421842D01*
X170809642Y-78436831D01*
X170826821Y-78504556D01*
X170809642Y-78563065D01*
X170800778Y-78578053D01*
X170755102Y-78735268D01*
X170755101Y-78735274D01*
X170752211Y-78772000D01*
X170752211Y-79197895D01*
X170755101Y-79234621D01*
X170755102Y-79234627D01*
X170800777Y-79391840D01*
X170800779Y-79391843D01*
X170800780Y-79391845D01*
X170835602Y-79450727D01*
X170884119Y-79532765D01*
X170884125Y-79532773D01*
X170935891Y-79584538D01*
X170969377Y-79645861D01*
X170972211Y-79672220D01*
X170972211Y-79988857D01*
X170952526Y-80055896D01*
X170935892Y-80076538D01*
X170922598Y-80089831D01*
X170922592Y-80089839D01*
X170840216Y-80229130D01*
X170840215Y-80229133D01*
X170795068Y-80384526D01*
X170795067Y-80384532D01*
X170792211Y-80420826D01*
X170792211Y-80890221D01*
X170795067Y-80926515D01*
X170795068Y-80926521D01*
X170840215Y-81081914D01*
X170840216Y-81081917D01*
X170840217Y-81081919D01*
X170922594Y-81221211D01*
X170935891Y-81234508D01*
X170950598Y-81261441D01*
X170967188Y-81287255D01*
X170968079Y-81293452D01*
X170969377Y-81295829D01*
X170972211Y-81322190D01*
X170972211Y-81408778D01*
X170952526Y-81475817D01*
X170899722Y-81521572D01*
X170838487Y-81532396D01*
X170815668Y-81530600D01*
X170815651Y-81530600D01*
X170682808Y-81530600D01*
X170615769Y-81510915D01*
X170595127Y-81494281D01*
X169406110Y-80305264D01*
X169372625Y-80243941D01*
X169370174Y-80207848D01*
X169371016Y-80197155D01*
X169371017Y-80197132D01*
X169371017Y-79721267D01*
X169371016Y-79721252D01*
X169370752Y-79717902D01*
X169368126Y-79684525D01*
X169364551Y-79672220D01*
X169322450Y-79527307D01*
X169322448Y-79527304D01*
X169322448Y-79527303D01*
X169239107Y-79386380D01*
X169239105Y-79386378D01*
X169239102Y-79386374D01*
X169123342Y-79270614D01*
X169123334Y-79270608D01*
X169014619Y-79206315D01*
X168982414Y-79187269D01*
X168982413Y-79187268D01*
X168982412Y-79187268D01*
X168982409Y-79187266D01*
X168825196Y-79141591D01*
X168825190Y-79141590D01*
X168788464Y-79138700D01*
X168788457Y-79138700D01*
X168362577Y-79138700D01*
X168362569Y-79138700D01*
X168325843Y-79141590D01*
X168325837Y-79141591D01*
X168168622Y-79187267D01*
X168153634Y-79196131D01*
X168085909Y-79213310D01*
X168027400Y-79196131D01*
X168012411Y-79187267D01*
X167855196Y-79141591D01*
X167855190Y-79141590D01*
X167818464Y-79138700D01*
X167818457Y-79138700D01*
X167392577Y-79138700D01*
X167392569Y-79138700D01*
X167355843Y-79141590D01*
X167355837Y-79141591D01*
X167198624Y-79187267D01*
X167198613Y-79187271D01*
X167153528Y-79213934D01*
X167085804Y-79231115D01*
X167019542Y-79208955D01*
X167002728Y-79194882D01*
X166600530Y-78792684D01*
X166567045Y-78731361D01*
X166564211Y-78705003D01*
X166564211Y-78664017D01*
X166564210Y-78664002D01*
X166563960Y-78660827D01*
X166561354Y-78627707D01*
X166546928Y-78578054D01*
X166516206Y-78472309D01*
X166516205Y-78472306D01*
X166516205Y-78472305D01*
X166433828Y-78333013D01*
X166433826Y-78333011D01*
X166433823Y-78333007D01*
X166319403Y-78218587D01*
X166319395Y-78218581D01*
X166242418Y-78173057D01*
X166180106Y-78136206D01*
X166180105Y-78136205D01*
X166180104Y-78136205D01*
X166180101Y-78136204D01*
X166024708Y-78091057D01*
X166024702Y-78091056D01*
X165988408Y-78088200D01*
X165988401Y-78088200D01*
X165519021Y-78088200D01*
X165519013Y-78088200D01*
X165482719Y-78091056D01*
X165482713Y-78091057D01*
X165327320Y-78136204D01*
X165327317Y-78136205D01*
X165188026Y-78218581D01*
X165188018Y-78218587D01*
X165174725Y-78231881D01*
X165113402Y-78265366D01*
X165087044Y-78268200D01*
X163971157Y-78268200D01*
X163930236Y-78279164D01*
X163930236Y-78279165D01*
X163892968Y-78289151D01*
X163818431Y-78309123D01*
X163818426Y-78309126D01*
X163681507Y-78388175D01*
X163681499Y-78388181D01*
X163569695Y-78499986D01*
X162844298Y-79225382D01*
X162782975Y-79258867D01*
X162756617Y-79261701D01*
X162236705Y-79261701D01*
X162236699Y-79261702D01*
X162177092Y-79268109D01*
X162042247Y-79318403D01*
X162042240Y-79318407D01*
X161927031Y-79404653D01*
X161927028Y-79404656D01*
X161840782Y-79519865D01*
X161840778Y-79519872D01*
X161793788Y-79645861D01*
X161790485Y-79654718D01*
X161784076Y-79714328D01*
X161784076Y-79714335D01*
X161784076Y-79714336D01*
X161784076Y-80165671D01*
X161784077Y-80165677D01*
X161790484Y-80225284D01*
X161840778Y-80360129D01*
X161840782Y-80360136D01*
X161927028Y-80475345D01*
X161927029Y-80475346D01*
X161947585Y-80490735D01*
X161989455Y-80546669D01*
X161994438Y-80616361D01*
X161960951Y-80677683D01*
X161947585Y-80689265D01*
X161927029Y-80704653D01*
X161927028Y-80704654D01*
X161840782Y-80819863D01*
X161840778Y-80819870D01*
X161792107Y-80950367D01*
X161790485Y-80954716D01*
X161784076Y-81014326D01*
X161784076Y-81014333D01*
X161784076Y-81014334D01*
X161784076Y-81465669D01*
X161784077Y-81465675D01*
X161790484Y-81525282D01*
X161840778Y-81660127D01*
X161840782Y-81660134D01*
X161927028Y-81775343D01*
X161927031Y-81775346D01*
X162042240Y-81861592D01*
X162042247Y-81861596D01*
X162177093Y-81911890D01*
X162177092Y-81911890D01*
X162184020Y-81912634D01*
X162236703Y-81918299D01*
X163323048Y-81918298D01*
X163382659Y-81911890D01*
X163517507Y-81861595D01*
X163579439Y-81815233D01*
X163644904Y-81790816D01*
X163653750Y-81790500D01*
X164002215Y-81790500D01*
X164036809Y-81795423D01*
X164130036Y-81822509D01*
X164166771Y-81825400D01*
X164166779Y-81825400D01*
X164470811Y-81825400D01*
X164537850Y-81845085D01*
X164583605Y-81897889D01*
X164594811Y-81949400D01*
X164594811Y-82270200D01*
X164575126Y-82337239D01*
X164522322Y-82382994D01*
X164470811Y-82394200D01*
X164192163Y-82394200D01*
X164155437Y-82397090D01*
X164155431Y-82397091D01*
X163998218Y-82442766D01*
X163998215Y-82442768D01*
X163989059Y-82448183D01*
X163909810Y-82495051D01*
X163907028Y-82496696D01*
X163843907Y-82513964D01*
X163586959Y-82513964D01*
X163525883Y-82496030D01*
X163525290Y-82497118D01*
X163520289Y-82494387D01*
X163519920Y-82494279D01*
X163519290Y-82493842D01*
X163517504Y-82492866D01*
X163382658Y-82442572D01*
X163382659Y-82442572D01*
X163323059Y-82436165D01*
X163323057Y-82436164D01*
X163323049Y-82436164D01*
X163323040Y-82436164D01*
X162236705Y-82436164D01*
X162236699Y-82436165D01*
X162177092Y-82442572D01*
X162042247Y-82492866D01*
X162042240Y-82492870D01*
X161927031Y-82579116D01*
X161927028Y-82579119D01*
X161840782Y-82694328D01*
X161840778Y-82694335D01*
X161800469Y-82802412D01*
X161790485Y-82829181D01*
X161784076Y-82888791D01*
X161784076Y-82888798D01*
X161784076Y-82888799D01*
X161784076Y-83340134D01*
X161784077Y-83340140D01*
X161790484Y-83399747D01*
X161840778Y-83534592D01*
X161840782Y-83534599D01*
X161927028Y-83649808D01*
X161927029Y-83649809D01*
X161947585Y-83665198D01*
X161989455Y-83721132D01*
X161994438Y-83790824D01*
X161960951Y-83852146D01*
X161947585Y-83863728D01*
X161927029Y-83879116D01*
X161927028Y-83879117D01*
X161840782Y-83994326D01*
X161840778Y-83994333D01*
X161793301Y-84121628D01*
X161790485Y-84129179D01*
X161784076Y-84188789D01*
X161784076Y-84188796D01*
X161784076Y-84188797D01*
X161784076Y-84640132D01*
X161784077Y-84640138D01*
X161790484Y-84699745D01*
X161840778Y-84834590D01*
X161840782Y-84834597D01*
X161927028Y-84949806D01*
X161927031Y-84949809D01*
X162042240Y-85036055D01*
X162042247Y-85036059D01*
X162177093Y-85086353D01*
X162177092Y-85086353D01*
X162184020Y-85087097D01*
X162236703Y-85092762D01*
X163052163Y-85092761D01*
X163119202Y-85112445D01*
X163139844Y-85129080D01*
X164071284Y-86060520D01*
X164071286Y-86060521D01*
X164071290Y-86060524D01*
X164169998Y-86117512D01*
X164208216Y-86139577D01*
X164360943Y-86180501D01*
X164360945Y-86180501D01*
X164526654Y-86180501D01*
X164526670Y-86180500D01*
X164809211Y-86180500D01*
X164876250Y-86200185D01*
X164922005Y-86252989D01*
X164933211Y-86304500D01*
X164933211Y-86706647D01*
X164936101Y-86743373D01*
X164936102Y-86743379D01*
X164981777Y-86900592D01*
X164981780Y-86900597D01*
X165012125Y-86951910D01*
X165029306Y-87019634D01*
X165012126Y-87078147D01*
X164991218Y-87113501D01*
X164991215Y-87113510D01*
X164946068Y-87268902D01*
X164946067Y-87268908D01*
X164943211Y-87305202D01*
X164943211Y-87714597D01*
X164946067Y-87750891D01*
X164946068Y-87750897D01*
X164991215Y-87906290D01*
X164991216Y-87906293D01*
X165073592Y-88045584D01*
X165073598Y-88045592D01*
X165188018Y-88160012D01*
X165188022Y-88160015D01*
X165188024Y-88160017D01*
X165327316Y-88242394D01*
X165368298Y-88254300D01*
X165482713Y-88287542D01*
X165482716Y-88287542D01*
X165482718Y-88287543D01*
X165519021Y-88290400D01*
X165519029Y-88290400D01*
X165988393Y-88290400D01*
X165988401Y-88290400D01*
X166024704Y-88287543D01*
X166024706Y-88287542D01*
X166024708Y-88287542D01*
X166065686Y-88275636D01*
X166180106Y-88242394D01*
X166319398Y-88160017D01*
X166433828Y-88045587D01*
X166516205Y-87906295D01*
X166561354Y-87750893D01*
X166564211Y-87714590D01*
X166564211Y-87305210D01*
X166561354Y-87268907D01*
X166559563Y-87262743D01*
X166516206Y-87113509D01*
X166516205Y-87113506D01*
X166516205Y-87113505D01*
X166495295Y-87078147D01*
X166478113Y-87010426D01*
X166495294Y-86951911D01*
X166525642Y-86900597D01*
X166531250Y-86881297D01*
X166571319Y-86743379D01*
X166571320Y-86743373D01*
X166572727Y-86725496D01*
X166574211Y-86706640D01*
X166574211Y-86280760D01*
X166571320Y-86244025D01*
X166570823Y-86237708D01*
X166573000Y-86237536D01*
X166579266Y-86178004D01*
X166622985Y-86123502D01*
X166689230Y-86101289D01*
X166693933Y-86101200D01*
X167299445Y-86101200D01*
X167366484Y-86120885D01*
X167387127Y-86137520D01*
X167430418Y-86180812D01*
X167430422Y-86180815D01*
X167430424Y-86180817D01*
X167569716Y-86263194D01*
X167610698Y-86275100D01*
X167725113Y-86308342D01*
X167725116Y-86308342D01*
X167725118Y-86308343D01*
X167761421Y-86311200D01*
X167761429Y-86311200D01*
X168170793Y-86311200D01*
X168170801Y-86311200D01*
X168207104Y-86308343D01*
X168207106Y-86308342D01*
X168207108Y-86308342D01*
X168301228Y-86280997D01*
X168362506Y-86263194D01*
X168382990Y-86251079D01*
X168450712Y-86233896D01*
X168509230Y-86251079D01*
X168529716Y-86263194D01*
X168529718Y-86263194D01*
X168529719Y-86263195D01*
X168685113Y-86308342D01*
X168685116Y-86308342D01*
X168685118Y-86308343D01*
X168721421Y-86311200D01*
X168721429Y-86311200D01*
X169130793Y-86311200D01*
X169130801Y-86311200D01*
X169167104Y-86308343D01*
X169167106Y-86308342D01*
X169167108Y-86308342D01*
X169261228Y-86280997D01*
X169322506Y-86263194D01*
X169461798Y-86180817D01*
X169576228Y-86066387D01*
X169658605Y-85927095D01*
X169673338Y-85876381D01*
X169704730Y-85823300D01*
X170256619Y-85271412D01*
X170258199Y-85270549D01*
X170259108Y-85268991D01*
X170288756Y-85253864D01*
X170317941Y-85237928D01*
X170319738Y-85238056D01*
X170321345Y-85237237D01*
X170354441Y-85240538D01*
X170387633Y-85242912D01*
X170389077Y-85243993D01*
X170390870Y-85244172D01*
X170416927Y-85264842D01*
X170443566Y-85284784D01*
X170444646Y-85286830D01*
X170445608Y-85287593D01*
X170451382Y-85299588D01*
X170461649Y-85319032D01*
X170462577Y-85321750D01*
X170507506Y-85476395D01*
X170526113Y-85507858D01*
X170530237Y-85519938D01*
X170531221Y-85542609D01*
X170536801Y-85564604D01*
X170532771Y-85578327D01*
X170533267Y-85589741D01*
X170525517Y-85603034D01*
X170519620Y-85623120D01*
X170507506Y-85643602D01*
X170507504Y-85643608D01*
X170462357Y-85799002D01*
X170462356Y-85799008D01*
X170459500Y-85835302D01*
X170459500Y-86244697D01*
X170462356Y-86280991D01*
X170462357Y-86280997D01*
X170507504Y-86436390D01*
X170507505Y-86436393D01*
X170507506Y-86436395D01*
X170535858Y-86484335D01*
X170589881Y-86575684D01*
X170589887Y-86575692D01*
X170704307Y-86690112D01*
X170704311Y-86690115D01*
X170704313Y-86690117D01*
X170843605Y-86772494D01*
X170884587Y-86784400D01*
X170999002Y-86817642D01*
X170999005Y-86817642D01*
X170999007Y-86817643D01*
X171035310Y-86820500D01*
X171035318Y-86820500D01*
X171504682Y-86820500D01*
X171504690Y-86820500D01*
X171540993Y-86817643D01*
X171540995Y-86817642D01*
X171540997Y-86817642D01*
X171592719Y-86802615D01*
X171696395Y-86772494D01*
X171835687Y-86690117D01*
X171837975Y-86687829D01*
X171848986Y-86676819D01*
X171910309Y-86643334D01*
X171936667Y-86640500D01*
X172245373Y-86640500D01*
X172312412Y-86660185D01*
X172358167Y-86712989D01*
X172363079Y-86725496D01*
X172390632Y-86808647D01*
X172390637Y-86808658D01*
X172479665Y-86952993D01*
X172479668Y-86952997D01*
X172599591Y-87072920D01*
X172599595Y-87072923D01*
X172743930Y-87161951D01*
X172743933Y-87161952D01*
X172743939Y-87161956D01*
X172904928Y-87215302D01*
X173004291Y-87225453D01*
X178250980Y-87225452D01*
X178250988Y-87225451D01*
X178250991Y-87225451D01*
X178357079Y-87214614D01*
X178357225Y-87216049D01*
X178419216Y-87220688D01*
X178475011Y-87262743D01*
X178499213Y-87328287D01*
X178499500Y-87336726D01*
X178499500Y-89926249D01*
X178499274Y-89933736D01*
X178483186Y-90199688D01*
X178481381Y-90214552D01*
X178434032Y-90472931D01*
X178430448Y-90487470D01*
X178352303Y-90738246D01*
X178346994Y-90752247D01*
X178239184Y-90991791D01*
X178232225Y-91005050D01*
X178096331Y-91229846D01*
X178087825Y-91242169D01*
X177925823Y-91448949D01*
X177915893Y-91460157D01*
X177730157Y-91645893D01*
X177718949Y-91655823D01*
X177512169Y-91817825D01*
X177499846Y-91826331D01*
X177275050Y-91962225D01*
X177261791Y-91969184D01*
X177022247Y-92076994D01*
X177008246Y-92082303D01*
X176757470Y-92160448D01*
X176742931Y-92164032D01*
X176484552Y-92211381D01*
X176469688Y-92213186D01*
X176203736Y-92229274D01*
X176196249Y-92229500D01*
X146363751Y-92229500D01*
X146356264Y-92229274D01*
X146090311Y-92213186D01*
X146075447Y-92211381D01*
X145817068Y-92164032D01*
X145802529Y-92160448D01*
X145551753Y-92082303D01*
X145537752Y-92076994D01*
X145298208Y-91969184D01*
X145284949Y-91962225D01*
X145060153Y-91826331D01*
X145047830Y-91817825D01*
X144841050Y-91655823D01*
X144829842Y-91645893D01*
X144644106Y-91460157D01*
X144634176Y-91448949D01*
X144472174Y-91242169D01*
X144463672Y-91229852D01*
X144327771Y-91005044D01*
X144320818Y-90991798D01*
X144213003Y-90752242D01*
X144207696Y-90738246D01*
X144197351Y-90705048D01*
X144129549Y-90487463D01*
X144125967Y-90472931D01*
X144078618Y-90214552D01*
X144076813Y-90199688D01*
X144076628Y-90196635D01*
X144060726Y-89933736D01*
X144060500Y-89926249D01*
X144060500Y-89443713D01*
X151049500Y-89443713D01*
X151049500Y-89656286D01*
X151082415Y-89864108D01*
X151082754Y-89866243D01*
X151102251Y-89926249D01*
X151148444Y-90068414D01*
X151244951Y-90257820D01*
X151369890Y-90429786D01*
X151520213Y-90580109D01*
X151692179Y-90705048D01*
X151692181Y-90705049D01*
X151692184Y-90705051D01*
X151881588Y-90801557D01*
X152083757Y-90867246D01*
X152293713Y-90900500D01*
X152293714Y-90900500D01*
X152506286Y-90900500D01*
X152506287Y-90900500D01*
X152716243Y-90867246D01*
X152918412Y-90801557D01*
X153107816Y-90705051D01*
X153192025Y-90643870D01*
X153279786Y-90580109D01*
X153279788Y-90580106D01*
X153279792Y-90580104D01*
X153430104Y-90429792D01*
X153430106Y-90429788D01*
X153430109Y-90429786D01*
X153555048Y-90257820D01*
X153555047Y-90257820D01*
X153555051Y-90257816D01*
X153651557Y-90068412D01*
X153717246Y-89866243D01*
X153750500Y-89656287D01*
X153750500Y-89443713D01*
X153740810Y-89382532D01*
X169409500Y-89382532D01*
X169409500Y-89595106D01*
X169442754Y-89805062D01*
X169482130Y-89926249D01*
X169508444Y-90007233D01*
X169604951Y-90196639D01*
X169729890Y-90368605D01*
X169880213Y-90518928D01*
X170052179Y-90643867D01*
X170052181Y-90643868D01*
X170052184Y-90643870D01*
X170241588Y-90740376D01*
X170443757Y-90806065D01*
X170653713Y-90839319D01*
X170653714Y-90839319D01*
X170866286Y-90839319D01*
X170866287Y-90839319D01*
X171076243Y-90806065D01*
X171278412Y-90740376D01*
X171467816Y-90643870D01*
X171555583Y-90580104D01*
X171639786Y-90518928D01*
X171639788Y-90518925D01*
X171639792Y-90518923D01*
X171790104Y-90368611D01*
X171790106Y-90368607D01*
X171790109Y-90368605D01*
X171915048Y-90196639D01*
X171915047Y-90196639D01*
X171915051Y-90196635D01*
X172011557Y-90007231D01*
X172077246Y-89805062D01*
X172110500Y-89595106D01*
X172110500Y-89382532D01*
X172077246Y-89172576D01*
X172011557Y-88970407D01*
X171915051Y-88781003D01*
X171915049Y-88781000D01*
X171915048Y-88780998D01*
X171790109Y-88609032D01*
X171639786Y-88458709D01*
X171467820Y-88333770D01*
X171278414Y-88237263D01*
X171278413Y-88237262D01*
X171278412Y-88237262D01*
X171076243Y-88171573D01*
X171076241Y-88171572D01*
X171076240Y-88171572D01*
X170893499Y-88142629D01*
X170866287Y-88138319D01*
X170653713Y-88138319D01*
X170626501Y-88142629D01*
X170443760Y-88171572D01*
X170241585Y-88237263D01*
X170052179Y-88333770D01*
X169880213Y-88458709D01*
X169729890Y-88609032D01*
X169604951Y-88780998D01*
X169508444Y-88970404D01*
X169442753Y-89172579D01*
X169433063Y-89233759D01*
X169409500Y-89382532D01*
X153740810Y-89382532D01*
X153717246Y-89233757D01*
X153651557Y-89031588D01*
X153555051Y-88842184D01*
X153555049Y-88842181D01*
X153555048Y-88842179D01*
X153430109Y-88670213D01*
X153279786Y-88519890D01*
X153107820Y-88394951D01*
X152918414Y-88298444D01*
X152918413Y-88298443D01*
X152918412Y-88298443D01*
X152716243Y-88232754D01*
X152716241Y-88232753D01*
X152716240Y-88232753D01*
X152554957Y-88207208D01*
X152506287Y-88199500D01*
X152293713Y-88199500D01*
X152245042Y-88207208D01*
X152083760Y-88232753D01*
X151881585Y-88298444D01*
X151692179Y-88394951D01*
X151520213Y-88519890D01*
X151369890Y-88670213D01*
X151244951Y-88842179D01*
X151148444Y-89031585D01*
X151082753Y-89233760D01*
X151049500Y-89443713D01*
X144060500Y-89443713D01*
X144060500Y-87303613D01*
X144080185Y-87236574D01*
X144132989Y-87190819D01*
X144202147Y-87180875D01*
X144265703Y-87209900D01*
X144300682Y-87260280D01*
X144346202Y-87382328D01*
X144346206Y-87382335D01*
X144432452Y-87497544D01*
X144432455Y-87497547D01*
X144547664Y-87583793D01*
X144547671Y-87583797D01*
X144682517Y-87634091D01*
X144682516Y-87634091D01*
X144689444Y-87634835D01*
X144742127Y-87640500D01*
X146537872Y-87640499D01*
X146597483Y-87634091D01*
X146732331Y-87583796D01*
X146835690Y-87506421D01*
X146901152Y-87482004D01*
X146969425Y-87496855D01*
X146984303Y-87506416D01*
X147071268Y-87571518D01*
X147087668Y-87583795D01*
X147087671Y-87583797D01*
X147222517Y-87634091D01*
X147222516Y-87634091D01*
X147229444Y-87634835D01*
X147282127Y-87640500D01*
X149077872Y-87640499D01*
X149137483Y-87634091D01*
X149272331Y-87583796D01*
X149387546Y-87497546D01*
X149473796Y-87382331D01*
X149524091Y-87247483D01*
X149530500Y-87187873D01*
X149530499Y-86249095D01*
X149536737Y-86227849D01*
X149538317Y-86205762D01*
X149546388Y-86194979D01*
X149550183Y-86182057D01*
X149566919Y-86167555D01*
X149580189Y-86149829D01*
X149592807Y-86145122D01*
X149602987Y-86136302D01*
X149624905Y-86133150D01*
X149645653Y-86125412D01*
X149658813Y-86128274D01*
X149672146Y-86126358D01*
X149692289Y-86135557D01*
X149713926Y-86140264D01*
X149731651Y-86153532D01*
X149735702Y-86155383D01*
X149742180Y-86161415D01*
X149898739Y-86317974D01*
X149898749Y-86317985D01*
X149903079Y-86322315D01*
X149903080Y-86322316D01*
X150014884Y-86434120D01*
X150014886Y-86434121D01*
X150014887Y-86434122D01*
X150018821Y-86436393D01*
X150080339Y-86471910D01*
X150151815Y-86513177D01*
X150304543Y-86554101D01*
X150304546Y-86554101D01*
X150470253Y-86554101D01*
X150470269Y-86554100D01*
X152778143Y-86554100D01*
X153830355Y-86554100D01*
X153897394Y-86573785D01*
X153943149Y-86626589D01*
X153953973Y-86687829D01*
X153951700Y-86716704D01*
X153951700Y-87126097D01*
X153954556Y-87162391D01*
X153954557Y-87162397D01*
X153999704Y-87317790D01*
X153999705Y-87317793D01*
X153999706Y-87317795D01*
X154004983Y-87326718D01*
X154082081Y-87457084D01*
X154082087Y-87457092D01*
X154196507Y-87571512D01*
X154196511Y-87571515D01*
X154196513Y-87571517D01*
X154335805Y-87653894D01*
X154376787Y-87665800D01*
X154491202Y-87699042D01*
X154491205Y-87699042D01*
X154491207Y-87699043D01*
X154527510Y-87701900D01*
X154642103Y-87701900D01*
X154709142Y-87721585D01*
X154729784Y-87738219D01*
X155062699Y-88071134D01*
X155096184Y-88132457D01*
X155097957Y-88142629D01*
X155109208Y-88228082D01*
X155109209Y-88228087D01*
X155169915Y-88374648D01*
X155169917Y-88374651D01*
X155266491Y-88500507D01*
X155266492Y-88500508D01*
X155392348Y-88597082D01*
X155392351Y-88597084D01*
X155484771Y-88635364D01*
X155538916Y-88657792D01*
X155656710Y-88673300D01*
X155656717Y-88673300D01*
X156481683Y-88673300D01*
X156481690Y-88673300D01*
X156599484Y-88657792D01*
X156746050Y-88597083D01*
X156871908Y-88500508D01*
X156968483Y-88374650D01*
X157029192Y-88228084D01*
X157044700Y-88110290D01*
X157044700Y-87647300D01*
X157064385Y-87580261D01*
X157117189Y-87534506D01*
X157168700Y-87523300D01*
X157931683Y-87523300D01*
X157931690Y-87523300D01*
X158049484Y-87507792D01*
X158178764Y-87454243D01*
X158196048Y-87447084D01*
X158196051Y-87447082D01*
X158262320Y-87396231D01*
X158327486Y-87371037D01*
X158395931Y-87385074D01*
X158400916Y-87387869D01*
X158436805Y-87409094D01*
X158454098Y-87414118D01*
X158592202Y-87454242D01*
X158592205Y-87454242D01*
X158592207Y-87454243D01*
X158628510Y-87457100D01*
X158628518Y-87457100D01*
X159097882Y-87457100D01*
X159097890Y-87457100D01*
X159134193Y-87454243D01*
X159134195Y-87454242D01*
X159134197Y-87454242D01*
X159175175Y-87442336D01*
X159289595Y-87409094D01*
X159428887Y-87326717D01*
X159543317Y-87212287D01*
X159625694Y-87072995D01*
X159670843Y-86917593D01*
X159673700Y-86881290D01*
X159673700Y-86471910D01*
X159670843Y-86435607D01*
X159670411Y-86434121D01*
X159625695Y-86280209D01*
X159625694Y-86280206D01*
X159625694Y-86280205D01*
X159543317Y-86140913D01*
X159543315Y-86140911D01*
X159543312Y-86140907D01*
X159428892Y-86026487D01*
X159428884Y-86026481D01*
X159289593Y-85944105D01*
X159289590Y-85944104D01*
X159134197Y-85898957D01*
X159134191Y-85898956D01*
X159097897Y-85896100D01*
X159097890Y-85896100D01*
X158628510Y-85896100D01*
X158628502Y-85896100D01*
X158592208Y-85898956D01*
X158592202Y-85898957D01*
X158486360Y-85929708D01*
X158416491Y-85929509D01*
X158367008Y-85901143D01*
X158359581Y-85894188D01*
X158321908Y-85845092D01*
X158240187Y-85782385D01*
X158235743Y-85778223D01*
X158220966Y-85753153D01*
X158203811Y-85729659D01*
X158202422Y-85721694D01*
X158200264Y-85718032D01*
X158200539Y-85710889D01*
X158196500Y-85687712D01*
X158196500Y-84744367D01*
X158216185Y-84677328D01*
X158268989Y-84631573D01*
X158338147Y-84621629D01*
X158367952Y-84629806D01*
X158492440Y-84681370D01*
X158516503Y-84691337D01*
X158558773Y-84699745D01*
X158671849Y-84722238D01*
X158688605Y-84731002D01*
X158707085Y-84735023D01*
X158732123Y-84753767D01*
X158733760Y-84754623D01*
X158735339Y-84756174D01*
X158758001Y-84778836D01*
X158758011Y-84778847D01*
X158762341Y-84783177D01*
X158762342Y-84783178D01*
X158874146Y-84894982D01*
X158951254Y-84939500D01*
X159011077Y-84974039D01*
X159163805Y-85014962D01*
X159321919Y-85014962D01*
X159635993Y-85014962D01*
X159697068Y-85032895D01*
X159697662Y-85031808D01*
X159702662Y-85034538D01*
X159703032Y-85034647D01*
X159703661Y-85035083D01*
X159705447Y-85036059D01*
X159840293Y-85086353D01*
X159840292Y-85086353D01*
X159847220Y-85087097D01*
X159899903Y-85092762D01*
X160986248Y-85092761D01*
X161045859Y-85086353D01*
X161180707Y-85036058D01*
X161295922Y-84949808D01*
X161382172Y-84834593D01*
X161432467Y-84699745D01*
X161438876Y-84640135D01*
X161438875Y-84188790D01*
X161432467Y-84129179D01*
X161432466Y-84129175D01*
X161430683Y-84121628D01*
X161432978Y-84121085D01*
X161428833Y-84063099D01*
X161431283Y-84054752D01*
X161432465Y-84049752D01*
X161432465Y-84049751D01*
X161432467Y-84049746D01*
X161438876Y-83990136D01*
X161438875Y-83538791D01*
X161432467Y-83479180D01*
X161432467Y-83479179D01*
X161430683Y-83471629D01*
X161432978Y-83471086D01*
X161428833Y-83413100D01*
X161431283Y-83404753D01*
X161432465Y-83399753D01*
X161432465Y-83399752D01*
X161432467Y-83399747D01*
X161438876Y-83340137D01*
X161438875Y-82888792D01*
X161432467Y-82829181D01*
X161422433Y-82802279D01*
X161382173Y-82694335D01*
X161382169Y-82694328D01*
X161290608Y-82572019D01*
X161292793Y-82570383D01*
X161266051Y-82521409D01*
X161263217Y-82495051D01*
X161263217Y-82399530D01*
X161263216Y-82399528D01*
X161259927Y-82382994D01*
X161232454Y-82244878D01*
X161184829Y-82129900D01*
X161169780Y-82093568D01*
X161171543Y-82092837D01*
X161166634Y-82069260D01*
X161158845Y-82037237D01*
X161159425Y-82034638D01*
X161159108Y-82033114D01*
X161165503Y-82002577D01*
X161166716Y-81999065D01*
X161202603Y-81912427D01*
X161210696Y-81871740D01*
X161213456Y-81863750D01*
X161228995Y-81841898D01*
X161241426Y-81818134D01*
X161253425Y-81807547D01*
X161253949Y-81806811D01*
X161254518Y-81806582D01*
X161256338Y-81804977D01*
X161295922Y-81775345D01*
X161382172Y-81660130D01*
X161432467Y-81525282D01*
X161438876Y-81465672D01*
X161438875Y-81014327D01*
X161432904Y-80958781D01*
X161432467Y-80954715D01*
X161430683Y-80947165D01*
X161432978Y-80946622D01*
X161428833Y-80888636D01*
X161431283Y-80880289D01*
X161432465Y-80875289D01*
X161432465Y-80875288D01*
X161432467Y-80875283D01*
X161438876Y-80815673D01*
X161438875Y-80364328D01*
X161432467Y-80304717D01*
X161432467Y-80304716D01*
X161430683Y-80297166D01*
X161432978Y-80296623D01*
X161428833Y-80238637D01*
X161431283Y-80230290D01*
X161432465Y-80225290D01*
X161432465Y-80225289D01*
X161432467Y-80225284D01*
X161438876Y-80165674D01*
X161438875Y-79714329D01*
X161432467Y-79654718D01*
X161422425Y-79627795D01*
X161382173Y-79519872D01*
X161382169Y-79519865D01*
X161295923Y-79404656D01*
X161295920Y-79404653D01*
X161180711Y-79318407D01*
X161180702Y-79318402D01*
X161167957Y-79313649D01*
X161112023Y-79271779D01*
X161087605Y-79206315D01*
X161089671Y-79173279D01*
X161100500Y-79118842D01*
X161100500Y-78961158D01*
X161100500Y-78961155D01*
X161100499Y-78961153D01*
X161093587Y-78926404D01*
X161069737Y-78806503D01*
X161055449Y-78772008D01*
X161009397Y-78660827D01*
X161009390Y-78660814D01*
X160921789Y-78529711D01*
X160921786Y-78529707D01*
X160810292Y-78418213D01*
X160810288Y-78418210D01*
X160679185Y-78330609D01*
X160679172Y-78330602D01*
X160533501Y-78270264D01*
X160533489Y-78270261D01*
X160378845Y-78239500D01*
X160378842Y-78239500D01*
X160221158Y-78239500D01*
X160221155Y-78239500D01*
X160066510Y-78270261D01*
X160066498Y-78270264D01*
X159920827Y-78330602D01*
X159920814Y-78330609D01*
X159789711Y-78418210D01*
X159789707Y-78418213D01*
X159678213Y-78529707D01*
X159678210Y-78529711D01*
X159590609Y-78660814D01*
X159590602Y-78660827D01*
X159530264Y-78806498D01*
X159530261Y-78806510D01*
X159499500Y-78961153D01*
X159499500Y-79118846D01*
X159529921Y-79271779D01*
X159530263Y-79273497D01*
X159556736Y-79337410D01*
X159559577Y-79344267D01*
X159560781Y-79355471D01*
X159566182Y-79365362D01*
X159564449Y-79389587D01*
X159567046Y-79413737D01*
X159561872Y-79425622D01*
X159561198Y-79435054D01*
X159544283Y-79466031D01*
X159510516Y-79511138D01*
X159454582Y-79553009D01*
X159384890Y-79557993D01*
X159323567Y-79524508D01*
X159308147Y-79505718D01*
X159270189Y-79448911D01*
X159270186Y-79448907D01*
X159158692Y-79337413D01*
X159158688Y-79337410D01*
X159027585Y-79249809D01*
X159027572Y-79249802D01*
X158881901Y-79189464D01*
X158881889Y-79189461D01*
X158727245Y-79158700D01*
X158727242Y-79158700D01*
X158569558Y-79158700D01*
X158569555Y-79158700D01*
X158414910Y-79189461D01*
X158414898Y-79189464D01*
X158269227Y-79249802D01*
X158269214Y-79249809D01*
X158138111Y-79337410D01*
X158138107Y-79337413D01*
X158026613Y-79448907D01*
X158026610Y-79448911D01*
X157973601Y-79528245D01*
X157919989Y-79573050D01*
X157850664Y-79581757D01*
X157787636Y-79551602D01*
X157750917Y-79492159D01*
X157748533Y-79481723D01*
X157746499Y-79470632D01*
X157746499Y-79450728D01*
X157740091Y-79391117D01*
X157724006Y-79347992D01*
X157722038Y-79337259D01*
X157724582Y-79312926D01*
X157722838Y-79288533D01*
X157728152Y-79278800D01*
X157729306Y-79267768D01*
X157744600Y-79248675D01*
X157756319Y-79227213D01*
X157764735Y-79218798D01*
X157846469Y-79080593D01*
X157881169Y-78961155D01*
X157891264Y-78926408D01*
X157891265Y-78926402D01*
X157894099Y-78890388D01*
X157894100Y-78890381D01*
X157894099Y-78492020D01*
X157891265Y-78455996D01*
X157846469Y-78301807D01*
X157764735Y-78163602D01*
X157764733Y-78163600D01*
X157764730Y-78163596D01*
X157651203Y-78050069D01*
X157651195Y-78050063D01*
X157512993Y-77968331D01*
X157512988Y-77968329D01*
X157358808Y-77923535D01*
X157358802Y-77923534D01*
X157322781Y-77920700D01*
X156824430Y-77920700D01*
X156824408Y-77920701D01*
X156788394Y-77923535D01*
X156634211Y-77968329D01*
X156634206Y-77968331D01*
X156496004Y-78050063D01*
X156496000Y-78050066D01*
X156417684Y-78128382D01*
X156356360Y-78161866D01*
X156286669Y-78156882D01*
X156230735Y-78115010D01*
X156226912Y-78109607D01*
X156171389Y-78026511D01*
X156171387Y-78026508D01*
X156059892Y-77915013D01*
X156059888Y-77915010D01*
X155928785Y-77827409D01*
X155928772Y-77827402D01*
X155783101Y-77767064D01*
X155783089Y-77767061D01*
X155628445Y-77736300D01*
X155628442Y-77736300D01*
X155470758Y-77736300D01*
X155470755Y-77736300D01*
X155316110Y-77767061D01*
X155316098Y-77767064D01*
X155170427Y-77827402D01*
X155170414Y-77827409D01*
X155039311Y-77915010D01*
X155039306Y-77915014D01*
X155003722Y-77950598D01*
X154942399Y-77984083D01*
X154872707Y-77979097D01*
X154828361Y-77950597D01*
X152646119Y-75768355D01*
X152646117Y-75768352D01*
X152527246Y-75649481D01*
X152527238Y-75649475D01*
X152410155Y-75581878D01*
X152410152Y-75581877D01*
X152390314Y-75570423D01*
X152237586Y-75529499D01*
X152079472Y-75529499D01*
X152071876Y-75529499D01*
X152071860Y-75529500D01*
X149654499Y-75529500D01*
X149587460Y-75509815D01*
X149541705Y-75457011D01*
X149530499Y-75405500D01*
X149530499Y-75232129D01*
X149530498Y-75232123D01*
X149530497Y-75232116D01*
X149524091Y-75172517D01*
X149493526Y-75090569D01*
X149473797Y-75037671D01*
X149473795Y-75037668D01*
X149458013Y-75016586D01*
X149396421Y-74934309D01*
X149372004Y-74868848D01*
X149386855Y-74800575D01*
X149396416Y-74785696D01*
X149473796Y-74682331D01*
X149524091Y-74547483D01*
X149530500Y-74487873D01*
X149530499Y-72692128D01*
X149524091Y-72632517D01*
X149488790Y-72537871D01*
X149473797Y-72497671D01*
X149473793Y-72497664D01*
X149387547Y-72382455D01*
X149387544Y-72382452D01*
X149272335Y-72296206D01*
X149272328Y-72296202D01*
X149137482Y-72245908D01*
X149137483Y-72245908D01*
X149077883Y-72239501D01*
X149077881Y-72239500D01*
X149077873Y-72239500D01*
X149077864Y-72239500D01*
X147282129Y-72239500D01*
X147282123Y-72239501D01*
X147222516Y-72245908D01*
X147087671Y-72296202D01*
X147087664Y-72296206D01*
X146972455Y-72382452D01*
X146972452Y-72382455D01*
X146886206Y-72497664D01*
X146886202Y-72497671D01*
X146835908Y-72632517D01*
X146830763Y-72680376D01*
X146829501Y-72692123D01*
X146829500Y-72692135D01*
X146829500Y-74487870D01*
X146829501Y-74487876D01*
X146835908Y-74547483D01*
X146886202Y-74682328D01*
X146886203Y-74682330D01*
X146963578Y-74785689D01*
X146987995Y-74851153D01*
X146973144Y-74919426D01*
X146963578Y-74934311D01*
X146886203Y-75037669D01*
X146886202Y-75037671D01*
X146835908Y-75172517D01*
X146830322Y-75224480D01*
X146829501Y-75232123D01*
X146829500Y-75232135D01*
X146829500Y-77027870D01*
X146829501Y-77027876D01*
X146835908Y-77087483D01*
X146886202Y-77222328D01*
X146886203Y-77222330D01*
X146963578Y-77325689D01*
X146987995Y-77391153D01*
X146973144Y-77459426D01*
X146963578Y-77474311D01*
X146886203Y-77577669D01*
X146886202Y-77577671D01*
X146835908Y-77712517D01*
X146830044Y-77767063D01*
X146829501Y-77772123D01*
X146829500Y-77772135D01*
X146829500Y-79567870D01*
X146829501Y-79567876D01*
X146835908Y-79627483D01*
X146882847Y-79753332D01*
X146887831Y-79823024D01*
X146854346Y-79884347D01*
X146793022Y-79917831D01*
X146723332Y-79912847D01*
X146597482Y-79865908D01*
X146597483Y-79865908D01*
X146537883Y-79859501D01*
X146537881Y-79859500D01*
X146537873Y-79859500D01*
X146537864Y-79859500D01*
X144742129Y-79859500D01*
X144742123Y-79859501D01*
X144682516Y-79865908D01*
X144547671Y-79916202D01*
X144547664Y-79916206D01*
X144432455Y-80002452D01*
X144432452Y-80002455D01*
X144346206Y-80117664D01*
X144346202Y-80117671D01*
X144300682Y-80239719D01*
X144258811Y-80295653D01*
X144193347Y-80320070D01*
X144125074Y-80305219D01*
X144075668Y-80255813D01*
X144060500Y-80196386D01*
X144060500Y-71383713D01*
X151049500Y-71383713D01*
X151049500Y-71596286D01*
X151082753Y-71806239D01*
X151148444Y-72008414D01*
X151244951Y-72197820D01*
X151369890Y-72369786D01*
X151520213Y-72520109D01*
X151692179Y-72645048D01*
X151692181Y-72645049D01*
X151692184Y-72645051D01*
X151881588Y-72741557D01*
X152083757Y-72807246D01*
X152293713Y-72840500D01*
X152293714Y-72840500D01*
X152506286Y-72840500D01*
X152506287Y-72840500D01*
X152716243Y-72807246D01*
X152918412Y-72741557D01*
X153107816Y-72645051D01*
X153192025Y-72583870D01*
X153279786Y-72520109D01*
X153279788Y-72520106D01*
X153279792Y-72520104D01*
X153430104Y-72369792D01*
X153430106Y-72369788D01*
X153430109Y-72369786D01*
X153555048Y-72197820D01*
X153555047Y-72197820D01*
X153555051Y-72197816D01*
X153651557Y-72008412D01*
X153717246Y-71806243D01*
X153750500Y-71596287D01*
X153750500Y-71383713D01*
X153740810Y-71322532D01*
X169409500Y-71322532D01*
X169409500Y-71535105D01*
X169442753Y-71745058D01*
X169508444Y-71947233D01*
X169604951Y-72136639D01*
X169729890Y-72308605D01*
X169880213Y-72458928D01*
X170052179Y-72583867D01*
X170052181Y-72583868D01*
X170052184Y-72583870D01*
X170241588Y-72680376D01*
X170443757Y-72746065D01*
X170653713Y-72779319D01*
X170653714Y-72779319D01*
X170866286Y-72779319D01*
X170866287Y-72779319D01*
X171076243Y-72746065D01*
X171278412Y-72680376D01*
X171467816Y-72583870D01*
X171525725Y-72541797D01*
X171639786Y-72458928D01*
X171639788Y-72458925D01*
X171639792Y-72458923D01*
X171790104Y-72308611D01*
X171790106Y-72308607D01*
X171790109Y-72308605D01*
X171915048Y-72136639D01*
X171915047Y-72136639D01*
X171915051Y-72136635D01*
X172011557Y-71947231D01*
X172077246Y-71745062D01*
X172110500Y-71535106D01*
X172110500Y-71322532D01*
X172077246Y-71112576D01*
X172011557Y-70910407D01*
X171915051Y-70721003D01*
X171915049Y-70721000D01*
X171915048Y-70720998D01*
X171790109Y-70549032D01*
X171639786Y-70398709D01*
X171467820Y-70273770D01*
X171278414Y-70177263D01*
X171278413Y-70177262D01*
X171278412Y-70177262D01*
X171076243Y-70111573D01*
X171076241Y-70111572D01*
X171076240Y-70111572D01*
X170914957Y-70086027D01*
X170866287Y-70078319D01*
X170653713Y-70078319D01*
X170605042Y-70086027D01*
X170443760Y-70111572D01*
X170241585Y-70177263D01*
X170052179Y-70273770D01*
X169880213Y-70398709D01*
X169729890Y-70549032D01*
X169604951Y-70720998D01*
X169508444Y-70910404D01*
X169442753Y-71112579D01*
X169409500Y-71322532D01*
X153740810Y-71322532D01*
X153717246Y-71173757D01*
X153651557Y-70971588D01*
X153555051Y-70782184D01*
X153555049Y-70782181D01*
X153555048Y-70782179D01*
X153430109Y-70610213D01*
X153279786Y-70459890D01*
X153107820Y-70334951D01*
X152918414Y-70238444D01*
X152918413Y-70238443D01*
X152918412Y-70238443D01*
X152716243Y-70172754D01*
X152716241Y-70172753D01*
X152716240Y-70172753D01*
X152554957Y-70147208D01*
X152506287Y-70139500D01*
X152293713Y-70139500D01*
X152245042Y-70147208D01*
X152083760Y-70172753D01*
X151881585Y-70238444D01*
X151692179Y-70334951D01*
X151520213Y-70459890D01*
X151369890Y-70610213D01*
X151244951Y-70782179D01*
X151148444Y-70971585D01*
X151082753Y-71173760D01*
X151049500Y-71383713D01*
X144060500Y-71383713D01*
X144060500Y-69623750D01*
X144060726Y-69616263D01*
X144076813Y-69350311D01*
X144078618Y-69335447D01*
X144121219Y-69102980D01*
X144125969Y-69077057D01*
X144129548Y-69062539D01*
X144207699Y-68811743D01*
X144213001Y-68797762D01*
X144320822Y-68558194D01*
X144327767Y-68544961D01*
X144463677Y-68320139D01*
X144472164Y-68307843D01*
X144634183Y-68101041D01*
X144644098Y-68089850D01*
X144829850Y-67904098D01*
X144841041Y-67894183D01*
X145047843Y-67732164D01*
X145060139Y-67723677D01*
X145284961Y-67587767D01*
X145298194Y-67580822D01*
X145537762Y-67473001D01*
X145551743Y-67467699D01*
X145802539Y-67389548D01*
X145817057Y-67385969D01*
X146075450Y-67338617D01*
X146090307Y-67336813D01*
X146356264Y-67320726D01*
X146363751Y-67320500D01*
X146425892Y-67320500D01*
X176134108Y-67320500D01*
X176196249Y-67320500D01*
X176203736Y-67320726D01*
G37*
%TD.AperFunction*%
%TA.AperFunction,Conductor*%
G36*
X156263211Y-85783136D02*
G01*
X156304486Y-85809663D01*
X156304601Y-85809524D01*
X156305795Y-85810504D01*
X156307558Y-85811637D01*
X156309307Y-85813386D01*
X156309311Y-85813389D01*
X156440414Y-85900990D01*
X156440418Y-85900992D01*
X156440421Y-85900994D01*
X156503804Y-85927248D01*
X156558205Y-85971087D01*
X156580271Y-86037381D01*
X156570912Y-86089258D01*
X156559209Y-86117512D01*
X156559208Y-86117516D01*
X156543700Y-86235302D01*
X156543700Y-86698300D01*
X156524015Y-86765339D01*
X156471211Y-86811094D01*
X156419700Y-86822300D01*
X155695635Y-86822300D01*
X155628596Y-86802615D01*
X155582841Y-86749811D01*
X155575451Y-86728825D01*
X155572700Y-86717993D01*
X155572700Y-86716710D01*
X155569843Y-86680407D01*
X155524694Y-86525005D01*
X155522922Y-86522009D01*
X155519804Y-86509732D01*
X155520740Y-86484335D01*
X155517627Y-86459113D01*
X155522007Y-86450006D01*
X155522380Y-86439910D01*
X155536897Y-86419052D01*
X155547915Y-86396149D01*
X155552287Y-86391546D01*
X156132198Y-85811635D01*
X156193519Y-85778152D01*
X156263211Y-85783136D01*
G37*
%TD.AperFunction*%
%TA.AperFunction,Conductor*%
G36*
X172594061Y-74821233D02*
G01*
X172599591Y-74826763D01*
X172599595Y-74826766D01*
X172743930Y-74915794D01*
X172743933Y-74915795D01*
X172743939Y-74915799D01*
X172904928Y-74969145D01*
X173004291Y-74979296D01*
X178250980Y-74979295D01*
X178250988Y-74979294D01*
X178250991Y-74979294D01*
X178357079Y-74968457D01*
X178357225Y-74969892D01*
X178419216Y-74974531D01*
X178475011Y-75016586D01*
X178499213Y-75082130D01*
X178499500Y-75090569D01*
X178499500Y-84613179D01*
X178479815Y-84680218D01*
X178427011Y-84725973D01*
X178357853Y-84735917D01*
X178350715Y-84734642D01*
X178350344Y-84734604D01*
X178265860Y-84725973D01*
X178250982Y-84724453D01*
X173004298Y-84724453D01*
X173004280Y-84724454D01*
X172904928Y-84734603D01*
X172904925Y-84734604D01*
X172743941Y-84787949D01*
X172743930Y-84787954D01*
X172599595Y-84876982D01*
X172599591Y-84876985D01*
X172479668Y-84996908D01*
X172479665Y-84996912D01*
X172390637Y-85141247D01*
X172390632Y-85141258D01*
X172337287Y-85302243D01*
X172334645Y-85328104D01*
X172333650Y-85330541D01*
X172334025Y-85333147D01*
X172320524Y-85362708D01*
X172308248Y-85392795D01*
X172306093Y-85394307D01*
X172305000Y-85396703D01*
X172277658Y-85414274D01*
X172251067Y-85432946D01*
X172247755Y-85433491D01*
X172246222Y-85434477D01*
X172211287Y-85439500D01*
X172202459Y-85439500D01*
X172135420Y-85419815D01*
X172089665Y-85367011D01*
X172078841Y-85305772D01*
X172079328Y-85299588D01*
X172080500Y-85284690D01*
X172080500Y-84875310D01*
X172077643Y-84839007D01*
X172062809Y-84787950D01*
X172032495Y-84683609D01*
X172032494Y-84683605D01*
X172024389Y-84669900D01*
X172012774Y-84650259D01*
X171995591Y-84582535D01*
X172017751Y-84516273D01*
X172031822Y-84499460D01*
X172052392Y-84478891D01*
X172140660Y-84335787D01*
X172193547Y-84176185D01*
X172203611Y-84077674D01*
X172203611Y-83469326D01*
X172193547Y-83370815D01*
X172140660Y-83211213D01*
X172119017Y-83176125D01*
X172100576Y-83108735D01*
X172121497Y-83042071D01*
X172136869Y-83023351D01*
X172236301Y-82923920D01*
X172319642Y-82782997D01*
X172319643Y-82782993D01*
X172319644Y-82782992D01*
X172365319Y-82625779D01*
X172365320Y-82625773D01*
X172368210Y-82589047D01*
X172368211Y-82589040D01*
X172368211Y-82113160D01*
X172365320Y-82076425D01*
X172363883Y-82071478D01*
X172319644Y-81919207D01*
X172319642Y-81919204D01*
X172319642Y-81919203D01*
X172236301Y-81778280D01*
X172236299Y-81778278D01*
X172236296Y-81778274D01*
X172209530Y-81751508D01*
X172176045Y-81690185D01*
X172173211Y-81663827D01*
X172173211Y-81322190D01*
X172192896Y-81255151D01*
X172209527Y-81234511D01*
X172222828Y-81221211D01*
X172305205Y-81081919D01*
X172342162Y-80954715D01*
X172350353Y-80926521D01*
X172350354Y-80926515D01*
X172353039Y-80892396D01*
X172353211Y-80890214D01*
X172353211Y-80420834D01*
X172350354Y-80384531D01*
X172344484Y-80364328D01*
X172313034Y-80256075D01*
X172305205Y-80229129D01*
X172222828Y-80089837D01*
X172222826Y-80089835D01*
X172222823Y-80089831D01*
X172209530Y-80076538D01*
X172176045Y-80015215D01*
X172173211Y-79988857D01*
X172173211Y-79672220D01*
X172192896Y-79605181D01*
X172209531Y-79584538D01*
X172261296Y-79532773D01*
X172261301Y-79532768D01*
X172344642Y-79391845D01*
X172344643Y-79391841D01*
X172344644Y-79391840D01*
X172390319Y-79234627D01*
X172390320Y-79234621D01*
X172390903Y-79227209D01*
X172393211Y-79197888D01*
X172393211Y-78772008D01*
X172390320Y-78735273D01*
X172390319Y-78735268D01*
X172344644Y-78578055D01*
X172344643Y-78578054D01*
X172344642Y-78578053D01*
X172344642Y-78578051D01*
X172335781Y-78563068D01*
X172318598Y-78495347D01*
X172335781Y-78436827D01*
X172344642Y-78421845D01*
X172344643Y-78421840D01*
X172344644Y-78421840D01*
X172390319Y-78264627D01*
X172390320Y-78264621D01*
X172392297Y-78239500D01*
X172393211Y-78227888D01*
X172393211Y-77802008D01*
X172390320Y-77765273D01*
X172390319Y-77765268D01*
X172344644Y-77608055D01*
X172344642Y-77608052D01*
X172344642Y-77608051D01*
X172261301Y-77467128D01*
X172261299Y-77467126D01*
X172261296Y-77467122D01*
X172209530Y-77415356D01*
X172176045Y-77354033D01*
X172173211Y-77327675D01*
X172173211Y-77011038D01*
X172192896Y-76943999D01*
X172209527Y-76923359D01*
X172222828Y-76910059D01*
X172305205Y-76770767D01*
X172350354Y-76615365D01*
X172353211Y-76579062D01*
X172353211Y-76109682D01*
X172350354Y-76073379D01*
X172305205Y-75917977D01*
X172222828Y-75778685D01*
X172222826Y-75778683D01*
X172222823Y-75778679D01*
X172209530Y-75765386D01*
X172176045Y-75704063D01*
X172173211Y-75677705D01*
X172173211Y-75355462D01*
X172192896Y-75288423D01*
X172209531Y-75267780D01*
X172252823Y-75224488D01*
X172252828Y-75224483D01*
X172335205Y-75085191D01*
X172380354Y-74929789D01*
X172382762Y-74899185D01*
X172407645Y-74833898D01*
X172463875Y-74792427D01*
X172533600Y-74787939D01*
X172594061Y-74821233D01*
G37*
%TD.AperFunction*%
%TA.AperFunction,Conductor*%
G36*
X164035827Y-83997558D02*
G01*
X164155436Y-84032309D01*
X164192171Y-84035200D01*
X164491011Y-84035200D01*
X164558050Y-84054885D01*
X164603805Y-84107689D01*
X164615011Y-84159200D01*
X164615011Y-84465397D01*
X164617867Y-84501691D01*
X164617868Y-84501697D01*
X164649770Y-84611501D01*
X164649571Y-84681370D01*
X164611629Y-84740040D01*
X164547991Y-84768884D01*
X164478861Y-84758743D01*
X164443013Y-84733777D01*
X163913551Y-84204316D01*
X163880066Y-84142993D01*
X163885050Y-84073302D01*
X163926921Y-84017368D01*
X163992386Y-83992951D01*
X164035827Y-83997558D01*
G37*
%TD.AperFunction*%
%TA.AperFunction,Conductor*%
G36*
X168632404Y-83973141D02*
G01*
X168634959Y-83972504D01*
X168665745Y-83982932D01*
X168696917Y-83992085D01*
X168698640Y-83994074D01*
X168701135Y-83994919D01*
X168721399Y-84020338D01*
X168742672Y-84044889D01*
X168743551Y-84048126D01*
X168744688Y-84049553D01*
X168753236Y-84083797D01*
X168762674Y-84176182D01*
X168762675Y-84176185D01*
X168787554Y-84251264D01*
X168815561Y-84335784D01*
X168815566Y-84335795D01*
X168903827Y-84478887D01*
X168908308Y-84484554D01*
X168907222Y-84485412D01*
X168936943Y-84539842D01*
X168931959Y-84609534D01*
X168890087Y-84665467D01*
X168824623Y-84689884D01*
X168815777Y-84690200D01*
X168721413Y-84690200D01*
X168685119Y-84693056D01*
X168685113Y-84693057D01*
X168529719Y-84738204D01*
X168529713Y-84738206D01*
X168509231Y-84750320D01*
X168441507Y-84767501D01*
X168405291Y-84760676D01*
X168393623Y-84756608D01*
X168362506Y-84738206D01*
X168232477Y-84700428D01*
X168229386Y-84699351D01*
X168203518Y-84680842D01*
X168176725Y-84663731D01*
X168175312Y-84660661D01*
X168172563Y-84658694D01*
X168160809Y-84629141D01*
X168147519Y-84600259D01*
X168147595Y-84595918D01*
X168146741Y-84593771D01*
X168147721Y-84588747D01*
X168148226Y-84559972D01*
X168148918Y-84556180D01*
X168148920Y-84556175D01*
X168151811Y-84519440D01*
X168151811Y-84096400D01*
X168171496Y-84029361D01*
X168224300Y-83983606D01*
X168275811Y-83972400D01*
X168629878Y-83972400D01*
X168632404Y-83973141D01*
G37*
%TD.AperFunction*%
%TA.AperFunction,Conductor*%
G36*
X151696539Y-79141185D02*
G01*
X151742294Y-79193989D01*
X151751117Y-79221309D01*
X151782661Y-79379893D01*
X151783403Y-79382337D01*
X151783414Y-79383679D01*
X151783851Y-79385872D01*
X151783435Y-79385954D01*
X151784026Y-79452204D01*
X151771475Y-79481450D01*
X151741108Y-79532798D01*
X151741104Y-79532808D01*
X151695957Y-79688202D01*
X151695956Y-79688208D01*
X151693100Y-79724502D01*
X151693100Y-80193897D01*
X151695956Y-80230191D01*
X151695957Y-80230197D01*
X151741104Y-80385590D01*
X151741106Y-80385595D01*
X151767059Y-80429481D01*
X151784240Y-80497205D01*
X151767059Y-80555719D01*
X151741106Y-80599604D01*
X151741104Y-80599609D01*
X151695957Y-80755002D01*
X151695956Y-80755008D01*
X151693100Y-80791302D01*
X151693100Y-81260697D01*
X151695956Y-81296991D01*
X151695957Y-81296997D01*
X151741104Y-81452390D01*
X151741106Y-81452395D01*
X151767059Y-81496281D01*
X151784240Y-81564005D01*
X151767059Y-81622519D01*
X151741106Y-81666404D01*
X151741104Y-81666409D01*
X151695957Y-81821802D01*
X151695956Y-81821808D01*
X151693100Y-81858102D01*
X151693100Y-82327497D01*
X151695956Y-82363791D01*
X151695957Y-82363797D01*
X151741104Y-82519190D01*
X151741106Y-82519195D01*
X151767059Y-82563081D01*
X151784240Y-82630805D01*
X151767059Y-82689319D01*
X151741106Y-82733204D01*
X151741104Y-82733209D01*
X151695957Y-82888602D01*
X151695956Y-82888608D01*
X151693100Y-82924902D01*
X151693100Y-83394297D01*
X151695956Y-83430591D01*
X151695957Y-83430597D01*
X151741104Y-83585990D01*
X151741105Y-83585993D01*
X151823481Y-83725284D01*
X151823487Y-83725292D01*
X151937907Y-83839712D01*
X151937911Y-83839715D01*
X151937913Y-83839717D01*
X152077205Y-83922094D01*
X152118187Y-83934000D01*
X152232602Y-83967242D01*
X152232605Y-83967242D01*
X152232607Y-83967243D01*
X152268910Y-83970100D01*
X152268918Y-83970100D01*
X152678282Y-83970100D01*
X152678290Y-83970100D01*
X152714593Y-83967243D01*
X152714595Y-83967242D01*
X152714597Y-83967242D01*
X152792984Y-83944468D01*
X152869995Y-83922094D01*
X153009287Y-83839717D01*
X153009288Y-83839716D01*
X153012895Y-83836919D01*
X153077932Y-83811385D01*
X153088893Y-83810900D01*
X154003703Y-83810900D01*
X154070742Y-83830585D01*
X154116497Y-83883389D01*
X154126441Y-83952547D01*
X154097416Y-84016103D01*
X154091384Y-84022581D01*
X153568997Y-84544968D01*
X153507674Y-84578453D01*
X153481316Y-84581287D01*
X152281885Y-84581287D01*
X152214846Y-84561602D01*
X152194204Y-84544968D01*
X149566818Y-81917582D01*
X149533333Y-81856259D01*
X149530499Y-81829901D01*
X149530499Y-80312129D01*
X149530498Y-80312123D01*
X149528890Y-80297166D01*
X149525299Y-80263757D01*
X149524091Y-80252516D01*
X149473797Y-80117671D01*
X149473795Y-80117668D01*
X149443005Y-80076538D01*
X149396421Y-80014309D01*
X149372004Y-79948848D01*
X149386855Y-79880575D01*
X149396416Y-79865696D01*
X149473796Y-79762331D01*
X149524091Y-79627483D01*
X149530500Y-79567873D01*
X149530500Y-79245500D01*
X149550185Y-79178461D01*
X149602989Y-79132706D01*
X149654500Y-79121500D01*
X151629500Y-79121500D01*
X151696539Y-79141185D01*
G37*
%TD.AperFunction*%
%TA.AperFunction,Conductor*%
G36*
X156405426Y-80518127D02*
G01*
X156454832Y-80567532D01*
X156462182Y-80583627D01*
X156502202Y-80690928D01*
X156502206Y-80690935D01*
X156588452Y-80806144D01*
X156588455Y-80806147D01*
X156703664Y-80892393D01*
X156703671Y-80892397D01*
X156748618Y-80909161D01*
X156838517Y-80942691D01*
X156898127Y-80949100D01*
X157293872Y-80949099D01*
X157353483Y-80942691D01*
X157353485Y-80942690D01*
X157353487Y-80942690D01*
X157361031Y-80940908D01*
X157361342Y-80942226D01*
X157379268Y-80940942D01*
X157404835Y-80935270D01*
X157413564Y-80938484D01*
X157422842Y-80937820D01*
X157445828Y-80950367D01*
X157470400Y-80959417D01*
X157476004Y-80966839D01*
X157484170Y-80971297D01*
X157496723Y-80994279D01*
X157512502Y-81015177D01*
X157514693Y-81027179D01*
X157517663Y-81032616D01*
X157520146Y-81049633D01*
X157520500Y-81054323D01*
X157520501Y-81071472D01*
X157524885Y-81112259D01*
X157525035Y-81114240D01*
X157524679Y-81115909D01*
X157524679Y-81136850D01*
X157520500Y-81175722D01*
X157520500Y-81571469D01*
X157520501Y-81571478D01*
X157524679Y-81610345D01*
X157524679Y-81636850D01*
X157520500Y-81675722D01*
X157520500Y-82071469D01*
X157520501Y-82071478D01*
X157524679Y-82110345D01*
X157524679Y-82136850D01*
X157520500Y-82175722D01*
X157520500Y-82571469D01*
X157520501Y-82571478D01*
X157524679Y-82610345D01*
X157524812Y-82635545D01*
X157524741Y-82636269D01*
X157520500Y-82675727D01*
X157520500Y-82680087D01*
X157519923Y-82686048D01*
X157509038Y-82713133D01*
X157500815Y-82741139D01*
X157496164Y-82745168D01*
X157493870Y-82750879D01*
X157470067Y-82767781D01*
X157448011Y-82786894D01*
X157441004Y-82788420D01*
X157436903Y-82791333D01*
X157425132Y-82791878D01*
X157401390Y-82797050D01*
X157401426Y-82797736D01*
X157401428Y-82797746D01*
X157401427Y-82797746D01*
X157401437Y-82797924D01*
X157398118Y-82798101D01*
X157359253Y-82802279D01*
X157332748Y-82802279D01*
X157293874Y-82798100D01*
X156898130Y-82798100D01*
X156898119Y-82798101D01*
X156859253Y-82802279D01*
X156832748Y-82802279D01*
X156793874Y-82798100D01*
X156398130Y-82798100D01*
X156398119Y-82798101D01*
X156359253Y-82802279D01*
X156332748Y-82802279D01*
X156293874Y-82798100D01*
X155898130Y-82798100D01*
X155898119Y-82798101D01*
X155859253Y-82802279D01*
X155834054Y-82802412D01*
X155833332Y-82802342D01*
X155793873Y-82798100D01*
X155789511Y-82798100D01*
X155783551Y-82797523D01*
X155756465Y-82786638D01*
X155728460Y-82778415D01*
X155724430Y-82773764D01*
X155718720Y-82771470D01*
X155701817Y-82747667D01*
X155682705Y-82725611D01*
X155681181Y-82718608D01*
X155678266Y-82714503D01*
X155677718Y-82702690D01*
X155672562Y-82678987D01*
X155671958Y-82679019D01*
X155671855Y-82679031D01*
X155671854Y-82679025D01*
X155671676Y-82679035D01*
X155671498Y-82675711D01*
X155667320Y-82636853D01*
X155667320Y-82610345D01*
X155671500Y-82571473D01*
X155671499Y-82175728D01*
X155671499Y-82175727D01*
X155671498Y-82175711D01*
X155667320Y-82136853D01*
X155667320Y-82110345D01*
X155671500Y-82071473D01*
X155671499Y-81675728D01*
X155671499Y-81675727D01*
X155671498Y-81675711D01*
X155667320Y-81636853D01*
X155667320Y-81610345D01*
X155671500Y-81571473D01*
X155671499Y-81175728D01*
X155671499Y-81175727D01*
X155671498Y-81175711D01*
X155667320Y-81136853D01*
X155667187Y-81111643D01*
X155667244Y-81111051D01*
X155671500Y-81071473D01*
X155671499Y-81067113D01*
X155672078Y-81061145D01*
X155682962Y-81034061D01*
X155691185Y-81006060D01*
X155695836Y-81002029D01*
X155698133Y-80996315D01*
X155721938Y-80979411D01*
X155743989Y-80960305D01*
X155750993Y-80958781D01*
X155755102Y-80955864D01*
X155766916Y-80955317D01*
X155790611Y-80950162D01*
X155790576Y-80949500D01*
X155790571Y-80949454D01*
X155790573Y-80949453D01*
X155790564Y-80949276D01*
X155793857Y-80949099D01*
X155793872Y-80949099D01*
X155853483Y-80942691D01*
X155988331Y-80892396D01*
X156103546Y-80806146D01*
X156189796Y-80690931D01*
X156223857Y-80599609D01*
X156229818Y-80583627D01*
X156271689Y-80527693D01*
X156337153Y-80503276D01*
X156405426Y-80518127D01*
G37*
%TD.AperFunction*%
%TA.AperFunction,Conductor*%
G36*
X164541211Y-79488885D02*
G01*
X164586966Y-79541689D01*
X164596910Y-79610847D01*
X164593248Y-79627795D01*
X164567068Y-79717902D01*
X164567067Y-79717908D01*
X164564211Y-79754202D01*
X164564211Y-80060400D01*
X164544526Y-80127439D01*
X164491722Y-80173194D01*
X164440211Y-80184400D01*
X164166763Y-80184400D01*
X164130037Y-80187290D01*
X164130031Y-80187291D01*
X163972818Y-80232966D01*
X163972810Y-80232970D01*
X163962792Y-80238895D01*
X163956270Y-80240549D01*
X163951186Y-80244955D01*
X163922830Y-80249032D01*
X163895067Y-80256075D01*
X163888687Y-80253941D01*
X163882028Y-80254899D01*
X163855967Y-80242997D01*
X163828806Y-80233913D01*
X163824592Y-80228669D01*
X163818472Y-80225874D01*
X163802985Y-80201776D01*
X163785044Y-80179446D01*
X163783443Y-80171368D01*
X163780698Y-80167096D01*
X163775675Y-80132166D01*
X163775675Y-80043835D01*
X163795360Y-79976798D01*
X163811989Y-79956161D01*
X164262633Y-79505519D01*
X164323956Y-79472034D01*
X164350314Y-79469200D01*
X164474172Y-79469200D01*
X164541211Y-79488885D01*
G37*
%TD.AperFunction*%
%TD*%
M02*
