M48
; DRILL file KiCad 10.0.3 date 2026-07-08T17:57:17
; FORMAT={-:-/ absolute / metric / decimal}
; #@! TF.CreationDate,2026-07-08T17:57:17+01:00
; #@! TF.GenerationSoftware,Kicad,Pcbnew,10.0.3
; #@! TF.FileFunction,Plated,1,4,PTH
FMAT,2
METRIC
; #@! TA.AperFunction,Plated,PTH,ViaDrill
T1C0.300
; #@! TA.AperFunction,Plated,PTH,ComponentDrill
T2C1.000
%
G90
G05
T1
X144.78Y-71.12
X146.05Y-68.58
X146.05Y-88.9
X146.776Y-71.736
X147.32Y-91.44
X149.86Y-88.9
X151.13Y-74.93
X151.486Y-79.121
X152.4Y-87.63
X152.552Y-79.146
X153.67Y-74.93
X154.09Y-78.91
X154.94Y-73.66
X154.94Y-76.2
X154.94Y-91.44
X155.23Y-88.76
X155.55Y-78.537
X156.21Y-69.85
X156.21Y-72.39
X156.21Y-74.93
X156.21Y-90.17
X156.596Y-81.874
X156.82Y-85.192
X157.48Y-71.12
X157.48Y-73.66
X157.48Y-76.2
X157.48Y-91.44
X157.886Y-77.724
X158.318Y-88.544
X158.47Y-84.9
X158.648Y-79.959
X158.75Y-69.85
X158.75Y-72.39
X158.75Y-74.93
X158.75Y-83.922
X158.75Y-90.17
X158.9Y-78.66
X159.38Y-77.92
X160.02Y-71.12
X160.02Y-73.66
X160.02Y-76.2
X160.124Y-82.615
X160.24Y-81.71
X160.3Y-79.04
X160.73Y-85.42
X161.29Y-87.63
X161.29Y-90.17
X161.54Y-84.51
X161.59Y-83.36
X161.61Y-79.86
X161.61Y-81.05
X162.54Y-85.41
X162.56Y-68.58
X162.56Y-71.12
X162.56Y-73.66
X162.56Y-76.2
X162.56Y-86.36
X162.56Y-88.9
X162.56Y-91.44
X162.59Y-79.01
X163.43Y-85.8
X163.677Y-78.375
X163.71Y-83.99
X163.734Y-80.415
X163.83Y-69.85
X163.83Y-72.39
X163.83Y-74.93
X163.83Y-87.63
X163.83Y-90.17
X164.718Y-86.206
X164.738Y-78.136
X164.748Y-87.016
X164.858Y-88.006
X165.1Y-68.58
X165.1Y-71.12
X165.1Y-73.66
X165.1Y-76.2
X165.1Y-91.44
X165.754Y-77.119
X165.754Y-89.108
X166.37Y-69.85
X166.37Y-72.39
X166.37Y-74.93
X166.37Y-90.17
X166.608Y-78.336
X166.618Y-87.976
X166.678Y-86.101
X166.688Y-87.006
X167.227Y-78.994
X167.518Y-86.416
X167.64Y-68.58
X167.64Y-71.12
X167.64Y-73.66
X167.64Y-76.2
X167.64Y-88.9
X167.64Y-91.44
X168.192Y-79.045
X168.415Y-84.768
X168.448Y-86.456
X168.91Y-69.85
X168.91Y-72.39
X168.91Y-74.93
X168.91Y-77.47
X168.91Y-87.63
X168.91Y-90.17
X169.361Y-79.446
X169.558Y-86.296
X169.868Y-80.546
X170.18Y-68.58
X170.18Y-71.12
X170.18Y-73.66
X170.18Y-76.2
X170.18Y-78.74
X170.18Y-88.9
X170.18Y-91.44
X170.418Y-85.556
X171.138Y-84.996
X171.45Y-69.85
X171.45Y-72.39
X171.45Y-74.93
X171.45Y-77.47
X171.45Y-87.63
X171.45Y-90.17
X171.85Y-79.049
X172.258Y-84.786
X172.72Y-68.58
X172.72Y-71.12
X172.72Y-73.66
X172.72Y-76.2
X172.72Y-86.36
X172.72Y-88.9
X172.72Y-91.44
X173.34Y-84.71
X173.798Y-79.106
X173.99Y-69.85
X173.99Y-72.39
X173.99Y-74.93
X173.99Y-87.63
X173.99Y-90.17
X174.31Y-84.58
X174.441Y-79.858
X174.66Y-83.07
X174.847Y-80.721
X175.26Y-68.58
X175.26Y-71.12
X175.26Y-73.66
X175.26Y-76.2
X175.26Y-86.36
X175.26Y-88.9
X175.26Y-91.44
X175.34Y-84.53
X176.29Y-84.6
X176.53Y-69.85
X176.53Y-74.93
X176.53Y-77.47
X176.53Y-87.63
X177.22Y-84.2
X177.26Y-85.22
X177.74Y-81.19
X177.8Y-68.58
X177.8Y-73.66
X177.8Y-76.2
X177.8Y-78.74
X177.8Y-86.36
X177.8Y-91.44
X178.21Y-84.47
X178.864Y-84.075
X178.897Y-81.899
X179.07Y-69.85
X179.07Y-72.39
X179.07Y-74.93
X179.07Y-77.47
X179.07Y-80.01
X179.07Y-87.63
X179.705Y-83.92
X179.72Y-82.09
X180.34Y-68.58
X180.34Y-71.12
X180.34Y-73.66
X180.34Y-76.2
X180.34Y-78.74
X180.34Y-86.36
X180.34Y-88.9
X180.34Y-91.44
X180.52Y-83.94
X180.53Y-82.11
X181.61Y-69.85
X181.61Y-72.39
X181.61Y-74.93
X181.61Y-77.47
X181.61Y-90.17
X182.88Y-68.58
X182.88Y-71.12
X182.88Y-73.66
X182.88Y-76.2
X182.88Y-88.9
X182.88Y-91.44
X184.15Y-69.85
X184.15Y-72.39
X184.15Y-74.93
X184.15Y-90.17
X184.25Y-78.698
X184.25Y-87.218
X185.42Y-71.12
X185.42Y-73.66
X185.42Y-76.2
X185.42Y-88.9
T2
X145.64Y-73.59
X145.64Y-76.13
X145.64Y-78.67
X145.64Y-81.21
X145.64Y-83.75
X145.64Y-86.29
X148.18Y-73.59
X148.18Y-76.13
X148.18Y-78.67
X148.18Y-81.21
X148.18Y-83.75
X148.18Y-86.29
M30
