%TF.GenerationSoftware,KiCad,Pcbnew,10.0.3*%
%TF.CreationDate,2026-07-04T14:53:50+01:00*%
%TF.ProjectId,CC1101_Multx,43433131-3031-45f4-9d75-6c74782e6b69,rev?*%
%TF.SameCoordinates,Original*%
%TF.FileFunction,Copper,L4,Bot*%
%TF.FilePolarity,Positive*%
%FSLAX46Y46*%
G04 Gerber Fmt 4.6, Leading zero omitted, Abs format (unit mm)*
G04 Created by KiCad (PCBNEW 10.0.3) date 2026-07-04 14:53:50*
%MOMM*%
%LPD*%
G01*
G04 APERTURE LIST*
G04 Aperture macros list*
%AMRoundRect*
0 Rectangle with rounded corners*
0 $1 Rounding radius*
0 $2 $3 $4 $5 $6 $7 $8 $9 X,Y pos of 4 corners*
0 Add a 4 corners polygon primitive as box body*
4,1,4,$2,$3,$4,$5,$6,$7,$8,$9,$2,$3,0*
0 Add four circle primitives for the rounded corners*
1,1,$1+$1,$2,$3*
1,1,$1+$1,$4,$5*
1,1,$1+$1,$6,$7*
1,1,$1+$1,$8,$9*
0 Add four rect primitives between the rounded corners*
20,1,$1+$1,$2,$3,$4,$5,0*
20,1,$1+$1,$4,$5,$6,$7,0*
20,1,$1+$1,$6,$7,$8,$9,0*
20,1,$1+$1,$8,$9,$2,$3,0*%
G04 Aperture macros list end*
%TA.AperFunction,EtchedComponent*%
%ADD10C,0.460000*%
%TD*%
%TA.AperFunction,ComponentPad*%
%ADD11R,1.700000X1.700000*%
%TD*%
%TA.AperFunction,ComponentPad*%
%ADD12RoundRect,0.249999X0.850001X0.850001X-0.850001X0.850001X-0.850001X-0.850001X0.850001X-0.850001X0*%
%TD*%
%TA.AperFunction,ComponentPad*%
%ADD13C,2.200000*%
%TD*%
%TA.AperFunction,ComponentPad*%
%ADD14C,0.970000*%
%TD*%
%TA.AperFunction,SMDPad,CuDef*%
%ADD15RoundRect,0.250000X-1.595000X-1.082500X1.595000X-1.082500X1.595000X1.082500X-1.595000X1.082500X0*%
%TD*%
%TA.AperFunction,ViaPad*%
%ADD16C,0.600000*%
%TD*%
%TA.AperFunction,Conductor*%
%ADD17C,0.200000*%
%TD*%
G04 APERTURE END LIST*
%TO.C,AE1*%
D10*
X178410794Y-79468200D02*
X175675794Y-79468200D01*
X178410794Y-86453200D02*
X175675794Y-86453200D01*
%TD*%
D11*
%TO.P,J8,1,Pin_1_1*%
%TO.N,Net-(IC3-VCTL)*%
X148336000Y-89865200D03*
%TD*%
%TO.P,J7,1,Pin_1_1*%
%TO.N,Net-(IC2-VCTL)*%
X148336000Y-72085200D03*
%TD*%
%TO.P,J3,1,Pin_1_1*%
%TO.N,Net-(IC1-GDO2)*%
X148336000Y-82245200D03*
%TD*%
D12*
%TO.P,BT1,1,+_1*%
%TO.N,/AVDD*%
X159240000Y-73120000D03*
D13*
%TO.P,BT1,2,-_2*%
%TO.N,/AGND*%
X156700000Y-73120000D03*
%TD*%
D11*
%TO.P,J1,1,Pin_1_1*%
%TO.N,Net-(IC1-SCLK)*%
X148336000Y-79705200D03*
%TD*%
%TO.P,J6,1,Pin_1_1*%
%TO.N,Net-(IC1-CSN)*%
X148336000Y-87325200D03*
%TD*%
%TO.P,J4,1,Pin_1_1*%
%TO.N,Net-(IC1-SI)*%
X148336000Y-74625200D03*
%TD*%
%TO.P,J2,1,Pin_1_1*%
%TO.N,Net-(IC1-SO_(GDO1))*%
X148336000Y-77165200D03*
%TD*%
%TO.P,J5,1,Pin_1_1*%
%TO.N,Net-(IC1-GDO0_(ATEST))*%
X148336000Y-84785200D03*
%TD*%
D14*
%TO.P,AE1,2,Shield_2*%
%TO.N,/AGND*%
X175675794Y-79468200D03*
X175675794Y-86453200D03*
D15*
X178410794Y-79468200D03*
X178410794Y-86453200D03*
%TD*%
D11*
%TO.P,J9,1,Pin_1_1*%
%TO.N,Net-(IC4-VCTL)*%
X148336000Y-69545200D03*
%TD*%
D16*
%TO.N,/AGND*%
X168910000Y-90170000D03*
X166370000Y-87630000D03*
X166370000Y-69850000D03*
X168910000Y-72390000D03*
X165100000Y-71120000D03*
X167640000Y-73660000D03*
X165100000Y-73660000D03*
X166370000Y-74930000D03*
X176530000Y-72390000D03*
X175260000Y-71120000D03*
X161340794Y-87735900D03*
X177800000Y-73660000D03*
X170130794Y-84785900D03*
X155230000Y-88760000D03*
X171500794Y-87735900D03*
X172720000Y-88900000D03*
X171450000Y-77470000D03*
X179070000Y-77470000D03*
X160500794Y-86135900D03*
X175260000Y-91440000D03*
X170180000Y-73660000D03*
X175800792Y-82110700D03*
X172720000Y-71120000D03*
X156210000Y-74930000D03*
X172313600Y-79857600D03*
X175260000Y-68580000D03*
X172720000Y-91440000D03*
X157886400Y-77724000D03*
X165100000Y-91440000D03*
X170230794Y-86465900D03*
X162590794Y-86205900D03*
X161550000Y-78375000D03*
X174990793Y-82090700D03*
X177800000Y-71120000D03*
X164480794Y-78335900D03*
X166065200Y-79044800D03*
X173990000Y-72390000D03*
X170484800Y-82651600D03*
X163830000Y-69850000D03*
X171450000Y-72390000D03*
X171670794Y-79105900D03*
X163830000Y-74930000D03*
X172240794Y-84945900D03*
X165100000Y-68580000D03*
X163830000Y-72390000D03*
X167640000Y-76200000D03*
X163626794Y-89107500D03*
X177800000Y-88900000D03*
X165100000Y-78994000D03*
X163830000Y-90170000D03*
X151485600Y-79121000D03*
X158750000Y-74930000D03*
X161737600Y-80299344D03*
X162560000Y-68580000D03*
X168910000Y-74930000D03*
X162458400Y-84923700D03*
X168550794Y-81345900D03*
X161290000Y-90170000D03*
X158750000Y-90170000D03*
X173990000Y-87630000D03*
X166288129Y-84768326D03*
X176530000Y-69850000D03*
X171450000Y-74930000D03*
X172720000Y-86360000D03*
X172720000Y-68580000D03*
X157480000Y-76200000D03*
X169722794Y-79049100D03*
X160825000Y-78975000D03*
X156596000Y-81873600D03*
X162610794Y-89005900D03*
X179070000Y-72390000D03*
X162560000Y-71120000D03*
X173990000Y-77470000D03*
X159380000Y-77920000D03*
X169010794Y-84995900D03*
X172720000Y-76200000D03*
X162730794Y-88005900D03*
X170180000Y-68580000D03*
X158318200Y-88544400D03*
X168910000Y-77470000D03*
X174150794Y-83920700D03*
X179070000Y-74930000D03*
X170180000Y-71120000D03*
X173990000Y-69850000D03*
X167640000Y-91440000D03*
X168910000Y-69850000D03*
X173990000Y-90170000D03*
X165390794Y-86415900D03*
X157480000Y-91440000D03*
X176530000Y-77470000D03*
X162560000Y-91440000D03*
X162610794Y-78135900D03*
X166370000Y-77470000D03*
X164490794Y-87975900D03*
X176530000Y-74930000D03*
X170180000Y-91440000D03*
X167233600Y-79445900D03*
X170230794Y-89005900D03*
X162620794Y-87015900D03*
X160020000Y-76200000D03*
X175800792Y-83920700D03*
X164560794Y-87005900D03*
X168290794Y-85555900D03*
X171551600Y-82854800D03*
X170180000Y-76200000D03*
X168960794Y-87735900D03*
X171450000Y-69850000D03*
X167740794Y-80545900D03*
X177800000Y-76200000D03*
X179070000Y-69850000D03*
X154940000Y-76200000D03*
X175260000Y-88900000D03*
X166320794Y-86455900D03*
X167640000Y-68580000D03*
X177800000Y-68580000D03*
X171450000Y-90170000D03*
X167430794Y-86295900D03*
X162560000Y-73660000D03*
X174040800Y-81280000D03*
X160416800Y-80050000D03*
X175260000Y-76200000D03*
X179070000Y-90170000D03*
X176530000Y-90170000D03*
X164550794Y-86100700D03*
X165100000Y-76200000D03*
X172720000Y-80721200D03*
X172720000Y-73660000D03*
X161594800Y-84023200D03*
X177800000Y-91440000D03*
X154940000Y-91440000D03*
X174180794Y-82100700D03*
X162560000Y-76200000D03*
X174975793Y-83920700D03*
X161560794Y-86185900D03*
X175260000Y-73660000D03*
X163626794Y-77118700D03*
X171180794Y-84765900D03*
X156210000Y-90170000D03*
X173990000Y-74930000D03*
%TO.N,/AVDD*%
X158750000Y-83921600D03*
X152552400Y-79146400D03*
X161036000Y-82550000D03*
X156819600Y-85191600D03*
X158648400Y-79959200D03*
X173075600Y-84074000D03*
%TO.N,Net-(IC4-VCTL)*%
X173177194Y-81690700D03*
%TO.N,Net-(IC1-SCLK)*%
X154696000Y-80210000D03*
%TO.N,Net-(IC1-SO_(GDO1))*%
X153660218Y-78979782D03*
%TO.N,Net-(IC1-GDO2)*%
X153517600Y-81773600D03*
%TO.N,Net-(IC1-GDO0_(ATEST))*%
X152646705Y-85181787D03*
%TO.N,Net-(IC1-CSN)*%
X152857200Y-85953600D03*
%TO.N,Net-(IC1-SI)*%
X155549600Y-78536800D03*
%TO.N,Net-(IC3-VCTL)*%
X159816800Y-84937600D03*
%TO.N,Net-(IC2-VCTL)*%
X159816800Y-82397600D03*
%TD*%
%TO.N,Net-(IC4-VCTL)*%
D17*
X173177194Y-81295077D02*
X173177194Y-81690700D01*
X173329600Y-73152000D02*
X173329600Y-81142671D01*
X150011200Y-67870000D02*
X168047600Y-67870000D01*
X148336000Y-69545200D02*
X150011200Y-67870000D01*
X173329600Y-81142671D02*
X173177194Y-81295077D01*
X168047600Y-67870000D02*
X173329600Y-73152000D01*
%TO.N,Net-(IC1-SCLK)*%
X154696000Y-80210000D02*
X153673200Y-80210000D01*
X153673200Y-80210000D02*
X153670000Y-80213200D01*
X153670000Y-80213200D02*
X148844000Y-80213200D01*
X148844000Y-80213200D02*
X148336000Y-79705200D01*
%TO.N,Net-(IC1-SO_(GDO1))*%
X153660218Y-78979782D02*
X151845636Y-77165200D01*
X151845636Y-77165200D02*
X148336000Y-77165200D01*
%TO.N,Net-(IC1-GDO2)*%
X153046000Y-82245200D02*
X148336000Y-82245200D01*
X153517600Y-81773600D02*
X153046000Y-82245200D01*
%TO.N,Net-(IC1-GDO0_(ATEST))*%
X152250118Y-84785200D02*
X152646705Y-85181787D01*
X148336000Y-84785200D02*
X152250118Y-84785200D01*
%TO.N,Net-(IC1-CSN)*%
X148336000Y-87325200D02*
X151485600Y-87325200D01*
X151485600Y-87325200D02*
X152857200Y-85953600D01*
%TO.N,Net-(IC1-SI)*%
X151638000Y-74625200D02*
X155549600Y-78536800D01*
X148336000Y-74625200D02*
X151638000Y-74625200D01*
%TO.N,Net-(IC3-VCTL)*%
X150571200Y-92100400D02*
X148336000Y-89865200D01*
X159816800Y-84937600D02*
X159816800Y-91541600D01*
X159385000Y-91973400D02*
X158216600Y-91973400D01*
X159816800Y-91541600D02*
X159385000Y-91973400D01*
X158089600Y-92100400D02*
X150571200Y-92100400D01*
X158216600Y-91973400D02*
X158089600Y-92100400D01*
%TO.N,Net-(IC2-VCTL)*%
X159816800Y-78483200D02*
X159816800Y-82397600D01*
X149486000Y-70514000D02*
X151410000Y-68590000D01*
X148336000Y-72085200D02*
X148336000Y-71664000D01*
X161290000Y-69850000D02*
X161290000Y-77010000D01*
X160030000Y-68590000D02*
X161290000Y-69850000D01*
X149304800Y-70695200D02*
X149486000Y-70695200D01*
X149486000Y-70695200D02*
X149486000Y-70514000D01*
X148336000Y-71664000D02*
X149304800Y-70695200D01*
X151410000Y-68590000D02*
X160030000Y-68590000D01*
X161290000Y-77010000D02*
X159816800Y-78483200D01*
%TD*%
M02*
