%TF.GenerationSoftware,KiCad,Pcbnew,10.0.3*%
%TF.CreationDate,2026-07-13T19:26:38+01:00*%
%TF.ProjectId,CC1101_Multx,43433131-3031-45f4-9d75-6c74782e6b69,rev?*%
%TF.SameCoordinates,Original*%
%TF.FileFunction,Copper,L3,Inr*%
%TF.FilePolarity,Positive*%
%FSLAX46Y46*%
G04 Gerber Fmt 4.6, Leading zero omitted, Abs format (unit mm)*
G04 Created by KiCad (PCBNEW 10.0.3) date 2026-07-13 19:26:38*
%MOMM*%
%LPD*%
G01*
G04 APERTURE LIST*
%TA.AperFunction,ComponentPad*%
%ADD10R,1.700000X1.700000*%
%TD*%
%TA.AperFunction,ComponentPad*%
%ADD11C,1.700000*%
%TD*%
%TA.AperFunction,ViaPad*%
%ADD12C,0.600000*%
%TD*%
G04 APERTURE END LIST*
D10*
%TO.N,Net-(J8-Pin_1)*%
%TO.C,J8*%
X148180000Y-86290000D03*
%TD*%
%TO.N,Net-(J7-Pin_1)*%
%TO.C,J7*%
X145640000Y-81210000D03*
%TD*%
%TO.N,Net-(IC1-GDO2)*%
%TO.C,J3*%
X148180000Y-78670000D03*
%TD*%
%TO.N,/AVDD*%
%TO.C,BT1*%
X148180000Y-73590000D03*
D11*
%TO.N,/AGND*%
X145640000Y-73590000D03*
%TD*%
D10*
%TO.N,Net-(IC1-SCLK)*%
%TO.C,J1*%
X148180000Y-76130000D03*
%TD*%
%TO.N,Net-(IC1-CSN)*%
%TO.C,J6*%
X148180000Y-83750000D03*
%TD*%
%TO.N,Net-(IC1-SI)*%
%TO.C,J4*%
X145640000Y-83750000D03*
%TD*%
%TO.N,Net-(IC1-SO_(GDO1))*%
%TO.C,J2*%
X145640000Y-86290000D03*
%TD*%
%TO.N,Net-(IC1-GDO0_(ATEST))*%
%TO.C,J5*%
X148180000Y-81210000D03*
%TD*%
%TO.N,/AGND*%
%TO.C,J9*%
X145640000Y-78670000D03*
%TD*%
%TO.N,/AGND*%
%TO.C,J1*%
X145640000Y-76130000D03*
%TD*%
D12*
%TO.N,/AGND*%
X153800000Y-83990000D03*
X151600000Y-83740000D03*
X150810000Y-81000000D03*
X150850000Y-79930000D03*
X172431969Y-74629870D03*
X172360000Y-72820000D03*
X172100000Y-86920000D03*
X172230000Y-85130000D03*
X172720000Y-83820000D03*
X172720000Y-76200000D03*
X161290000Y-74930000D03*
X161290000Y-72390000D03*
X161290000Y-69850000D03*
X144780000Y-88900000D03*
X147320000Y-88900000D03*
X152400000Y-91440000D03*
X152400000Y-73660000D03*
X154940000Y-71120000D03*
X149860000Y-71120000D03*
X147320000Y-71120000D03*
X147320000Y-68580000D03*
X149860000Y-68580000D03*
X152400000Y-68580000D03*
X154940000Y-68580000D03*
X157480000Y-68580000D03*
X160020000Y-68580000D03*
X177800000Y-88900000D03*
X177800000Y-83820000D03*
X177800000Y-71120000D03*
X177800000Y-76200000D03*
X175260000Y-76200000D03*
X175260000Y-71120000D03*
X175260000Y-83820000D03*
X175260000Y-88900000D03*
X172720000Y-88900000D03*
X172720000Y-91440000D03*
X170180000Y-91440000D03*
X170180000Y-78740000D03*
X170180000Y-76200000D03*
X170180000Y-73660000D03*
X172720000Y-71120000D03*
X170180000Y-68580000D03*
X172720000Y-68580000D03*
X175977636Y-69468796D03*
X175977636Y-77988796D03*
X175977636Y-81714953D03*
X175977636Y-90234953D03*
X167640000Y-73660000D03*
X157480000Y-71120000D03*
X162540000Y-85410000D03*
X156210000Y-72390000D03*
X155230000Y-88760000D03*
X152400000Y-87630000D03*
X161290000Y-87630000D03*
X158750000Y-69850000D03*
X160020000Y-73660000D03*
X158470000Y-84900000D03*
X167640000Y-71120000D03*
X156210000Y-74930000D03*
X157886400Y-77724000D03*
X162560000Y-91440000D03*
X164717711Y-86205900D03*
X163676917Y-78375000D03*
X166607711Y-78335900D03*
X165100000Y-91440000D03*
X168192117Y-79044800D03*
X161590000Y-83360000D03*
X165100000Y-73660000D03*
X144780000Y-71120000D03*
X163830000Y-69850000D03*
X163830000Y-87630000D03*
X162560000Y-88900000D03*
X163830000Y-74930000D03*
X163734250Y-80415196D03*
X165100000Y-68580000D03*
X161610000Y-81050000D03*
X163830000Y-72390000D03*
X165753711Y-89107500D03*
X149860000Y-88900000D03*
X168910000Y-87630000D03*
X165100000Y-71120000D03*
X167226917Y-78994000D03*
X151485600Y-79121000D03*
X158750000Y-74930000D03*
X162560000Y-68580000D03*
X168910000Y-74930000D03*
X163710076Y-83989957D03*
X160730000Y-85420000D03*
X154940000Y-73660000D03*
X158750000Y-90170000D03*
X167640000Y-91440000D03*
X168910000Y-72390000D03*
X168415046Y-84768326D03*
X166370000Y-74930000D03*
X166370000Y-69850000D03*
X157480000Y-76200000D03*
X162590000Y-79010000D03*
X156596000Y-81873600D03*
X162560000Y-71120000D03*
X159380000Y-77920000D03*
X166370000Y-90170000D03*
X161290000Y-90170000D03*
X164857711Y-88005900D03*
X160020000Y-71120000D03*
X153670000Y-74930000D03*
X158318200Y-88544400D03*
X163830000Y-90170000D03*
X166370000Y-72390000D03*
X167640000Y-88900000D03*
X167640000Y-76200000D03*
X168910000Y-69850000D03*
X165100000Y-76200000D03*
X167517711Y-86415900D03*
X157480000Y-91440000D03*
X147320000Y-91440000D03*
X168910000Y-90170000D03*
X164737711Y-78135900D03*
X166617711Y-87975900D03*
X169360517Y-79445900D03*
X158750000Y-72390000D03*
X164747711Y-87015900D03*
X160020000Y-76200000D03*
X168910000Y-77470000D03*
X146050000Y-88900000D03*
X151130000Y-74930000D03*
X166687711Y-87005900D03*
X161540000Y-84510000D03*
X154940000Y-76200000D03*
X168447711Y-86455900D03*
X167640000Y-68580000D03*
X169557711Y-86295900D03*
X162560000Y-73660000D03*
X158900000Y-78660000D03*
X166677711Y-86100700D03*
X161610000Y-79860000D03*
X157480000Y-73660000D03*
X154940000Y-91440000D03*
X162560000Y-76200000D03*
X163430000Y-85800000D03*
X162560000Y-86360000D03*
X165753711Y-77118700D03*
X146050000Y-68580000D03*
X156210000Y-69850000D03*
X156210000Y-90170000D03*
%TO.N,Net-(J7-Pin_1)*%
X160300000Y-79040000D03*
%TO.N,/AVDD*%
X158750000Y-83921600D03*
X152552400Y-79146400D03*
X156819600Y-85191600D03*
X158648400Y-79959200D03*
X160432866Y-81678930D03*
%TO.N,Net-(IC1-SO_(GDO1))*%
X154090000Y-78910000D03*
%TO.N,Net-(IC1-SI)*%
X155549600Y-78536800D03*
%TO.N,Net-(J8-Pin_1)*%
X160462717Y-82478375D03*
%TD*%
%TA.AperFunction,Conductor*%
%TO.N,/AVDD*%
G36*
X149653345Y-67332830D02*
G01*
X150073025Y-67535433D01*
X150150314Y-67572744D01*
X150202125Y-67619615D01*
X150220374Y-67687059D01*
X150199262Y-67753663D01*
X150145493Y-67798280D01*
X150076138Y-67806744D01*
X150072211Y-67806028D01*
X149938846Y-67779500D01*
X149938842Y-67779500D01*
X149781158Y-67779500D01*
X149781155Y-67779500D01*
X149626510Y-67810261D01*
X149626498Y-67810264D01*
X149480827Y-67870602D01*
X149480814Y-67870609D01*
X149349711Y-67958210D01*
X149349707Y-67958213D01*
X149238213Y-68069707D01*
X149238210Y-68069711D01*
X149150609Y-68200814D01*
X149150602Y-68200827D01*
X149090264Y-68346498D01*
X149090261Y-68346510D01*
X149059500Y-68501153D01*
X149059500Y-68658846D01*
X149090261Y-68813489D01*
X149090264Y-68813501D01*
X149150602Y-68959172D01*
X149150609Y-68959185D01*
X149238210Y-69090288D01*
X149238213Y-69090292D01*
X149349707Y-69201786D01*
X149349711Y-69201789D01*
X149480814Y-69289390D01*
X149480827Y-69289397D01*
X149602298Y-69339711D01*
X149626503Y-69349737D01*
X149781153Y-69380499D01*
X149781156Y-69380500D01*
X149781158Y-69380500D01*
X149938844Y-69380500D01*
X149938845Y-69380499D01*
X150093497Y-69349737D01*
X150239179Y-69289394D01*
X150370289Y-69201789D01*
X150481789Y-69090289D01*
X150569394Y-68959179D01*
X150629737Y-68813497D01*
X150660500Y-68658842D01*
X150660500Y-68501158D01*
X150660500Y-68501155D01*
X150660499Y-68501153D01*
X150646528Y-68430916D01*
X150629737Y-68346503D01*
X150613718Y-68307830D01*
X150569397Y-68200827D01*
X150569390Y-68200814D01*
X150481789Y-68069711D01*
X150481786Y-68069707D01*
X150370292Y-67958213D01*
X150342141Y-67939403D01*
X150297337Y-67885790D01*
X150288630Y-67816465D01*
X150318785Y-67753438D01*
X150378228Y-67716719D01*
X150448087Y-67717967D01*
X150464935Y-67724630D01*
X151554593Y-68250670D01*
X151606406Y-68297541D01*
X151624655Y-68364985D01*
X151622300Y-68386528D01*
X151599500Y-68501153D01*
X151599500Y-68658846D01*
X151630261Y-68813489D01*
X151630264Y-68813501D01*
X151690602Y-68959172D01*
X151690609Y-68959185D01*
X151778210Y-69090288D01*
X151778213Y-69090292D01*
X151889707Y-69201786D01*
X151889711Y-69201789D01*
X152020814Y-69289390D01*
X152020827Y-69289397D01*
X152142298Y-69339711D01*
X152166503Y-69349737D01*
X152321153Y-69380499D01*
X152321156Y-69380500D01*
X152321158Y-69380500D01*
X152478844Y-69380500D01*
X152478845Y-69380499D01*
X152633497Y-69349737D01*
X152779179Y-69289394D01*
X152910289Y-69201789D01*
X153021789Y-69090289D01*
X153028226Y-69080655D01*
X153081834Y-69035849D01*
X153151159Y-69027139D01*
X153185237Y-69037874D01*
X155419964Y-70116704D01*
X155436543Y-70131702D01*
X155455897Y-70142906D01*
X155465851Y-70158215D01*
X155471778Y-70163576D01*
X155476336Y-70171680D01*
X155478669Y-70176219D01*
X155500606Y-70229179D01*
X155523535Y-70263494D01*
X155526780Y-70269807D01*
X155532072Y-70297438D01*
X155540479Y-70324286D01*
X155538556Y-70331292D01*
X155539924Y-70338429D01*
X155529435Y-70364539D01*
X155521994Y-70391666D01*
X155516589Y-70396520D01*
X155513881Y-70403264D01*
X155490945Y-70419556D01*
X155470016Y-70438356D01*
X155462842Y-70439518D01*
X155456919Y-70443726D01*
X155428815Y-70445032D01*
X155401046Y-70449532D01*
X155393395Y-70446678D01*
X155387125Y-70446970D01*
X155374352Y-70439576D01*
X155347608Y-70429601D01*
X155319185Y-70410609D01*
X155319172Y-70410602D01*
X155173501Y-70350264D01*
X155173489Y-70350261D01*
X155018845Y-70319500D01*
X155018842Y-70319500D01*
X154861158Y-70319500D01*
X154861155Y-70319500D01*
X154706510Y-70350261D01*
X154706498Y-70350264D01*
X154560827Y-70410602D01*
X154560814Y-70410609D01*
X154429711Y-70498210D01*
X154429707Y-70498213D01*
X154318213Y-70609707D01*
X154318210Y-70609711D01*
X154230609Y-70740814D01*
X154230602Y-70740827D01*
X154170264Y-70886498D01*
X154170261Y-70886510D01*
X154139500Y-71041153D01*
X154139500Y-71198846D01*
X154170261Y-71353489D01*
X154170264Y-71353501D01*
X154230602Y-71499172D01*
X154230609Y-71499185D01*
X154318210Y-71630288D01*
X154318213Y-71630292D01*
X154429707Y-71741786D01*
X154429711Y-71741789D01*
X154560814Y-71829390D01*
X154560827Y-71829397D01*
X154682298Y-71879711D01*
X154706503Y-71889737D01*
X154861153Y-71920499D01*
X154861156Y-71920500D01*
X154861158Y-71920500D01*
X155018844Y-71920500D01*
X155018845Y-71920499D01*
X155173497Y-71889737D01*
X155319179Y-71829394D01*
X155347607Y-71810398D01*
X155414283Y-71789520D01*
X155481664Y-71808003D01*
X155528355Y-71859981D01*
X155539533Y-71928951D01*
X155519602Y-71982389D01*
X155500611Y-72010811D01*
X155500602Y-72010827D01*
X155440264Y-72156498D01*
X155440261Y-72156510D01*
X155409500Y-72311153D01*
X155409500Y-72468846D01*
X155440261Y-72623489D01*
X155440264Y-72623501D01*
X155500602Y-72769172D01*
X155500609Y-72769185D01*
X155519601Y-72797608D01*
X155540479Y-72864286D01*
X155521994Y-72931666D01*
X155470016Y-72978356D01*
X155401046Y-72989532D01*
X155347608Y-72969601D01*
X155319185Y-72950609D01*
X155319172Y-72950602D01*
X155173501Y-72890264D01*
X155173489Y-72890261D01*
X155018845Y-72859500D01*
X155018842Y-72859500D01*
X154861158Y-72859500D01*
X154861155Y-72859500D01*
X154706510Y-72890261D01*
X154706498Y-72890264D01*
X154560827Y-72950602D01*
X154560814Y-72950609D01*
X154429711Y-73038210D01*
X154429707Y-73038213D01*
X154318213Y-73149707D01*
X154318210Y-73149711D01*
X154230609Y-73280814D01*
X154230602Y-73280827D01*
X154170264Y-73426498D01*
X154170261Y-73426510D01*
X154139500Y-73581153D01*
X154139500Y-73738846D01*
X154170261Y-73893489D01*
X154170264Y-73893501D01*
X154230602Y-74039172D01*
X154230609Y-74039185D01*
X154249601Y-74067608D01*
X154270479Y-74134286D01*
X154251994Y-74201666D01*
X154200016Y-74248356D01*
X154131046Y-74259532D01*
X154077608Y-74239601D01*
X154049185Y-74220609D01*
X154049172Y-74220602D01*
X153903501Y-74160264D01*
X153903489Y-74160261D01*
X153748845Y-74129500D01*
X153748842Y-74129500D01*
X153591158Y-74129500D01*
X153591155Y-74129500D01*
X153436510Y-74160261D01*
X153436498Y-74160264D01*
X153290827Y-74220602D01*
X153290811Y-74220611D01*
X153262389Y-74239602D01*
X153195712Y-74260479D01*
X153128332Y-74241994D01*
X153081642Y-74190014D01*
X153070467Y-74121044D01*
X153090398Y-74067608D01*
X153109394Y-74039179D01*
X153169737Y-73893497D01*
X153200500Y-73738842D01*
X153200500Y-73581158D01*
X153200500Y-73581155D01*
X153200499Y-73581153D01*
X153179077Y-73473459D01*
X153169737Y-73426503D01*
X153169735Y-73426498D01*
X153109397Y-73280827D01*
X153109390Y-73280814D01*
X153021789Y-73149711D01*
X153021786Y-73149707D01*
X152910292Y-73038213D01*
X152910288Y-73038210D01*
X152826797Y-72982423D01*
X152781992Y-72928811D01*
X152773285Y-72859486D01*
X152803439Y-72796458D01*
X152857369Y-72761391D01*
X152918412Y-72741557D01*
X153107816Y-72645051D01*
X153137494Y-72623489D01*
X153279786Y-72520109D01*
X153279788Y-72520106D01*
X153279792Y-72520104D01*
X153430104Y-72369792D01*
X153430106Y-72369788D01*
X153430109Y-72369786D01*
X153555048Y-72197820D01*
X153555047Y-72197820D01*
X153555051Y-72197816D01*
X153651557Y-72008412D01*
X153717246Y-71806243D01*
X153750500Y-71596287D01*
X153750500Y-71383713D01*
X153717246Y-71173757D01*
X153651557Y-70971588D01*
X153555051Y-70782184D01*
X153555049Y-70782181D01*
X153555048Y-70782179D01*
X153430109Y-70610213D01*
X153279786Y-70459890D01*
X153107820Y-70334951D01*
X152918414Y-70238444D01*
X152918413Y-70238443D01*
X152918412Y-70238443D01*
X152716243Y-70172754D01*
X152716241Y-70172753D01*
X152716240Y-70172753D01*
X152527791Y-70142906D01*
X152506287Y-70139500D01*
X152293713Y-70139500D01*
X152272209Y-70142906D01*
X152083760Y-70172753D01*
X151881585Y-70238444D01*
X151692179Y-70334951D01*
X151520213Y-70459890D01*
X151369890Y-70610213D01*
X151244951Y-70782179D01*
X151148444Y-70971585D01*
X151082753Y-71173760D01*
X151078780Y-71198846D01*
X151049500Y-71383713D01*
X151049500Y-71596287D01*
X151053298Y-71620264D01*
X151072344Y-71740521D01*
X151082754Y-71806243D01*
X151139988Y-71982391D01*
X151148444Y-72008414D01*
X151244951Y-72197820D01*
X151369890Y-72369786D01*
X151520213Y-72520109D01*
X151692179Y-72645048D01*
X151692181Y-72645049D01*
X151692184Y-72645051D01*
X151881588Y-72741557D01*
X151942630Y-72761390D01*
X152000304Y-72800827D01*
X152027503Y-72865186D01*
X152015588Y-72934032D01*
X151973202Y-72982423D01*
X151889711Y-73038210D01*
X151889707Y-73038213D01*
X151778213Y-73149707D01*
X151778210Y-73149711D01*
X151690609Y-73280814D01*
X151690602Y-73280827D01*
X151630264Y-73426498D01*
X151630261Y-73426510D01*
X151599500Y-73581153D01*
X151599500Y-73738846D01*
X151630261Y-73893489D01*
X151630264Y-73893501D01*
X151690602Y-74039172D01*
X151690609Y-74039185D01*
X151709601Y-74067608D01*
X151730479Y-74134286D01*
X151711994Y-74201666D01*
X151660016Y-74248356D01*
X151591046Y-74259532D01*
X151537608Y-74239601D01*
X151509185Y-74220609D01*
X151509172Y-74220602D01*
X151363501Y-74160264D01*
X151363489Y-74160261D01*
X151208845Y-74129500D01*
X151208842Y-74129500D01*
X151051158Y-74129500D01*
X151051155Y-74129500D01*
X150896510Y-74160261D01*
X150896498Y-74160264D01*
X150750827Y-74220602D01*
X150750814Y-74220609D01*
X150619711Y-74308210D01*
X150619707Y-74308213D01*
X150508213Y-74419707D01*
X150508210Y-74419711D01*
X150420609Y-74550814D01*
X150420602Y-74550827D01*
X150360264Y-74696498D01*
X150360261Y-74696510D01*
X150329500Y-74851153D01*
X150329500Y-75008846D01*
X150360261Y-75163489D01*
X150360264Y-75163501D01*
X150420602Y-75309172D01*
X150420609Y-75309185D01*
X150508210Y-75440288D01*
X150508213Y-75440292D01*
X150619707Y-75551786D01*
X150619711Y-75551789D01*
X150750814Y-75639390D01*
X150750827Y-75639397D01*
X150883751Y-75694455D01*
X150896503Y-75699737D01*
X151051153Y-75730499D01*
X151051156Y-75730500D01*
X151051158Y-75730500D01*
X151208844Y-75730500D01*
X151208845Y-75730499D01*
X151363497Y-75699737D01*
X151509179Y-75639394D01*
X151640289Y-75551789D01*
X151751789Y-75440289D01*
X151839394Y-75309179D01*
X151899737Y-75163497D01*
X151930500Y-75008842D01*
X151930500Y-74851158D01*
X151930500Y-74851155D01*
X151930499Y-74851153D01*
X151903285Y-74714341D01*
X151899737Y-74696503D01*
X151899735Y-74696498D01*
X151839397Y-74550827D01*
X151839395Y-74550823D01*
X151839394Y-74550821D01*
X151820398Y-74522391D01*
X151799520Y-74455714D01*
X151818004Y-74388334D01*
X151869983Y-74341643D01*
X151938953Y-74330467D01*
X151992391Y-74350398D01*
X152020815Y-74369390D01*
X152020821Y-74369394D01*
X152020823Y-74369395D01*
X152020827Y-74369397D01*
X152142288Y-74419707D01*
X152166503Y-74429737D01*
X152321153Y-74460499D01*
X152321156Y-74460500D01*
X152321158Y-74460500D01*
X152478844Y-74460500D01*
X152478845Y-74460499D01*
X152633497Y-74429737D01*
X152779179Y-74369394D01*
X152807607Y-74350398D01*
X152874283Y-74329520D01*
X152941664Y-74348003D01*
X152988355Y-74399981D01*
X152999533Y-74468951D01*
X152979602Y-74522389D01*
X152960611Y-74550811D01*
X152960602Y-74550827D01*
X152900264Y-74696498D01*
X152900261Y-74696510D01*
X152869500Y-74851153D01*
X152869500Y-75008846D01*
X152900261Y-75163489D01*
X152900264Y-75163501D01*
X152960602Y-75309172D01*
X152960609Y-75309185D01*
X153048210Y-75440288D01*
X153048213Y-75440292D01*
X153159707Y-75551786D01*
X153159711Y-75551789D01*
X153290814Y-75639390D01*
X153290827Y-75639397D01*
X153423751Y-75694455D01*
X153436503Y-75699737D01*
X153591153Y-75730499D01*
X153591156Y-75730500D01*
X153591158Y-75730500D01*
X153748844Y-75730500D01*
X153748845Y-75730499D01*
X153903497Y-75699737D01*
X154049179Y-75639394D01*
X154077607Y-75620398D01*
X154144283Y-75599520D01*
X154211664Y-75618003D01*
X154258355Y-75669981D01*
X154269533Y-75738951D01*
X154249602Y-75792389D01*
X154230611Y-75820811D01*
X154230602Y-75820827D01*
X154170264Y-75966498D01*
X154170261Y-75966510D01*
X154139500Y-76121153D01*
X154139500Y-76278846D01*
X154170261Y-76433489D01*
X154170264Y-76433501D01*
X154230602Y-76579172D01*
X154230609Y-76579185D01*
X154318210Y-76710288D01*
X154318213Y-76710292D01*
X154429707Y-76821786D01*
X154429711Y-76821789D01*
X154560814Y-76909390D01*
X154560827Y-76909397D01*
X154669145Y-76954263D01*
X154706503Y-76969737D01*
X154827199Y-76993745D01*
X154861153Y-77000499D01*
X154861156Y-77000500D01*
X154861158Y-77000500D01*
X155018844Y-77000500D01*
X155018845Y-77000499D01*
X155173497Y-76969737D01*
X155305618Y-76915011D01*
X155319172Y-76909397D01*
X155319172Y-76909396D01*
X155319179Y-76909394D01*
X155450289Y-76821789D01*
X155561789Y-76710289D01*
X155649394Y-76579179D01*
X155709737Y-76433497D01*
X155740500Y-76278842D01*
X155740500Y-76121158D01*
X155740500Y-76121155D01*
X155740499Y-76121153D01*
X155709738Y-75966510D01*
X155709737Y-75966503D01*
X155709735Y-75966498D01*
X155649397Y-75820827D01*
X155649395Y-75820823D01*
X155649394Y-75820821D01*
X155645655Y-75815225D01*
X155630398Y-75792391D01*
X155609520Y-75725714D01*
X155628004Y-75658334D01*
X155679983Y-75611643D01*
X155748953Y-75600467D01*
X155802391Y-75620398D01*
X155821093Y-75632894D01*
X155830821Y-75639394D01*
X155830823Y-75639395D01*
X155830827Y-75639397D01*
X155963751Y-75694455D01*
X155976503Y-75699737D01*
X156131153Y-75730499D01*
X156131156Y-75730500D01*
X156131158Y-75730500D01*
X156288844Y-75730500D01*
X156288845Y-75730499D01*
X156443497Y-75699737D01*
X156589179Y-75639394D01*
X156617607Y-75620398D01*
X156684283Y-75599520D01*
X156751664Y-75618003D01*
X156798355Y-75669981D01*
X156809533Y-75738951D01*
X156789602Y-75792389D01*
X156770611Y-75820811D01*
X156770602Y-75820827D01*
X156710264Y-75966498D01*
X156710261Y-75966510D01*
X156679500Y-76121153D01*
X156679500Y-76278846D01*
X156710261Y-76433489D01*
X156710264Y-76433501D01*
X156770602Y-76579172D01*
X156770609Y-76579185D01*
X156858210Y-76710288D01*
X156858213Y-76710292D01*
X156969707Y-76821786D01*
X156969711Y-76821789D01*
X157100814Y-76909390D01*
X157100827Y-76909397D01*
X157246502Y-76969737D01*
X157249617Y-76970682D01*
X157251047Y-76971619D01*
X157252130Y-76972068D01*
X157252044Y-76972273D01*
X157308054Y-77008982D01*
X157336508Y-77072795D01*
X157325945Y-77141862D01*
X157301299Y-77177021D01*
X157264614Y-77213706D01*
X157264610Y-77213711D01*
X157177009Y-77344814D01*
X157177002Y-77344827D01*
X157116664Y-77490498D01*
X157116661Y-77490510D01*
X157085900Y-77645153D01*
X157085900Y-77802846D01*
X157116661Y-77957489D01*
X157116664Y-77957501D01*
X157177002Y-78103172D01*
X157177009Y-78103185D01*
X157264610Y-78234288D01*
X157264613Y-78234292D01*
X157376107Y-78345786D01*
X157376111Y-78345789D01*
X157507214Y-78433390D01*
X157507227Y-78433397D01*
X157625004Y-78482181D01*
X157652903Y-78493737D01*
X157807553Y-78524499D01*
X157807556Y-78524500D01*
X157971334Y-78524500D01*
X157971334Y-78526205D01*
X158031974Y-78537696D01*
X158082692Y-78585752D01*
X158099500Y-78648089D01*
X158099500Y-78738846D01*
X158130261Y-78893489D01*
X158130264Y-78893501D01*
X158190602Y-79039172D01*
X158190609Y-79039185D01*
X158278210Y-79170288D01*
X158278213Y-79170292D01*
X158389707Y-79281786D01*
X158389711Y-79281789D01*
X158520814Y-79369390D01*
X158520827Y-79369397D01*
X158666498Y-79429735D01*
X158666503Y-79429737D01*
X158821153Y-79460499D01*
X158821156Y-79460500D01*
X158821158Y-79460500D01*
X158978844Y-79460500D01*
X158978845Y-79460499D01*
X159133497Y-79429737D01*
X159279179Y-79369394D01*
X159381315Y-79301149D01*
X159447992Y-79280271D01*
X159515372Y-79298755D01*
X159562063Y-79350734D01*
X159564767Y-79356799D01*
X159590602Y-79419172D01*
X159590609Y-79419185D01*
X159678210Y-79550288D01*
X159678213Y-79550292D01*
X159789707Y-79661786D01*
X159789711Y-79661789D01*
X159920814Y-79749390D01*
X159920827Y-79749397D01*
X160029717Y-79794500D01*
X160066503Y-79809737D01*
X160221153Y-79840499D01*
X160221156Y-79840500D01*
X160221158Y-79840500D01*
X160378844Y-79840500D01*
X160378845Y-79840499D01*
X160533497Y-79809737D01*
X160638047Y-79766430D01*
X160707517Y-79758962D01*
X160769996Y-79790237D01*
X160805648Y-79850326D01*
X160809500Y-79880992D01*
X160809500Y-79938846D01*
X160840261Y-80093489D01*
X160840264Y-80093501D01*
X160900602Y-80239172D01*
X160900609Y-80239185D01*
X160988210Y-80370288D01*
X160992076Y-80374999D01*
X160990251Y-80376496D01*
X161018725Y-80428642D01*
X161013741Y-80498334D01*
X160990831Y-80533980D01*
X160992076Y-80535001D01*
X160988210Y-80539711D01*
X160900609Y-80670814D01*
X160900602Y-80670827D01*
X160840264Y-80816498D01*
X160840261Y-80816510D01*
X160809500Y-80971153D01*
X160809500Y-81128846D01*
X160840261Y-81283489D01*
X160840264Y-81283501D01*
X160900602Y-81429172D01*
X160900609Y-81429185D01*
X160988210Y-81560288D01*
X160988213Y-81560292D01*
X161021523Y-81593602D01*
X161055008Y-81654925D01*
X161050024Y-81724617D01*
X161008152Y-81780550D01*
X160942688Y-81804967D01*
X160874415Y-81790115D01*
X160864952Y-81784386D01*
X160841900Y-81768983D01*
X160841889Y-81768977D01*
X160696218Y-81708639D01*
X160696206Y-81708636D01*
X160541562Y-81677875D01*
X160541559Y-81677875D01*
X160383875Y-81677875D01*
X160383872Y-81677875D01*
X160229227Y-81708636D01*
X160229215Y-81708639D01*
X160083544Y-81768977D01*
X160083531Y-81768984D01*
X159952428Y-81856585D01*
X159952424Y-81856588D01*
X159840930Y-81968082D01*
X159840927Y-81968086D01*
X159753326Y-82099189D01*
X159753319Y-82099202D01*
X159692981Y-82244873D01*
X159692978Y-82244885D01*
X159662217Y-82399528D01*
X159662217Y-82557221D01*
X159692978Y-82711864D01*
X159692981Y-82711876D01*
X159753319Y-82857547D01*
X159753326Y-82857560D01*
X159840927Y-82988663D01*
X159840930Y-82988667D01*
X159952424Y-83100161D01*
X159952428Y-83100164D01*
X160083531Y-83187765D01*
X160083544Y-83187772D01*
X160229215Y-83248110D01*
X160229220Y-83248112D01*
X160383870Y-83278874D01*
X160383873Y-83278875D01*
X160383875Y-83278875D01*
X160541560Y-83278875D01*
X160562356Y-83274738D01*
X160641309Y-83259033D01*
X160710899Y-83265260D01*
X160766077Y-83308122D01*
X160789322Y-83374012D01*
X160789500Y-83380650D01*
X160789500Y-83438846D01*
X160820261Y-83593489D01*
X160820264Y-83593501D01*
X160880602Y-83739172D01*
X160880609Y-83739184D01*
X160943485Y-83833284D01*
X160964363Y-83899961D01*
X160945879Y-83967341D01*
X160928067Y-83989853D01*
X160918215Y-83999705D01*
X160918210Y-83999711D01*
X160830609Y-84130814D01*
X160830602Y-84130827D01*
X160770264Y-84276498D01*
X160770261Y-84276510D01*
X160739500Y-84431153D01*
X160739500Y-84500163D01*
X160719815Y-84567202D01*
X160667011Y-84612957D01*
X160639692Y-84621780D01*
X160496508Y-84650261D01*
X160496498Y-84650264D01*
X160350827Y-84710602D01*
X160350814Y-84710609D01*
X160219711Y-84798210D01*
X160219707Y-84798213D01*
X160108213Y-84909707D01*
X160108210Y-84909711D01*
X160020609Y-85040814D01*
X160020602Y-85040827D01*
X159960264Y-85186498D01*
X159960261Y-85186510D01*
X159929500Y-85341153D01*
X159929500Y-85498846D01*
X159960261Y-85653489D01*
X159960264Y-85653501D01*
X160020602Y-85799172D01*
X160020609Y-85799185D01*
X160108210Y-85930288D01*
X160108213Y-85930292D01*
X160219707Y-86041786D01*
X160219711Y-86041789D01*
X160350814Y-86129390D01*
X160350827Y-86129397D01*
X160496498Y-86189735D01*
X160496503Y-86189737D01*
X160633829Y-86217053D01*
X160651153Y-86220499D01*
X160651156Y-86220500D01*
X160651158Y-86220500D01*
X160808844Y-86220500D01*
X160808845Y-86220499D01*
X160963497Y-86189737D01*
X161076166Y-86143067D01*
X161109172Y-86129397D01*
X161109172Y-86129396D01*
X161109179Y-86129394D01*
X161240289Y-86041789D01*
X161351789Y-85930289D01*
X161439394Y-85799179D01*
X161499737Y-85653497D01*
X161514377Y-85579893D01*
X161546761Y-85517986D01*
X161607477Y-85483412D01*
X161677246Y-85487151D01*
X161733919Y-85528017D01*
X161757611Y-85579896D01*
X161770261Y-85643491D01*
X161770264Y-85643501D01*
X161830602Y-85789171D01*
X161830608Y-85789182D01*
X161858600Y-85831075D01*
X161879477Y-85897752D01*
X161860992Y-85965132D01*
X161858604Y-85968848D01*
X161850612Y-85980809D01*
X161850602Y-85980828D01*
X161790264Y-86126498D01*
X161790261Y-86126510D01*
X161759500Y-86281153D01*
X161759500Y-86438846D01*
X161790261Y-86593489D01*
X161790264Y-86593501D01*
X161850602Y-86739172D01*
X161850609Y-86739185D01*
X161869601Y-86767608D01*
X161890479Y-86834286D01*
X161871994Y-86901666D01*
X161820016Y-86948356D01*
X161751046Y-86959532D01*
X161697608Y-86939601D01*
X161669185Y-86920609D01*
X161669172Y-86920602D01*
X161523501Y-86860264D01*
X161523489Y-86860261D01*
X161368845Y-86829500D01*
X161368842Y-86829500D01*
X161211158Y-86829500D01*
X161211155Y-86829500D01*
X161056510Y-86860261D01*
X161056498Y-86860264D01*
X160910827Y-86920602D01*
X160910814Y-86920609D01*
X160779711Y-87008210D01*
X160779707Y-87008213D01*
X160668213Y-87119707D01*
X160668210Y-87119711D01*
X160580609Y-87250814D01*
X160580602Y-87250827D01*
X160520264Y-87396498D01*
X160520261Y-87396510D01*
X160489500Y-87551153D01*
X160489500Y-87708846D01*
X160520261Y-87863489D01*
X160520264Y-87863501D01*
X160580602Y-88009172D01*
X160580609Y-88009185D01*
X160668210Y-88140288D01*
X160668213Y-88140292D01*
X160779707Y-88251786D01*
X160779711Y-88251789D01*
X160910814Y-88339390D01*
X160910827Y-88339397D01*
X161055421Y-88399289D01*
X161056503Y-88399737D01*
X161211153Y-88430499D01*
X161211156Y-88430500D01*
X161211158Y-88430500D01*
X161368844Y-88430500D01*
X161368845Y-88430499D01*
X161523497Y-88399737D01*
X161669179Y-88339394D01*
X161697607Y-88320398D01*
X161764283Y-88299520D01*
X161831664Y-88318003D01*
X161878355Y-88369981D01*
X161889533Y-88438951D01*
X161869602Y-88492389D01*
X161850611Y-88520811D01*
X161850602Y-88520827D01*
X161790264Y-88666498D01*
X161790261Y-88666510D01*
X161759500Y-88821153D01*
X161759500Y-88978846D01*
X161790261Y-89133489D01*
X161790264Y-89133501D01*
X161850602Y-89279172D01*
X161850609Y-89279185D01*
X161869601Y-89307608D01*
X161890479Y-89374286D01*
X161871994Y-89441666D01*
X161820016Y-89488356D01*
X161751046Y-89499532D01*
X161697608Y-89479601D01*
X161669185Y-89460609D01*
X161669172Y-89460602D01*
X161523501Y-89400264D01*
X161523489Y-89400261D01*
X161368845Y-89369500D01*
X161368842Y-89369500D01*
X161211158Y-89369500D01*
X161211155Y-89369500D01*
X161056510Y-89400261D01*
X161056498Y-89400264D01*
X160910827Y-89460602D01*
X160910814Y-89460609D01*
X160779711Y-89548210D01*
X160779707Y-89548213D01*
X160668213Y-89659707D01*
X160668210Y-89659711D01*
X160580609Y-89790814D01*
X160580602Y-89790827D01*
X160520264Y-89936498D01*
X160520261Y-89936510D01*
X160489500Y-90091153D01*
X160489500Y-90248846D01*
X160520261Y-90403489D01*
X160520263Y-90403496D01*
X160533526Y-90435517D01*
X160540994Y-90504986D01*
X160509718Y-90567465D01*
X160459220Y-90600252D01*
X159432228Y-90952752D01*
X159362429Y-90955897D01*
X159302010Y-90920807D01*
X159270153Y-90858623D01*
X159276973Y-90789087D01*
X159304289Y-90747788D01*
X159371789Y-90680289D01*
X159459394Y-90549179D01*
X159519737Y-90403497D01*
X159550500Y-90248842D01*
X159550500Y-90091158D01*
X159550500Y-90091155D01*
X159550499Y-90091153D01*
X159545976Y-90068414D01*
X159519737Y-89936503D01*
X159507043Y-89905857D01*
X159459397Y-89790827D01*
X159459390Y-89790814D01*
X159371789Y-89659711D01*
X159371786Y-89659707D01*
X159260292Y-89548213D01*
X159260288Y-89548210D01*
X159129185Y-89460609D01*
X159129172Y-89460602D01*
X158983501Y-89400264D01*
X158983489Y-89400261D01*
X158886292Y-89380927D01*
X158824381Y-89348542D01*
X158789806Y-89287826D01*
X158793546Y-89218057D01*
X158825774Y-89172089D01*
X158824182Y-89170497D01*
X158939986Y-89054692D01*
X158939989Y-89054689D01*
X159027594Y-88923579D01*
X159087937Y-88777897D01*
X159118700Y-88623242D01*
X159118700Y-88465558D01*
X159118700Y-88465555D01*
X159118699Y-88465553D01*
X159115283Y-88448379D01*
X159087937Y-88310903D01*
X159075306Y-88280408D01*
X159027597Y-88165227D01*
X159027590Y-88165214D01*
X158939989Y-88034111D01*
X158939986Y-88034107D01*
X158828492Y-87922613D01*
X158828488Y-87922610D01*
X158697385Y-87835009D01*
X158697372Y-87835002D01*
X158551701Y-87774664D01*
X158551689Y-87774661D01*
X158397045Y-87743900D01*
X158397042Y-87743900D01*
X158239358Y-87743900D01*
X158239355Y-87743900D01*
X158084710Y-87774661D01*
X158084698Y-87774664D01*
X157939027Y-87835002D01*
X157939014Y-87835009D01*
X157807911Y-87922610D01*
X157807907Y-87922613D01*
X157696413Y-88034107D01*
X157696410Y-88034111D01*
X157608809Y-88165214D01*
X157608802Y-88165227D01*
X157548464Y-88310898D01*
X157548461Y-88310910D01*
X157517700Y-88465553D01*
X157517700Y-88623246D01*
X157548461Y-88777889D01*
X157548464Y-88777901D01*
X157608802Y-88923572D01*
X157608809Y-88923585D01*
X157696410Y-89054688D01*
X157696413Y-89054692D01*
X157807907Y-89166186D01*
X157807911Y-89166189D01*
X157939014Y-89253790D01*
X157939027Y-89253797D01*
X158021182Y-89287826D01*
X158084703Y-89314137D01*
X158181910Y-89333472D01*
X158243818Y-89365856D01*
X158278392Y-89426572D01*
X158274653Y-89496341D01*
X158242440Y-89542325D01*
X158244018Y-89543903D01*
X158128213Y-89659707D01*
X158128210Y-89659711D01*
X158040609Y-89790814D01*
X158040602Y-89790827D01*
X157980264Y-89936498D01*
X157980261Y-89936510D01*
X157949500Y-90091153D01*
X157949500Y-90248846D01*
X157980261Y-90403489D01*
X157980264Y-90403501D01*
X158040602Y-90549172D01*
X158040609Y-90549185D01*
X158059601Y-90577608D01*
X158080479Y-90644286D01*
X158061994Y-90711666D01*
X158010016Y-90758356D01*
X157941046Y-90769532D01*
X157887608Y-90749601D01*
X157859185Y-90730609D01*
X157859172Y-90730602D01*
X157713501Y-90670264D01*
X157713489Y-90670261D01*
X157558845Y-90639500D01*
X157558842Y-90639500D01*
X157401158Y-90639500D01*
X157401155Y-90639500D01*
X157246510Y-90670261D01*
X157246498Y-90670264D01*
X157100827Y-90730602D01*
X157100811Y-90730611D01*
X157072389Y-90749602D01*
X157005712Y-90770479D01*
X156938332Y-90751994D01*
X156891642Y-90700014D01*
X156880467Y-90631044D01*
X156900398Y-90577608D01*
X156919394Y-90549179D01*
X156979737Y-90403497D01*
X157010500Y-90248842D01*
X157010500Y-90091158D01*
X157010500Y-90091155D01*
X157010499Y-90091153D01*
X157005976Y-90068414D01*
X156979737Y-89936503D01*
X156967043Y-89905857D01*
X156919397Y-89790827D01*
X156919390Y-89790814D01*
X156831789Y-89659711D01*
X156831786Y-89659707D01*
X156720292Y-89548213D01*
X156720288Y-89548210D01*
X156589185Y-89460609D01*
X156589172Y-89460602D01*
X156443501Y-89400264D01*
X156443489Y-89400261D01*
X156288845Y-89369500D01*
X156288842Y-89369500D01*
X156131158Y-89369500D01*
X156026124Y-89390392D01*
X155956533Y-89384164D01*
X155901356Y-89341300D01*
X155878112Y-89275410D01*
X155894180Y-89207413D01*
X155898826Y-89199892D01*
X155939394Y-89139179D01*
X155999737Y-88993497D01*
X156030500Y-88838842D01*
X156030500Y-88681158D01*
X156030500Y-88681155D01*
X156030499Y-88681153D01*
X156019864Y-88627686D01*
X155999737Y-88526503D01*
X155997386Y-88520827D01*
X155939397Y-88380827D01*
X155939390Y-88380814D01*
X155851789Y-88249711D01*
X155851786Y-88249707D01*
X155740292Y-88138213D01*
X155740288Y-88138210D01*
X155609185Y-88050609D01*
X155609172Y-88050602D01*
X155463501Y-87990264D01*
X155463489Y-87990261D01*
X155308845Y-87959500D01*
X155308842Y-87959500D01*
X155151158Y-87959500D01*
X155151155Y-87959500D01*
X154996510Y-87990261D01*
X154996498Y-87990264D01*
X154850827Y-88050602D01*
X154850814Y-88050609D01*
X154719711Y-88138210D01*
X154719707Y-88138213D01*
X154608213Y-88249707D01*
X154608210Y-88249711D01*
X154520609Y-88380814D01*
X154520602Y-88380827D01*
X154460264Y-88526498D01*
X154460261Y-88526510D01*
X154429500Y-88681153D01*
X154429500Y-88838846D01*
X154460261Y-88993489D01*
X154460264Y-88993501D01*
X154520602Y-89139172D01*
X154520609Y-89139185D01*
X154608210Y-89270288D01*
X154608213Y-89270292D01*
X154719707Y-89381786D01*
X154719711Y-89381789D01*
X154850814Y-89469390D01*
X154850827Y-89469397D01*
X154986416Y-89525559D01*
X154996503Y-89529737D01*
X155151153Y-89560499D01*
X155151156Y-89560500D01*
X155151158Y-89560500D01*
X155308844Y-89560500D01*
X155413873Y-89539608D01*
X155483465Y-89545835D01*
X155538642Y-89588698D01*
X155561887Y-89654587D01*
X155545819Y-89722584D01*
X155541167Y-89730116D01*
X155500609Y-89790814D01*
X155500602Y-89790827D01*
X155440264Y-89936498D01*
X155440261Y-89936510D01*
X155409500Y-90091153D01*
X155409500Y-90248846D01*
X155440261Y-90403489D01*
X155440264Y-90403501D01*
X155500602Y-90549172D01*
X155500609Y-90549185D01*
X155519601Y-90577608D01*
X155540479Y-90644286D01*
X155521994Y-90711666D01*
X155470016Y-90758356D01*
X155401046Y-90769532D01*
X155347608Y-90749601D01*
X155319185Y-90730609D01*
X155319172Y-90730602D01*
X155173501Y-90670264D01*
X155173489Y-90670261D01*
X155018845Y-90639500D01*
X155018842Y-90639500D01*
X154861158Y-90639500D01*
X154861155Y-90639500D01*
X154706510Y-90670261D01*
X154706498Y-90670264D01*
X154560827Y-90730602D01*
X154560814Y-90730609D01*
X154429711Y-90818210D01*
X154429707Y-90818213D01*
X154318213Y-90929707D01*
X154318210Y-90929711D01*
X154230609Y-91060814D01*
X154230602Y-91060827D01*
X154170264Y-91206498D01*
X154170261Y-91206510D01*
X154139500Y-91361153D01*
X154139500Y-91518846D01*
X154170261Y-91673489D01*
X154170264Y-91673501D01*
X154230602Y-91819172D01*
X154230609Y-91819185D01*
X154318210Y-91950288D01*
X154318213Y-91950292D01*
X154385740Y-92017819D01*
X154419225Y-92079142D01*
X154414241Y-92148834D01*
X154372369Y-92204767D01*
X154306905Y-92229184D01*
X154298059Y-92229500D01*
X153041941Y-92229500D01*
X152974902Y-92209815D01*
X152929147Y-92157011D01*
X152919203Y-92087853D01*
X152948228Y-92024297D01*
X152954260Y-92017819D01*
X153021786Y-91950292D01*
X153021789Y-91950289D01*
X153109394Y-91819179D01*
X153169737Y-91673497D01*
X153200500Y-91518842D01*
X153200500Y-91361158D01*
X153200500Y-91361155D01*
X153200499Y-91361153D01*
X153174380Y-91229846D01*
X153169737Y-91206503D01*
X153162777Y-91189699D01*
X153109397Y-91060827D01*
X153109390Y-91060814D01*
X153021789Y-90929711D01*
X153017924Y-90925001D01*
X153019096Y-90924038D01*
X152989196Y-90869279D01*
X152994180Y-90799587D01*
X153036052Y-90743654D01*
X153054056Y-90732442D01*
X153107816Y-90705051D01*
X153186708Y-90647733D01*
X153279786Y-90580109D01*
X153279788Y-90580106D01*
X153279792Y-90580104D01*
X153430104Y-90429792D01*
X153430106Y-90429788D01*
X153430109Y-90429786D01*
X153555048Y-90257820D01*
X153555047Y-90257820D01*
X153555051Y-90257816D01*
X153651557Y-90068412D01*
X153717246Y-89866243D01*
X153750500Y-89656287D01*
X153750500Y-89443713D01*
X153717246Y-89233757D01*
X153651557Y-89031588D01*
X153555051Y-88842184D01*
X153555049Y-88842181D01*
X153555048Y-88842179D01*
X153430109Y-88670213D01*
X153279786Y-88519890D01*
X153107817Y-88394949D01*
X153034193Y-88357435D01*
X152983398Y-88309461D01*
X152966603Y-88241639D01*
X152989141Y-88175505D01*
X153002810Y-88159268D01*
X153021787Y-88140291D01*
X153021789Y-88140289D01*
X153109394Y-88009179D01*
X153169737Y-87863497D01*
X153200500Y-87708842D01*
X153200500Y-87551158D01*
X153200500Y-87551155D01*
X153200499Y-87551153D01*
X153194801Y-87522506D01*
X153169737Y-87396503D01*
X153168188Y-87392764D01*
X153109397Y-87250827D01*
X153109390Y-87250814D01*
X153021789Y-87119711D01*
X153021786Y-87119707D01*
X152910292Y-87008213D01*
X152910288Y-87008210D01*
X152779185Y-86920609D01*
X152779172Y-86920602D01*
X152633501Y-86860264D01*
X152633489Y-86860261D01*
X152478845Y-86829500D01*
X152478842Y-86829500D01*
X152321158Y-86829500D01*
X152321155Y-86829500D01*
X152166510Y-86860261D01*
X152166498Y-86860264D01*
X152020827Y-86920602D01*
X152020814Y-86920609D01*
X151889711Y-87008210D01*
X151889707Y-87008213D01*
X151778213Y-87119707D01*
X151778210Y-87119711D01*
X151690609Y-87250814D01*
X151690602Y-87250827D01*
X151630264Y-87396498D01*
X151630261Y-87396510D01*
X151599500Y-87551153D01*
X151599500Y-87708846D01*
X151630261Y-87863489D01*
X151630264Y-87863501D01*
X151690602Y-88009172D01*
X151690609Y-88009185D01*
X151778210Y-88140288D01*
X151778213Y-88140292D01*
X151797191Y-88159270D01*
X151830676Y-88220593D01*
X151825692Y-88290285D01*
X151783820Y-88346218D01*
X151765806Y-88357435D01*
X151692182Y-88394949D01*
X151520213Y-88519890D01*
X151369890Y-88670213D01*
X151244951Y-88842179D01*
X151148444Y-89031585D01*
X151082753Y-89233760D01*
X151061831Y-89365856D01*
X151049500Y-89443713D01*
X151049500Y-89656287D01*
X151054256Y-89686315D01*
X151082415Y-89864108D01*
X151082754Y-89866243D01*
X151126855Y-90001972D01*
X151148444Y-90068414D01*
X151244951Y-90257820D01*
X151369890Y-90429786D01*
X151520213Y-90580109D01*
X151692182Y-90705050D01*
X151692184Y-90705051D01*
X151745931Y-90732436D01*
X151796727Y-90780409D01*
X151813523Y-90848230D01*
X151790986Y-90914365D01*
X151782051Y-90924980D01*
X151782076Y-90925001D01*
X151778210Y-90929711D01*
X151690609Y-91060814D01*
X151690602Y-91060827D01*
X151630264Y-91206498D01*
X151630261Y-91206510D01*
X151599500Y-91361153D01*
X151599500Y-91518846D01*
X151630261Y-91673489D01*
X151630264Y-91673501D01*
X151690602Y-91819172D01*
X151690609Y-91819185D01*
X151778210Y-91950288D01*
X151778213Y-91950292D01*
X151845740Y-92017819D01*
X151879225Y-92079142D01*
X151874241Y-92148834D01*
X151832369Y-92204767D01*
X151766905Y-92229184D01*
X151758059Y-92229500D01*
X147961941Y-92229500D01*
X147894902Y-92209815D01*
X147849147Y-92157011D01*
X147839203Y-92087853D01*
X147868228Y-92024297D01*
X147874260Y-92017819D01*
X147941786Y-91950292D01*
X147941789Y-91950289D01*
X148029394Y-91819179D01*
X148089737Y-91673497D01*
X148120500Y-91518842D01*
X148120500Y-91361158D01*
X148120500Y-91361155D01*
X148120499Y-91361153D01*
X148094380Y-91229846D01*
X148089737Y-91206503D01*
X148082777Y-91189699D01*
X148029397Y-91060827D01*
X148029390Y-91060814D01*
X147941789Y-90929711D01*
X147941786Y-90929707D01*
X147830292Y-90818213D01*
X147830288Y-90818210D01*
X147699185Y-90730609D01*
X147699172Y-90730602D01*
X147553501Y-90670264D01*
X147553489Y-90670261D01*
X147398845Y-90639500D01*
X147398842Y-90639500D01*
X147241158Y-90639500D01*
X147241155Y-90639500D01*
X147086510Y-90670261D01*
X147086498Y-90670264D01*
X146940827Y-90730602D01*
X146940814Y-90730609D01*
X146809711Y-90818210D01*
X146809707Y-90818213D01*
X146698213Y-90929707D01*
X146698210Y-90929711D01*
X146610609Y-91060814D01*
X146610602Y-91060827D01*
X146550264Y-91206498D01*
X146550261Y-91206510D01*
X146519500Y-91361153D01*
X146519500Y-91518846D01*
X146550261Y-91673489D01*
X146550264Y-91673501D01*
X146610602Y-91819172D01*
X146610609Y-91819185D01*
X146698210Y-91950288D01*
X146698213Y-91950292D01*
X146765740Y-92017819D01*
X146799225Y-92079142D01*
X146794241Y-92148834D01*
X146752369Y-92204767D01*
X146686905Y-92229184D01*
X146678059Y-92229500D01*
X146363751Y-92229500D01*
X146356264Y-92229274D01*
X146090311Y-92213186D01*
X146075447Y-92211381D01*
X145817068Y-92164032D01*
X145802529Y-92160448D01*
X145551753Y-92082303D01*
X145537752Y-92076994D01*
X145298208Y-91969184D01*
X145284949Y-91962225D01*
X145265209Y-91950292D01*
X145060150Y-91826329D01*
X145047830Y-91817825D01*
X144841050Y-91655823D01*
X144829842Y-91645893D01*
X144644106Y-91460157D01*
X144634176Y-91448949D01*
X144472174Y-91242169D01*
X144463672Y-91229852D01*
X144327771Y-91005044D01*
X144320818Y-90991798D01*
X144213003Y-90752242D01*
X144207696Y-90738246D01*
X144205886Y-90732436D01*
X144129549Y-90487463D01*
X144125967Y-90472931D01*
X144113241Y-90403489D01*
X144078617Y-90214551D01*
X144076813Y-90199688D01*
X144076628Y-90196635D01*
X144060726Y-89933736D01*
X144060500Y-89926249D01*
X144060500Y-89611941D01*
X144080185Y-89544902D01*
X144132989Y-89499147D01*
X144202147Y-89489203D01*
X144265703Y-89518228D01*
X144268165Y-89520521D01*
X144269711Y-89521789D01*
X144400814Y-89609390D01*
X144400827Y-89609397D01*
X144522288Y-89659707D01*
X144546503Y-89669737D01*
X144701153Y-89700499D01*
X144701156Y-89700500D01*
X144701158Y-89700500D01*
X144858844Y-89700500D01*
X144858845Y-89700499D01*
X145013497Y-89669737D01*
X145138912Y-89617789D01*
X145159172Y-89609397D01*
X145159172Y-89609396D01*
X145159179Y-89609394D01*
X145290289Y-89521789D01*
X145293850Y-89518228D01*
X145327319Y-89484760D01*
X145388642Y-89451275D01*
X145458334Y-89456259D01*
X145502681Y-89484760D01*
X145539707Y-89521786D01*
X145539711Y-89521789D01*
X145670814Y-89609390D01*
X145670827Y-89609397D01*
X145792288Y-89659707D01*
X145816503Y-89669737D01*
X145971153Y-89700499D01*
X145971156Y-89700500D01*
X145971158Y-89700500D01*
X146128844Y-89700500D01*
X146128845Y-89700499D01*
X146283497Y-89669737D01*
X146408912Y-89617789D01*
X146429172Y-89609397D01*
X146429172Y-89609396D01*
X146429179Y-89609394D01*
X146560289Y-89521789D01*
X146563850Y-89518228D01*
X146597319Y-89484760D01*
X146658642Y-89451275D01*
X146728334Y-89456259D01*
X146772681Y-89484760D01*
X146809707Y-89521786D01*
X146809711Y-89521789D01*
X146940814Y-89609390D01*
X146940827Y-89609397D01*
X147062288Y-89659707D01*
X147086503Y-89669737D01*
X147241153Y-89700499D01*
X147241156Y-89700500D01*
X147241158Y-89700500D01*
X147398844Y-89700500D01*
X147398845Y-89700499D01*
X147553497Y-89669737D01*
X147678912Y-89617789D01*
X147699172Y-89609397D01*
X147699172Y-89609396D01*
X147699179Y-89609394D01*
X147830289Y-89521789D01*
X147941789Y-89410289D01*
X148029394Y-89279179D01*
X148039908Y-89253797D01*
X148074411Y-89170497D01*
X148089737Y-89133497D01*
X148120500Y-88978842D01*
X148120500Y-88821158D01*
X148120500Y-88821155D01*
X148120499Y-88821153D01*
X149059500Y-88821153D01*
X149059500Y-88978846D01*
X149090261Y-89133489D01*
X149090264Y-89133501D01*
X149150602Y-89279172D01*
X149150609Y-89279185D01*
X149238210Y-89410288D01*
X149238213Y-89410292D01*
X149349707Y-89521786D01*
X149349711Y-89521789D01*
X149480814Y-89609390D01*
X149480827Y-89609397D01*
X149602288Y-89659707D01*
X149626503Y-89669737D01*
X149781153Y-89700499D01*
X149781156Y-89700500D01*
X149781158Y-89700500D01*
X149938844Y-89700500D01*
X149938845Y-89700499D01*
X150093497Y-89669737D01*
X150218912Y-89617789D01*
X150239172Y-89609397D01*
X150239172Y-89609396D01*
X150239179Y-89609394D01*
X150370289Y-89521789D01*
X150481789Y-89410289D01*
X150569394Y-89279179D01*
X150579908Y-89253797D01*
X150614411Y-89170497D01*
X150629737Y-89133497D01*
X150660500Y-88978842D01*
X150660500Y-88821158D01*
X150660500Y-88821155D01*
X150660499Y-88821153D01*
X150652513Y-88781003D01*
X150629737Y-88666503D01*
X150579500Y-88545219D01*
X150569397Y-88520827D01*
X150569390Y-88520814D01*
X150481789Y-88389711D01*
X150481786Y-88389707D01*
X150370292Y-88278213D01*
X150370288Y-88278210D01*
X150239185Y-88190609D01*
X150239172Y-88190602D01*
X150093501Y-88130264D01*
X150093489Y-88130261D01*
X149938845Y-88099500D01*
X149938842Y-88099500D01*
X149781158Y-88099500D01*
X149781155Y-88099500D01*
X149626510Y-88130261D01*
X149626498Y-88130264D01*
X149480827Y-88190602D01*
X149480814Y-88190609D01*
X149349711Y-88278210D01*
X149349707Y-88278213D01*
X149238213Y-88389707D01*
X149238210Y-88389711D01*
X149150609Y-88520814D01*
X149150602Y-88520827D01*
X149090264Y-88666498D01*
X149090261Y-88666510D01*
X149059500Y-88821153D01*
X148120499Y-88821153D01*
X148112513Y-88781003D01*
X148089737Y-88666503D01*
X148039500Y-88545219D01*
X148029397Y-88520827D01*
X148029390Y-88520814D01*
X147941789Y-88389711D01*
X147941786Y-88389707D01*
X147830292Y-88278213D01*
X147830288Y-88278210D01*
X147699185Y-88190609D01*
X147699172Y-88190602D01*
X147553501Y-88130264D01*
X147553489Y-88130261D01*
X147398845Y-88099500D01*
X147398842Y-88099500D01*
X147241158Y-88099500D01*
X147241155Y-88099500D01*
X147086510Y-88130261D01*
X147086498Y-88130264D01*
X146940827Y-88190602D01*
X146940814Y-88190609D01*
X146809711Y-88278210D01*
X146809707Y-88278213D01*
X146772681Y-88315240D01*
X146711358Y-88348725D01*
X146641666Y-88343741D01*
X146597319Y-88315240D01*
X146560292Y-88278213D01*
X146560288Y-88278210D01*
X146429185Y-88190609D01*
X146429172Y-88190602D01*
X146283501Y-88130264D01*
X146283489Y-88130261D01*
X146128845Y-88099500D01*
X146128842Y-88099500D01*
X145971158Y-88099500D01*
X145971155Y-88099500D01*
X145816510Y-88130261D01*
X145816498Y-88130264D01*
X145670827Y-88190602D01*
X145670814Y-88190609D01*
X145539711Y-88278210D01*
X145539707Y-88278213D01*
X145502681Y-88315240D01*
X145441358Y-88348725D01*
X145371666Y-88343741D01*
X145327319Y-88315240D01*
X145290292Y-88278213D01*
X145290288Y-88278210D01*
X145159185Y-88190609D01*
X145159172Y-88190602D01*
X145013501Y-88130264D01*
X145013489Y-88130261D01*
X144858845Y-88099500D01*
X144858842Y-88099500D01*
X144701158Y-88099500D01*
X144701155Y-88099500D01*
X144546510Y-88130261D01*
X144546498Y-88130264D01*
X144400827Y-88190602D01*
X144400814Y-88190609D01*
X144269711Y-88278210D01*
X144265001Y-88282076D01*
X144263632Y-88280408D01*
X144210858Y-88309225D01*
X144141166Y-88304241D01*
X144085233Y-88262369D01*
X144060816Y-88196905D01*
X144060500Y-88188059D01*
X144060500Y-87303613D01*
X144080185Y-87236574D01*
X144132989Y-87190819D01*
X144202147Y-87180875D01*
X144265703Y-87209900D01*
X144300682Y-87260280D01*
X144346202Y-87382328D01*
X144346206Y-87382335D01*
X144432452Y-87497544D01*
X144432455Y-87497547D01*
X144547664Y-87583793D01*
X144547671Y-87583797D01*
X144682517Y-87634091D01*
X144682516Y-87634091D01*
X144689444Y-87634835D01*
X144742127Y-87640500D01*
X146537872Y-87640499D01*
X146597483Y-87634091D01*
X146732331Y-87583796D01*
X146835690Y-87506421D01*
X146901152Y-87482004D01*
X146969425Y-87496855D01*
X146984303Y-87506416D01*
X147087665Y-87583793D01*
X147087668Y-87583795D01*
X147087671Y-87583797D01*
X147222517Y-87634091D01*
X147222516Y-87634091D01*
X147229444Y-87634835D01*
X147282127Y-87640500D01*
X149077872Y-87640499D01*
X149137483Y-87634091D01*
X149272331Y-87583796D01*
X149387546Y-87497546D01*
X149473796Y-87382331D01*
X149524091Y-87247483D01*
X149530500Y-87187873D01*
X149530499Y-85392128D01*
X149524091Y-85332517D01*
X149523511Y-85330963D01*
X149473797Y-85197671D01*
X149473795Y-85197668D01*
X149459231Y-85178213D01*
X149396421Y-85094309D01*
X149372004Y-85028848D01*
X149386855Y-84960575D01*
X149396416Y-84945696D01*
X149473796Y-84842331D01*
X149481695Y-84821153D01*
X157669500Y-84821153D01*
X157669500Y-84978846D01*
X157700261Y-85133489D01*
X157700264Y-85133501D01*
X157760602Y-85279172D01*
X157760609Y-85279185D01*
X157848210Y-85410288D01*
X157848213Y-85410292D01*
X157959707Y-85521786D01*
X157959711Y-85521789D01*
X158090814Y-85609390D01*
X158090827Y-85609397D01*
X158234241Y-85668800D01*
X158236503Y-85669737D01*
X158391153Y-85700499D01*
X158391156Y-85700500D01*
X158391158Y-85700500D01*
X158548844Y-85700500D01*
X158548845Y-85700499D01*
X158703497Y-85669737D01*
X158836968Y-85614452D01*
X158849172Y-85609397D01*
X158849172Y-85609396D01*
X158849179Y-85609394D01*
X158980289Y-85521789D01*
X159091789Y-85410289D01*
X159179394Y-85279179D01*
X159239737Y-85133497D01*
X159270500Y-84978842D01*
X159270500Y-84821158D01*
X159270500Y-84821155D01*
X159270499Y-84821153D01*
X159265936Y-84798213D01*
X159239737Y-84666503D01*
X159233010Y-84650263D01*
X159179397Y-84520827D01*
X159179390Y-84520814D01*
X159091789Y-84389711D01*
X159091786Y-84389707D01*
X158980292Y-84278213D01*
X158980288Y-84278210D01*
X158849185Y-84190609D01*
X158849172Y-84190602D01*
X158703501Y-84130264D01*
X158703489Y-84130261D01*
X158548845Y-84099500D01*
X158548842Y-84099500D01*
X158391158Y-84099500D01*
X158391155Y-84099500D01*
X158236510Y-84130261D01*
X158236498Y-84130264D01*
X158090827Y-84190602D01*
X158090814Y-84190609D01*
X157959711Y-84278210D01*
X157959707Y-84278213D01*
X157848213Y-84389707D01*
X157848210Y-84389711D01*
X157760609Y-84520814D01*
X157760602Y-84520827D01*
X157700264Y-84666498D01*
X157700261Y-84666510D01*
X157669500Y-84821153D01*
X149481695Y-84821153D01*
X149524091Y-84707483D01*
X149530500Y-84647873D01*
X149530499Y-83661153D01*
X150799500Y-83661153D01*
X150799500Y-83818846D01*
X150830261Y-83973489D01*
X150830264Y-83973501D01*
X150890602Y-84119172D01*
X150890609Y-84119185D01*
X150978210Y-84250288D01*
X150978213Y-84250292D01*
X151089707Y-84361786D01*
X151089711Y-84361789D01*
X151220814Y-84449390D01*
X151220827Y-84449397D01*
X151362816Y-84508210D01*
X151366503Y-84509737D01*
X151503618Y-84537011D01*
X151521153Y-84540499D01*
X151521156Y-84540500D01*
X151521158Y-84540500D01*
X151678844Y-84540500D01*
X151678845Y-84540499D01*
X151833497Y-84509737D01*
X151979179Y-84449394D01*
X152110289Y-84361789D01*
X152221789Y-84250289D01*
X152309394Y-84119179D01*
X152369737Y-83973497D01*
X152382138Y-83911153D01*
X152999500Y-83911153D01*
X152999500Y-84068846D01*
X153030261Y-84223489D01*
X153030264Y-84223501D01*
X153090602Y-84369172D01*
X153090609Y-84369185D01*
X153178210Y-84500288D01*
X153178213Y-84500292D01*
X153289707Y-84611786D01*
X153289711Y-84611789D01*
X153420814Y-84699390D01*
X153420827Y-84699397D01*
X153566498Y-84759735D01*
X153566503Y-84759737D01*
X153720937Y-84790456D01*
X153721153Y-84790499D01*
X153721156Y-84790500D01*
X153721158Y-84790500D01*
X153878844Y-84790500D01*
X153878845Y-84790499D01*
X154033497Y-84759737D01*
X154091568Y-84735683D01*
X154176498Y-84700505D01*
X154176499Y-84700504D01*
X154179179Y-84699394D01*
X154310289Y-84611789D01*
X154421789Y-84500289D01*
X154509394Y-84369179D01*
X154569737Y-84223497D01*
X154600500Y-84068842D01*
X154600500Y-83911158D01*
X154600500Y-83911155D01*
X154600499Y-83911153D01*
X154592371Y-83870291D01*
X154569737Y-83756503D01*
X154530242Y-83661153D01*
X154509397Y-83610827D01*
X154509390Y-83610814D01*
X154421789Y-83479711D01*
X154421786Y-83479707D01*
X154310292Y-83368213D01*
X154310288Y-83368210D01*
X154179185Y-83280609D01*
X154179172Y-83280602D01*
X154033501Y-83220264D01*
X154033489Y-83220261D01*
X153878845Y-83189500D01*
X153878842Y-83189500D01*
X153721158Y-83189500D01*
X153721155Y-83189500D01*
X153566510Y-83220261D01*
X153566498Y-83220264D01*
X153420827Y-83280602D01*
X153420814Y-83280609D01*
X153289711Y-83368210D01*
X153289707Y-83368213D01*
X153178213Y-83479707D01*
X153178210Y-83479711D01*
X153090609Y-83610814D01*
X153090602Y-83610827D01*
X153030264Y-83756498D01*
X153030261Y-83756510D01*
X152999500Y-83911153D01*
X152382138Y-83911153D01*
X152390266Y-83870291D01*
X152400500Y-83818844D01*
X152400500Y-83661155D01*
X152400499Y-83661153D01*
X152369738Y-83506510D01*
X152369737Y-83506503D01*
X152369735Y-83506498D01*
X152309397Y-83360827D01*
X152309390Y-83360814D01*
X152221789Y-83229711D01*
X152221786Y-83229707D01*
X152110292Y-83118213D01*
X152110288Y-83118210D01*
X151979185Y-83030609D01*
X151979172Y-83030602D01*
X151833501Y-82970264D01*
X151833489Y-82970261D01*
X151678845Y-82939500D01*
X151678842Y-82939500D01*
X151521158Y-82939500D01*
X151521155Y-82939500D01*
X151366510Y-82970261D01*
X151366498Y-82970264D01*
X151220827Y-83030602D01*
X151220814Y-83030609D01*
X151089711Y-83118210D01*
X151089707Y-83118213D01*
X150978213Y-83229707D01*
X150978210Y-83229711D01*
X150890609Y-83360814D01*
X150890602Y-83360827D01*
X150830264Y-83506498D01*
X150830261Y-83506510D01*
X150799500Y-83661153D01*
X149530499Y-83661153D01*
X149530499Y-82852128D01*
X149524091Y-82792517D01*
X149503836Y-82738211D01*
X149473797Y-82657671D01*
X149473795Y-82657668D01*
X149468511Y-82650609D01*
X149396421Y-82554309D01*
X149372004Y-82488848D01*
X149386855Y-82420575D01*
X149396416Y-82405696D01*
X149473796Y-82302331D01*
X149524091Y-82167483D01*
X149530500Y-82107873D01*
X149530499Y-80921153D01*
X150009500Y-80921153D01*
X150009500Y-81078846D01*
X150040261Y-81233489D01*
X150040264Y-81233501D01*
X150100602Y-81379172D01*
X150100609Y-81379185D01*
X150188210Y-81510288D01*
X150188213Y-81510292D01*
X150299707Y-81621786D01*
X150299711Y-81621789D01*
X150430814Y-81709390D01*
X150430827Y-81709397D01*
X150574685Y-81768984D01*
X150576503Y-81769737D01*
X150731153Y-81800499D01*
X150731156Y-81800500D01*
X150731158Y-81800500D01*
X150888844Y-81800500D01*
X150888845Y-81800499D01*
X150917732Y-81794753D01*
X155795500Y-81794753D01*
X155795500Y-81952446D01*
X155826261Y-82107089D01*
X155826264Y-82107101D01*
X155886602Y-82252772D01*
X155886609Y-82252785D01*
X155974210Y-82383888D01*
X155974213Y-82383892D01*
X156085707Y-82495386D01*
X156085711Y-82495389D01*
X156216814Y-82582990D01*
X156216827Y-82582997D01*
X156320360Y-82625881D01*
X156362503Y-82643337D01*
X156517153Y-82674099D01*
X156517156Y-82674100D01*
X156517158Y-82674100D01*
X156674844Y-82674100D01*
X156674845Y-82674099D01*
X156829497Y-82643337D01*
X156975179Y-82582994D01*
X157106289Y-82495389D01*
X157217789Y-82383889D01*
X157305394Y-82252779D01*
X157365737Y-82107097D01*
X157396500Y-81952442D01*
X157396500Y-81794758D01*
X157396500Y-81794755D01*
X157396499Y-81794753D01*
X157386401Y-81743989D01*
X157365737Y-81640103D01*
X157365735Y-81640098D01*
X157305397Y-81494427D01*
X157305390Y-81494414D01*
X157217789Y-81363311D01*
X157217786Y-81363307D01*
X157106292Y-81251813D01*
X157106288Y-81251810D01*
X156975185Y-81164209D01*
X156975172Y-81164202D01*
X156829501Y-81103864D01*
X156829489Y-81103861D01*
X156674845Y-81073100D01*
X156674842Y-81073100D01*
X156517158Y-81073100D01*
X156517155Y-81073100D01*
X156362510Y-81103861D01*
X156362498Y-81103864D01*
X156216827Y-81164202D01*
X156216814Y-81164209D01*
X156085711Y-81251810D01*
X156085707Y-81251813D01*
X155974213Y-81363307D01*
X155974210Y-81363311D01*
X155886609Y-81494414D01*
X155886602Y-81494427D01*
X155826264Y-81640098D01*
X155826261Y-81640110D01*
X155795500Y-81794753D01*
X150917732Y-81794753D01*
X151043497Y-81769737D01*
X151189179Y-81709394D01*
X151190313Y-81708636D01*
X151224844Y-81685564D01*
X151270703Y-81654920D01*
X151320289Y-81621789D01*
X151431789Y-81510289D01*
X151519394Y-81379179D01*
X151579737Y-81233497D01*
X151610500Y-81078842D01*
X151610500Y-80921158D01*
X151610500Y-80921155D01*
X151610499Y-80921153D01*
X151589684Y-80816510D01*
X151579737Y-80766503D01*
X151530936Y-80648685D01*
X151519397Y-80620827D01*
X151519390Y-80620814D01*
X151481309Y-80563822D01*
X151460431Y-80497144D01*
X151478915Y-80429764D01*
X151481269Y-80426100D01*
X151559394Y-80309179D01*
X151619737Y-80163497D01*
X151650500Y-80008842D01*
X151650500Y-80002004D01*
X151670185Y-79934965D01*
X151722989Y-79889210D01*
X151726972Y-79887474D01*
X151864779Y-79830394D01*
X151995889Y-79742789D01*
X152107389Y-79631289D01*
X152194994Y-79500179D01*
X152255337Y-79354497D01*
X152286100Y-79199842D01*
X152286100Y-79042158D01*
X152286100Y-79042155D01*
X152286099Y-79042153D01*
X152277075Y-78996789D01*
X152255337Y-78887503D01*
X152231996Y-78831153D01*
X153289500Y-78831153D01*
X153289500Y-78988846D01*
X153320261Y-79143489D01*
X153320264Y-79143501D01*
X153380602Y-79289172D01*
X153380609Y-79289185D01*
X153468210Y-79420288D01*
X153468213Y-79420292D01*
X153579707Y-79531786D01*
X153579711Y-79531789D01*
X153710814Y-79619390D01*
X153710827Y-79619397D01*
X153855682Y-79679397D01*
X153856503Y-79679737D01*
X153987138Y-79705722D01*
X154011153Y-79710499D01*
X154011156Y-79710500D01*
X154011158Y-79710500D01*
X154168844Y-79710500D01*
X154168845Y-79710499D01*
X154323497Y-79679737D01*
X154469179Y-79619394D01*
X154600289Y-79531789D01*
X154711789Y-79420289D01*
X154799394Y-79289179D01*
X154836895Y-79198642D01*
X154880734Y-79144241D01*
X154947028Y-79122175D01*
X155014727Y-79139453D01*
X155034516Y-79154826D01*
X155034601Y-79154724D01*
X155038435Y-79157870D01*
X155039136Y-79158415D01*
X155039307Y-79158586D01*
X155039311Y-79158589D01*
X155170414Y-79246190D01*
X155170427Y-79246197D01*
X155274211Y-79289185D01*
X155316103Y-79306537D01*
X155470753Y-79337299D01*
X155470756Y-79337300D01*
X155470758Y-79337300D01*
X155628444Y-79337300D01*
X155628445Y-79337299D01*
X155783097Y-79306537D01*
X155895766Y-79259867D01*
X155928772Y-79246197D01*
X155928772Y-79246196D01*
X155928779Y-79246194D01*
X156059889Y-79158589D01*
X156171389Y-79047089D01*
X156258994Y-78915979D01*
X156319337Y-78770297D01*
X156350100Y-78615642D01*
X156350100Y-78457958D01*
X156350100Y-78457955D01*
X156350099Y-78457953D01*
X156345213Y-78433390D01*
X156319337Y-78303303D01*
X156314644Y-78291973D01*
X156258997Y-78157627D01*
X156258990Y-78157614D01*
X156171389Y-78026511D01*
X156171386Y-78026507D01*
X156059892Y-77915013D01*
X156059888Y-77915010D01*
X155928785Y-77827409D01*
X155928772Y-77827402D01*
X155783101Y-77767064D01*
X155783089Y-77767061D01*
X155628445Y-77736300D01*
X155628442Y-77736300D01*
X155470758Y-77736300D01*
X155470755Y-77736300D01*
X155316110Y-77767061D01*
X155316098Y-77767064D01*
X155170427Y-77827402D01*
X155170414Y-77827409D01*
X155039311Y-77915010D01*
X155039307Y-77915013D01*
X154927813Y-78026507D01*
X154927810Y-78026511D01*
X154840209Y-78157614D01*
X154840204Y-78157623D01*
X154802705Y-78248156D01*
X154758864Y-78302559D01*
X154692570Y-78324624D01*
X154624871Y-78307345D01*
X154605083Y-78291973D01*
X154604999Y-78292076D01*
X154601159Y-78288925D01*
X154600463Y-78288384D01*
X154600292Y-78288213D01*
X154600288Y-78288210D01*
X154469185Y-78200609D01*
X154469172Y-78200602D01*
X154323501Y-78140264D01*
X154323489Y-78140261D01*
X154168845Y-78109500D01*
X154168842Y-78109500D01*
X154011158Y-78109500D01*
X154011155Y-78109500D01*
X153856510Y-78140261D01*
X153856498Y-78140264D01*
X153710827Y-78200602D01*
X153710814Y-78200609D01*
X153579711Y-78288210D01*
X153579707Y-78288213D01*
X153468213Y-78399707D01*
X153468210Y-78399711D01*
X153380609Y-78530814D01*
X153380602Y-78530827D01*
X153320264Y-78676498D01*
X153320261Y-78676510D01*
X153289500Y-78831153D01*
X152231996Y-78831153D01*
X152203732Y-78762916D01*
X152194997Y-78741827D01*
X152194990Y-78741814D01*
X152107389Y-78610711D01*
X152107386Y-78610707D01*
X151995892Y-78499213D01*
X151995888Y-78499210D01*
X151864785Y-78411609D01*
X151864772Y-78411602D01*
X151719101Y-78351264D01*
X151719089Y-78351261D01*
X151564445Y-78320500D01*
X151564442Y-78320500D01*
X151406758Y-78320500D01*
X151406755Y-78320500D01*
X151252110Y-78351261D01*
X151252098Y-78351264D01*
X151106427Y-78411602D01*
X151106414Y-78411609D01*
X150975311Y-78499210D01*
X150975307Y-78499213D01*
X150863813Y-78610707D01*
X150863810Y-78610711D01*
X150776209Y-78741814D01*
X150776202Y-78741827D01*
X150715864Y-78887498D01*
X150715861Y-78887510D01*
X150685100Y-79042153D01*
X150685100Y-79048995D01*
X150665415Y-79116034D01*
X150612611Y-79161789D01*
X150608552Y-79163556D01*
X150470827Y-79220602D01*
X150470814Y-79220609D01*
X150339711Y-79308210D01*
X150339707Y-79308213D01*
X150228213Y-79419707D01*
X150228210Y-79419711D01*
X150140609Y-79550814D01*
X150140602Y-79550827D01*
X150080264Y-79696498D01*
X150080261Y-79696510D01*
X150049500Y-79851153D01*
X150049500Y-80008846D01*
X150080261Y-80163489D01*
X150080264Y-80163501D01*
X150140602Y-80309172D01*
X150140609Y-80309185D01*
X150178690Y-80366177D01*
X150199568Y-80432855D01*
X150181083Y-80500235D01*
X150178690Y-80503959D01*
X150100609Y-80620814D01*
X150100602Y-80620827D01*
X150040264Y-80766498D01*
X150040261Y-80766510D01*
X150009500Y-80921153D01*
X149530499Y-80921153D01*
X149530499Y-80312128D01*
X149524091Y-80252517D01*
X149521809Y-80246399D01*
X149473797Y-80117671D01*
X149473795Y-80117668D01*
X149396421Y-80014309D01*
X149372004Y-79948848D01*
X149386855Y-79880575D01*
X149396416Y-79865696D01*
X149473796Y-79762331D01*
X149524091Y-79627483D01*
X149530500Y-79567873D01*
X149530499Y-77772128D01*
X149524091Y-77712517D01*
X149520728Y-77703501D01*
X149473797Y-77577671D01*
X149473795Y-77577668D01*
X149396421Y-77474309D01*
X149372004Y-77408848D01*
X149386855Y-77340575D01*
X149396416Y-77325696D01*
X149473796Y-77222331D01*
X149524091Y-77087483D01*
X149530500Y-77027873D01*
X149530499Y-75232128D01*
X149524091Y-75172517D01*
X149520728Y-75163501D01*
X149473797Y-75037671D01*
X149473793Y-75037664D01*
X149387547Y-74922455D01*
X149387544Y-74922452D01*
X149272335Y-74836206D01*
X149272328Y-74836202D01*
X149137482Y-74785908D01*
X149137483Y-74785908D01*
X149077883Y-74779501D01*
X149077881Y-74779500D01*
X149077873Y-74779500D01*
X149077864Y-74779500D01*
X147282129Y-74779500D01*
X147282123Y-74779501D01*
X147222516Y-74785908D01*
X147087671Y-74836202D01*
X147087669Y-74836203D01*
X146984311Y-74913578D01*
X146918847Y-74937995D01*
X146850574Y-74923144D01*
X146835689Y-74913578D01*
X146732330Y-74836203D01*
X146732328Y-74836202D01*
X146600917Y-74787189D01*
X146544983Y-74745318D01*
X146520566Y-74679853D01*
X146535418Y-74611580D01*
X146556563Y-74583332D01*
X146670104Y-74469792D01*
X146699206Y-74429737D01*
X146795048Y-74297820D01*
X146795047Y-74297820D01*
X146795051Y-74297816D01*
X146891557Y-74108412D01*
X146957246Y-73906243D01*
X146990500Y-73696287D01*
X146990500Y-73483713D01*
X146957246Y-73273757D01*
X146891557Y-73071588D01*
X146795051Y-72882184D01*
X146795049Y-72882181D01*
X146795048Y-72882179D01*
X146670109Y-72710213D01*
X146519786Y-72559890D01*
X146347820Y-72434951D01*
X146158414Y-72338444D01*
X146158413Y-72338443D01*
X146158412Y-72338443D01*
X145956243Y-72272754D01*
X145956241Y-72272753D01*
X145956240Y-72272753D01*
X145794957Y-72247208D01*
X145746287Y-72239500D01*
X145533713Y-72239500D01*
X145485042Y-72247208D01*
X145323760Y-72272753D01*
X145121585Y-72338444D01*
X144932179Y-72434951D01*
X144760213Y-72559890D01*
X144609890Y-72710213D01*
X144484951Y-72882179D01*
X144388444Y-73071585D01*
X144322753Y-73273760D01*
X144306973Y-73373393D01*
X144277044Y-73436528D01*
X144217732Y-73473459D01*
X144147870Y-73472461D01*
X144089637Y-73433851D01*
X144061523Y-73369888D01*
X144060500Y-73353995D01*
X144060500Y-71831941D01*
X144080185Y-71764902D01*
X144132989Y-71719147D01*
X144202147Y-71709203D01*
X144265703Y-71738228D01*
X144268165Y-71740521D01*
X144269711Y-71741789D01*
X144400814Y-71829390D01*
X144400827Y-71829397D01*
X144522298Y-71879711D01*
X144546503Y-71889737D01*
X144701153Y-71920499D01*
X144701156Y-71920500D01*
X144701158Y-71920500D01*
X144858844Y-71920500D01*
X144858845Y-71920499D01*
X145013497Y-71889737D01*
X145159179Y-71829394D01*
X145290289Y-71741789D01*
X145401789Y-71630289D01*
X145489394Y-71499179D01*
X145549737Y-71353497D01*
X145580500Y-71198842D01*
X145580500Y-71041158D01*
X145580500Y-71041155D01*
X145580499Y-71041153D01*
X146519500Y-71041153D01*
X146519500Y-71198846D01*
X146550261Y-71353489D01*
X146550264Y-71353501D01*
X146610602Y-71499172D01*
X146610609Y-71499185D01*
X146698210Y-71630288D01*
X146698213Y-71630292D01*
X146809707Y-71741786D01*
X146809711Y-71741789D01*
X146940814Y-71829390D01*
X146940827Y-71829397D01*
X147062298Y-71879711D01*
X147086503Y-71889737D01*
X147241153Y-71920499D01*
X147241156Y-71920500D01*
X147241158Y-71920500D01*
X147398844Y-71920500D01*
X147398845Y-71920499D01*
X147553497Y-71889737D01*
X147699179Y-71829394D01*
X147830289Y-71741789D01*
X147941789Y-71630289D01*
X148029394Y-71499179D01*
X148089737Y-71353497D01*
X148120500Y-71198842D01*
X148120500Y-71041158D01*
X148120500Y-71041155D01*
X148120499Y-71041153D01*
X149059500Y-71041153D01*
X149059500Y-71198846D01*
X149090261Y-71353489D01*
X149090264Y-71353501D01*
X149150602Y-71499172D01*
X149150609Y-71499185D01*
X149238210Y-71630288D01*
X149238213Y-71630292D01*
X149349707Y-71741786D01*
X149349711Y-71741789D01*
X149480814Y-71829390D01*
X149480827Y-71829397D01*
X149602298Y-71879711D01*
X149626503Y-71889737D01*
X149781153Y-71920499D01*
X149781156Y-71920500D01*
X149781158Y-71920500D01*
X149938844Y-71920500D01*
X149938845Y-71920499D01*
X150093497Y-71889737D01*
X150239179Y-71829394D01*
X150370289Y-71741789D01*
X150481789Y-71630289D01*
X150569394Y-71499179D01*
X150629737Y-71353497D01*
X150660500Y-71198842D01*
X150660500Y-71041158D01*
X150660500Y-71041155D01*
X150660499Y-71041153D01*
X150629737Y-70886503D01*
X150623849Y-70872288D01*
X150569397Y-70740827D01*
X150569390Y-70740814D01*
X150481789Y-70609711D01*
X150481786Y-70609707D01*
X150370292Y-70498213D01*
X150370288Y-70498210D01*
X150239185Y-70410609D01*
X150239172Y-70410602D01*
X150093501Y-70350264D01*
X150093489Y-70350261D01*
X149938845Y-70319500D01*
X149938842Y-70319500D01*
X149781158Y-70319500D01*
X149781155Y-70319500D01*
X149626510Y-70350261D01*
X149626498Y-70350264D01*
X149480827Y-70410602D01*
X149480814Y-70410609D01*
X149349711Y-70498210D01*
X149349707Y-70498213D01*
X149238213Y-70609707D01*
X149238210Y-70609711D01*
X149150609Y-70740814D01*
X149150602Y-70740827D01*
X149090264Y-70886498D01*
X149090261Y-70886510D01*
X149059500Y-71041153D01*
X148120499Y-71041153D01*
X148089737Y-70886503D01*
X148083849Y-70872288D01*
X148029397Y-70740827D01*
X148029390Y-70740814D01*
X147941789Y-70609711D01*
X147941786Y-70609707D01*
X147830292Y-70498213D01*
X147830288Y-70498210D01*
X147699185Y-70410609D01*
X147699172Y-70410602D01*
X147553501Y-70350264D01*
X147553489Y-70350261D01*
X147398845Y-70319500D01*
X147398842Y-70319500D01*
X147241158Y-70319500D01*
X147241155Y-70319500D01*
X147086510Y-70350261D01*
X147086498Y-70350264D01*
X146940827Y-70410602D01*
X146940814Y-70410609D01*
X146809711Y-70498210D01*
X146809707Y-70498213D01*
X146698213Y-70609707D01*
X146698210Y-70609711D01*
X146610609Y-70740814D01*
X146610602Y-70740827D01*
X146550264Y-70886498D01*
X146550261Y-70886510D01*
X146519500Y-71041153D01*
X145580499Y-71041153D01*
X145549737Y-70886503D01*
X145543849Y-70872288D01*
X145489397Y-70740827D01*
X145489390Y-70740814D01*
X145401789Y-70609711D01*
X145401786Y-70609707D01*
X145290292Y-70498213D01*
X145290288Y-70498210D01*
X145159185Y-70410609D01*
X145159172Y-70410602D01*
X145013501Y-70350264D01*
X145013489Y-70350261D01*
X144858845Y-70319500D01*
X144858842Y-70319500D01*
X144701158Y-70319500D01*
X144701155Y-70319500D01*
X144546510Y-70350261D01*
X144546498Y-70350264D01*
X144400827Y-70410602D01*
X144400814Y-70410609D01*
X144269711Y-70498210D01*
X144265001Y-70502076D01*
X144263632Y-70500408D01*
X144210858Y-70529225D01*
X144141166Y-70524241D01*
X144085233Y-70482369D01*
X144060816Y-70416905D01*
X144060500Y-70408059D01*
X144060500Y-69623750D01*
X144060726Y-69616263D01*
X144076813Y-69350311D01*
X144078618Y-69335447D01*
X144087057Y-69289397D01*
X144125969Y-69077057D01*
X144129548Y-69062539D01*
X144207699Y-68811743D01*
X144213001Y-68797762D01*
X144320822Y-68558194D01*
X144327767Y-68544961D01*
X144354250Y-68501153D01*
X145249500Y-68501153D01*
X145249500Y-68658846D01*
X145280261Y-68813489D01*
X145280264Y-68813501D01*
X145340602Y-68959172D01*
X145340609Y-68959185D01*
X145428210Y-69090288D01*
X145428213Y-69090292D01*
X145539707Y-69201786D01*
X145539711Y-69201789D01*
X145670814Y-69289390D01*
X145670827Y-69289397D01*
X145792298Y-69339711D01*
X145816503Y-69349737D01*
X145971153Y-69380499D01*
X145971156Y-69380500D01*
X145971158Y-69380500D01*
X146128844Y-69380500D01*
X146128845Y-69380499D01*
X146283497Y-69349737D01*
X146429179Y-69289394D01*
X146560289Y-69201789D01*
X146560292Y-69201786D01*
X146597319Y-69164760D01*
X146658642Y-69131275D01*
X146728334Y-69136259D01*
X146772681Y-69164760D01*
X146809707Y-69201786D01*
X146809711Y-69201789D01*
X146940814Y-69289390D01*
X146940827Y-69289397D01*
X147062298Y-69339711D01*
X147086503Y-69349737D01*
X147241153Y-69380499D01*
X147241156Y-69380500D01*
X147241158Y-69380500D01*
X147398844Y-69380500D01*
X147398845Y-69380499D01*
X147553497Y-69349737D01*
X147699179Y-69289394D01*
X147830289Y-69201789D01*
X147941789Y-69090289D01*
X148029394Y-68959179D01*
X148089737Y-68813497D01*
X148120500Y-68658842D01*
X148120500Y-68501158D01*
X148120500Y-68501155D01*
X148120499Y-68501153D01*
X148106528Y-68430916D01*
X148089737Y-68346503D01*
X148073718Y-68307830D01*
X148029397Y-68200827D01*
X148029390Y-68200814D01*
X147941789Y-68069711D01*
X147941786Y-68069707D01*
X147830292Y-67958213D01*
X147830288Y-67958210D01*
X147699185Y-67870609D01*
X147699172Y-67870602D01*
X147553501Y-67810264D01*
X147553489Y-67810261D01*
X147398845Y-67779500D01*
X147398842Y-67779500D01*
X147241158Y-67779500D01*
X147241155Y-67779500D01*
X147086510Y-67810261D01*
X147086498Y-67810264D01*
X146940827Y-67870602D01*
X146940814Y-67870609D01*
X146809711Y-67958210D01*
X146809707Y-67958213D01*
X146772681Y-67995240D01*
X146711358Y-68028725D01*
X146641666Y-68023741D01*
X146597319Y-67995240D01*
X146560292Y-67958213D01*
X146560288Y-67958210D01*
X146429185Y-67870609D01*
X146429172Y-67870602D01*
X146283501Y-67810264D01*
X146283489Y-67810261D01*
X146128845Y-67779500D01*
X146128842Y-67779500D01*
X145971158Y-67779500D01*
X145971155Y-67779500D01*
X145816510Y-67810261D01*
X145816498Y-67810264D01*
X145670827Y-67870602D01*
X145670814Y-67870609D01*
X145539711Y-67958210D01*
X145539707Y-67958213D01*
X145428213Y-68069707D01*
X145428210Y-68069711D01*
X145340609Y-68200814D01*
X145340602Y-68200827D01*
X145280264Y-68346498D01*
X145280261Y-68346510D01*
X145249500Y-68501153D01*
X144354250Y-68501153D01*
X144463677Y-68320139D01*
X144472164Y-68307843D01*
X144634183Y-68101041D01*
X144644098Y-68089850D01*
X144829850Y-67904098D01*
X144841041Y-67894183D01*
X145047843Y-67732164D01*
X145060139Y-67723677D01*
X145284961Y-67587767D01*
X145298194Y-67580822D01*
X145537762Y-67473001D01*
X145551743Y-67467699D01*
X145802539Y-67389548D01*
X145817057Y-67385969D01*
X146075450Y-67338617D01*
X146090307Y-67336813D01*
X146356264Y-67320726D01*
X146363751Y-67320500D01*
X146425892Y-67320500D01*
X149599441Y-67320500D01*
X149653345Y-67332830D01*
G37*
%TD.AperFunction*%
%TD*%
M02*
