%TF.GenerationSoftware,KiCad,Pcbnew,10.0.3*%
%TF.CreationDate,2026-07-14T10:57:24+01:00*%
%TF.ProjectId,CC1101_Multx,43433131-3031-45f4-9d75-6c74782e6b69,rev?*%
%TF.SameCoordinates,Original*%
%TF.FileFunction,Copper,L1,Top*%
%TF.FilePolarity,Positive*%
%FSLAX46Y46*%
G04 Gerber Fmt 4.6, Leading zero omitted, Abs format (unit mm)*
G04 Created by KiCad (PCBNEW 10.0.3) date 2026-07-14 10:57:24*
%MOMM*%
%LPD*%
G01*
G04 APERTURE LIST*
G04 Aperture macros list*
%AMRoundRect*
0 Rectangle with rounded corners*
0 $1 Rounding radius*
0 $2 $3 $4 $5 $6 $7 $8 $9 X,Y pos of 4 corners*
0 Add a 4 corners polygon primitive as box body*
4,1,4,$2,$3,$4,$5,$6,$7,$8,$9,$2,$3,0*
0 Add four circle primitives for the rounded corners*
1,1,$1+$1,$2,$3*
1,1,$1+$1,$4,$5*
1,1,$1+$1,$6,$7*
1,1,$1+$1,$8,$9*
0 Add four rect primitives between the rounded corners*
20,1,$1+$1,$2,$3,$4,$5,0*
20,1,$1+$1,$4,$5,$6,$7,0*
20,1,$1+$1,$6,$7,$8,$9,0*
20,1,$1+$1,$8,$9,$2,$3,0*%
G04 Aperture macros list end*
%TA.AperFunction,SMDPad,CuDef*%
%ADD10RoundRect,0.102000X-0.492146X0.035355X0.035355X-0.492146X0.492146X-0.035355X-0.035355X0.492146X0*%
%TD*%
%TA.AperFunction,SMDPad,CuDef*%
%ADD11RoundRect,0.140000X0.219203X0.021213X0.021213X0.219203X-0.219203X-0.021213X-0.021213X-0.219203X0*%
%TD*%
%TA.AperFunction,SMDPad,CuDef*%
%ADD12RoundRect,0.140000X0.021213X-0.219203X0.219203X-0.021213X-0.021213X0.219203X-0.219203X0.021213X0*%
%TD*%
%TA.AperFunction,SMDPad,CuDef*%
%ADD13R,0.990600X0.355600*%
%TD*%
%TA.AperFunction,SMDPad,CuDef*%
%ADD14RoundRect,0.147500X-0.147500X-0.172500X0.147500X-0.172500X0.147500X0.172500X-0.147500X0.172500X0*%
%TD*%
%TA.AperFunction,SMDPad,CuDef*%
%ADD15RoundRect,0.140000X-0.140000X-0.170000X0.140000X-0.170000X0.140000X0.170000X-0.140000X0.170000X0*%
%TD*%
%TA.AperFunction,SMDPad,CuDef*%
%ADD16R,2.500000X2.500000*%
%TD*%
%TA.AperFunction,SMDPad,CuDef*%
%ADD17R,0.300000X0.950000*%
%TD*%
%TA.AperFunction,SMDPad,CuDef*%
%ADD18R,0.950000X0.300000*%
%TD*%
%TA.AperFunction,ComponentPad*%
%ADD19R,1.700000X1.700000*%
%TD*%
%TA.AperFunction,SMDPad,CuDef*%
%ADD20RoundRect,0.147500X0.172500X-0.147500X0.172500X0.147500X-0.172500X0.147500X-0.172500X-0.147500X0*%
%TD*%
%TA.AperFunction,SMDPad,CuDef*%
%ADD21RoundRect,0.140000X0.140000X0.170000X-0.140000X0.170000X-0.140000X-0.170000X0.140000X-0.170000X0*%
%TD*%
%TA.AperFunction,SMDPad,CuDef*%
%ADD22RoundRect,0.140000X0.170000X-0.140000X0.170000X0.140000X-0.170000X0.140000X-0.170000X-0.140000X0*%
%TD*%
%TA.AperFunction,ComponentPad*%
%ADD23C,1.700000*%
%TD*%
%TA.AperFunction,SMDPad,CuDef*%
%ADD24RoundRect,0.240000X-2.210000X-0.560000X2.210000X-0.560000X2.210000X0.560000X-2.210000X0.560000X0*%
%TD*%
%TA.AperFunction,SMDPad,CuDef*%
%ADD25RoundRect,0.225000X-2.575000X-0.525000X2.575000X-0.525000X2.575000X0.525000X-2.575000X0.525000X0*%
%TD*%
%TA.AperFunction,SMDPad,CuDef*%
%ADD26RoundRect,0.218750X-0.218750X-0.256250X0.218750X-0.256250X0.218750X0.256250X-0.218750X0.256250X0*%
%TD*%
%TA.AperFunction,SMDPad,CuDef*%
%ADD27RoundRect,0.240000X0.560000X-2.210000X0.560000X2.210000X-0.560000X2.210000X-0.560000X-2.210000X0*%
%TD*%
%TA.AperFunction,SMDPad,CuDef*%
%ADD28RoundRect,0.225000X0.525000X-2.575000X0.525000X2.575000X-0.525000X2.575000X-0.525000X-2.575000X0*%
%TD*%
%TA.AperFunction,SMDPad,CuDef*%
%ADD29RoundRect,0.135000X-0.185000X0.135000X-0.185000X-0.135000X0.185000X-0.135000X0.185000X0.135000X0*%
%TD*%
%TA.AperFunction,SMDPad,CuDef*%
%ADD30RoundRect,0.140000X-0.170000X0.140000X-0.170000X-0.140000X0.170000X-0.140000X0.170000X0.140000X0*%
%TD*%
%TA.AperFunction,SMDPad,CuDef*%
%ADD31RoundRect,0.147500X0.147500X0.172500X-0.147500X0.172500X-0.147500X-0.172500X0.147500X-0.172500X0*%
%TD*%
%TA.AperFunction,ViaPad*%
%ADD32C,0.600000*%
%TD*%
%TA.AperFunction,Conductor*%
%ADD33C,0.200000*%
%TD*%
%TA.AperFunction,Conductor*%
%ADD34C,0.330000*%
%TD*%
%TA.AperFunction,Conductor*%
%ADD35C,0.150000*%
%TD*%
G04 APERTURE END LIST*
D10*
%TO.P,Y1,1,1_1*%
%TO.N,Net-(IC1-XOSC_Q1)*%
X156202800Y-87355973D03*
%TO.P,Y1,2,G_2*%
%TO.N,/AGND*%
X157228105Y-88381278D03*
%TO.P,Y1,3,3_3*%
%TO.N,Net-(IC1-XOSC_Q2)*%
X158041278Y-87568105D03*
%TO.P,Y1,4,G_4*%
%TO.N,/AGND*%
X157015973Y-86542800D03*
%TD*%
D11*
%TO.P,C4,1*%
%TO.N,/AGND*%
X156064448Y-89006227D03*
%TO.P,C4,2*%
%TO.N,Net-(IC1-XOSC_Q1)*%
X155385626Y-88327405D03*
%TD*%
D12*
%TO.P,C5,1*%
%TO.N,/AGND*%
X158257087Y-89252999D03*
%TO.P,C5,2*%
%TO.N,Net-(IC1-XOSC_Q2)*%
X158935909Y-88574177D03*
%TD*%
D13*
%TO.P,U1,6,\u002ACTRL/VDD_6*%
%TO.N,/AVDD*%
X160443076Y-81239999D03*
%TO.P,U1,5,RFC_5*%
%TO.N,/RF_N*%
X160443076Y-80590000D03*
%TO.P,U1,4,CTRL_4*%
%TO.N,Net-(J7-Pin_1)*%
X160443076Y-79940001D03*
%TO.P,U1,3,RF2_3*%
%TO.N,/433_N*%
X162779876Y-79940001D03*
%TO.P,U1,2,GND_2*%
%TO.N,/AGND*%
X162779876Y-80590000D03*
%TO.P,U1,1,RF1_1*%
%TO.N,/868_N*%
X162779876Y-81239999D03*
%TD*%
D14*
%TO.P,L131_1,2,2_2*%
%TO.N,Net-(C121_1-Pad2)*%
X168575517Y-78868700D03*
%TO.P,L131_1,1,1_1*%
%TO.N,/433_N*%
X167605517Y-78868700D03*
%TD*%
D15*
%TO.P,C123_1,2*%
%TO.N,Net-(C123_1-Pad2)*%
X171398111Y-78029925D03*
%TO.P,C123_1,1*%
%TO.N,/AGND*%
X170438111Y-78029925D03*
%TD*%
D16*
%TO.P,IC1,21,GND_3_21*%
%TO.N,/AGND*%
X156596000Y-81873600D03*
D17*
%TO.P,IC1,20,SI_20*%
%TO.N,Net-(IC1-SI)*%
X155596000Y-79973600D03*
%TO.P,IC1,19,GND_2_19*%
%TO.N,/AGND*%
X156096000Y-79973600D03*
%TO.P,IC1,18,DGUARD_18*%
X156596000Y-79973600D03*
%TO.P,IC1,17,RBIAS_17*%
%TO.N,Net-(IC1-RBIAS)*%
X157096000Y-79973600D03*
%TO.P,IC1,16,GND_1_16*%
%TO.N,/AGND*%
X157596000Y-79973600D03*
D18*
%TO.P,IC1,15,AVDD_4_15*%
%TO.N,/AVDD*%
X158496000Y-80873600D03*
%TO.P,IC1,14,AVDD_3_14*%
X158496000Y-81373600D03*
%TO.P,IC1,13,RF_N_13*%
%TO.N,/RF_N*%
X158496000Y-81873600D03*
%TO.P,IC1,12,RF_P_12*%
%TO.N,/RF_P*%
X158496000Y-82373600D03*
%TO.P,IC1,11,AVDD_2_11*%
%TO.N,/AVDD*%
X158496000Y-82873600D03*
D17*
%TO.P,IC1,10,XOSC_Q2_10*%
%TO.N,Net-(IC1-XOSC_Q2)*%
X157596000Y-83773600D03*
%TO.P,IC1,9,AVDD_1_9*%
%TO.N,/AVDD*%
X157096000Y-83773600D03*
%TO.P,IC1,8,XOSC_Q1_8*%
%TO.N,Net-(IC1-XOSC_Q1)*%
X156596000Y-83773600D03*
%TO.P,IC1,7,CSN_7*%
%TO.N,Net-(IC1-CSN)*%
X156096000Y-83773600D03*
%TO.P,IC1,6,GDO0_(ATEST)_6*%
%TO.N,Net-(IC1-GDO0_(ATEST))*%
X155596000Y-83773600D03*
D18*
%TO.P,IC1,5,DCOUPL_5*%
%TO.N,Net-(IC1-DCOUPL)*%
X154696000Y-82873600D03*
%TO.P,IC1,4,DVDD_4*%
%TO.N,/AVDD*%
X154696000Y-82373600D03*
%TO.P,IC1,3,GDO2_3*%
%TO.N,Net-(IC1-GDO2)*%
X154696000Y-81873600D03*
%TO.P,IC1,2,SO_(GDO1)_2*%
%TO.N,Net-(IC1-SO_(GDO1))*%
X154696000Y-81373600D03*
%TO.P,IC1,1,SCLK_1*%
%TO.N,Net-(IC1-SCLK)*%
X154696000Y-80873600D03*
%TD*%
D19*
%TO.P,J8,1,Pin_1_1*%
%TO.N,Net-(J8-Pin_1)*%
X148180000Y-86290000D03*
%TD*%
%TO.P,J7,1,Pin_1_1*%
%TO.N,Net-(J7-Pin_1)*%
X145640000Y-81210000D03*
%TD*%
D20*
%TO.P,L121_1,2,2_2*%
%TO.N,/433_P*%
X165753711Y-85523700D03*
%TO.P,L121_1,1,1_1*%
%TO.N,Net-(C124_1-Pad2)*%
X165753711Y-86493700D03*
%TD*%
D15*
%TO.P,C3,2*%
%TO.N,/AVDD*%
X152473600Y-82092800D03*
%TO.P,C3,1*%
%TO.N,/AGND*%
X151513600Y-82092800D03*
%TD*%
D21*
%TO.P,C51,2*%
%TO.N,/AGND*%
X151513600Y-83159600D03*
%TO.P,C51,1*%
%TO.N,Net-(IC1-DCOUPL)*%
X152473600Y-83159600D03*
%TD*%
D14*
%TO.P,L122_1,2,2_2*%
%TO.N,Net-(C122_1-Pad2)*%
X171398111Y-82189700D03*
%TO.P,L122_1,1,1_1*%
%TO.N,Net-(C121_1-Pad2)*%
X170428111Y-82189700D03*
%TD*%
D19*
%TO.P,J3,1,Pin_1_1*%
%TO.N,Net-(IC1-GDO2)*%
X148180000Y-78670000D03*
%TD*%
D22*
%TO.P,C131_1,2*%
%TO.N,/AGND*%
X165753711Y-77908700D03*
%TO.P,C131_1,1*%
%TO.N,/433_N*%
X165753711Y-78868700D03*
%TD*%
D23*
%TO.P,BT1,2,-_2*%
%TO.N,/AGND*%
X145640000Y-73590000D03*
D19*
%TO.P,BT1,1,+_1*%
%TO.N,/AVDD*%
X148180000Y-73590000D03*
%TD*%
D13*
%TO.P,U3,6,\u002ACTRL/VDD_6*%
%TO.N,/AVDD*%
X160443076Y-84414462D03*
%TO.P,U3,5,RFC_5*%
%TO.N,/RF_P*%
X160443076Y-83764463D03*
%TO.P,U3,4,CTRL_4*%
%TO.N,Net-(J8-Pin_1)*%
X160443076Y-83114464D03*
%TO.P,U3,3,RF2_3*%
%TO.N,/868_P*%
X162779876Y-83114464D03*
%TO.P,U3,2,GND_2*%
%TO.N,/AGND*%
X162779876Y-83764463D03*
%TO.P,U3,1,RF1_1*%
%TO.N,/433_P*%
X162779876Y-84414462D03*
%TD*%
D19*
%TO.P,J1,1,Pin_1_1*%
%TO.N,Net-(IC1-SCLK)*%
X148180000Y-76130000D03*
%TD*%
D21*
%TO.P,C131_2,2*%
%TO.N,/AGND*%
X164384711Y-79988900D03*
%TO.P,C131_2,1*%
%TO.N,Net-(C121_2-Pad1)*%
X165344711Y-79988900D03*
%TD*%
D14*
%TO.P,L132_2,2,2_2*%
%TO.N,Net-(C122_2-Pad2)*%
X167381711Y-81004900D03*
%TO.P,L132_2,1,1_1*%
%TO.N,Net-(C121_2-Pad1)*%
X166411711Y-81004900D03*
%TD*%
D21*
%TO.P,C121_2,2*%
%TO.N,Net-(C121_2-Pad2)*%
X165375311Y-82097100D03*
%TO.P,C121_2,1*%
%TO.N,Net-(C121_2-Pad1)*%
X166335311Y-82097100D03*
%TD*%
D19*
%TO.P,J6,1,Pin_1_1*%
%TO.N,Net-(IC1-CSN)*%
X148180000Y-83750000D03*
%TD*%
D15*
%TO.P,C2,2*%
%TO.N,/AVDD*%
X152473600Y-81026000D03*
%TO.P,C2,1*%
%TO.N,/AGND*%
X151513600Y-81026000D03*
%TD*%
D19*
%TO.P,J4,1,Pin_1_1*%
%TO.N,Net-(IC1-SI)*%
X145640000Y-83750000D03*
%TD*%
D24*
%TO.P,AE2,2,Shield_2*%
%TO.N,/AGND*%
X175977636Y-90234953D03*
X175977636Y-81714953D03*
D25*
%TO.P,AE2,1,A_1*%
%TO.N,/868_A*%
X175627636Y-85974953D03*
%TD*%
D19*
%TO.P,J2,1,Pin_1_1*%
%TO.N,Net-(IC1-SO_(GDO1))*%
X145640000Y-86290000D03*
%TD*%
D15*
%TO.P,C122_2,2*%
%TO.N,Net-(C122_2-Pad2)*%
X167351311Y-83214700D03*
%TO.P,C122_2,1*%
%TO.N,Net-(C121_2-Pad2)*%
X166391311Y-83214700D03*
%TD*%
D19*
%TO.P,J5,1,Pin_1_1*%
%TO.N,Net-(IC1-GDO0_(ATEST))*%
X148180000Y-81210000D03*
%TD*%
D26*
%TO.P,L124_2,2,2_2*%
%TO.N,Net-(C125_2-Pad2)*%
X171265611Y-83773500D03*
%TO.P,L124_2,1,1_1*%
%TO.N,Net-(C123_2-Pad2)*%
X169690611Y-83773500D03*
%TD*%
D22*
%TO.P,C123_2,2*%
%TO.N,Net-(C123_2-Pad2)*%
X168395311Y-83191900D03*
%TO.P,C123_2,1*%
%TO.N,/AGND*%
X168395311Y-84151900D03*
%TD*%
D27*
%TO.P,AE1,2,Shield_2*%
%TO.N,/AGND*%
X175658111Y-69800000D03*
X167138111Y-69800000D03*
D28*
%TO.P,AE1,1,A_1*%
%TO.N,/433_A*%
X171398111Y-70150000D03*
%TD*%
D15*
%TO.P,C1,2*%
%TO.N,/AVDD*%
X152473600Y-79959200D03*
%TO.P,C1,1*%
%TO.N,/AGND*%
X151513600Y-79959200D03*
%TD*%
D21*
%TO.P,C122_1,2*%
%TO.N,Net-(C122_1-Pad2)*%
X171398111Y-81109775D03*
%TO.P,C122_1,1*%
%TO.N,/AGND*%
X172358111Y-81109775D03*
%TD*%
D22*
%TO.P,C125_2,2*%
%TO.N,Net-(C125_2-Pad2)*%
X171270000Y-85080000D03*
%TO.P,C125_2,1*%
%TO.N,/868_A*%
X171270000Y-86040000D03*
%TD*%
D15*
%TO.P,C121_1,2*%
%TO.N,Net-(C121_1-Pad2)*%
X168570517Y-85500700D03*
%TO.P,C121_1,1*%
%TO.N,/433_P*%
X167610517Y-85500700D03*
%TD*%
D29*
%TO.P,R171,2*%
%TO.N,Net-(IC1-RBIAS)*%
X157073600Y-78691200D03*
%TO.P,R171,1*%
%TO.N,/AGND*%
X157073600Y-77671200D03*
%TD*%
D14*
%TO.P,L121_2,2,2_2*%
%TO.N,Net-(C121_2-Pad2)*%
X165375111Y-83214700D03*
%TO.P,L121_2,1,1_1*%
%TO.N,/868_P*%
X164405111Y-83214700D03*
%TD*%
D15*
%TO.P,C124_2,2*%
%TO.N,Net-(C124_2-Pad2)*%
X165395511Y-84230700D03*
%TO.P,C124_2,1*%
%TO.N,/AGND*%
X164435511Y-84230700D03*
%TD*%
D30*
%TO.P,C125_1,2*%
%TO.N,Net-(C123_1-Pad2)*%
X171398111Y-76990000D03*
%TO.P,C125_1,1*%
%TO.N,/433_A*%
X171398111Y-76030000D03*
%TD*%
D19*
%TO.P,J9,1,Pin_1_1*%
%TO.N,/AGND*%
X145640000Y-78670000D03*
%TD*%
D20*
%TO.P,L123_1,2,2_2*%
%TO.N,Net-(C123_1-Pad2)*%
X171398111Y-79084850D03*
%TO.P,L123_1,1,1_1*%
%TO.N,Net-(C122_1-Pad2)*%
X171398111Y-80054850D03*
%TD*%
D19*
%TO.P,J1,1,Pin_1_1*%
%TO.N,/AGND*%
X145640000Y-76130000D03*
%TD*%
D31*
%TO.P,L122_2,2,2_2*%
%TO.N,Net-(C124_2-Pad2)*%
X166386311Y-84281500D03*
%TO.P,L122_2,1,1_1*%
%TO.N,Net-(C121_2-Pad2)*%
X167356311Y-84281500D03*
%TD*%
D14*
%TO.P,L123_2,2,2_2*%
%TO.N,Net-(C123_2-Pad2)*%
X168372311Y-82097100D03*
%TO.P,L123_2,1,1_1*%
%TO.N,Net-(C122_2-Pad2)*%
X167402311Y-82097100D03*
%TD*%
%TO.P,L131_2,2,2_2*%
%TO.N,Net-(C121_2-Pad1)*%
X165349711Y-81004900D03*
%TO.P,L131_2,1,1_1*%
%TO.N,/868_N*%
X164379711Y-81004900D03*
%TD*%
D22*
%TO.P,C124_1,2*%
%TO.N,Net-(C124_1-Pad2)*%
X165753711Y-87509900D03*
%TO.P,C124_1,1*%
%TO.N,/AGND*%
X165753711Y-88469900D03*
%TD*%
D32*
%TO.N,/AGND*%
X167138111Y-69800000D03*
X175658111Y-69800000D03*
X170500000Y-75340000D03*
X170500000Y-74515000D03*
X172310000Y-73690000D03*
X172300000Y-74515000D03*
X172300000Y-75340000D03*
X170600000Y-86960000D03*
X170260000Y-85520000D03*
X168090000Y-86530000D03*
X166820000Y-86380000D03*
X164730000Y-86450000D03*
X163200000Y-85600000D03*
X161620000Y-85120000D03*
X170430000Y-79030000D03*
X169600000Y-78140000D03*
X168080000Y-77820000D03*
X166670000Y-77970000D03*
X164880000Y-77970000D03*
X163070000Y-78570000D03*
X161450000Y-78980000D03*
X168910000Y-77470000D03*
X163830000Y-77470000D03*
X161290000Y-77470000D03*
X153670000Y-87630000D03*
X151130000Y-87630000D03*
X158750000Y-90170000D03*
X156210000Y-90170000D03*
X153670000Y-90170000D03*
X151130000Y-90170000D03*
X169330000Y-86380000D03*
X168910000Y-87630000D03*
X163830000Y-87630000D03*
X161290000Y-87630000D03*
X161290000Y-90170000D03*
X163830000Y-90170000D03*
X166370000Y-90170000D03*
X168910000Y-90170000D03*
X171450000Y-90170000D03*
X173990000Y-74930000D03*
X173990000Y-77470000D03*
X176530000Y-77470000D03*
X176530000Y-74930000D03*
X168910000Y-74930000D03*
X166370000Y-74930000D03*
X151130000Y-72390000D03*
X153670000Y-72390000D03*
X154940000Y-71120000D03*
X153670000Y-69850000D03*
X151130000Y-69850000D03*
X165100000Y-88900000D03*
X160020000Y-86360000D03*
X162560000Y-86360000D03*
X162560000Y-88900000D03*
X160020000Y-88900000D03*
X152400000Y-88900000D03*
X149860000Y-88900000D03*
X149860000Y-91440000D03*
X152400000Y-91440000D03*
X154940000Y-91440000D03*
X157480000Y-91440000D03*
X160020000Y-91440000D03*
X162560000Y-91440000D03*
X165100000Y-91440000D03*
X170180000Y-91440000D03*
X167640000Y-91440000D03*
X167640000Y-88900000D03*
X170180000Y-88900000D03*
X177800000Y-73660000D03*
X177800000Y-76200000D03*
X177800000Y-78740000D03*
X175260000Y-78740000D03*
X172720000Y-78740000D03*
X172720000Y-76200000D03*
X175260000Y-76200000D03*
X175260000Y-73660000D03*
X167640000Y-73660000D03*
X170500000Y-73690000D03*
X170180000Y-76200000D03*
X167640000Y-76200000D03*
X165100000Y-76200000D03*
X162560000Y-76200000D03*
X152400000Y-71120000D03*
X149860000Y-71120000D03*
X149860000Y-68580000D03*
X152400000Y-68580000D03*
X154940000Y-68580000D03*
X157156497Y-89476707D03*
X157480000Y-71120000D03*
X156210000Y-72390000D03*
X158750000Y-69850000D03*
X160020000Y-73660000D03*
X158550000Y-84910000D03*
X156210000Y-74930000D03*
X157886400Y-77724000D03*
X157480000Y-68580000D03*
X161290000Y-74930000D03*
X165100000Y-73660000D03*
X163830000Y-69850000D03*
X172230000Y-85130000D03*
X160020000Y-68580000D03*
X163830000Y-74930000D03*
X163734250Y-80415196D03*
X165100000Y-68580000D03*
X172720000Y-83820000D03*
X151600000Y-83740000D03*
X163830000Y-72390000D03*
X165100000Y-71120000D03*
X150810000Y-81000000D03*
X154080000Y-83720000D03*
X151485600Y-79121000D03*
X158750000Y-74930000D03*
X162560000Y-68580000D03*
X163710076Y-83989957D03*
X159640000Y-85330000D03*
X175977636Y-81714953D03*
X154940000Y-73660000D03*
X168406523Y-84690805D03*
X157480000Y-76200000D03*
X156596000Y-81873600D03*
X162560000Y-71120000D03*
X159380000Y-77920000D03*
X172720000Y-88900000D03*
X175260000Y-88900000D03*
X160020000Y-71120000D03*
X153670000Y-74930000D03*
X150850000Y-79930000D03*
X158750000Y-72390000D03*
X160020000Y-76200000D03*
X151130000Y-74930000D03*
X152400000Y-73660000D03*
X154940000Y-76200000D03*
X177800000Y-88900000D03*
X172230000Y-86920000D03*
X177800000Y-83820000D03*
X162560000Y-73660000D03*
X158464265Y-78675735D03*
X175260000Y-83820000D03*
X161290000Y-69850000D03*
X157480000Y-73660000D03*
X156210000Y-69850000D03*
X161290000Y-72390000D03*
%TO.N,Net-(J7-Pin_1)*%
X161460000Y-79940000D03*
%TO.N,/AVDD*%
X158750000Y-83921600D03*
X152552400Y-79146400D03*
X157060000Y-85320000D03*
X158480000Y-79910000D03*
X161230000Y-81720000D03*
%TO.N,Net-(IC1-SO_(GDO1))*%
X154090000Y-78910000D03*
%TO.N,Net-(IC1-SI)*%
X155549600Y-78536800D03*
%TO.N,Net-(J8-Pin_1)*%
X161250000Y-82650000D03*
%TO.N,/AGND*%
X172720000Y-91440000D03*
X175977636Y-90234953D03*
%TD*%
%TO.N,/AVDD*%
D33*
X158496000Y-83667600D02*
X158750000Y-83921600D01*
X158496000Y-82873600D02*
X158496000Y-83667600D01*
X158480000Y-79910000D02*
X158480000Y-80095600D01*
X158480000Y-80095600D02*
X158496000Y-80111600D01*
X158496000Y-80111600D02*
X158496000Y-80873600D01*
%TO.N,Net-(J7-Pin_1)*%
X161459999Y-79940001D02*
X160443076Y-79940001D01*
X161460000Y-79940000D02*
X161459999Y-79940001D01*
%TO.N,/433_A*%
X171398111Y-70324600D02*
X171572711Y-70150000D01*
D34*
X171398111Y-76030000D02*
X171398111Y-70324600D01*
%TO.N,Net-(C123_1-Pad2)*%
D33*
X171398111Y-79084850D02*
X171398111Y-76990000D01*
%TO.N,Net-(C122_1-Pad2)*%
X171398111Y-82189700D02*
X171398111Y-80054850D01*
%TO.N,/AGND*%
X168395311Y-84679593D02*
X168395311Y-84151900D01*
X168406523Y-84690805D02*
X168395311Y-84679593D01*
%TO.N,Net-(C121_1-Pad2)*%
X170428111Y-84250686D02*
X170428111Y-80208111D01*
X170428111Y-80208111D02*
X169088700Y-78868700D01*
X169178097Y-85500700D02*
X170428111Y-84250686D01*
X169088700Y-78868700D02*
X168575517Y-78868700D01*
X168570517Y-85500700D02*
X169178097Y-85500700D01*
%TO.N,/433_P*%
X165776711Y-85500700D02*
X165753711Y-85523700D01*
X167610517Y-85500700D02*
X165776711Y-85500700D01*
%TO.N,/433_N*%
X165753711Y-78868700D02*
X167605517Y-78868700D01*
%TO.N,Net-(IC1-XOSC_Q1)*%
X156596000Y-84934000D02*
X156596000Y-83773600D01*
X156110000Y-85420000D02*
X156596000Y-84934000D01*
X156110000Y-87263173D02*
X156110000Y-85420000D01*
X156202800Y-87355973D02*
X156110000Y-87263173D01*
%TO.N,Net-(IC1-XOSC_Q2)*%
X157610000Y-83787600D02*
X157596000Y-83773600D01*
X157610000Y-84980000D02*
X157610000Y-83787600D01*
X158041278Y-85411278D02*
X157610000Y-84980000D01*
X158041278Y-87568105D02*
X158041278Y-85411278D01*
%TO.N,/AVDD*%
X157100000Y-85280000D02*
X157100000Y-84919200D01*
X157060000Y-85320000D02*
X157100000Y-85280000D01*
X157096000Y-84915200D02*
X157096000Y-83773600D01*
X157100000Y-84919200D02*
X157096000Y-84915200D01*
%TO.N,Net-(IC1-XOSC_Q1)*%
X155465626Y-88093147D02*
X156202800Y-87355973D01*
X155465626Y-88387405D02*
X155465626Y-88093147D01*
%TO.N,/AGND*%
X157229802Y-89509537D02*
X157228105Y-89507840D01*
X157140000Y-88293172D02*
X157140000Y-86666827D01*
X156494928Y-89476707D02*
X157156497Y-89476707D01*
X156204449Y-89186228D02*
X156494928Y-89476707D01*
X158257087Y-89252999D02*
X158000549Y-89509537D01*
X157228105Y-88381278D02*
X157140000Y-88293172D01*
X158000549Y-89509537D02*
X157229802Y-89509537D01*
X157228105Y-89507840D02*
X157228105Y-88381278D01*
X157140000Y-86666827D02*
X157015973Y-86542800D01*
%TO.N,Net-(IC1-XOSC_Q2)*%
X158041278Y-87679545D02*
X158041278Y-87568105D01*
%TO.N,Net-(IC1-XOSC_Q1)*%
X156202800Y-87682939D02*
X156202800Y-87355973D01*
%TO.N,Net-(IC1-XOSC_Q2)*%
X158935910Y-88574176D02*
X158041278Y-87679545D01*
X158041278Y-87568105D02*
X158149890Y-87568105D01*
%TO.N,Net-(IC1-CSN)*%
X148180000Y-83750000D02*
X150050000Y-85620000D01*
X150050000Y-85620000D02*
X150970000Y-85620000D01*
X156096000Y-84534000D02*
X156096000Y-83773600D01*
X155010000Y-85620000D02*
X156096000Y-84534000D01*
X150970000Y-85620000D02*
X155010000Y-85620000D01*
%TO.N,/AVDD*%
X161230000Y-81720000D02*
X160749999Y-81239999D01*
X160749999Y-81239999D02*
X160443076Y-81239999D01*
%TO.N,Net-(J8-Pin_1)*%
X160443076Y-83093076D02*
X160443076Y-83114464D01*
X160462717Y-83073435D02*
X160443076Y-83093076D01*
X160826565Y-83073435D02*
X160462717Y-83073435D01*
X161250000Y-82650000D02*
X160826565Y-83073435D01*
%TO.N,Net-(IC1-DCOUPL)*%
X153640000Y-82880000D02*
X153309600Y-83210400D01*
X154689600Y-82880000D02*
X153640000Y-82880000D01*
X154696000Y-82873600D02*
X154689600Y-82880000D01*
X153309600Y-83210400D02*
X152524400Y-83210400D01*
%TO.N,Net-(IC1-GDO2)*%
X153567600Y-81823600D02*
X154646000Y-81823600D01*
X152931741Y-78521000D02*
X153422400Y-79011659D01*
X148329000Y-78521000D02*
X152931741Y-78521000D01*
X153422400Y-79011659D02*
X153422400Y-81678400D01*
X154646000Y-81823600D02*
X154696000Y-81873600D01*
X148180000Y-78670000D02*
X148329000Y-78521000D01*
X153422400Y-81678400D02*
X153567600Y-81823600D01*
%TO.N,/868_N*%
X162829875Y-81190000D02*
X164194611Y-81190000D01*
X162779876Y-81239999D02*
X162829875Y-81190000D01*
X164194611Y-81190000D02*
X164379711Y-81004900D01*
X164379711Y-81004900D02*
X164379711Y-81180806D01*
%TO.N,/AGND*%
X163958415Y-80415196D02*
X164384711Y-79988900D01*
X163734250Y-80415196D02*
X163734250Y-80564867D01*
X151513600Y-83159600D02*
X151513600Y-79959200D01*
X156096000Y-79973600D02*
X156096000Y-81373600D01*
X163950819Y-84230700D02*
X164435511Y-84230700D01*
X157596000Y-80873600D02*
X156596000Y-81873600D01*
X163710076Y-83989957D02*
X163484582Y-83764463D01*
X163734250Y-80415196D02*
X163958415Y-80415196D01*
X163710076Y-83989957D02*
X163950819Y-84230700D01*
X157596000Y-79973600D02*
X157596000Y-80873600D01*
X151485600Y-79931200D02*
X151513600Y-79959200D01*
X156596000Y-79973600D02*
X156596000Y-81873600D01*
X151485600Y-79121000D02*
X151485600Y-79931200D01*
X163484582Y-83764463D02*
X162779876Y-83764463D01*
X156096000Y-81373600D02*
X156596000Y-81873600D01*
X157833600Y-77671200D02*
X157886400Y-77724000D01*
X163709117Y-80590000D02*
X162779876Y-80590000D01*
X145640000Y-76130000D02*
X145640000Y-73590000D01*
X163734250Y-80564867D02*
X163709117Y-80590000D01*
X157073600Y-77671200D02*
X157833600Y-77671200D01*
%TO.N,/433_N*%
X162779876Y-79940001D02*
X162978916Y-79940001D01*
X165753711Y-78868700D02*
X164050217Y-78868700D01*
X162978916Y-79940001D02*
X164050217Y-78868700D01*
%TO.N,/RF_N*%
X159271000Y-81823600D02*
X159221000Y-81873600D01*
X159221000Y-81873600D02*
X159000000Y-81873600D01*
X159747776Y-80590000D02*
X159271000Y-81066776D01*
X160443076Y-80590000D02*
X159747776Y-80590000D01*
D35*
X158496000Y-81873600D02*
X159221000Y-81873600D01*
D33*
X159271000Y-81066776D02*
X159271000Y-81823600D01*
%TO.N,/AVDD*%
X154696000Y-82373600D02*
X152754400Y-82373600D01*
X152473600Y-79225200D02*
X152473600Y-82092800D01*
X160443076Y-84414462D02*
X159242862Y-84414462D01*
X159242862Y-84414462D02*
X158750000Y-83921600D01*
X152552400Y-79146400D02*
X152473600Y-79225200D01*
X158496000Y-80873600D02*
X158496000Y-81373600D01*
X152754400Y-82373600D02*
X152473600Y-82092800D01*
%TO.N,Net-(IC1-SCLK)*%
X148180000Y-76130000D02*
X152158529Y-76130000D01*
X154696000Y-78667471D02*
X154696000Y-80873600D01*
X152158529Y-76130000D02*
X154696000Y-78667471D01*
%TO.N,Net-(IC1-SO_(GDO1))*%
X154089744Y-78910000D02*
X153822400Y-79177344D01*
X153971000Y-81373600D02*
X154696000Y-81373600D01*
X154090000Y-78910000D02*
X154089744Y-78910000D01*
X153822400Y-79177344D02*
X153822400Y-81225000D01*
X153822400Y-81225000D02*
X153971000Y-81373600D01*
%TO.N,Net-(IC1-GDO0_(ATEST))*%
X148180000Y-81380000D02*
X148180000Y-81210000D01*
X155189600Y-83773600D02*
X153781413Y-85181787D01*
X151981787Y-85181787D02*
X148180000Y-81380000D01*
X153781413Y-85181787D02*
X151981787Y-85181787D01*
X155596000Y-83773600D02*
X155189600Y-83773600D01*
%TO.N,/RF_P*%
D35*
X158496000Y-82373600D02*
X158571000Y-82448600D01*
D33*
X159271000Y-82423600D02*
X159230000Y-82423600D01*
X159271000Y-83287687D02*
X159271000Y-82423600D01*
X159747776Y-83764463D02*
X159271000Y-83287687D01*
X159230000Y-82423600D02*
X159230000Y-82382600D01*
X159221000Y-82373600D02*
X158496000Y-82373600D01*
X159230000Y-82382600D02*
X159221000Y-82373600D01*
X160443076Y-83764463D02*
X159747776Y-83764463D01*
%TO.N,Net-(IC1-RBIAS)*%
X157073600Y-79951200D02*
X157096000Y-79973600D01*
X157073600Y-78691200D02*
X157073600Y-79951200D01*
%TO.N,Net-(IC1-SI)*%
X155596000Y-78583200D02*
X155549600Y-78536800D01*
X155596000Y-79973600D02*
X155596000Y-78583200D01*
%TO.N,Net-(C124_1-Pad2)*%
X165753711Y-87509900D02*
X165753711Y-86493700D01*
%TO.N,/433_P*%
X165697411Y-85580000D02*
X164440000Y-85580000D01*
X164440000Y-85580000D02*
X163274462Y-84414462D01*
X165753711Y-85523700D02*
X165697411Y-85580000D01*
X163274462Y-84414462D02*
X162779876Y-84414462D01*
%TO.N,/868_P*%
X162779876Y-83114464D02*
X164304875Y-83114464D01*
X164304875Y-83114464D02*
X164405111Y-83214700D01*
%TO.N,Net-(C121_2-Pad1)*%
X166335311Y-81081300D02*
X166411711Y-81004900D01*
X166335311Y-82097100D02*
X166335311Y-81081300D01*
X165344711Y-79988900D02*
X165344711Y-80999900D01*
X166411711Y-81004900D02*
X165349711Y-81004900D01*
X165344711Y-80999900D02*
X165349711Y-81004900D01*
%TO.N,Net-(C122_2-Pad2)*%
X167351311Y-83214700D02*
X167351311Y-81035300D01*
X167351311Y-81035300D02*
X167381711Y-81004900D01*
%TO.N,Net-(C121_2-Pad2)*%
X165375311Y-83214500D02*
X165375111Y-83214700D01*
X167356311Y-84179700D02*
X166391311Y-83214700D01*
X167356311Y-84281500D02*
X167356311Y-84179700D01*
X165375111Y-83214700D02*
X166391311Y-83214700D01*
X165375311Y-82097100D02*
X165375311Y-83214500D01*
%TO.N,Net-(C123_2-Pad2)*%
X168372311Y-83168900D02*
X168395311Y-83191900D01*
X168395311Y-83191900D02*
X169109011Y-83191900D01*
X169109011Y-83191900D02*
X169690611Y-83773500D01*
X168372311Y-82097100D02*
X168372311Y-83168900D01*
%TO.N,Net-(C125_2-Pad2)*%
X171270000Y-83777889D02*
X171265611Y-83773500D01*
X171270000Y-85080000D02*
X171270000Y-83777889D01*
%TO.N,/868_A*%
X171270000Y-86040000D02*
X175562589Y-86040000D01*
X175562589Y-86040000D02*
X175627636Y-85974953D01*
%TO.N,Net-(C124_2-Pad2)*%
X165395511Y-84230700D02*
X166335511Y-84230700D01*
X166335511Y-84230700D02*
X166386311Y-84281500D01*
%TD*%
%TA.AperFunction,Conductor*%
%TO.N,/AGND*%
G36*
X158501895Y-84685286D02*
G01*
X158516503Y-84691337D01*
X158581147Y-84704195D01*
X158671849Y-84722238D01*
X158688605Y-84731002D01*
X158707085Y-84735023D01*
X158732123Y-84753767D01*
X158733760Y-84754623D01*
X158735339Y-84756174D01*
X158758001Y-84778836D01*
X158758011Y-84778847D01*
X158762341Y-84783177D01*
X158762342Y-84783178D01*
X158874146Y-84894982D01*
X158951220Y-84939480D01*
X159011077Y-84974039D01*
X159163805Y-85014962D01*
X159321919Y-85014962D01*
X159635993Y-85014962D01*
X159697068Y-85032895D01*
X159697662Y-85031808D01*
X159702662Y-85034538D01*
X159703032Y-85034647D01*
X159703661Y-85035083D01*
X159705447Y-85036059D01*
X159840293Y-85086353D01*
X159840292Y-85086353D01*
X159847220Y-85087097D01*
X159899903Y-85092762D01*
X160986248Y-85092761D01*
X161045859Y-85086353D01*
X161180707Y-85036058D01*
X161295922Y-84949808D01*
X161340928Y-84889688D01*
X161396862Y-84847818D01*
X161440194Y-84840000D01*
X161782758Y-84840000D01*
X161849797Y-84859685D01*
X161882025Y-84889688D01*
X161919298Y-84939480D01*
X161927031Y-84949809D01*
X162042240Y-85036055D01*
X162042247Y-85036059D01*
X162177093Y-85086353D01*
X162177092Y-85086353D01*
X162184020Y-85087097D01*
X162236703Y-85092762D01*
X163052163Y-85092761D01*
X163119202Y-85112445D01*
X163139844Y-85129080D01*
X164071284Y-86060520D01*
X164071286Y-86060521D01*
X164071290Y-86060524D01*
X164175173Y-86120500D01*
X164208216Y-86139577D01*
X164360943Y-86180501D01*
X164360945Y-86180501D01*
X164526654Y-86180501D01*
X164526670Y-86180500D01*
X164809211Y-86180500D01*
X164876250Y-86200185D01*
X164922005Y-86252989D01*
X164933211Y-86304500D01*
X164933211Y-86706647D01*
X164936101Y-86743373D01*
X164936102Y-86743379D01*
X164981777Y-86900592D01*
X164981780Y-86900597D01*
X165012125Y-86951910D01*
X165029306Y-87019634D01*
X165012126Y-87078147D01*
X164991218Y-87113501D01*
X164991215Y-87113510D01*
X164946068Y-87268902D01*
X164946067Y-87268908D01*
X164943211Y-87305202D01*
X164943211Y-87714597D01*
X164946067Y-87750891D01*
X164946068Y-87750897D01*
X164991215Y-87906290D01*
X164991216Y-87906293D01*
X164991217Y-87906295D01*
X165012013Y-87941459D01*
X165073592Y-88045584D01*
X165073598Y-88045592D01*
X165188018Y-88160012D01*
X165188022Y-88160015D01*
X165188024Y-88160017D01*
X165327316Y-88242394D01*
X165368298Y-88254300D01*
X165482713Y-88287542D01*
X165482716Y-88287542D01*
X165482718Y-88287543D01*
X165519021Y-88290400D01*
X165519029Y-88290400D01*
X165988393Y-88290400D01*
X165988401Y-88290400D01*
X166024704Y-88287543D01*
X166024706Y-88287542D01*
X166024708Y-88287542D01*
X166093003Y-88267700D01*
X166180106Y-88242394D01*
X166319398Y-88160017D01*
X166433828Y-88045587D01*
X166516205Y-87906295D01*
X166553020Y-87779578D01*
X166561353Y-87750897D01*
X166561354Y-87750891D01*
X166564211Y-87714590D01*
X166564211Y-87305210D01*
X166561354Y-87268907D01*
X166559563Y-87262743D01*
X166516206Y-87113509D01*
X166516205Y-87113506D01*
X166516205Y-87113505D01*
X166495295Y-87078147D01*
X166478113Y-87010426D01*
X166495294Y-86951911D01*
X166525642Y-86900597D01*
X166537510Y-86859750D01*
X166571319Y-86743379D01*
X166571320Y-86743373D01*
X166574211Y-86706640D01*
X166574211Y-86280760D01*
X166571320Y-86244025D01*
X166570823Y-86237708D01*
X166573000Y-86237536D01*
X166574059Y-86227474D01*
X166571195Y-86207553D01*
X166577641Y-86193436D01*
X166579266Y-86178004D01*
X166591859Y-86162304D01*
X166600220Y-86143997D01*
X166613274Y-86135607D01*
X166622985Y-86123502D01*
X166642067Y-86117103D01*
X166658998Y-86106223D01*
X166686164Y-86102317D01*
X166689230Y-86101289D01*
X166693933Y-86101200D01*
X166943851Y-86101200D01*
X167010890Y-86120885D01*
X167031533Y-86137520D01*
X167074824Y-86180812D01*
X167074828Y-86180815D01*
X167074830Y-86180817D01*
X167214122Y-86263194D01*
X167255104Y-86275100D01*
X167369519Y-86308342D01*
X167369522Y-86308342D01*
X167369524Y-86308343D01*
X167405827Y-86311200D01*
X167405835Y-86311200D01*
X167815199Y-86311200D01*
X167815207Y-86311200D01*
X167851510Y-86308343D01*
X167851512Y-86308342D01*
X167851514Y-86308342D01*
X167945634Y-86280997D01*
X168006912Y-86263194D01*
X168027396Y-86251079D01*
X168095118Y-86233896D01*
X168153636Y-86251079D01*
X168174122Y-86263194D01*
X168174124Y-86263194D01*
X168174125Y-86263195D01*
X168329519Y-86308342D01*
X168329522Y-86308342D01*
X168329524Y-86308343D01*
X168365827Y-86311200D01*
X168365835Y-86311200D01*
X168775199Y-86311200D01*
X168775207Y-86311200D01*
X168811510Y-86308343D01*
X168811512Y-86308342D01*
X168811514Y-86308342D01*
X168905634Y-86280997D01*
X168966912Y-86263194D01*
X169106204Y-86180817D01*
X169149500Y-86137521D01*
X169210823Y-86104035D01*
X169237182Y-86101201D01*
X169257151Y-86101201D01*
X169257154Y-86101201D01*
X169409882Y-86060277D01*
X169424373Y-86051910D01*
X169463349Y-86029408D01*
X169463360Y-86029400D01*
X169463372Y-86029394D01*
X169546813Y-85981220D01*
X169658617Y-85869416D01*
X169658617Y-85869414D01*
X169668821Y-85859211D01*
X169668824Y-85859206D01*
X170256619Y-85271412D01*
X170258199Y-85270549D01*
X170259108Y-85268991D01*
X170288756Y-85253864D01*
X170317941Y-85237928D01*
X170319738Y-85238056D01*
X170321345Y-85237237D01*
X170354441Y-85240538D01*
X170387633Y-85242912D01*
X170389077Y-85243993D01*
X170390870Y-85244172D01*
X170416927Y-85264842D01*
X170443566Y-85284784D01*
X170444646Y-85286830D01*
X170445608Y-85287593D01*
X170451382Y-85299588D01*
X170461649Y-85319032D01*
X170462577Y-85321750D01*
X170507506Y-85476395D01*
X170526113Y-85507858D01*
X170530237Y-85519938D01*
X170531221Y-85542609D01*
X170536801Y-85564604D01*
X170532771Y-85578327D01*
X170533267Y-85589741D01*
X170525517Y-85603034D01*
X170519620Y-85623120D01*
X170507506Y-85643602D01*
X170507504Y-85643608D01*
X170462357Y-85799002D01*
X170462356Y-85799008D01*
X170459500Y-85835302D01*
X170459500Y-86244697D01*
X170462356Y-86280991D01*
X170462357Y-86280997D01*
X170507504Y-86436390D01*
X170507505Y-86436393D01*
X170589881Y-86575684D01*
X170589887Y-86575692D01*
X170704307Y-86690112D01*
X170704311Y-86690115D01*
X170704313Y-86690117D01*
X170843605Y-86772494D01*
X170884587Y-86784400D01*
X170999002Y-86817642D01*
X170999005Y-86817642D01*
X170999007Y-86817643D01*
X171035310Y-86820500D01*
X171035318Y-86820500D01*
X171504682Y-86820500D01*
X171504690Y-86820500D01*
X171540993Y-86817643D01*
X171540995Y-86817642D01*
X171540997Y-86817642D01*
X171639447Y-86789039D01*
X171696395Y-86772494D01*
X171835687Y-86690117D01*
X171840421Y-86685383D01*
X171848986Y-86676819D01*
X171910309Y-86643334D01*
X171936667Y-86640500D01*
X172245373Y-86640500D01*
X172312412Y-86660185D01*
X172358167Y-86712989D01*
X172363079Y-86725496D01*
X172390632Y-86808647D01*
X172390637Y-86808658D01*
X172479665Y-86952993D01*
X172479668Y-86952997D01*
X172599591Y-87072920D01*
X172599595Y-87072923D01*
X172743930Y-87161951D01*
X172743933Y-87161952D01*
X172743939Y-87161956D01*
X172904928Y-87215302D01*
X173004291Y-87225453D01*
X178250980Y-87225452D01*
X178250988Y-87225451D01*
X178250991Y-87225451D01*
X178357079Y-87214614D01*
X178357225Y-87216049D01*
X178419216Y-87220688D01*
X178475011Y-87262743D01*
X178499213Y-87328287D01*
X178499500Y-87336726D01*
X178499500Y-90086249D01*
X178499274Y-90093736D01*
X178483186Y-90359688D01*
X178481381Y-90374552D01*
X178434032Y-90632931D01*
X178430448Y-90647470D01*
X178352303Y-90898246D01*
X178346994Y-90912247D01*
X178239184Y-91151791D01*
X178232225Y-91165050D01*
X178096331Y-91389846D01*
X178087825Y-91402169D01*
X177925823Y-91608949D01*
X177915893Y-91620157D01*
X177730157Y-91805893D01*
X177718949Y-91815823D01*
X177512169Y-91977825D01*
X177499846Y-91986331D01*
X177275050Y-92122225D01*
X177261791Y-92129184D01*
X177022247Y-92236994D01*
X177008246Y-92242303D01*
X176757470Y-92320448D01*
X176742931Y-92324032D01*
X176484552Y-92371381D01*
X176469688Y-92373186D01*
X176203736Y-92389274D01*
X176196249Y-92389500D01*
X146363751Y-92389500D01*
X146356264Y-92389274D01*
X146090311Y-92373186D01*
X146075447Y-92371381D01*
X145817068Y-92324032D01*
X145802529Y-92320448D01*
X145551753Y-92242303D01*
X145537752Y-92236994D01*
X145298208Y-92129184D01*
X145284949Y-92122225D01*
X145060153Y-91986331D01*
X145047830Y-91977825D01*
X144841050Y-91815823D01*
X144829842Y-91805893D01*
X144644106Y-91620157D01*
X144634176Y-91608949D01*
X144564529Y-91520051D01*
X144472170Y-91402163D01*
X144463672Y-91389852D01*
X144327771Y-91165044D01*
X144320818Y-91151798D01*
X144213003Y-90912242D01*
X144207696Y-90898246D01*
X144129549Y-90647463D01*
X144125967Y-90632931D01*
X144078618Y-90374552D01*
X144076813Y-90359688D01*
X144070705Y-90258713D01*
X144922300Y-90258713D01*
X144922300Y-90471286D01*
X144955553Y-90681239D01*
X145021244Y-90883414D01*
X145117751Y-91072820D01*
X145242690Y-91244786D01*
X145393013Y-91395109D01*
X145564979Y-91520048D01*
X145564981Y-91520049D01*
X145564984Y-91520051D01*
X145754388Y-91616557D01*
X145956557Y-91682246D01*
X146166513Y-91715500D01*
X146166514Y-91715500D01*
X146379086Y-91715500D01*
X146379087Y-91715500D01*
X146589043Y-91682246D01*
X146791212Y-91616557D01*
X146980616Y-91520051D01*
X147002589Y-91504086D01*
X147152586Y-91395109D01*
X147152588Y-91395106D01*
X147152592Y-91395104D01*
X147302904Y-91244792D01*
X147302906Y-91244788D01*
X147302909Y-91244786D01*
X147427848Y-91072820D01*
X147427847Y-91072820D01*
X147427851Y-91072816D01*
X147524357Y-90883412D01*
X147590046Y-90681243D01*
X147623300Y-90471287D01*
X147623300Y-90258713D01*
X147590046Y-90048757D01*
X147524357Y-89846588D01*
X147427851Y-89657184D01*
X147427849Y-89657181D01*
X147427848Y-89657179D01*
X147302909Y-89485213D01*
X147152586Y-89334890D01*
X146980620Y-89209951D01*
X146791214Y-89113444D01*
X146791213Y-89113443D01*
X146791212Y-89113443D01*
X146589043Y-89047754D01*
X146589041Y-89047753D01*
X146589040Y-89047753D01*
X146427757Y-89022208D01*
X146379087Y-89014500D01*
X146166513Y-89014500D01*
X146117842Y-89022208D01*
X145956560Y-89047753D01*
X145754385Y-89113444D01*
X145564979Y-89209951D01*
X145393013Y-89334890D01*
X145242690Y-89485213D01*
X145117751Y-89657179D01*
X145021244Y-89846585D01*
X144955553Y-90048760D01*
X144922300Y-90258713D01*
X144070705Y-90258713D01*
X144060726Y-90093736D01*
X144060500Y-90086249D01*
X144060500Y-87303613D01*
X144080185Y-87236574D01*
X144132989Y-87190819D01*
X144202147Y-87180875D01*
X144265703Y-87209900D01*
X144300682Y-87260280D01*
X144346202Y-87382328D01*
X144346206Y-87382335D01*
X144432452Y-87497544D01*
X144432455Y-87497547D01*
X144547664Y-87583793D01*
X144547671Y-87583797D01*
X144682517Y-87634091D01*
X144682516Y-87634091D01*
X144689444Y-87634835D01*
X144742127Y-87640500D01*
X146537872Y-87640499D01*
X146597483Y-87634091D01*
X146732331Y-87583796D01*
X146835690Y-87506421D01*
X146901152Y-87482004D01*
X146969425Y-87496855D01*
X146984303Y-87506416D01*
X147087665Y-87583793D01*
X147087668Y-87583795D01*
X147087671Y-87583797D01*
X147222517Y-87634091D01*
X147222516Y-87634091D01*
X147229444Y-87634835D01*
X147282127Y-87640500D01*
X149077872Y-87640499D01*
X149137483Y-87634091D01*
X149272331Y-87583796D01*
X149387546Y-87497546D01*
X149473796Y-87382331D01*
X149524091Y-87247483D01*
X149530500Y-87187873D01*
X149530499Y-86228237D01*
X149550183Y-86161199D01*
X149602987Y-86115444D01*
X149672146Y-86105500D01*
X149716498Y-86120850D01*
X149818216Y-86179577D01*
X149930019Y-86209534D01*
X149970942Y-86220500D01*
X149970943Y-86220500D01*
X150890943Y-86220500D01*
X154923331Y-86220500D01*
X154923347Y-86220501D01*
X154930943Y-86220501D01*
X155089054Y-86220501D01*
X155089057Y-86220501D01*
X155241785Y-86179577D01*
X155291904Y-86150639D01*
X155323502Y-86132396D01*
X155391400Y-86115924D01*
X155457427Y-86138777D01*
X155500618Y-86193698D01*
X155509500Y-86239784D01*
X155509500Y-86618344D01*
X155489815Y-86685383D01*
X155473181Y-86706025D01*
X155256702Y-86922503D01*
X155256696Y-86922510D01*
X155184370Y-87016767D01*
X155123661Y-87163333D01*
X155123660Y-87163335D01*
X155102955Y-87320616D01*
X155102955Y-87320619D01*
X155119360Y-87445232D01*
X155108594Y-87514268D01*
X155062214Y-87566523D01*
X155056161Y-87570078D01*
X155027368Y-87585907D01*
X155027367Y-87585908D01*
X154999684Y-87609552D01*
X154999664Y-87609571D01*
X154667792Y-87941443D01*
X154667776Y-87941460D01*
X154644129Y-87969147D01*
X154644126Y-87969151D01*
X154566167Y-88110959D01*
X154525923Y-88267700D01*
X154525923Y-88429535D01*
X154566167Y-88586276D01*
X154644126Y-88728084D01*
X154644129Y-88728088D01*
X154667776Y-88755775D01*
X154667792Y-88755792D01*
X154957238Y-89045238D01*
X154957254Y-89045253D01*
X154984944Y-89068903D01*
X154984946Y-89068904D01*
X155126754Y-89146863D01*
X155283495Y-89187107D01*
X155283499Y-89187108D01*
X155283503Y-89187108D01*
X155445323Y-89187108D01*
X155445327Y-89187108D01*
X155602071Y-89146863D01*
X155743882Y-89068903D01*
X155771572Y-89045253D01*
X156103474Y-88713351D01*
X156127124Y-88685661D01*
X156205084Y-88543850D01*
X156206481Y-88538407D01*
X156242217Y-88478371D01*
X156304740Y-88447184D01*
X156310364Y-88446311D01*
X156395439Y-88435112D01*
X156542005Y-88374402D01*
X156636264Y-88302075D01*
X156963649Y-87974688D01*
X157024968Y-87941206D01*
X157094660Y-87946190D01*
X157139008Y-87974691D01*
X157678519Y-88514202D01*
X157678526Y-88514208D01*
X157772448Y-88586276D01*
X157772784Y-88586534D01*
X157919349Y-88647244D01*
X158002165Y-88658146D01*
X158066061Y-88686412D01*
X158104533Y-88744736D01*
X158106084Y-88750246D01*
X158116451Y-88790623D01*
X158194409Y-88932430D01*
X158194412Y-88932434D01*
X158218059Y-88960121D01*
X158218075Y-88960138D01*
X158549947Y-89292010D01*
X158549963Y-89292025D01*
X158577653Y-89315675D01*
X158577655Y-89315676D01*
X158719463Y-89393635D01*
X158876204Y-89433879D01*
X158876208Y-89433880D01*
X158876212Y-89433880D01*
X159038032Y-89433880D01*
X159038036Y-89433880D01*
X159194780Y-89393635D01*
X159336591Y-89315675D01*
X159364281Y-89292025D01*
X159653757Y-89002549D01*
X159677407Y-88974859D01*
X159755367Y-88833048D01*
X159795612Y-88676304D01*
X159795612Y-88514476D01*
X159755367Y-88357732D01*
X159755367Y-88357731D01*
X159677408Y-88215923D01*
X159677407Y-88215921D01*
X159653757Y-88188231D01*
X159653742Y-88188215D01*
X159321870Y-87856343D01*
X159321853Y-87856327D01*
X159294166Y-87832680D01*
X159294162Y-87832677D01*
X159197575Y-87779578D01*
X159148311Y-87730032D01*
X159133654Y-87661717D01*
X159134373Y-87654730D01*
X159136247Y-87640500D01*
X159141123Y-87603460D01*
X159138812Y-87585908D01*
X159120417Y-87446177D01*
X159120417Y-87446176D01*
X159059707Y-87299611D01*
X159031417Y-87262743D01*
X158987381Y-87205353D01*
X158987375Y-87205346D01*
X158678097Y-86896068D01*
X158644612Y-86834745D01*
X158641778Y-86808387D01*
X158641778Y-85332223D01*
X158641777Y-85332218D01*
X158641328Y-85330541D01*
X158640634Y-85327949D01*
X158600855Y-85179493D01*
X158564661Y-85116803D01*
X158521798Y-85042562D01*
X158409994Y-84930758D01*
X158409993Y-84930757D01*
X158405663Y-84926427D01*
X158405652Y-84926417D01*
X158366764Y-84887529D01*
X158333279Y-84826206D01*
X158338263Y-84756514D01*
X158380135Y-84700581D01*
X158445599Y-84676164D01*
X158501895Y-84685286D01*
G37*
%TD.AperFunction*%
%TA.AperFunction,Conductor*%
G36*
X157362178Y-86096145D02*
G01*
X157417355Y-86139008D01*
X157440600Y-86204897D01*
X157440778Y-86211535D01*
X157440778Y-86737676D01*
X157421093Y-86804715D01*
X157404459Y-86825358D01*
X157280430Y-86949386D01*
X157219107Y-86982870D01*
X157149415Y-86977886D01*
X157105068Y-86949385D01*
X156746819Y-86591136D01*
X156713334Y-86529813D01*
X156710500Y-86503455D01*
X156710500Y-86217757D01*
X156730185Y-86150718D01*
X156782989Y-86104963D01*
X156852147Y-86095019D01*
X156858692Y-86096140D01*
X156981155Y-86120500D01*
X156981158Y-86120500D01*
X157138844Y-86120500D01*
X157261307Y-86096140D01*
X157292586Y-86089918D01*
X157362178Y-86096145D01*
G37*
%TD.AperFunction*%
%TA.AperFunction,Conductor*%
G36*
X176203736Y-67320726D02*
G01*
X176469690Y-67336813D01*
X176484551Y-67338617D01*
X176742938Y-67385968D01*
X176757463Y-67389549D01*
X177008251Y-67467698D01*
X177022242Y-67473003D01*
X177261798Y-67580818D01*
X177275044Y-67587771D01*
X177499852Y-67723672D01*
X177512163Y-67732170D01*
X177624209Y-67819952D01*
X177718949Y-67894176D01*
X177730157Y-67904106D01*
X177915893Y-68089842D01*
X177925823Y-68101050D01*
X178087825Y-68307830D01*
X178096329Y-68320150D01*
X178192895Y-68479890D01*
X178232225Y-68544949D01*
X178239184Y-68558208D01*
X178346994Y-68797752D01*
X178352303Y-68811753D01*
X178430448Y-69062529D01*
X178434032Y-69077068D01*
X178481381Y-69335447D01*
X178483186Y-69350311D01*
X178499274Y-69616263D01*
X178499500Y-69623750D01*
X178499500Y-84613179D01*
X178479815Y-84680218D01*
X178427011Y-84725973D01*
X178357853Y-84735917D01*
X178350715Y-84734642D01*
X178350344Y-84734604D01*
X178265860Y-84725973D01*
X178250982Y-84724453D01*
X173004298Y-84724453D01*
X173004280Y-84724454D01*
X172904928Y-84734603D01*
X172904925Y-84734604D01*
X172743941Y-84787949D01*
X172743930Y-84787954D01*
X172599595Y-84876982D01*
X172599591Y-84876985D01*
X172479668Y-84996908D01*
X172479665Y-84996912D01*
X172390637Y-85141247D01*
X172390632Y-85141258D01*
X172337287Y-85302243D01*
X172334645Y-85328104D01*
X172333650Y-85330541D01*
X172334025Y-85333147D01*
X172320524Y-85362708D01*
X172308248Y-85392795D01*
X172306093Y-85394307D01*
X172305000Y-85396703D01*
X172277658Y-85414274D01*
X172251067Y-85432946D01*
X172247755Y-85433491D01*
X172246222Y-85434477D01*
X172211287Y-85439500D01*
X172202459Y-85439500D01*
X172135420Y-85419815D01*
X172089665Y-85367011D01*
X172078841Y-85305772D01*
X172079328Y-85299588D01*
X172080500Y-85284690D01*
X172080500Y-84875310D01*
X172077643Y-84839007D01*
X172062809Y-84787950D01*
X172037309Y-84700178D01*
X172032494Y-84683605D01*
X172024389Y-84669900D01*
X172012774Y-84650259D01*
X171995591Y-84582535D01*
X172017751Y-84516273D01*
X172031822Y-84499460D01*
X172052392Y-84478891D01*
X172140660Y-84335787D01*
X172193547Y-84176185D01*
X172203611Y-84077674D01*
X172203611Y-83469326D01*
X172193547Y-83370815D01*
X172140660Y-83211213D01*
X172140656Y-83211207D01*
X172140655Y-83211204D01*
X172052394Y-83068112D01*
X172052393Y-83068111D01*
X172052392Y-83068109D01*
X171991932Y-83007649D01*
X171958448Y-82946325D01*
X171963433Y-82876634D01*
X171991932Y-82832288D01*
X172061701Y-82762520D01*
X172145042Y-82621597D01*
X172145043Y-82621593D01*
X172145044Y-82621592D01*
X172190719Y-82464379D01*
X172190720Y-82464373D01*
X172191994Y-82448183D01*
X172193611Y-82427640D01*
X172193611Y-81951760D01*
X172190720Y-81915025D01*
X172190719Y-81915020D01*
X172145044Y-81757807D01*
X172145042Y-81757804D01*
X172145042Y-81757803D01*
X172109615Y-81697899D01*
X172092433Y-81630177D01*
X172109617Y-81571658D01*
X172130605Y-81536170D01*
X172175754Y-81380768D01*
X172178611Y-81344465D01*
X172178611Y-80875085D01*
X172175754Y-80838782D01*
X172166272Y-80806146D01*
X172130606Y-80683384D01*
X172130605Y-80683380D01*
X172122117Y-80669028D01*
X172104933Y-80601304D01*
X172122114Y-80542789D01*
X172170042Y-80461747D01*
X172179417Y-80429481D01*
X172215719Y-80304529D01*
X172215720Y-80304523D01*
X172217716Y-80279158D01*
X172218611Y-80267790D01*
X172218611Y-79841910D01*
X172215720Y-79805175D01*
X172215719Y-79805170D01*
X172170044Y-79647957D01*
X172170043Y-79647956D01*
X172170042Y-79647955D01*
X172170042Y-79647953D01*
X172161181Y-79632970D01*
X172143998Y-79565249D01*
X172161181Y-79506729D01*
X172170042Y-79491747D01*
X172170043Y-79491742D01*
X172170044Y-79491742D01*
X172215719Y-79334529D01*
X172215720Y-79334523D01*
X172216988Y-79318407D01*
X172218611Y-79297790D01*
X172218611Y-78871910D01*
X172215720Y-78835175D01*
X172215719Y-78835170D01*
X172170044Y-78677957D01*
X172170042Y-78677954D01*
X172170042Y-78677953D01*
X172122115Y-78596913D01*
X172104933Y-78529190D01*
X172122119Y-78470667D01*
X172130605Y-78456320D01*
X172175754Y-78300918D01*
X172178611Y-78264615D01*
X172178611Y-77795235D01*
X172175754Y-77758932D01*
X172130605Y-77603530D01*
X172118726Y-77583443D01*
X172101544Y-77515726D01*
X172118725Y-77457208D01*
X172160605Y-77386395D01*
X172205754Y-77230993D01*
X172208611Y-77194690D01*
X172208611Y-76785310D01*
X172205754Y-76749007D01*
X172200377Y-76730500D01*
X172160606Y-76593609D01*
X172160606Y-76593608D01*
X172160605Y-76593607D01*
X172160605Y-76593605D01*
X172148490Y-76573120D01*
X172131307Y-76505399D01*
X172148490Y-76446880D01*
X172160605Y-76426395D01*
X172205754Y-76270993D01*
X172208611Y-76234690D01*
X172208611Y-75825310D01*
X172205754Y-75789007D01*
X172197700Y-75761286D01*
X172160606Y-75633609D01*
X172160605Y-75633606D01*
X172160605Y-75633605D01*
X172080879Y-75498795D01*
X172063611Y-75435674D01*
X172063611Y-73532278D01*
X172083296Y-73465239D01*
X172136100Y-73419484D01*
X172148599Y-73414575D01*
X172231808Y-73387003D01*
X172376155Y-73297968D01*
X172496079Y-73178044D01*
X172585114Y-73033697D01*
X172638460Y-72872708D01*
X172648611Y-72773345D01*
X172648610Y-67526656D01*
X172641505Y-67457101D01*
X172654275Y-67388409D01*
X172702156Y-67337524D01*
X172764863Y-67320500D01*
X176134108Y-67320500D01*
X176196249Y-67320500D01*
X176203736Y-67320726D01*
G37*
%TD.AperFunction*%
%TA.AperFunction,Conductor*%
G36*
X164035827Y-83997558D02*
G01*
X164155436Y-84032309D01*
X164192171Y-84035200D01*
X164491011Y-84035200D01*
X164558050Y-84054885D01*
X164603805Y-84107689D01*
X164615011Y-84159200D01*
X164615011Y-84465397D01*
X164617867Y-84501691D01*
X164617868Y-84501697D01*
X164649770Y-84611501D01*
X164649571Y-84681370D01*
X164611629Y-84740040D01*
X164547991Y-84768884D01*
X164478861Y-84758743D01*
X164443013Y-84733777D01*
X163913551Y-84204316D01*
X163911448Y-84200465D01*
X163907751Y-84198104D01*
X163894852Y-84170072D01*
X163880066Y-84142993D01*
X163880378Y-84138617D01*
X163878545Y-84134632D01*
X163882849Y-84104077D01*
X163885050Y-84073302D01*
X163887678Y-84069790D01*
X163888291Y-84065445D01*
X163908429Y-84042069D01*
X163926921Y-84017368D01*
X163931032Y-84015834D01*
X163933896Y-84012511D01*
X163963471Y-84003735D01*
X163992386Y-83992951D01*
X163997860Y-83993531D01*
X164000879Y-83992636D01*
X164035827Y-83997558D01*
G37*
%TD.AperFunction*%
%TA.AperFunction,Conductor*%
G36*
X168696917Y-83992085D02*
G01*
X168742672Y-84044889D01*
X168753236Y-84083797D01*
X168762674Y-84176182D01*
X168762675Y-84176185D01*
X168787554Y-84251264D01*
X168815561Y-84335784D01*
X168815566Y-84335795D01*
X168903827Y-84478887D01*
X168903830Y-84478891D01*
X168906507Y-84481568D01*
X168907756Y-84483857D01*
X168908308Y-84484554D01*
X168908188Y-84484648D01*
X168939992Y-84542891D01*
X168935008Y-84612583D01*
X168893136Y-84668516D01*
X168827672Y-84692933D01*
X168809098Y-84692867D01*
X168775214Y-84690200D01*
X168775207Y-84690200D01*
X168365827Y-84690200D01*
X168365819Y-84690200D01*
X168329525Y-84693056D01*
X168329519Y-84693057D01*
X168305010Y-84700178D01*
X168235141Y-84699977D01*
X168176472Y-84662034D01*
X168147630Y-84598395D01*
X168148438Y-84558809D01*
X168148916Y-84556188D01*
X168148920Y-84556175D01*
X168151811Y-84519440D01*
X168151811Y-84096400D01*
X168171496Y-84029361D01*
X168224300Y-83983606D01*
X168275811Y-83972400D01*
X168629878Y-83972400D01*
X168696917Y-83992085D01*
G37*
%TD.AperFunction*%
%TA.AperFunction,Conductor*%
G36*
X151659680Y-79130361D02*
G01*
X151690342Y-79137452D01*
X151692952Y-79140132D01*
X151696539Y-79141185D01*
X151717134Y-79164952D01*
X151739098Y-79187498D01*
X151740809Y-79192275D01*
X151742294Y-79193989D01*
X151750272Y-79218693D01*
X151751000Y-79220725D01*
X151751900Y-79225138D01*
X151751900Y-79225242D01*
X151782663Y-79379897D01*
X151784226Y-79383671D01*
X151786242Y-79393556D01*
X151783764Y-79422830D01*
X151784026Y-79452204D01*
X151780851Y-79457241D01*
X151780349Y-79463177D01*
X151771475Y-79481450D01*
X151741108Y-79532798D01*
X151741104Y-79532808D01*
X151695957Y-79688202D01*
X151695956Y-79688208D01*
X151693100Y-79724502D01*
X151693100Y-80193897D01*
X151695956Y-80230191D01*
X151695957Y-80230197D01*
X151741104Y-80385590D01*
X151741106Y-80385595D01*
X151767059Y-80429481D01*
X151784240Y-80497205D01*
X151767059Y-80555719D01*
X151741106Y-80599604D01*
X151741104Y-80599609D01*
X151695957Y-80755002D01*
X151695956Y-80755008D01*
X151693100Y-80791302D01*
X151693100Y-81260697D01*
X151695956Y-81296991D01*
X151695957Y-81296997D01*
X151741104Y-81452390D01*
X151741106Y-81452395D01*
X151767059Y-81496281D01*
X151784240Y-81564005D01*
X151767059Y-81622519D01*
X151741106Y-81666404D01*
X151741104Y-81666409D01*
X151695957Y-81821802D01*
X151695956Y-81821808D01*
X151693100Y-81858102D01*
X151693100Y-82327497D01*
X151695956Y-82363791D01*
X151695957Y-82363797D01*
X151741104Y-82519190D01*
X151741106Y-82519195D01*
X151767059Y-82563081D01*
X151784240Y-82630805D01*
X151767059Y-82689319D01*
X151741106Y-82733204D01*
X151741104Y-82733209D01*
X151695957Y-82888602D01*
X151695956Y-82888608D01*
X151693100Y-82924902D01*
X151693100Y-83394297D01*
X151695956Y-83430591D01*
X151695957Y-83430597D01*
X151741104Y-83585990D01*
X151741105Y-83585993D01*
X151823481Y-83725284D01*
X151823487Y-83725292D01*
X151937907Y-83839712D01*
X151937911Y-83839715D01*
X151937913Y-83839717D01*
X152077205Y-83922094D01*
X152118187Y-83934000D01*
X152232602Y-83967242D01*
X152232605Y-83967242D01*
X152232607Y-83967243D01*
X152268910Y-83970100D01*
X152268918Y-83970100D01*
X152678282Y-83970100D01*
X152678290Y-83970100D01*
X152714593Y-83967243D01*
X152714595Y-83967242D01*
X152714597Y-83967242D01*
X152792984Y-83944468D01*
X152869995Y-83922094D01*
X153009287Y-83839717D01*
X153009288Y-83839716D01*
X153012895Y-83836919D01*
X153034464Y-83828450D01*
X153053958Y-83815923D01*
X153073547Y-83813106D01*
X153077932Y-83811385D01*
X153088893Y-83810900D01*
X153222931Y-83810900D01*
X153222947Y-83810901D01*
X153230543Y-83810901D01*
X153388654Y-83810901D01*
X153388657Y-83810901D01*
X153541385Y-83769977D01*
X153599954Y-83736162D01*
X153678316Y-83690920D01*
X153790120Y-83579116D01*
X153790120Y-83579114D01*
X153800322Y-83568913D01*
X153800326Y-83568908D01*
X153852418Y-83516817D01*
X153913742Y-83483333D01*
X153940098Y-83480500D01*
X153991431Y-83480500D01*
X154034764Y-83488318D01*
X154113517Y-83517691D01*
X154173127Y-83524100D01*
X154290503Y-83524099D01*
X154357541Y-83543783D01*
X154403296Y-83596587D01*
X154413240Y-83665745D01*
X154384216Y-83729301D01*
X154378183Y-83735780D01*
X153568997Y-84544968D01*
X153507674Y-84578453D01*
X153481316Y-84581287D01*
X152281885Y-84581287D01*
X152214846Y-84561602D01*
X152194204Y-84544968D01*
X149566818Y-81917582D01*
X149533333Y-81856259D01*
X149530499Y-81829901D01*
X149530499Y-80312129D01*
X149530498Y-80312123D01*
X149529681Y-80304525D01*
X149524789Y-80259010D01*
X149524091Y-80252516D01*
X149473797Y-80117671D01*
X149473795Y-80117668D01*
X149473792Y-80117664D01*
X149396421Y-80014309D01*
X149372004Y-79948848D01*
X149386855Y-79880575D01*
X149396416Y-79865696D01*
X149473796Y-79762331D01*
X149524091Y-79627483D01*
X149530500Y-79567873D01*
X149530500Y-79245500D01*
X149550185Y-79178461D01*
X149602989Y-79132706D01*
X149654500Y-79121500D01*
X151629500Y-79121500D01*
X151659680Y-79130361D01*
G37*
%TD.AperFunction*%
%TA.AperFunction,Conductor*%
G36*
X156405426Y-80518127D02*
G01*
X156454832Y-80567532D01*
X156462182Y-80583627D01*
X156502202Y-80690928D01*
X156502206Y-80690935D01*
X156588452Y-80806144D01*
X156588455Y-80806147D01*
X156703664Y-80892393D01*
X156703671Y-80892397D01*
X156748618Y-80909161D01*
X156838517Y-80942691D01*
X156898127Y-80949100D01*
X157293872Y-80949099D01*
X157353483Y-80942691D01*
X157353485Y-80942690D01*
X157353487Y-80942690D01*
X157361031Y-80940908D01*
X157361342Y-80942226D01*
X157379268Y-80940942D01*
X157404835Y-80935270D01*
X157413564Y-80938484D01*
X157422842Y-80937820D01*
X157445828Y-80950367D01*
X157470400Y-80959417D01*
X157476004Y-80966839D01*
X157484170Y-80971297D01*
X157496723Y-80994279D01*
X157512502Y-81015177D01*
X157514693Y-81027179D01*
X157517663Y-81032616D01*
X157520146Y-81049633D01*
X157520500Y-81054323D01*
X157520501Y-81071472D01*
X157524885Y-81112259D01*
X157525035Y-81114240D01*
X157524679Y-81115909D01*
X157524679Y-81136850D01*
X157520500Y-81175722D01*
X157520500Y-81571469D01*
X157520501Y-81571478D01*
X157524679Y-81610345D01*
X157524679Y-81636850D01*
X157520500Y-81675722D01*
X157520500Y-82071469D01*
X157520501Y-82071478D01*
X157524679Y-82110345D01*
X157524679Y-82136850D01*
X157520500Y-82175722D01*
X157520500Y-82571469D01*
X157520501Y-82571478D01*
X157524679Y-82610345D01*
X157524812Y-82635545D01*
X157524741Y-82636269D01*
X157520500Y-82675727D01*
X157520500Y-82680087D01*
X157519923Y-82686048D01*
X157509038Y-82713133D01*
X157500815Y-82741139D01*
X157496164Y-82745168D01*
X157493870Y-82750879D01*
X157470067Y-82767781D01*
X157448011Y-82786894D01*
X157441004Y-82788420D01*
X157436903Y-82791333D01*
X157425132Y-82791878D01*
X157401390Y-82797050D01*
X157401426Y-82797736D01*
X157401428Y-82797746D01*
X157401427Y-82797746D01*
X157401437Y-82797924D01*
X157398118Y-82798101D01*
X157359253Y-82802279D01*
X157332748Y-82802279D01*
X157293874Y-82798100D01*
X156898130Y-82798100D01*
X156898119Y-82798101D01*
X156859253Y-82802279D01*
X156832748Y-82802279D01*
X156793874Y-82798100D01*
X156398130Y-82798100D01*
X156398119Y-82798101D01*
X156359253Y-82802279D01*
X156332748Y-82802279D01*
X156293874Y-82798100D01*
X155898130Y-82798100D01*
X155898119Y-82798101D01*
X155859253Y-82802279D01*
X155834054Y-82802412D01*
X155833332Y-82802342D01*
X155793873Y-82798100D01*
X155789511Y-82798100D01*
X155783551Y-82797523D01*
X155756465Y-82786638D01*
X155728460Y-82778415D01*
X155724430Y-82773764D01*
X155718720Y-82771470D01*
X155701817Y-82747667D01*
X155682705Y-82725611D01*
X155681181Y-82718608D01*
X155678266Y-82714503D01*
X155677718Y-82702690D01*
X155672562Y-82678987D01*
X155671958Y-82679019D01*
X155671855Y-82679031D01*
X155671854Y-82679025D01*
X155671676Y-82679035D01*
X155671498Y-82675711D01*
X155667320Y-82636853D01*
X155667320Y-82610345D01*
X155671500Y-82571473D01*
X155671499Y-82175728D01*
X155671499Y-82175727D01*
X155671498Y-82175711D01*
X155667320Y-82136853D01*
X155667320Y-82110345D01*
X155671500Y-82071473D01*
X155671499Y-81675728D01*
X155671499Y-81675727D01*
X155671498Y-81675711D01*
X155667320Y-81636853D01*
X155667320Y-81610345D01*
X155671500Y-81571473D01*
X155671499Y-81175728D01*
X155671499Y-81175727D01*
X155671498Y-81175711D01*
X155667320Y-81136853D01*
X155667187Y-81111643D01*
X155667244Y-81111051D01*
X155671500Y-81071473D01*
X155671499Y-81067113D01*
X155672078Y-81061145D01*
X155682962Y-81034061D01*
X155691185Y-81006060D01*
X155695836Y-81002029D01*
X155698133Y-80996315D01*
X155721938Y-80979411D01*
X155743989Y-80960305D01*
X155750993Y-80958781D01*
X155755102Y-80955864D01*
X155766916Y-80955317D01*
X155790611Y-80950162D01*
X155790576Y-80949500D01*
X155790571Y-80949454D01*
X155790573Y-80949453D01*
X155790564Y-80949276D01*
X155793857Y-80949099D01*
X155793872Y-80949099D01*
X155853483Y-80942691D01*
X155988331Y-80892396D01*
X156103546Y-80806146D01*
X156189796Y-80690931D01*
X156223857Y-80599609D01*
X156229818Y-80583627D01*
X156271689Y-80527693D01*
X156337153Y-80503276D01*
X156405426Y-80518127D01*
G37*
%TD.AperFunction*%
%TA.AperFunction,Conductor*%
G36*
X170098397Y-67340185D02*
G01*
X170144152Y-67392989D01*
X170154716Y-67457102D01*
X170147611Y-67526645D01*
X170147611Y-72773337D01*
X170147612Y-72773355D01*
X170157761Y-72872707D01*
X170157762Y-72872710D01*
X170211107Y-73033694D01*
X170211112Y-73033705D01*
X170300140Y-73178040D01*
X170300143Y-73178044D01*
X170420066Y-73297967D01*
X170420070Y-73297970D01*
X170564405Y-73386998D01*
X170564408Y-73386999D01*
X170564414Y-73387003D01*
X170647615Y-73414572D01*
X170705059Y-73454344D01*
X170731883Y-73518860D01*
X170732611Y-73532278D01*
X170732611Y-75435674D01*
X170715343Y-75498795D01*
X170635616Y-75633606D01*
X170635615Y-75633609D01*
X170590468Y-75789002D01*
X170590467Y-75789008D01*
X170587611Y-75825302D01*
X170587611Y-76234697D01*
X170590467Y-76270991D01*
X170590468Y-76270997D01*
X170635615Y-76426391D01*
X170635617Y-76426397D01*
X170647731Y-76446880D01*
X170664912Y-76514604D01*
X170647731Y-76573120D01*
X170635617Y-76593602D01*
X170635615Y-76593608D01*
X170590468Y-76749002D01*
X170590467Y-76749008D01*
X170587611Y-76785302D01*
X170587611Y-77194697D01*
X170590467Y-77230991D01*
X170590468Y-77230997D01*
X170635615Y-77386390D01*
X170635615Y-77386391D01*
X170677494Y-77457206D01*
X170694675Y-77524930D01*
X170677495Y-77583443D01*
X170665618Y-77603527D01*
X170665615Y-77603534D01*
X170620468Y-77758927D01*
X170620467Y-77758933D01*
X170617611Y-77795227D01*
X170617611Y-78264622D01*
X170620467Y-78300916D01*
X170620468Y-78300922D01*
X170665615Y-78456315D01*
X170665617Y-78456320D01*
X170674106Y-78470675D01*
X170691287Y-78538399D01*
X170674106Y-78596914D01*
X170626178Y-78677956D01*
X170626177Y-78677957D01*
X170580502Y-78835170D01*
X170580501Y-78835176D01*
X170577611Y-78871902D01*
X170577611Y-79209014D01*
X170557926Y-79276053D01*
X170505122Y-79321808D01*
X170435964Y-79331752D01*
X170372408Y-79302727D01*
X170365930Y-79296695D01*
X169576290Y-78507055D01*
X169576288Y-78507052D01*
X169457417Y-78388181D01*
X169457416Y-78388180D01*
X169361863Y-78333013D01*
X169320485Y-78309123D01*
X169252505Y-78290907D01*
X169245760Y-78288224D01*
X169229334Y-78275364D01*
X169203916Y-78260689D01*
X169123337Y-78180110D01*
X169095423Y-78163602D01*
X168982412Y-78096768D01*
X168982409Y-78096766D01*
X168825196Y-78051091D01*
X168825190Y-78051090D01*
X168788464Y-78048200D01*
X168788457Y-78048200D01*
X168362577Y-78048200D01*
X168362569Y-78048200D01*
X168325843Y-78051090D01*
X168325837Y-78051091D01*
X168168622Y-78096767D01*
X168153634Y-78105631D01*
X168085909Y-78122810D01*
X168027400Y-78105631D01*
X168012411Y-78096767D01*
X167855196Y-78051091D01*
X167855190Y-78051090D01*
X167818464Y-78048200D01*
X167818457Y-78048200D01*
X167392577Y-78048200D01*
X167392569Y-78048200D01*
X167355843Y-78051090D01*
X167355837Y-78051091D01*
X167198624Y-78096766D01*
X167198621Y-78096768D01*
X167057699Y-78180108D01*
X167057691Y-78180114D01*
X167005927Y-78231880D01*
X166944604Y-78265366D01*
X166918245Y-78268200D01*
X166420378Y-78268200D01*
X166353339Y-78248515D01*
X166332697Y-78231881D01*
X166319403Y-78218587D01*
X166319395Y-78218581D01*
X166242418Y-78173057D01*
X166180106Y-78136206D01*
X166180105Y-78136205D01*
X166180104Y-78136205D01*
X166180101Y-78136204D01*
X166024708Y-78091057D01*
X166024702Y-78091056D01*
X165988408Y-78088200D01*
X165988401Y-78088200D01*
X165519021Y-78088200D01*
X165519013Y-78088200D01*
X165482719Y-78091056D01*
X165482713Y-78091057D01*
X165327320Y-78136204D01*
X165327317Y-78136205D01*
X165188026Y-78218581D01*
X165188018Y-78218587D01*
X165174725Y-78231881D01*
X165113402Y-78265366D01*
X165087044Y-78268200D01*
X163971157Y-78268200D01*
X163930236Y-78279164D01*
X163930236Y-78279165D01*
X163911509Y-78284183D01*
X163818431Y-78309123D01*
X163818426Y-78309126D01*
X163681507Y-78388175D01*
X163681499Y-78388181D01*
X162856000Y-79213681D01*
X162794677Y-79247166D01*
X162768319Y-79250000D01*
X161905820Y-79250000D01*
X161845232Y-79232209D01*
X161844554Y-79233479D01*
X161839172Y-79230602D01*
X161693501Y-79170264D01*
X161693489Y-79170261D01*
X161538845Y-79139500D01*
X161538842Y-79139500D01*
X161381158Y-79139500D01*
X161381155Y-79139500D01*
X161226510Y-79170261D01*
X161226498Y-79170264D01*
X161080823Y-79230604D01*
X161075452Y-79233476D01*
X161074706Y-79232080D01*
X161069307Y-79234002D01*
X161060246Y-79241126D01*
X161036393Y-79245721D01*
X161025945Y-79249441D01*
X161020079Y-79250000D01*
X160950000Y-79250000D01*
X160948637Y-79256808D01*
X160903160Y-79261142D01*
X160902676Y-79261048D01*
X160891397Y-79261701D01*
X159899905Y-79261701D01*
X159899899Y-79261702D01*
X159840292Y-79268109D01*
X159705447Y-79318403D01*
X159705440Y-79318407D01*
X159590231Y-79404653D01*
X159590228Y-79404656D01*
X159503982Y-79519865D01*
X159503979Y-79519870D01*
X159462913Y-79629974D01*
X159421041Y-79685907D01*
X159355577Y-79710324D01*
X159287304Y-79695472D01*
X159237899Y-79646067D01*
X159232170Y-79634092D01*
X159189397Y-79530827D01*
X159189390Y-79530814D01*
X159101789Y-79399711D01*
X159101786Y-79399707D01*
X158990292Y-79288213D01*
X158990288Y-79288210D01*
X158859185Y-79200609D01*
X158859172Y-79200602D01*
X158713501Y-79140264D01*
X158713489Y-79140261D01*
X158558845Y-79109500D01*
X158558842Y-79109500D01*
X158401158Y-79109500D01*
X158401155Y-79109500D01*
X158246510Y-79140261D01*
X158246498Y-79140264D01*
X158100827Y-79200602D01*
X158100809Y-79200612D01*
X158015838Y-79257388D01*
X157949161Y-79278266D01*
X157881781Y-79259781D01*
X157835091Y-79207802D01*
X157823915Y-79138832D01*
X157840215Y-79091166D01*
X157846469Y-79080593D01*
X157891265Y-78926404D01*
X157894100Y-78890381D01*
X157894099Y-78492020D01*
X157891265Y-78455996D01*
X157846469Y-78301807D01*
X157764735Y-78163602D01*
X157764733Y-78163600D01*
X157764730Y-78163596D01*
X157651203Y-78050069D01*
X157651195Y-78050063D01*
X157512993Y-77968331D01*
X157512988Y-77968329D01*
X157358808Y-77923535D01*
X157358802Y-77923534D01*
X157322781Y-77920700D01*
X156824430Y-77920700D01*
X156824408Y-77920701D01*
X156788394Y-77923535D01*
X156634211Y-77968329D01*
X156634206Y-77968331D01*
X156496004Y-78050063D01*
X156496000Y-78050066D01*
X156417684Y-78128382D01*
X156356360Y-78161866D01*
X156286669Y-78156882D01*
X156230735Y-78115010D01*
X156226912Y-78109607D01*
X156171389Y-78026511D01*
X156171387Y-78026508D01*
X156059892Y-77915013D01*
X156059888Y-77915010D01*
X155928785Y-77827409D01*
X155928772Y-77827402D01*
X155783101Y-77767064D01*
X155783089Y-77767061D01*
X155628445Y-77736300D01*
X155628442Y-77736300D01*
X155470758Y-77736300D01*
X155470755Y-77736300D01*
X155316110Y-77767061D01*
X155316098Y-77767064D01*
X155170427Y-77827402D01*
X155170414Y-77827409D01*
X155039311Y-77915010D01*
X155039306Y-77915014D01*
X155003722Y-77950598D01*
X154942399Y-77984083D01*
X154872707Y-77979097D01*
X154828361Y-77950597D01*
X152646119Y-75768355D01*
X152646117Y-75768352D01*
X152527246Y-75649481D01*
X152527245Y-75649480D01*
X152440433Y-75599360D01*
X152440433Y-75599359D01*
X152440429Y-75599358D01*
X152390314Y-75570423D01*
X152237586Y-75529499D01*
X152079472Y-75529499D01*
X152071876Y-75529499D01*
X152071860Y-75529500D01*
X149654499Y-75529500D01*
X149587460Y-75509815D01*
X149541705Y-75457011D01*
X149530499Y-75405500D01*
X149530499Y-75232129D01*
X149530498Y-75232123D01*
X149530497Y-75232116D01*
X149524091Y-75172517D01*
X149473796Y-75037669D01*
X149396421Y-74934309D01*
X149372004Y-74868848D01*
X149386855Y-74800575D01*
X149396416Y-74785696D01*
X149473796Y-74682331D01*
X149524091Y-74547483D01*
X149530500Y-74487873D01*
X149530499Y-72692128D01*
X149524091Y-72632517D01*
X149473796Y-72497669D01*
X149473795Y-72497668D01*
X149473793Y-72497664D01*
X149387547Y-72382455D01*
X149387544Y-72382452D01*
X149272335Y-72296206D01*
X149272328Y-72296202D01*
X149137482Y-72245908D01*
X149137483Y-72245908D01*
X149077883Y-72239501D01*
X149077881Y-72239500D01*
X149077873Y-72239500D01*
X149077864Y-72239500D01*
X147282129Y-72239500D01*
X147282123Y-72239501D01*
X147222516Y-72245908D01*
X147087671Y-72296202D01*
X147087664Y-72296206D01*
X146972455Y-72382452D01*
X146972452Y-72382455D01*
X146886206Y-72497664D01*
X146886202Y-72497671D01*
X146835908Y-72632517D01*
X146829501Y-72692116D01*
X146829501Y-72692123D01*
X146829500Y-72692135D01*
X146829500Y-74487870D01*
X146829501Y-74487876D01*
X146835908Y-74547483D01*
X146886202Y-74682328D01*
X146886203Y-74682330D01*
X146963578Y-74785689D01*
X146987995Y-74851153D01*
X146973144Y-74919426D01*
X146963578Y-74934311D01*
X146886203Y-75037669D01*
X146886202Y-75037671D01*
X146835908Y-75172517D01*
X146829501Y-75232116D01*
X146829501Y-75232123D01*
X146829500Y-75232135D01*
X146829500Y-77027870D01*
X146829501Y-77027876D01*
X146835908Y-77087483D01*
X146886202Y-77222328D01*
X146886203Y-77222330D01*
X146963578Y-77325689D01*
X146987995Y-77391153D01*
X146973144Y-77459426D01*
X146963578Y-77474311D01*
X146886203Y-77577669D01*
X146886202Y-77577671D01*
X146835908Y-77712517D01*
X146830044Y-77767063D01*
X146829501Y-77772123D01*
X146829500Y-77772135D01*
X146829500Y-79567870D01*
X146829501Y-79567876D01*
X146835908Y-79627483D01*
X146882847Y-79753332D01*
X146887831Y-79823024D01*
X146854346Y-79884347D01*
X146793022Y-79917831D01*
X146723332Y-79912847D01*
X146597482Y-79865908D01*
X146597483Y-79865908D01*
X146537883Y-79859501D01*
X146537881Y-79859500D01*
X146537873Y-79859500D01*
X146537864Y-79859500D01*
X144742129Y-79859500D01*
X144742123Y-79859501D01*
X144682516Y-79865908D01*
X144547671Y-79916202D01*
X144547664Y-79916206D01*
X144432455Y-80002452D01*
X144432452Y-80002455D01*
X144346206Y-80117664D01*
X144346202Y-80117671D01*
X144300682Y-80239719D01*
X144258811Y-80295653D01*
X144193347Y-80320070D01*
X144125074Y-80305219D01*
X144075668Y-80255813D01*
X144060500Y-80196386D01*
X144060500Y-69623750D01*
X144060726Y-69616263D01*
X144064486Y-69554108D01*
X144073583Y-69403713D01*
X144929500Y-69403713D01*
X144929500Y-69616286D01*
X144962753Y-69826239D01*
X145028444Y-70028414D01*
X145124951Y-70217820D01*
X145249890Y-70389786D01*
X145400213Y-70540109D01*
X145572179Y-70665048D01*
X145572181Y-70665049D01*
X145572184Y-70665051D01*
X145761588Y-70761557D01*
X145963757Y-70827246D01*
X146173713Y-70860500D01*
X146173714Y-70860500D01*
X146386286Y-70860500D01*
X146386287Y-70860500D01*
X146596243Y-70827246D01*
X146798412Y-70761557D01*
X146987816Y-70665051D01*
X147009789Y-70649086D01*
X147159786Y-70540109D01*
X147159788Y-70540106D01*
X147159792Y-70540104D01*
X147310104Y-70389792D01*
X147310106Y-70389788D01*
X147310109Y-70389786D01*
X147435048Y-70217820D01*
X147435047Y-70217820D01*
X147435051Y-70217816D01*
X147531557Y-70028412D01*
X147597246Y-69826243D01*
X147630500Y-69616287D01*
X147630500Y-69403713D01*
X147597246Y-69193757D01*
X147531557Y-68991588D01*
X147435051Y-68802184D01*
X147435049Y-68802181D01*
X147435048Y-68802179D01*
X147310109Y-68630213D01*
X147159786Y-68479890D01*
X146987820Y-68354951D01*
X146798414Y-68258444D01*
X146798413Y-68258443D01*
X146798412Y-68258443D01*
X146596243Y-68192754D01*
X146596241Y-68192753D01*
X146596240Y-68192753D01*
X146434957Y-68167208D01*
X146386287Y-68159500D01*
X146173713Y-68159500D01*
X146125042Y-68167208D01*
X145963760Y-68192753D01*
X145761585Y-68258444D01*
X145572179Y-68354951D01*
X145400213Y-68479890D01*
X145249890Y-68630213D01*
X145124951Y-68802179D01*
X145028444Y-68991585D01*
X144962753Y-69193760D01*
X144929500Y-69403713D01*
X144073583Y-69403713D01*
X144076813Y-69350305D01*
X144078618Y-69335447D01*
X144104583Y-69193760D01*
X144125969Y-69077057D01*
X144129548Y-69062539D01*
X144207699Y-68811743D01*
X144213001Y-68797762D01*
X144320822Y-68558194D01*
X144327767Y-68544961D01*
X144463677Y-68320139D01*
X144472164Y-68307843D01*
X144634183Y-68101041D01*
X144644098Y-68089850D01*
X144829850Y-67904098D01*
X144841041Y-67894183D01*
X145047843Y-67732164D01*
X145060139Y-67723677D01*
X145284961Y-67587767D01*
X145298194Y-67580822D01*
X145537762Y-67473001D01*
X145551743Y-67467699D01*
X145802539Y-67389548D01*
X145817057Y-67385969D01*
X146075450Y-67338617D01*
X146090307Y-67336813D01*
X146356264Y-67320726D01*
X146363751Y-67320500D01*
X146425892Y-67320500D01*
X170031358Y-67320500D01*
X170098397Y-67340185D01*
G37*
%TD.AperFunction*%
%TA.AperFunction,Conductor*%
G36*
X164541211Y-79488885D02*
G01*
X164586966Y-79541689D01*
X164596910Y-79610847D01*
X164593248Y-79627795D01*
X164567068Y-79717902D01*
X164567067Y-79717908D01*
X164564211Y-79754202D01*
X164564211Y-80060400D01*
X164544526Y-80127439D01*
X164491722Y-80173194D01*
X164440211Y-80184400D01*
X164166763Y-80184400D01*
X164130037Y-80187290D01*
X164130031Y-80187291D01*
X163972818Y-80232966D01*
X163972810Y-80232970D01*
X163962792Y-80238895D01*
X163956270Y-80240549D01*
X163951186Y-80244955D01*
X163922830Y-80249032D01*
X163895067Y-80256075D01*
X163888687Y-80253941D01*
X163882028Y-80254899D01*
X163855967Y-80242997D01*
X163828806Y-80233913D01*
X163824592Y-80228669D01*
X163818472Y-80225874D01*
X163802985Y-80201776D01*
X163785044Y-80179446D01*
X163783443Y-80171368D01*
X163780698Y-80167096D01*
X163775675Y-80132166D01*
X163775675Y-80043835D01*
X163795360Y-79976798D01*
X163811989Y-79956161D01*
X164262633Y-79505519D01*
X164323956Y-79472034D01*
X164350314Y-79469200D01*
X164474172Y-79469200D01*
X164541211Y-79488885D01*
G37*
%TD.AperFunction*%
%TD*%
M02*
