%TF.GenerationSoftware,KiCad,Pcbnew,10.0.3*%
%TF.CreationDate,2026-07-13T19:26:38+01:00*%
%TF.ProjectId,CC1101_Multx,43433131-3031-45f4-9d75-6c74782e6b69,rev?*%
%TF.SameCoordinates,Original*%
%TF.FileFunction,Paste,Top*%
%TF.FilePolarity,Positive*%
%FSLAX46Y46*%
G04 Gerber Fmt 4.6, Leading zero omitted, Abs format (unit mm)*
G04 Created by KiCad (PCBNEW 10.0.3) date 2026-07-13 19:26:38*
%MOMM*%
%LPD*%
G01*
G04 APERTURE LIST*
G04 Aperture macros list*
%AMRoundRect*
0 Rectangle with rounded corners*
0 $1 Rounding radius*
0 $2 $3 $4 $5 $6 $7 $8 $9 X,Y pos of 4 corners*
0 Add a 4 corners polygon primitive as box body*
4,1,4,$2,$3,$4,$5,$6,$7,$8,$9,$2,$3,0*
0 Add four circle primitives for the rounded corners*
1,1,$1+$1,$2,$3*
1,1,$1+$1,$4,$5*
1,1,$1+$1,$6,$7*
1,1,$1+$1,$8,$9*
0 Add four rect primitives between the rounded corners*
20,1,$1+$1,$2,$3,$4,$5,0*
20,1,$1+$1,$4,$5,$6,$7,0*
20,1,$1+$1,$6,$7,$8,$9,0*
20,1,$1+$1,$8,$9,$2,$3,0*%
G04 Aperture macros list end*
%ADD10RoundRect,0.147500X-0.147500X-0.172500X0.147500X-0.172500X0.147500X0.172500X-0.147500X0.172500X0*%
%ADD11RoundRect,0.140000X-0.140000X-0.170000X0.140000X-0.170000X0.140000X0.170000X-0.140000X0.170000X0*%
%ADD12RoundRect,0.147500X0.172500X-0.147500X0.172500X0.147500X-0.172500X0.147500X-0.172500X-0.147500X0*%
%ADD13RoundRect,0.140000X-0.170000X0.140000X-0.170000X-0.140000X0.170000X-0.140000X0.170000X0.140000X0*%
%ADD14RoundRect,0.240000X-2.210000X-0.560000X2.210000X-0.560000X2.210000X0.560000X-2.210000X0.560000X0*%
%ADD15RoundRect,0.225000X-2.575000X-0.525000X2.575000X-0.525000X2.575000X0.525000X-2.575000X0.525000X0*%
%ADD16R,0.990600X0.355600*%
%ADD17R,0.950000X0.300000*%
%ADD18R,0.300000X0.950000*%
%ADD19R,2.500000X2.500000*%
%ADD20RoundRect,0.140000X0.140000X0.170000X-0.140000X0.170000X-0.140000X-0.170000X0.140000X-0.170000X0*%
%ADD21RoundRect,0.140000X0.170000X-0.140000X0.170000X0.140000X-0.170000X0.140000X-0.170000X-0.140000X0*%
%ADD22RoundRect,0.102000X-0.373000X-0.323000X0.373000X-0.323000X0.373000X0.323000X-0.373000X0.323000X0*%
%ADD23RoundRect,0.218750X-0.218750X-0.256250X0.218750X-0.256250X0.218750X0.256250X-0.218750X0.256250X0*%
%ADD24RoundRect,0.135000X-0.185000X0.135000X-0.185000X-0.135000X0.185000X-0.135000X0.185000X0.135000X0*%
%ADD25RoundRect,0.147500X0.147500X0.172500X-0.147500X0.172500X-0.147500X-0.172500X0.147500X-0.172500X0*%
G04 APERTURE END LIST*
D10*
%TO.C,L122_1*%
X170602711Y-82351100D03*
X171572711Y-82351100D03*
%TD*%
D11*
%TO.C,C122_1*%
X171572711Y-80655524D03*
X170612711Y-80655524D03*
%TD*%
D12*
%TO.C,L123_1*%
X171572711Y-78014948D03*
X171572711Y-78984948D03*
%TD*%
D11*
%TO.C,C123_1*%
X171572711Y-76344372D03*
X170612711Y-76344372D03*
%TD*%
D13*
%TO.C,C125_1*%
X171572711Y-74688796D03*
X171572711Y-73728796D03*
%TD*%
D14*
%TO.C,AE2*%
X175977636Y-90234953D03*
X175977636Y-81714953D03*
D15*
X175627636Y-85974953D03*
%TD*%
D16*
%TO.C,U1*%
X162779876Y-81239999D03*
X162779876Y-80590000D03*
X162779876Y-79940001D03*
X160443076Y-79940001D03*
X160443076Y-80590000D03*
X160443076Y-81239999D03*
%TD*%
D10*
%TO.C,L131_1*%
X167605517Y-79959200D03*
X168575517Y-79959200D03*
%TD*%
D17*
%TO.C,IC1*%
X154696000Y-80873600D03*
X154696000Y-81373600D03*
X154696000Y-81873600D03*
X154696000Y-82373600D03*
X154696000Y-82873600D03*
D18*
X155596000Y-83773600D03*
X156096000Y-83773600D03*
X156596000Y-83773600D03*
X157096000Y-83773600D03*
X157596000Y-83773600D03*
D17*
X158496000Y-82873600D03*
X158496000Y-82373600D03*
X158496000Y-81873600D03*
X158496000Y-81373600D03*
X158496000Y-80873600D03*
D18*
X157596000Y-79973600D03*
X157096000Y-79973600D03*
X156596000Y-79973600D03*
X156096000Y-79973600D03*
X155596000Y-79973600D03*
D19*
X156596000Y-81873600D03*
%TD*%
D12*
%TO.C,L121_1*%
X165753711Y-86493700D03*
X165753711Y-85523700D03*
%TD*%
D11*
%TO.C,C3*%
X151513600Y-82092800D03*
X152473600Y-82092800D03*
%TD*%
D20*
%TO.C,C51*%
X152473600Y-83159600D03*
X151513600Y-83159600D03*
%TD*%
D21*
%TO.C,C131_1*%
X165753711Y-78868700D03*
X165753711Y-77908700D03*
%TD*%
D16*
%TO.C,U3*%
X162779876Y-84414462D03*
X162779876Y-83764463D03*
X162779876Y-83114464D03*
X160443076Y-83114464D03*
X160443076Y-83764463D03*
X160443076Y-84414462D03*
%TD*%
D20*
%TO.C,C131_2*%
X165344711Y-79988900D03*
X164384711Y-79988900D03*
%TD*%
D10*
%TO.C,L132_2*%
X166411711Y-81004900D03*
X167381711Y-81004900D03*
%TD*%
D20*
%TO.C,C121_2*%
X166335311Y-82097100D03*
X165375311Y-82097100D03*
%TD*%
D11*
%TO.C,C2*%
X151513600Y-81026000D03*
X152473600Y-81026000D03*
%TD*%
D22*
%TO.C,Y1*%
X156069200Y-87747800D03*
X157519200Y-87747800D03*
X157519200Y-86597800D03*
X156069200Y-86597800D03*
%TD*%
D11*
%TO.C,C122_2*%
X166391311Y-83214700D03*
X167351311Y-83214700D03*
%TD*%
D21*
%TO.C,C4*%
X154762200Y-87881400D03*
X154762200Y-86921400D03*
%TD*%
D23*
%TO.C,L124_2*%
X169690611Y-83773500D03*
X171265611Y-83773500D03*
%TD*%
D21*
%TO.C,C123_2*%
X168395311Y-84151900D03*
X168395311Y-83191900D03*
%TD*%
D15*
%TO.C,AE1*%
X175627636Y-73728796D03*
D14*
X175977636Y-69468796D03*
X175977636Y-77988796D03*
%TD*%
D11*
%TO.C,C1*%
X151513600Y-79959200D03*
X152473600Y-79959200D03*
%TD*%
D21*
%TO.C,C125_2*%
X171270000Y-86040000D03*
X171270000Y-85080000D03*
%TD*%
D11*
%TO.C,C121_1*%
X167966111Y-85500700D03*
X168926111Y-85500700D03*
%TD*%
D24*
%TO.C,R171*%
X157073600Y-77671200D03*
X157073600Y-78691200D03*
%TD*%
D10*
%TO.C,L121_2*%
X164405111Y-83214700D03*
X165375111Y-83214700D03*
%TD*%
D11*
%TO.C,C124_2*%
X164435511Y-84230700D03*
X165395511Y-84230700D03*
%TD*%
D21*
%TO.C,C5*%
X158863200Y-87636600D03*
X158863200Y-86676600D03*
%TD*%
D25*
%TO.C,L122_2*%
X167356311Y-84281500D03*
X166386311Y-84281500D03*
%TD*%
D10*
%TO.C,L123_2*%
X167402311Y-82097100D03*
X168372311Y-82097100D03*
%TD*%
%TO.C,L131_2*%
X164379711Y-81004900D03*
X165349711Y-81004900D03*
%TD*%
D21*
%TO.C,C124_1*%
X165753711Y-88469900D03*
X165753711Y-87509900D03*
%TD*%
M02*
