M48
; DRILL file KiCad 10.0.3 date 2026-07-15T09:18:06
; FORMAT={-:-/ absolute / metric / decimal}
; #@! TF.CreationDate,2026-07-15T09:18:06+01:00
; #@! TF.GenerationSoftware,Kicad,Pcbnew,10.0.3
; #@! TF.FileFunction,Plated,1,4,PTH
FMAT,2
METRIC
; #@! TA.AperFunction,Plated,PTH,ViaDrill
T1C0.300
; #@! TA.AperFunction,Plated,PTH,ComponentDrill
T2C1.000
%
G90
G05
T1
X149.86Y-68.58
X149.86Y-71.12
X149.86Y-88.9
X149.86Y-91.44
X150.81Y-81.0
X150.85Y-79.93
X151.13Y-69.85
X151.13Y-72.39
X151.13Y-74.93
X151.13Y-87.63
X151.13Y-90.17
X151.486Y-79.121
X151.53Y-83.84
X152.4Y-68.58
X152.4Y-71.12
X152.4Y-73.66
X152.4Y-88.9
X152.4Y-91.44
X152.552Y-79.146
X153.67Y-69.85
X153.67Y-72.39
X153.67Y-74.93
X153.67Y-87.63
X153.67Y-90.17
X154.09Y-78.91
X154.94Y-68.58
X154.94Y-71.12
X154.94Y-73.66
X154.94Y-76.2
X154.94Y-91.44
X155.55Y-78.537
X155.671Y-80.949
X156.21Y-69.85
X156.21Y-72.39
X156.21Y-74.93
X156.21Y-90.17
X156.596Y-81.874
X157.06Y-85.32
X157.156Y-89.477
X157.48Y-68.58
X157.48Y-71.12
X157.48Y-73.66
X157.48Y-76.2
X157.48Y-91.44
X157.5Y-80.96
X157.886Y-77.724
X158.464Y-78.676
X158.48Y-79.91
X158.55Y-84.91
X158.75Y-69.85
X158.75Y-72.39
X158.75Y-74.93
X158.75Y-83.922
X158.75Y-90.17
X159.38Y-77.92
X159.64Y-85.33
X160.02Y-68.58
X160.02Y-71.12
X160.02Y-73.66
X160.02Y-76.2
X160.02Y-86.36
X160.02Y-88.9
X160.02Y-91.44
X161.23Y-81.72
X161.25Y-82.65
X161.29Y-69.85
X161.29Y-72.39
X161.29Y-74.93
X161.29Y-77.47
X161.29Y-87.63
X161.29Y-90.17
X161.45Y-78.98
X161.46Y-79.94
X161.62Y-85.12
X162.56Y-68.58
X162.56Y-71.12
X162.56Y-73.66
X162.56Y-76.2
X162.56Y-86.36
X162.56Y-88.9
X162.56Y-91.44
X163.07Y-78.57
X163.2Y-85.6
X163.71Y-83.99
X163.734Y-80.415
X163.83Y-69.85
X163.83Y-72.39
X163.83Y-74.93
X163.83Y-77.47
X163.83Y-87.63
X163.83Y-90.17
X164.73Y-86.45
X164.88Y-77.97
X165.1Y-68.58
X165.1Y-71.12
X165.1Y-73.66
X165.1Y-76.2
X165.1Y-88.9
X165.1Y-91.44
X166.37Y-74.93
X166.37Y-90.17
X166.67Y-77.97
X166.82Y-86.38
X167.138Y-69.8
X167.64Y-73.66
X167.64Y-76.2
X167.64Y-88.9
X167.64Y-91.44
X168.08Y-77.82
X168.09Y-86.53
X168.407Y-84.691
X168.91Y-74.93
X168.91Y-77.47
X168.91Y-87.63
X168.91Y-90.17
X169.33Y-86.38
X169.6Y-78.14
X170.18Y-76.2
X170.18Y-88.9
X170.18Y-91.44
X170.26Y-85.52
X170.43Y-79.03
X170.5Y-73.69
X170.5Y-74.515
X170.5Y-75.34
X170.6Y-86.96
X171.45Y-90.17
X172.23Y-85.13
X172.23Y-86.92
X172.3Y-74.515
X172.3Y-75.34
X172.31Y-73.69
X172.72Y-76.2
X172.72Y-78.74
X172.72Y-83.82
X172.72Y-88.9
X172.72Y-91.44
X173.99Y-74.93
X173.99Y-77.47
X175.26Y-73.66
X175.26Y-76.2
X175.26Y-78.74
X175.26Y-83.82
X175.26Y-88.9
X175.658Y-69.8
X175.978Y-81.715
X175.978Y-90.235
X176.53Y-74.93
X176.53Y-77.47
X177.8Y-73.66
X177.8Y-76.2
X177.8Y-78.74
X177.8Y-83.82
X177.8Y-88.9
T2
X145.64Y-73.59
X145.64Y-76.13
X145.64Y-78.67
X145.64Y-81.21
X145.64Y-83.75
X145.64Y-86.29
X148.18Y-73.59
X148.18Y-76.13
X148.18Y-78.67
X148.18Y-81.21
X148.18Y-83.75
X148.18Y-86.29
M30
