M48
; DRILL file KiCad 10.0.3 date 2026-07-04T14:53:49
; FORMAT={-:-/ absolute / metric / decimal}
; #@! TF.CreationDate,2026-07-04T14:53:49+01:00
; #@! TF.GenerationSoftware,Kicad,Pcbnew,10.0.3
; #@! TF.FileFunction,Plated,1,4,PTH
FMAT,2
METRIC
; #@! TA.AperFunction,Plated,PTH,ViaDrill
T1C0.300
; #@! TA.AperFunction,Plated,PTH,ComponentDrill
T2C0.460
; #@! TA.AperFunction,Plated,PTH,ComponentDrill
T3C1.000
; #@! TA.AperFunction,Plated,PTH,ComponentDrill
T4C1.100
%
G90
G05
T1
X151.486Y-79.121
X152.552Y-79.146
X152.647Y-85.182
X152.857Y-85.954
X153.518Y-81.774
X153.66Y-78.98
X154.696Y-80.21
X154.94Y-76.2
X154.94Y-91.44
X155.23Y-88.76
X155.55Y-78.537
X156.21Y-74.93
X156.21Y-90.17
X156.596Y-81.874
X156.82Y-85.192
X157.48Y-76.2
X157.48Y-91.44
X157.886Y-77.724
X158.318Y-88.544
X158.648Y-79.959
X158.75Y-74.93
X158.75Y-83.922
X158.75Y-90.17
X159.38Y-77.92
X159.817Y-82.398
X159.817Y-84.938
X160.02Y-76.2
X160.417Y-80.05
X160.501Y-86.136
X160.825Y-78.975
X161.036Y-82.55
X161.29Y-90.17
X161.341Y-87.736
X161.55Y-78.375
X161.561Y-86.186
X161.595Y-84.023
X161.738Y-80.299
X162.458Y-84.924
X162.56Y-68.58
X162.56Y-71.12
X162.56Y-73.66
X162.56Y-76.2
X162.56Y-91.44
X162.591Y-86.206
X162.611Y-78.136
X162.611Y-89.006
X162.621Y-87.016
X162.731Y-88.006
X163.627Y-77.119
X163.627Y-89.108
X163.83Y-69.85
X163.83Y-72.39
X163.83Y-74.93
X163.83Y-90.17
X164.481Y-78.336
X164.491Y-87.976
X164.551Y-86.101
X164.561Y-87.006
X165.1Y-68.58
X165.1Y-71.12
X165.1Y-73.66
X165.1Y-76.2
X165.1Y-78.994
X165.1Y-91.44
X165.391Y-86.416
X166.065Y-79.045
X166.288Y-84.768
X166.321Y-86.456
X166.37Y-69.85
X166.37Y-74.93
X166.37Y-77.47
X166.37Y-87.63
X167.234Y-79.446
X167.431Y-86.296
X167.64Y-68.58
X167.64Y-73.66
X167.64Y-76.2
X167.64Y-91.44
X167.741Y-80.546
X168.291Y-85.556
X168.551Y-81.346
X168.91Y-69.85
X168.91Y-72.39
X168.91Y-74.93
X168.91Y-77.47
X168.91Y-90.17
X168.961Y-87.736
X169.011Y-84.996
X169.723Y-79.049
X170.131Y-84.786
X170.18Y-68.58
X170.18Y-71.12
X170.18Y-73.66
X170.18Y-76.2
X170.18Y-91.44
X170.231Y-86.466
X170.231Y-89.006
X170.485Y-82.652
X171.181Y-84.766
X171.45Y-69.85
X171.45Y-72.39
X171.45Y-74.93
X171.45Y-77.47
X171.45Y-90.17
X171.501Y-87.736
X171.552Y-82.855
X171.671Y-79.106
X172.241Y-84.946
X172.314Y-79.858
X172.72Y-68.58
X172.72Y-71.12
X172.72Y-73.66
X172.72Y-76.2
X172.72Y-80.721
X172.72Y-86.36
X172.72Y-88.9
X172.72Y-91.44
X173.076Y-84.074
X173.177Y-81.691
X173.99Y-69.85
X173.99Y-72.39
X173.99Y-74.93
X173.99Y-77.47
X173.99Y-87.63
X173.99Y-90.17
X174.041Y-81.28
X174.151Y-83.921
X174.181Y-82.101
X174.976Y-83.921
X174.991Y-82.091
X175.26Y-68.58
X175.26Y-71.12
X175.26Y-73.66
X175.26Y-76.2
X175.26Y-88.9
X175.26Y-91.44
X175.801Y-82.111
X175.801Y-83.921
X176.53Y-69.85
X176.53Y-72.39
X176.53Y-74.93
X176.53Y-77.47
X176.53Y-90.17
X177.8Y-68.58
X177.8Y-71.12
X177.8Y-73.66
X177.8Y-76.2
X177.8Y-88.9
X177.8Y-91.44
X179.07Y-69.85
X179.07Y-72.39
X179.07Y-74.93
X179.07Y-77.47
X179.07Y-90.17
T2
X175.676Y-79.468
X175.676Y-86.453
T3
X148.336Y-69.545
X148.336Y-72.085
X148.336Y-74.625
X148.336Y-77.165
X148.336Y-79.705
X148.336Y-82.245
X148.336Y-84.785
X148.336Y-87.325
X148.336Y-89.865
T4
X156.7Y-73.12
X159.24Y-73.12
M30
