%TF.GenerationSoftware,KiCad,Pcbnew,10.0.3*%
%TF.CreationDate,2026-07-04T14:53:51+01:00*%
%TF.ProjectId,CC1101_Multx,43433131-3031-45f4-9d75-6c74782e6b69,rev?*%
%TF.SameCoordinates,Original*%
%TF.FileFunction,Legend,Top*%
%TF.FilePolarity,Positive*%
%FSLAX46Y46*%
G04 Gerber Fmt 4.6, Leading zero omitted, Abs format (unit mm)*
G04 Created by KiCad (PCBNEW 10.0.3) date 2026-07-04 14:53:51*
%MOMM*%
%LPD*%
G01*
G04 APERTURE LIST*
%ADD10C,0.120000*%
%ADD11C,0.250000*%
G04 APERTURE END LIST*
%TO.C,C123_1*%
D10*
X170429594Y-79042864D02*
X170429594Y-79258536D01*
X171149594Y-79042864D02*
X171149594Y-79258536D01*
%TO.C,IC1*%
D11*
X154346000Y-80123600D02*
G75*
G02*
X154096000Y-80123600I-125000J0D01*
G01*
X154096000Y-80123600D02*
G75*
G02*
X154346000Y-80123600I125000J0D01*
G01*
%TO.C,J8*%
D10*
X146956000Y-91245200D02*
X146956000Y-89865200D01*
X148336000Y-91245200D02*
X146956000Y-91245200D01*
X149606000Y-88485200D02*
X149716000Y-88485200D01*
X149606000Y-91245200D02*
X149606000Y-88485200D01*
X149606000Y-91245200D02*
X149716000Y-91245200D01*
X149716000Y-91245200D02*
X149716000Y-88485200D01*
%TO.C,J7*%
X146956000Y-73465200D02*
X146956000Y-72085200D01*
X148336000Y-73465200D02*
X146956000Y-73465200D01*
X149606000Y-70705200D02*
X149716000Y-70705200D01*
X149606000Y-73465200D02*
X149606000Y-70705200D01*
X149606000Y-73465200D02*
X149716000Y-73465200D01*
X149716000Y-73465200D02*
X149716000Y-70705200D01*
%TO.C,C3*%
X151885764Y-81732800D02*
X152101436Y-81732800D01*
X151885764Y-82452800D02*
X152101436Y-82452800D01*
%TO.C,C51*%
X152101436Y-82799600D02*
X151885764Y-82799600D01*
X152101436Y-83519600D02*
X151885764Y-83519600D01*
%TO.C,J3*%
X146956000Y-83625200D02*
X146956000Y-82245200D01*
X148336000Y-83625200D02*
X146956000Y-83625200D01*
X149606000Y-80865200D02*
X149716000Y-80865200D01*
X149606000Y-83625200D02*
X149606000Y-80865200D01*
X149606000Y-83625200D02*
X149716000Y-83625200D01*
X149716000Y-83625200D02*
X149716000Y-80865200D01*
%TO.C,C131_1*%
X163266794Y-78496536D02*
X163266794Y-78280864D01*
X163986794Y-78496536D02*
X163986794Y-78280864D01*
%TO.C,BT1*%
X155080000Y-69900000D02*
X155670000Y-69900000D01*
X155080000Y-76340000D02*
X155080000Y-69900000D01*
X155670000Y-70520000D02*
X155080000Y-70520000D01*
X157730000Y-69900000D02*
X158210000Y-69900000D01*
X158210000Y-70520000D02*
X157730000Y-70520000D01*
X160270000Y-69900000D02*
X160860000Y-69900000D01*
X160860000Y-69900000D02*
X160860000Y-76340000D01*
X160860000Y-70520000D02*
X160270000Y-70520000D01*
X160860000Y-75820000D02*
X155080000Y-75820000D01*
X160860000Y-76340000D02*
X155080000Y-76340000D01*
X159240000Y-69550000D02*
X158800000Y-68940000D01*
X159680000Y-68940000D01*
X159240000Y-69550000D01*
G36*
X159240000Y-69550000D02*
G01*
X158800000Y-68940000D01*
X159680000Y-68940000D01*
X159240000Y-69550000D01*
G37*
%TO.C,J1*%
X146956000Y-81085200D02*
X146956000Y-79705200D01*
X148336000Y-81085200D02*
X146956000Y-81085200D01*
X149606000Y-78325200D02*
X149716000Y-78325200D01*
X149606000Y-81085200D02*
X149606000Y-78325200D01*
X149606000Y-81085200D02*
X149716000Y-81085200D01*
X149716000Y-81085200D02*
X149716000Y-78325200D01*
%TO.C,C131_2*%
X162845630Y-79628900D02*
X162629958Y-79628900D01*
X162845630Y-80348900D02*
X162629958Y-80348900D01*
%TO.C,C121_2*%
X163836230Y-81737100D02*
X163620558Y-81737100D01*
X163836230Y-82457100D02*
X163620558Y-82457100D01*
%TO.C,J6*%
X146956000Y-88705200D02*
X146956000Y-87325200D01*
X148336000Y-88705200D02*
X146956000Y-88705200D01*
X149606000Y-85945200D02*
X149716000Y-85945200D01*
X149606000Y-88705200D02*
X149606000Y-85945200D01*
X149606000Y-88705200D02*
X149716000Y-88705200D01*
X149716000Y-88705200D02*
X149716000Y-85945200D01*
%TO.C,C2*%
X151885764Y-80666000D02*
X152101436Y-80666000D01*
X151885764Y-81386000D02*
X152101436Y-81386000D01*
%TO.C,J4*%
X146956000Y-76005200D02*
X146956000Y-74625200D01*
X148336000Y-76005200D02*
X146956000Y-76005200D01*
X149606000Y-73245200D02*
X149716000Y-73245200D01*
X149606000Y-76005200D02*
X149606000Y-73245200D01*
X149606000Y-76005200D02*
X149716000Y-76005200D01*
X149716000Y-76005200D02*
X149716000Y-73245200D01*
%TO.C,Y1*%
X155394200Y-85972800D02*
X155394200Y-88372800D01*
X155394200Y-88372800D02*
X158194200Y-88372800D01*
%TO.C,J2*%
X146956000Y-78545200D02*
X146956000Y-77165200D01*
X148336000Y-78545200D02*
X146956000Y-78545200D01*
X149606000Y-75785200D02*
X149716000Y-75785200D01*
X149606000Y-78545200D02*
X149606000Y-75785200D01*
X149606000Y-78545200D02*
X149716000Y-78545200D01*
X149716000Y-78545200D02*
X149716000Y-75785200D01*
%TO.C,C122_2*%
X164636558Y-82854700D02*
X164852230Y-82854700D01*
X164636558Y-83574700D02*
X164852230Y-83574700D01*
%TO.C,J5*%
X146956000Y-86165200D02*
X146956000Y-84785200D01*
X148336000Y-86165200D02*
X146956000Y-86165200D01*
X149606000Y-83405200D02*
X149716000Y-83405200D01*
X149606000Y-86165200D02*
X149606000Y-83405200D01*
X149606000Y-86165200D02*
X149716000Y-86165200D01*
X149716000Y-86165200D02*
X149716000Y-83405200D01*
%TO.C,C4*%
X154402200Y-87509236D02*
X154402200Y-87293564D01*
X155122200Y-87509236D02*
X155122200Y-87293564D01*
%TO.C,L124_2*%
X168188415Y-83263500D02*
X168513973Y-83263500D01*
X168188415Y-84283500D02*
X168513973Y-84283500D01*
%TO.C,C123_2*%
X165908394Y-83779736D02*
X165908394Y-83564064D01*
X166628394Y-83779736D02*
X166628394Y-83564064D01*
%TO.C,C1*%
X151885764Y-79599200D02*
X152101436Y-79599200D01*
X151885764Y-80319200D02*
X152101436Y-80319200D01*
%TO.C,C122_1*%
X169159594Y-80566864D02*
X169159594Y-80782536D01*
X169879594Y-80566864D02*
X169879594Y-80782536D01*
%TO.C,C125_2*%
X170948230Y-83362700D02*
X170732558Y-83362700D01*
X170948230Y-84082700D02*
X170732558Y-84082700D01*
%TO.C,C121_1*%
X166211358Y-85140700D02*
X166427030Y-85140700D01*
X166211358Y-85860700D02*
X166427030Y-85860700D01*
%TO.C,R171*%
X156693600Y-78027559D02*
X156693600Y-78334841D01*
X157453600Y-78027559D02*
X157453600Y-78334841D01*
%TO.C,C124_2*%
X162680758Y-83870700D02*
X162896430Y-83870700D01*
X162680758Y-84590700D02*
X162896430Y-84590700D01*
%TO.C,C125_1*%
X171496394Y-81290536D02*
X171496394Y-81074864D01*
X172216394Y-81290536D02*
X172216394Y-81074864D01*
%TO.C,J9*%
X146956000Y-70925200D02*
X146956000Y-69545200D01*
X148336000Y-70925200D02*
X146956000Y-70925200D01*
X149606000Y-68165200D02*
X149716000Y-68165200D01*
X149606000Y-70925200D02*
X149606000Y-68165200D01*
X149606000Y-70925200D02*
X149716000Y-70925200D01*
X149716000Y-70925200D02*
X149716000Y-68165200D01*
%TO.C,C5*%
X158503200Y-87264436D02*
X158503200Y-87048764D01*
X159223200Y-87264436D02*
X159223200Y-87048764D01*
%TO.C,C124_1*%
X163266794Y-88097736D02*
X163266794Y-87882064D01*
X163986794Y-88097736D02*
X163986794Y-87882064D01*
%TD*%
M02*
