%TF.GenerationSoftware,KiCad,Pcbnew,10.0.3*%
%TF.CreationDate,2026-07-15T09:18:12+01:00*%
%TF.ProjectId,CC1101_Multx,43433131-3031-45f4-9d75-6c74782e6b69,rev?*%
%TF.SameCoordinates,Original*%
%TF.FileFunction,Copper,L3,Inr*%
%TF.FilePolarity,Positive*%
%FSLAX46Y46*%
G04 Gerber Fmt 4.6, Leading zero omitted, Abs format (unit mm)*
G04 Created by KiCad (PCBNEW 10.0.3) date 2026-07-15 09:18:12*
%MOMM*%
%LPD*%
G01*
G04 APERTURE LIST*
%TA.AperFunction,ComponentPad*%
%ADD10R,1.700000X1.700000*%
%TD*%
%TA.AperFunction,ComponentPad*%
%ADD11C,1.700000*%
%TD*%
%TA.AperFunction,ViaPad*%
%ADD12C,0.600000*%
%TD*%
G04 APERTURE END LIST*
D10*
%TO.N,Net-(J8-Pin_1)*%
%TO.C,J8*%
X148180000Y-86290000D03*
%TD*%
%TO.N,Net-(J7-Pin_1)*%
%TO.C,J7*%
X145640000Y-81210000D03*
%TD*%
%TO.N,Net-(IC1-GDO2)*%
%TO.C,J3*%
X148180000Y-78670000D03*
%TD*%
%TO.N,/AVDD*%
%TO.C,BT1*%
X148180000Y-73590000D03*
D11*
%TO.N,/AGND*%
X145640000Y-73590000D03*
%TD*%
D10*
%TO.N,Net-(IC1-SCLK)*%
%TO.C,J1*%
X148180000Y-76130000D03*
%TD*%
%TO.N,Net-(IC1-CSN)*%
%TO.C,J6*%
X148180000Y-83750000D03*
%TD*%
%TO.N,Net-(IC1-SI)*%
%TO.C,J4*%
X145640000Y-83750000D03*
%TD*%
%TO.N,Net-(IC1-SO_(GDO1))*%
%TO.C,J2*%
X145640000Y-86290000D03*
%TD*%
%TO.N,Net-(IC1-GDO0_(ATEST))*%
%TO.C,J5*%
X148180000Y-81210000D03*
%TD*%
%TO.N,/AGND*%
%TO.C,J9*%
X145640000Y-78670000D03*
%TD*%
%TO.N,/AGND*%
%TO.C,J1*%
X145640000Y-76130000D03*
%TD*%
D12*
%TO.N,/AGND*%
X155671002Y-80948602D03*
X157500000Y-80960000D03*
X161450000Y-78980000D03*
X172310000Y-73690000D03*
X157480000Y-71120000D03*
X156210000Y-72390000D03*
X157156497Y-89476707D03*
X165100000Y-91440000D03*
X163070000Y-78570000D03*
X171450000Y-90170000D03*
X158750000Y-69850000D03*
X160020000Y-73660000D03*
X158550000Y-84910000D03*
X161290000Y-77470000D03*
X177800000Y-73660000D03*
X172720000Y-78740000D03*
X156210000Y-74930000D03*
X154940000Y-91440000D03*
X168090000Y-86530000D03*
X173990000Y-77470000D03*
X160020000Y-91440000D03*
X172720000Y-76200000D03*
X157886400Y-77724000D03*
X157480000Y-68580000D03*
X158750000Y-90170000D03*
X166370000Y-90170000D03*
X161290000Y-74930000D03*
X152400000Y-91440000D03*
X167640000Y-76200000D03*
X164730000Y-86450000D03*
X164880000Y-77970000D03*
X176530000Y-74930000D03*
X151130000Y-69850000D03*
X149860000Y-91440000D03*
X161620000Y-85120000D03*
X165100000Y-73660000D03*
X168910000Y-87630000D03*
X163830000Y-69850000D03*
X172230000Y-85130000D03*
X161290000Y-90170000D03*
X160020000Y-68580000D03*
X163830000Y-74930000D03*
X168910000Y-77470000D03*
X151130000Y-72390000D03*
X163734250Y-80415196D03*
X165100000Y-68580000D03*
X172720000Y-83820000D03*
X151530000Y-83840000D03*
X170430000Y-79030000D03*
X175260000Y-73660000D03*
X163830000Y-72390000D03*
X167640000Y-88900000D03*
X165100000Y-76200000D03*
X149860000Y-68580000D03*
X165100000Y-71120000D03*
X150810000Y-81000000D03*
X154940000Y-68580000D03*
X153670000Y-72390000D03*
X151485600Y-79121000D03*
X158750000Y-74930000D03*
X153670000Y-90170000D03*
X162560000Y-68580000D03*
X151130000Y-87630000D03*
X163710076Y-83989957D03*
X159640000Y-85330000D03*
X175977636Y-81714953D03*
X154940000Y-73660000D03*
X170180000Y-76200000D03*
X160020000Y-86360000D03*
X162560000Y-91440000D03*
X168406523Y-84690805D03*
X175260000Y-76200000D03*
X160020000Y-88900000D03*
X157480000Y-76200000D03*
X163830000Y-90170000D03*
X163830000Y-87630000D03*
X161290000Y-87630000D03*
X177800000Y-76200000D03*
X156596000Y-81873600D03*
X168080000Y-77820000D03*
X152400000Y-71120000D03*
X162560000Y-71120000D03*
X169600000Y-78140000D03*
X151130000Y-90170000D03*
X159380000Y-77920000D03*
X172720000Y-88900000D03*
X163830000Y-77470000D03*
X172300000Y-75340000D03*
X175260000Y-88900000D03*
X173990000Y-74930000D03*
X167640000Y-73660000D03*
X160020000Y-71120000D03*
X153670000Y-74930000D03*
X153670000Y-69850000D03*
X150850000Y-79930000D03*
X175658111Y-69800000D03*
X170500000Y-73690000D03*
X162560000Y-86360000D03*
X153670000Y-87630000D03*
X165100000Y-88900000D03*
X175977636Y-90234953D03*
X170180000Y-91440000D03*
X163200000Y-85600000D03*
X157480000Y-91440000D03*
X162560000Y-76200000D03*
X177800000Y-78740000D03*
X158750000Y-72390000D03*
X167138111Y-69800000D03*
X160020000Y-76200000D03*
X151130000Y-74930000D03*
X166370000Y-74930000D03*
X169330000Y-86380000D03*
X170500000Y-74515000D03*
X154940000Y-71120000D03*
X168910000Y-90170000D03*
X152400000Y-73660000D03*
X154940000Y-76200000D03*
X172720000Y-91440000D03*
X152400000Y-88900000D03*
X175260000Y-78740000D03*
X166670000Y-77970000D03*
X177800000Y-88900000D03*
X149860000Y-88900000D03*
X172230000Y-86920000D03*
X177800000Y-83820000D03*
X176530000Y-77470000D03*
X162560000Y-73660000D03*
X158464265Y-78675735D03*
X172300000Y-74515000D03*
X170500000Y-75340000D03*
X170180000Y-88900000D03*
X166820000Y-86380000D03*
X167640000Y-91440000D03*
X175260000Y-83820000D03*
X161290000Y-69850000D03*
X157480000Y-73660000D03*
X156210000Y-90170000D03*
X170600000Y-86960000D03*
X162560000Y-88900000D03*
X152400000Y-68580000D03*
X156210000Y-69850000D03*
X168910000Y-74930000D03*
X161290000Y-72390000D03*
X149860000Y-71120000D03*
X170260000Y-85520000D03*
%TO.N,Net-(J7-Pin_1)*%
X161460000Y-79940000D03*
%TO.N,/AVDD*%
X158750000Y-83921600D03*
X152552400Y-79146400D03*
X157060000Y-85320000D03*
X158480000Y-79910000D03*
X161230000Y-81720000D03*
%TO.N,Net-(IC1-SO_(GDO1))*%
X154090000Y-78910000D03*
%TO.N,Net-(IC1-SI)*%
X155549600Y-78536800D03*
%TO.N,Net-(J8-Pin_1)*%
X161250000Y-82650000D03*
%TD*%
%TA.AperFunction,Conductor*%
%TO.N,/AVDD*%
G36*
X149653345Y-67332829D02*
G01*
X150150314Y-67572745D01*
X150202125Y-67619615D01*
X150220374Y-67687059D01*
X150199262Y-67753663D01*
X150145493Y-67798280D01*
X150076138Y-67806744D01*
X150072211Y-67806028D01*
X149938846Y-67779500D01*
X149938842Y-67779500D01*
X149781158Y-67779500D01*
X149781155Y-67779500D01*
X149626510Y-67810261D01*
X149626498Y-67810264D01*
X149480827Y-67870602D01*
X149480814Y-67870609D01*
X149349711Y-67958210D01*
X149349707Y-67958213D01*
X149238213Y-68069707D01*
X149238210Y-68069711D01*
X149150609Y-68200814D01*
X149150602Y-68200827D01*
X149090264Y-68346498D01*
X149090261Y-68346510D01*
X149059500Y-68501153D01*
X149059500Y-68658846D01*
X149090261Y-68813489D01*
X149090264Y-68813501D01*
X149150602Y-68959172D01*
X149150609Y-68959185D01*
X149238210Y-69090288D01*
X149238213Y-69090292D01*
X149349707Y-69201786D01*
X149349711Y-69201789D01*
X149480814Y-69289390D01*
X149480827Y-69289397D01*
X149564527Y-69324066D01*
X149626503Y-69349737D01*
X149781153Y-69380499D01*
X149781156Y-69380500D01*
X149781158Y-69380500D01*
X149938844Y-69380500D01*
X149938845Y-69380499D01*
X150093497Y-69349737D01*
X150239179Y-69289394D01*
X150267607Y-69270398D01*
X150334283Y-69249520D01*
X150401664Y-69268003D01*
X150448355Y-69319981D01*
X150459533Y-69388951D01*
X150439602Y-69442389D01*
X150420611Y-69470811D01*
X150420602Y-69470827D01*
X150360264Y-69616498D01*
X150360261Y-69616510D01*
X150329500Y-69771153D01*
X150329500Y-69928846D01*
X150360261Y-70083489D01*
X150360264Y-70083501D01*
X150420602Y-70229172D01*
X150420609Y-70229185D01*
X150439601Y-70257608D01*
X150460479Y-70324286D01*
X150441994Y-70391666D01*
X150390016Y-70438356D01*
X150321046Y-70449532D01*
X150267608Y-70429601D01*
X150239185Y-70410609D01*
X150239172Y-70410602D01*
X150093501Y-70350264D01*
X150093489Y-70350261D01*
X149938845Y-70319500D01*
X149938842Y-70319500D01*
X149781158Y-70319500D01*
X149781155Y-70319500D01*
X149626510Y-70350261D01*
X149626498Y-70350264D01*
X149480827Y-70410602D01*
X149480814Y-70410609D01*
X149349711Y-70498210D01*
X149349707Y-70498213D01*
X149238213Y-70609707D01*
X149238210Y-70609711D01*
X149150609Y-70740814D01*
X149150602Y-70740827D01*
X149090264Y-70886498D01*
X149090261Y-70886510D01*
X149059500Y-71041153D01*
X149059500Y-71198846D01*
X149090261Y-71353489D01*
X149090264Y-71353501D01*
X149150602Y-71499172D01*
X149150609Y-71499185D01*
X149238210Y-71630288D01*
X149238213Y-71630292D01*
X149349707Y-71741786D01*
X149349711Y-71741789D01*
X149480814Y-71829390D01*
X149480827Y-71829397D01*
X149602298Y-71879711D01*
X149626503Y-71889737D01*
X149781153Y-71920499D01*
X149781156Y-71920500D01*
X149781158Y-71920500D01*
X149938844Y-71920500D01*
X149938845Y-71920499D01*
X150093497Y-71889737D01*
X150239179Y-71829394D01*
X150267607Y-71810398D01*
X150334283Y-71789520D01*
X150401664Y-71808003D01*
X150448355Y-71859981D01*
X150459533Y-71928951D01*
X150439602Y-71982389D01*
X150420611Y-72010811D01*
X150420602Y-72010827D01*
X150360264Y-72156498D01*
X150360261Y-72156510D01*
X150329500Y-72311153D01*
X150329500Y-72468846D01*
X150360261Y-72623489D01*
X150360264Y-72623501D01*
X150420602Y-72769172D01*
X150420609Y-72769185D01*
X150508210Y-72900288D01*
X150508213Y-72900292D01*
X150619707Y-73011786D01*
X150619711Y-73011789D01*
X150750814Y-73099390D01*
X150750827Y-73099397D01*
X150896498Y-73159735D01*
X150896503Y-73159737D01*
X151051153Y-73190499D01*
X151051156Y-73190500D01*
X151051158Y-73190500D01*
X151208844Y-73190500D01*
X151208845Y-73190499D01*
X151363497Y-73159737D01*
X151509179Y-73099394D01*
X151537607Y-73080398D01*
X151604283Y-73059520D01*
X151671664Y-73078003D01*
X151718355Y-73129981D01*
X151729533Y-73198951D01*
X151709602Y-73252389D01*
X151690611Y-73280811D01*
X151690602Y-73280827D01*
X151630264Y-73426498D01*
X151630261Y-73426510D01*
X151599500Y-73581153D01*
X151599500Y-73738846D01*
X151630261Y-73893489D01*
X151630264Y-73893501D01*
X151690602Y-74039172D01*
X151690609Y-74039185D01*
X151709601Y-74067608D01*
X151730479Y-74134286D01*
X151711994Y-74201666D01*
X151660016Y-74248356D01*
X151591046Y-74259532D01*
X151537608Y-74239601D01*
X151509185Y-74220609D01*
X151509172Y-74220602D01*
X151363501Y-74160264D01*
X151363489Y-74160261D01*
X151208845Y-74129500D01*
X151208842Y-74129500D01*
X151051158Y-74129500D01*
X151051155Y-74129500D01*
X150896510Y-74160261D01*
X150896498Y-74160264D01*
X150750827Y-74220602D01*
X150750814Y-74220609D01*
X150619711Y-74308210D01*
X150619707Y-74308213D01*
X150508213Y-74419707D01*
X150508210Y-74419711D01*
X150420609Y-74550814D01*
X150420602Y-74550827D01*
X150360264Y-74696498D01*
X150360261Y-74696510D01*
X150329500Y-74851153D01*
X150329500Y-75008846D01*
X150360261Y-75163489D01*
X150360264Y-75163501D01*
X150420602Y-75309172D01*
X150420609Y-75309185D01*
X150508210Y-75440288D01*
X150508213Y-75440292D01*
X150619707Y-75551786D01*
X150619711Y-75551789D01*
X150750814Y-75639390D01*
X150750827Y-75639397D01*
X150883751Y-75694455D01*
X150896503Y-75699737D01*
X151051153Y-75730499D01*
X151051156Y-75730500D01*
X151051158Y-75730500D01*
X151208844Y-75730500D01*
X151208845Y-75730499D01*
X151363497Y-75699737D01*
X151509179Y-75639394D01*
X151640289Y-75551789D01*
X151751789Y-75440289D01*
X151839394Y-75309179D01*
X151899737Y-75163497D01*
X151930500Y-75008842D01*
X151930500Y-74851158D01*
X151930500Y-74851155D01*
X151930499Y-74851153D01*
X151899738Y-74696510D01*
X151899737Y-74696503D01*
X151899735Y-74696498D01*
X151839397Y-74550827D01*
X151839395Y-74550823D01*
X151839394Y-74550821D01*
X151820398Y-74522391D01*
X151799520Y-74455714D01*
X151818004Y-74388334D01*
X151869983Y-74341643D01*
X151938953Y-74330467D01*
X151992391Y-74350398D01*
X152020815Y-74369390D01*
X152020821Y-74369394D01*
X152020823Y-74369395D01*
X152020827Y-74369397D01*
X152142288Y-74419707D01*
X152166503Y-74429737D01*
X152321153Y-74460499D01*
X152321156Y-74460500D01*
X152321158Y-74460500D01*
X152478844Y-74460500D01*
X152478845Y-74460499D01*
X152633497Y-74429737D01*
X152779179Y-74369394D01*
X152807607Y-74350398D01*
X152874283Y-74329520D01*
X152941664Y-74348003D01*
X152988355Y-74399981D01*
X152999533Y-74468951D01*
X152979602Y-74522389D01*
X152960611Y-74550811D01*
X152960602Y-74550827D01*
X152900264Y-74696498D01*
X152900261Y-74696510D01*
X152869500Y-74851153D01*
X152869500Y-75008846D01*
X152900261Y-75163489D01*
X152900264Y-75163501D01*
X152960602Y-75309172D01*
X152960609Y-75309185D01*
X153048210Y-75440288D01*
X153048213Y-75440292D01*
X153159707Y-75551786D01*
X153159711Y-75551789D01*
X153290814Y-75639390D01*
X153290827Y-75639397D01*
X153423751Y-75694455D01*
X153436503Y-75699737D01*
X153591153Y-75730499D01*
X153591156Y-75730500D01*
X153591158Y-75730500D01*
X153748844Y-75730500D01*
X153748845Y-75730499D01*
X153903497Y-75699737D01*
X154049179Y-75639394D01*
X154077607Y-75620398D01*
X154144283Y-75599520D01*
X154211664Y-75618003D01*
X154258355Y-75669981D01*
X154269533Y-75738951D01*
X154249602Y-75792389D01*
X154230611Y-75820811D01*
X154230602Y-75820827D01*
X154170264Y-75966498D01*
X154170261Y-75966510D01*
X154139500Y-76121153D01*
X154139500Y-76278846D01*
X154170261Y-76433489D01*
X154170264Y-76433501D01*
X154230602Y-76579172D01*
X154230609Y-76579185D01*
X154318210Y-76710288D01*
X154318213Y-76710292D01*
X154429707Y-76821786D01*
X154429711Y-76821789D01*
X154560814Y-76909390D01*
X154560827Y-76909397D01*
X154706498Y-76969735D01*
X154706503Y-76969737D01*
X154861153Y-77000499D01*
X154861156Y-77000500D01*
X154861158Y-77000500D01*
X155018844Y-77000500D01*
X155018845Y-77000499D01*
X155173497Y-76969737D01*
X155305618Y-76915011D01*
X155319172Y-76909397D01*
X155319172Y-76909396D01*
X155319179Y-76909394D01*
X155450289Y-76821789D01*
X155561789Y-76710289D01*
X155649394Y-76579179D01*
X155709737Y-76433497D01*
X155740500Y-76278842D01*
X155740500Y-76121158D01*
X155740500Y-76121155D01*
X155740499Y-76121153D01*
X155709738Y-75966510D01*
X155709737Y-75966503D01*
X155661600Y-75850289D01*
X155649397Y-75820827D01*
X155649395Y-75820823D01*
X155649394Y-75820821D01*
X155645655Y-75815225D01*
X155630398Y-75792391D01*
X155609520Y-75725714D01*
X155628004Y-75658334D01*
X155679983Y-75611643D01*
X155748953Y-75600467D01*
X155802391Y-75620398D01*
X155821093Y-75632894D01*
X155830821Y-75639394D01*
X155830823Y-75639395D01*
X155830827Y-75639397D01*
X155963751Y-75694455D01*
X155976503Y-75699737D01*
X156131153Y-75730499D01*
X156131156Y-75730500D01*
X156131158Y-75730500D01*
X156288844Y-75730500D01*
X156288845Y-75730499D01*
X156443497Y-75699737D01*
X156589179Y-75639394D01*
X156617607Y-75620398D01*
X156684283Y-75599520D01*
X156751664Y-75618003D01*
X156798355Y-75669981D01*
X156809533Y-75738951D01*
X156789602Y-75792389D01*
X156770611Y-75820811D01*
X156770602Y-75820827D01*
X156710264Y-75966498D01*
X156710261Y-75966510D01*
X156679500Y-76121153D01*
X156679500Y-76278846D01*
X156710261Y-76433489D01*
X156710264Y-76433501D01*
X156770602Y-76579172D01*
X156770609Y-76579185D01*
X156858210Y-76710288D01*
X156858213Y-76710292D01*
X156969707Y-76821786D01*
X156969711Y-76821789D01*
X157100814Y-76909390D01*
X157100827Y-76909397D01*
X157246502Y-76969737D01*
X157249617Y-76970682D01*
X157251047Y-76971619D01*
X157252130Y-76972068D01*
X157252044Y-76972273D01*
X157308054Y-77008982D01*
X157336508Y-77072795D01*
X157325945Y-77141862D01*
X157301299Y-77177021D01*
X157264614Y-77213706D01*
X157264610Y-77213711D01*
X157177009Y-77344814D01*
X157177002Y-77344827D01*
X157116664Y-77490498D01*
X157116661Y-77490510D01*
X157085900Y-77645153D01*
X157085900Y-77802846D01*
X157116661Y-77957489D01*
X157116664Y-77957501D01*
X157177002Y-78103172D01*
X157177009Y-78103185D01*
X157264610Y-78234288D01*
X157264613Y-78234292D01*
X157376107Y-78345786D01*
X157376111Y-78345789D01*
X157507214Y-78433390D01*
X157507221Y-78433394D01*
X157588136Y-78466910D01*
X157642538Y-78510749D01*
X157664604Y-78577043D01*
X157664087Y-78593611D01*
X157663765Y-78596883D01*
X157663765Y-78754581D01*
X157694526Y-78909224D01*
X157694529Y-78909236D01*
X157754867Y-79054907D01*
X157754874Y-79054920D01*
X157842475Y-79186023D01*
X157842478Y-79186027D01*
X157953972Y-79297521D01*
X157953976Y-79297524D01*
X158085079Y-79385125D01*
X158085092Y-79385132D01*
X158230763Y-79445470D01*
X158230768Y-79445472D01*
X158385418Y-79476234D01*
X158385421Y-79476235D01*
X158385423Y-79476235D01*
X158543109Y-79476235D01*
X158543110Y-79476234D01*
X158697762Y-79445472D01*
X158810941Y-79398592D01*
X158843437Y-79385132D01*
X158843437Y-79385131D01*
X158843444Y-79385129D01*
X158974554Y-79297524D01*
X159086054Y-79186024D01*
X159173659Y-79054914D01*
X159234002Y-78909232D01*
X159245905Y-78849394D01*
X159251691Y-78820308D01*
X159284076Y-78758397D01*
X159344792Y-78723823D01*
X159373308Y-78720500D01*
X159458844Y-78720500D01*
X159458845Y-78720499D01*
X159613497Y-78689737D01*
X159759179Y-78629394D01*
X159890289Y-78541789D01*
X160001789Y-78430289D01*
X160089394Y-78299179D01*
X160093938Y-78288210D01*
X160116272Y-78234289D01*
X160149737Y-78153497D01*
X160180500Y-77998842D01*
X160180500Y-77841158D01*
X160180500Y-77841155D01*
X160180499Y-77841153D01*
X160177765Y-77827409D01*
X160149737Y-77686503D01*
X160137262Y-77656386D01*
X160089397Y-77540827D01*
X160089390Y-77540814D01*
X160001789Y-77409711D01*
X160001786Y-77409707D01*
X159890292Y-77298213D01*
X159890288Y-77298210D01*
X159754114Y-77207221D01*
X159755354Y-77205364D01*
X159712649Y-77163419D01*
X159697184Y-77095283D01*
X159721012Y-77029602D01*
X159776567Y-76987229D01*
X159845135Y-76981400D01*
X159941155Y-77000500D01*
X159941158Y-77000500D01*
X160098844Y-77000500D01*
X160098845Y-77000499D01*
X160253497Y-76969737D01*
X160385618Y-76915011D01*
X160399172Y-76909397D01*
X160399172Y-76909396D01*
X160399179Y-76909394D01*
X160427607Y-76890398D01*
X160494283Y-76869520D01*
X160561664Y-76888003D01*
X160608355Y-76939981D01*
X160619533Y-77008951D01*
X160599602Y-77062389D01*
X160580611Y-77090811D01*
X160580602Y-77090827D01*
X160520264Y-77236498D01*
X160520261Y-77236510D01*
X160489500Y-77391153D01*
X160489500Y-77548846D01*
X160520261Y-77703489D01*
X160520264Y-77703501D01*
X160580602Y-77849172D01*
X160580609Y-77849185D01*
X160668210Y-77980288D01*
X160668213Y-77980292D01*
X160779707Y-78091786D01*
X160779711Y-78091789D01*
X160909701Y-78178646D01*
X160954506Y-78232258D01*
X160963213Y-78301583D01*
X160933059Y-78364611D01*
X160928492Y-78369429D01*
X160828210Y-78469711D01*
X160740609Y-78600814D01*
X160740602Y-78600827D01*
X160680264Y-78746498D01*
X160680261Y-78746510D01*
X160649500Y-78901153D01*
X160649500Y-79058846D01*
X160680261Y-79213489D01*
X160680264Y-79213501D01*
X160740602Y-79359171D01*
X160740603Y-79359172D01*
X160740606Y-79359179D01*
X160759428Y-79387349D01*
X160766941Y-79398592D01*
X160787819Y-79465270D01*
X160769334Y-79532650D01*
X160766941Y-79536374D01*
X160750609Y-79560815D01*
X160750602Y-79560828D01*
X160690264Y-79706498D01*
X160690261Y-79706510D01*
X160659500Y-79861153D01*
X160659500Y-80018846D01*
X160690261Y-80173489D01*
X160690264Y-80173501D01*
X160750602Y-80319172D01*
X160750609Y-80319185D01*
X160838210Y-80450288D01*
X160838213Y-80450292D01*
X160949707Y-80561786D01*
X160949711Y-80561789D01*
X161080814Y-80649390D01*
X161080827Y-80649397D01*
X161226498Y-80709735D01*
X161226503Y-80709737D01*
X161381153Y-80740499D01*
X161381156Y-80740500D01*
X161381158Y-80740500D01*
X161538844Y-80740500D01*
X161538845Y-80740499D01*
X161693497Y-80709737D01*
X161839179Y-80649394D01*
X161970289Y-80561789D01*
X162081789Y-80450289D01*
X162157921Y-80336349D01*
X162933750Y-80336349D01*
X162933750Y-80494042D01*
X162964511Y-80648685D01*
X162964514Y-80648697D01*
X163024852Y-80794368D01*
X163024859Y-80794381D01*
X163112460Y-80925484D01*
X163112463Y-80925488D01*
X163223957Y-81036982D01*
X163223961Y-81036985D01*
X163355064Y-81124586D01*
X163355077Y-81124593D01*
X163493892Y-81182091D01*
X163500753Y-81184933D01*
X163599927Y-81204660D01*
X163655403Y-81215695D01*
X163655406Y-81215696D01*
X163655408Y-81215696D01*
X163813094Y-81215696D01*
X163813095Y-81215695D01*
X163967747Y-81184933D01*
X164113429Y-81124590D01*
X164244539Y-81036985D01*
X164356039Y-80925485D01*
X164443644Y-80794375D01*
X164503987Y-80648693D01*
X164534750Y-80494038D01*
X164534750Y-80336354D01*
X164534750Y-80336351D01*
X164534749Y-80336349D01*
X164529346Y-80309185D01*
X164503987Y-80181699D01*
X164477465Y-80117668D01*
X164443647Y-80036023D01*
X164443640Y-80036010D01*
X164356039Y-79904907D01*
X164356036Y-79904903D01*
X164244542Y-79793409D01*
X164244538Y-79793406D01*
X164113435Y-79705805D01*
X164113422Y-79705798D01*
X163967751Y-79645460D01*
X163967739Y-79645457D01*
X163813095Y-79614696D01*
X163813092Y-79614696D01*
X163655408Y-79614696D01*
X163655405Y-79614696D01*
X163500760Y-79645457D01*
X163500748Y-79645460D01*
X163355077Y-79705798D01*
X163355064Y-79705805D01*
X163223961Y-79793406D01*
X163223957Y-79793409D01*
X163112463Y-79904903D01*
X163112460Y-79904907D01*
X163024859Y-80036010D01*
X163024852Y-80036023D01*
X162964514Y-80181694D01*
X162964511Y-80181706D01*
X162933750Y-80336349D01*
X162157921Y-80336349D01*
X162169394Y-80319179D01*
X162173539Y-80309172D01*
X162184459Y-80282810D01*
X162222793Y-80190261D01*
X162229737Y-80173497D01*
X162260500Y-80018842D01*
X162260500Y-79861158D01*
X162260500Y-79861155D01*
X162260499Y-79861153D01*
X162254402Y-79830500D01*
X162229737Y-79706503D01*
X162218650Y-79679737D01*
X162169397Y-79560827D01*
X162169390Y-79560814D01*
X162143059Y-79521407D01*
X162122181Y-79454729D01*
X162140666Y-79387349D01*
X162143032Y-79383664D01*
X162159394Y-79359179D01*
X162219737Y-79213497D01*
X162229671Y-79163556D01*
X162234490Y-79139331D01*
X162266875Y-79077420D01*
X162327590Y-79042846D01*
X162397360Y-79046585D01*
X162441946Y-79077938D01*
X162443903Y-79075982D01*
X162559707Y-79191786D01*
X162559711Y-79191789D01*
X162690814Y-79279390D01*
X162690827Y-79279397D01*
X162836498Y-79339735D01*
X162836503Y-79339737D01*
X162991153Y-79370499D01*
X162991156Y-79370500D01*
X162991158Y-79370500D01*
X163148844Y-79370500D01*
X163148845Y-79370499D01*
X163303497Y-79339737D01*
X163449179Y-79279394D01*
X163580289Y-79191789D01*
X163691789Y-79080289D01*
X163779394Y-78949179D01*
X163782497Y-78941689D01*
X163820726Y-78849394D01*
X163839737Y-78803497D01*
X163870500Y-78648842D01*
X163870500Y-78491158D01*
X163868338Y-78480291D01*
X163857052Y-78423552D01*
X163853929Y-78407851D01*
X163854735Y-78398837D01*
X163851724Y-78390300D01*
X163857800Y-78364581D01*
X163860156Y-78338262D01*
X163865709Y-78331113D01*
X163867791Y-78322303D01*
X163886807Y-78303952D01*
X163903018Y-78283084D01*
X163912884Y-78278789D01*
X163918069Y-78273786D01*
X163951353Y-78262044D01*
X163960301Y-78260264D01*
X164020763Y-78248237D01*
X164090352Y-78254464D01*
X164145530Y-78297326D01*
X164159513Y-78322399D01*
X164165355Y-78336503D01*
X164170608Y-78349183D01*
X164258210Y-78480288D01*
X164258213Y-78480292D01*
X164369707Y-78591786D01*
X164369711Y-78591789D01*
X164500814Y-78679390D01*
X164500827Y-78679397D01*
X164646498Y-78739735D01*
X164646503Y-78739737D01*
X164800097Y-78770289D01*
X164801153Y-78770499D01*
X164801156Y-78770500D01*
X164801158Y-78770500D01*
X164958844Y-78770500D01*
X164958845Y-78770499D01*
X165113497Y-78739737D01*
X165259179Y-78679394D01*
X165390289Y-78591789D01*
X165501789Y-78480289D01*
X165589394Y-78349179D01*
X165590800Y-78345786D01*
X165610102Y-78299185D01*
X165649737Y-78203497D01*
X165652257Y-78190827D01*
X165653383Y-78185170D01*
X165685768Y-78123259D01*
X165746484Y-78088685D01*
X165816253Y-78092424D01*
X165872925Y-78133291D01*
X165896617Y-78185170D01*
X165900261Y-78203489D01*
X165900264Y-78203501D01*
X165960602Y-78349172D01*
X165960609Y-78349185D01*
X166048210Y-78480288D01*
X166048213Y-78480292D01*
X166159707Y-78591786D01*
X166159711Y-78591789D01*
X166290814Y-78679390D01*
X166290827Y-78679397D01*
X166436498Y-78739735D01*
X166436503Y-78739737D01*
X166590097Y-78770289D01*
X166591153Y-78770499D01*
X166591156Y-78770500D01*
X166591158Y-78770500D01*
X166748844Y-78770500D01*
X166748845Y-78770499D01*
X166903497Y-78739737D01*
X167049179Y-78679394D01*
X167180289Y-78591789D01*
X167291789Y-78480289D01*
X167334587Y-78416237D01*
X167388197Y-78371434D01*
X167457522Y-78362726D01*
X167520550Y-78392880D01*
X167525369Y-78397448D01*
X167569707Y-78441786D01*
X167569711Y-78441789D01*
X167700814Y-78529390D01*
X167700827Y-78529397D01*
X167846498Y-78589735D01*
X167846503Y-78589737D01*
X168001153Y-78620499D01*
X168001156Y-78620500D01*
X168001158Y-78620500D01*
X168158844Y-78620500D01*
X168158845Y-78620499D01*
X168313497Y-78589737D01*
X168429262Y-78541786D01*
X168459172Y-78529397D01*
X168459172Y-78529396D01*
X168459179Y-78529394D01*
X168590289Y-78441789D01*
X168648755Y-78383322D01*
X168710076Y-78349839D01*
X168779768Y-78354823D01*
X168835702Y-78396694D01*
X168850996Y-78423552D01*
X168890604Y-78519176D01*
X168890609Y-78519185D01*
X168978210Y-78650288D01*
X168978213Y-78650292D01*
X169089707Y-78761786D01*
X169089711Y-78761789D01*
X169220814Y-78849390D01*
X169220827Y-78849397D01*
X169345779Y-78901153D01*
X169366503Y-78909737D01*
X169414725Y-78919329D01*
X169527132Y-78941689D01*
X169526707Y-78943820D01*
X169582402Y-78966284D01*
X169622784Y-79023302D01*
X169629500Y-79063557D01*
X169629500Y-79108846D01*
X169660261Y-79263489D01*
X169660264Y-79263501D01*
X169720602Y-79409172D01*
X169720609Y-79409185D01*
X169808210Y-79540288D01*
X169808213Y-79540292D01*
X169919707Y-79651786D01*
X169919711Y-79651789D01*
X170050814Y-79739390D01*
X170050827Y-79739397D01*
X170182937Y-79794118D01*
X170196503Y-79799737D01*
X170350605Y-79830390D01*
X170351153Y-79830499D01*
X170351156Y-79830500D01*
X170351158Y-79830500D01*
X170508844Y-79830500D01*
X170508845Y-79830499D01*
X170663497Y-79799737D01*
X170809179Y-79739394D01*
X170940289Y-79651789D01*
X171051789Y-79540289D01*
X171139394Y-79409179D01*
X171199737Y-79263497D01*
X171230500Y-79108842D01*
X171230500Y-78951158D01*
X171230500Y-78951155D01*
X171230499Y-78951153D01*
X171220553Y-78901153D01*
X171199737Y-78796503D01*
X171183953Y-78758397D01*
X171139397Y-78650827D01*
X171139390Y-78650814D01*
X171051789Y-78519711D01*
X171051786Y-78519707D01*
X170940292Y-78408213D01*
X170940288Y-78408210D01*
X170809185Y-78320609D01*
X170809172Y-78320602D01*
X170663501Y-78260264D01*
X170663489Y-78260261D01*
X170502868Y-78228311D01*
X170503290Y-78226187D01*
X170447560Y-78203685D01*
X170407200Y-78146651D01*
X170400500Y-78106442D01*
X170400500Y-78061155D01*
X170400499Y-78061153D01*
X170388104Y-77998842D01*
X170369737Y-77906503D01*
X170350726Y-77860606D01*
X170309397Y-77760827D01*
X170309390Y-77760814D01*
X170221789Y-77629711D01*
X170221786Y-77629707D01*
X170110292Y-77518213D01*
X170110288Y-77518210D01*
X169979185Y-77430609D01*
X169979172Y-77430602D01*
X169833501Y-77370264D01*
X169833489Y-77370261D01*
X169782367Y-77360092D01*
X169766065Y-77351564D01*
X169748054Y-77347806D01*
X169735747Y-77335705D01*
X169720456Y-77327707D01*
X169711352Y-77311720D01*
X169698232Y-77298820D01*
X169687712Y-77270205D01*
X169685882Y-77266991D01*
X169685619Y-77265857D01*
X169685263Y-77264287D01*
X169679737Y-77236503D01*
X169678051Y-77232434D01*
X169675743Y-77222237D01*
X169677670Y-77191647D01*
X169677395Y-77160993D01*
X169679848Y-77157098D01*
X169680138Y-77152505D01*
X169698300Y-77127810D01*
X169714639Y-77101877D01*
X169718808Y-77099927D01*
X169721535Y-77096220D01*
X169750165Y-77085264D01*
X169777931Y-77072281D01*
X169782491Y-77072894D01*
X169786790Y-77071250D01*
X169816794Y-77077511D01*
X169847176Y-77081601D01*
X169850537Y-77083162D01*
X172000852Y-78121241D01*
X172052664Y-78168111D01*
X172070913Y-78235555D01*
X172050043Y-78301797D01*
X172010612Y-78360809D01*
X172010602Y-78360827D01*
X171950264Y-78506498D01*
X171950261Y-78506510D01*
X171919500Y-78661153D01*
X171919500Y-78818846D01*
X171950261Y-78973489D01*
X171950264Y-78973501D01*
X172010602Y-79119172D01*
X172010609Y-79119185D01*
X172098210Y-79250288D01*
X172098213Y-79250292D01*
X172209707Y-79361786D01*
X172209711Y-79361789D01*
X172340814Y-79449390D01*
X172340827Y-79449397D01*
X172463442Y-79500185D01*
X172486503Y-79509737D01*
X172640092Y-79540288D01*
X172641153Y-79540499D01*
X172641156Y-79540500D01*
X172641158Y-79540500D01*
X172798844Y-79540500D01*
X172798845Y-79540499D01*
X172953497Y-79509737D01*
X173099179Y-79449394D01*
X173230289Y-79361789D01*
X173341789Y-79250289D01*
X173429394Y-79119179D01*
X173485576Y-78983541D01*
X173529414Y-78929143D01*
X173595708Y-78907077D01*
X173654040Y-78919329D01*
X178150224Y-81089892D01*
X178202038Y-81136764D01*
X178220315Y-81201584D01*
X178219973Y-82941949D01*
X178200275Y-83008985D01*
X178147462Y-83054729D01*
X178078302Y-83064659D01*
X178048522Y-83056486D01*
X178033497Y-83050263D01*
X178033489Y-83050261D01*
X177878845Y-83019500D01*
X177878842Y-83019500D01*
X177721158Y-83019500D01*
X177721155Y-83019500D01*
X177566510Y-83050261D01*
X177566498Y-83050264D01*
X177420827Y-83110602D01*
X177420814Y-83110609D01*
X177289711Y-83198210D01*
X177289707Y-83198213D01*
X177178213Y-83309707D01*
X177178210Y-83309711D01*
X177090609Y-83440814D01*
X177090602Y-83440827D01*
X177030264Y-83586498D01*
X177030261Y-83586510D01*
X176999500Y-83741153D01*
X176999500Y-83898846D01*
X177030261Y-84053489D01*
X177030264Y-84053501D01*
X177090602Y-84199172D01*
X177090609Y-84199185D01*
X177178210Y-84330288D01*
X177178213Y-84330292D01*
X177289707Y-84441786D01*
X177289711Y-84441789D01*
X177420814Y-84529390D01*
X177420821Y-84529394D01*
X177446776Y-84540144D01*
X177501179Y-84583985D01*
X177523245Y-84650278D01*
X177505967Y-84717978D01*
X177454830Y-84765589D01*
X177439580Y-84771990D01*
X172878074Y-86337661D01*
X172808275Y-86340806D01*
X172750137Y-86308058D01*
X172740292Y-86298213D01*
X172740288Y-86298210D01*
X172609185Y-86210609D01*
X172609172Y-86210602D01*
X172463501Y-86150264D01*
X172463489Y-86150261D01*
X172445170Y-86146617D01*
X172383259Y-86114232D01*
X172348685Y-86053516D01*
X172352424Y-85983747D01*
X172393291Y-85927075D01*
X172445170Y-85903383D01*
X172453639Y-85901697D01*
X172463497Y-85899737D01*
X172609179Y-85839394D01*
X172740289Y-85751789D01*
X172851789Y-85640289D01*
X172939394Y-85509179D01*
X172999737Y-85363497D01*
X173030500Y-85208842D01*
X173030500Y-85051158D01*
X173030500Y-85051155D01*
X173030499Y-85051153D01*
X173015990Y-84978211D01*
X172999737Y-84896503D01*
X172987797Y-84867677D01*
X172939397Y-84750827D01*
X172936521Y-84745446D01*
X172938771Y-84744243D01*
X172921216Y-84688193D01*
X172939695Y-84620811D01*
X172991671Y-84574117D01*
X172997699Y-84571428D01*
X173099179Y-84529394D01*
X173230289Y-84441789D01*
X173341789Y-84330289D01*
X173429394Y-84199179D01*
X173489737Y-84053497D01*
X173520500Y-83898842D01*
X173520500Y-83741158D01*
X173520500Y-83741155D01*
X173520499Y-83741153D01*
X174459500Y-83741153D01*
X174459500Y-83898846D01*
X174490261Y-84053489D01*
X174490264Y-84053501D01*
X174550602Y-84199172D01*
X174550609Y-84199185D01*
X174638210Y-84330288D01*
X174638213Y-84330292D01*
X174749707Y-84441786D01*
X174749711Y-84441789D01*
X174880814Y-84529390D01*
X174880827Y-84529397D01*
X175012616Y-84583985D01*
X175026503Y-84589737D01*
X175181153Y-84620499D01*
X175181156Y-84620500D01*
X175181158Y-84620500D01*
X175338844Y-84620500D01*
X175338845Y-84620499D01*
X175493497Y-84589737D01*
X175616345Y-84538852D01*
X175639172Y-84529397D01*
X175639172Y-84529396D01*
X175639179Y-84529394D01*
X175770289Y-84441789D01*
X175881789Y-84330289D01*
X175969394Y-84199179D01*
X176029737Y-84053497D01*
X176060500Y-83898842D01*
X176060500Y-83741158D01*
X176060500Y-83741155D01*
X176060499Y-83741153D01*
X176029737Y-83586503D01*
X175985485Y-83479668D01*
X175969397Y-83440827D01*
X175969390Y-83440814D01*
X175881789Y-83309711D01*
X175881786Y-83309707D01*
X175770292Y-83198213D01*
X175770288Y-83198210D01*
X175639185Y-83110609D01*
X175639172Y-83110602D01*
X175493501Y-83050264D01*
X175493489Y-83050261D01*
X175338845Y-83019500D01*
X175338842Y-83019500D01*
X175181158Y-83019500D01*
X175181155Y-83019500D01*
X175026510Y-83050261D01*
X175026498Y-83050264D01*
X174880827Y-83110602D01*
X174880814Y-83110609D01*
X174749711Y-83198210D01*
X174749707Y-83198213D01*
X174638213Y-83309707D01*
X174638210Y-83309711D01*
X174550609Y-83440814D01*
X174550602Y-83440827D01*
X174490264Y-83586498D01*
X174490261Y-83586510D01*
X174459500Y-83741153D01*
X173520499Y-83741153D01*
X173489737Y-83586503D01*
X173445485Y-83479668D01*
X173429397Y-83440827D01*
X173429390Y-83440814D01*
X173341789Y-83309711D01*
X173341786Y-83309707D01*
X173230292Y-83198213D01*
X173230288Y-83198210D01*
X173099185Y-83110609D01*
X173099172Y-83110602D01*
X172953501Y-83050264D01*
X172953489Y-83050261D01*
X172798845Y-83019500D01*
X172798842Y-83019500D01*
X172641158Y-83019500D01*
X172641155Y-83019500D01*
X172486510Y-83050261D01*
X172486498Y-83050264D01*
X172340827Y-83110602D01*
X172340814Y-83110609D01*
X172209711Y-83198210D01*
X172209707Y-83198213D01*
X172098213Y-83309707D01*
X172098210Y-83309711D01*
X172010609Y-83440814D01*
X172010602Y-83440827D01*
X171950264Y-83586498D01*
X171950261Y-83586510D01*
X171919500Y-83741153D01*
X171919500Y-83898846D01*
X171950261Y-84053489D01*
X171950264Y-84053501D01*
X172010602Y-84199172D01*
X172013479Y-84204554D01*
X172011232Y-84205754D01*
X172028784Y-84261834D01*
X172010289Y-84329211D01*
X171958303Y-84375894D01*
X171952256Y-84378590D01*
X171850823Y-84420604D01*
X171850814Y-84420609D01*
X171719711Y-84508210D01*
X171719707Y-84508213D01*
X171608213Y-84619707D01*
X171608210Y-84619711D01*
X171520609Y-84750814D01*
X171520602Y-84750827D01*
X171460264Y-84896498D01*
X171460261Y-84896510D01*
X171429500Y-85051153D01*
X171429500Y-85208846D01*
X171460261Y-85363489D01*
X171460264Y-85363501D01*
X171520602Y-85509172D01*
X171520609Y-85509185D01*
X171608210Y-85640288D01*
X171608213Y-85640292D01*
X171719707Y-85751786D01*
X171719711Y-85751789D01*
X171850814Y-85839390D01*
X171850827Y-85839397D01*
X171982768Y-85894048D01*
X171996503Y-85899737D01*
X171996507Y-85899737D01*
X171996508Y-85899738D01*
X172014830Y-85903383D01*
X172076741Y-85935768D01*
X172111315Y-85996485D01*
X172107574Y-86066254D01*
X172066708Y-86122926D01*
X172014830Y-86146617D01*
X171996508Y-86150261D01*
X171996498Y-86150264D01*
X171850827Y-86210602D01*
X171850814Y-86210609D01*
X171719711Y-86298210D01*
X171719707Y-86298213D01*
X171608213Y-86409707D01*
X171608210Y-86409711D01*
X171520609Y-86540814D01*
X171520602Y-86540828D01*
X171518325Y-86546325D01*
X171474480Y-86600726D01*
X171408185Y-86622786D01*
X171340486Y-86605503D01*
X171300665Y-86567756D01*
X171221789Y-86449711D01*
X171221786Y-86449707D01*
X171110292Y-86338213D01*
X171110288Y-86338210D01*
X170979185Y-86250609D01*
X170979180Y-86250607D01*
X170979179Y-86250606D01*
X170957285Y-86241537D01*
X170925978Y-86228569D01*
X170871575Y-86184727D01*
X170849511Y-86118433D01*
X170866791Y-86050734D01*
X170878600Y-86035554D01*
X170877924Y-86034999D01*
X170881784Y-86030293D01*
X170881789Y-86030289D01*
X170969394Y-85899179D01*
X171029737Y-85753497D01*
X171060500Y-85598842D01*
X171060500Y-85441158D01*
X171060500Y-85441155D01*
X171060499Y-85441153D01*
X171045052Y-85363497D01*
X171029737Y-85286503D01*
X171029735Y-85286498D01*
X170969397Y-85140827D01*
X170969390Y-85140814D01*
X170881789Y-85009711D01*
X170881786Y-85009707D01*
X170770292Y-84898213D01*
X170770288Y-84898210D01*
X170639185Y-84810609D01*
X170639172Y-84810602D01*
X170493501Y-84750264D01*
X170493489Y-84750261D01*
X170338845Y-84719500D01*
X170338842Y-84719500D01*
X170181158Y-84719500D01*
X170181155Y-84719500D01*
X170026510Y-84750261D01*
X170026498Y-84750264D01*
X169880827Y-84810602D01*
X169880814Y-84810609D01*
X169749711Y-84898210D01*
X169749707Y-84898213D01*
X169638213Y-85009707D01*
X169638210Y-85009711D01*
X169550609Y-85140814D01*
X169550602Y-85140827D01*
X169490264Y-85286498D01*
X169490261Y-85286510D01*
X169459500Y-85441153D01*
X169459500Y-85455500D01*
X169439815Y-85522539D01*
X169387011Y-85568294D01*
X169335500Y-85579500D01*
X169251155Y-85579500D01*
X169096510Y-85610261D01*
X169096498Y-85610264D01*
X168950827Y-85670602D01*
X168950814Y-85670609D01*
X168819711Y-85758210D01*
X168713862Y-85864059D01*
X168652539Y-85897543D01*
X168582847Y-85892559D01*
X168557290Y-85879479D01*
X168469185Y-85820609D01*
X168469172Y-85820602D01*
X168323501Y-85760264D01*
X168323489Y-85760261D01*
X168168845Y-85729500D01*
X168168842Y-85729500D01*
X168011158Y-85729500D01*
X168011155Y-85729500D01*
X167856510Y-85760261D01*
X167856498Y-85760264D01*
X167710827Y-85820602D01*
X167710809Y-85820612D01*
X167604486Y-85891655D01*
X167537809Y-85912533D01*
X167470429Y-85894048D01*
X167446762Y-85873352D01*
X167446097Y-85874018D01*
X167330292Y-85758213D01*
X167330288Y-85758210D01*
X167199185Y-85670609D01*
X167199172Y-85670602D01*
X167053501Y-85610264D01*
X167053489Y-85610261D01*
X166898845Y-85579500D01*
X166898842Y-85579500D01*
X166741158Y-85579500D01*
X166741155Y-85579500D01*
X166586510Y-85610261D01*
X166586498Y-85610264D01*
X166440827Y-85670602D01*
X166440814Y-85670609D01*
X166309711Y-85758210D01*
X166309707Y-85758213D01*
X166198213Y-85869707D01*
X166198210Y-85869711D01*
X166110609Y-86000814D01*
X166110602Y-86000827D01*
X166050264Y-86146498D01*
X166050261Y-86146510D01*
X166019500Y-86301153D01*
X166019500Y-86458846D01*
X166050261Y-86613489D01*
X166050264Y-86613501D01*
X166110602Y-86759172D01*
X166110609Y-86759185D01*
X166198210Y-86890288D01*
X166198213Y-86890292D01*
X166309707Y-87001786D01*
X166309711Y-87001789D01*
X166440814Y-87089390D01*
X166440827Y-87089397D01*
X166586498Y-87149735D01*
X166586503Y-87149737D01*
X166683098Y-87168951D01*
X166741153Y-87180499D01*
X166741156Y-87180500D01*
X166741158Y-87180500D01*
X166898844Y-87180500D01*
X166898845Y-87180499D01*
X167053497Y-87149737D01*
X167199179Y-87089394D01*
X167305513Y-87018343D01*
X167372189Y-86997466D01*
X167439569Y-87015950D01*
X167463237Y-87036647D01*
X167463903Y-87035982D01*
X167579707Y-87151786D01*
X167579711Y-87151789D01*
X167710814Y-87239390D01*
X167710827Y-87239397D01*
X167855156Y-87299179D01*
X167856503Y-87299737D01*
X167961048Y-87320532D01*
X168011147Y-87330498D01*
X168011148Y-87330498D01*
X168011158Y-87330500D01*
X168011167Y-87330500D01*
X168014495Y-87330828D01*
X168016137Y-87331491D01*
X168017132Y-87331689D01*
X168017094Y-87331877D01*
X168079284Y-87356984D01*
X168119647Y-87414016D01*
X168123967Y-87478423D01*
X168109500Y-87551153D01*
X168109500Y-87708846D01*
X168137804Y-87851140D01*
X168131577Y-87920731D01*
X168088714Y-87975909D01*
X168056443Y-87992615D01*
X167764608Y-88092784D01*
X167724352Y-88099500D01*
X167561155Y-88099500D01*
X167406510Y-88130261D01*
X167406498Y-88130264D01*
X167260827Y-88190602D01*
X167260814Y-88190609D01*
X167129714Y-88278208D01*
X167100523Y-88307398D01*
X167053100Y-88336998D01*
X166007762Y-88695795D01*
X165937963Y-88698940D01*
X165877544Y-88663850D01*
X165852945Y-88625963D01*
X165809397Y-88520827D01*
X165809390Y-88520814D01*
X165721789Y-88389711D01*
X165721786Y-88389707D01*
X165610292Y-88278213D01*
X165610288Y-88278210D01*
X165479185Y-88190609D01*
X165479172Y-88190602D01*
X165333501Y-88130264D01*
X165333489Y-88130261D01*
X165178845Y-88099500D01*
X165178842Y-88099500D01*
X165021158Y-88099500D01*
X165021155Y-88099500D01*
X164866510Y-88130261D01*
X164866498Y-88130264D01*
X164720827Y-88190602D01*
X164720811Y-88190611D01*
X164692389Y-88209602D01*
X164625712Y-88230479D01*
X164558332Y-88211994D01*
X164511642Y-88160014D01*
X164500467Y-88091044D01*
X164520398Y-88037608D01*
X164539394Y-88009179D01*
X164599737Y-87863497D01*
X164630500Y-87708842D01*
X164630500Y-87551158D01*
X164630500Y-87551155D01*
X164630499Y-87551153D01*
X164600173Y-87398691D01*
X164606400Y-87329100D01*
X164649263Y-87273922D01*
X164715153Y-87250678D01*
X164721790Y-87250500D01*
X164808844Y-87250500D01*
X164808845Y-87250499D01*
X164963497Y-87219737D01*
X165109179Y-87159394D01*
X165240289Y-87071789D01*
X165351789Y-86960289D01*
X165439394Y-86829179D01*
X165499737Y-86683497D01*
X165530500Y-86528842D01*
X165530500Y-86371158D01*
X165530500Y-86371155D01*
X165530499Y-86371153D01*
X165530217Y-86369737D01*
X165499737Y-86216503D01*
X165472299Y-86150261D01*
X165439397Y-86070827D01*
X165439390Y-86070814D01*
X165351789Y-85939711D01*
X165351786Y-85939707D01*
X165240292Y-85828213D01*
X165240288Y-85828210D01*
X165109185Y-85740609D01*
X165109172Y-85740602D01*
X164963501Y-85680264D01*
X164963489Y-85680261D01*
X164808845Y-85649500D01*
X164808842Y-85649500D01*
X164651158Y-85649500D01*
X164651155Y-85649500D01*
X164496510Y-85680261D01*
X164496498Y-85680264D01*
X164350827Y-85740602D01*
X164350814Y-85740609D01*
X164219711Y-85828210D01*
X164198025Y-85849896D01*
X164136701Y-85883380D01*
X164067009Y-85878394D01*
X164011076Y-85836522D01*
X163986661Y-85771057D01*
X163988727Y-85738025D01*
X164000217Y-85680264D01*
X164000500Y-85678843D01*
X164000500Y-85521155D01*
X164000499Y-85521153D01*
X163988443Y-85460543D01*
X163969737Y-85366503D01*
X163968489Y-85363489D01*
X163909397Y-85220827D01*
X163909390Y-85220814D01*
X163821789Y-85089711D01*
X163821786Y-85089707D01*
X163730771Y-84998692D01*
X163697286Y-84937369D01*
X163702270Y-84867677D01*
X163744142Y-84811744D01*
X163794260Y-84789394D01*
X163943573Y-84759694D01*
X164067867Y-84708210D01*
X164089248Y-84699354D01*
X164089248Y-84699353D01*
X164089255Y-84699351D01*
X164220048Y-84611958D01*
X167606023Y-84611958D01*
X167606023Y-84769651D01*
X167636784Y-84924294D01*
X167636787Y-84924306D01*
X167697125Y-85069977D01*
X167697132Y-85069990D01*
X167784733Y-85201093D01*
X167784736Y-85201097D01*
X167896230Y-85312591D01*
X167896234Y-85312594D01*
X168027337Y-85400195D01*
X168027350Y-85400202D01*
X168160853Y-85455500D01*
X168173026Y-85460542D01*
X168327676Y-85491304D01*
X168327679Y-85491305D01*
X168327681Y-85491305D01*
X168485367Y-85491305D01*
X168485368Y-85491304D01*
X168640020Y-85460542D01*
X168785702Y-85400199D01*
X168916812Y-85312594D01*
X169028312Y-85201094D01*
X169115917Y-85069984D01*
X169176260Y-84924302D01*
X169207023Y-84769647D01*
X169207023Y-84611963D01*
X169207023Y-84611960D01*
X169207022Y-84611958D01*
X169202602Y-84589737D01*
X169176260Y-84457308D01*
X169143654Y-84378590D01*
X169115920Y-84311632D01*
X169115913Y-84311619D01*
X169028312Y-84180516D01*
X169028309Y-84180512D01*
X168916815Y-84069018D01*
X168916811Y-84069015D01*
X168785708Y-83981414D01*
X168785695Y-83981407D01*
X168640024Y-83921069D01*
X168640012Y-83921066D01*
X168485368Y-83890305D01*
X168485365Y-83890305D01*
X168327681Y-83890305D01*
X168327678Y-83890305D01*
X168173033Y-83921066D01*
X168173021Y-83921069D01*
X168027350Y-83981407D01*
X168027337Y-83981414D01*
X167896234Y-84069015D01*
X167896230Y-84069018D01*
X167784736Y-84180512D01*
X167784733Y-84180516D01*
X167697132Y-84311619D01*
X167697125Y-84311632D01*
X167636787Y-84457303D01*
X167636784Y-84457315D01*
X167606023Y-84611958D01*
X164220048Y-84611958D01*
X164220365Y-84611746D01*
X164261981Y-84570130D01*
X164313922Y-84518190D01*
X164331862Y-84500249D01*
X164331865Y-84500246D01*
X164419470Y-84369136D01*
X164479813Y-84223454D01*
X164510576Y-84068799D01*
X164510576Y-83911115D01*
X164510576Y-83911112D01*
X164510575Y-83911110D01*
X164479813Y-83756460D01*
X164473473Y-83741153D01*
X164419473Y-83610784D01*
X164419466Y-83610771D01*
X164331865Y-83479668D01*
X164331862Y-83479664D01*
X164220368Y-83368170D01*
X164220364Y-83368167D01*
X164089261Y-83280566D01*
X164089248Y-83280559D01*
X163943577Y-83220221D01*
X163943565Y-83220218D01*
X163788921Y-83189457D01*
X163788918Y-83189457D01*
X163631234Y-83189457D01*
X163631231Y-83189457D01*
X163476586Y-83220218D01*
X163476574Y-83220221D01*
X163330903Y-83280559D01*
X163330890Y-83280566D01*
X163199787Y-83368167D01*
X163199783Y-83368170D01*
X163088289Y-83479664D01*
X163088286Y-83479668D01*
X163000685Y-83610771D01*
X163000678Y-83610784D01*
X162940340Y-83756455D01*
X162940337Y-83756467D01*
X162909576Y-83911110D01*
X162909576Y-84068803D01*
X162940337Y-84223446D01*
X162940340Y-84223458D01*
X163000678Y-84369129D01*
X163000685Y-84369142D01*
X163088286Y-84500245D01*
X163088289Y-84500249D01*
X163179304Y-84591264D01*
X163212789Y-84652587D01*
X163207805Y-84722279D01*
X163165933Y-84778212D01*
X163115815Y-84800562D01*
X162966508Y-84830261D01*
X162966498Y-84830264D01*
X162820827Y-84890602D01*
X162820814Y-84890609D01*
X162689711Y-84978210D01*
X162618761Y-85049160D01*
X162557437Y-85082644D01*
X162487746Y-85077659D01*
X162431812Y-85035788D01*
X162409463Y-84985669D01*
X162398194Y-84929019D01*
X162389737Y-84886503D01*
X162381939Y-84867677D01*
X162329397Y-84740827D01*
X162329390Y-84740814D01*
X162241789Y-84609711D01*
X162241786Y-84609707D01*
X162130292Y-84498213D01*
X162130288Y-84498210D01*
X161999185Y-84410609D01*
X161999172Y-84410602D01*
X161853501Y-84350264D01*
X161853489Y-84350261D01*
X161698845Y-84319500D01*
X161698842Y-84319500D01*
X161541158Y-84319500D01*
X161541155Y-84319500D01*
X161386510Y-84350261D01*
X161386498Y-84350264D01*
X161240827Y-84410602D01*
X161240814Y-84410609D01*
X161109711Y-84498210D01*
X161109707Y-84498213D01*
X160998213Y-84609707D01*
X160998210Y-84609711D01*
X160910609Y-84740814D01*
X160910602Y-84740827D01*
X160850264Y-84886498D01*
X160850261Y-84886510D01*
X160819500Y-85041153D01*
X160819500Y-85198846D01*
X160850261Y-85353489D01*
X160850264Y-85353501D01*
X160910602Y-85499172D01*
X160910609Y-85499185D01*
X160998210Y-85630288D01*
X160998213Y-85630292D01*
X161109707Y-85741786D01*
X161109711Y-85741789D01*
X161240814Y-85829390D01*
X161240827Y-85829397D01*
X161386498Y-85889735D01*
X161386503Y-85889737D01*
X161541153Y-85920499D01*
X161541156Y-85920500D01*
X161690013Y-85920500D01*
X161757052Y-85940185D01*
X161802807Y-85992989D01*
X161812751Y-86062147D01*
X161804574Y-86091952D01*
X161790264Y-86126498D01*
X161790261Y-86126510D01*
X161759500Y-86281153D01*
X161759500Y-86438846D01*
X161790261Y-86593489D01*
X161790264Y-86593501D01*
X161850602Y-86739172D01*
X161850609Y-86739185D01*
X161869601Y-86767608D01*
X161890479Y-86834286D01*
X161871994Y-86901666D01*
X161820016Y-86948356D01*
X161751046Y-86959532D01*
X161697608Y-86939601D01*
X161669185Y-86920609D01*
X161669172Y-86920602D01*
X161523501Y-86860264D01*
X161523489Y-86860261D01*
X161368845Y-86829500D01*
X161368842Y-86829500D01*
X161211158Y-86829500D01*
X161211155Y-86829500D01*
X161056510Y-86860261D01*
X161056498Y-86860264D01*
X160910827Y-86920602D01*
X160910811Y-86920611D01*
X160882389Y-86939602D01*
X160815712Y-86960479D01*
X160748332Y-86941994D01*
X160701642Y-86890014D01*
X160690467Y-86821044D01*
X160710398Y-86767608D01*
X160729394Y-86739179D01*
X160789737Y-86593497D01*
X160820500Y-86438842D01*
X160820500Y-86281158D01*
X160820500Y-86281155D01*
X160820499Y-86281153D01*
X160808691Y-86221789D01*
X160789737Y-86126503D01*
X160775426Y-86091952D01*
X160729397Y-85980827D01*
X160729390Y-85980814D01*
X160641789Y-85849711D01*
X160641786Y-85849707D01*
X160530292Y-85738213D01*
X160530288Y-85738210D01*
X160462094Y-85692644D01*
X160417289Y-85639032D01*
X160408582Y-85569707D01*
X160409368Y-85565350D01*
X160420542Y-85509179D01*
X160434073Y-85441153D01*
X160440500Y-85408844D01*
X160440500Y-85251155D01*
X160440499Y-85251153D01*
X160434467Y-85220827D01*
X160409737Y-85096503D01*
X160409735Y-85096498D01*
X160349397Y-84950827D01*
X160349390Y-84950814D01*
X160261789Y-84819711D01*
X160261786Y-84819707D01*
X160150292Y-84708213D01*
X160150288Y-84708210D01*
X160019185Y-84620609D01*
X160019172Y-84620602D01*
X159873501Y-84560264D01*
X159873489Y-84560261D01*
X159718845Y-84529500D01*
X159718842Y-84529500D01*
X159561158Y-84529500D01*
X159561155Y-84529500D01*
X159406505Y-84560261D01*
X159406498Y-84560264D01*
X159400704Y-84562664D01*
X159331234Y-84570130D01*
X159268756Y-84538852D01*
X159250154Y-84516992D01*
X159171789Y-84399711D01*
X159171786Y-84399707D01*
X159060292Y-84288213D01*
X159060288Y-84288210D01*
X158929185Y-84200609D01*
X158929172Y-84200602D01*
X158783501Y-84140264D01*
X158783489Y-84140261D01*
X158628845Y-84109500D01*
X158628842Y-84109500D01*
X158471158Y-84109500D01*
X158471155Y-84109500D01*
X158316510Y-84140261D01*
X158316498Y-84140264D01*
X158170827Y-84200602D01*
X158170814Y-84200609D01*
X158039711Y-84288210D01*
X158039707Y-84288213D01*
X157928213Y-84399707D01*
X157928210Y-84399711D01*
X157840609Y-84530814D01*
X157840602Y-84530827D01*
X157780264Y-84676498D01*
X157780261Y-84676510D01*
X157749500Y-84831153D01*
X157749500Y-84988846D01*
X157780261Y-85143489D01*
X157780264Y-85143501D01*
X157840602Y-85289172D01*
X157840609Y-85289185D01*
X157928210Y-85420288D01*
X157928213Y-85420292D01*
X158039707Y-85531786D01*
X158039711Y-85531789D01*
X158170814Y-85619390D01*
X158170827Y-85619397D01*
X158316498Y-85679735D01*
X158316503Y-85679737D01*
X158464517Y-85709179D01*
X158471153Y-85710499D01*
X158471156Y-85710500D01*
X158471158Y-85710500D01*
X158628844Y-85710500D01*
X158628845Y-85710499D01*
X158783497Y-85679737D01*
X158789288Y-85677337D01*
X158858757Y-85669868D01*
X158921237Y-85701141D01*
X158939845Y-85723007D01*
X159018210Y-85840288D01*
X159018213Y-85840292D01*
X159129710Y-85951789D01*
X159197905Y-85997355D01*
X159242710Y-86050967D01*
X159251417Y-86120292D01*
X159250631Y-86124648D01*
X159219500Y-86281153D01*
X159219500Y-86438846D01*
X159250261Y-86593489D01*
X159250264Y-86593501D01*
X159310602Y-86739172D01*
X159310609Y-86739185D01*
X159398210Y-86870288D01*
X159398213Y-86870292D01*
X159509707Y-86981786D01*
X159509711Y-86981789D01*
X159640814Y-87069390D01*
X159640827Y-87069397D01*
X159762288Y-87119707D01*
X159786503Y-87129737D01*
X159935578Y-87159390D01*
X159941153Y-87160499D01*
X159941156Y-87160500D01*
X159941158Y-87160500D01*
X160098844Y-87160500D01*
X160098845Y-87160499D01*
X160253497Y-87129737D01*
X160399179Y-87069394D01*
X160427607Y-87050398D01*
X160494283Y-87029520D01*
X160561664Y-87048003D01*
X160608355Y-87099981D01*
X160619533Y-87168951D01*
X160599602Y-87222389D01*
X160580611Y-87250811D01*
X160580602Y-87250827D01*
X160520264Y-87396498D01*
X160520261Y-87396510D01*
X160489500Y-87551153D01*
X160489500Y-87708846D01*
X160520261Y-87863489D01*
X160520264Y-87863501D01*
X160580602Y-88009172D01*
X160580609Y-88009185D01*
X160599601Y-88037608D01*
X160620479Y-88104286D01*
X160601994Y-88171666D01*
X160550016Y-88218356D01*
X160481046Y-88229532D01*
X160427608Y-88209601D01*
X160399185Y-88190609D01*
X160399172Y-88190602D01*
X160253501Y-88130264D01*
X160253489Y-88130261D01*
X160098845Y-88099500D01*
X160098842Y-88099500D01*
X159941158Y-88099500D01*
X159941155Y-88099500D01*
X159786510Y-88130261D01*
X159786498Y-88130264D01*
X159640827Y-88190602D01*
X159640814Y-88190609D01*
X159509711Y-88278210D01*
X159509707Y-88278213D01*
X159398213Y-88389707D01*
X159398210Y-88389711D01*
X159310609Y-88520814D01*
X159310602Y-88520827D01*
X159250264Y-88666498D01*
X159250261Y-88666510D01*
X159219500Y-88821153D01*
X159219500Y-88978846D01*
X159250261Y-89133489D01*
X159250264Y-89133501D01*
X159310602Y-89279172D01*
X159310609Y-89279185D01*
X159329601Y-89307608D01*
X159350479Y-89374286D01*
X159331994Y-89441666D01*
X159280016Y-89488356D01*
X159211046Y-89499532D01*
X159157608Y-89479601D01*
X159129185Y-89460609D01*
X159129172Y-89460602D01*
X158983501Y-89400264D01*
X158983489Y-89400261D01*
X158828845Y-89369500D01*
X158828842Y-89369500D01*
X158671158Y-89369500D01*
X158671155Y-89369500D01*
X158516510Y-89400261D01*
X158516498Y-89400264D01*
X158370827Y-89460602D01*
X158370814Y-89460609D01*
X158239711Y-89548210D01*
X158239707Y-89548213D01*
X158168678Y-89619243D01*
X158107355Y-89652728D01*
X158037663Y-89647744D01*
X157981730Y-89605872D01*
X157957313Y-89540408D01*
X157956997Y-89531562D01*
X157956997Y-89397862D01*
X157956996Y-89397860D01*
X157949673Y-89361044D01*
X157926234Y-89243210D01*
X157912457Y-89209949D01*
X157865894Y-89097534D01*
X157865887Y-89097521D01*
X157778286Y-88966418D01*
X157778283Y-88966414D01*
X157666789Y-88854920D01*
X157666785Y-88854917D01*
X157535682Y-88767316D01*
X157535669Y-88767309D01*
X157389998Y-88706971D01*
X157389986Y-88706968D01*
X157235342Y-88676207D01*
X157235339Y-88676207D01*
X157077655Y-88676207D01*
X157077652Y-88676207D01*
X156923007Y-88706968D01*
X156922995Y-88706971D01*
X156777324Y-88767309D01*
X156777311Y-88767316D01*
X156646208Y-88854917D01*
X156646204Y-88854920D01*
X156534710Y-88966414D01*
X156534707Y-88966418D01*
X156447106Y-89097521D01*
X156447099Y-89097534D01*
X156386761Y-89243205D01*
X156386758Y-89243215D01*
X156381492Y-89269692D01*
X156349107Y-89331603D01*
X156288391Y-89366177D01*
X156259875Y-89369500D01*
X156131155Y-89369500D01*
X155976510Y-89400261D01*
X155976498Y-89400264D01*
X155830827Y-89460602D01*
X155830814Y-89460609D01*
X155699711Y-89548210D01*
X155699707Y-89548213D01*
X155588213Y-89659707D01*
X155588210Y-89659711D01*
X155500609Y-89790814D01*
X155500602Y-89790827D01*
X155440264Y-89936498D01*
X155440261Y-89936510D01*
X155409500Y-90091153D01*
X155409500Y-90248846D01*
X155440261Y-90403489D01*
X155440264Y-90403501D01*
X155500602Y-90549172D01*
X155500609Y-90549185D01*
X155519601Y-90577608D01*
X155540479Y-90644286D01*
X155521994Y-90711666D01*
X155470016Y-90758356D01*
X155401046Y-90769532D01*
X155347608Y-90749601D01*
X155319185Y-90730609D01*
X155319172Y-90730602D01*
X155173501Y-90670264D01*
X155173489Y-90670261D01*
X155018845Y-90639500D01*
X155018842Y-90639500D01*
X154861158Y-90639500D01*
X154861155Y-90639500D01*
X154706510Y-90670261D01*
X154706498Y-90670264D01*
X154560827Y-90730602D01*
X154560811Y-90730611D01*
X154532389Y-90749602D01*
X154465712Y-90770479D01*
X154398332Y-90751994D01*
X154351642Y-90700014D01*
X154340467Y-90631044D01*
X154360398Y-90577608D01*
X154379394Y-90549179D01*
X154439737Y-90403497D01*
X154470500Y-90248842D01*
X154470500Y-90091158D01*
X154470500Y-90091155D01*
X154470499Y-90091153D01*
X154468322Y-90080210D01*
X154439737Y-89936503D01*
X154406345Y-89855886D01*
X154379397Y-89790827D01*
X154379390Y-89790814D01*
X154291789Y-89659711D01*
X154291786Y-89659707D01*
X154180292Y-89548213D01*
X154180288Y-89548210D01*
X154049185Y-89460609D01*
X154049172Y-89460602D01*
X153903501Y-89400264D01*
X153903489Y-89400261D01*
X153748845Y-89369500D01*
X153748842Y-89369500D01*
X153591158Y-89369500D01*
X153591155Y-89369500D01*
X153436510Y-89400261D01*
X153436498Y-89400264D01*
X153290827Y-89460602D01*
X153290811Y-89460611D01*
X153262389Y-89479602D01*
X153195712Y-89500479D01*
X153128332Y-89481994D01*
X153081642Y-89430014D01*
X153070467Y-89361044D01*
X153090398Y-89307608D01*
X153109394Y-89279179D01*
X153169737Y-89133497D01*
X153200500Y-88978842D01*
X153200500Y-88821158D01*
X153200500Y-88821155D01*
X153200499Y-88821153D01*
X153189789Y-88767309D01*
X153169737Y-88666503D01*
X153152945Y-88625963D01*
X153109397Y-88520827D01*
X153109395Y-88520823D01*
X153109394Y-88520821D01*
X153090398Y-88492391D01*
X153069520Y-88425714D01*
X153088004Y-88358334D01*
X153139983Y-88311643D01*
X153208953Y-88300467D01*
X153262391Y-88320398D01*
X153287235Y-88336998D01*
X153290821Y-88339394D01*
X153290823Y-88339395D01*
X153290827Y-88339397D01*
X153412288Y-88389707D01*
X153436503Y-88399737D01*
X153591153Y-88430499D01*
X153591156Y-88430500D01*
X153591158Y-88430500D01*
X153748844Y-88430500D01*
X153748845Y-88430499D01*
X153903497Y-88399737D01*
X154049179Y-88339394D01*
X154180289Y-88251789D01*
X154291789Y-88140289D01*
X154379394Y-88009179D01*
X154439737Y-87863497D01*
X154470500Y-87708842D01*
X154470500Y-87551158D01*
X154470500Y-87551155D01*
X154470499Y-87551153D01*
X154443241Y-87414118D01*
X154439737Y-87396503D01*
X154439735Y-87396498D01*
X154379397Y-87250827D01*
X154379390Y-87250814D01*
X154291789Y-87119711D01*
X154291786Y-87119707D01*
X154180292Y-87008213D01*
X154180288Y-87008210D01*
X154049185Y-86920609D01*
X154049172Y-86920602D01*
X153903501Y-86860264D01*
X153903489Y-86860261D01*
X153748845Y-86829500D01*
X153748842Y-86829500D01*
X153591158Y-86829500D01*
X153591155Y-86829500D01*
X153436510Y-86860261D01*
X153436498Y-86860264D01*
X153290827Y-86920602D01*
X153290814Y-86920609D01*
X153159711Y-87008210D01*
X153159707Y-87008213D01*
X153048213Y-87119707D01*
X153048210Y-87119711D01*
X152960609Y-87250814D01*
X152960602Y-87250827D01*
X152900264Y-87396498D01*
X152900261Y-87396510D01*
X152869500Y-87551153D01*
X152869500Y-87708846D01*
X152900261Y-87863489D01*
X152900264Y-87863501D01*
X152960602Y-88009172D01*
X152960609Y-88009185D01*
X152979601Y-88037608D01*
X153000479Y-88104286D01*
X152981994Y-88171666D01*
X152930016Y-88218356D01*
X152861046Y-88229532D01*
X152807608Y-88209601D01*
X152779185Y-88190609D01*
X152779172Y-88190602D01*
X152633501Y-88130264D01*
X152633489Y-88130261D01*
X152478845Y-88099500D01*
X152478842Y-88099500D01*
X152321158Y-88099500D01*
X152321155Y-88099500D01*
X152166510Y-88130261D01*
X152166498Y-88130264D01*
X152020827Y-88190602D01*
X152020811Y-88190611D01*
X151992389Y-88209602D01*
X151925712Y-88230479D01*
X151858332Y-88211994D01*
X151811642Y-88160014D01*
X151800467Y-88091044D01*
X151820398Y-88037608D01*
X151839394Y-88009179D01*
X151899737Y-87863497D01*
X151930500Y-87708842D01*
X151930500Y-87551158D01*
X151930500Y-87551155D01*
X151930499Y-87551153D01*
X151903241Y-87414118D01*
X151899737Y-87396503D01*
X151899735Y-87396498D01*
X151839397Y-87250827D01*
X151839390Y-87250814D01*
X151751789Y-87119711D01*
X151751786Y-87119707D01*
X151640292Y-87008213D01*
X151640288Y-87008210D01*
X151509185Y-86920609D01*
X151509172Y-86920602D01*
X151363501Y-86860264D01*
X151363489Y-86860261D01*
X151208845Y-86829500D01*
X151208842Y-86829500D01*
X151051158Y-86829500D01*
X151051155Y-86829500D01*
X150896510Y-86860261D01*
X150896498Y-86860264D01*
X150750827Y-86920602D01*
X150750814Y-86920609D01*
X150619711Y-87008210D01*
X150619707Y-87008213D01*
X150508213Y-87119707D01*
X150508210Y-87119711D01*
X150420609Y-87250814D01*
X150420602Y-87250827D01*
X150360264Y-87396498D01*
X150360261Y-87396510D01*
X150329500Y-87551153D01*
X150329500Y-87708846D01*
X150360261Y-87863489D01*
X150360264Y-87863501D01*
X150420602Y-88009172D01*
X150420609Y-88009185D01*
X150439601Y-88037608D01*
X150460479Y-88104286D01*
X150441994Y-88171666D01*
X150390016Y-88218356D01*
X150321046Y-88229532D01*
X150267608Y-88209601D01*
X150239185Y-88190609D01*
X150239172Y-88190602D01*
X150093501Y-88130264D01*
X150093489Y-88130261D01*
X149938845Y-88099500D01*
X149938842Y-88099500D01*
X149781158Y-88099500D01*
X149781155Y-88099500D01*
X149626510Y-88130261D01*
X149626498Y-88130264D01*
X149480827Y-88190602D01*
X149480814Y-88190609D01*
X149349711Y-88278210D01*
X149349707Y-88278213D01*
X149238213Y-88389707D01*
X149238210Y-88389711D01*
X149150609Y-88520814D01*
X149150602Y-88520827D01*
X149090264Y-88666498D01*
X149090261Y-88666510D01*
X149059500Y-88821153D01*
X149059500Y-88978846D01*
X149090261Y-89133489D01*
X149090264Y-89133501D01*
X149150602Y-89279172D01*
X149150609Y-89279185D01*
X149238210Y-89410288D01*
X149238213Y-89410292D01*
X149349707Y-89521786D01*
X149349711Y-89521789D01*
X149480814Y-89609390D01*
X149480827Y-89609397D01*
X149585439Y-89652728D01*
X149626503Y-89669737D01*
X149781153Y-89700499D01*
X149781156Y-89700500D01*
X149781158Y-89700500D01*
X149938844Y-89700500D01*
X149938845Y-89700499D01*
X150093497Y-89669737D01*
X150215401Y-89619243D01*
X150239172Y-89609397D01*
X150239172Y-89609396D01*
X150239179Y-89609394D01*
X150267607Y-89590398D01*
X150334283Y-89569520D01*
X150401664Y-89588003D01*
X150448355Y-89639981D01*
X150459533Y-89708951D01*
X150439602Y-89762389D01*
X150420611Y-89790811D01*
X150420602Y-89790827D01*
X150360264Y-89936498D01*
X150360261Y-89936510D01*
X150329500Y-90091153D01*
X150329500Y-90248846D01*
X150360261Y-90403489D01*
X150360264Y-90403501D01*
X150420602Y-90549172D01*
X150420609Y-90549185D01*
X150439601Y-90577608D01*
X150460479Y-90644286D01*
X150441994Y-90711666D01*
X150390016Y-90758356D01*
X150321046Y-90769532D01*
X150267608Y-90749601D01*
X150239185Y-90730609D01*
X150239172Y-90730602D01*
X150093501Y-90670264D01*
X150093489Y-90670261D01*
X149938845Y-90639500D01*
X149938842Y-90639500D01*
X149781158Y-90639500D01*
X149781155Y-90639500D01*
X149626510Y-90670261D01*
X149626498Y-90670264D01*
X149480827Y-90730602D01*
X149480814Y-90730609D01*
X149349711Y-90818210D01*
X149349707Y-90818213D01*
X149238213Y-90929707D01*
X149238210Y-90929711D01*
X149150609Y-91060814D01*
X149150602Y-91060827D01*
X149090264Y-91206498D01*
X149090261Y-91206510D01*
X149059500Y-91361153D01*
X149059500Y-91518846D01*
X149090261Y-91673489D01*
X149090264Y-91673501D01*
X149150602Y-91819172D01*
X149150609Y-91819185D01*
X149238210Y-91950288D01*
X149238213Y-91950292D01*
X149349707Y-92061786D01*
X149349711Y-92061789D01*
X149480814Y-92149390D01*
X149480821Y-92149394D01*
X149484549Y-92150938D01*
X149538953Y-92194778D01*
X149561019Y-92261072D01*
X149543741Y-92328771D01*
X149492605Y-92376383D01*
X149437098Y-92389500D01*
X146064067Y-92389500D01*
X146055957Y-92389235D01*
X145807116Y-92372925D01*
X145791035Y-92370807D01*
X145550464Y-92322954D01*
X145534797Y-92318756D01*
X145302520Y-92239909D01*
X145287534Y-92233702D01*
X145067539Y-92125212D01*
X145053493Y-92117102D01*
X144849539Y-91980825D01*
X144836670Y-91970951D01*
X144652250Y-91809218D01*
X144640781Y-91797749D01*
X144479048Y-91613329D01*
X144469174Y-91600460D01*
X144332897Y-91396506D01*
X144324787Y-91382460D01*
X144314282Y-91361158D01*
X144216294Y-91162458D01*
X144210090Y-91147479D01*
X144131243Y-90915202D01*
X144127045Y-90899535D01*
X144110869Y-90818213D01*
X144079190Y-90658953D01*
X144077075Y-90642895D01*
X144060765Y-90394043D01*
X144060500Y-90385933D01*
X144060500Y-90258713D01*
X144922300Y-90258713D01*
X144922300Y-90471287D01*
X144929464Y-90516517D01*
X144953814Y-90670261D01*
X144955554Y-90681243D01*
X145020341Y-90880637D01*
X145021244Y-90883414D01*
X145117751Y-91072820D01*
X145242690Y-91244786D01*
X145393013Y-91395109D01*
X145564979Y-91520048D01*
X145564981Y-91520049D01*
X145564984Y-91520051D01*
X145754388Y-91616557D01*
X145956557Y-91682246D01*
X146166513Y-91715500D01*
X146166514Y-91715500D01*
X146379086Y-91715500D01*
X146379087Y-91715500D01*
X146589043Y-91682246D01*
X146791212Y-91616557D01*
X146980616Y-91520051D01*
X147053967Y-91466759D01*
X147152586Y-91395109D01*
X147152588Y-91395106D01*
X147152592Y-91395104D01*
X147302904Y-91244792D01*
X147302906Y-91244788D01*
X147302909Y-91244786D01*
X147427848Y-91072820D01*
X147427847Y-91072820D01*
X147427851Y-91072816D01*
X147524357Y-90883412D01*
X147590046Y-90681243D01*
X147623300Y-90471287D01*
X147623300Y-90258713D01*
X147590046Y-90048757D01*
X147524357Y-89846588D01*
X147427851Y-89657184D01*
X147427849Y-89657181D01*
X147427848Y-89657179D01*
X147302909Y-89485213D01*
X147152586Y-89334890D01*
X146980620Y-89209951D01*
X146791214Y-89113444D01*
X146791213Y-89113443D01*
X146791212Y-89113443D01*
X146589043Y-89047754D01*
X146589041Y-89047753D01*
X146589040Y-89047753D01*
X146427757Y-89022208D01*
X146379087Y-89014500D01*
X146166513Y-89014500D01*
X146117842Y-89022208D01*
X145956560Y-89047753D01*
X145754385Y-89113444D01*
X145564979Y-89209951D01*
X145393013Y-89334890D01*
X145242690Y-89485213D01*
X145117751Y-89657179D01*
X145021244Y-89846585D01*
X144955553Y-90048760D01*
X144933801Y-90186097D01*
X144922300Y-90258713D01*
X144060500Y-90258713D01*
X144060500Y-87303613D01*
X144080185Y-87236574D01*
X144132989Y-87190819D01*
X144202147Y-87180875D01*
X144265703Y-87209900D01*
X144300682Y-87260280D01*
X144346202Y-87382328D01*
X144346206Y-87382335D01*
X144432452Y-87497544D01*
X144432455Y-87497547D01*
X144547664Y-87583793D01*
X144547671Y-87583797D01*
X144682517Y-87634091D01*
X144682516Y-87634091D01*
X144689444Y-87634835D01*
X144742127Y-87640500D01*
X146537872Y-87640499D01*
X146597483Y-87634091D01*
X146732331Y-87583796D01*
X146835690Y-87506421D01*
X146901152Y-87482004D01*
X146969425Y-87496855D01*
X146984303Y-87506416D01*
X147084988Y-87581789D01*
X147087668Y-87583795D01*
X147087671Y-87583797D01*
X147222517Y-87634091D01*
X147222516Y-87634091D01*
X147229444Y-87634835D01*
X147282127Y-87640500D01*
X149077872Y-87640499D01*
X149137483Y-87634091D01*
X149272331Y-87583796D01*
X149387546Y-87497546D01*
X149473796Y-87382331D01*
X149524091Y-87247483D01*
X149530500Y-87187873D01*
X149530499Y-85392128D01*
X149524091Y-85332517D01*
X149516660Y-85312594D01*
X149473797Y-85197671D01*
X149473795Y-85197668D01*
X149449999Y-85165881D01*
X149396421Y-85094309D01*
X149372004Y-85028848D01*
X149386855Y-84960575D01*
X149396416Y-84945696D01*
X149473796Y-84842331D01*
X149524091Y-84707483D01*
X149530500Y-84647873D01*
X149530499Y-83761153D01*
X150729500Y-83761153D01*
X150729500Y-83918846D01*
X150760261Y-84073489D01*
X150760264Y-84073501D01*
X150820602Y-84219172D01*
X150820609Y-84219185D01*
X150908210Y-84350288D01*
X150908213Y-84350292D01*
X151019707Y-84461786D01*
X151019711Y-84461789D01*
X151150814Y-84549390D01*
X151150827Y-84549397D01*
X151296440Y-84609711D01*
X151296503Y-84609737D01*
X151451153Y-84640499D01*
X151451156Y-84640500D01*
X151451158Y-84640500D01*
X151608844Y-84640500D01*
X151608845Y-84640499D01*
X151763497Y-84609737D01*
X151909179Y-84549394D01*
X152040289Y-84461789D01*
X152151789Y-84350289D01*
X152239394Y-84219179D01*
X152299737Y-84073497D01*
X152330500Y-83918842D01*
X152330500Y-83761158D01*
X152330500Y-83761155D01*
X152330499Y-83761153D01*
X152329567Y-83756467D01*
X152299737Y-83606503D01*
X152247199Y-83479664D01*
X152239397Y-83460827D01*
X152239390Y-83460814D01*
X152151789Y-83329711D01*
X152151786Y-83329707D01*
X152040292Y-83218213D01*
X152040288Y-83218210D01*
X151909185Y-83130609D01*
X151909172Y-83130602D01*
X151763501Y-83070264D01*
X151763489Y-83070261D01*
X151608845Y-83039500D01*
X151608842Y-83039500D01*
X151451158Y-83039500D01*
X151451155Y-83039500D01*
X151296510Y-83070261D01*
X151296498Y-83070264D01*
X151150827Y-83130602D01*
X151150814Y-83130609D01*
X151019711Y-83218210D01*
X151019707Y-83218213D01*
X150908213Y-83329707D01*
X150908210Y-83329711D01*
X150820609Y-83460814D01*
X150820602Y-83460827D01*
X150760264Y-83606498D01*
X150760261Y-83606510D01*
X150729500Y-83761153D01*
X149530499Y-83761153D01*
X149530499Y-83741158D01*
X149530499Y-82852129D01*
X149530498Y-82852123D01*
X149524091Y-82792516D01*
X149473797Y-82657671D01*
X149473795Y-82657668D01*
X149396421Y-82554309D01*
X149372004Y-82488848D01*
X149386855Y-82420575D01*
X149396416Y-82405696D01*
X149473796Y-82302331D01*
X149524091Y-82167483D01*
X149530500Y-82107873D01*
X149530499Y-80921153D01*
X150009500Y-80921153D01*
X150009500Y-81078846D01*
X150040261Y-81233489D01*
X150040264Y-81233501D01*
X150100602Y-81379172D01*
X150100609Y-81379185D01*
X150188210Y-81510288D01*
X150188213Y-81510292D01*
X150299707Y-81621786D01*
X150299711Y-81621789D01*
X150430814Y-81709390D01*
X150430827Y-81709397D01*
X150574209Y-81768787D01*
X150576503Y-81769737D01*
X150731153Y-81800499D01*
X150731156Y-81800500D01*
X150731158Y-81800500D01*
X150888844Y-81800500D01*
X150888845Y-81800499D01*
X151043497Y-81769737D01*
X151189179Y-81709394D01*
X151320289Y-81621789D01*
X151431789Y-81510289D01*
X151519394Y-81379179D01*
X151579737Y-81233497D01*
X151610500Y-81078842D01*
X151610500Y-80921158D01*
X151610500Y-80921155D01*
X151603877Y-80887860D01*
X151603877Y-80887859D01*
X151600276Y-80869755D01*
X154870502Y-80869755D01*
X154870502Y-81027448D01*
X154901263Y-81182091D01*
X154901266Y-81182103D01*
X154961604Y-81327774D01*
X154961611Y-81327787D01*
X155049212Y-81458890D01*
X155049215Y-81458894D01*
X155160709Y-81570388D01*
X155160713Y-81570391D01*
X155291816Y-81657992D01*
X155291829Y-81657999D01*
X155415917Y-81709397D01*
X155437505Y-81718339D01*
X155592155Y-81749101D01*
X155592158Y-81749102D01*
X155671500Y-81749102D01*
X155738539Y-81768787D01*
X155784294Y-81821591D01*
X155795500Y-81873102D01*
X155795500Y-81952446D01*
X155826261Y-82107089D01*
X155826264Y-82107101D01*
X155886602Y-82252772D01*
X155886609Y-82252785D01*
X155974210Y-82383888D01*
X155974213Y-82383892D01*
X156085707Y-82495386D01*
X156085711Y-82495389D01*
X156216814Y-82582990D01*
X156216827Y-82582997D01*
X156320360Y-82625881D01*
X156362503Y-82643337D01*
X156517153Y-82674099D01*
X156517156Y-82674100D01*
X156517158Y-82674100D01*
X156674844Y-82674100D01*
X156674845Y-82674099D01*
X156829497Y-82643337D01*
X156975179Y-82582994D01*
X156992900Y-82571153D01*
X160449500Y-82571153D01*
X160449500Y-82728846D01*
X160480261Y-82883489D01*
X160480264Y-82883501D01*
X160540602Y-83029172D01*
X160540609Y-83029185D01*
X160628210Y-83160288D01*
X160628213Y-83160292D01*
X160739707Y-83271786D01*
X160739711Y-83271789D01*
X160870814Y-83359390D01*
X160870827Y-83359397D01*
X161016498Y-83419735D01*
X161016503Y-83419737D01*
X161171153Y-83450499D01*
X161171156Y-83450500D01*
X161171158Y-83450500D01*
X161328844Y-83450500D01*
X161328845Y-83450499D01*
X161483497Y-83419737D01*
X161629179Y-83359394D01*
X161760289Y-83271789D01*
X161871789Y-83160289D01*
X161959394Y-83029179D01*
X162019737Y-82883497D01*
X162050500Y-82728842D01*
X162050500Y-82571158D01*
X162050500Y-82571155D01*
X162050499Y-82571153D01*
X162044188Y-82539426D01*
X162019737Y-82416503D01*
X161986698Y-82336739D01*
X161959397Y-82270827D01*
X161959390Y-82270814D01*
X161871789Y-82139711D01*
X161871786Y-82139707D01*
X161760292Y-82028213D01*
X161760288Y-82028210D01*
X161629185Y-81940609D01*
X161629172Y-81940602D01*
X161483501Y-81880264D01*
X161483489Y-81880261D01*
X161328845Y-81849500D01*
X161328842Y-81849500D01*
X161171158Y-81849500D01*
X161171155Y-81849500D01*
X161016510Y-81880261D01*
X161016498Y-81880264D01*
X160870827Y-81940602D01*
X160870814Y-81940609D01*
X160739711Y-82028210D01*
X160739707Y-82028213D01*
X160628213Y-82139707D01*
X160628210Y-82139711D01*
X160540609Y-82270814D01*
X160540602Y-82270827D01*
X160480264Y-82416498D01*
X160480261Y-82416510D01*
X160449500Y-82571153D01*
X156992900Y-82571153D01*
X157106289Y-82495389D01*
X157112830Y-82488848D01*
X157124294Y-82477385D01*
X157217786Y-82383892D01*
X157217789Y-82383889D01*
X157305394Y-82252779D01*
X157365737Y-82107097D01*
X157396500Y-81952442D01*
X157396500Y-81884500D01*
X157416185Y-81817461D01*
X157468989Y-81771706D01*
X157520500Y-81760500D01*
X157578844Y-81760500D01*
X157578845Y-81760499D01*
X157733497Y-81729737D01*
X157879179Y-81669394D01*
X157928998Y-81636106D01*
X175177136Y-81636106D01*
X175177136Y-81793799D01*
X175207897Y-81948442D01*
X175207900Y-81948454D01*
X175268238Y-82094125D01*
X175268245Y-82094138D01*
X175355846Y-82225241D01*
X175355849Y-82225245D01*
X175467343Y-82336739D01*
X175467347Y-82336742D01*
X175598450Y-82424343D01*
X175598463Y-82424350D01*
X175726503Y-82477385D01*
X175744139Y-82484690D01*
X175898789Y-82515452D01*
X175898792Y-82515453D01*
X175898794Y-82515453D01*
X176056480Y-82515453D01*
X176056481Y-82515452D01*
X176211133Y-82484690D01*
X176356815Y-82424347D01*
X176487925Y-82336742D01*
X176599425Y-82225242D01*
X176687030Y-82094132D01*
X176747373Y-81948450D01*
X176778136Y-81793795D01*
X176778136Y-81636111D01*
X176778136Y-81636108D01*
X176778135Y-81636106D01*
X176775287Y-81621786D01*
X176747373Y-81481456D01*
X176738026Y-81458890D01*
X176687033Y-81335780D01*
X176687026Y-81335767D01*
X176599425Y-81204664D01*
X176599422Y-81204660D01*
X176487928Y-81093166D01*
X176487924Y-81093163D01*
X176356821Y-81005562D01*
X176356808Y-81005555D01*
X176211137Y-80945217D01*
X176211125Y-80945214D01*
X176056481Y-80914453D01*
X176056478Y-80914453D01*
X175898794Y-80914453D01*
X175898791Y-80914453D01*
X175744146Y-80945214D01*
X175744134Y-80945217D01*
X175598463Y-81005555D01*
X175598450Y-81005562D01*
X175467347Y-81093163D01*
X175467343Y-81093166D01*
X175355849Y-81204660D01*
X175355846Y-81204664D01*
X175268245Y-81335767D01*
X175268238Y-81335780D01*
X175207900Y-81481451D01*
X175207897Y-81481463D01*
X175177136Y-81636106D01*
X157928998Y-81636106D01*
X158010289Y-81581789D01*
X158021690Y-81570388D01*
X158049741Y-81542338D01*
X158121786Y-81470292D01*
X158121789Y-81470289D01*
X158209394Y-81339179D01*
X158269737Y-81193497D01*
X158300500Y-81038842D01*
X158300500Y-80881158D01*
X158300500Y-80881155D01*
X158300499Y-80881153D01*
X158291748Y-80837158D01*
X158269737Y-80726503D01*
X158237509Y-80648697D01*
X158209397Y-80580827D01*
X158209390Y-80580814D01*
X158121789Y-80449711D01*
X158121786Y-80449707D01*
X158010292Y-80338213D01*
X158010288Y-80338210D01*
X157879185Y-80250609D01*
X157879172Y-80250602D01*
X157733501Y-80190264D01*
X157733489Y-80190261D01*
X157578845Y-80159500D01*
X157578842Y-80159500D01*
X157421158Y-80159500D01*
X157421155Y-80159500D01*
X157266510Y-80190261D01*
X157266498Y-80190264D01*
X157120827Y-80250602D01*
X157120814Y-80250609D01*
X156989711Y-80338210D01*
X156989707Y-80338213D01*
X156878213Y-80449707D01*
X156878210Y-80449711D01*
X156790609Y-80580814D01*
X156790602Y-80580827D01*
X156730264Y-80726498D01*
X156730261Y-80726508D01*
X156708251Y-80837158D01*
X156675866Y-80899069D01*
X156615150Y-80933643D01*
X156545380Y-80929902D01*
X156488708Y-80889036D01*
X156465017Y-80837157D01*
X156445790Y-80740499D01*
X156440739Y-80715105D01*
X156413232Y-80648697D01*
X156380399Y-80569429D01*
X156380392Y-80569416D01*
X156292791Y-80438313D01*
X156292788Y-80438309D01*
X156181294Y-80326815D01*
X156181290Y-80326812D01*
X156050187Y-80239211D01*
X156050174Y-80239204D01*
X155904503Y-80178866D01*
X155904491Y-80178863D01*
X155749847Y-80148102D01*
X155749844Y-80148102D01*
X155592160Y-80148102D01*
X155592157Y-80148102D01*
X155437512Y-80178863D01*
X155437500Y-80178866D01*
X155291829Y-80239204D01*
X155291816Y-80239211D01*
X155160713Y-80326812D01*
X155160709Y-80326815D01*
X155049215Y-80438309D01*
X155049212Y-80438313D01*
X154961611Y-80569416D01*
X154961604Y-80569429D01*
X154901266Y-80715100D01*
X154901263Y-80715112D01*
X154870502Y-80869755D01*
X151600276Y-80869755D01*
X151579738Y-80766510D01*
X151579737Y-80766503D01*
X151568966Y-80740499D01*
X151519397Y-80620827D01*
X151519390Y-80620814D01*
X151481309Y-80563822D01*
X151460431Y-80497144D01*
X151478915Y-80429764D01*
X151481269Y-80426100D01*
X151559394Y-80309179D01*
X151619737Y-80163497D01*
X151650500Y-80008842D01*
X151650500Y-80002004D01*
X151670185Y-79934965D01*
X151722989Y-79889210D01*
X151726972Y-79887474D01*
X151864779Y-79830394D01*
X151995889Y-79742789D01*
X152107389Y-79631289D01*
X152194994Y-79500179D01*
X152255337Y-79354497D01*
X152286100Y-79199842D01*
X152286100Y-79042158D01*
X152286100Y-79042155D01*
X152286099Y-79042153D01*
X152282349Y-79023302D01*
X152255337Y-78887503D01*
X152231996Y-78831153D01*
X153289500Y-78831153D01*
X153289500Y-78988846D01*
X153320261Y-79143489D01*
X153320264Y-79143501D01*
X153380602Y-79289172D01*
X153380609Y-79289185D01*
X153468210Y-79420288D01*
X153468213Y-79420292D01*
X153579707Y-79531786D01*
X153579711Y-79531789D01*
X153710814Y-79619390D01*
X153710827Y-79619397D01*
X153856498Y-79679735D01*
X153856503Y-79679737D01*
X153987520Y-79705798D01*
X154011153Y-79710499D01*
X154011156Y-79710500D01*
X154011158Y-79710500D01*
X154168844Y-79710500D01*
X154168845Y-79710499D01*
X154323497Y-79679737D01*
X154469179Y-79619394D01*
X154600289Y-79531789D01*
X154711789Y-79420289D01*
X154799394Y-79289179D01*
X154836895Y-79198642D01*
X154880734Y-79144241D01*
X154947028Y-79122175D01*
X155014727Y-79139453D01*
X155034516Y-79154826D01*
X155034601Y-79154724D01*
X155038435Y-79157870D01*
X155039136Y-79158415D01*
X155039307Y-79158586D01*
X155039311Y-79158589D01*
X155170414Y-79246190D01*
X155170427Y-79246197D01*
X155316098Y-79306535D01*
X155316103Y-79306537D01*
X155470753Y-79337299D01*
X155470756Y-79337300D01*
X155470758Y-79337300D01*
X155628444Y-79337300D01*
X155628445Y-79337299D01*
X155783097Y-79306537D01*
X155895766Y-79259867D01*
X155928772Y-79246197D01*
X155928772Y-79246196D01*
X155928779Y-79246194D01*
X156059889Y-79158589D01*
X156171389Y-79047089D01*
X156258994Y-78915979D01*
X156319337Y-78770297D01*
X156350100Y-78615642D01*
X156350100Y-78457958D01*
X156350100Y-78457955D01*
X156350099Y-78457953D01*
X156343256Y-78423552D01*
X156319337Y-78303303D01*
X156314644Y-78291973D01*
X156258997Y-78157627D01*
X156258990Y-78157614D01*
X156171389Y-78026511D01*
X156171386Y-78026507D01*
X156059892Y-77915013D01*
X156059888Y-77915010D01*
X155928785Y-77827409D01*
X155928772Y-77827402D01*
X155783101Y-77767064D01*
X155783089Y-77767061D01*
X155628445Y-77736300D01*
X155628442Y-77736300D01*
X155470758Y-77736300D01*
X155470755Y-77736300D01*
X155316110Y-77767061D01*
X155316098Y-77767064D01*
X155170427Y-77827402D01*
X155170414Y-77827409D01*
X155039311Y-77915010D01*
X155039307Y-77915013D01*
X154927813Y-78026507D01*
X154927810Y-78026511D01*
X154840209Y-78157614D01*
X154840204Y-78157623D01*
X154802705Y-78248156D01*
X154758864Y-78302559D01*
X154692570Y-78324624D01*
X154624871Y-78307345D01*
X154605083Y-78291973D01*
X154604999Y-78292076D01*
X154601159Y-78288925D01*
X154600463Y-78288384D01*
X154600292Y-78288213D01*
X154600288Y-78288210D01*
X154469185Y-78200609D01*
X154469172Y-78200602D01*
X154323501Y-78140264D01*
X154323489Y-78140261D01*
X154168845Y-78109500D01*
X154168842Y-78109500D01*
X154011158Y-78109500D01*
X154011155Y-78109500D01*
X153856510Y-78140261D01*
X153856498Y-78140264D01*
X153710827Y-78200602D01*
X153710814Y-78200609D01*
X153579711Y-78288210D01*
X153579707Y-78288213D01*
X153468213Y-78399707D01*
X153468210Y-78399711D01*
X153380609Y-78530814D01*
X153380602Y-78530827D01*
X153320264Y-78676498D01*
X153320261Y-78676510D01*
X153289500Y-78831153D01*
X152231996Y-78831153D01*
X152201860Y-78758397D01*
X152194997Y-78741827D01*
X152194990Y-78741814D01*
X152107389Y-78610711D01*
X152107386Y-78610707D01*
X151995892Y-78499213D01*
X151995888Y-78499210D01*
X151864785Y-78411609D01*
X151864772Y-78411602D01*
X151719101Y-78351264D01*
X151719089Y-78351261D01*
X151564445Y-78320500D01*
X151564442Y-78320500D01*
X151406758Y-78320500D01*
X151406755Y-78320500D01*
X151252110Y-78351261D01*
X151252098Y-78351264D01*
X151106427Y-78411602D01*
X151106414Y-78411609D01*
X150975311Y-78499210D01*
X150975307Y-78499213D01*
X150863813Y-78610707D01*
X150863810Y-78610711D01*
X150776209Y-78741814D01*
X150776202Y-78741827D01*
X150715864Y-78887498D01*
X150715861Y-78887510D01*
X150685100Y-79042153D01*
X150685100Y-79048995D01*
X150665415Y-79116034D01*
X150612611Y-79161789D01*
X150608552Y-79163556D01*
X150470827Y-79220602D01*
X150470814Y-79220609D01*
X150339711Y-79308210D01*
X150339707Y-79308213D01*
X150228213Y-79419707D01*
X150228210Y-79419711D01*
X150140609Y-79550814D01*
X150140602Y-79550827D01*
X150080264Y-79696498D01*
X150080261Y-79696510D01*
X150049500Y-79851153D01*
X150049500Y-80008846D01*
X150080261Y-80163489D01*
X150080264Y-80163501D01*
X150140602Y-80309172D01*
X150140609Y-80309185D01*
X150178690Y-80366177D01*
X150199568Y-80432855D01*
X150181083Y-80500235D01*
X150178690Y-80503959D01*
X150100609Y-80620814D01*
X150100602Y-80620827D01*
X150040264Y-80766498D01*
X150040261Y-80766510D01*
X150009500Y-80921153D01*
X149530499Y-80921153D01*
X149530499Y-80312128D01*
X149524091Y-80252517D01*
X149523379Y-80250609D01*
X149473797Y-80117671D01*
X149473795Y-80117668D01*
X149449999Y-80085881D01*
X149396421Y-80014309D01*
X149372004Y-79948848D01*
X149386855Y-79880575D01*
X149396416Y-79865696D01*
X149473796Y-79762331D01*
X149524091Y-79627483D01*
X149530500Y-79567873D01*
X149530499Y-77772128D01*
X149524091Y-77712517D01*
X149520728Y-77703501D01*
X149473797Y-77577671D01*
X149473795Y-77577668D01*
X149452219Y-77548846D01*
X149396421Y-77474309D01*
X149372004Y-77408848D01*
X149386855Y-77340575D01*
X149396416Y-77325696D01*
X149473796Y-77222331D01*
X149524091Y-77087483D01*
X149530500Y-77027873D01*
X149530499Y-75232128D01*
X149524091Y-75172517D01*
X149520728Y-75163501D01*
X149473797Y-75037671D01*
X149473793Y-75037664D01*
X149387547Y-74922455D01*
X149387544Y-74922452D01*
X149272335Y-74836206D01*
X149272328Y-74836202D01*
X149137482Y-74785908D01*
X149137483Y-74785908D01*
X149077883Y-74779501D01*
X149077881Y-74779500D01*
X149077873Y-74779500D01*
X149077864Y-74779500D01*
X147282129Y-74779500D01*
X147282123Y-74779501D01*
X147222516Y-74785908D01*
X147087671Y-74836202D01*
X147087669Y-74836203D01*
X146984311Y-74913578D01*
X146918847Y-74937995D01*
X146850574Y-74923144D01*
X146835689Y-74913578D01*
X146809775Y-74894179D01*
X146732331Y-74836204D01*
X146732330Y-74836203D01*
X146732328Y-74836202D01*
X146600917Y-74787189D01*
X146544983Y-74745318D01*
X146520566Y-74679853D01*
X146535418Y-74611580D01*
X146556563Y-74583332D01*
X146670104Y-74469792D01*
X146699206Y-74429737D01*
X146795048Y-74297820D01*
X146795047Y-74297820D01*
X146795051Y-74297816D01*
X146891557Y-74108412D01*
X146957246Y-73906243D01*
X146990500Y-73696287D01*
X146990500Y-73483713D01*
X146957246Y-73273757D01*
X146891557Y-73071588D01*
X146795051Y-72882184D01*
X146795049Y-72882181D01*
X146795048Y-72882179D01*
X146670109Y-72710213D01*
X146519786Y-72559890D01*
X146347820Y-72434951D01*
X146158414Y-72338444D01*
X146158413Y-72338443D01*
X146158412Y-72338443D01*
X145956243Y-72272754D01*
X145956241Y-72272753D01*
X145956240Y-72272753D01*
X145794957Y-72247208D01*
X145746287Y-72239500D01*
X145533713Y-72239500D01*
X145485042Y-72247208D01*
X145323760Y-72272753D01*
X145121585Y-72338444D01*
X144932179Y-72434951D01*
X144760213Y-72559890D01*
X144609890Y-72710213D01*
X144484951Y-72882179D01*
X144388444Y-73071585D01*
X144322753Y-73273760D01*
X144306973Y-73373393D01*
X144277044Y-73436528D01*
X144217732Y-73473459D01*
X144147870Y-73472461D01*
X144089637Y-73433851D01*
X144061523Y-73369888D01*
X144060500Y-73353995D01*
X144060500Y-69403713D01*
X144929500Y-69403713D01*
X144929500Y-69616287D01*
X144929534Y-69616503D01*
X144954028Y-69771153D01*
X144962754Y-69826243D01*
X144996091Y-69928844D01*
X145028444Y-70028414D01*
X145124951Y-70217820D01*
X145249890Y-70389786D01*
X145400213Y-70540109D01*
X145572179Y-70665048D01*
X145572181Y-70665049D01*
X145572184Y-70665051D01*
X145761588Y-70761557D01*
X145963757Y-70827246D01*
X146173713Y-70860500D01*
X146173714Y-70860500D01*
X146386286Y-70860500D01*
X146386287Y-70860500D01*
X146596243Y-70827246D01*
X146798412Y-70761557D01*
X146987816Y-70665051D01*
X147039877Y-70627227D01*
X147159786Y-70540109D01*
X147159788Y-70540106D01*
X147159792Y-70540104D01*
X147310104Y-70389792D01*
X147310106Y-70389788D01*
X147310109Y-70389786D01*
X147435048Y-70217820D01*
X147435047Y-70217820D01*
X147435051Y-70217816D01*
X147531557Y-70028412D01*
X147597246Y-69826243D01*
X147630500Y-69616287D01*
X147630500Y-69403713D01*
X147597246Y-69193757D01*
X147531557Y-68991588D01*
X147435051Y-68802184D01*
X147435049Y-68802181D01*
X147435048Y-68802179D01*
X147310109Y-68630213D01*
X147159786Y-68479890D01*
X146987820Y-68354951D01*
X146798414Y-68258444D01*
X146798413Y-68258443D01*
X146798412Y-68258443D01*
X146596243Y-68192754D01*
X146596241Y-68192753D01*
X146596240Y-68192753D01*
X146434957Y-68167208D01*
X146386287Y-68159500D01*
X146173713Y-68159500D01*
X146125042Y-68167208D01*
X145963760Y-68192753D01*
X145761585Y-68258444D01*
X145572179Y-68354951D01*
X145400213Y-68479890D01*
X145249890Y-68630213D01*
X145124951Y-68802179D01*
X145028444Y-68991585D01*
X144962753Y-69193760D01*
X144943399Y-69315956D01*
X144929500Y-69403713D01*
X144060500Y-69403713D01*
X144060500Y-69324066D01*
X144060765Y-69315956D01*
X144065057Y-69250467D01*
X144077075Y-69067102D01*
X144079190Y-69051048D01*
X144127045Y-68810462D01*
X144131243Y-68794797D01*
X144177393Y-68658842D01*
X144210093Y-68562512D01*
X144216291Y-68547547D01*
X144324790Y-68327533D01*
X144332897Y-68313493D01*
X144408182Y-68200821D01*
X144469177Y-68109534D01*
X144479039Y-68096681D01*
X144640786Y-67912244D01*
X144652244Y-67900786D01*
X144836681Y-67739039D01*
X144849534Y-67729177D01*
X145053493Y-67592897D01*
X145067533Y-67584790D01*
X145287547Y-67476291D01*
X145302512Y-67470093D01*
X145466762Y-67414337D01*
X145534797Y-67391243D01*
X145550464Y-67387045D01*
X145791048Y-67339190D01*
X145807102Y-67337075D01*
X146055957Y-67320765D01*
X146064067Y-67320500D01*
X146125892Y-67320500D01*
X149599441Y-67320500D01*
X149653345Y-67332829D01*
G37*
%TD.AperFunction*%
%TD*%
M02*
