%TF.GenerationSoftware,KiCad,Pcbnew,10.0.3*%
%TF.CreationDate,2026-06-27T13:58:59+01:00*%
%TF.ProjectId,Ai1_CC1000,4169315f-4343-4313-9030-302e6b696361,rev?*%
%TF.SameCoordinates,Original*%
%TF.FileFunction,Copper,L2,Inr*%
%TF.FilePolarity,Positive*%
%FSLAX46Y46*%
G04 Gerber Fmt 4.6, Leading zero omitted, Abs format (unit mm)*
G04 Created by KiCad (PCBNEW 10.0.3) date 2026-06-27 13:58:59*
%MOMM*%
%LPD*%
G01*
G04 APERTURE LIST*
G04 Aperture macros list*
%AMRoundRect*
0 Rectangle with rounded corners*
0 $1 Rounding radius*
0 $2 $3 $4 $5 $6 $7 $8 $9 X,Y pos of 4 corners*
0 Add a 4 corners polygon primitive as box body*
4,1,4,$2,$3,$4,$5,$6,$7,$8,$9,$2,$3,0*
0 Add four circle primitives for the rounded corners*
1,1,$1+$1,$2,$3*
1,1,$1+$1,$4,$5*
1,1,$1+$1,$6,$7*
1,1,$1+$1,$8,$9*
0 Add four rect primitives between the rounded corners*
20,1,$1+$1,$2,$3,$4,$5,0*
20,1,$1+$1,$4,$5,$6,$7,0*
20,1,$1+$1,$6,$7,$8,$9,0*
20,1,$1+$1,$8,$9,$2,$3,0*%
G04 Aperture macros list end*
%TA.AperFunction,ComponentPad*%
%ADD10R,1.700000X1.700000*%
%TD*%
%TA.AperFunction,ComponentPad*%
%ADD11C,1.700000*%
%TD*%
%TA.AperFunction,ComponentPad*%
%ADD12RoundRect,0.249999X0.850001X0.850001X-0.850001X0.850001X-0.850001X-0.850001X0.850001X-0.850001X0*%
%TD*%
%TA.AperFunction,ComponentPad*%
%ADD13C,2.200000*%
%TD*%
%TA.AperFunction,ComponentPad*%
%ADD14C,0.970000*%
%TD*%
%TA.AperFunction,ViaPad*%
%ADD15C,0.300000*%
%TD*%
G04 APERTURE END LIST*
D10*
%TO.N,/C_RFS_10*%
%TO.C,J13*%
X126619000Y-83312000D03*
%TD*%
%TO.N,/PALE*%
%TO.C,J1*%
X134874000Y-57404000D03*
D11*
%TO.N,/PDATA*%
X137414000Y-57404000D03*
%TO.N,/PCLK*%
X139954000Y-57404000D03*
%TO.N,/DCLK*%
X142494000Y-57404000D03*
%TO.N,/DIO*%
X145034000Y-57404000D03*
%TD*%
D10*
%TO.N,/C_RFS_7*%
%TO.C,J10*%
X121589800Y-83312000D03*
%TD*%
%TO.N,/C_RFS_3*%
%TO.C,J6*%
X121031000Y-56388000D03*
%TD*%
%TO.N,/C_RFS_5*%
%TO.C,J8*%
X110871000Y-56388000D03*
%TD*%
%TO.N,/C_RFS_1*%
%TO.C,J4*%
X118491000Y-56388000D03*
%TD*%
%TO.N,/C_RFS_2*%
%TO.C,J5*%
X115951000Y-56388000D03*
%TD*%
%TO.N,Net-(J2-Pin_1)*%
%TO.C,J2*%
X147574000Y-57404000D03*
%TD*%
%TO.N,Net-(J3-Pin_1)*%
%TO.C,J3*%
X132334000Y-57404000D03*
%TD*%
%TO.N,/C_RFS_9*%
%TO.C,J12*%
X129159000Y-83312000D03*
%TD*%
D12*
%TO.N,VDDA*%
%TO.C,SO1*%
X125476000Y-50599500D03*
D13*
%TO.N,GNDA*%
X122936000Y-50599500D03*
%TD*%
D10*
%TO.N,/C_RFS_4*%
%TO.C,J7*%
X113411000Y-56388000D03*
%TD*%
%TO.N,/C_RFS_8*%
%TO.C,J11*%
X124079000Y-83312000D03*
%TD*%
%TO.N,/C_RFS_6*%
%TO.C,J9*%
X108331000Y-56388000D03*
%TD*%
D12*
%TO.N,VDD*%
%TO.C,SO2*%
X130556000Y-50599500D03*
D13*
%TO.N,GNDD*%
X128016000Y-50599500D03*
%TD*%
D14*
%TO.N,GNDA*%
%TO.C,AE1*%
X107638000Y-60136000D03*
X107638000Y-68896000D03*
%TD*%
D15*
%TO.N,GNDA*%
X116606787Y-69529251D03*
X134620000Y-48260000D03*
X137160000Y-48260000D03*
X139700000Y-48260000D03*
X142240000Y-48260000D03*
X144780000Y-48260000D03*
X147320000Y-48260000D03*
X147320000Y-50800000D03*
X144780000Y-50800000D03*
X142240000Y-50800000D03*
X139700000Y-50800000D03*
X137160000Y-50800000D03*
X134620000Y-50800000D03*
X134620000Y-53340000D03*
X137160000Y-53340000D03*
X137160000Y-53340000D03*
X139700000Y-53340000D03*
X142240000Y-53340000D03*
X144780000Y-53340000D03*
X147320000Y-53340000D03*
X147320000Y-60960000D03*
X147320000Y-63500000D03*
X144780000Y-63500000D03*
X142240000Y-66040000D03*
X144780000Y-66040000D03*
X147320000Y-66040000D03*
X147320000Y-68580000D03*
X144780000Y-68580000D03*
X142240000Y-68580000D03*
X142240000Y-71120000D03*
X144780000Y-71120000D03*
X147320000Y-71120000D03*
X147320000Y-73660000D03*
X144780000Y-73660000D03*
X142240000Y-73660000D03*
X142240000Y-76200000D03*
X144780000Y-76200000D03*
X147320000Y-76200000D03*
X147320000Y-78740000D03*
X144780000Y-78740000D03*
X142240000Y-78740000D03*
X142240000Y-81280000D03*
X144780000Y-81280000D03*
X147320000Y-81280000D03*
X147320000Y-83820000D03*
X144780000Y-83820000D03*
X142240000Y-83820000D03*
X109855000Y-62230000D03*
X109855000Y-60960000D03*
X109855000Y-59690000D03*
X111760000Y-67310000D03*
X110490000Y-67310000D03*
X109220000Y-67310000D03*
X109220000Y-68580000D03*
X110490000Y-68580000D03*
X111760000Y-68580000D03*
X111760000Y-69850000D03*
X110490000Y-69850000D03*
X109220000Y-69850000D03*
X105410000Y-57150000D03*
X104140000Y-57150000D03*
X102870000Y-57150000D03*
X102870000Y-55880000D03*
X104140000Y-55880000D03*
X105410000Y-55880000D03*
X105410000Y-54610000D03*
X104140000Y-54610000D03*
X102870000Y-54610000D03*
X120650000Y-49530000D03*
X120650000Y-48260000D03*
X120650000Y-46990000D03*
X119380000Y-46990000D03*
X119380000Y-48260000D03*
X119380000Y-49530000D03*
X118110000Y-49530000D03*
X118110000Y-48260000D03*
X111760000Y-46990000D03*
X115570000Y-46990000D03*
X105410000Y-46990000D03*
X107950000Y-46990000D03*
X114300000Y-46990000D03*
X118110000Y-46990000D03*
X110490000Y-46990000D03*
X116840000Y-46990000D03*
X109220000Y-46990000D03*
X113030000Y-46990000D03*
X104140000Y-46990000D03*
X106680000Y-46990000D03*
X110490000Y-48260000D03*
X114300000Y-48260000D03*
X104140000Y-48260000D03*
X106680000Y-48260000D03*
X113030000Y-48260000D03*
X116840000Y-48260000D03*
X109220000Y-48260000D03*
X115570000Y-48260000D03*
X107950000Y-48260000D03*
X111760000Y-48260000D03*
X102870000Y-48260000D03*
X105410000Y-48260000D03*
X110490000Y-49530000D03*
X114300000Y-49530000D03*
X104140000Y-49530000D03*
X106680000Y-49530000D03*
X113030000Y-49530000D03*
X116840000Y-49530000D03*
X109220000Y-49530000D03*
X115570000Y-49530000D03*
X107950000Y-49530000D03*
X111760000Y-49530000D03*
X102870000Y-49530000D03*
X105410000Y-49530000D03*
X110490000Y-50800000D03*
X114300000Y-50800000D03*
X104140000Y-50800000D03*
X106680000Y-50800000D03*
X113030000Y-50800000D03*
X116840000Y-50800000D03*
X109220000Y-50800000D03*
X115570000Y-50800000D03*
X107950000Y-50800000D03*
X111760000Y-50800000D03*
X102870000Y-50800000D03*
X105410000Y-50800000D03*
X110490000Y-52070000D03*
X114300000Y-52070000D03*
X104140000Y-52070000D03*
X106680000Y-52070000D03*
X113030000Y-52070000D03*
X116840000Y-52070000D03*
X109220000Y-52070000D03*
X115570000Y-52070000D03*
X107950000Y-52070000D03*
X111760000Y-52070000D03*
X102870000Y-52070000D03*
X105410000Y-52070000D03*
X116840000Y-53340000D03*
X115570000Y-53340000D03*
X114300000Y-53340000D03*
X113030000Y-53340000D03*
X105410000Y-53340000D03*
X106680000Y-53340000D03*
X104140000Y-53340000D03*
X109220000Y-53340000D03*
X102870000Y-53340000D03*
X111760000Y-53340000D03*
X107950000Y-53340000D03*
X110490000Y-53340000D03*
X105410000Y-71120000D03*
X106680000Y-71120000D03*
X104140000Y-71120000D03*
X109220000Y-71120000D03*
X102870000Y-71120000D03*
X111760000Y-71120000D03*
X107950000Y-71120000D03*
X110490000Y-71120000D03*
X105410000Y-72390000D03*
X106680000Y-72390000D03*
X104140000Y-72390000D03*
X109220000Y-72390000D03*
X102870000Y-72390000D03*
X111760000Y-72390000D03*
X107950000Y-72390000D03*
X110490000Y-72390000D03*
X105410000Y-73660000D03*
X106680000Y-73660000D03*
X104140000Y-73660000D03*
X109220000Y-73660000D03*
X102870000Y-73660000D03*
X111760000Y-73660000D03*
X107950000Y-73660000D03*
X110490000Y-73660000D03*
X102870000Y-74930000D03*
X104140000Y-74930000D03*
X105410000Y-74930000D03*
X106680000Y-74930000D03*
X107950000Y-74930000D03*
X109220000Y-74930000D03*
X110490000Y-74930000D03*
X111760000Y-74930000D03*
X118110000Y-74930000D03*
X119380000Y-76200000D03*
X119380000Y-77470000D03*
X119380000Y-78740000D03*
X119380000Y-80010000D03*
X119380000Y-81280000D03*
X119380000Y-82550000D03*
X119380000Y-83820000D03*
X118110000Y-77470000D03*
X118110000Y-76200000D03*
X116840000Y-76200000D03*
X115570000Y-76200000D03*
X116840000Y-77470000D03*
X116840000Y-78740000D03*
X118110000Y-78740000D03*
X118110000Y-81280000D03*
X118110000Y-82550000D03*
X116840000Y-82550000D03*
X118110000Y-83820000D03*
X116840000Y-83820000D03*
X115570000Y-83820000D03*
X114300000Y-83820000D03*
X113030000Y-83820000D03*
X111760000Y-83820000D03*
X110490000Y-83820000D03*
X109220000Y-83820000D03*
X106680000Y-83820000D03*
X107950000Y-83820000D03*
X105410000Y-83820000D03*
X102870000Y-82550000D03*
X104140000Y-83820000D03*
X102870000Y-81280000D03*
X104140000Y-81280000D03*
X105410000Y-80010000D03*
X104140000Y-80010000D03*
X102870000Y-80010000D03*
X102870000Y-78740000D03*
X102870000Y-77470000D03*
X114300000Y-76200000D03*
X104140000Y-76200000D03*
X110490000Y-76200000D03*
X107950000Y-76200000D03*
X113030000Y-76200000D03*
X106680000Y-76200000D03*
X105410000Y-76200000D03*
X111760000Y-76200000D03*
X109220000Y-76200000D03*
X102870000Y-76200000D03*
X115570000Y-77470000D03*
X105410000Y-77470000D03*
X111760000Y-77470000D03*
X109220000Y-77470000D03*
X114300000Y-77470000D03*
X107950000Y-77470000D03*
X106680000Y-77470000D03*
X113030000Y-77470000D03*
X110490000Y-77470000D03*
X104140000Y-77470000D03*
X115570000Y-78740000D03*
X105410000Y-78740000D03*
X111760000Y-78740000D03*
X109220000Y-78740000D03*
X114300000Y-78740000D03*
X107950000Y-78740000D03*
X106680000Y-78740000D03*
X113030000Y-78740000D03*
X110490000Y-78740000D03*
X104140000Y-78740000D03*
X118110000Y-80010000D03*
X107950000Y-80010000D03*
X114300000Y-80010000D03*
X111760000Y-80010000D03*
X116840000Y-80010000D03*
X110490000Y-80010000D03*
X109220000Y-80010000D03*
X115570000Y-80010000D03*
X113030000Y-80010000D03*
X106680000Y-80010000D03*
X116840000Y-81280000D03*
X106680000Y-81280000D03*
X113030000Y-81280000D03*
X110490000Y-81280000D03*
X115570000Y-81280000D03*
X109220000Y-81280000D03*
X107950000Y-81280000D03*
X114300000Y-81280000D03*
X111760000Y-81280000D03*
X105410000Y-81280000D03*
X115570000Y-82550000D03*
X114300000Y-82550000D03*
X113030000Y-82550000D03*
X111760000Y-82550000D03*
X110490000Y-82550000D03*
X109220000Y-82550000D03*
X107950000Y-82550000D03*
X106680000Y-82550000D03*
X105410000Y-82550000D03*
X104140000Y-82550000D03*
X109982000Y-63500000D03*
X107442000Y-63500000D03*
X108966000Y-63500000D03*
X107950000Y-63500000D03*
X108458000Y-63500000D03*
X109474000Y-63500000D03*
X109982000Y-65151000D03*
X107442000Y-65151000D03*
X108966000Y-65151000D03*
X107950000Y-65151000D03*
X108458000Y-65151000D03*
X109474000Y-65151000D03*
X110236000Y-64770000D03*
X109728000Y-64770000D03*
X109220000Y-64770000D03*
X108712000Y-64770000D03*
X108204000Y-64770000D03*
X107696000Y-64770000D03*
X107188000Y-64770000D03*
X107188000Y-63881000D03*
X107696000Y-63881000D03*
X108204000Y-63881000D03*
X108712000Y-63881000D03*
X109220000Y-63881000D03*
X109728000Y-63881000D03*
X110236000Y-63881000D03*
%TO.N,/To_Ant_315Mhz*%
X111633000Y-64897000D03*
%TO.N,/C_RFS_5*%
X111052000Y-65269793D03*
%TO.N,GNDA*%
X111695620Y-64262000D03*
%TO.N,VDDA*%
X112133000Y-63256793D03*
%TO.N,/C_RFS_6*%
X112322000Y-64634793D03*
%TO.N,GNDA*%
X120977936Y-69350820D03*
X121031393Y-69788995D03*
X121030400Y-70263997D03*
X121158000Y-72263000D03*
X121030400Y-70739000D03*
X119148384Y-72502047D03*
X119618608Y-72569259D03*
X119950342Y-72237524D03*
X119255926Y-71727074D03*
X119719336Y-71831375D03*
X120234158Y-71864800D03*
X115094997Y-75438000D03*
X115570000Y-75438000D03*
X116024588Y-75428748D03*
X116498967Y-75453075D03*
X116967000Y-75372006D03*
X116967000Y-74897003D03*
X116967000Y-74422000D03*
X116899498Y-74001604D03*
X116848890Y-73529305D03*
X116840000Y-73027298D03*
X116841316Y-72597713D03*
X116838490Y-72122719D03*
X117464731Y-71478469D03*
X117155632Y-71787568D03*
X117832880Y-68723441D03*
X117830400Y-69126983D03*
X117855400Y-69601984D03*
X117557776Y-69884003D03*
X117394938Y-70346179D03*
X116967000Y-70706003D03*
X116841823Y-69899934D03*
X116840200Y-68935600D03*
X117407938Y-68265654D03*
X116967000Y-68265654D03*
X116967000Y-67310000D03*
X117094000Y-66040000D03*
X117094000Y-65532000D03*
X117094000Y-65024000D03*
X113284000Y-59588400D03*
X113790577Y-59215277D03*
X114401600Y-59182000D03*
X114909600Y-59232800D03*
X115468400Y-59232800D03*
X115976400Y-59029600D03*
X116484400Y-59080400D03*
X116920479Y-59355521D03*
X116941600Y-60045600D03*
X117094000Y-60960000D03*
X117094000Y-61341000D03*
X117094000Y-61722000D03*
X117094000Y-62103000D03*
X117094000Y-62484000D03*
X117856000Y-62865000D03*
X118237000Y-62865000D03*
%TO.N,VDDA*%
X118618000Y-62865000D03*
X118999000Y-62865000D03*
X119761000Y-62865000D03*
X120142000Y-62865000D03*
X120523000Y-62865000D03*
%TO.N,GNDA*%
X122545000Y-68800000D03*
X130810000Y-73800000D03*
X128270000Y-71400000D03*
X119126000Y-51144500D03*
X117823003Y-68265654D03*
X122415000Y-63500000D03*
X114140200Y-63895708D03*
X129781000Y-63500000D03*
X122545000Y-69450000D03*
X122545000Y-70100000D03*
X122545000Y-66200000D03*
X118936000Y-73355200D03*
X132715000Y-74155000D03*
X122415000Y-61595000D03*
X127566700Y-78955900D03*
X122545000Y-74000000D03*
X122415000Y-59690000D03*
X123477300Y-76923900D03*
X118280400Y-64211200D03*
X123274100Y-78981300D03*
X119687423Y-68275199D03*
X117866506Y-66512094D03*
X125921000Y-63500000D03*
X114140200Y-60282216D03*
X127617500Y-77152500D03*
X128270000Y-73350000D03*
%TO.N,VDDA*%
X123965000Y-61417200D03*
X123965000Y-63322200D03*
X119456200Y-66929000D03*
X114140200Y-74236183D03*
X123965000Y-59690000D03*
X119126000Y-68935600D03*
X118280400Y-70662800D03*
X121158000Y-68834000D03*
X125476000Y-55679500D03*
X122545000Y-68150000D03*
X122029500Y-78574900D03*
X128709700Y-79590900D03*
X128938300Y-77584300D03*
X128270000Y-74000000D03*
X114490200Y-68815945D03*
X122545000Y-65550000D03*
X122105700Y-76492100D03*
X114140200Y-70622691D03*
X122545000Y-70750000D03*
X120934131Y-67014867D03*
%TO.N,/C_RFS_1*%
X120980400Y-65811400D03*
%TO.N,/C_RFS_2*%
X119329200Y-65328800D03*
%TO.N,/C_RFS_3*%
X121081800Y-67589400D03*
%TO.N,/C_RFS_4*%
X117830400Y-67371287D03*
%TO.N,/C_RFS_7*%
X122054900Y-77609700D03*
%TO.N,/C_RFS_8*%
X122131100Y-79667100D03*
%TO.N,/C_RFS_9*%
X128760500Y-76466700D03*
%TO.N,/C_RFS_10*%
X128862100Y-78549500D03*
%TO.N,/315MHz_In*%
X120227780Y-65646590D03*
%TO.N,Net-(J2-Pin_1)*%
X122453400Y-72720200D03*
%TO.N,Net-(J3-Pin_1)*%
X131331000Y-63500000D03*
%TO.N,/315Mhz_Out*%
X120199200Y-69030800D03*
%TO.N,/PALE*%
X128371600Y-66217800D03*
%TO.N,/DIO*%
X128295400Y-68834000D03*
%TO.N,/DCLK*%
X128320800Y-68173600D03*
%TO.N,/PCLK*%
X128295400Y-67513200D03*
%TO.N,/PDATA*%
X128371600Y-66852800D03*
%TD*%
%TA.AperFunction,Conductor*%
%TO.N,GNDA*%
G36*
X146727953Y-46238523D02*
G01*
X146728057Y-46238551D01*
X146789941Y-46238551D01*
X146789947Y-46238553D01*
X146797995Y-46238816D01*
X147052065Y-46255468D01*
X147068121Y-46257583D01*
X147313837Y-46306459D01*
X147329503Y-46310657D01*
X147480685Y-46361976D01*
X147566737Y-46391187D01*
X147581714Y-46397390D01*
X147769805Y-46490146D01*
X147806409Y-46508197D01*
X147820457Y-46516307D01*
X148028764Y-46655494D01*
X148041628Y-46665365D01*
X148229982Y-46830548D01*
X148241451Y-46842017D01*
X148402088Y-47025188D01*
X148406634Y-47030371D01*
X148416508Y-47043239D01*
X148555692Y-47251543D01*
X148563802Y-47265590D01*
X148648682Y-47437710D01*
X148673094Y-47487213D01*
X148674606Y-47490278D01*
X148680813Y-47505264D01*
X148761342Y-47742496D01*
X148765540Y-47758162D01*
X148803774Y-47950374D01*
X148814022Y-48001896D01*
X148814414Y-48003864D01*
X148816532Y-48019946D01*
X148833184Y-48274007D01*
X148833449Y-48282117D01*
X148833449Y-55993941D01*
X148813764Y-56060980D01*
X148760960Y-56106735D01*
X148691802Y-56116679D01*
X148666116Y-56110123D01*
X148531482Y-56059908D01*
X148531483Y-56059908D01*
X148471883Y-56053501D01*
X148471881Y-56053500D01*
X148471873Y-56053500D01*
X148471864Y-56053500D01*
X146676129Y-56053500D01*
X146676123Y-56053501D01*
X146616516Y-56059908D01*
X146481671Y-56110202D01*
X146481664Y-56110206D01*
X146366455Y-56196452D01*
X146366452Y-56196455D01*
X146280206Y-56311664D01*
X146280203Y-56311669D01*
X146231189Y-56443083D01*
X146189317Y-56499016D01*
X146123853Y-56523433D01*
X146055580Y-56508581D01*
X146027326Y-56487430D01*
X145913786Y-56373890D01*
X145741820Y-56248951D01*
X145552414Y-56152444D01*
X145552413Y-56152443D01*
X145552412Y-56152443D01*
X145350243Y-56086754D01*
X145350241Y-56086753D01*
X145350240Y-56086753D01*
X145188957Y-56061208D01*
X145140287Y-56053500D01*
X144927713Y-56053500D01*
X144879042Y-56061208D01*
X144717760Y-56086753D01*
X144515585Y-56152444D01*
X144326179Y-56248951D01*
X144154213Y-56373890D01*
X144003890Y-56524213D01*
X143878949Y-56696182D01*
X143874484Y-56704946D01*
X143826509Y-56755742D01*
X143758688Y-56772536D01*
X143692553Y-56749998D01*
X143653516Y-56704946D01*
X143649050Y-56696182D01*
X143524109Y-56524213D01*
X143373786Y-56373890D01*
X143201820Y-56248951D01*
X143012414Y-56152444D01*
X143012413Y-56152443D01*
X143012412Y-56152443D01*
X142810243Y-56086754D01*
X142810241Y-56086753D01*
X142810240Y-56086753D01*
X142648957Y-56061208D01*
X142600287Y-56053500D01*
X142387713Y-56053500D01*
X142339042Y-56061208D01*
X142177760Y-56086753D01*
X141975585Y-56152444D01*
X141786179Y-56248951D01*
X141614213Y-56373890D01*
X141463890Y-56524213D01*
X141338949Y-56696182D01*
X141334484Y-56704946D01*
X141286509Y-56755742D01*
X141218688Y-56772536D01*
X141152553Y-56749998D01*
X141113516Y-56704946D01*
X141109050Y-56696182D01*
X140984109Y-56524213D01*
X140833786Y-56373890D01*
X140661820Y-56248951D01*
X140472414Y-56152444D01*
X140472413Y-56152443D01*
X140472412Y-56152443D01*
X140270243Y-56086754D01*
X140270241Y-56086753D01*
X140270240Y-56086753D01*
X140108957Y-56061208D01*
X140060287Y-56053500D01*
X139847713Y-56053500D01*
X139799042Y-56061208D01*
X139637760Y-56086753D01*
X139435585Y-56152444D01*
X139246179Y-56248951D01*
X139074213Y-56373890D01*
X138923890Y-56524213D01*
X138798949Y-56696182D01*
X138794484Y-56704946D01*
X138746509Y-56755742D01*
X138678688Y-56772536D01*
X138612553Y-56749998D01*
X138573516Y-56704946D01*
X138569050Y-56696182D01*
X138444109Y-56524213D01*
X138293786Y-56373890D01*
X138121820Y-56248951D01*
X137932414Y-56152444D01*
X137932413Y-56152443D01*
X137932412Y-56152443D01*
X137730243Y-56086754D01*
X137730241Y-56086753D01*
X137730240Y-56086753D01*
X137568957Y-56061208D01*
X137520287Y-56053500D01*
X137307713Y-56053500D01*
X137259042Y-56061208D01*
X137097760Y-56086753D01*
X136895585Y-56152444D01*
X136706179Y-56248951D01*
X136534215Y-56373889D01*
X136420673Y-56487431D01*
X136359350Y-56520915D01*
X136289658Y-56515931D01*
X136233725Y-56474059D01*
X136216810Y-56443082D01*
X136167797Y-56311671D01*
X136167793Y-56311664D01*
X136081547Y-56196455D01*
X136081544Y-56196452D01*
X135966335Y-56110206D01*
X135966328Y-56110202D01*
X135831482Y-56059908D01*
X135831483Y-56059908D01*
X135771883Y-56053501D01*
X135771881Y-56053500D01*
X135771873Y-56053500D01*
X135771864Y-56053500D01*
X133976129Y-56053500D01*
X133976123Y-56053501D01*
X133916516Y-56059908D01*
X133781671Y-56110202D01*
X133781669Y-56110203D01*
X133678311Y-56187578D01*
X133612847Y-56211995D01*
X133544574Y-56197144D01*
X133529689Y-56187578D01*
X133426330Y-56110203D01*
X133426328Y-56110202D01*
X133291482Y-56059908D01*
X133291483Y-56059908D01*
X133231883Y-56053501D01*
X133231881Y-56053500D01*
X133231873Y-56053500D01*
X133231864Y-56053500D01*
X131436129Y-56053500D01*
X131436123Y-56053501D01*
X131376516Y-56059908D01*
X131241671Y-56110202D01*
X131241664Y-56110206D01*
X131126455Y-56196452D01*
X131126452Y-56196455D01*
X131040206Y-56311664D01*
X131040202Y-56311671D01*
X130989908Y-56446517D01*
X130983501Y-56506116D01*
X130983500Y-56506135D01*
X130983500Y-58301870D01*
X130983501Y-58301876D01*
X130989908Y-58361483D01*
X131040202Y-58496328D01*
X131040206Y-58496335D01*
X131126452Y-58611544D01*
X131126455Y-58611547D01*
X131241664Y-58697793D01*
X131241671Y-58697797D01*
X131376517Y-58748091D01*
X131376516Y-58748091D01*
X131383444Y-58748835D01*
X131436127Y-58754500D01*
X133231872Y-58754499D01*
X133291483Y-58748091D01*
X133426331Y-58697796D01*
X133529690Y-58620421D01*
X133595152Y-58596004D01*
X133663425Y-58610855D01*
X133678303Y-58620416D01*
X133775118Y-58692892D01*
X133781668Y-58697795D01*
X133781671Y-58697797D01*
X133916517Y-58748091D01*
X133916516Y-58748091D01*
X133923444Y-58748835D01*
X133976127Y-58754500D01*
X135771872Y-58754499D01*
X135831483Y-58748091D01*
X135966331Y-58697796D01*
X136081546Y-58611546D01*
X136167796Y-58496331D01*
X136216810Y-58364916D01*
X136258681Y-58308984D01*
X136324145Y-58284566D01*
X136392418Y-58299417D01*
X136420673Y-58320569D01*
X136534213Y-58434109D01*
X136706179Y-58559048D01*
X136706181Y-58559049D01*
X136706184Y-58559051D01*
X136895588Y-58655557D01*
X137097757Y-58721246D01*
X137307713Y-58754500D01*
X137307714Y-58754500D01*
X137520286Y-58754500D01*
X137520287Y-58754500D01*
X137730243Y-58721246D01*
X137932412Y-58655557D01*
X138121816Y-58559051D01*
X138208138Y-58496335D01*
X138293786Y-58434109D01*
X138293788Y-58434106D01*
X138293792Y-58434104D01*
X138444104Y-58283792D01*
X138444106Y-58283788D01*
X138444109Y-58283786D01*
X138569048Y-58111820D01*
X138569047Y-58111820D01*
X138569051Y-58111816D01*
X138573514Y-58103054D01*
X138621488Y-58052259D01*
X138689308Y-58035463D01*
X138755444Y-58057999D01*
X138794486Y-58103056D01*
X138798951Y-58111820D01*
X138923890Y-58283786D01*
X139074213Y-58434109D01*
X139246179Y-58559048D01*
X139246181Y-58559049D01*
X139246184Y-58559051D01*
X139435588Y-58655557D01*
X139637757Y-58721246D01*
X139847713Y-58754500D01*
X139847714Y-58754500D01*
X140060286Y-58754500D01*
X140060287Y-58754500D01*
X140270243Y-58721246D01*
X140472412Y-58655557D01*
X140661816Y-58559051D01*
X140748138Y-58496335D01*
X140833786Y-58434109D01*
X140833788Y-58434106D01*
X140833792Y-58434104D01*
X140984104Y-58283792D01*
X140984106Y-58283788D01*
X140984109Y-58283786D01*
X141109048Y-58111820D01*
X141109047Y-58111820D01*
X141109051Y-58111816D01*
X141113514Y-58103054D01*
X141161488Y-58052259D01*
X141229308Y-58035463D01*
X141295444Y-58057999D01*
X141334486Y-58103056D01*
X141338951Y-58111820D01*
X141463890Y-58283786D01*
X141614213Y-58434109D01*
X141786179Y-58559048D01*
X141786181Y-58559049D01*
X141786184Y-58559051D01*
X141975588Y-58655557D01*
X142177757Y-58721246D01*
X142387713Y-58754500D01*
X142387714Y-58754500D01*
X142600286Y-58754500D01*
X142600287Y-58754500D01*
X142810243Y-58721246D01*
X143012412Y-58655557D01*
X143201816Y-58559051D01*
X143288138Y-58496335D01*
X143373786Y-58434109D01*
X143373788Y-58434106D01*
X143373792Y-58434104D01*
X143524104Y-58283792D01*
X143524106Y-58283788D01*
X143524109Y-58283786D01*
X143649048Y-58111820D01*
X143649047Y-58111820D01*
X143649051Y-58111816D01*
X143653514Y-58103054D01*
X143701488Y-58052259D01*
X143769308Y-58035463D01*
X143835444Y-58057999D01*
X143874486Y-58103056D01*
X143878951Y-58111820D01*
X144003890Y-58283786D01*
X144154213Y-58434109D01*
X144326179Y-58559048D01*
X144326181Y-58559049D01*
X144326184Y-58559051D01*
X144515588Y-58655557D01*
X144717757Y-58721246D01*
X144927713Y-58754500D01*
X144927714Y-58754500D01*
X145140286Y-58754500D01*
X145140287Y-58754500D01*
X145350243Y-58721246D01*
X145552412Y-58655557D01*
X145741816Y-58559051D01*
X145913792Y-58434104D01*
X146027329Y-58320566D01*
X146088648Y-58287084D01*
X146158340Y-58292068D01*
X146214274Y-58333939D01*
X146231189Y-58364917D01*
X146280202Y-58496328D01*
X146280206Y-58496335D01*
X146366452Y-58611544D01*
X146366455Y-58611547D01*
X146481664Y-58697793D01*
X146481671Y-58697797D01*
X146616517Y-58748091D01*
X146616516Y-58748091D01*
X146623444Y-58748835D01*
X146676127Y-58754500D01*
X148471872Y-58754499D01*
X148531483Y-58748091D01*
X148666116Y-58697875D01*
X148735807Y-58692892D01*
X148797130Y-58726377D01*
X148830615Y-58787700D01*
X148833449Y-58814058D01*
X148833449Y-82698333D01*
X148833184Y-82706443D01*
X148816532Y-82960504D01*
X148814414Y-82976586D01*
X148765540Y-83222288D01*
X148761342Y-83237954D01*
X148680813Y-83475186D01*
X148674606Y-83490172D01*
X148563802Y-83714860D01*
X148555692Y-83728907D01*
X148416508Y-83937211D01*
X148406634Y-83950079D01*
X148241451Y-84138433D01*
X148229982Y-84149902D01*
X148041628Y-84315085D01*
X148028760Y-84324959D01*
X147820456Y-84464143D01*
X147806409Y-84472253D01*
X147581721Y-84583057D01*
X147566735Y-84589264D01*
X147329503Y-84669793D01*
X147313837Y-84673991D01*
X147068135Y-84722865D01*
X147052053Y-84724983D01*
X146797992Y-84741635D01*
X146789910Y-84741900D01*
X146728057Y-84741900D01*
X146728003Y-84741914D01*
X146719868Y-84741916D01*
X146719853Y-84741911D01*
X146719787Y-84741916D01*
X130450383Y-84735017D01*
X130383352Y-84715304D01*
X130337620Y-84662481D01*
X130327706Y-84593318D01*
X130356757Y-84529775D01*
X130362759Y-84523331D01*
X130366538Y-84519551D01*
X130366546Y-84519546D01*
X130452796Y-84404331D01*
X130503091Y-84269483D01*
X130509500Y-84209873D01*
X130509499Y-82414128D01*
X130503091Y-82354517D01*
X130452796Y-82219669D01*
X130452795Y-82219668D01*
X130452793Y-82219664D01*
X130366547Y-82104455D01*
X130366544Y-82104452D01*
X130251335Y-82018206D01*
X130251328Y-82018202D01*
X130116482Y-81967908D01*
X130116483Y-81967908D01*
X130056883Y-81961501D01*
X130056881Y-81961500D01*
X130056873Y-81961500D01*
X130056864Y-81961500D01*
X128261129Y-81961500D01*
X128261123Y-81961501D01*
X128201516Y-81967908D01*
X128066671Y-82018202D01*
X128066669Y-82018203D01*
X127963311Y-82095578D01*
X127897847Y-82119995D01*
X127829574Y-82105144D01*
X127814689Y-82095578D01*
X127711330Y-82018203D01*
X127711328Y-82018202D01*
X127576482Y-81967908D01*
X127576483Y-81967908D01*
X127516883Y-81961501D01*
X127516881Y-81961500D01*
X127516873Y-81961500D01*
X127516864Y-81961500D01*
X125721129Y-81961500D01*
X125721123Y-81961501D01*
X125661516Y-81967908D01*
X125526671Y-82018202D01*
X125526669Y-82018203D01*
X125423311Y-82095578D01*
X125357847Y-82119995D01*
X125289574Y-82105144D01*
X125274689Y-82095578D01*
X125171330Y-82018203D01*
X125171328Y-82018202D01*
X125036482Y-81967908D01*
X125036483Y-81967908D01*
X124976883Y-81961501D01*
X124976881Y-81961500D01*
X124976873Y-81961500D01*
X124976864Y-81961500D01*
X123181129Y-81961500D01*
X123181123Y-81961501D01*
X123121516Y-81967908D01*
X122986671Y-82018202D01*
X122986668Y-82018204D01*
X122908711Y-82076563D01*
X122843246Y-82100980D01*
X122774973Y-82086128D01*
X122760089Y-82076563D01*
X122682131Y-82018204D01*
X122682128Y-82018202D01*
X122547282Y-81967908D01*
X122547283Y-81967908D01*
X122487683Y-81961501D01*
X122487681Y-81961500D01*
X122487673Y-81961500D01*
X122487664Y-81961500D01*
X120691929Y-81961500D01*
X120691923Y-81961501D01*
X120632316Y-81967908D01*
X120497471Y-82018202D01*
X120497464Y-82018206D01*
X120382255Y-82104452D01*
X120382252Y-82104455D01*
X120296006Y-82219664D01*
X120296002Y-82219671D01*
X120245708Y-82354517D01*
X120239301Y-82414116D01*
X120239301Y-82414123D01*
X120239300Y-82414135D01*
X120239300Y-84209870D01*
X120239301Y-84209876D01*
X120245708Y-84269483D01*
X120296002Y-84404328D01*
X120296006Y-84404335D01*
X120387568Y-84526645D01*
X120386381Y-84527533D01*
X120415223Y-84580353D01*
X120410239Y-84650045D01*
X120368367Y-84705978D01*
X120302903Y-84730395D01*
X120294004Y-84730711D01*
X104181283Y-84723879D01*
X104173244Y-84723875D01*
X104173143Y-84723849D01*
X104111277Y-84723849D01*
X104111270Y-84723847D01*
X104103220Y-84723584D01*
X103849145Y-84706932D01*
X103833067Y-84704814D01*
X103758076Y-84689897D01*
X103587362Y-84655940D01*
X103571696Y-84651742D01*
X103334464Y-84571213D01*
X103319478Y-84565006D01*
X103094790Y-84454202D01*
X103080743Y-84446092D01*
X102872439Y-84306908D01*
X102859571Y-84297034D01*
X102671217Y-84131851D01*
X102659748Y-84120382D01*
X102595413Y-84047023D01*
X102494562Y-83932024D01*
X102484691Y-83919160D01*
X102345507Y-83710856D01*
X102337397Y-83696809D01*
X102235495Y-83490172D01*
X102226590Y-83472114D01*
X102220386Y-83457135D01*
X102139857Y-83219903D01*
X102135659Y-83204237D01*
X102090376Y-82976586D01*
X102086783Y-82958521D01*
X102084668Y-82942465D01*
X102068018Y-82688424D01*
X102067754Y-82680251D01*
X102071599Y-78638971D01*
X121378999Y-78638971D01*
X121403997Y-78764638D01*
X121403999Y-78764644D01*
X121453033Y-78883024D01*
X121453038Y-78883033D01*
X121524223Y-78989568D01*
X121524226Y-78989572D01*
X121619043Y-79084389D01*
X121652528Y-79145712D01*
X121647544Y-79215404D01*
X121629169Y-79247340D01*
X121629208Y-79247366D01*
X121628826Y-79247936D01*
X121627219Y-79250731D01*
X121625822Y-79252432D01*
X121554638Y-79358966D01*
X121554633Y-79358975D01*
X121505599Y-79477355D01*
X121505597Y-79477361D01*
X121480600Y-79603028D01*
X121480600Y-79603031D01*
X121480600Y-79731169D01*
X121480600Y-79731171D01*
X121480599Y-79731171D01*
X121505597Y-79856838D01*
X121505599Y-79856844D01*
X121554633Y-79975224D01*
X121554638Y-79975233D01*
X121625823Y-80081768D01*
X121625826Y-80081772D01*
X121716427Y-80172373D01*
X121716431Y-80172376D01*
X121822966Y-80243561D01*
X121822972Y-80243564D01*
X121822973Y-80243565D01*
X121941356Y-80292601D01*
X121941360Y-80292601D01*
X121941361Y-80292602D01*
X122067028Y-80317600D01*
X122067031Y-80317600D01*
X122195171Y-80317600D01*
X122279715Y-80300782D01*
X122320844Y-80292601D01*
X122439227Y-80243565D01*
X122545769Y-80172376D01*
X122636376Y-80081769D01*
X122707565Y-79975227D01*
X122756601Y-79856844D01*
X122781600Y-79731169D01*
X122781600Y-79654971D01*
X128059199Y-79654971D01*
X128084197Y-79780638D01*
X128084199Y-79780644D01*
X128133233Y-79899024D01*
X128133238Y-79899033D01*
X128204423Y-80005568D01*
X128204426Y-80005572D01*
X128295027Y-80096173D01*
X128295031Y-80096176D01*
X128401566Y-80167361D01*
X128401575Y-80167366D01*
X128428392Y-80178474D01*
X128519956Y-80216401D01*
X128519960Y-80216401D01*
X128519961Y-80216402D01*
X128645628Y-80241400D01*
X128645631Y-80241400D01*
X128773771Y-80241400D01*
X128858315Y-80224582D01*
X128899444Y-80216401D01*
X129017827Y-80167365D01*
X129124369Y-80096176D01*
X129214976Y-80005569D01*
X129286165Y-79899027D01*
X129335201Y-79780644D01*
X129360200Y-79654969D01*
X129360200Y-79526831D01*
X129360200Y-79526828D01*
X129335202Y-79401161D01*
X129335201Y-79401160D01*
X129335201Y-79401156D01*
X129286165Y-79282773D01*
X129286164Y-79282772D01*
X129286161Y-79282766D01*
X129246835Y-79223911D01*
X129225957Y-79157234D01*
X129244441Y-79089854D01*
X129273215Y-79060046D01*
X129272061Y-79058640D01*
X129276765Y-79054778D01*
X129276769Y-79054776D01*
X129367376Y-78964169D01*
X129438565Y-78857627D01*
X129487601Y-78739244D01*
X129507547Y-78638971D01*
X129512600Y-78613571D01*
X129512600Y-78485428D01*
X129487602Y-78359761D01*
X129487601Y-78359760D01*
X129487601Y-78359756D01*
X129438565Y-78241373D01*
X129438564Y-78241372D01*
X129438561Y-78241366D01*
X129400016Y-78183680D01*
X129379138Y-78117003D01*
X129397622Y-78049623D01*
X129415434Y-78027110D01*
X129443576Y-77998969D01*
X129514765Y-77892427D01*
X129563801Y-77774044D01*
X129583747Y-77673771D01*
X129588800Y-77648371D01*
X129588800Y-77520228D01*
X129563802Y-77394561D01*
X129563801Y-77394560D01*
X129563801Y-77394556D01*
X129514765Y-77276173D01*
X129514764Y-77276172D01*
X129514761Y-77276166D01*
X129443576Y-77169631D01*
X129443573Y-77169627D01*
X129352972Y-77079026D01*
X129352968Y-77079023D01*
X129304486Y-77046628D01*
X129259681Y-76993015D01*
X129250974Y-76923690D01*
X129270274Y-76874636D01*
X129336965Y-76774827D01*
X129386001Y-76656444D01*
X129405947Y-76556171D01*
X129411000Y-76530771D01*
X129411000Y-76402628D01*
X129386002Y-76276961D01*
X129386001Y-76276960D01*
X129386001Y-76276956D01*
X129336965Y-76158573D01*
X129336964Y-76158572D01*
X129336961Y-76158566D01*
X129265776Y-76052031D01*
X129265773Y-76052027D01*
X129175172Y-75961426D01*
X129175168Y-75961423D01*
X129068633Y-75890238D01*
X129068624Y-75890233D01*
X128950244Y-75841199D01*
X128950238Y-75841197D01*
X128824571Y-75816200D01*
X128824569Y-75816200D01*
X128696431Y-75816200D01*
X128696429Y-75816200D01*
X128570761Y-75841197D01*
X128570755Y-75841199D01*
X128452375Y-75890233D01*
X128452366Y-75890238D01*
X128345831Y-75961423D01*
X128345827Y-75961426D01*
X128255226Y-76052027D01*
X128255223Y-76052031D01*
X128184038Y-76158566D01*
X128184033Y-76158575D01*
X128134999Y-76276955D01*
X128134997Y-76276961D01*
X128110000Y-76402628D01*
X128110000Y-76402631D01*
X128110000Y-76530769D01*
X128110000Y-76530771D01*
X128109999Y-76530771D01*
X128134997Y-76656438D01*
X128134999Y-76656444D01*
X128184033Y-76774824D01*
X128184038Y-76774833D01*
X128255223Y-76881368D01*
X128255226Y-76881372D01*
X128345827Y-76971973D01*
X128345831Y-76971976D01*
X128394313Y-77004371D01*
X128439118Y-77057983D01*
X128447825Y-77127308D01*
X128428524Y-77176363D01*
X128361841Y-77276161D01*
X128361833Y-77276175D01*
X128312799Y-77394555D01*
X128312797Y-77394561D01*
X128287800Y-77520228D01*
X128287800Y-77520231D01*
X128287800Y-77648369D01*
X128287800Y-77648371D01*
X128287799Y-77648371D01*
X128312797Y-77774038D01*
X128312799Y-77774044D01*
X128361833Y-77892424D01*
X128361838Y-77892433D01*
X128400383Y-77950119D01*
X128421261Y-78016797D01*
X128402776Y-78084177D01*
X128384964Y-78106690D01*
X128356823Y-78134831D01*
X128285638Y-78241366D01*
X128285633Y-78241375D01*
X128236599Y-78359755D01*
X128236597Y-78359761D01*
X128211600Y-78485428D01*
X128211600Y-78485431D01*
X128211600Y-78613569D01*
X128211600Y-78613571D01*
X128211599Y-78613571D01*
X128236597Y-78739238D01*
X128236599Y-78739244D01*
X128285633Y-78857624D01*
X128285638Y-78857633D01*
X128324964Y-78916488D01*
X128345842Y-78983166D01*
X128327357Y-79050546D01*
X128298602Y-79080375D01*
X128299739Y-79081760D01*
X128295027Y-79085626D01*
X128204426Y-79176227D01*
X128204423Y-79176231D01*
X128133238Y-79282766D01*
X128133233Y-79282775D01*
X128084199Y-79401155D01*
X128084197Y-79401161D01*
X128059200Y-79526828D01*
X128059200Y-79526831D01*
X128059200Y-79654969D01*
X128059200Y-79654971D01*
X128059199Y-79654971D01*
X122781600Y-79654971D01*
X122781600Y-79603031D01*
X122781600Y-79603028D01*
X122770043Y-79544931D01*
X122756602Y-79477361D01*
X122756601Y-79477360D01*
X122756601Y-79477356D01*
X122707565Y-79358973D01*
X122707564Y-79358972D01*
X122707561Y-79358966D01*
X122636376Y-79252431D01*
X122636373Y-79252427D01*
X122541556Y-79157610D01*
X122508071Y-79096287D01*
X122513055Y-79026595D01*
X122531432Y-78994660D01*
X122531392Y-78994634D01*
X122531793Y-78994032D01*
X122533394Y-78991252D01*
X122534765Y-78989579D01*
X122534776Y-78989569D01*
X122605965Y-78883027D01*
X122655001Y-78764644D01*
X122680000Y-78638969D01*
X122680000Y-78510831D01*
X122680000Y-78510828D01*
X122655002Y-78385161D01*
X122655001Y-78385160D01*
X122655001Y-78385156D01*
X122605965Y-78266773D01*
X122547066Y-78178625D01*
X122526190Y-78111951D01*
X122544674Y-78044571D01*
X122556689Y-78029389D01*
X122556311Y-78029079D01*
X122560171Y-78024373D01*
X122560176Y-78024369D01*
X122631365Y-77917827D01*
X122680401Y-77799444D01*
X122705400Y-77673769D01*
X122705400Y-77545631D01*
X122705400Y-77545628D01*
X122680402Y-77419961D01*
X122680401Y-77419960D01*
X122680401Y-77419956D01*
X122631365Y-77301573D01*
X122631364Y-77301572D01*
X122631361Y-77301566D01*
X122560176Y-77195031D01*
X122560173Y-77195027D01*
X122529127Y-77163981D01*
X122495642Y-77102658D01*
X122500626Y-77032966D01*
X122529127Y-76988619D01*
X122610973Y-76906772D01*
X122610976Y-76906769D01*
X122682165Y-76800227D01*
X122731201Y-76681844D01*
X122756200Y-76556169D01*
X122756200Y-76428031D01*
X122756200Y-76428028D01*
X122731202Y-76302361D01*
X122731201Y-76302360D01*
X122731201Y-76302356D01*
X122682165Y-76183973D01*
X122682164Y-76183972D01*
X122682161Y-76183966D01*
X122610976Y-76077431D01*
X122610973Y-76077427D01*
X122520372Y-75986826D01*
X122520368Y-75986823D01*
X122413833Y-75915638D01*
X122413824Y-75915633D01*
X122295444Y-75866599D01*
X122295438Y-75866597D01*
X122169771Y-75841600D01*
X122169769Y-75841600D01*
X122041631Y-75841600D01*
X122041629Y-75841600D01*
X121915961Y-75866597D01*
X121915955Y-75866599D01*
X121797575Y-75915633D01*
X121797566Y-75915638D01*
X121691031Y-75986823D01*
X121691027Y-75986826D01*
X121600426Y-76077427D01*
X121600423Y-76077431D01*
X121529238Y-76183966D01*
X121529233Y-76183975D01*
X121480199Y-76302355D01*
X121480197Y-76302361D01*
X121455200Y-76428028D01*
X121455200Y-76428031D01*
X121455200Y-76556169D01*
X121455200Y-76556171D01*
X121455199Y-76556171D01*
X121480197Y-76681838D01*
X121480199Y-76681844D01*
X121529233Y-76800224D01*
X121529238Y-76800233D01*
X121600423Y-76906768D01*
X121600426Y-76906772D01*
X121631473Y-76937819D01*
X121664958Y-76999142D01*
X121659974Y-77068834D01*
X121631473Y-77113181D01*
X121549626Y-77195027D01*
X121549623Y-77195031D01*
X121478438Y-77301566D01*
X121478433Y-77301575D01*
X121429399Y-77419955D01*
X121429397Y-77419961D01*
X121404400Y-77545628D01*
X121404400Y-77545631D01*
X121404400Y-77673769D01*
X121404400Y-77673771D01*
X121404399Y-77673771D01*
X121429397Y-77799438D01*
X121429399Y-77799444D01*
X121478433Y-77917824D01*
X121478438Y-77917832D01*
X121537331Y-78005971D01*
X121558209Y-78072648D01*
X121539725Y-78140028D01*
X121527713Y-78155212D01*
X121528089Y-78155521D01*
X121524223Y-78160231D01*
X121453038Y-78266766D01*
X121453033Y-78266775D01*
X121403999Y-78385155D01*
X121403997Y-78385161D01*
X121379000Y-78510828D01*
X121379000Y-78510831D01*
X121379000Y-78638969D01*
X121379000Y-78638971D01*
X121378999Y-78638971D01*
X102071599Y-78638971D01*
X102075726Y-74300254D01*
X113489699Y-74300254D01*
X113514697Y-74425921D01*
X113514699Y-74425927D01*
X113563733Y-74544307D01*
X113563738Y-74544316D01*
X113634923Y-74650851D01*
X113634926Y-74650855D01*
X113725527Y-74741456D01*
X113725531Y-74741459D01*
X113832066Y-74812644D01*
X113832072Y-74812647D01*
X113832073Y-74812648D01*
X113950456Y-74861684D01*
X113950460Y-74861684D01*
X113950461Y-74861685D01*
X114076128Y-74886683D01*
X114076131Y-74886683D01*
X114204271Y-74886683D01*
X114288815Y-74869865D01*
X114329944Y-74861684D01*
X114448327Y-74812648D01*
X114554869Y-74741459D01*
X114645476Y-74650852D01*
X114716665Y-74544310D01*
X114765701Y-74425927D01*
X114773882Y-74384798D01*
X114790700Y-74300254D01*
X114790700Y-74172111D01*
X114769208Y-74064071D01*
X127619499Y-74064071D01*
X127644497Y-74189738D01*
X127644499Y-74189744D01*
X127693533Y-74308124D01*
X127693538Y-74308133D01*
X127764723Y-74414668D01*
X127764726Y-74414672D01*
X127855327Y-74505273D01*
X127855331Y-74505276D01*
X127961866Y-74576461D01*
X127961872Y-74576464D01*
X127961873Y-74576465D01*
X128080256Y-74625501D01*
X128080260Y-74625501D01*
X128080261Y-74625502D01*
X128205928Y-74650500D01*
X128205931Y-74650500D01*
X128334071Y-74650500D01*
X128418615Y-74633682D01*
X128459744Y-74625501D01*
X128578127Y-74576465D01*
X128684669Y-74505276D01*
X128775276Y-74414669D01*
X128846465Y-74308127D01*
X128895501Y-74189744D01*
X128920500Y-74064069D01*
X128920500Y-73935931D01*
X128920500Y-73935928D01*
X128895502Y-73810261D01*
X128895501Y-73810260D01*
X128895501Y-73810256D01*
X128846465Y-73691873D01*
X128846464Y-73691872D01*
X128846461Y-73691866D01*
X128775276Y-73585331D01*
X128775273Y-73585327D01*
X128684672Y-73494726D01*
X128684668Y-73494723D01*
X128578133Y-73423538D01*
X128578124Y-73423533D01*
X128459744Y-73374499D01*
X128459738Y-73374497D01*
X128334071Y-73349500D01*
X128334069Y-73349500D01*
X128205931Y-73349500D01*
X128205929Y-73349500D01*
X128080261Y-73374497D01*
X128080255Y-73374499D01*
X127961875Y-73423533D01*
X127961866Y-73423538D01*
X127855331Y-73494723D01*
X127855327Y-73494726D01*
X127764726Y-73585327D01*
X127764723Y-73585331D01*
X127693538Y-73691866D01*
X127693533Y-73691875D01*
X127644499Y-73810255D01*
X127644497Y-73810261D01*
X127619500Y-73935928D01*
X127619500Y-73935931D01*
X127619500Y-74064069D01*
X127619500Y-74064071D01*
X127619499Y-74064071D01*
X114769208Y-74064071D01*
X114765702Y-74046444D01*
X114765701Y-74046443D01*
X114765701Y-74046439D01*
X114719926Y-73935928D01*
X114716668Y-73928062D01*
X114716661Y-73928049D01*
X114645476Y-73821514D01*
X114645473Y-73821510D01*
X114554872Y-73730909D01*
X114554868Y-73730906D01*
X114448333Y-73659721D01*
X114448324Y-73659716D01*
X114329944Y-73610682D01*
X114329938Y-73610680D01*
X114204271Y-73585683D01*
X114204269Y-73585683D01*
X114076131Y-73585683D01*
X114076129Y-73585683D01*
X113950461Y-73610680D01*
X113950455Y-73610682D01*
X113832075Y-73659716D01*
X113832066Y-73659721D01*
X113725531Y-73730906D01*
X113725527Y-73730909D01*
X113634926Y-73821510D01*
X113634923Y-73821514D01*
X113563738Y-73928049D01*
X113563733Y-73928058D01*
X113514699Y-74046438D01*
X113514697Y-74046444D01*
X113489700Y-74172111D01*
X113489700Y-74172114D01*
X113489700Y-74300252D01*
X113489700Y-74300254D01*
X113489699Y-74300254D01*
X102075726Y-74300254D01*
X102077168Y-72784271D01*
X121802899Y-72784271D01*
X121827897Y-72909938D01*
X121827899Y-72909944D01*
X121876933Y-73028324D01*
X121876938Y-73028333D01*
X121948123Y-73134868D01*
X121948126Y-73134872D01*
X122038727Y-73225473D01*
X122038731Y-73225476D01*
X122145266Y-73296661D01*
X122145272Y-73296664D01*
X122145273Y-73296665D01*
X122263656Y-73345701D01*
X122263660Y-73345701D01*
X122263661Y-73345702D01*
X122389328Y-73370700D01*
X122389331Y-73370700D01*
X122517471Y-73370700D01*
X122602015Y-73353882D01*
X122643144Y-73345701D01*
X122761527Y-73296665D01*
X122868069Y-73225476D01*
X122958676Y-73134869D01*
X123029865Y-73028327D01*
X123078901Y-72909944D01*
X123103900Y-72784269D01*
X123103900Y-72656131D01*
X123103900Y-72656128D01*
X123078902Y-72530461D01*
X123078901Y-72530460D01*
X123078901Y-72530456D01*
X123029865Y-72412073D01*
X123029864Y-72412072D01*
X123029861Y-72412066D01*
X122958676Y-72305531D01*
X122958673Y-72305527D01*
X122868072Y-72214926D01*
X122868068Y-72214923D01*
X122761533Y-72143738D01*
X122761524Y-72143733D01*
X122643144Y-72094699D01*
X122643138Y-72094697D01*
X122517471Y-72069700D01*
X122517469Y-72069700D01*
X122389331Y-72069700D01*
X122389329Y-72069700D01*
X122263661Y-72094697D01*
X122263655Y-72094699D01*
X122145275Y-72143733D01*
X122145266Y-72143738D01*
X122038731Y-72214923D01*
X122038727Y-72214926D01*
X121948126Y-72305527D01*
X121948123Y-72305531D01*
X121876938Y-72412066D01*
X121876933Y-72412075D01*
X121827899Y-72530455D01*
X121827897Y-72530461D01*
X121802900Y-72656128D01*
X121802900Y-72656131D01*
X121802900Y-72784269D01*
X121802900Y-72784271D01*
X121802899Y-72784271D01*
X102077168Y-72784271D01*
X102079164Y-70686762D01*
X113489699Y-70686762D01*
X113514697Y-70812429D01*
X113514699Y-70812435D01*
X113563733Y-70930815D01*
X113563738Y-70930824D01*
X113634923Y-71037359D01*
X113634926Y-71037363D01*
X113725527Y-71127964D01*
X113725531Y-71127967D01*
X113832066Y-71199152D01*
X113832072Y-71199155D01*
X113832073Y-71199156D01*
X113950456Y-71248192D01*
X113950460Y-71248192D01*
X113950461Y-71248193D01*
X114076128Y-71273191D01*
X114076131Y-71273191D01*
X114204271Y-71273191D01*
X114294346Y-71255273D01*
X114329944Y-71248192D01*
X114448327Y-71199156D01*
X114554869Y-71127967D01*
X114645476Y-71037360D01*
X114716665Y-70930818D01*
X114765701Y-70812435D01*
X114782721Y-70726871D01*
X117629899Y-70726871D01*
X117654897Y-70852538D01*
X117654899Y-70852544D01*
X117703933Y-70970924D01*
X117703938Y-70970933D01*
X117775123Y-71077468D01*
X117775126Y-71077472D01*
X117865727Y-71168073D01*
X117865731Y-71168076D01*
X117972266Y-71239261D01*
X117972272Y-71239264D01*
X117972273Y-71239265D01*
X118090656Y-71288301D01*
X118090660Y-71288301D01*
X118090661Y-71288302D01*
X118216328Y-71313300D01*
X118216331Y-71313300D01*
X118344471Y-71313300D01*
X118429015Y-71296482D01*
X118470144Y-71288301D01*
X118588527Y-71239265D01*
X118695069Y-71168076D01*
X118785676Y-71077469D01*
X118856865Y-70970927D01*
X118905901Y-70852544D01*
X118913554Y-70814071D01*
X121894499Y-70814071D01*
X121919497Y-70939738D01*
X121919499Y-70939744D01*
X121968533Y-71058124D01*
X121968538Y-71058133D01*
X122039723Y-71164668D01*
X122039726Y-71164672D01*
X122130327Y-71255273D01*
X122130331Y-71255276D01*
X122236866Y-71326461D01*
X122236872Y-71326464D01*
X122236873Y-71326465D01*
X122355256Y-71375501D01*
X122355260Y-71375501D01*
X122355261Y-71375502D01*
X122480928Y-71400500D01*
X122480931Y-71400500D01*
X122609071Y-71400500D01*
X122693615Y-71383682D01*
X122734744Y-71375501D01*
X122853127Y-71326465D01*
X122959669Y-71255276D01*
X123050276Y-71164669D01*
X123121465Y-71058127D01*
X123170501Y-70939744D01*
X123195500Y-70814069D01*
X123195500Y-70685931D01*
X123195500Y-70685928D01*
X123170502Y-70560261D01*
X123170501Y-70560260D01*
X123170501Y-70560256D01*
X123121465Y-70441873D01*
X123121464Y-70441872D01*
X123121461Y-70441866D01*
X123050276Y-70335331D01*
X123050273Y-70335327D01*
X122959672Y-70244726D01*
X122959668Y-70244723D01*
X122853133Y-70173538D01*
X122853124Y-70173533D01*
X122734744Y-70124499D01*
X122734738Y-70124497D01*
X122609071Y-70099500D01*
X122609069Y-70099500D01*
X122480931Y-70099500D01*
X122480929Y-70099500D01*
X122355261Y-70124497D01*
X122355255Y-70124499D01*
X122236875Y-70173533D01*
X122236866Y-70173538D01*
X122130331Y-70244723D01*
X122130327Y-70244726D01*
X122039726Y-70335327D01*
X122039723Y-70335331D01*
X121968538Y-70441866D01*
X121968533Y-70441875D01*
X121919499Y-70560255D01*
X121919497Y-70560261D01*
X121894500Y-70685928D01*
X121894500Y-70685931D01*
X121894500Y-70814069D01*
X121894500Y-70814071D01*
X121894499Y-70814071D01*
X118913554Y-70814071D01*
X118930900Y-70726869D01*
X118930900Y-70598731D01*
X118930900Y-70598728D01*
X118905902Y-70473061D01*
X118905901Y-70473060D01*
X118905901Y-70473056D01*
X118856865Y-70354673D01*
X118856864Y-70354672D01*
X118856861Y-70354666D01*
X118785676Y-70248131D01*
X118785673Y-70248127D01*
X118695072Y-70157526D01*
X118695068Y-70157523D01*
X118588533Y-70086338D01*
X118588524Y-70086333D01*
X118470144Y-70037299D01*
X118470138Y-70037297D01*
X118344471Y-70012300D01*
X118344469Y-70012300D01*
X118216331Y-70012300D01*
X118216329Y-70012300D01*
X118090661Y-70037297D01*
X118090655Y-70037299D01*
X117972275Y-70086333D01*
X117972266Y-70086338D01*
X117865731Y-70157523D01*
X117865727Y-70157526D01*
X117775126Y-70248127D01*
X117775123Y-70248131D01*
X117703938Y-70354666D01*
X117703933Y-70354675D01*
X117654899Y-70473055D01*
X117654897Y-70473061D01*
X117629900Y-70598728D01*
X117629900Y-70598731D01*
X117629900Y-70726869D01*
X117629900Y-70726871D01*
X117629899Y-70726871D01*
X114782721Y-70726871D01*
X114790700Y-70686760D01*
X114790700Y-70558622D01*
X114790700Y-70558619D01*
X114765702Y-70432952D01*
X114765701Y-70432951D01*
X114765701Y-70432947D01*
X114716665Y-70314564D01*
X114716664Y-70314563D01*
X114716661Y-70314557D01*
X114645476Y-70208022D01*
X114645473Y-70208018D01*
X114554872Y-70117417D01*
X114554868Y-70117414D01*
X114448333Y-70046229D01*
X114448324Y-70046224D01*
X114329944Y-69997190D01*
X114329938Y-69997188D01*
X114204271Y-69972191D01*
X114204269Y-69972191D01*
X114076131Y-69972191D01*
X114076129Y-69972191D01*
X113950461Y-69997188D01*
X113950455Y-69997190D01*
X113832075Y-70046224D01*
X113832066Y-70046229D01*
X113725531Y-70117414D01*
X113725527Y-70117417D01*
X113634926Y-70208018D01*
X113634923Y-70208022D01*
X113563738Y-70314557D01*
X113563733Y-70314566D01*
X113514699Y-70432946D01*
X113514697Y-70432952D01*
X113489700Y-70558619D01*
X113489700Y-70558622D01*
X113489700Y-70686760D01*
X113489700Y-70686762D01*
X113489699Y-70686762D01*
X102079164Y-70686762D01*
X102080883Y-68880016D01*
X113839699Y-68880016D01*
X113864697Y-69005683D01*
X113864699Y-69005689D01*
X113913733Y-69124069D01*
X113913738Y-69124078D01*
X113984923Y-69230613D01*
X113984926Y-69230617D01*
X114075527Y-69321218D01*
X114075531Y-69321221D01*
X114182066Y-69392406D01*
X114182072Y-69392409D01*
X114182073Y-69392410D01*
X114300456Y-69441446D01*
X114300460Y-69441446D01*
X114300461Y-69441447D01*
X114426128Y-69466445D01*
X114426131Y-69466445D01*
X114554271Y-69466445D01*
X114638815Y-69449627D01*
X114679944Y-69441446D01*
X114798327Y-69392410D01*
X114904869Y-69321221D01*
X114995476Y-69230614D01*
X115066665Y-69124072D01*
X115115701Y-69005689D01*
X115116898Y-68999671D01*
X118475499Y-68999671D01*
X118500497Y-69125338D01*
X118500499Y-69125344D01*
X118549533Y-69243724D01*
X118549538Y-69243733D01*
X118620723Y-69350268D01*
X118620726Y-69350272D01*
X118711327Y-69440873D01*
X118711331Y-69440876D01*
X118817866Y-69512061D01*
X118817872Y-69512064D01*
X118817873Y-69512065D01*
X118936256Y-69561101D01*
X118936260Y-69561101D01*
X118936261Y-69561102D01*
X119061928Y-69586100D01*
X119061931Y-69586100D01*
X119190071Y-69586100D01*
X119274615Y-69569282D01*
X119315744Y-69561101D01*
X119434127Y-69512065D01*
X119539009Y-69441985D01*
X119545171Y-69437868D01*
X119611848Y-69416990D01*
X119679229Y-69435474D01*
X119701743Y-69453289D01*
X119784527Y-69536073D01*
X119784531Y-69536076D01*
X119891066Y-69607261D01*
X119891072Y-69607264D01*
X119891073Y-69607265D01*
X120009456Y-69656301D01*
X120009460Y-69656301D01*
X120009461Y-69656302D01*
X120135128Y-69681300D01*
X120135131Y-69681300D01*
X120263271Y-69681300D01*
X120347815Y-69664482D01*
X120388944Y-69656301D01*
X120507327Y-69607265D01*
X120613869Y-69536076D01*
X120637884Y-69512061D01*
X120708784Y-69441162D01*
X120709607Y-69441985D01*
X120762191Y-69406159D01*
X120832035Y-69404279D01*
X120847766Y-69409592D01*
X120849871Y-69410464D01*
X120849873Y-69410465D01*
X120968256Y-69459501D01*
X120968260Y-69459501D01*
X120968261Y-69459502D01*
X121093928Y-69484500D01*
X121093931Y-69484500D01*
X121222071Y-69484500D01*
X121312835Y-69466445D01*
X121347744Y-69459501D01*
X121466127Y-69410465D01*
X121572669Y-69339276D01*
X121663276Y-69248669D01*
X121734465Y-69142127D01*
X121783501Y-69023744D01*
X121808500Y-68898069D01*
X121808500Y-68769931D01*
X121808500Y-68769928D01*
X121783502Y-68644261D01*
X121783501Y-68644260D01*
X121783501Y-68644256D01*
X121734465Y-68525873D01*
X121663276Y-68419331D01*
X121663273Y-68419327D01*
X121572672Y-68328726D01*
X121572668Y-68328723D01*
X121512319Y-68288399D01*
X121467514Y-68234787D01*
X121464912Y-68214071D01*
X121894499Y-68214071D01*
X121919497Y-68339738D01*
X121919500Y-68339748D01*
X121941070Y-68391824D01*
X121941079Y-68391844D01*
X121968535Y-68458127D01*
X121983281Y-68480196D01*
X121983282Y-68480198D01*
X122039723Y-68564668D01*
X122039726Y-68564672D01*
X122130327Y-68655273D01*
X122130331Y-68655276D01*
X122236866Y-68726461D01*
X122236872Y-68726464D01*
X122236873Y-68726465D01*
X122355256Y-68775501D01*
X122355260Y-68775501D01*
X122355261Y-68775502D01*
X122480928Y-68800500D01*
X122480931Y-68800500D01*
X122609071Y-68800500D01*
X122693615Y-68783682D01*
X122734744Y-68775501D01*
X122853127Y-68726465D01*
X122959669Y-68655276D01*
X123050276Y-68564669D01*
X123121465Y-68458127D01*
X123170501Y-68339744D01*
X123190445Y-68239483D01*
X123195500Y-68214071D01*
X123195500Y-68085928D01*
X123170502Y-67960261D01*
X123170501Y-67960260D01*
X123170501Y-67960256D01*
X123121465Y-67841873D01*
X123121464Y-67841872D01*
X123121461Y-67841866D01*
X123050276Y-67735331D01*
X123050273Y-67735327D01*
X122959672Y-67644726D01*
X122959668Y-67644723D01*
X122858720Y-67577271D01*
X127644899Y-67577271D01*
X127669897Y-67702938D01*
X127669900Y-67702948D01*
X127721122Y-67826609D01*
X127728591Y-67896078D01*
X127721122Y-67921514D01*
X127695299Y-67983855D01*
X127695297Y-67983861D01*
X127670300Y-68109528D01*
X127670300Y-68109531D01*
X127670300Y-68237669D01*
X127670300Y-68237671D01*
X127670299Y-68237671D01*
X127695297Y-68363338D01*
X127695300Y-68363348D01*
X127721122Y-68425688D01*
X127728591Y-68495157D01*
X127721122Y-68520593D01*
X127669899Y-68644255D01*
X127669897Y-68644261D01*
X127644900Y-68769928D01*
X127644900Y-68769931D01*
X127644900Y-68898069D01*
X127644900Y-68898071D01*
X127644899Y-68898071D01*
X127669897Y-69023738D01*
X127669899Y-69023744D01*
X127718933Y-69142124D01*
X127718938Y-69142133D01*
X127790123Y-69248668D01*
X127790126Y-69248672D01*
X127880727Y-69339273D01*
X127880731Y-69339276D01*
X127987266Y-69410461D01*
X127987272Y-69410464D01*
X127987273Y-69410465D01*
X128105656Y-69459501D01*
X128105660Y-69459501D01*
X128105661Y-69459502D01*
X128231328Y-69484500D01*
X128231331Y-69484500D01*
X128359471Y-69484500D01*
X128450235Y-69466445D01*
X128485144Y-69459501D01*
X128603527Y-69410465D01*
X128710069Y-69339276D01*
X128800676Y-69248669D01*
X128871865Y-69142127D01*
X128920901Y-69023744D01*
X128945900Y-68898069D01*
X128945900Y-68769931D01*
X128945900Y-68769928D01*
X128920902Y-68644261D01*
X128920901Y-68644260D01*
X128920901Y-68644256D01*
X128895076Y-68581911D01*
X128887608Y-68512444D01*
X128895077Y-68487007D01*
X128897262Y-68481730D01*
X128897265Y-68481727D01*
X128946301Y-68363344D01*
X128963533Y-68276716D01*
X128971300Y-68237671D01*
X128971300Y-68109528D01*
X128946302Y-67983861D01*
X128946301Y-67983860D01*
X128946301Y-67983856D01*
X128897265Y-67865473D01*
X128897263Y-67865470D01*
X128895077Y-67860192D01*
X128887608Y-67790723D01*
X128895073Y-67765296D01*
X128920901Y-67702944D01*
X128932482Y-67644723D01*
X128945900Y-67577271D01*
X128945900Y-67449128D01*
X128920902Y-67323461D01*
X128920901Y-67323460D01*
X128920901Y-67323456D01*
X128915100Y-67309453D01*
X128907632Y-67239984D01*
X128926561Y-67193109D01*
X128934286Y-67181548D01*
X128948065Y-67160927D01*
X128997101Y-67042544D01*
X129022100Y-66916869D01*
X129022100Y-66788731D01*
X129022100Y-66788728D01*
X128997102Y-66663061D01*
X128997101Y-66663060D01*
X128997101Y-66663056D01*
X128963837Y-66582752D01*
X128956369Y-66513284D01*
X128963838Y-66487847D01*
X128966269Y-66481978D01*
X128997101Y-66407544D01*
X129015176Y-66316677D01*
X129022100Y-66281871D01*
X129022100Y-66153728D01*
X128997102Y-66028061D01*
X128997101Y-66028060D01*
X128997101Y-66028056D01*
X128948065Y-65909673D01*
X128948064Y-65909672D01*
X128948061Y-65909666D01*
X128876876Y-65803131D01*
X128876873Y-65803127D01*
X128786272Y-65712526D01*
X128786268Y-65712523D01*
X128679733Y-65641338D01*
X128679724Y-65641333D01*
X128561344Y-65592299D01*
X128561338Y-65592297D01*
X128435671Y-65567300D01*
X128435669Y-65567300D01*
X128307531Y-65567300D01*
X128307529Y-65567300D01*
X128181861Y-65592297D01*
X128181855Y-65592299D01*
X128063475Y-65641333D01*
X128063466Y-65641338D01*
X127956931Y-65712523D01*
X127956927Y-65712526D01*
X127866326Y-65803127D01*
X127866323Y-65803131D01*
X127795138Y-65909666D01*
X127795133Y-65909675D01*
X127746099Y-66028055D01*
X127746097Y-66028061D01*
X127721100Y-66153728D01*
X127721100Y-66153731D01*
X127721100Y-66281869D01*
X127721100Y-66281871D01*
X127721099Y-66281871D01*
X127746097Y-66407538D01*
X127746100Y-66407548D01*
X127779361Y-66487848D01*
X127786830Y-66557318D01*
X127779361Y-66582752D01*
X127746100Y-66663051D01*
X127746097Y-66663061D01*
X127721100Y-66788728D01*
X127721100Y-66788731D01*
X127721100Y-66916869D01*
X127721100Y-66916871D01*
X127721099Y-66916871D01*
X127746097Y-67042538D01*
X127746100Y-67042548D01*
X127751898Y-67056545D01*
X127759367Y-67126015D01*
X127740441Y-67172885D01*
X127718934Y-67205072D01*
X127669899Y-67323455D01*
X127669897Y-67323461D01*
X127644900Y-67449128D01*
X127644900Y-67449131D01*
X127644900Y-67577269D01*
X127644900Y-67577271D01*
X127644899Y-67577271D01*
X122858720Y-67577271D01*
X122853133Y-67573538D01*
X122853124Y-67573533D01*
X122814657Y-67557600D01*
X122814655Y-67557599D01*
X122734748Y-67524500D01*
X122734738Y-67524497D01*
X122609071Y-67499500D01*
X122609069Y-67499500D01*
X122480931Y-67499500D01*
X122480929Y-67499500D01*
X122355261Y-67524497D01*
X122355255Y-67524499D01*
X122236875Y-67573533D01*
X122236866Y-67573538D01*
X122130331Y-67644723D01*
X122130327Y-67644726D01*
X122039726Y-67735327D01*
X122039723Y-67735331D01*
X121968538Y-67841866D01*
X121968533Y-67841875D01*
X121919499Y-67960255D01*
X121919497Y-67960261D01*
X121894500Y-68085928D01*
X121894500Y-68085931D01*
X121894500Y-68214069D01*
X121894500Y-68214071D01*
X121894499Y-68214071D01*
X121464912Y-68214071D01*
X121458807Y-68165462D01*
X121488961Y-68102434D01*
X121493529Y-68097615D01*
X121496465Y-68094678D01*
X121496469Y-68094676D01*
X121587076Y-68004069D01*
X121658265Y-67897527D01*
X121707301Y-67779144D01*
X121722459Y-67702944D01*
X121732300Y-67653471D01*
X121732300Y-67525328D01*
X121707302Y-67399661D01*
X121707301Y-67399660D01*
X121707301Y-67399656D01*
X121658265Y-67281273D01*
X121658264Y-67281272D01*
X121658261Y-67281266D01*
X121599043Y-67192641D01*
X121578165Y-67125964D01*
X121580528Y-67099560D01*
X121584631Y-67078936D01*
X121584631Y-66950798D01*
X121584631Y-66950795D01*
X121559633Y-66825128D01*
X121559632Y-66825127D01*
X121559632Y-66825123D01*
X121521705Y-66733559D01*
X121510597Y-66706742D01*
X121510592Y-66706733D01*
X121439407Y-66600198D01*
X121439404Y-66600194D01*
X121358529Y-66519319D01*
X121325044Y-66457996D01*
X121330028Y-66388304D01*
X121371900Y-66332371D01*
X121377321Y-66328535D01*
X121383513Y-66324397D01*
X121395069Y-66316676D01*
X121485676Y-66226069D01*
X121556865Y-66119527D01*
X121605901Y-66001144D01*
X121624098Y-65909666D01*
X121630900Y-65875471D01*
X121630900Y-65747328D01*
X121605902Y-65621661D01*
X121605901Y-65621660D01*
X121605901Y-65621656D01*
X121602759Y-65614071D01*
X121894499Y-65614071D01*
X121919497Y-65739738D01*
X121919499Y-65739744D01*
X121968533Y-65858124D01*
X121968538Y-65858133D01*
X122039723Y-65964668D01*
X122039726Y-65964672D01*
X122130327Y-66055273D01*
X122130331Y-66055276D01*
X122236866Y-66126461D01*
X122236872Y-66126464D01*
X122236873Y-66126465D01*
X122355256Y-66175501D01*
X122355260Y-66175501D01*
X122355261Y-66175502D01*
X122480928Y-66200500D01*
X122480931Y-66200500D01*
X122609071Y-66200500D01*
X122693615Y-66183682D01*
X122734744Y-66175501D01*
X122853127Y-66126465D01*
X122959669Y-66055276D01*
X123050276Y-65964669D01*
X123121465Y-65858127D01*
X123170501Y-65739744D01*
X123190076Y-65641338D01*
X123195500Y-65614071D01*
X123195500Y-65485928D01*
X123170502Y-65360261D01*
X123170501Y-65360260D01*
X123170501Y-65360256D01*
X123121465Y-65241873D01*
X123121464Y-65241872D01*
X123121461Y-65241866D01*
X123050276Y-65135331D01*
X123050273Y-65135327D01*
X122959672Y-65044726D01*
X122959668Y-65044723D01*
X122853133Y-64973538D01*
X122853124Y-64973533D01*
X122734744Y-64924499D01*
X122734738Y-64924497D01*
X122609071Y-64899500D01*
X122609069Y-64899500D01*
X122480931Y-64899500D01*
X122480929Y-64899500D01*
X122355261Y-64924497D01*
X122355255Y-64924499D01*
X122236875Y-64973533D01*
X122236866Y-64973538D01*
X122130331Y-65044723D01*
X122130327Y-65044726D01*
X122039726Y-65135327D01*
X122039723Y-65135331D01*
X121968538Y-65241866D01*
X121968533Y-65241875D01*
X121919499Y-65360255D01*
X121919497Y-65360261D01*
X121894500Y-65485928D01*
X121894500Y-65485931D01*
X121894500Y-65614069D01*
X121894500Y-65614071D01*
X121894499Y-65614071D01*
X121602759Y-65614071D01*
X121564042Y-65520601D01*
X121556868Y-65503279D01*
X121556861Y-65503266D01*
X121485676Y-65396731D01*
X121485673Y-65396727D01*
X121395072Y-65306126D01*
X121395068Y-65306123D01*
X121288533Y-65234938D01*
X121288524Y-65234933D01*
X121170144Y-65185899D01*
X121170138Y-65185897D01*
X121044471Y-65160900D01*
X121044469Y-65160900D01*
X120916331Y-65160900D01*
X120916329Y-65160900D01*
X120790661Y-65185897D01*
X120784829Y-65187667D01*
X120784200Y-65185594D01*
X120724433Y-65192006D01*
X120661961Y-65160716D01*
X120658795Y-65157660D01*
X120642451Y-65141315D01*
X120642448Y-65141313D01*
X120535913Y-65070128D01*
X120535904Y-65070123D01*
X120417524Y-65021089D01*
X120417518Y-65021087D01*
X120291851Y-64996090D01*
X120291849Y-64996090D01*
X120163711Y-64996090D01*
X120163709Y-64996090D01*
X120038041Y-65021087D01*
X120038032Y-65021090D01*
X120028590Y-65025001D01*
X119959120Y-65032467D01*
X119896642Y-65001189D01*
X119878040Y-64979328D01*
X119834479Y-64914135D01*
X119834473Y-64914127D01*
X119743872Y-64823526D01*
X119743868Y-64823523D01*
X119637333Y-64752338D01*
X119637324Y-64752333D01*
X119518944Y-64703299D01*
X119518938Y-64703297D01*
X119393271Y-64678300D01*
X119393269Y-64678300D01*
X119265131Y-64678300D01*
X119265129Y-64678300D01*
X119139461Y-64703297D01*
X119139455Y-64703299D01*
X119021075Y-64752333D01*
X119021066Y-64752338D01*
X118914531Y-64823523D01*
X118914527Y-64823526D01*
X118823926Y-64914127D01*
X118823923Y-64914131D01*
X118752738Y-65020666D01*
X118752733Y-65020675D01*
X118703699Y-65139055D01*
X118703697Y-65139061D01*
X118678700Y-65264728D01*
X118678700Y-65264731D01*
X118678700Y-65392869D01*
X118678700Y-65392871D01*
X118678699Y-65392871D01*
X118703697Y-65518538D01*
X118703699Y-65518544D01*
X118752733Y-65636924D01*
X118752738Y-65636933D01*
X118823923Y-65743468D01*
X118823926Y-65743472D01*
X118914527Y-65834073D01*
X118914531Y-65834076D01*
X119021066Y-65905261D01*
X119021075Y-65905266D01*
X119047892Y-65916374D01*
X119139456Y-65954301D01*
X119139460Y-65954301D01*
X119139461Y-65954302D01*
X119265128Y-65979300D01*
X119265131Y-65979300D01*
X119393271Y-65979300D01*
X119518939Y-65954302D01*
X119518939Y-65954301D01*
X119518944Y-65954301D01*
X119528379Y-65950392D01*
X119555408Y-65947485D01*
X119581839Y-65941096D01*
X119589638Y-65943802D01*
X119597846Y-65942920D01*
X119622159Y-65955088D01*
X119647847Y-65964003D01*
X119655276Y-65971663D01*
X119660327Y-65974191D01*
X119673371Y-65988379D01*
X119676300Y-65992110D01*
X119722504Y-66061259D01*
X119760116Y-66098871D01*
X119764708Y-66104720D01*
X119775020Y-66130540D01*
X119788340Y-66154934D01*
X119787796Y-66162531D01*
X119790622Y-66169606D01*
X119785339Y-66196896D01*
X119783356Y-66224626D01*
X119778790Y-66230724D01*
X119777343Y-66238203D01*
X119758141Y-66258307D01*
X119741484Y-66280559D01*
X119734347Y-66283220D01*
X119729086Y-66288730D01*
X119702063Y-66295262D01*
X119676020Y-66304976D01*
X119664786Y-66304273D01*
X119661172Y-66305147D01*
X119657305Y-66303805D01*
X119642982Y-66302909D01*
X119520271Y-66278500D01*
X119520269Y-66278500D01*
X119392131Y-66278500D01*
X119392129Y-66278500D01*
X119266461Y-66303497D01*
X119266455Y-66303499D01*
X119148075Y-66352533D01*
X119148066Y-66352538D01*
X119041531Y-66423723D01*
X119041527Y-66423726D01*
X118950926Y-66514327D01*
X118950923Y-66514331D01*
X118879738Y-66620866D01*
X118879733Y-66620875D01*
X118830699Y-66739255D01*
X118830697Y-66739261D01*
X118805700Y-66864928D01*
X118805700Y-66864931D01*
X118805700Y-66993069D01*
X118805700Y-66993071D01*
X118805699Y-66993071D01*
X118830697Y-67118738D01*
X118830699Y-67118744D01*
X118879733Y-67237124D01*
X118879738Y-67237133D01*
X118950923Y-67343668D01*
X118950926Y-67343672D01*
X119041527Y-67434273D01*
X119041531Y-67434276D01*
X119148066Y-67505461D01*
X119148072Y-67505464D01*
X119148073Y-67505465D01*
X119266456Y-67554501D01*
X119266460Y-67554501D01*
X119266461Y-67554502D01*
X119392128Y-67579500D01*
X119392131Y-67579500D01*
X119520271Y-67579500D01*
X119613116Y-67561031D01*
X119645944Y-67554501D01*
X119764327Y-67505465D01*
X119870869Y-67434276D01*
X119961476Y-67343669D01*
X120032665Y-67237127D01*
X120067039Y-67154140D01*
X120110879Y-67099737D01*
X120177174Y-67077672D01*
X120244873Y-67094951D01*
X120292484Y-67146088D01*
X120303217Y-67177401D01*
X120308628Y-67204605D01*
X120308630Y-67204611D01*
X120357664Y-67322991D01*
X120357668Y-67322998D01*
X120416887Y-67411626D01*
X120437764Y-67478303D01*
X120435402Y-67504704D01*
X120431300Y-67525328D01*
X120431300Y-67525331D01*
X120431300Y-67653469D01*
X120431300Y-67653471D01*
X120431299Y-67653471D01*
X120456297Y-67779138D01*
X120456299Y-67779144D01*
X120505333Y-67897524D01*
X120505338Y-67897533D01*
X120576523Y-68004068D01*
X120576526Y-68004072D01*
X120667127Y-68094673D01*
X120667135Y-68094679D01*
X120727479Y-68135000D01*
X120740828Y-68150973D01*
X120757549Y-68163383D01*
X120762783Y-68177243D01*
X120772285Y-68188612D01*
X120774879Y-68209269D01*
X120782236Y-68228747D01*
X120779145Y-68243238D01*
X120780992Y-68257937D01*
X120772007Y-68276716D01*
X120767665Y-68297080D01*
X120752585Y-68317310D01*
X120750838Y-68320964D01*
X120746631Y-68325421D01*
X120743402Y-68328676D01*
X120743331Y-68328724D01*
X120652724Y-68419331D01*
X120651139Y-68421701D01*
X120644928Y-68427965D01*
X120619231Y-68442134D01*
X120594981Y-68458649D01*
X120588991Y-68458808D01*
X120583743Y-68461703D01*
X120554462Y-68459729D01*
X120525136Y-68460512D01*
X120514936Y-68457066D01*
X120514031Y-68457005D01*
X120513425Y-68456555D01*
X120509434Y-68455207D01*
X120388948Y-68405300D01*
X120388938Y-68405297D01*
X120263271Y-68380300D01*
X120263269Y-68380300D01*
X120135131Y-68380300D01*
X120135129Y-68380300D01*
X120009461Y-68405297D01*
X120009455Y-68405299D01*
X119891075Y-68454333D01*
X119891068Y-68454337D01*
X119780027Y-68528532D01*
X119713349Y-68549409D01*
X119645969Y-68530924D01*
X119623456Y-68513110D01*
X119540672Y-68430326D01*
X119540668Y-68430323D01*
X119434133Y-68359138D01*
X119434124Y-68359133D01*
X119315744Y-68310099D01*
X119315738Y-68310097D01*
X119190071Y-68285100D01*
X119190069Y-68285100D01*
X119061931Y-68285100D01*
X119061929Y-68285100D01*
X118936261Y-68310097D01*
X118936255Y-68310099D01*
X118817875Y-68359133D01*
X118817866Y-68359138D01*
X118711331Y-68430323D01*
X118711327Y-68430326D01*
X118620726Y-68520927D01*
X118620723Y-68520931D01*
X118549538Y-68627466D01*
X118549533Y-68627475D01*
X118500499Y-68745855D01*
X118500497Y-68745861D01*
X118475500Y-68871528D01*
X118475500Y-68871531D01*
X118475500Y-68999669D01*
X118475500Y-68999671D01*
X118475499Y-68999671D01*
X115116898Y-68999671D01*
X115140700Y-68880014D01*
X115140700Y-68751876D01*
X115140700Y-68751873D01*
X115115702Y-68626206D01*
X115115701Y-68626205D01*
X115115701Y-68626201D01*
X115066665Y-68507818D01*
X115066664Y-68507817D01*
X115066661Y-68507811D01*
X114995476Y-68401276D01*
X114995473Y-68401272D01*
X114904872Y-68310671D01*
X114904868Y-68310668D01*
X114798333Y-68239483D01*
X114798324Y-68239478D01*
X114679944Y-68190444D01*
X114679938Y-68190442D01*
X114554271Y-68165445D01*
X114554269Y-68165445D01*
X114426131Y-68165445D01*
X114426129Y-68165445D01*
X114300461Y-68190442D01*
X114300455Y-68190444D01*
X114182075Y-68239478D01*
X114182066Y-68239483D01*
X114075531Y-68310668D01*
X114075527Y-68310671D01*
X113984926Y-68401272D01*
X113984923Y-68401276D01*
X113913738Y-68507811D01*
X113913733Y-68507820D01*
X113864699Y-68626200D01*
X113864697Y-68626206D01*
X113839700Y-68751873D01*
X113839700Y-68751876D01*
X113839700Y-68880014D01*
X113839700Y-68880016D01*
X113839699Y-68880016D01*
X102080883Y-68880016D01*
X102082257Y-67435358D01*
X117179899Y-67435358D01*
X117204897Y-67561025D01*
X117204899Y-67561031D01*
X117253933Y-67679411D01*
X117253938Y-67679420D01*
X117325123Y-67785955D01*
X117325126Y-67785959D01*
X117415727Y-67876560D01*
X117415731Y-67876563D01*
X117522266Y-67947748D01*
X117522272Y-67947751D01*
X117522273Y-67947752D01*
X117640656Y-67996788D01*
X117640660Y-67996788D01*
X117640661Y-67996789D01*
X117766328Y-68021787D01*
X117766331Y-68021787D01*
X117894471Y-68021787D01*
X117983551Y-68004067D01*
X118020144Y-67996788D01*
X118138527Y-67947752D01*
X118245069Y-67876563D01*
X118335676Y-67785956D01*
X118406865Y-67679414D01*
X118455901Y-67561031D01*
X118466955Y-67505461D01*
X118480900Y-67435358D01*
X118480900Y-67307215D01*
X118455902Y-67181548D01*
X118455901Y-67181547D01*
X118455901Y-67181543D01*
X118406865Y-67063160D01*
X118406864Y-67063159D01*
X118406861Y-67063153D01*
X118335676Y-66956618D01*
X118335673Y-66956614D01*
X118245072Y-66866013D01*
X118245068Y-66866010D01*
X118138533Y-66794825D01*
X118138524Y-66794820D01*
X118020144Y-66745786D01*
X118020138Y-66745784D01*
X117894471Y-66720787D01*
X117894469Y-66720787D01*
X117766331Y-66720787D01*
X117766329Y-66720787D01*
X117640661Y-66745784D01*
X117640655Y-66745786D01*
X117522275Y-66794820D01*
X117522266Y-66794825D01*
X117415731Y-66866010D01*
X117415727Y-66866013D01*
X117325126Y-66956614D01*
X117325123Y-66956618D01*
X117253938Y-67063153D01*
X117253933Y-67063162D01*
X117204899Y-67181542D01*
X117204897Y-67181548D01*
X117179900Y-67307215D01*
X117179900Y-67307218D01*
X117179900Y-67435356D01*
X117179900Y-67435358D01*
X117179899Y-67435358D01*
X102082257Y-67435358D01*
X102084256Y-65333864D01*
X110401499Y-65333864D01*
X110426497Y-65459531D01*
X110426499Y-65459537D01*
X110475533Y-65577917D01*
X110475538Y-65577926D01*
X110546723Y-65684461D01*
X110546726Y-65684465D01*
X110637327Y-65775066D01*
X110637331Y-65775069D01*
X110743866Y-65846254D01*
X110743872Y-65846257D01*
X110743873Y-65846258D01*
X110862256Y-65895294D01*
X110862260Y-65895294D01*
X110862261Y-65895295D01*
X110987928Y-65920293D01*
X110987931Y-65920293D01*
X111116071Y-65920293D01*
X111200615Y-65903475D01*
X111241744Y-65895294D01*
X111360127Y-65846258D01*
X111466669Y-65775069D01*
X111557276Y-65684462D01*
X111612856Y-65601280D01*
X111666466Y-65556477D01*
X111691765Y-65548555D01*
X111697069Y-65547500D01*
X111822744Y-65522501D01*
X111941127Y-65473465D01*
X112047669Y-65402276D01*
X112133263Y-65316681D01*
X112194584Y-65283198D01*
X112245137Y-65282748D01*
X112257931Y-65285293D01*
X112257932Y-65285293D01*
X112386071Y-65285293D01*
X112489453Y-65264728D01*
X112511744Y-65260294D01*
X112630127Y-65211258D01*
X112736669Y-65140069D01*
X112827276Y-65049462D01*
X112898465Y-64942920D01*
X112947501Y-64824537D01*
X112961864Y-64752333D01*
X112972500Y-64698864D01*
X112972500Y-64570721D01*
X112947502Y-64445054D01*
X112947501Y-64445053D01*
X112947501Y-64445049D01*
X112898465Y-64326666D01*
X112898464Y-64326665D01*
X112898461Y-64326659D01*
X112827276Y-64220124D01*
X112827273Y-64220120D01*
X112736672Y-64129519D01*
X112736668Y-64129516D01*
X112630133Y-64058331D01*
X112630123Y-64058326D01*
X112519845Y-64012647D01*
X112465442Y-63968806D01*
X112443377Y-63902511D01*
X112460656Y-63834812D01*
X112498407Y-63794984D01*
X112547669Y-63762069D01*
X112638276Y-63671462D01*
X112709465Y-63564920D01*
X112758501Y-63446537D01*
X112783500Y-63320862D01*
X112783500Y-63192724D01*
X112783500Y-63192721D01*
X112758502Y-63067054D01*
X112758501Y-63067053D01*
X112758501Y-63067049D01*
X112709465Y-62948666D01*
X112709464Y-62948665D01*
X112709461Y-62948659D01*
X112696373Y-62929071D01*
X117967499Y-62929071D01*
X117992497Y-63054738D01*
X117992499Y-63054744D01*
X118041533Y-63173124D01*
X118041538Y-63173133D01*
X118112723Y-63279668D01*
X118112726Y-63279672D01*
X118203327Y-63370273D01*
X118203331Y-63370276D01*
X118309866Y-63441461D01*
X118309872Y-63441464D01*
X118309873Y-63441465D01*
X118428256Y-63490501D01*
X118428260Y-63490501D01*
X118428261Y-63490502D01*
X118553928Y-63515500D01*
X118553931Y-63515500D01*
X118682071Y-63515500D01*
X118784308Y-63495163D01*
X118832692Y-63495163D01*
X118934928Y-63515500D01*
X118934931Y-63515500D01*
X119063071Y-63515500D01*
X119165307Y-63495163D01*
X119188744Y-63490501D01*
X119307127Y-63441465D01*
X119311109Y-63438803D01*
X119377787Y-63417926D01*
X119445167Y-63436411D01*
X119448891Y-63438804D01*
X119452874Y-63441466D01*
X119512064Y-63465983D01*
X119571256Y-63490501D01*
X119571260Y-63490501D01*
X119571261Y-63490502D01*
X119696928Y-63515500D01*
X119696931Y-63515500D01*
X119825071Y-63515500D01*
X119927308Y-63495163D01*
X119975692Y-63495163D01*
X120077928Y-63515500D01*
X120077931Y-63515500D01*
X120206071Y-63515500D01*
X120308308Y-63495163D01*
X120356692Y-63495163D01*
X120458928Y-63515500D01*
X120458931Y-63515500D01*
X120587071Y-63515500D01*
X120689307Y-63495163D01*
X120712744Y-63490501D01*
X120831127Y-63441465D01*
X120913731Y-63386271D01*
X123314499Y-63386271D01*
X123339497Y-63511938D01*
X123339499Y-63511944D01*
X123388533Y-63630324D01*
X123388538Y-63630333D01*
X123459723Y-63736868D01*
X123459726Y-63736872D01*
X123550327Y-63827473D01*
X123550331Y-63827476D01*
X123656866Y-63898661D01*
X123656875Y-63898666D01*
X123666158Y-63902511D01*
X123775256Y-63947701D01*
X123775260Y-63947701D01*
X123775261Y-63947702D01*
X123900928Y-63972700D01*
X123900931Y-63972700D01*
X124029071Y-63972700D01*
X124113615Y-63955882D01*
X124154744Y-63947701D01*
X124273127Y-63898665D01*
X124379669Y-63827476D01*
X124470276Y-63736869D01*
X124541465Y-63630327D01*
X124568909Y-63564071D01*
X130680499Y-63564071D01*
X130705497Y-63689738D01*
X130705499Y-63689744D01*
X130754533Y-63808124D01*
X130754538Y-63808133D01*
X130825723Y-63914668D01*
X130825726Y-63914672D01*
X130916327Y-64005273D01*
X130916331Y-64005276D01*
X131022866Y-64076461D01*
X131022872Y-64076464D01*
X131022873Y-64076465D01*
X131141256Y-64125501D01*
X131141260Y-64125501D01*
X131141261Y-64125502D01*
X131266928Y-64150500D01*
X131266931Y-64150500D01*
X131395071Y-64150500D01*
X131479615Y-64133682D01*
X131520744Y-64125501D01*
X131639127Y-64076465D01*
X131745669Y-64005276D01*
X131836276Y-63914669D01*
X131907465Y-63808127D01*
X131956501Y-63689744D01*
X131981331Y-63564920D01*
X131981500Y-63564071D01*
X131981500Y-63435928D01*
X131956502Y-63310261D01*
X131956501Y-63310260D01*
X131956501Y-63310256D01*
X131918574Y-63218692D01*
X131907466Y-63191875D01*
X131907461Y-63191866D01*
X131836276Y-63085331D01*
X131836273Y-63085327D01*
X131745672Y-62994726D01*
X131745668Y-62994723D01*
X131639133Y-62923538D01*
X131639124Y-62923533D01*
X131520744Y-62874499D01*
X131520738Y-62874497D01*
X131395071Y-62849500D01*
X131395069Y-62849500D01*
X131266931Y-62849500D01*
X131266929Y-62849500D01*
X131141261Y-62874497D01*
X131141255Y-62874499D01*
X131022875Y-62923533D01*
X131022866Y-62923538D01*
X130916331Y-62994723D01*
X130916327Y-62994726D01*
X130825726Y-63085327D01*
X130825723Y-63085331D01*
X130754538Y-63191866D01*
X130754533Y-63191875D01*
X130705499Y-63310255D01*
X130705497Y-63310261D01*
X130680500Y-63435928D01*
X130680500Y-63435931D01*
X130680500Y-63564069D01*
X130680500Y-63564071D01*
X130680499Y-63564071D01*
X124568909Y-63564071D01*
X124590501Y-63511944D01*
X124603513Y-63446531D01*
X124611646Y-63405647D01*
X124611646Y-63405646D01*
X124615499Y-63386273D01*
X124615500Y-63386271D01*
X124615500Y-63258128D01*
X124590502Y-63132461D01*
X124590501Y-63132460D01*
X124590501Y-63132456D01*
X124541465Y-63014073D01*
X124541464Y-63014072D01*
X124541461Y-63014066D01*
X124470276Y-62907531D01*
X124470273Y-62907527D01*
X124379672Y-62816926D01*
X124379668Y-62816923D01*
X124273133Y-62745738D01*
X124273124Y-62745733D01*
X124154744Y-62696699D01*
X124154738Y-62696697D01*
X124029071Y-62671700D01*
X124029069Y-62671700D01*
X123900931Y-62671700D01*
X123900929Y-62671700D01*
X123775261Y-62696697D01*
X123775255Y-62696699D01*
X123656875Y-62745733D01*
X123656866Y-62745738D01*
X123550331Y-62816923D01*
X123550327Y-62816926D01*
X123459726Y-62907527D01*
X123459723Y-62907531D01*
X123388538Y-63014066D01*
X123388533Y-63014075D01*
X123339499Y-63132455D01*
X123339497Y-63132461D01*
X123314500Y-63258128D01*
X123314500Y-63258131D01*
X123314500Y-63386269D01*
X123314500Y-63386271D01*
X123314499Y-63386271D01*
X120913731Y-63386271D01*
X120937669Y-63370276D01*
X121028276Y-63279669D01*
X121086373Y-63192721D01*
X121092770Y-63183148D01*
X121099462Y-63173131D01*
X121099465Y-63173127D01*
X121148501Y-63054744D01*
X121160440Y-62994723D01*
X121173500Y-62929071D01*
X121173500Y-62800928D01*
X121148502Y-62675261D01*
X121148501Y-62675260D01*
X121148501Y-62675256D01*
X121099465Y-62556873D01*
X121099464Y-62556872D01*
X121099461Y-62556866D01*
X121028276Y-62450331D01*
X121028273Y-62450327D01*
X120937672Y-62359726D01*
X120937668Y-62359723D01*
X120831133Y-62288538D01*
X120831124Y-62288533D01*
X120712744Y-62239499D01*
X120712738Y-62239497D01*
X120587071Y-62214500D01*
X120587069Y-62214500D01*
X120458931Y-62214500D01*
X120458926Y-62214500D01*
X120356691Y-62234836D01*
X120308309Y-62234836D01*
X120206073Y-62214500D01*
X120206069Y-62214500D01*
X120077931Y-62214500D01*
X120077926Y-62214500D01*
X119975691Y-62234836D01*
X119927309Y-62234836D01*
X119825073Y-62214500D01*
X119825069Y-62214500D01*
X119696931Y-62214500D01*
X119696929Y-62214500D01*
X119571261Y-62239497D01*
X119571255Y-62239499D01*
X119452875Y-62288533D01*
X119452866Y-62288538D01*
X119448891Y-62291195D01*
X119382213Y-62312073D01*
X119314833Y-62293588D01*
X119311109Y-62291195D01*
X119307133Y-62288538D01*
X119307124Y-62288533D01*
X119188744Y-62239499D01*
X119188738Y-62239497D01*
X119063071Y-62214500D01*
X119063069Y-62214500D01*
X118934931Y-62214500D01*
X118934926Y-62214500D01*
X118832691Y-62234836D01*
X118784309Y-62234836D01*
X118682073Y-62214500D01*
X118682069Y-62214500D01*
X118553931Y-62214500D01*
X118553929Y-62214500D01*
X118428261Y-62239497D01*
X118428255Y-62239499D01*
X118309875Y-62288533D01*
X118309866Y-62288538D01*
X118203331Y-62359723D01*
X118203327Y-62359726D01*
X118112726Y-62450327D01*
X118112723Y-62450331D01*
X118041538Y-62556866D01*
X118041533Y-62556875D01*
X117992499Y-62675255D01*
X117992497Y-62675261D01*
X117967500Y-62800928D01*
X117967500Y-62800931D01*
X117967500Y-62929069D01*
X117967500Y-62929071D01*
X117967499Y-62929071D01*
X112696373Y-62929071D01*
X112652713Y-62863730D01*
X112638276Y-62842124D01*
X112638273Y-62842120D01*
X112547672Y-62751519D01*
X112547668Y-62751516D01*
X112441133Y-62680331D01*
X112441124Y-62680326D01*
X112322744Y-62631292D01*
X112322738Y-62631290D01*
X112197071Y-62606293D01*
X112197069Y-62606293D01*
X112068931Y-62606293D01*
X112068929Y-62606293D01*
X111943261Y-62631290D01*
X111943255Y-62631292D01*
X111824875Y-62680326D01*
X111824866Y-62680331D01*
X111718331Y-62751516D01*
X111718327Y-62751519D01*
X111627726Y-62842120D01*
X111627723Y-62842124D01*
X111556538Y-62948659D01*
X111556533Y-62948668D01*
X111507499Y-63067048D01*
X111507497Y-63067054D01*
X111482500Y-63192721D01*
X111482500Y-63192724D01*
X111482500Y-63320862D01*
X111482500Y-63320864D01*
X111482499Y-63320864D01*
X111507497Y-63446531D01*
X111507499Y-63446537D01*
X111556533Y-63564917D01*
X111556538Y-63564926D01*
X111627723Y-63671461D01*
X111627726Y-63671465D01*
X111718327Y-63762066D01*
X111718331Y-63762069D01*
X111824866Y-63833254D01*
X111824875Y-63833259D01*
X111935154Y-63878938D01*
X111936793Y-63880259D01*
X111938879Y-63880553D01*
X111963869Y-63902078D01*
X111989557Y-63922779D01*
X111990222Y-63924777D01*
X111991818Y-63926152D01*
X112001202Y-63957768D01*
X112011622Y-63989073D01*
X112011100Y-63991114D01*
X112011700Y-63993133D01*
X112002502Y-64024803D01*
X111994343Y-64056772D01*
X111992616Y-64058844D01*
X111992214Y-64060230D01*
X111987174Y-64065375D01*
X111969180Y-64086972D01*
X111963190Y-64092192D01*
X111907331Y-64129517D01*
X111818739Y-64218108D01*
X111815536Y-64220901D01*
X111787498Y-64233805D01*
X111760415Y-64248594D01*
X111755266Y-64248639D01*
X111752066Y-64250113D01*
X111742415Y-64248754D01*
X111709866Y-64249045D01*
X111697072Y-64246500D01*
X111697069Y-64246500D01*
X111568931Y-64246500D01*
X111568929Y-64246500D01*
X111443261Y-64271497D01*
X111443255Y-64271499D01*
X111324875Y-64320533D01*
X111324866Y-64320538D01*
X111218331Y-64391723D01*
X111218327Y-64391726D01*
X111127726Y-64482327D01*
X111127723Y-64482331D01*
X111072144Y-64565511D01*
X111018531Y-64610316D01*
X110993235Y-64618237D01*
X110862260Y-64644291D01*
X110862255Y-64644292D01*
X110743875Y-64693326D01*
X110743866Y-64693331D01*
X110637331Y-64764516D01*
X110637327Y-64764519D01*
X110546726Y-64855120D01*
X110546723Y-64855124D01*
X110475538Y-64961659D01*
X110475533Y-64961668D01*
X110426499Y-65080048D01*
X110426497Y-65080054D01*
X110401500Y-65205721D01*
X110401500Y-65205724D01*
X110401500Y-65333862D01*
X110401500Y-65333864D01*
X110401499Y-65333864D01*
X102084256Y-65333864D01*
X102087921Y-61481271D01*
X123314499Y-61481271D01*
X123339497Y-61606938D01*
X123339499Y-61606944D01*
X123388533Y-61725324D01*
X123388538Y-61725333D01*
X123459723Y-61831868D01*
X123459726Y-61831872D01*
X123550327Y-61922473D01*
X123550331Y-61922476D01*
X123656866Y-61993661D01*
X123656872Y-61993664D01*
X123656873Y-61993665D01*
X123775256Y-62042701D01*
X123775260Y-62042701D01*
X123775261Y-62042702D01*
X123900928Y-62067700D01*
X123900931Y-62067700D01*
X124029071Y-62067700D01*
X124113615Y-62050882D01*
X124154744Y-62042701D01*
X124273127Y-61993665D01*
X124379669Y-61922476D01*
X124470276Y-61831869D01*
X124541465Y-61725327D01*
X124590501Y-61606944D01*
X124615500Y-61481269D01*
X124615500Y-61353131D01*
X124615500Y-61353128D01*
X124590502Y-61227461D01*
X124590501Y-61227460D01*
X124590501Y-61227456D01*
X124541465Y-61109073D01*
X124541464Y-61109072D01*
X124541461Y-61109066D01*
X124470276Y-61002531D01*
X124470273Y-61002527D01*
X124379672Y-60911926D01*
X124379668Y-60911923D01*
X124273133Y-60840738D01*
X124273124Y-60840733D01*
X124154744Y-60791699D01*
X124154738Y-60791697D01*
X124029071Y-60766700D01*
X124029069Y-60766700D01*
X123900931Y-60766700D01*
X123900929Y-60766700D01*
X123775261Y-60791697D01*
X123775255Y-60791699D01*
X123656875Y-60840733D01*
X123656866Y-60840738D01*
X123550331Y-60911923D01*
X123550327Y-60911926D01*
X123459726Y-61002527D01*
X123459723Y-61002531D01*
X123388538Y-61109066D01*
X123388533Y-61109075D01*
X123339499Y-61227455D01*
X123339497Y-61227461D01*
X123314500Y-61353128D01*
X123314500Y-61353131D01*
X123314500Y-61481269D01*
X123314500Y-61481271D01*
X123314499Y-61481271D01*
X102087921Y-61481271D01*
X102089564Y-59754071D01*
X123314499Y-59754071D01*
X123339497Y-59879738D01*
X123339499Y-59879744D01*
X123388533Y-59998124D01*
X123388538Y-59998133D01*
X123459723Y-60104668D01*
X123459726Y-60104672D01*
X123550327Y-60195273D01*
X123550331Y-60195276D01*
X123656866Y-60266461D01*
X123656872Y-60266464D01*
X123656873Y-60266465D01*
X123775256Y-60315501D01*
X123775260Y-60315501D01*
X123775261Y-60315502D01*
X123900928Y-60340500D01*
X123900931Y-60340500D01*
X124029071Y-60340500D01*
X124113615Y-60323682D01*
X124154744Y-60315501D01*
X124273127Y-60266465D01*
X124379669Y-60195276D01*
X124470276Y-60104669D01*
X124541465Y-59998127D01*
X124590501Y-59879744D01*
X124615500Y-59754069D01*
X124615500Y-59625931D01*
X124615500Y-59625928D01*
X124590502Y-59500261D01*
X124590501Y-59500260D01*
X124590501Y-59500256D01*
X124541465Y-59381873D01*
X124541464Y-59381872D01*
X124541461Y-59381866D01*
X124470276Y-59275331D01*
X124470273Y-59275327D01*
X124379672Y-59184726D01*
X124379668Y-59184723D01*
X124273133Y-59113538D01*
X124273124Y-59113533D01*
X124154744Y-59064499D01*
X124154738Y-59064497D01*
X124029071Y-59039500D01*
X124029069Y-59039500D01*
X123900931Y-59039500D01*
X123900929Y-59039500D01*
X123775261Y-59064497D01*
X123775255Y-59064499D01*
X123656875Y-59113533D01*
X123656866Y-59113538D01*
X123550331Y-59184723D01*
X123550327Y-59184726D01*
X123459726Y-59275327D01*
X123459723Y-59275331D01*
X123388538Y-59381866D01*
X123388533Y-59381875D01*
X123339499Y-59500255D01*
X123339497Y-59500261D01*
X123314500Y-59625928D01*
X123314500Y-59625931D01*
X123314500Y-59754069D01*
X123314500Y-59754071D01*
X123314499Y-59754071D01*
X102089564Y-59754071D01*
X102093621Y-55490135D01*
X106980500Y-55490135D01*
X106980500Y-57285870D01*
X106980501Y-57285876D01*
X106986908Y-57345483D01*
X107037202Y-57480328D01*
X107037206Y-57480335D01*
X107123452Y-57595544D01*
X107123455Y-57595547D01*
X107238664Y-57681793D01*
X107238671Y-57681797D01*
X107373517Y-57732091D01*
X107373516Y-57732091D01*
X107380444Y-57732835D01*
X107433127Y-57738500D01*
X109228872Y-57738499D01*
X109288483Y-57732091D01*
X109423331Y-57681796D01*
X109526690Y-57604421D01*
X109592152Y-57580004D01*
X109660425Y-57594855D01*
X109675303Y-57604416D01*
X109778665Y-57681793D01*
X109778668Y-57681795D01*
X109778671Y-57681797D01*
X109913517Y-57732091D01*
X109913516Y-57732091D01*
X109920444Y-57732835D01*
X109973127Y-57738500D01*
X111768872Y-57738499D01*
X111828483Y-57732091D01*
X111963331Y-57681796D01*
X112066690Y-57604421D01*
X112132152Y-57580004D01*
X112200425Y-57594855D01*
X112215303Y-57604416D01*
X112318665Y-57681793D01*
X112318668Y-57681795D01*
X112318671Y-57681797D01*
X112453517Y-57732091D01*
X112453516Y-57732091D01*
X112460444Y-57732835D01*
X112513127Y-57738500D01*
X114308872Y-57738499D01*
X114368483Y-57732091D01*
X114503331Y-57681796D01*
X114606690Y-57604421D01*
X114672152Y-57580004D01*
X114740425Y-57594855D01*
X114755303Y-57604416D01*
X114858665Y-57681793D01*
X114858668Y-57681795D01*
X114858671Y-57681797D01*
X114993517Y-57732091D01*
X114993516Y-57732091D01*
X115000444Y-57732835D01*
X115053127Y-57738500D01*
X116848872Y-57738499D01*
X116908483Y-57732091D01*
X117043331Y-57681796D01*
X117146690Y-57604421D01*
X117212152Y-57580004D01*
X117280425Y-57594855D01*
X117295303Y-57604416D01*
X117398665Y-57681793D01*
X117398668Y-57681795D01*
X117398671Y-57681797D01*
X117533517Y-57732091D01*
X117533516Y-57732091D01*
X117540444Y-57732835D01*
X117593127Y-57738500D01*
X119388872Y-57738499D01*
X119448483Y-57732091D01*
X119583331Y-57681796D01*
X119686690Y-57604421D01*
X119752152Y-57580004D01*
X119820425Y-57594855D01*
X119835303Y-57604416D01*
X119938665Y-57681793D01*
X119938668Y-57681795D01*
X119938671Y-57681797D01*
X120073517Y-57732091D01*
X120073516Y-57732091D01*
X120080444Y-57732835D01*
X120133127Y-57738500D01*
X121928872Y-57738499D01*
X121988483Y-57732091D01*
X122123331Y-57681796D01*
X122238546Y-57595546D01*
X122324796Y-57480331D01*
X122375091Y-57345483D01*
X122381500Y-57285873D01*
X122381499Y-55743571D01*
X124825499Y-55743571D01*
X124850497Y-55869238D01*
X124850499Y-55869244D01*
X124899533Y-55987624D01*
X124899538Y-55987633D01*
X124970723Y-56094168D01*
X124970726Y-56094172D01*
X125061327Y-56184773D01*
X125061331Y-56184776D01*
X125167866Y-56255961D01*
X125167872Y-56255964D01*
X125167873Y-56255965D01*
X125286256Y-56305001D01*
X125286260Y-56305001D01*
X125286261Y-56305002D01*
X125411928Y-56330000D01*
X125411931Y-56330000D01*
X125540071Y-56330000D01*
X125624615Y-56313182D01*
X125665744Y-56305001D01*
X125784127Y-56255965D01*
X125890669Y-56184776D01*
X125981276Y-56094169D01*
X126052465Y-55987627D01*
X126101501Y-55869244D01*
X126126500Y-55743569D01*
X126126500Y-55615431D01*
X126126500Y-55615428D01*
X126101502Y-55489761D01*
X126101501Y-55489760D01*
X126101501Y-55489756D01*
X126052465Y-55371373D01*
X126052464Y-55371372D01*
X126052461Y-55371366D01*
X125981276Y-55264831D01*
X125981273Y-55264827D01*
X125890672Y-55174226D01*
X125890668Y-55174223D01*
X125784133Y-55103038D01*
X125784124Y-55103033D01*
X125665744Y-55053999D01*
X125665738Y-55053997D01*
X125540071Y-55029000D01*
X125540069Y-55029000D01*
X125411931Y-55029000D01*
X125411929Y-55029000D01*
X125286261Y-55053997D01*
X125286255Y-55053999D01*
X125167875Y-55103033D01*
X125167866Y-55103038D01*
X125061331Y-55174223D01*
X125061327Y-55174226D01*
X124970726Y-55264827D01*
X124970723Y-55264831D01*
X124899538Y-55371366D01*
X124899533Y-55371375D01*
X124850499Y-55489755D01*
X124850497Y-55489761D01*
X124825500Y-55615428D01*
X124825500Y-55615431D01*
X124825500Y-55743569D01*
X124825500Y-55743571D01*
X124825499Y-55743571D01*
X122381499Y-55743571D01*
X122381499Y-55490128D01*
X122375091Y-55430517D01*
X122353032Y-55371375D01*
X122324797Y-55295671D01*
X122324793Y-55295664D01*
X122238547Y-55180455D01*
X122238544Y-55180452D01*
X122123335Y-55094206D01*
X122123328Y-55094202D01*
X121988482Y-55043908D01*
X121988483Y-55043908D01*
X121928883Y-55037501D01*
X121928881Y-55037500D01*
X121928873Y-55037500D01*
X121928864Y-55037500D01*
X120133129Y-55037500D01*
X120133123Y-55037501D01*
X120073516Y-55043908D01*
X119938671Y-55094202D01*
X119938669Y-55094203D01*
X119835311Y-55171578D01*
X119769847Y-55195995D01*
X119701574Y-55181144D01*
X119686689Y-55171578D01*
X119583330Y-55094203D01*
X119583328Y-55094202D01*
X119448482Y-55043908D01*
X119448483Y-55043908D01*
X119388883Y-55037501D01*
X119388881Y-55037500D01*
X119388873Y-55037500D01*
X119388864Y-55037500D01*
X117593129Y-55037500D01*
X117593123Y-55037501D01*
X117533516Y-55043908D01*
X117398671Y-55094202D01*
X117398669Y-55094203D01*
X117295311Y-55171578D01*
X117229847Y-55195995D01*
X117161574Y-55181144D01*
X117146689Y-55171578D01*
X117043330Y-55094203D01*
X117043328Y-55094202D01*
X116908482Y-55043908D01*
X116908483Y-55043908D01*
X116848883Y-55037501D01*
X116848881Y-55037500D01*
X116848873Y-55037500D01*
X116848864Y-55037500D01*
X115053129Y-55037500D01*
X115053123Y-55037501D01*
X114993516Y-55043908D01*
X114858671Y-55094202D01*
X114858669Y-55094203D01*
X114755311Y-55171578D01*
X114689847Y-55195995D01*
X114621574Y-55181144D01*
X114606689Y-55171578D01*
X114503330Y-55094203D01*
X114503328Y-55094202D01*
X114368482Y-55043908D01*
X114368483Y-55043908D01*
X114308883Y-55037501D01*
X114308881Y-55037500D01*
X114308873Y-55037500D01*
X114308864Y-55037500D01*
X112513129Y-55037500D01*
X112513123Y-55037501D01*
X112453516Y-55043908D01*
X112318671Y-55094202D01*
X112318669Y-55094203D01*
X112215311Y-55171578D01*
X112149847Y-55195995D01*
X112081574Y-55181144D01*
X112066689Y-55171578D01*
X111963330Y-55094203D01*
X111963328Y-55094202D01*
X111828482Y-55043908D01*
X111828483Y-55043908D01*
X111768883Y-55037501D01*
X111768881Y-55037500D01*
X111768873Y-55037500D01*
X111768864Y-55037500D01*
X109973129Y-55037500D01*
X109973123Y-55037501D01*
X109913516Y-55043908D01*
X109778671Y-55094202D01*
X109778669Y-55094203D01*
X109675311Y-55171578D01*
X109609847Y-55195995D01*
X109541574Y-55181144D01*
X109526689Y-55171578D01*
X109423330Y-55094203D01*
X109423328Y-55094202D01*
X109288482Y-55043908D01*
X109288483Y-55043908D01*
X109228883Y-55037501D01*
X109228881Y-55037500D01*
X109228873Y-55037500D01*
X109228864Y-55037500D01*
X107433129Y-55037500D01*
X107433123Y-55037501D01*
X107373516Y-55043908D01*
X107238671Y-55094202D01*
X107238664Y-55094206D01*
X107123455Y-55180452D01*
X107123452Y-55180455D01*
X107037206Y-55295664D01*
X107037202Y-55295671D01*
X106986908Y-55430517D01*
X106980870Y-55486688D01*
X106980501Y-55490123D01*
X106980500Y-55490135D01*
X102093621Y-55490135D01*
X102099130Y-49699482D01*
X123875500Y-49699482D01*
X123875500Y-51499517D01*
X123886000Y-51602296D01*
X123886001Y-51602298D01*
X123941186Y-51768835D01*
X124033288Y-51918156D01*
X124157344Y-52042212D01*
X124306665Y-52134314D01*
X124473202Y-52189499D01*
X124575990Y-52200000D01*
X124575995Y-52200000D01*
X126376005Y-52200000D01*
X126376010Y-52200000D01*
X126478798Y-52189499D01*
X126645335Y-52134314D01*
X126794656Y-52042212D01*
X126918712Y-51918156D01*
X126918715Y-51918150D01*
X126923495Y-51913371D01*
X126984818Y-51879886D01*
X127054510Y-51884870D01*
X127084058Y-51900731D01*
X127177155Y-51968370D01*
X127283206Y-52022405D01*
X127401616Y-52082739D01*
X127401618Y-52082739D01*
X127401621Y-52082741D01*
X127641215Y-52160590D01*
X127890038Y-52200000D01*
X127890039Y-52200000D01*
X128141961Y-52200000D01*
X128141962Y-52200000D01*
X128390785Y-52160590D01*
X128630379Y-52082741D01*
X128854845Y-51968370D01*
X128947936Y-51900734D01*
X129013742Y-51877254D01*
X129081796Y-51893079D01*
X129108503Y-51913371D01*
X129113288Y-51918156D01*
X129237344Y-52042212D01*
X129386665Y-52134314D01*
X129553202Y-52189499D01*
X129655990Y-52200000D01*
X129655995Y-52200000D01*
X131456005Y-52200000D01*
X131456010Y-52200000D01*
X131558798Y-52189499D01*
X131725335Y-52134314D01*
X131874656Y-52042212D01*
X131998712Y-51918156D01*
X132090814Y-51768835D01*
X132145999Y-51602298D01*
X132156500Y-51499510D01*
X132156500Y-49699490D01*
X132145999Y-49596702D01*
X132090814Y-49430165D01*
X131998712Y-49280844D01*
X131874656Y-49156788D01*
X131725335Y-49064686D01*
X131558798Y-49009501D01*
X131558796Y-49009500D01*
X131456017Y-48999000D01*
X131456010Y-48999000D01*
X130999575Y-48999000D01*
X130932536Y-48979315D01*
X130886781Y-48926511D01*
X130876837Y-48857353D01*
X130905862Y-48793797D01*
X130930684Y-48771898D01*
X130990895Y-48731665D01*
X131066289Y-48681289D01*
X131177789Y-48569789D01*
X131265394Y-48438679D01*
X131325737Y-48292997D01*
X131356500Y-48138342D01*
X131356500Y-47980658D01*
X131356500Y-47980655D01*
X131356499Y-47980653D01*
X131325738Y-47826010D01*
X131325737Y-47826003D01*
X131297637Y-47758162D01*
X131265397Y-47680327D01*
X131265390Y-47680314D01*
X131177789Y-47549211D01*
X131177786Y-47549207D01*
X131066292Y-47437713D01*
X131066288Y-47437710D01*
X130935185Y-47350109D01*
X130935172Y-47350102D01*
X130789501Y-47289764D01*
X130789489Y-47289761D01*
X130634845Y-47259000D01*
X130634842Y-47259000D01*
X130477158Y-47259000D01*
X130477155Y-47259000D01*
X130322510Y-47289761D01*
X130322498Y-47289764D01*
X130176827Y-47350102D01*
X130176814Y-47350109D01*
X130045711Y-47437710D01*
X130045707Y-47437713D01*
X129934213Y-47549207D01*
X129934210Y-47549211D01*
X129846609Y-47680314D01*
X129846602Y-47680327D01*
X129786264Y-47825998D01*
X129786261Y-47826010D01*
X129755500Y-47980653D01*
X129755500Y-48138346D01*
X129786261Y-48292989D01*
X129786264Y-48293001D01*
X129846602Y-48438672D01*
X129846609Y-48438685D01*
X129934210Y-48569788D01*
X129934213Y-48569792D01*
X130045707Y-48681286D01*
X130045711Y-48681289D01*
X130181316Y-48771898D01*
X130226121Y-48825510D01*
X130234828Y-48894835D01*
X130204674Y-48957863D01*
X130145230Y-48994582D01*
X130112425Y-48999000D01*
X129655982Y-48999000D01*
X129553203Y-49009500D01*
X129553202Y-49009501D01*
X129516835Y-49021552D01*
X129386667Y-49064685D01*
X129386662Y-49064687D01*
X129237345Y-49156787D01*
X129108503Y-49285628D01*
X129047179Y-49319112D01*
X128977488Y-49314127D01*
X128947937Y-49298264D01*
X128854848Y-49230632D01*
X128854847Y-49230631D01*
X128854845Y-49230630D01*
X128784747Y-49194913D01*
X128630383Y-49116260D01*
X128390787Y-49038410D01*
X128357528Y-49033142D01*
X128294394Y-49003211D01*
X128257463Y-48943899D01*
X128258463Y-48874036D01*
X128297074Y-48815804D01*
X128329472Y-48796110D01*
X128395179Y-48768894D01*
X128526289Y-48681289D01*
X128637789Y-48569789D01*
X128725394Y-48438679D01*
X128785737Y-48292997D01*
X128816500Y-48138342D01*
X128816500Y-47980658D01*
X128816500Y-47980655D01*
X128816499Y-47980653D01*
X128785738Y-47826010D01*
X128785737Y-47826003D01*
X128757637Y-47758162D01*
X128725397Y-47680327D01*
X128725390Y-47680314D01*
X128637789Y-47549211D01*
X128637786Y-47549207D01*
X128526292Y-47437713D01*
X128526288Y-47437710D01*
X128395185Y-47350109D01*
X128395172Y-47350102D01*
X128249501Y-47289764D01*
X128249489Y-47289761D01*
X128094845Y-47259000D01*
X128094842Y-47259000D01*
X127937158Y-47259000D01*
X127937155Y-47259000D01*
X127782510Y-47289761D01*
X127782498Y-47289764D01*
X127636827Y-47350102D01*
X127636814Y-47350109D01*
X127505711Y-47437710D01*
X127505707Y-47437713D01*
X127394213Y-47549207D01*
X127394210Y-47549211D01*
X127306609Y-47680314D01*
X127306602Y-47680327D01*
X127246264Y-47825998D01*
X127246261Y-47826010D01*
X127215500Y-47980653D01*
X127215500Y-48138346D01*
X127246261Y-48292989D01*
X127246264Y-48293001D01*
X127306602Y-48438672D01*
X127306609Y-48438685D01*
X127394210Y-48569788D01*
X127394213Y-48569792D01*
X127505707Y-48681286D01*
X127505711Y-48681289D01*
X127636814Y-48768890D01*
X127636821Y-48768894D01*
X127702524Y-48796109D01*
X127756926Y-48839947D01*
X127778992Y-48906241D01*
X127761714Y-48973941D01*
X127710577Y-49021552D01*
X127674472Y-49033142D01*
X127641211Y-49038410D01*
X127401616Y-49116260D01*
X127177158Y-49230628D01*
X127177155Y-49230629D01*
X127177155Y-49230630D01*
X127084060Y-49298266D01*
X127018255Y-49321745D01*
X126950201Y-49305919D01*
X126923496Y-49285628D01*
X126794657Y-49156789D01*
X126794656Y-49156788D01*
X126645335Y-49064686D01*
X126478798Y-49009501D01*
X126478796Y-49009500D01*
X126376017Y-48999000D01*
X126376010Y-48999000D01*
X125919575Y-48999000D01*
X125852536Y-48979315D01*
X125806781Y-48926511D01*
X125796837Y-48857353D01*
X125825862Y-48793797D01*
X125850684Y-48771898D01*
X125910895Y-48731665D01*
X125986289Y-48681289D01*
X126097789Y-48569789D01*
X126185394Y-48438679D01*
X126245737Y-48292997D01*
X126276500Y-48138342D01*
X126276500Y-47980658D01*
X126276500Y-47980655D01*
X126276499Y-47980653D01*
X126245738Y-47826010D01*
X126245737Y-47826003D01*
X126217637Y-47758162D01*
X126185397Y-47680327D01*
X126185390Y-47680314D01*
X126097789Y-47549211D01*
X126097786Y-47549207D01*
X125986292Y-47437713D01*
X125986288Y-47437710D01*
X125855185Y-47350109D01*
X125855172Y-47350102D01*
X125709501Y-47289764D01*
X125709489Y-47289761D01*
X125554845Y-47259000D01*
X125554842Y-47259000D01*
X125397158Y-47259000D01*
X125397155Y-47259000D01*
X125242510Y-47289761D01*
X125242498Y-47289764D01*
X125096827Y-47350102D01*
X125096814Y-47350109D01*
X124965711Y-47437710D01*
X124965707Y-47437713D01*
X124854213Y-47549207D01*
X124854210Y-47549211D01*
X124766609Y-47680314D01*
X124766602Y-47680327D01*
X124706264Y-47825998D01*
X124706261Y-47826010D01*
X124675500Y-47980653D01*
X124675500Y-48138346D01*
X124706261Y-48292989D01*
X124706264Y-48293001D01*
X124766602Y-48438672D01*
X124766609Y-48438685D01*
X124854210Y-48569788D01*
X124854213Y-48569792D01*
X124965707Y-48681286D01*
X124965711Y-48681289D01*
X125101316Y-48771898D01*
X125146121Y-48825510D01*
X125154828Y-48894835D01*
X125124674Y-48957863D01*
X125065230Y-48994582D01*
X125032425Y-48999000D01*
X124575982Y-48999000D01*
X124473203Y-49009500D01*
X124473202Y-49009501D01*
X124436835Y-49021552D01*
X124306667Y-49064685D01*
X124306662Y-49064687D01*
X124157342Y-49156789D01*
X124033289Y-49280842D01*
X123941187Y-49430162D01*
X123941186Y-49430165D01*
X123886001Y-49596702D01*
X123886001Y-49596703D01*
X123886000Y-49596703D01*
X123875500Y-49699482D01*
X102099130Y-49699482D01*
X102100436Y-48326127D01*
X102100500Y-48325892D01*
X102100500Y-48263938D01*
X102100504Y-48263922D01*
X102100765Y-48255957D01*
X102100974Y-48252759D01*
X102117417Y-48001883D01*
X102119529Y-47985840D01*
X102120561Y-47980653D01*
X122135500Y-47980653D01*
X122135500Y-48138346D01*
X122166261Y-48292989D01*
X122166264Y-48293001D01*
X122226602Y-48438672D01*
X122226609Y-48438685D01*
X122314210Y-48569788D01*
X122314213Y-48569792D01*
X122425707Y-48681286D01*
X122425711Y-48681289D01*
X122556814Y-48768890D01*
X122556827Y-48768897D01*
X122693505Y-48825510D01*
X122702503Y-48829237D01*
X122843851Y-48857353D01*
X122857153Y-48859999D01*
X122857156Y-48860000D01*
X122857158Y-48860000D01*
X123014844Y-48860000D01*
X123014845Y-48859999D01*
X123169497Y-48829237D01*
X123315179Y-48768894D01*
X123446289Y-48681289D01*
X123557789Y-48569789D01*
X123645394Y-48438679D01*
X123705737Y-48292997D01*
X123736500Y-48138342D01*
X123736500Y-47980658D01*
X123736500Y-47980655D01*
X123736499Y-47980653D01*
X123705738Y-47826010D01*
X123705737Y-47826003D01*
X123677637Y-47758162D01*
X123645397Y-47680327D01*
X123645390Y-47680314D01*
X123557789Y-47549211D01*
X123557786Y-47549207D01*
X123446292Y-47437713D01*
X123446288Y-47437710D01*
X123315185Y-47350109D01*
X123315172Y-47350102D01*
X123169501Y-47289764D01*
X123169489Y-47289761D01*
X123014845Y-47259000D01*
X123014842Y-47259000D01*
X122857158Y-47259000D01*
X122857155Y-47259000D01*
X122702510Y-47289761D01*
X122702498Y-47289764D01*
X122556827Y-47350102D01*
X122556814Y-47350109D01*
X122425711Y-47437710D01*
X122425707Y-47437713D01*
X122314213Y-47549207D01*
X122314210Y-47549211D01*
X122226609Y-47680314D01*
X122226602Y-47680327D01*
X122166264Y-47825998D01*
X122166261Y-47826010D01*
X122135500Y-47980653D01*
X102120561Y-47980653D01*
X102168409Y-47740107D01*
X102172606Y-47724445D01*
X102252095Y-47490278D01*
X102253138Y-47487205D01*
X102259336Y-47472239D01*
X102370149Y-47247533D01*
X102378252Y-47233498D01*
X102517448Y-47025176D01*
X102527305Y-47012331D01*
X102692502Y-46823960D01*
X102703960Y-46812502D01*
X102892331Y-46647305D01*
X102905176Y-46637448D01*
X103113498Y-46498252D01*
X103127533Y-46490149D01*
X103352239Y-46379336D01*
X103367205Y-46373138D01*
X103563635Y-46306459D01*
X103604445Y-46292606D01*
X103620107Y-46288409D01*
X103865829Y-46239531D01*
X103881881Y-46237417D01*
X104135952Y-46220765D01*
X104144070Y-46220501D01*
X146727953Y-46238523D01*
G37*
%TD.AperFunction*%
%TD*%
M02*
