%TF.GenerationSoftware,KiCad,Pcbnew,10.0.3*%
%TF.CreationDate,2026-06-27T13:58:59+01:00*%
%TF.ProjectId,Ai1_CC1000,4169315f-4343-4313-9030-302e6b696361,rev?*%
%TF.SameCoordinates,Original*%
%TF.FileFunction,Copper,L1,Top*%
%TF.FilePolarity,Positive*%
%FSLAX46Y46*%
G04 Gerber Fmt 4.6, Leading zero omitted, Abs format (unit mm)*
G04 Created by KiCad (PCBNEW 10.0.3) date 2026-06-27 13:58:59*
%MOMM*%
%LPD*%
G01*
G04 APERTURE LIST*
G04 Aperture macros list*
%AMRoundRect*
0 Rectangle with rounded corners*
0 $1 Rounding radius*
0 $2 $3 $4 $5 $6 $7 $8 $9 X,Y pos of 4 corners*
0 Add a 4 corners polygon primitive as box body*
4,1,4,$2,$3,$4,$5,$6,$7,$8,$9,$2,$3,0*
0 Add four circle primitives for the rounded corners*
1,1,$1+$1,$2,$3*
1,1,$1+$1,$4,$5*
1,1,$1+$1,$6,$7*
1,1,$1+$1,$8,$9*
0 Add four rect primitives between the rounded corners*
20,1,$1+$1,$2,$3,$4,$5,0*
20,1,$1+$1,$4,$5,$6,$7,0*
20,1,$1+$1,$6,$7,$8,$9,0*
20,1,$1+$1,$8,$9,$2,$3,0*%
%AMFreePoly0*
4,1,6,1.000000,0.000000,0.500000,-0.750000,-0.500000,-0.750000,-0.500000,0.750000,0.500000,0.750000,1.000000,0.000000,1.000000,0.000000,$1*%
%AMFreePoly1*
4,1,6,0.500000,-0.750000,-0.650000,-0.750000,-0.150000,0.000000,-0.650000,0.750000,0.500000,0.750000,0.500000,-0.750000,0.500000,-0.750000,$1*%
G04 Aperture macros list end*
%TA.AperFunction,SMDPad,CuDef*%
%ADD10RoundRect,0.225000X-0.225000X-0.250000X0.225000X-0.250000X0.225000X0.250000X-0.225000X0.250000X0*%
%TD*%
%TA.AperFunction,ComponentPad*%
%ADD11R,1.700000X1.700000*%
%TD*%
%TA.AperFunction,SMDPad,CuDef*%
%ADD12RoundRect,0.250000X0.250000X0.475000X-0.250000X0.475000X-0.250000X-0.475000X0.250000X-0.475000X0*%
%TD*%
%TA.AperFunction,ComponentPad*%
%ADD13C,1.700000*%
%TD*%
%TA.AperFunction,SMDPad,CuDef*%
%ADD14RoundRect,0.062500X0.062500X0.062500X-0.062500X0.062500X-0.062500X-0.062500X0.062500X-0.062500X0*%
%TD*%
%TA.AperFunction,SMDPad,CuDef*%
%ADD15RoundRect,0.200000X0.200000X0.275000X-0.200000X0.275000X-0.200000X-0.275000X0.200000X-0.275000X0*%
%TD*%
%TA.AperFunction,SMDPad,CuDef*%
%ADD16RoundRect,0.062500X-0.062500X-0.062500X0.062500X-0.062500X0.062500X0.062500X-0.062500X0.062500X0*%
%TD*%
%TA.AperFunction,SMDPad,CuDef*%
%ADD17RoundRect,0.225000X0.250000X-0.225000X0.250000X0.225000X-0.250000X0.225000X-0.250000X-0.225000X0*%
%TD*%
%TA.AperFunction,SMDPad,CuDef*%
%ADD18RoundRect,0.225000X-0.250000X0.225000X-0.250000X-0.225000X0.250000X-0.225000X0.250000X0.225000X0*%
%TD*%
%TA.AperFunction,SMDPad,CuDef*%
%ADD19RoundRect,0.100000X-0.637500X-0.100000X0.637500X-0.100000X0.637500X0.100000X-0.637500X0.100000X0*%
%TD*%
%TA.AperFunction,ComponentPad*%
%ADD20RoundRect,0.249999X0.850001X0.850001X-0.850001X0.850001X-0.850001X-0.850001X0.850001X-0.850001X0*%
%TD*%
%TA.AperFunction,ComponentPad*%
%ADD21C,2.200000*%
%TD*%
%TA.AperFunction,SMDPad,CuDef*%
%ADD22RoundRect,0.250000X-0.250000X-0.475000X0.250000X-0.475000X0.250000X0.475000X-0.250000X0.475000X0*%
%TD*%
%TA.AperFunction,SMDPad,CuDef*%
%ADD23RoundRect,0.225000X0.225000X0.250000X-0.225000X0.250000X-0.225000X-0.250000X0.225000X-0.250000X0*%
%TD*%
%TA.AperFunction,SMDPad,CuDef*%
%ADD24FreePoly0,90.000000*%
%TD*%
%TA.AperFunction,SMDPad,CuDef*%
%ADD25FreePoly1,90.000000*%
%TD*%
%TA.AperFunction,SMDPad,CuDef*%
%ADD26RoundRect,0.200000X-0.200000X-0.275000X0.200000X-0.275000X0.200000X0.275000X-0.200000X0.275000X0*%
%TD*%
%TA.AperFunction,SMDPad,CuDef*%
%ADD27RoundRect,0.250000X-0.750000X3.687500X-0.750000X-3.687500X0.750000X-3.687500X0.750000X3.687500X0*%
%TD*%
%TA.AperFunction,SMDPad,CuDef*%
%ADD28FreePoly0,180.000000*%
%TD*%
%TA.AperFunction,SMDPad,CuDef*%
%ADD29FreePoly1,180.000000*%
%TD*%
%TA.AperFunction,SMDPad,CuDef*%
%ADD30R,5.080000X2.290000*%
%TD*%
%TA.AperFunction,SMDPad,CuDef*%
%ADD31R,5.080000X2.420000*%
%TD*%
%TA.AperFunction,SMDPad,CuDef*%
%ADD32R,0.950000X0.460000*%
%TD*%
%TA.AperFunction,ComponentPad*%
%ADD33C,0.970000*%
%TD*%
%TA.AperFunction,ViaPad*%
%ADD34C,0.300000*%
%TD*%
%TA.AperFunction,Conductor*%
%ADD35C,0.150000*%
%TD*%
G04 APERTURE END LIST*
D10*
%TO.P,C1_0,1*%
%TO.N,GNDA*%
X122415000Y-59690000D03*
%TO.P,C1_0,2*%
%TO.N,VDDA*%
X123965000Y-59690000D03*
%TD*%
D11*
%TO.P,J13,1,Pin_1_1*%
%TO.N,/C_RFS_10*%
X126619000Y-83312000D03*
%TD*%
D12*
%TO.P,L41_1,1,1_1*%
%TO.N,/433Mhz_Out*%
X116040200Y-70622691D03*
%TO.P,L41_1,2,2_2*%
%TO.N,VDDA*%
X114140200Y-70622691D03*
%TD*%
D10*
%TO.P,C31_2,1*%
%TO.N,/To_Ant_915Mhz*%
X114490200Y-65702454D03*
%TO.P,C31_2,2*%
%TO.N,/915MHz_In*%
X116040200Y-65702454D03*
%TD*%
D11*
%TO.P,J1,1,Pin_1_1*%
%TO.N,/PALE*%
X134874000Y-57404000D03*
D13*
%TO.P,J1,2,Pin_2_2*%
%TO.N,/PDATA*%
X137414000Y-57404000D03*
%TO.P,J1,3,Pin_3_3*%
%TO.N,/PCLK*%
X139954000Y-57404000D03*
%TO.P,J1,4,Pin_4_4*%
%TO.N,/DCLK*%
X142494000Y-57404000D03*
%TO.P,J1,5,Pin_5_5*%
%TO.N,/DIO*%
X145034000Y-57404000D03*
%TD*%
D11*
%TO.P,J10,1,Pin_1_1*%
%TO.N,/C_RFS_7*%
X121589800Y-83312000D03*
%TD*%
D14*
%TO.P,IC8,1,RF2_1*%
%TO.N,Net-(IC7-RFIN)*%
X122834400Y-77598600D03*
%TO.P,IC8,2,GND_2*%
%TO.N,GNDA*%
X122834400Y-77198600D03*
%TO.P,IC8,3,RF1_3*%
%TO.N,/L_315_1*%
X122834400Y-76798600D03*
%TO.P,IC8,4,VDD_4*%
%TO.N,VDDA*%
X122434400Y-76798600D03*
%TO.P,IC8,5,RFIN_5*%
%TO.N,/L101_1*%
X122434400Y-77198600D03*
%TO.P,IC8,6,CTRL_6*%
%TO.N,/C_RFS_7*%
X122434400Y-77598600D03*
%TD*%
D15*
%TO.P,R131,1*%
%TO.N,Net-(U1-R_BIAS)*%
X120586000Y-73355200D03*
%TO.P,R131,2*%
%TO.N,GNDA*%
X118936000Y-73355200D03*
%TD*%
D10*
%TO.P,C1_2,1*%
%TO.N,GNDA*%
X122415000Y-63500000D03*
%TO.P,C1_2,2*%
%TO.N,VDDA*%
X123965000Y-63500000D03*
%TD*%
D12*
%TO.P,L32_1,1,1_1*%
%TO.N,/433MHz_In*%
X116040200Y-60282216D03*
%TO.P,L32_1,2,2_2*%
%TO.N,GNDA*%
X114140200Y-60282216D03*
%TD*%
D11*
%TO.P,J6,1,Pin_1_1*%
%TO.N,/C_RFS_3*%
X121031000Y-56388000D03*
%TD*%
D16*
%TO.P,IC2,1,RF2_1*%
%TO.N,/315MHz_In*%
X120224600Y-65951200D03*
%TO.P,IC2,2,GND_2*%
%TO.N,GNDA*%
X120224600Y-66351200D03*
%TO.P,IC2,3,RF1_3*%
%TO.N,Net-(IC1-RFIN)*%
X120224600Y-66751200D03*
%TO.P,IC2,4,VDD_4*%
%TO.N,VDDA*%
X120624600Y-66751200D03*
%TO.P,IC2,5,RFIN_5*%
%TO.N,/IN_Matching*%
X120624600Y-66351200D03*
%TO.P,IC2,6,CTRL_6*%
%TO.N,/C_RFS_1*%
X120624600Y-65951200D03*
%TD*%
D11*
%TO.P,J8,1,Pin_1_1*%
%TO.N,/C_RFS_5*%
X110871000Y-56388000D03*
%TD*%
D14*
%TO.P,IC6,1,RF2_1*%
%TO.N,/To_Ant_315Mhz*%
X111323500Y-64725293D03*
%TO.P,IC6,2,GND_2*%
%TO.N,GNDA*%
X111323500Y-64325293D03*
%TO.P,IC6,3,RF1_3*%
%TO.N,Net-(IC5-RFIN)*%
X111323500Y-63925293D03*
%TO.P,IC6,4,VDD_4*%
%TO.N,VDDA*%
X110923500Y-63925293D03*
%TO.P,IC6,5,RFIN_5*%
%TO.N,/To_Ant*%
X110923500Y-64325293D03*
%TO.P,IC6,6,CTRL_6*%
%TO.N,/C_RFS_5*%
X110923500Y-64725293D03*
%TD*%
D11*
%TO.P,J4,1,Pin_1_1*%
%TO.N,/C_RFS_1*%
X118491000Y-56388000D03*
%TD*%
%TO.P,J5,1,Pin_1_1*%
%TO.N,/C_RFS_2*%
X115951000Y-56388000D03*
%TD*%
D16*
%TO.P,IC9,1,RF2_1*%
%TO.N,/L_915_2*%
X128031800Y-78560600D03*
%TO.P,IC9,2,GND_2*%
%TO.N,GNDA*%
X128031800Y-78960600D03*
%TO.P,IC9,3,RF1_3*%
%TO.N,/L_433_2*%
X128031800Y-79360600D03*
%TO.P,IC9,4,VDD_4*%
%TO.N,VDDA*%
X128431800Y-79360600D03*
%TO.P,IC9,5,RFIN_5*%
%TO.N,Net-(IC10-RF1)*%
X128431800Y-78960600D03*
%TO.P,IC9,6,CTRL_6*%
%TO.N,/C_RFS_10*%
X128431800Y-78560600D03*
%TD*%
D11*
%TO.P,J2,1,Pin_1_1*%
%TO.N,Net-(J2-Pin_1)*%
X147574000Y-57404000D03*
%TD*%
D10*
%TO.P,C31_1,1*%
%TO.N,/To_Ant_433Mhz*%
X114490200Y-62088962D03*
%TO.P,C31_1,2*%
%TO.N,/433MHz_In*%
X116040200Y-62088962D03*
%TD*%
D17*
%TO.P,C181,1*%
%TO.N,/OSC2*%
X132715000Y-75705000D03*
%TO.P,C181,2*%
%TO.N,GNDA*%
X132715000Y-74155000D03*
%TD*%
D11*
%TO.P,J3,1,Pin_1_1*%
%TO.N,Net-(J3-Pin_1)*%
X132334000Y-57404000D03*
%TD*%
D18*
%TO.P,C1_4,1*%
%TO.N,GNDD*%
X132110000Y-68935000D03*
%TO.P,C1_4,2*%
%TO.N,VDD*%
X132110000Y-70485000D03*
%TD*%
D19*
%TO.P,U1,1,AVDD_1*%
%TO.N,VDDA*%
X122545000Y-65550000D03*
%TO.P,U1,2,AGND_2*%
%TO.N,GNDA*%
X122545000Y-66200000D03*
%TO.P,U1,3,RF_IN_3*%
%TO.N,/IN_Matching*%
X122545000Y-66850000D03*
%TO.P,U1,4,RF_OUT_4*%
%TO.N,/OUT_Matching*%
X122545000Y-67500000D03*
%TO.P,U1,5,AVDD_5*%
%TO.N,VDDA*%
X122545000Y-68150000D03*
%TO.P,U1,6,AGND_6*%
%TO.N,GNDA*%
X122545000Y-68800000D03*
%TO.P,U1,7,AGND_7*%
X122545000Y-69450000D03*
%TO.P,U1,8,AGND_8*%
X122545000Y-70100000D03*
%TO.P,U1,9,AVDD_9*%
%TO.N,VDDA*%
X122545000Y-70750000D03*
%TO.P,U1,10,L1_10*%
%TO.N,/L101_1*%
X122545000Y-71400000D03*
%TO.P,U1,11,L2_11*%
%TO.N,/L101_2*%
X122545000Y-72050000D03*
%TO.P,U1,12,CHP_OUT_12*%
%TO.N,Net-(J2-Pin_1)*%
X122545000Y-72700000D03*
%TO.P,U1,13,R_BIAS_13*%
%TO.N,Net-(U1-R_BIAS)*%
X122545000Y-73350000D03*
%TO.P,U1,14,AGND_14*%
%TO.N,GNDA*%
X122545000Y-74000000D03*
%TO.P,U1,15,AVDD_15*%
%TO.N,VDDA*%
X128270000Y-74000000D03*
%TO.P,U1,16,AGND_16*%
%TO.N,GNDA*%
X128270000Y-73350000D03*
%TO.P,U1,17,XOSC_Q2_17*%
%TO.N,/OSC2*%
X128270000Y-72700000D03*
%TO.P,U1,18,XOSC_Q1_18*%
%TO.N,/OSC1*%
X128270000Y-72050000D03*
%TO.P,U1,19,AGND_19*%
%TO.N,GNDA*%
X128270000Y-71400000D03*
%TO.P,U1,20,DGND_20*%
%TO.N,GNDD*%
X128270000Y-70750000D03*
%TO.P,U1,21,DVDD_21*%
%TO.N,VDD*%
X128270000Y-70100000D03*
%TO.P,U1,22,DGND_22*%
%TO.N,GNDD*%
X128270000Y-69450000D03*
%TO.P,U1,23,DIO_23*%
%TO.N,/DIO*%
X128270000Y-68800000D03*
%TO.P,U1,24,DCLK_24*%
%TO.N,/DCLK*%
X128270000Y-68150000D03*
%TO.P,U1,25,PCLK_25*%
%TO.N,/PCLK*%
X128270000Y-67500000D03*
%TO.P,U1,26,PDATA_26*%
%TO.N,/PDATA*%
X128270000Y-66850000D03*
%TO.P,U1,27,PALE_27*%
%TO.N,/PALE*%
X128270000Y-66200000D03*
%TO.P,U1,28,RSSI/IF_28*%
%TO.N,Net-(J3-Pin_1)*%
X128270000Y-65550000D03*
%TD*%
D18*
%TO.P,C1_5,1*%
%TO.N,GNDD*%
X130175000Y-68935000D03*
%TO.P,C1_5,2*%
%TO.N,VDD*%
X130175000Y-70485000D03*
%TD*%
%TO.P,C171,1*%
%TO.N,/OSC1*%
X130810000Y-72250000D03*
%TO.P,C171,2*%
%TO.N,GNDA*%
X130810000Y-73800000D03*
%TD*%
D16*
%TO.P,IC4,1,RF2_1*%
%TO.N,Net-(IC3-RFIN)*%
X120199200Y-67786400D03*
%TO.P,IC4,2,GND_2*%
%TO.N,GNDA*%
X120199200Y-68186400D03*
%TO.P,IC4,3,RF1_3*%
%TO.N,/315Mhz_Out*%
X120199200Y-68586400D03*
%TO.P,IC4,4,VDD_4*%
%TO.N,VDDA*%
X120599200Y-68586400D03*
%TO.P,IC4,5,RFIN_5*%
%TO.N,/OUT_Matching*%
X120599200Y-68186400D03*
%TO.P,IC4,6,CTRL_6*%
%TO.N,/C_RFS_3*%
X120599200Y-67786400D03*
%TD*%
D11*
%TO.P,J12,1,Pin_1_1*%
%TO.N,/C_RFS_9*%
X129159000Y-83312000D03*
%TD*%
D20*
%TO.P,SO1,1,+_1*%
%TO.N,VDDA*%
X125476000Y-50599500D03*
D21*
%TO.P,SO1,2,-_2*%
%TO.N,GNDA*%
X122936000Y-50599500D03*
%TD*%
D22*
%TO.P,L101_0,1,1_1*%
%TO.N,/L_315_1*%
X124477700Y-76136500D03*
%TO.P,L101_0,2,2_2*%
%TO.N,/L_315_2*%
X126377700Y-76136500D03*
%TD*%
D11*
%TO.P,J7,1,Pin_1_1*%
%TO.N,/C_RFS_4*%
X113411000Y-56388000D03*
%TD*%
D23*
%TO.P,C281,1*%
%TO.N,Net-(J3-Pin_1)*%
X131331000Y-63500000D03*
%TO.P,C281,2*%
%TO.N,GNDA*%
X129781000Y-63500000D03*
%TD*%
D16*
%TO.P,IC10,1,RF2_1*%
%TO.N,/L_315_2*%
X128031800Y-76782600D03*
%TO.P,IC10,2,GND_2*%
%TO.N,GNDA*%
X128031800Y-77182600D03*
%TO.P,IC10,3,RF1_3*%
%TO.N,Net-(IC10-RF1)*%
X128031800Y-77582600D03*
%TO.P,IC10,4,VDD_4*%
%TO.N,VDDA*%
X128431800Y-77582600D03*
%TO.P,IC10,5,RFIN_5*%
%TO.N,/L101_2*%
X128431800Y-77182600D03*
%TO.P,IC10,6,CTRL_6*%
%TO.N,/C_RFS_9*%
X128431800Y-76782600D03*
%TD*%
D22*
%TO.P,L101_2,1,1_1*%
%TO.N,/L_915_1*%
X124477700Y-78170300D03*
%TO.P,L101_2,2,2_2*%
%TO.N,/L_915_2*%
X126377700Y-78170300D03*
%TD*%
D10*
%TO.P,C1_1,1*%
%TO.N,GNDA*%
X122415000Y-61595000D03*
%TO.P,C1_1,2*%
%TO.N,VDDA*%
X123965000Y-61595000D03*
%TD*%
D24*
%TO.P,JP1,1,A_1*%
%TO.N,GNDD*%
X119126000Y-52594500D03*
D25*
%TO.P,JP1,2,B_2*%
%TO.N,GNDA*%
X119126000Y-51144500D03*
%TD*%
D22*
%TO.P,L101_1,1,1_1*%
%TO.N,/L_433_1*%
X124477700Y-80225900D03*
%TO.P,L101_1,2,2_2*%
%TO.N,/L_433_2*%
X126377700Y-80225900D03*
%TD*%
D10*
%TO.P,C41_1,1*%
%TO.N,VDDA*%
X114490200Y-68815945D03*
%TO.P,C41_1,2*%
%TO.N,/433Mhz_Out*%
X116040200Y-68815945D03*
%TD*%
D14*
%TO.P,IC5,1,RF2_1*%
%TO.N,/To_Ant_915Mhz*%
X112776000Y-64272793D03*
%TO.P,IC5,2,GND_2*%
%TO.N,GNDA*%
X112776000Y-63872793D03*
%TO.P,IC5,3,RF1_3*%
%TO.N,/To_Ant_433Mhz*%
X112776000Y-63472793D03*
%TO.P,IC5,4,VDD_4*%
%TO.N,VDDA*%
X112376000Y-63472793D03*
%TO.P,IC5,5,RFIN_5*%
%TO.N,Net-(IC5-RFIN)*%
X112376000Y-63872793D03*
%TO.P,IC5,6,CTRL_6*%
%TO.N,/C_RFS_6*%
X112376000Y-64272793D03*
%TD*%
D12*
%TO.P,L41_2,1,1_1*%
%TO.N,/915Mhz_Out*%
X116040200Y-74236183D03*
%TO.P,L41_2,2,2_2*%
%TO.N,VDDA*%
X114140200Y-74236183D03*
%TD*%
D18*
%TO.P,C1_3,1*%
%TO.N,GNDD*%
X133985000Y-68935000D03*
%TO.P,C1_3,2*%
%TO.N,VDD*%
X133985000Y-70485000D03*
%TD*%
D26*
%TO.P,R281,1*%
%TO.N,GNDA*%
X125921000Y-63500000D03*
%TO.P,R281,2*%
%TO.N,Net-(J3-Pin_1)*%
X127571000Y-63500000D03*
%TD*%
D11*
%TO.P,J11,1,Pin_1_1*%
%TO.N,/C_RFS_8*%
X124079000Y-83312000D03*
%TD*%
D10*
%TO.P,C42_2,1*%
%TO.N,/To_Ant_915Mhz*%
X114490200Y-72429437D03*
%TO.P,C42_2,2*%
%TO.N,/915Mhz_Out*%
X116040200Y-72429437D03*
%TD*%
D11*
%TO.P,J9,1,Pin_1_1*%
%TO.N,/C_RFS_6*%
X108331000Y-56388000D03*
%TD*%
D10*
%TO.P,C42_1,1*%
%TO.N,/To_Ant_433Mhz*%
X114490200Y-67259200D03*
%TO.P,C42_1,2*%
%TO.N,/433Mhz_Out*%
X116040200Y-67259200D03*
%TD*%
D20*
%TO.P,SO2,1,+_1*%
%TO.N,VDD*%
X130556000Y-50599500D03*
D21*
%TO.P,SO2,2,-_2*%
%TO.N,GNDD*%
X128016000Y-50599500D03*
%TD*%
D27*
%TO.P,Y1,1,1_1*%
%TO.N,/OSC1*%
X139065000Y-68357500D03*
%TO.P,Y1,2,2_2*%
%TO.N,/OSC2*%
X139065000Y-80232500D03*
%TD*%
D16*
%TO.P,IC1,1,RF2_1*%
%TO.N,/433MHz_In*%
X118522800Y-65944800D03*
%TO.P,IC1,2,GND_2*%
%TO.N,GNDA*%
X118522800Y-66344800D03*
%TO.P,IC1,3,RF1_3*%
%TO.N,/915MHz_In*%
X118522800Y-66744800D03*
%TO.P,IC1,4,VDD_4*%
%TO.N,VDDA*%
X118922800Y-66744800D03*
%TO.P,IC1,5,RFIN_5*%
%TO.N,Net-(IC1-RFIN)*%
X118922800Y-66344800D03*
%TO.P,IC1,6,CTRL_6*%
%TO.N,/C_RFS_2*%
X118922800Y-65944800D03*
%TD*%
D28*
%TO.P,JP2,1,A_1*%
%TO.N,VDD*%
X126926000Y-55679500D03*
D29*
%TO.P,JP2,2,B_2*%
%TO.N,VDDA*%
X125476000Y-55679500D03*
%TD*%
D12*
%TO.P,L32_2,1,1_1*%
%TO.N,/915MHz_In*%
X116040200Y-63895708D03*
%TO.P,L32_2,2,2_2*%
%TO.N,GNDA*%
X114140200Y-63895708D03*
%TD*%
D14*
%TO.P,IC7,1,RF2_1*%
%TO.N,/L_433_1*%
X122809000Y-79376600D03*
%TO.P,IC7,2,GND_2*%
%TO.N,GNDA*%
X122809000Y-78976600D03*
%TO.P,IC7,3,RF1_3*%
%TO.N,/L_915_1*%
X122809000Y-78576600D03*
%TO.P,IC7,4,VDD_4*%
%TO.N,VDDA*%
X122409000Y-78576600D03*
%TO.P,IC7,5,RFIN_5*%
%TO.N,Net-(IC7-RFIN)*%
X122409000Y-78976600D03*
%TO.P,IC7,6,CTRL_6*%
%TO.N,/C_RFS_8*%
X122409000Y-79376600D03*
%TD*%
D30*
%TO.P,AE1,1,A_1*%
%TO.N,/To_Ant*%
X104198000Y-64516000D03*
D31*
%TO.P,AE1,2,Shield_2*%
%TO.N,GNDA*%
X104198000Y-60136000D03*
X104198000Y-68896000D03*
D32*
X107188000Y-60136000D03*
X107188000Y-68896000D03*
D33*
X107638000Y-60136000D03*
X107638000Y-68896000D03*
%TD*%
D16*
%TO.P,IC3,1,RF2_1*%
%TO.N,/433Mhz_Out*%
X118519224Y-67840654D03*
%TO.P,IC3,2,GND_2*%
%TO.N,GNDA*%
X118519224Y-68240654D03*
%TO.P,IC3,3,RF1_3*%
%TO.N,/915Mhz_Out*%
X118519224Y-68640654D03*
%TO.P,IC3,4,VDD_4*%
%TO.N,VDDA*%
X118919224Y-68640654D03*
%TO.P,IC3,5,RFIN_5*%
%TO.N,Net-(IC3-RFIN)*%
X118919224Y-68240654D03*
%TO.P,IC3,6,CTRL_6*%
%TO.N,/C_RFS_4*%
X118919224Y-67840654D03*
%TD*%
D34*
%TO.N,GNDA*%
X116606787Y-69529251D03*
X134620000Y-48260000D03*
X137160000Y-48260000D03*
X139700000Y-48260000D03*
X142240000Y-48260000D03*
X144780000Y-48260000D03*
X147320000Y-48260000D03*
X147320000Y-50800000D03*
X144780000Y-50800000D03*
X142240000Y-50800000D03*
X139700000Y-50800000D03*
X137160000Y-50800000D03*
X134620000Y-50800000D03*
X134620000Y-53340000D03*
X137160000Y-53340000D03*
X137160000Y-53340000D03*
X139700000Y-53340000D03*
X142240000Y-53340000D03*
X144780000Y-53340000D03*
X147320000Y-53340000D03*
X147320000Y-60960000D03*
X147320000Y-63500000D03*
X144780000Y-63500000D03*
X142240000Y-66040000D03*
X144780000Y-66040000D03*
X147320000Y-66040000D03*
X147320000Y-68580000D03*
X144780000Y-68580000D03*
X142240000Y-68580000D03*
X142240000Y-71120000D03*
X144780000Y-71120000D03*
X147320000Y-71120000D03*
X147320000Y-73660000D03*
X144780000Y-73660000D03*
X142240000Y-73660000D03*
X142240000Y-76200000D03*
X144780000Y-76200000D03*
X147320000Y-76200000D03*
X147320000Y-78740000D03*
X144780000Y-78740000D03*
X142240000Y-78740000D03*
X142240000Y-81280000D03*
X144780000Y-81280000D03*
X147320000Y-81280000D03*
X147320000Y-83820000D03*
X144780000Y-83820000D03*
X142240000Y-83820000D03*
X109855000Y-62230000D03*
X109855000Y-60960000D03*
X109855000Y-59690000D03*
X111760000Y-67310000D03*
X110490000Y-67310000D03*
X109220000Y-67310000D03*
X109220000Y-68580000D03*
X110490000Y-68580000D03*
X111760000Y-68580000D03*
X111760000Y-69850000D03*
X110490000Y-69850000D03*
X109220000Y-69850000D03*
X105410000Y-57150000D03*
X104140000Y-57150000D03*
X102870000Y-57150000D03*
X102870000Y-55880000D03*
X104140000Y-55880000D03*
X105410000Y-55880000D03*
X105410000Y-54610000D03*
X104140000Y-54610000D03*
X102870000Y-54610000D03*
X120650000Y-49530000D03*
X120650000Y-48260000D03*
X120650000Y-46990000D03*
X119380000Y-46990000D03*
X119380000Y-48260000D03*
X119380000Y-49530000D03*
X118110000Y-49530000D03*
X118110000Y-48260000D03*
X111760000Y-46990000D03*
X115570000Y-46990000D03*
X105410000Y-46990000D03*
X107950000Y-46990000D03*
X114300000Y-46990000D03*
X118110000Y-46990000D03*
X110490000Y-46990000D03*
X116840000Y-46990000D03*
X109220000Y-46990000D03*
X113030000Y-46990000D03*
X104140000Y-46990000D03*
X106680000Y-46990000D03*
X110490000Y-48260000D03*
X114300000Y-48260000D03*
X104140000Y-48260000D03*
X106680000Y-48260000D03*
X113030000Y-48260000D03*
X116840000Y-48260000D03*
X109220000Y-48260000D03*
X115570000Y-48260000D03*
X107950000Y-48260000D03*
X111760000Y-48260000D03*
X102870000Y-48260000D03*
X105410000Y-48260000D03*
X110490000Y-49530000D03*
X114300000Y-49530000D03*
X104140000Y-49530000D03*
X106680000Y-49530000D03*
X113030000Y-49530000D03*
X116840000Y-49530000D03*
X109220000Y-49530000D03*
X115570000Y-49530000D03*
X107950000Y-49530000D03*
X111760000Y-49530000D03*
X102870000Y-49530000D03*
X105410000Y-49530000D03*
X110490000Y-50800000D03*
X114300000Y-50800000D03*
X104140000Y-50800000D03*
X106680000Y-50800000D03*
X113030000Y-50800000D03*
X116840000Y-50800000D03*
X109220000Y-50800000D03*
X115570000Y-50800000D03*
X107950000Y-50800000D03*
X111760000Y-50800000D03*
X102870000Y-50800000D03*
X105410000Y-50800000D03*
X110490000Y-52070000D03*
X114300000Y-52070000D03*
X104140000Y-52070000D03*
X106680000Y-52070000D03*
X113030000Y-52070000D03*
X116840000Y-52070000D03*
X109220000Y-52070000D03*
X115570000Y-52070000D03*
X107950000Y-52070000D03*
X111760000Y-52070000D03*
X102870000Y-52070000D03*
X105410000Y-52070000D03*
X116840000Y-53340000D03*
X115570000Y-53340000D03*
X114300000Y-53340000D03*
X113030000Y-53340000D03*
X105410000Y-53340000D03*
X106680000Y-53340000D03*
X104140000Y-53340000D03*
X109220000Y-53340000D03*
X102870000Y-53340000D03*
X111760000Y-53340000D03*
X107950000Y-53340000D03*
X110490000Y-53340000D03*
X105410000Y-71120000D03*
X106680000Y-71120000D03*
X104140000Y-71120000D03*
X109220000Y-71120000D03*
X102870000Y-71120000D03*
X111760000Y-71120000D03*
X107950000Y-71120000D03*
X110490000Y-71120000D03*
X105410000Y-72390000D03*
X106680000Y-72390000D03*
X104140000Y-72390000D03*
X109220000Y-72390000D03*
X102870000Y-72390000D03*
X111760000Y-72390000D03*
X107950000Y-72390000D03*
X110490000Y-72390000D03*
X105410000Y-73660000D03*
X106680000Y-73660000D03*
X104140000Y-73660000D03*
X109220000Y-73660000D03*
X102870000Y-73660000D03*
X111760000Y-73660000D03*
X107950000Y-73660000D03*
X110490000Y-73660000D03*
X102870000Y-74930000D03*
X104140000Y-74930000D03*
X105410000Y-74930000D03*
X106680000Y-74930000D03*
X107950000Y-74930000D03*
X109220000Y-74930000D03*
X110490000Y-74930000D03*
X111760000Y-74930000D03*
X118110000Y-74930000D03*
X119380000Y-76200000D03*
X119380000Y-77470000D03*
X119380000Y-78740000D03*
X119380000Y-80010000D03*
X119380000Y-81280000D03*
X119380000Y-82550000D03*
X119380000Y-83820000D03*
X118110000Y-77470000D03*
X118110000Y-76200000D03*
X116840000Y-76200000D03*
X115570000Y-76200000D03*
X116840000Y-77470000D03*
X116840000Y-78740000D03*
X118110000Y-78740000D03*
X118110000Y-81280000D03*
X118110000Y-82550000D03*
X116840000Y-82550000D03*
X118110000Y-83820000D03*
X116840000Y-83820000D03*
X115570000Y-83820000D03*
X114300000Y-83820000D03*
X113030000Y-83820000D03*
X111760000Y-83820000D03*
X110490000Y-83820000D03*
X109220000Y-83820000D03*
X106680000Y-83820000D03*
X107950000Y-83820000D03*
X105410000Y-83820000D03*
X102870000Y-82550000D03*
X104140000Y-83820000D03*
X102870000Y-81280000D03*
X104140000Y-81280000D03*
X105410000Y-80010000D03*
X104140000Y-80010000D03*
X102870000Y-80010000D03*
X102870000Y-78740000D03*
X102870000Y-77470000D03*
X114300000Y-76200000D03*
X104140000Y-76200000D03*
X110490000Y-76200000D03*
X107950000Y-76200000D03*
X113030000Y-76200000D03*
X106680000Y-76200000D03*
X105410000Y-76200000D03*
X111760000Y-76200000D03*
X109220000Y-76200000D03*
X102870000Y-76200000D03*
X115570000Y-77470000D03*
X105410000Y-77470000D03*
X111760000Y-77470000D03*
X109220000Y-77470000D03*
X114300000Y-77470000D03*
X107950000Y-77470000D03*
X106680000Y-77470000D03*
X113030000Y-77470000D03*
X110490000Y-77470000D03*
X104140000Y-77470000D03*
X115570000Y-78740000D03*
X105410000Y-78740000D03*
X111760000Y-78740000D03*
X109220000Y-78740000D03*
X114300000Y-78740000D03*
X107950000Y-78740000D03*
X106680000Y-78740000D03*
X113030000Y-78740000D03*
X110490000Y-78740000D03*
X104140000Y-78740000D03*
X118110000Y-80010000D03*
X107950000Y-80010000D03*
X114300000Y-80010000D03*
X111760000Y-80010000D03*
X116840000Y-80010000D03*
X110490000Y-80010000D03*
X109220000Y-80010000D03*
X115570000Y-80010000D03*
X113030000Y-80010000D03*
X106680000Y-80010000D03*
X116840000Y-81280000D03*
X106680000Y-81280000D03*
X113030000Y-81280000D03*
X110490000Y-81280000D03*
X115570000Y-81280000D03*
X109220000Y-81280000D03*
X107950000Y-81280000D03*
X114300000Y-81280000D03*
X111760000Y-81280000D03*
X105410000Y-81280000D03*
X115570000Y-82550000D03*
X114300000Y-82550000D03*
X113030000Y-82550000D03*
X111760000Y-82550000D03*
X110490000Y-82550000D03*
X109220000Y-82550000D03*
X107950000Y-82550000D03*
X106680000Y-82550000D03*
X105410000Y-82550000D03*
X104140000Y-82550000D03*
X109982000Y-63500000D03*
X107442000Y-63500000D03*
X108966000Y-63500000D03*
X107950000Y-63500000D03*
X108458000Y-63500000D03*
X109474000Y-63500000D03*
X109982000Y-65151000D03*
X107442000Y-65151000D03*
X108966000Y-65151000D03*
X107950000Y-65151000D03*
X108458000Y-65151000D03*
X109474000Y-65151000D03*
X110236000Y-64770000D03*
X109728000Y-64770000D03*
X109220000Y-64770000D03*
X108712000Y-64770000D03*
X108204000Y-64770000D03*
X107696000Y-64770000D03*
X107188000Y-64770000D03*
X107188000Y-63881000D03*
X107696000Y-63881000D03*
X108204000Y-63881000D03*
X108712000Y-63881000D03*
X109220000Y-63881000D03*
X109728000Y-63881000D03*
X110236000Y-63881000D03*
%TO.N,/To_Ant_315Mhz*%
X111633000Y-64897000D03*
%TO.N,/C_RFS_5*%
X111052000Y-65269793D03*
%TO.N,GNDA*%
X111695620Y-64262000D03*
%TO.N,VDDA*%
X112133000Y-63256793D03*
%TO.N,/C_RFS_6*%
X112322000Y-64634793D03*
%TO.N,GNDA*%
X120977936Y-69350820D03*
X121031393Y-69788995D03*
X121030400Y-70263997D03*
X121158000Y-72263000D03*
X121030400Y-70739000D03*
X119148384Y-72502047D03*
X119618608Y-72569259D03*
X119950342Y-72237524D03*
X119255926Y-71727074D03*
X119719336Y-71831375D03*
X120234158Y-71864800D03*
X115094997Y-75438000D03*
X115570000Y-75438000D03*
X116024588Y-75428748D03*
X116498967Y-75453075D03*
X116967000Y-75372006D03*
X116967000Y-74897003D03*
X116967000Y-74422000D03*
X116899498Y-74001604D03*
X116848890Y-73529305D03*
X116840000Y-73027298D03*
X116841316Y-72597713D03*
X116838490Y-72122719D03*
X117464731Y-71478469D03*
X117155632Y-71787568D03*
X117832880Y-68723441D03*
X117830400Y-69126983D03*
X117855400Y-69601984D03*
X117557776Y-69884003D03*
X117394938Y-70346179D03*
X116967000Y-70706003D03*
X116841823Y-69899934D03*
X116840200Y-68935600D03*
X117407938Y-68265654D03*
X116967000Y-68265654D03*
X116967000Y-67310000D03*
X117094000Y-66040000D03*
X117094000Y-65532000D03*
X117094000Y-65024000D03*
X113284000Y-59588400D03*
X113790577Y-59215277D03*
X114401600Y-59182000D03*
X114909600Y-59232800D03*
X115468400Y-59232800D03*
X115976400Y-59029600D03*
X116484400Y-59080400D03*
X116920479Y-59355521D03*
X116941600Y-60045600D03*
X117094000Y-60960000D03*
X117094000Y-61341000D03*
X117094000Y-61722000D03*
X117094000Y-62103000D03*
X117094000Y-62484000D03*
X117856000Y-62865000D03*
X118237000Y-62865000D03*
%TO.N,VDDA*%
X118618000Y-62865000D03*
X118999000Y-62865000D03*
X119761000Y-62865000D03*
X120142000Y-62865000D03*
X120523000Y-62865000D03*
%TO.N,GNDA*%
X122545000Y-68800000D03*
X130810000Y-73800000D03*
X128270000Y-71400000D03*
X119126000Y-51144500D03*
X117823003Y-68265654D03*
X122415000Y-63500000D03*
X114140200Y-63895708D03*
X129781000Y-63500000D03*
X122545000Y-69450000D03*
X122545000Y-70100000D03*
X122545000Y-66200000D03*
X118936000Y-73355200D03*
X132715000Y-74155000D03*
X122415000Y-61595000D03*
X127566700Y-78955900D03*
X122545000Y-74000000D03*
X122415000Y-59690000D03*
X123477300Y-76923900D03*
X118280400Y-64211200D03*
X123274100Y-78981300D03*
X119687423Y-68275199D03*
X117866506Y-66512094D03*
X125921000Y-63500000D03*
X114140200Y-60282216D03*
X127617500Y-77152500D03*
X128270000Y-73350000D03*
%TO.N,VDDA*%
X123965000Y-61417200D03*
X123965000Y-63322200D03*
X119456200Y-66929000D03*
X114140200Y-74236183D03*
X123965000Y-59690000D03*
X119126000Y-68935600D03*
X118280400Y-70662800D03*
X121158000Y-68834000D03*
X125476000Y-55679500D03*
X122545000Y-68150000D03*
X122029500Y-78574900D03*
X128709700Y-79590900D03*
X128938300Y-77584300D03*
X128270000Y-74000000D03*
X114490200Y-68815945D03*
X122545000Y-65550000D03*
X122105700Y-76492100D03*
X114140200Y-70622691D03*
X122545000Y-70750000D03*
X120934131Y-67014867D03*
%TO.N,/C_RFS_1*%
X120980400Y-65811400D03*
%TO.N,/C_RFS_2*%
X119329200Y-65328800D03*
%TO.N,/C_RFS_3*%
X121081800Y-67589400D03*
%TO.N,/C_RFS_4*%
X117830400Y-67371287D03*
%TO.N,/C_RFS_7*%
X122054900Y-77609700D03*
%TO.N,/C_RFS_8*%
X122131100Y-79667100D03*
%TO.N,/C_RFS_9*%
X128760500Y-76466700D03*
%TO.N,/C_RFS_10*%
X128862100Y-78549500D03*
%TO.N,/315MHz_In*%
X120227780Y-65646590D03*
%TO.N,Net-(J2-Pin_1)*%
X122453400Y-72720200D03*
%TO.N,Net-(J3-Pin_1)*%
X131331000Y-63500000D03*
%TO.N,/315Mhz_Out*%
X120199200Y-69030800D03*
%TO.N,/PALE*%
X128371600Y-66217800D03*
%TO.N,/DIO*%
X128295400Y-68834000D03*
%TO.N,/DCLK*%
X128320800Y-68173600D03*
%TO.N,/PCLK*%
X128295400Y-67513200D03*
%TO.N,/PDATA*%
X128371600Y-66852800D03*
%TD*%
%TO.N,/To_Ant*%
D35*
X104388707Y-64325293D02*
X104198000Y-64516000D01*
X110923500Y-64325293D02*
X104388707Y-64325293D01*
%TO.N,/To_Ant_315Mhz*%
X111461293Y-64725293D02*
X111633000Y-64897000D01*
X111323500Y-64725293D02*
X111461293Y-64725293D01*
%TO.N,/To_Ant_915Mhz*%
X114205661Y-65702454D02*
X114490200Y-65702454D01*
X112776000Y-64272793D02*
X114205661Y-65702454D01*
%TO.N,/To_Ant_433Mhz*%
X114159831Y-62088962D02*
X114490200Y-62088962D01*
X112776000Y-63472793D02*
X114159831Y-62088962D01*
%TO.N,GNDA*%
X114117285Y-63872793D02*
X114140200Y-63895708D01*
X112776000Y-63872793D02*
X114117285Y-63872793D01*
%TO.N,/C_RFS_5*%
X110923500Y-65141293D02*
X111052000Y-65269793D01*
X110923500Y-64725293D02*
X110923500Y-65141293D01*
%TO.N,GNDA*%
X111615500Y-64325293D02*
X111323500Y-64325293D01*
X111687413Y-64253793D02*
X111687000Y-64253793D01*
X111687000Y-64253793D02*
X111615500Y-64325293D01*
X111695620Y-64262000D02*
X111687413Y-64253793D01*
%TO.N,/C_RFS_6*%
X112376000Y-64283793D02*
X112322000Y-64337793D01*
X112322000Y-64337793D02*
X112322000Y-64634793D01*
%TO.N,Net-(IC5-RFIN)*%
X112044970Y-63745793D02*
X112171970Y-63872793D01*
X112171970Y-63872793D02*
X112376000Y-63872793D01*
X111503000Y-63745793D02*
X112044970Y-63745793D01*
X111323500Y-63925293D02*
X111503000Y-63745793D01*
%TO.N,VDDA*%
X111387970Y-63256793D02*
X112133000Y-63256793D01*
X110923500Y-63721263D02*
X111387970Y-63256793D01*
X110923500Y-63925293D02*
X110923500Y-63721263D01*
X112349000Y-63472793D02*
X112133000Y-63256793D01*
%TO.N,GNDA*%
X118144546Y-68240654D02*
X118519224Y-68240654D01*
X118119546Y-68265654D02*
X118144546Y-68240654D01*
X117823003Y-68265654D02*
X118119546Y-68265654D01*
%TO.N,/IN_Matching*%
X120885000Y-66351200D02*
X121383800Y-66850000D01*
X120624600Y-66351200D02*
X120885000Y-66351200D01*
X121383800Y-66850000D02*
X122545000Y-66850000D01*
%TO.N,GNDA*%
X120199200Y-68186400D02*
X119776222Y-68186400D01*
X119776222Y-68186400D02*
X119687423Y-68275199D01*
X119974416Y-66351200D02*
X119684800Y-66061584D01*
X121283541Y-65132400D02*
X121532500Y-65381359D01*
X128031800Y-78960600D02*
X127571400Y-78960600D01*
X127647600Y-77182600D02*
X127617500Y-77152500D01*
X123151800Y-78976600D02*
X122809000Y-78976600D01*
X119754200Y-65335600D02*
X119957400Y-65132400D01*
X121532500Y-65381359D02*
X121532500Y-65924999D01*
X119684800Y-66061584D02*
X119684800Y-65574241D01*
X122415000Y-63500000D02*
X122415000Y-59690000D01*
X128031800Y-77182600D02*
X127647600Y-77182600D01*
X123156500Y-78981300D02*
X123151800Y-78976600D01*
X123477300Y-76939900D02*
X123218600Y-77198600D01*
X121532500Y-65924999D02*
X121807501Y-66200000D01*
X119684800Y-65574241D02*
X119754200Y-65504841D01*
X123274100Y-78981300D02*
X123156500Y-78981300D01*
X123477300Y-76923900D02*
X123477300Y-76939900D01*
X119957400Y-65132400D02*
X121283541Y-65132400D01*
X118211600Y-66344800D02*
X118522800Y-66344800D01*
X121807501Y-66200000D02*
X122545000Y-66200000D01*
X123218600Y-77198600D02*
X122834400Y-77198600D01*
X119754200Y-65504841D02*
X119754200Y-65335600D01*
X118044306Y-66512094D02*
X118211600Y-66344800D01*
X117866506Y-66512094D02*
X118044306Y-66512094D01*
X120224600Y-66351200D02*
X119974416Y-66351200D01*
X127571400Y-78960600D02*
X127566700Y-78955900D01*
%TO.N,VDDA*%
X119456200Y-66929000D02*
X119397290Y-66870090D01*
X128433500Y-77584300D02*
X128431800Y-77582600D01*
X120853200Y-68834000D02*
X120605600Y-68586400D01*
X122105700Y-76492100D02*
X122080300Y-76466700D01*
X122518200Y-68176800D02*
X122545000Y-68150000D01*
X120605600Y-68586400D02*
X120599200Y-68586400D01*
X120837467Y-67014867D02*
X120624600Y-66802000D01*
X118919224Y-68640654D02*
X119126000Y-68847430D01*
X128479400Y-79360600D02*
X128709700Y-79590900D01*
X122434400Y-76798600D02*
X122412200Y-76798600D01*
X122336000Y-78576600D02*
X122409000Y-78576600D01*
X119048090Y-66870090D02*
X118922800Y-66744800D01*
X123965000Y-61417200D02*
X123965000Y-59690000D01*
X122029500Y-78574900D02*
X122334300Y-78574900D01*
X128938300Y-77584300D02*
X128433500Y-77584300D01*
X120934131Y-67014867D02*
X120837467Y-67014867D01*
X119126000Y-68847430D02*
X119126000Y-68935600D01*
X128431800Y-79360600D02*
X128479400Y-79360600D01*
X120624600Y-66802000D02*
X120624600Y-66751200D01*
X122412200Y-76798600D02*
X122105700Y-76492100D01*
X123965000Y-63322200D02*
X123965000Y-61417200D01*
X119397290Y-66870090D02*
X119048090Y-66870090D01*
X123965000Y-63500000D02*
X123965000Y-63322200D01*
X122334300Y-78574900D02*
X122336000Y-78576600D01*
X121158000Y-68834000D02*
X120853200Y-68834000D01*
%TO.N,/C_RFS_1*%
X120840400Y-65951200D02*
X120624600Y-65951200D01*
X120980200Y-65811400D02*
X120840400Y-65951200D01*
X120980400Y-65811400D02*
X120980200Y-65811400D01*
%TO.N,/C_RFS_2*%
X119329200Y-65582800D02*
X118967200Y-65944800D01*
X118967200Y-65944800D02*
X118922800Y-65944800D01*
X119329200Y-65328800D02*
X119329200Y-65582800D01*
%TO.N,/C_RFS_3*%
X120864564Y-67499164D02*
X120853200Y-67487800D01*
X121081800Y-67589400D02*
X120991564Y-67499164D01*
X120853200Y-67487800D02*
X120751600Y-67487800D01*
X120991564Y-67499164D02*
X120864564Y-67499164D01*
X120864484Y-67499084D02*
X120740316Y-67499084D01*
X120599200Y-67640200D02*
X120599200Y-67786400D01*
X120740316Y-67499084D02*
X120599200Y-67640200D01*
X120864564Y-67499164D02*
X120864484Y-67499084D01*
%TO.N,/C_RFS_4*%
X118110000Y-67386200D02*
X118160800Y-67437000D01*
X118311540Y-67437000D02*
X118315194Y-67440654D01*
X118922800Y-67538600D02*
X118922800Y-67837078D01*
X118821200Y-67538600D02*
X118922800Y-67538600D01*
X118950946Y-67840654D02*
X118919224Y-67840654D01*
X117830400Y-67371287D02*
X117845313Y-67386200D01*
X117845313Y-67386200D02*
X118110000Y-67386200D01*
X118160800Y-67437000D02*
X118311540Y-67437000D01*
X118315194Y-67440654D02*
X118723254Y-67440654D01*
X118922800Y-67837078D02*
X118919224Y-67840654D01*
X118723254Y-67440654D02*
X118821200Y-67538600D01*
%TO.N,/C_RFS_7*%
X122385100Y-77609700D02*
X122396200Y-77598600D01*
X122396200Y-77598600D02*
X122434400Y-77598600D01*
X122054900Y-77609700D02*
X122385100Y-77609700D01*
%TO.N,/C_RFS_8*%
X122409000Y-79389200D02*
X122131100Y-79667100D01*
X122409000Y-79376600D02*
X122409000Y-79389200D01*
%TO.N,/C_RFS_9*%
X128431800Y-76782600D02*
X128444600Y-76782600D01*
X128444600Y-76782600D02*
X128760500Y-76466700D01*
%TO.N,/C_RFS_10*%
X128862100Y-78549500D02*
X128481100Y-78549500D01*
X128481100Y-78549500D02*
X128470000Y-78560600D01*
X128470000Y-78560600D02*
X128431800Y-78560600D01*
%TO.N,/L_315_1*%
X124477700Y-76507700D02*
X124477700Y-76136500D01*
X123496500Y-76136500D02*
X124477700Y-76136500D01*
X122834400Y-76798600D02*
X123496500Y-76136500D01*
%TO.N,Net-(IC7-RFIN)*%
X121853459Y-78999900D02*
X121604500Y-78750941D01*
X122409000Y-78976600D02*
X122228841Y-78976600D01*
X122834400Y-77598600D02*
X122864100Y-77628300D01*
X122205541Y-78999900D02*
X121853459Y-78999900D01*
X121604500Y-78750941D02*
X121604500Y-78398859D01*
X122834400Y-77802630D02*
X122834400Y-77598600D01*
X122602330Y-78034700D02*
X122834400Y-77802630D01*
X122228841Y-78976600D02*
X122205541Y-78999900D01*
X121968659Y-78034700D02*
X122602330Y-78034700D01*
X121604500Y-78398859D02*
X121968659Y-78034700D01*
%TO.N,/L101_1*%
X119911000Y-74898441D02*
X119911000Y-72877908D01*
X122211159Y-77198600D02*
X119911000Y-74898441D01*
X122434400Y-77198600D02*
X122211159Y-77198600D01*
X119911000Y-72877908D02*
X121388908Y-71400000D01*
X121388908Y-71400000D02*
X122545000Y-71400000D01*
%TO.N,Net-(U1-R_BIAS)*%
X120586000Y-73355200D02*
X122539800Y-73355200D01*
X122539800Y-73355200D02*
X122545000Y-73350000D01*
%TO.N,/433Mhz_Out*%
X118519224Y-67840654D02*
X116621654Y-67840654D01*
X116040200Y-70622691D02*
X116040200Y-67259200D01*
X116621654Y-67840654D02*
X116040200Y-67259200D01*
%TO.N,/315MHz_In*%
X120224600Y-65951200D02*
X120224600Y-65741600D01*
%TO.N,Net-(IC1-RFIN)*%
X119405400Y-66344800D02*
X119564600Y-66504000D01*
X119879441Y-66751200D02*
X120224600Y-66751200D01*
X119564600Y-66504000D02*
X119632241Y-66504000D01*
X118922800Y-66344800D02*
X119405400Y-66344800D01*
X119632241Y-66504000D02*
X119879441Y-66751200D01*
%TO.N,/L_433_2*%
X127750700Y-79641700D02*
X128031800Y-79360600D01*
X126961900Y-79641700D02*
X127750700Y-79641700D01*
X126377700Y-80225900D02*
X126961900Y-79641700D01*
%TO.N,/L_915_2*%
X126377700Y-78170300D02*
X126528300Y-78320900D01*
X127792100Y-78320900D02*
X128031800Y-78560600D01*
X126528300Y-78320900D02*
X127792100Y-78320900D01*
%TO.N,Net-(IC10-RF1)*%
X129038141Y-78974500D02*
X129287100Y-78725541D01*
X128686059Y-78974500D02*
X129038141Y-78974500D01*
X128031800Y-77786630D02*
X128031800Y-77582600D01*
X128672159Y-78960600D02*
X128686059Y-78974500D01*
X128254470Y-78009300D02*
X128031800Y-77786630D01*
X129287100Y-78725541D02*
X129287100Y-78373459D01*
X129287100Y-78373459D02*
X128922941Y-78009300D01*
X128922941Y-78009300D02*
X128254470Y-78009300D01*
X128431800Y-78960600D02*
X128672159Y-78960600D01*
%TO.N,/OSC2*%
X130060000Y-73752501D02*
X130060000Y-74238342D01*
X131526658Y-75705000D02*
X132715000Y-75705000D01*
X132715000Y-75705000D02*
X134537500Y-75705000D01*
X128270000Y-72700000D02*
X129007499Y-72700000D01*
X134537500Y-75705000D02*
X139065000Y-80232500D01*
X129007499Y-72700000D02*
X130060000Y-73752501D01*
X130060000Y-74238342D02*
X131526658Y-75705000D01*
%TO.N,/433MHz_In*%
X116815200Y-62863962D02*
X116815200Y-64237200D01*
X116815200Y-64237200D02*
X118522800Y-65944800D01*
X116040200Y-62088962D02*
X116040200Y-60282216D01*
X116040200Y-62088962D02*
X116815200Y-62863962D01*
%TO.N,Net-(J3-Pin_1)*%
X129281000Y-65550000D02*
X128270000Y-65550000D01*
X128270000Y-65550000D02*
X127571000Y-64851000D01*
X131331000Y-63500000D02*
X129281000Y-65550000D01*
X127571000Y-64851000D02*
X127571000Y-63500000D01*
%TO.N,/915Mhz_Out*%
X116040200Y-72301959D02*
X118519224Y-69822935D01*
X116040200Y-74236183D02*
X116040200Y-72429437D01*
X116040200Y-72429437D02*
X116040200Y-72301959D01*
X118519224Y-69822935D02*
X118519224Y-68640654D01*
%TO.N,Net-(IC3-RFIN)*%
X119123254Y-68240654D02*
X118919224Y-68240654D01*
X119319224Y-68039735D02*
X119319224Y-68044684D01*
X120199200Y-67786400D02*
X120174200Y-67761400D01*
X120174200Y-67761400D02*
X119597559Y-67761400D01*
X119597559Y-67761400D02*
X119319224Y-68039735D01*
X119319224Y-68044684D02*
X119123254Y-68240654D01*
%TO.N,GNDD*%
X128016000Y-50599500D02*
X124256800Y-54358700D01*
X130175000Y-68935000D02*
X129660000Y-69450000D01*
X124256800Y-54358700D02*
X124256800Y-57048400D01*
X126021000Y-52594500D02*
X119126000Y-52594500D01*
X128041400Y-60833000D02*
X130708400Y-60833000D01*
X133985000Y-68935000D02*
X130175000Y-68935000D01*
X133985000Y-64109600D02*
X133985000Y-68935000D01*
X128016000Y-50599500D02*
X126021000Y-52594500D01*
X130708400Y-60833000D02*
X133985000Y-64109600D01*
X124256800Y-57048400D02*
X128041400Y-60833000D01*
X129660000Y-69450000D02*
X128270000Y-69450000D01*
%TO.N,VDD*%
X135255000Y-64008500D02*
X135255000Y-69697600D01*
X130556000Y-50599500D02*
X130556000Y-52049500D01*
X134467600Y-70485000D02*
X133985000Y-70485000D01*
X130175000Y-70485000D02*
X133985000Y-70485000D01*
X130175000Y-70485000D02*
X129790000Y-70100000D01*
X126926000Y-55679500D02*
X135255000Y-64008500D01*
X130556000Y-52049500D02*
X126926000Y-55679500D01*
X135255000Y-69697600D02*
X134467600Y-70485000D01*
X129790000Y-70100000D02*
X128270000Y-70100000D01*
%TO.N,/OUT_Matching*%
X121196000Y-68186400D02*
X121882400Y-67500000D01*
X121882400Y-67500000D02*
X122545000Y-67500000D01*
X120599200Y-68186400D02*
X121196000Y-68186400D01*
%TO.N,/L101_2*%
X128645641Y-77182600D02*
X129185500Y-76642741D01*
X129185500Y-76642741D02*
X129185500Y-76290659D01*
X129185500Y-76290659D02*
X124944841Y-72050000D01*
X128431800Y-77182600D02*
X128645641Y-77182600D01*
X124944841Y-72050000D02*
X122545000Y-72050000D01*
%TO.N,/OSC1*%
X128270000Y-72050000D02*
X130610000Y-72050000D01*
X135172500Y-72250000D02*
X130810000Y-72250000D01*
X130610000Y-72050000D02*
X130810000Y-72250000D01*
X139065000Y-68357500D02*
X135172500Y-72250000D01*
%TO.N,/315Mhz_Out*%
X120199200Y-69030800D02*
X120199200Y-68586400D01*
%TO.N,/L_315_2*%
X128031800Y-76782600D02*
X127385700Y-76136500D01*
X127385700Y-76136500D02*
X126377700Y-76136500D01*
%TO.N,/To_Ant_433Mhz*%
X114490200Y-62088962D02*
X115215200Y-62813962D01*
X115215200Y-62813962D02*
X115215200Y-66534200D01*
X115215200Y-66534200D02*
X114490200Y-67259200D01*
%TO.N,/L_915_1*%
X124477700Y-78170300D02*
X124339100Y-78170300D01*
X122937700Y-78447900D02*
X122809000Y-78576600D01*
X124339100Y-78170300D02*
X124061500Y-78447900D01*
X124061500Y-78447900D02*
X122937700Y-78447900D01*
%TO.N,/L_433_1*%
X123074100Y-79641700D02*
X122809000Y-79376600D01*
X123893500Y-79641700D02*
X123074100Y-79641700D01*
X124477700Y-80225900D02*
X123893500Y-79641700D01*
%TO.N,/915MHz_In*%
X116040200Y-65702454D02*
X116040200Y-63895708D01*
X118330506Y-66937094D02*
X118522800Y-66744800D01*
X117274840Y-66937094D02*
X118330506Y-66937094D01*
X116040200Y-65702454D02*
X117274840Y-66937094D01*
%TO.N,/To_Ant_915Mhz*%
X114915200Y-72004437D02*
X114915200Y-69923301D01*
X113765200Y-66427454D02*
X114490200Y-65702454D01*
X114587899Y-69596000D02*
X114081913Y-69596000D01*
X113765200Y-69279287D02*
X113765200Y-66427454D01*
X114081913Y-69596000D02*
X113765200Y-69279287D01*
X114915200Y-69923301D02*
X114587899Y-69596000D01*
X114490200Y-72429437D02*
X114915200Y-72004437D01*
%TD*%
%TA.AperFunction,Conductor*%
%TO.N,GNDA*%
G36*
X146727953Y-46238523D02*
G01*
X146728057Y-46238551D01*
X146789941Y-46238551D01*
X146797995Y-46238816D01*
X147052065Y-46255468D01*
X147068121Y-46257583D01*
X147313837Y-46306459D01*
X147329503Y-46310657D01*
X147480685Y-46361976D01*
X147566737Y-46391187D01*
X147581714Y-46397390D01*
X147769805Y-46490146D01*
X147806409Y-46508197D01*
X147820457Y-46516307D01*
X148028764Y-46655494D01*
X148041628Y-46665365D01*
X148229982Y-46830548D01*
X148241451Y-46842017D01*
X148402088Y-47025188D01*
X148406634Y-47030371D01*
X148416508Y-47043239D01*
X148555692Y-47251543D01*
X148563802Y-47265590D01*
X148648682Y-47437710D01*
X148673094Y-47487213D01*
X148674606Y-47490278D01*
X148680813Y-47505264D01*
X148761342Y-47742496D01*
X148765540Y-47758162D01*
X148803774Y-47950374D01*
X148814022Y-48001896D01*
X148814414Y-48003864D01*
X148816532Y-48019946D01*
X148833184Y-48274007D01*
X148833449Y-48282117D01*
X148833449Y-55993941D01*
X148813764Y-56060980D01*
X148760960Y-56106735D01*
X148691802Y-56116679D01*
X148666116Y-56110123D01*
X148531482Y-56059908D01*
X148531483Y-56059908D01*
X148471883Y-56053501D01*
X148471881Y-56053500D01*
X148471873Y-56053500D01*
X148471864Y-56053500D01*
X146676129Y-56053500D01*
X146676123Y-56053501D01*
X146616516Y-56059908D01*
X146481671Y-56110202D01*
X146481664Y-56110206D01*
X146366455Y-56196452D01*
X146366452Y-56196455D01*
X146280206Y-56311664D01*
X146280203Y-56311669D01*
X146231189Y-56443083D01*
X146189317Y-56499016D01*
X146123853Y-56523433D01*
X146055580Y-56508581D01*
X146027326Y-56487430D01*
X145913786Y-56373890D01*
X145741820Y-56248951D01*
X145552414Y-56152444D01*
X145552413Y-56152443D01*
X145552412Y-56152443D01*
X145350243Y-56086754D01*
X145350241Y-56086753D01*
X145350240Y-56086753D01*
X145188957Y-56061208D01*
X145140287Y-56053500D01*
X144927713Y-56053500D01*
X144879042Y-56061208D01*
X144717760Y-56086753D01*
X144515585Y-56152444D01*
X144326179Y-56248951D01*
X144154213Y-56373890D01*
X144003890Y-56524213D01*
X143878949Y-56696182D01*
X143874484Y-56704946D01*
X143826509Y-56755742D01*
X143758688Y-56772536D01*
X143692553Y-56749998D01*
X143653516Y-56704946D01*
X143649050Y-56696182D01*
X143524109Y-56524213D01*
X143373786Y-56373890D01*
X143201820Y-56248951D01*
X143012414Y-56152444D01*
X143012413Y-56152443D01*
X143012412Y-56152443D01*
X142810243Y-56086754D01*
X142810241Y-56086753D01*
X142810240Y-56086753D01*
X142648957Y-56061208D01*
X142600287Y-56053500D01*
X142387713Y-56053500D01*
X142339042Y-56061208D01*
X142177760Y-56086753D01*
X141975585Y-56152444D01*
X141786179Y-56248951D01*
X141614213Y-56373890D01*
X141463890Y-56524213D01*
X141338949Y-56696182D01*
X141334484Y-56704946D01*
X141286509Y-56755742D01*
X141218688Y-56772536D01*
X141152553Y-56749998D01*
X141113516Y-56704946D01*
X141109050Y-56696182D01*
X140984109Y-56524213D01*
X140833786Y-56373890D01*
X140661820Y-56248951D01*
X140472414Y-56152444D01*
X140472413Y-56152443D01*
X140472412Y-56152443D01*
X140270243Y-56086754D01*
X140270241Y-56086753D01*
X140270240Y-56086753D01*
X140108957Y-56061208D01*
X140060287Y-56053500D01*
X139847713Y-56053500D01*
X139799042Y-56061208D01*
X139637760Y-56086753D01*
X139435585Y-56152444D01*
X139246179Y-56248951D01*
X139074213Y-56373890D01*
X138923890Y-56524213D01*
X138798949Y-56696182D01*
X138794484Y-56704946D01*
X138746509Y-56755742D01*
X138678688Y-56772536D01*
X138612553Y-56749998D01*
X138573516Y-56704946D01*
X138569050Y-56696182D01*
X138444109Y-56524213D01*
X138293786Y-56373890D01*
X138121820Y-56248951D01*
X137932414Y-56152444D01*
X137932413Y-56152443D01*
X137932412Y-56152443D01*
X137730243Y-56086754D01*
X137730241Y-56086753D01*
X137730240Y-56086753D01*
X137568957Y-56061208D01*
X137520287Y-56053500D01*
X137307713Y-56053500D01*
X137259042Y-56061208D01*
X137097760Y-56086753D01*
X136895585Y-56152444D01*
X136706179Y-56248951D01*
X136534215Y-56373889D01*
X136420673Y-56487431D01*
X136359350Y-56520915D01*
X136289658Y-56515931D01*
X136233725Y-56474059D01*
X136216810Y-56443082D01*
X136167797Y-56311671D01*
X136167793Y-56311664D01*
X136081547Y-56196455D01*
X136081544Y-56196452D01*
X135966335Y-56110206D01*
X135966328Y-56110202D01*
X135831482Y-56059908D01*
X135831483Y-56059908D01*
X135771883Y-56053501D01*
X135771881Y-56053500D01*
X135771873Y-56053500D01*
X135771864Y-56053500D01*
X133976129Y-56053500D01*
X133976123Y-56053501D01*
X133916516Y-56059908D01*
X133781671Y-56110202D01*
X133781669Y-56110203D01*
X133678311Y-56187578D01*
X133612847Y-56211995D01*
X133544574Y-56197144D01*
X133529689Y-56187578D01*
X133426330Y-56110203D01*
X133426328Y-56110202D01*
X133291482Y-56059908D01*
X133291483Y-56059908D01*
X133231883Y-56053501D01*
X133231881Y-56053500D01*
X133231873Y-56053500D01*
X133231864Y-56053500D01*
X131436129Y-56053500D01*
X131436123Y-56053501D01*
X131376516Y-56059908D01*
X131241671Y-56110202D01*
X131241664Y-56110206D01*
X131126455Y-56196452D01*
X131126452Y-56196455D01*
X131040206Y-56311664D01*
X131040202Y-56311671D01*
X130989908Y-56446517D01*
X130983501Y-56506116D01*
X130983500Y-56506135D01*
X130983500Y-58301870D01*
X130983501Y-58301876D01*
X130989908Y-58361483D01*
X131040202Y-58496328D01*
X131040206Y-58496335D01*
X131126452Y-58611544D01*
X131126455Y-58611547D01*
X131241664Y-58697793D01*
X131241671Y-58697797D01*
X131376517Y-58748091D01*
X131376516Y-58748091D01*
X131383444Y-58748835D01*
X131436127Y-58754500D01*
X133231872Y-58754499D01*
X133291483Y-58748091D01*
X133426331Y-58697796D01*
X133529690Y-58620421D01*
X133595152Y-58596004D01*
X133663425Y-58610855D01*
X133678303Y-58620416D01*
X133775118Y-58692892D01*
X133781668Y-58697795D01*
X133781671Y-58697797D01*
X133916517Y-58748091D01*
X133916516Y-58748091D01*
X133923444Y-58748835D01*
X133976127Y-58754500D01*
X135771872Y-58754499D01*
X135831483Y-58748091D01*
X135966331Y-58697796D01*
X136081546Y-58611546D01*
X136167796Y-58496331D01*
X136216810Y-58364916D01*
X136258681Y-58308984D01*
X136324145Y-58284566D01*
X136392418Y-58299417D01*
X136420673Y-58320569D01*
X136534213Y-58434109D01*
X136706179Y-58559048D01*
X136706181Y-58559049D01*
X136706184Y-58559051D01*
X136895588Y-58655557D01*
X137097757Y-58721246D01*
X137307713Y-58754500D01*
X137307714Y-58754500D01*
X137520286Y-58754500D01*
X137520287Y-58754500D01*
X137730243Y-58721246D01*
X137932412Y-58655557D01*
X138121816Y-58559051D01*
X138208138Y-58496335D01*
X138293786Y-58434109D01*
X138293788Y-58434106D01*
X138293792Y-58434104D01*
X138444104Y-58283792D01*
X138444106Y-58283788D01*
X138444109Y-58283786D01*
X138569048Y-58111820D01*
X138569047Y-58111820D01*
X138569051Y-58111816D01*
X138573514Y-58103054D01*
X138621488Y-58052259D01*
X138689308Y-58035463D01*
X138755444Y-58057999D01*
X138794486Y-58103056D01*
X138798951Y-58111820D01*
X138923890Y-58283786D01*
X139074213Y-58434109D01*
X139246179Y-58559048D01*
X139246181Y-58559049D01*
X139246184Y-58559051D01*
X139435588Y-58655557D01*
X139637757Y-58721246D01*
X139847713Y-58754500D01*
X139847714Y-58754500D01*
X140060286Y-58754500D01*
X140060287Y-58754500D01*
X140270243Y-58721246D01*
X140472412Y-58655557D01*
X140661816Y-58559051D01*
X140748138Y-58496335D01*
X140833786Y-58434109D01*
X140833788Y-58434106D01*
X140833792Y-58434104D01*
X140984104Y-58283792D01*
X140984106Y-58283788D01*
X140984109Y-58283786D01*
X141109048Y-58111820D01*
X141109047Y-58111820D01*
X141109051Y-58111816D01*
X141113514Y-58103054D01*
X141161488Y-58052259D01*
X141229308Y-58035463D01*
X141295444Y-58057999D01*
X141334486Y-58103056D01*
X141338951Y-58111820D01*
X141463890Y-58283786D01*
X141614213Y-58434109D01*
X141786179Y-58559048D01*
X141786181Y-58559049D01*
X141786184Y-58559051D01*
X141975588Y-58655557D01*
X142177757Y-58721246D01*
X142387713Y-58754500D01*
X142387714Y-58754500D01*
X142600286Y-58754500D01*
X142600287Y-58754500D01*
X142810243Y-58721246D01*
X143012412Y-58655557D01*
X143201816Y-58559051D01*
X143288138Y-58496335D01*
X143373786Y-58434109D01*
X143373788Y-58434106D01*
X143373792Y-58434104D01*
X143524104Y-58283792D01*
X143524106Y-58283788D01*
X143524109Y-58283786D01*
X143649048Y-58111820D01*
X143649047Y-58111820D01*
X143649051Y-58111816D01*
X143653514Y-58103054D01*
X143701488Y-58052259D01*
X143769308Y-58035463D01*
X143835444Y-58057999D01*
X143874486Y-58103056D01*
X143878951Y-58111820D01*
X144003890Y-58283786D01*
X144154213Y-58434109D01*
X144326179Y-58559048D01*
X144326181Y-58559049D01*
X144326184Y-58559051D01*
X144515588Y-58655557D01*
X144717757Y-58721246D01*
X144927713Y-58754500D01*
X144927714Y-58754500D01*
X145140286Y-58754500D01*
X145140287Y-58754500D01*
X145350243Y-58721246D01*
X145552412Y-58655557D01*
X145741816Y-58559051D01*
X145913792Y-58434104D01*
X146027329Y-58320566D01*
X146088648Y-58287084D01*
X146158340Y-58292068D01*
X146214274Y-58333939D01*
X146231189Y-58364917D01*
X146280202Y-58496328D01*
X146280206Y-58496335D01*
X146366452Y-58611544D01*
X146366455Y-58611547D01*
X146481664Y-58697793D01*
X146481671Y-58697797D01*
X146616517Y-58748091D01*
X146616516Y-58748091D01*
X146623444Y-58748835D01*
X146676127Y-58754500D01*
X148471872Y-58754499D01*
X148531483Y-58748091D01*
X148666116Y-58697875D01*
X148735807Y-58692892D01*
X148797130Y-58726377D01*
X148830615Y-58787700D01*
X148833449Y-58814058D01*
X148833449Y-82698333D01*
X148833184Y-82706443D01*
X148816532Y-82960504D01*
X148814414Y-82976586D01*
X148765540Y-83222288D01*
X148761342Y-83237954D01*
X148680813Y-83475186D01*
X148674606Y-83490172D01*
X148563802Y-83714860D01*
X148555692Y-83728907D01*
X148416508Y-83937211D01*
X148406634Y-83950079D01*
X148241451Y-84138433D01*
X148229982Y-84149902D01*
X148041628Y-84315085D01*
X148028760Y-84324959D01*
X147820456Y-84464143D01*
X147806409Y-84472253D01*
X147581721Y-84583057D01*
X147566735Y-84589264D01*
X147329503Y-84669793D01*
X147313837Y-84673991D01*
X147068135Y-84722865D01*
X147052053Y-84724983D01*
X146797992Y-84741635D01*
X146789910Y-84741900D01*
X146728057Y-84741900D01*
X146728003Y-84741914D01*
X146719868Y-84741916D01*
X146719853Y-84741911D01*
X146719787Y-84741916D01*
X140353617Y-84739217D01*
X140286586Y-84719504D01*
X140240854Y-84666681D01*
X140230940Y-84597518D01*
X140259991Y-84533975D01*
X140278693Y-84518083D01*
X140277989Y-84517193D01*
X140283650Y-84512715D01*
X140283656Y-84512712D01*
X140407712Y-84388656D01*
X140499814Y-84239334D01*
X140554999Y-84072797D01*
X140565500Y-83970009D01*
X140565499Y-76494992D01*
X140554999Y-76392203D01*
X140499814Y-76225666D01*
X140407712Y-76076344D01*
X140283656Y-75952288D01*
X140190888Y-75895069D01*
X140134336Y-75860187D01*
X140134331Y-75860185D01*
X140078245Y-75841600D01*
X139967797Y-75805001D01*
X139967795Y-75805000D01*
X139865010Y-75794500D01*
X138264998Y-75794500D01*
X138264981Y-75794501D01*
X138162203Y-75805000D01*
X138162200Y-75805001D01*
X137995668Y-75860185D01*
X137995663Y-75860187D01*
X137846342Y-75952289D01*
X137722289Y-76076342D01*
X137630187Y-76225663D01*
X137630185Y-76225668D01*
X137612016Y-76280499D01*
X137575001Y-76392203D01*
X137575001Y-76392204D01*
X137575000Y-76392204D01*
X137564500Y-76494983D01*
X137564500Y-77618758D01*
X137544815Y-77685797D01*
X137492011Y-77731552D01*
X137422853Y-77741496D01*
X137359297Y-77712471D01*
X137352819Y-77706439D01*
X134890867Y-75244487D01*
X134890865Y-75244485D01*
X134778899Y-75179841D01*
X134759636Y-75168719D01*
X134686450Y-75149109D01*
X134613266Y-75129500D01*
X134613265Y-75129500D01*
X133670425Y-75129500D01*
X133603386Y-75109815D01*
X133564887Y-75070598D01*
X133537968Y-75026956D01*
X133418044Y-74907032D01*
X133418040Y-74907029D01*
X133273705Y-74818001D01*
X133273699Y-74817998D01*
X133273697Y-74817997D01*
X133273694Y-74817996D01*
X133112709Y-74764651D01*
X133013346Y-74754500D01*
X132416662Y-74754500D01*
X132416644Y-74754501D01*
X132317292Y-74764650D01*
X132317289Y-74764651D01*
X132156305Y-74817996D01*
X132156294Y-74818001D01*
X132011959Y-74907029D01*
X132011955Y-74907032D01*
X131892032Y-75026955D01*
X131892028Y-75026960D01*
X131886787Y-75035457D01*
X131834836Y-75082178D01*
X131765873Y-75093395D01*
X131701793Y-75065548D01*
X131693572Y-75058034D01*
X130671819Y-74036281D01*
X130638334Y-73974958D01*
X130635500Y-73948600D01*
X130635500Y-73676734D01*
X130631777Y-73662841D01*
X130631776Y-73662838D01*
X130617185Y-73608383D01*
X130596281Y-73530366D01*
X130575703Y-73494724D01*
X130520515Y-73399136D01*
X130520514Y-73399135D01*
X130516451Y-73392097D01*
X130517813Y-73391310D01*
X130495973Y-73334823D01*
X130510007Y-73266378D01*
X130558818Y-73216385D01*
X130619538Y-73200499D01*
X131108344Y-73200499D01*
X131108352Y-73200498D01*
X131108355Y-73200498D01*
X131162760Y-73194940D01*
X131207708Y-73190349D01*
X131368697Y-73137003D01*
X131513044Y-73047968D01*
X131632968Y-72928044D01*
X131659887Y-72884402D01*
X131711835Y-72837678D01*
X131765425Y-72825500D01*
X135248264Y-72825500D01*
X135248266Y-72825500D01*
X135394635Y-72786281D01*
X135525865Y-72710515D01*
X137352821Y-70883557D01*
X137414142Y-70850074D01*
X137483833Y-70855058D01*
X137539767Y-70896930D01*
X137564184Y-70962394D01*
X137564500Y-70971240D01*
X137564500Y-72095001D01*
X137564501Y-72095018D01*
X137575000Y-72197796D01*
X137575001Y-72197799D01*
X137611108Y-72306762D01*
X137630186Y-72364334D01*
X137722288Y-72513656D01*
X137846344Y-72637712D01*
X137995666Y-72729814D01*
X138162203Y-72784999D01*
X138264991Y-72795500D01*
X139865008Y-72795499D01*
X139967797Y-72784999D01*
X140134334Y-72729814D01*
X140283656Y-72637712D01*
X140407712Y-72513656D01*
X140499814Y-72364334D01*
X140554999Y-72197797D01*
X140565500Y-72095009D01*
X140565499Y-64619992D01*
X140554999Y-64517203D01*
X140499814Y-64350666D01*
X140407712Y-64201344D01*
X140283656Y-64077288D01*
X140190888Y-64020069D01*
X140134336Y-63985187D01*
X140134331Y-63985185D01*
X140132862Y-63984698D01*
X139967797Y-63930001D01*
X139967795Y-63930000D01*
X139865010Y-63919500D01*
X138264998Y-63919500D01*
X138264981Y-63919501D01*
X138162203Y-63930000D01*
X138162200Y-63930001D01*
X137995668Y-63985185D01*
X137995663Y-63985187D01*
X137846342Y-64077289D01*
X137722289Y-64201342D01*
X137630187Y-64350663D01*
X137630185Y-64350668D01*
X137609861Y-64412003D01*
X137575001Y-64517203D01*
X137575001Y-64517204D01*
X137575000Y-64517204D01*
X137564500Y-64619983D01*
X137564500Y-68992757D01*
X137544815Y-69059796D01*
X137528181Y-69080438D01*
X134970439Y-71638181D01*
X134909116Y-71671666D01*
X134882758Y-71674500D01*
X134377757Y-71674500D01*
X134310718Y-71654815D01*
X134264963Y-71602011D01*
X134255019Y-71532853D01*
X134284044Y-71469297D01*
X134342822Y-71431523D01*
X134365156Y-71427142D01*
X134372229Y-71426419D01*
X134382708Y-71425349D01*
X134543697Y-71372003D01*
X134688044Y-71282968D01*
X134807968Y-71163044D01*
X134897003Y-71018697D01*
X134950349Y-70857708D01*
X134950596Y-70855289D01*
X134951165Y-70853894D01*
X134951765Y-70851092D01*
X134952264Y-70851198D01*
X134976987Y-70790598D01*
X134986264Y-70780214D01*
X135715515Y-70050965D01*
X135791281Y-69919735D01*
X135830500Y-69773366D01*
X135830500Y-69621833D01*
X135830500Y-63932734D01*
X135791281Y-63786365D01*
X135715515Y-63655135D01*
X135608365Y-63547985D01*
X127967819Y-55907439D01*
X127934334Y-55846116D01*
X127931500Y-55819758D01*
X127931500Y-55539240D01*
X127951185Y-55472201D01*
X127967814Y-55451564D01*
X130899155Y-52520222D01*
X130899160Y-52520219D01*
X130909363Y-52510015D01*
X130909365Y-52510015D01*
X131016515Y-52402865D01*
X131092281Y-52271635D01*
X131092281Y-52271634D01*
X131096345Y-52264596D01*
X131098756Y-52265988D01*
X131134077Y-52222151D01*
X131200369Y-52200079D01*
X131204807Y-52200000D01*
X131456005Y-52200000D01*
X131456010Y-52200000D01*
X131558798Y-52189499D01*
X131725335Y-52134314D01*
X131874656Y-52042212D01*
X131998712Y-51918156D01*
X132090814Y-51768835D01*
X132145999Y-51602298D01*
X132156500Y-51499510D01*
X132156500Y-49699490D01*
X132145999Y-49596702D01*
X132090814Y-49430165D01*
X131998712Y-49280844D01*
X131874656Y-49156788D01*
X131725335Y-49064686D01*
X131558798Y-49009501D01*
X131558796Y-49009500D01*
X131456017Y-48999000D01*
X131456010Y-48999000D01*
X130999575Y-48999000D01*
X130932536Y-48979315D01*
X130886781Y-48926511D01*
X130876837Y-48857353D01*
X130905862Y-48793797D01*
X130930684Y-48771898D01*
X130990895Y-48731665D01*
X131066289Y-48681289D01*
X131177789Y-48569789D01*
X131265394Y-48438679D01*
X131325737Y-48292997D01*
X131356500Y-48138342D01*
X131356500Y-47980658D01*
X131356500Y-47980655D01*
X131356499Y-47980653D01*
X131325738Y-47826010D01*
X131325737Y-47826003D01*
X131297637Y-47758162D01*
X131265397Y-47680327D01*
X131265390Y-47680314D01*
X131177789Y-47549211D01*
X131177786Y-47549207D01*
X131066292Y-47437713D01*
X131066288Y-47437710D01*
X130935185Y-47350109D01*
X130935172Y-47350102D01*
X130789501Y-47289764D01*
X130789489Y-47289761D01*
X130634845Y-47259000D01*
X130634842Y-47259000D01*
X130477158Y-47259000D01*
X130477155Y-47259000D01*
X130322510Y-47289761D01*
X130322498Y-47289764D01*
X130176827Y-47350102D01*
X130176814Y-47350109D01*
X130045711Y-47437710D01*
X130045707Y-47437713D01*
X129934213Y-47549207D01*
X129934210Y-47549211D01*
X129846609Y-47680314D01*
X129846602Y-47680327D01*
X129786264Y-47825998D01*
X129786261Y-47826010D01*
X129755500Y-47980653D01*
X129755500Y-48138346D01*
X129786261Y-48292989D01*
X129786264Y-48293001D01*
X129846602Y-48438672D01*
X129846609Y-48438685D01*
X129934210Y-48569788D01*
X129934213Y-48569792D01*
X130045707Y-48681286D01*
X130045711Y-48681289D01*
X130181316Y-48771898D01*
X130226121Y-48825510D01*
X130234828Y-48894835D01*
X130204674Y-48957863D01*
X130145230Y-48994582D01*
X130112425Y-48999000D01*
X129655982Y-48999000D01*
X129553203Y-49009500D01*
X129553202Y-49009501D01*
X129516835Y-49021552D01*
X129386667Y-49064685D01*
X129386662Y-49064687D01*
X129237345Y-49156787D01*
X129108503Y-49285628D01*
X129047179Y-49319112D01*
X128977488Y-49314127D01*
X128947937Y-49298264D01*
X128854848Y-49230632D01*
X128854847Y-49230631D01*
X128854845Y-49230630D01*
X128784747Y-49194913D01*
X128630383Y-49116260D01*
X128390787Y-49038410D01*
X128357528Y-49033142D01*
X128294394Y-49003211D01*
X128257463Y-48943899D01*
X128258463Y-48874036D01*
X128297074Y-48815804D01*
X128329472Y-48796110D01*
X128395179Y-48768894D01*
X128526289Y-48681289D01*
X128637789Y-48569789D01*
X128725394Y-48438679D01*
X128785737Y-48292997D01*
X128816500Y-48138342D01*
X128816500Y-47980658D01*
X128816500Y-47980655D01*
X128816499Y-47980653D01*
X128785738Y-47826010D01*
X128785737Y-47826003D01*
X128757637Y-47758162D01*
X128725397Y-47680327D01*
X128725390Y-47680314D01*
X128637789Y-47549211D01*
X128637786Y-47549207D01*
X128526292Y-47437713D01*
X128526288Y-47437710D01*
X128395185Y-47350109D01*
X128395172Y-47350102D01*
X128249501Y-47289764D01*
X128249489Y-47289761D01*
X128094845Y-47259000D01*
X128094842Y-47259000D01*
X127937158Y-47259000D01*
X127937155Y-47259000D01*
X127782510Y-47289761D01*
X127782498Y-47289764D01*
X127636827Y-47350102D01*
X127636814Y-47350109D01*
X127505711Y-47437710D01*
X127505707Y-47437713D01*
X127394213Y-47549207D01*
X127394210Y-47549211D01*
X127306609Y-47680314D01*
X127306602Y-47680327D01*
X127246264Y-47825998D01*
X127246261Y-47826010D01*
X127215500Y-47980653D01*
X127215500Y-48138346D01*
X127246261Y-48292989D01*
X127246264Y-48293001D01*
X127306602Y-48438672D01*
X127306609Y-48438685D01*
X127394210Y-48569788D01*
X127394213Y-48569792D01*
X127505707Y-48681286D01*
X127505711Y-48681289D01*
X127636814Y-48768890D01*
X127636821Y-48768894D01*
X127702524Y-48796109D01*
X127756926Y-48839947D01*
X127778992Y-48906241D01*
X127761714Y-48973941D01*
X127710577Y-49021552D01*
X127674472Y-49033142D01*
X127641211Y-49038410D01*
X127401616Y-49116260D01*
X127177158Y-49230628D01*
X127177155Y-49230629D01*
X127177155Y-49230630D01*
X127084060Y-49298266D01*
X127018255Y-49321745D01*
X126950201Y-49305919D01*
X126923496Y-49285628D01*
X126794657Y-49156789D01*
X126794656Y-49156788D01*
X126645335Y-49064686D01*
X126478798Y-49009501D01*
X126478796Y-49009500D01*
X126376017Y-48999000D01*
X126376010Y-48999000D01*
X125919575Y-48999000D01*
X125852536Y-48979315D01*
X125806781Y-48926511D01*
X125796837Y-48857353D01*
X125825862Y-48793797D01*
X125850684Y-48771898D01*
X125910895Y-48731665D01*
X125986289Y-48681289D01*
X126097789Y-48569789D01*
X126185394Y-48438679D01*
X126245737Y-48292997D01*
X126276500Y-48138342D01*
X126276500Y-47980658D01*
X126276500Y-47980655D01*
X126276499Y-47980653D01*
X126245738Y-47826010D01*
X126245737Y-47826003D01*
X126217637Y-47758162D01*
X126185397Y-47680327D01*
X126185390Y-47680314D01*
X126097789Y-47549211D01*
X126097786Y-47549207D01*
X125986292Y-47437713D01*
X125986288Y-47437710D01*
X125855185Y-47350109D01*
X125855172Y-47350102D01*
X125709501Y-47289764D01*
X125709489Y-47289761D01*
X125554845Y-47259000D01*
X125554842Y-47259000D01*
X125397158Y-47259000D01*
X125397155Y-47259000D01*
X125242510Y-47289761D01*
X125242498Y-47289764D01*
X125096827Y-47350102D01*
X125096814Y-47350109D01*
X124965711Y-47437710D01*
X124965707Y-47437713D01*
X124854213Y-47549207D01*
X124854210Y-47549211D01*
X124766609Y-47680314D01*
X124766602Y-47680327D01*
X124706264Y-47825998D01*
X124706261Y-47826010D01*
X124675500Y-47980653D01*
X124675500Y-48138346D01*
X124706261Y-48292989D01*
X124706264Y-48293001D01*
X124766602Y-48438672D01*
X124766609Y-48438685D01*
X124854210Y-48569788D01*
X124854213Y-48569792D01*
X124965707Y-48681286D01*
X124965711Y-48681289D01*
X125101316Y-48771898D01*
X125146121Y-48825510D01*
X125154828Y-48894835D01*
X125124674Y-48957863D01*
X125065230Y-48994582D01*
X125032425Y-48999000D01*
X124575982Y-48999000D01*
X124473203Y-49009500D01*
X124473202Y-49009501D01*
X124436835Y-49021552D01*
X124306667Y-49064685D01*
X124306662Y-49064687D01*
X124157342Y-49156789D01*
X124033289Y-49280842D01*
X123941187Y-49430162D01*
X123941186Y-49430165D01*
X123886001Y-49596702D01*
X123886001Y-49596703D01*
X123886000Y-49596703D01*
X123875500Y-49699482D01*
X123875500Y-51499517D01*
X123886000Y-51602296D01*
X123941185Y-51768832D01*
X123941190Y-51768843D01*
X123978853Y-51829903D01*
X123997294Y-51897295D01*
X123976372Y-51963959D01*
X123922730Y-52008728D01*
X123873315Y-52019000D01*
X120468655Y-52019000D01*
X120401616Y-51999315D01*
X120355861Y-51946511D01*
X120349108Y-51927930D01*
X120339285Y-51892270D01*
X120339280Y-51892258D01*
X120263539Y-51769933D01*
X120244571Y-51752931D01*
X120156401Y-51673899D01*
X120156398Y-51673897D01*
X120156396Y-51673895D01*
X119406414Y-51173907D01*
X119392109Y-51164713D01*
X119260244Y-51107151D01*
X119117509Y-51089070D01*
X118975454Y-51111938D01*
X118975451Y-51111939D01*
X118845598Y-51173899D01*
X118095600Y-51673897D01*
X118044968Y-51712468D01*
X117950747Y-51821204D01*
X117950744Y-51821209D01*
X117890976Y-51952080D01*
X117890975Y-51952085D01*
X117870500Y-52094499D01*
X117870500Y-53094502D01*
X117875644Y-53166440D01*
X117916182Y-53304494D01*
X117993967Y-53425530D01*
X117993971Y-53425534D01*
X118102700Y-53519749D01*
X118102706Y-53519754D01*
X118143174Y-53538235D01*
X118233580Y-53579523D01*
X118233583Y-53579523D01*
X118233584Y-53579524D01*
X118376000Y-53600000D01*
X118376003Y-53600000D01*
X119876000Y-53600000D01*
X119947940Y-53594855D01*
X120085992Y-53554319D01*
X120207032Y-53476531D01*
X120301254Y-53367794D01*
X120339280Y-53284526D01*
X120358480Y-53242488D01*
X120404235Y-53189684D01*
X120471274Y-53170000D01*
X124332258Y-53170000D01*
X124399297Y-53189685D01*
X124445052Y-53242489D01*
X124454996Y-53311647D01*
X124425971Y-53375203D01*
X124419939Y-53381681D01*
X123796287Y-54005332D01*
X123796285Y-54005335D01*
X123720519Y-54136563D01*
X123681300Y-54282934D01*
X123681300Y-57124165D01*
X123720519Y-57270536D01*
X123729374Y-57285873D01*
X123796285Y-57401765D01*
X127688035Y-61293515D01*
X127819265Y-61369281D01*
X127965634Y-61408500D01*
X128117167Y-61408500D01*
X130418658Y-61408500D01*
X130485697Y-61428185D01*
X130506339Y-61444819D01*
X131374339Y-62312819D01*
X131407824Y-62374142D01*
X131402840Y-62443834D01*
X131360968Y-62499767D01*
X131295504Y-62524184D01*
X131286659Y-62524500D01*
X131057663Y-62524500D01*
X131057644Y-62524501D01*
X130958292Y-62534650D01*
X130958289Y-62534651D01*
X130797305Y-62587996D01*
X130797294Y-62588001D01*
X130652959Y-62677029D01*
X130652955Y-62677032D01*
X130533032Y-62796955D01*
X130533029Y-62796959D01*
X130444001Y-62941294D01*
X130443996Y-62941305D01*
X130390651Y-63102290D01*
X130380500Y-63201647D01*
X130380500Y-63585257D01*
X130360815Y-63652296D01*
X130344181Y-63672938D01*
X129184210Y-64832908D01*
X129122887Y-64866393D01*
X129072428Y-64865195D01*
X129072320Y-64866017D01*
X129064682Y-64865011D01*
X129064450Y-64865006D01*
X129064265Y-64864956D01*
X128946870Y-64849501D01*
X128946867Y-64849500D01*
X128946861Y-64849500D01*
X128946854Y-64849500D01*
X128434741Y-64849500D01*
X128405300Y-64840855D01*
X128375314Y-64834332D01*
X128370298Y-64830577D01*
X128367702Y-64829815D01*
X128347064Y-64813185D01*
X128182816Y-64648937D01*
X128149334Y-64587616D01*
X128146500Y-64561258D01*
X128146500Y-64436488D01*
X128166185Y-64369449D01*
X128200809Y-64335763D01*
X128200285Y-64335094D01*
X128206180Y-64330474D01*
X128206185Y-64330472D01*
X128326472Y-64210185D01*
X128414478Y-64064606D01*
X128465086Y-63902196D01*
X128471500Y-63831616D01*
X128471500Y-63168384D01*
X128465086Y-63097804D01*
X128414478Y-62935394D01*
X128326472Y-62789815D01*
X128326470Y-62789813D01*
X128326469Y-62789811D01*
X128206188Y-62669530D01*
X128178905Y-62653037D01*
X128060606Y-62581522D01*
X127898196Y-62530914D01*
X127898194Y-62530913D01*
X127898192Y-62530913D01*
X127848778Y-62526423D01*
X127827616Y-62524500D01*
X127314384Y-62524500D01*
X127295145Y-62526248D01*
X127243807Y-62530913D01*
X127081393Y-62581522D01*
X126935811Y-62669530D01*
X126815530Y-62789811D01*
X126727522Y-62935393D01*
X126676913Y-63097807D01*
X126670500Y-63168386D01*
X126670500Y-63831613D01*
X126676913Y-63902192D01*
X126676913Y-63902194D01*
X126676914Y-63902196D01*
X126727522Y-64064606D01*
X126810183Y-64201344D01*
X126815530Y-64210188D01*
X126935810Y-64330468D01*
X126941715Y-64335094D01*
X126940911Y-64336119D01*
X126982833Y-64381890D01*
X126995500Y-64436488D01*
X126995500Y-64775234D01*
X126995500Y-64926766D01*
X127033913Y-65070128D01*
X127034720Y-65073137D01*
X127034720Y-65073138D01*
X127064644Y-65124968D01*
X127081117Y-65192868D01*
X127071819Y-65234419D01*
X127047456Y-65293238D01*
X127047455Y-65293239D01*
X127032000Y-65410638D01*
X127032000Y-65689363D01*
X127047453Y-65806753D01*
X127047457Y-65806765D01*
X127056066Y-65827550D01*
X127063533Y-65897019D01*
X127056066Y-65922450D01*
X127047457Y-65943234D01*
X127047455Y-65943239D01*
X127032000Y-66060638D01*
X127032000Y-66339363D01*
X127047453Y-66456753D01*
X127047457Y-66456765D01*
X127056066Y-66477550D01*
X127063533Y-66547019D01*
X127056066Y-66572450D01*
X127047457Y-66593234D01*
X127047455Y-66593239D01*
X127032000Y-66710638D01*
X127032000Y-66989363D01*
X127047453Y-67106753D01*
X127047457Y-67106765D01*
X127056066Y-67127550D01*
X127063533Y-67197019D01*
X127056066Y-67222450D01*
X127047457Y-67243234D01*
X127047455Y-67243239D01*
X127032000Y-67360638D01*
X127032000Y-67639363D01*
X127047453Y-67756753D01*
X127047457Y-67756765D01*
X127056066Y-67777550D01*
X127063533Y-67847019D01*
X127056066Y-67872450D01*
X127047457Y-67893234D01*
X127047455Y-67893239D01*
X127032000Y-68010638D01*
X127032000Y-68289363D01*
X127047453Y-68406753D01*
X127047457Y-68406765D01*
X127056066Y-68427550D01*
X127063533Y-68497019D01*
X127056066Y-68522450D01*
X127047457Y-68543234D01*
X127047455Y-68543239D01*
X127032000Y-68660638D01*
X127032000Y-68939363D01*
X127047453Y-69056753D01*
X127047457Y-69056765D01*
X127056066Y-69077550D01*
X127063533Y-69147019D01*
X127056066Y-69172450D01*
X127047457Y-69193234D01*
X127047455Y-69193239D01*
X127032000Y-69310638D01*
X127032000Y-69589363D01*
X127047453Y-69706753D01*
X127047457Y-69706765D01*
X127056066Y-69727550D01*
X127063533Y-69797019D01*
X127056066Y-69822450D01*
X127047457Y-69843234D01*
X127047455Y-69843239D01*
X127032000Y-69960638D01*
X127032000Y-70239363D01*
X127047453Y-70356753D01*
X127047457Y-70356765D01*
X127056066Y-70377550D01*
X127063533Y-70447019D01*
X127056066Y-70472450D01*
X127047457Y-70493234D01*
X127047455Y-70493239D01*
X127032000Y-70610638D01*
X127032000Y-70889363D01*
X127047453Y-71006753D01*
X127047456Y-71006762D01*
X127107964Y-71152841D01*
X127204218Y-71278282D01*
X127234640Y-71301625D01*
X127275841Y-71358052D01*
X127279996Y-71427798D01*
X127245783Y-71488719D01*
X127234646Y-71498369D01*
X127214643Y-71513719D01*
X127204218Y-71521718D01*
X127107963Y-71647160D01*
X127047456Y-71793237D01*
X127047455Y-71793239D01*
X127032000Y-71910638D01*
X127032000Y-72189363D01*
X127047453Y-72306753D01*
X127047457Y-72306765D01*
X127056066Y-72327550D01*
X127063533Y-72397019D01*
X127056066Y-72422450D01*
X127047457Y-72443234D01*
X127047455Y-72443239D01*
X127032000Y-72560638D01*
X127032000Y-72839363D01*
X127047453Y-72956753D01*
X127047457Y-72956765D01*
X127078991Y-73032895D01*
X127086460Y-73102364D01*
X127055185Y-73164843D01*
X126995096Y-73200495D01*
X126925271Y-73198001D01*
X126876749Y-73168028D01*
X125298208Y-71589487D01*
X125298206Y-71589485D01*
X125180831Y-71521718D01*
X125166977Y-71513719D01*
X125093791Y-71494109D01*
X125020607Y-71474500D01*
X125020606Y-71474500D01*
X123906999Y-71474500D01*
X123839960Y-71454815D01*
X123794205Y-71402011D01*
X123782999Y-71350500D01*
X123782999Y-71260638D01*
X123775527Y-71203882D01*
X123767544Y-71143238D01*
X123758934Y-71122454D01*
X123751465Y-71052986D01*
X123758935Y-71027545D01*
X123767544Y-71006762D01*
X123783000Y-70889361D01*
X123782999Y-70610640D01*
X123782999Y-70610638D01*
X123782999Y-70610636D01*
X123767546Y-70493246D01*
X123767544Y-70493239D01*
X123767544Y-70493238D01*
X123707036Y-70347159D01*
X123610782Y-70221718D01*
X123485341Y-70125464D01*
X123418286Y-70097689D01*
X123339262Y-70064956D01*
X123339260Y-70064955D01*
X123221870Y-70049501D01*
X123221867Y-70049500D01*
X123221861Y-70049500D01*
X123221854Y-70049500D01*
X121868136Y-70049500D01*
X121750746Y-70064953D01*
X121750737Y-70064956D01*
X121604660Y-70125463D01*
X121479218Y-70221718D01*
X121382963Y-70347160D01*
X121322456Y-70493237D01*
X121322455Y-70493239D01*
X121307001Y-70610629D01*
X121307001Y-70610636D01*
X121307000Y-70610645D01*
X121307000Y-70730996D01*
X121287315Y-70798035D01*
X121236237Y-70842986D01*
X121226015Y-70847844D01*
X121166773Y-70863719D01*
X121050555Y-70930818D01*
X121046281Y-70933285D01*
X121046261Y-70933295D01*
X121035549Y-70939480D01*
X121035541Y-70939486D01*
X119450487Y-72524540D01*
X119450485Y-72524543D01*
X119374719Y-72655771D01*
X119354880Y-72729814D01*
X119335500Y-72802142D01*
X119335500Y-74822675D01*
X119335500Y-74974207D01*
X119349634Y-75026955D01*
X119374719Y-75120577D01*
X119379871Y-75129500D01*
X119450485Y-75251806D01*
X119450487Y-75251808D01*
X121426238Y-77227559D01*
X121459723Y-77288882D01*
X121454739Y-77358574D01*
X121453118Y-77362692D01*
X121429400Y-77419951D01*
X121429397Y-77419961D01*
X121404400Y-77545628D01*
X121404400Y-77545631D01*
X121404400Y-77673769D01*
X121409220Y-77698001D01*
X121409937Y-77701606D01*
X121409229Y-77709512D01*
X121412003Y-77716949D01*
X121406158Y-77743815D01*
X121403708Y-77771198D01*
X121398460Y-77779204D01*
X121397152Y-77785222D01*
X121376001Y-77813477D01*
X121251135Y-77938344D01*
X121251134Y-77938344D01*
X121251133Y-77938345D01*
X121143987Y-78045491D01*
X121143985Y-78045494D01*
X121068219Y-78176722D01*
X121029000Y-78323093D01*
X121029000Y-78826706D01*
X121068219Y-78973077D01*
X121091945Y-79014171D01*
X121143985Y-79104306D01*
X121392943Y-79353263D01*
X121392944Y-79353265D01*
X121460631Y-79420952D01*
X121482287Y-79460615D01*
X121494114Y-79482273D01*
X121494565Y-79532823D01*
X121480600Y-79603028D01*
X121480600Y-79603031D01*
X121480600Y-79731169D01*
X121480600Y-79731171D01*
X121480599Y-79731171D01*
X121505597Y-79856838D01*
X121505599Y-79856844D01*
X121554633Y-79975224D01*
X121554638Y-79975233D01*
X121625823Y-80081768D01*
X121625826Y-80081772D01*
X121716427Y-80172373D01*
X121716431Y-80172376D01*
X121822966Y-80243561D01*
X121822972Y-80243564D01*
X121822973Y-80243565D01*
X121941356Y-80292601D01*
X121941360Y-80292601D01*
X121941361Y-80292602D01*
X122067028Y-80317600D01*
X122067031Y-80317600D01*
X122195171Y-80317600D01*
X122279715Y-80300782D01*
X122320844Y-80292601D01*
X122439227Y-80243565D01*
X122545769Y-80172376D01*
X122587010Y-80131135D01*
X122648333Y-80097649D01*
X122718024Y-80102633D01*
X122736693Y-80111428D01*
X122851965Y-80177981D01*
X122998333Y-80217200D01*
X122998334Y-80217200D01*
X123353200Y-80217200D01*
X123420239Y-80236885D01*
X123465994Y-80289689D01*
X123477200Y-80341200D01*
X123477200Y-80750901D01*
X123477201Y-80750919D01*
X123487700Y-80853696D01*
X123487701Y-80853699D01*
X123527700Y-80974405D01*
X123542886Y-81020234D01*
X123634988Y-81169556D01*
X123759044Y-81293612D01*
X123908366Y-81385714D01*
X124074903Y-81440899D01*
X124177691Y-81451400D01*
X124777708Y-81451399D01*
X124777716Y-81451398D01*
X124777719Y-81451398D01*
X124834002Y-81445648D01*
X124880497Y-81440899D01*
X125047034Y-81385714D01*
X125196356Y-81293612D01*
X125320412Y-81169556D01*
X125322161Y-81166719D01*
X125323869Y-81165183D01*
X125324893Y-81163889D01*
X125325114Y-81164063D01*
X125374106Y-81119996D01*
X125443068Y-81108772D01*
X125507151Y-81136613D01*
X125533237Y-81166717D01*
X125534988Y-81169556D01*
X125659044Y-81293612D01*
X125808366Y-81385714D01*
X125974903Y-81440899D01*
X126077691Y-81451400D01*
X126677708Y-81451399D01*
X126677716Y-81451398D01*
X126677719Y-81451398D01*
X126734002Y-81445648D01*
X126780497Y-81440899D01*
X126947034Y-81385714D01*
X127096356Y-81293612D01*
X127220412Y-81169556D01*
X127312514Y-81020234D01*
X127367699Y-80853697D01*
X127378200Y-80750909D01*
X127378199Y-80341199D01*
X127397883Y-80274161D01*
X127450687Y-80228406D01*
X127502199Y-80217200D01*
X127826464Y-80217200D01*
X127826466Y-80217200D01*
X127972835Y-80177981D01*
X128104065Y-80102215D01*
X128114884Y-80091394D01*
X128176205Y-80057910D01*
X128245897Y-80062892D01*
X128290248Y-80091394D01*
X128295027Y-80096173D01*
X128295031Y-80096176D01*
X128401566Y-80167361D01*
X128401575Y-80167366D01*
X128427197Y-80177979D01*
X128519956Y-80216401D01*
X128519960Y-80216401D01*
X128519961Y-80216402D01*
X128645628Y-80241400D01*
X128645631Y-80241400D01*
X128773771Y-80241400D01*
X128858315Y-80224582D01*
X128899444Y-80216401D01*
X129017827Y-80167365D01*
X129124369Y-80096176D01*
X129214976Y-80005569D01*
X129286165Y-79899027D01*
X129335201Y-79780644D01*
X129360200Y-79654969D01*
X129360200Y-79526831D01*
X129360200Y-79520739D01*
X129362300Y-79520739D01*
X129373544Y-79461460D01*
X129396242Y-79430278D01*
X129623022Y-79203496D01*
X129623026Y-79203494D01*
X129640464Y-79186056D01*
X129640465Y-79186056D01*
X129747615Y-79078906D01*
X129823381Y-78947676D01*
X129840219Y-78884834D01*
X129862600Y-78801308D01*
X129862600Y-78649775D01*
X129862600Y-78297693D01*
X129823381Y-78151324D01*
X129747615Y-78020094D01*
X129640465Y-77912944D01*
X129600342Y-77872821D01*
X129566857Y-77811498D01*
X129566406Y-77760948D01*
X129588800Y-77648371D01*
X129588800Y-77520228D01*
X129563802Y-77394561D01*
X129563801Y-77394560D01*
X129563801Y-77394556D01*
X129514765Y-77276173D01*
X129511696Y-77271580D01*
X129490816Y-77204906D01*
X129509297Y-77137525D01*
X129527109Y-77115010D01*
X129646015Y-76996106D01*
X129721781Y-76864876D01*
X129761000Y-76718507D01*
X129761000Y-76566974D01*
X129761000Y-76214893D01*
X129749397Y-76171591D01*
X129745162Y-76155787D01*
X129741997Y-76143974D01*
X129721781Y-76068524D01*
X129669715Y-75978344D01*
X129646015Y-75937294D01*
X129538865Y-75830144D01*
X128620901Y-74912180D01*
X128587416Y-74850857D01*
X128592400Y-74781165D01*
X128634272Y-74725232D01*
X128699736Y-74700815D01*
X128708582Y-74700499D01*
X128946863Y-74700499D01*
X129064253Y-74685046D01*
X129064257Y-74685044D01*
X129064262Y-74685044D01*
X129210341Y-74624536D01*
X129335782Y-74528282D01*
X129352392Y-74506634D01*
X129408816Y-74465433D01*
X129478562Y-74461276D01*
X129539483Y-74495487D01*
X129558154Y-74520120D01*
X129599485Y-74591707D01*
X131173293Y-76165515D01*
X131304523Y-76241281D01*
X131450892Y-76280500D01*
X131602425Y-76280500D01*
X131759575Y-76280500D01*
X131826614Y-76300185D01*
X131865113Y-76339402D01*
X131892031Y-76383043D01*
X132011955Y-76502967D01*
X132011959Y-76502970D01*
X132156294Y-76591998D01*
X132156297Y-76591999D01*
X132156303Y-76592003D01*
X132317292Y-76645349D01*
X132416655Y-76655500D01*
X133013344Y-76655499D01*
X133013352Y-76655498D01*
X133013355Y-76655498D01*
X133067760Y-76649940D01*
X133112708Y-76645349D01*
X133273697Y-76592003D01*
X133418044Y-76502968D01*
X133537968Y-76383044D01*
X133564887Y-76339402D01*
X133616835Y-76292678D01*
X133670425Y-76280500D01*
X134247758Y-76280500D01*
X134314797Y-76300185D01*
X134335439Y-76316819D01*
X137528181Y-79509561D01*
X137561666Y-79570884D01*
X137564500Y-79597242D01*
X137564500Y-83970001D01*
X137564501Y-83970018D01*
X137575000Y-84072796D01*
X137575001Y-84072799D01*
X137620427Y-84209883D01*
X137630186Y-84239334D01*
X137722288Y-84388656D01*
X137846344Y-84512712D01*
X137846350Y-84512715D01*
X137851587Y-84516857D01*
X137891963Y-84573880D01*
X137895101Y-84643679D01*
X137860005Y-84704094D01*
X137797817Y-84735944D01*
X137774622Y-84738123D01*
X130450383Y-84735017D01*
X130383352Y-84715304D01*
X130337620Y-84662481D01*
X130327706Y-84593318D01*
X130356757Y-84529775D01*
X130362759Y-84523331D01*
X130366538Y-84519551D01*
X130366546Y-84519546D01*
X130452796Y-84404331D01*
X130503091Y-84269483D01*
X130509500Y-84209873D01*
X130509499Y-82414128D01*
X130503091Y-82354517D01*
X130452796Y-82219669D01*
X130452795Y-82219668D01*
X130452793Y-82219664D01*
X130366547Y-82104455D01*
X130366544Y-82104452D01*
X130251335Y-82018206D01*
X130251328Y-82018202D01*
X130116482Y-81967908D01*
X130116483Y-81967908D01*
X130056883Y-81961501D01*
X130056881Y-81961500D01*
X130056873Y-81961500D01*
X130056864Y-81961500D01*
X128261129Y-81961500D01*
X128261123Y-81961501D01*
X128201516Y-81967908D01*
X128066671Y-82018202D01*
X128066669Y-82018203D01*
X127963311Y-82095578D01*
X127897847Y-82119995D01*
X127829574Y-82105144D01*
X127814689Y-82095578D01*
X127711330Y-82018203D01*
X127711328Y-82018202D01*
X127576482Y-81967908D01*
X127576483Y-81967908D01*
X127516883Y-81961501D01*
X127516881Y-81961500D01*
X127516873Y-81961500D01*
X127516864Y-81961500D01*
X125721129Y-81961500D01*
X125721123Y-81961501D01*
X125661516Y-81967908D01*
X125526671Y-82018202D01*
X125526669Y-82018203D01*
X125423311Y-82095578D01*
X125357847Y-82119995D01*
X125289574Y-82105144D01*
X125274689Y-82095578D01*
X125171330Y-82018203D01*
X125171328Y-82018202D01*
X125036482Y-81967908D01*
X125036483Y-81967908D01*
X124976883Y-81961501D01*
X124976881Y-81961500D01*
X124976873Y-81961500D01*
X124976864Y-81961500D01*
X123181129Y-81961500D01*
X123181123Y-81961501D01*
X123121516Y-81967908D01*
X122986671Y-82018202D01*
X122986668Y-82018204D01*
X122908711Y-82076563D01*
X122843246Y-82100980D01*
X122774973Y-82086128D01*
X122760089Y-82076563D01*
X122682131Y-82018204D01*
X122682128Y-82018202D01*
X122547282Y-81967908D01*
X122547283Y-81967908D01*
X122487683Y-81961501D01*
X122487681Y-81961500D01*
X122487673Y-81961500D01*
X122487664Y-81961500D01*
X120691929Y-81961500D01*
X120691923Y-81961501D01*
X120632316Y-81967908D01*
X120497471Y-82018202D01*
X120497464Y-82018206D01*
X120382255Y-82104452D01*
X120382252Y-82104455D01*
X120296006Y-82219664D01*
X120296002Y-82219671D01*
X120245708Y-82354517D01*
X120239301Y-82414116D01*
X120239301Y-82414123D01*
X120239300Y-82414135D01*
X120239300Y-84209870D01*
X120239301Y-84209876D01*
X120245708Y-84269483D01*
X120296002Y-84404328D01*
X120296006Y-84404335D01*
X120387568Y-84526645D01*
X120386381Y-84527533D01*
X120415223Y-84580353D01*
X120410239Y-84650045D01*
X120368367Y-84705978D01*
X120302903Y-84730395D01*
X120294004Y-84730711D01*
X104181283Y-84723879D01*
X104173244Y-84723875D01*
X104173143Y-84723849D01*
X104111277Y-84723849D01*
X104111270Y-84723847D01*
X104103220Y-84723584D01*
X103849145Y-84706932D01*
X103833067Y-84704814D01*
X103758076Y-84689897D01*
X103587362Y-84655940D01*
X103571696Y-84651742D01*
X103334464Y-84571213D01*
X103319478Y-84565006D01*
X103094790Y-84454202D01*
X103080743Y-84446092D01*
X102872439Y-84306908D01*
X102859571Y-84297034D01*
X102671217Y-84131851D01*
X102659748Y-84120382D01*
X102527867Y-83970001D01*
X102494562Y-83932024D01*
X102484691Y-83919160D01*
X102345507Y-83710856D01*
X102337397Y-83696809D01*
X102235495Y-83490172D01*
X102226590Y-83472114D01*
X102220386Y-83457135D01*
X102139857Y-83219903D01*
X102135659Y-83204237D01*
X102090376Y-82976586D01*
X102086783Y-82958521D01*
X102084668Y-82942465D01*
X102068018Y-82688424D01*
X102067754Y-82680251D01*
X102083351Y-66285380D01*
X102103099Y-66218360D01*
X102155947Y-66172656D01*
X102207351Y-66161499D01*
X106785871Y-66161499D01*
X106785872Y-66161499D01*
X106845483Y-66155091D01*
X106980331Y-66104796D01*
X107095546Y-66018546D01*
X107181796Y-65903331D01*
X107232091Y-65768483D01*
X107238500Y-65708873D01*
X107238500Y-65024793D01*
X107258185Y-64957754D01*
X107310989Y-64911999D01*
X107362500Y-64900793D01*
X110215566Y-64900793D01*
X110234746Y-64906425D01*
X110254726Y-64907139D01*
X110267585Y-64916067D01*
X110282605Y-64920478D01*
X110295695Y-64935585D01*
X110312118Y-64946988D01*
X110326325Y-64970934D01*
X110328360Y-64973282D01*
X110330127Y-64977341D01*
X110338561Y-64997703D01*
X110348000Y-65045155D01*
X110348000Y-65217058D01*
X110387219Y-65363429D01*
X110407743Y-65398976D01*
X110421973Y-65436786D01*
X110426497Y-65459529D01*
X110426499Y-65459537D01*
X110475533Y-65577917D01*
X110475538Y-65577926D01*
X110546723Y-65684461D01*
X110546726Y-65684465D01*
X110637327Y-65775066D01*
X110637331Y-65775069D01*
X110743866Y-65846254D01*
X110743872Y-65846257D01*
X110743873Y-65846258D01*
X110862256Y-65895294D01*
X110862260Y-65895294D01*
X110862261Y-65895295D01*
X110987928Y-65920293D01*
X110987931Y-65920293D01*
X111116071Y-65920293D01*
X111201355Y-65903328D01*
X111241744Y-65895294D01*
X111360127Y-65846258D01*
X111466669Y-65775069D01*
X111557276Y-65684462D01*
X111612856Y-65601280D01*
X111666466Y-65556477D01*
X111691765Y-65548555D01*
X111697069Y-65547500D01*
X111822744Y-65522501D01*
X111941127Y-65473465D01*
X112047669Y-65402276D01*
X112133263Y-65316681D01*
X112194584Y-65283198D01*
X112245137Y-65282748D01*
X112257931Y-65285293D01*
X112257932Y-65285293D01*
X112386071Y-65285293D01*
X112489438Y-65264731D01*
X112511744Y-65260294D01*
X112630127Y-65211258D01*
X112658940Y-65192006D01*
X112707641Y-65159465D01*
X112774318Y-65138587D01*
X112841698Y-65157071D01*
X112864213Y-65174886D01*
X113446368Y-65757041D01*
X113450705Y-65764984D01*
X113457952Y-65770409D01*
X113467188Y-65795171D01*
X113479853Y-65818364D01*
X113479207Y-65827391D01*
X113482371Y-65835872D01*
X113476754Y-65861696D01*
X113474869Y-65888056D01*
X113469051Y-65897107D01*
X113467521Y-65904146D01*
X113446371Y-65932401D01*
X113411837Y-65966937D01*
X113304685Y-66074089D01*
X113228919Y-66205317D01*
X113189700Y-66351688D01*
X113189700Y-69355052D01*
X113228919Y-69501423D01*
X113248927Y-69536077D01*
X113277295Y-69585212D01*
X113278029Y-69586482D01*
X113294502Y-69654383D01*
X113276181Y-69713579D01*
X113205389Y-69828350D01*
X113205385Y-69828359D01*
X113182077Y-69898700D01*
X113150201Y-69994894D01*
X113150201Y-69994895D01*
X113150200Y-69994895D01*
X113139700Y-70097674D01*
X113139700Y-71147692D01*
X113139701Y-71147710D01*
X113150200Y-71250487D01*
X113150201Y-71250490D01*
X113205385Y-71417022D01*
X113205387Y-71417027D01*
X113210520Y-71425349D01*
X113297488Y-71566347D01*
X113421544Y-71690403D01*
X113538537Y-71762564D01*
X113585261Y-71814512D01*
X113596484Y-71883474D01*
X113591146Y-71907107D01*
X113549851Y-72031727D01*
X113539700Y-72131084D01*
X113539700Y-72727774D01*
X113539701Y-72727792D01*
X113549850Y-72827144D01*
X113549851Y-72827147D01*
X113591146Y-72951766D01*
X113593548Y-73021594D01*
X113557816Y-73081636D01*
X113538537Y-73096308D01*
X113421547Y-73168468D01*
X113421543Y-73168471D01*
X113297489Y-73292525D01*
X113205387Y-73441846D01*
X113205386Y-73441849D01*
X113150201Y-73608386D01*
X113150201Y-73608387D01*
X113150200Y-73608387D01*
X113139700Y-73711166D01*
X113139700Y-74761184D01*
X113139701Y-74761202D01*
X113150200Y-74863979D01*
X113150201Y-74863982D01*
X113205385Y-75030514D01*
X113205387Y-75030519D01*
X113226993Y-75065548D01*
X113297488Y-75179839D01*
X113421544Y-75303895D01*
X113570866Y-75395997D01*
X113737403Y-75451182D01*
X113840191Y-75461683D01*
X114440208Y-75461682D01*
X114440216Y-75461681D01*
X114440219Y-75461681D01*
X114496502Y-75455931D01*
X114542997Y-75451182D01*
X114709534Y-75395997D01*
X114858856Y-75303895D01*
X114982912Y-75179839D01*
X114984661Y-75177002D01*
X114986369Y-75175466D01*
X114987393Y-75174172D01*
X114987614Y-75174346D01*
X115036606Y-75130279D01*
X115105568Y-75119055D01*
X115169651Y-75146896D01*
X115195737Y-75177000D01*
X115197488Y-75179839D01*
X115321544Y-75303895D01*
X115470866Y-75395997D01*
X115637403Y-75451182D01*
X115740191Y-75461683D01*
X116340208Y-75461682D01*
X116340216Y-75461681D01*
X116340219Y-75461681D01*
X116396502Y-75455931D01*
X116442997Y-75451182D01*
X116609534Y-75395997D01*
X116758856Y-75303895D01*
X116882912Y-75179839D01*
X116975014Y-75030517D01*
X117030199Y-74863980D01*
X117040700Y-74761192D01*
X117040699Y-73711175D01*
X117030199Y-73608386D01*
X116975014Y-73441849D01*
X116882912Y-73292527D01*
X116863509Y-73273124D01*
X116830024Y-73211801D01*
X116835008Y-73142109D01*
X116845645Y-73120357D01*
X116927203Y-72988134D01*
X116980549Y-72827145D01*
X116990700Y-72727782D01*
X116990699Y-72216699D01*
X117010383Y-72149661D01*
X117027013Y-72129024D01*
X117874443Y-71281594D01*
X117935764Y-71248111D01*
X118005456Y-71253095D01*
X118009572Y-71254715D01*
X118090656Y-71288301D01*
X118090660Y-71288301D01*
X118090661Y-71288302D01*
X118216328Y-71313300D01*
X118216331Y-71313300D01*
X118344471Y-71313300D01*
X118429015Y-71296482D01*
X118470144Y-71288301D01*
X118588527Y-71239265D01*
X118695069Y-71168076D01*
X118785676Y-71077469D01*
X118856865Y-70970927D01*
X118905901Y-70852544D01*
X118930900Y-70726869D01*
X118930900Y-70598731D01*
X118930900Y-70598728D01*
X118905902Y-70473061D01*
X118905901Y-70473060D01*
X118905901Y-70473056D01*
X118872315Y-70391974D01*
X118864847Y-70322507D01*
X118896122Y-70260028D01*
X118899197Y-70256841D01*
X118916676Y-70239363D01*
X118979738Y-70176301D01*
X118982835Y-70170936D01*
X118987897Y-70162172D01*
X119055504Y-70045072D01*
X119055506Y-70045067D01*
X119068334Y-69997192D01*
X119068334Y-69997191D01*
X119078128Y-69960638D01*
X119094724Y-69898702D01*
X119094724Y-69747169D01*
X119094724Y-69706829D01*
X119114409Y-69639790D01*
X119167213Y-69594035D01*
X119194533Y-69585212D01*
X119197836Y-69584555D01*
X119315744Y-69561101D01*
X119434127Y-69512065D01*
X119540669Y-69440876D01*
X119540668Y-69440876D01*
X119545171Y-69437868D01*
X119611848Y-69416990D01*
X119679229Y-69435474D01*
X119701743Y-69453289D01*
X119784527Y-69536073D01*
X119784531Y-69536076D01*
X119891066Y-69607261D01*
X119891075Y-69607266D01*
X119917892Y-69618374D01*
X120009456Y-69656301D01*
X120009460Y-69656301D01*
X120009461Y-69656302D01*
X120135128Y-69681300D01*
X120135131Y-69681300D01*
X120263271Y-69681300D01*
X120372198Y-69659632D01*
X120388944Y-69656301D01*
X120507327Y-69607265D01*
X120613869Y-69536076D01*
X120704127Y-69445817D01*
X120731058Y-69431111D01*
X120756872Y-69414523D01*
X120763071Y-69413631D01*
X120765448Y-69412334D01*
X120791807Y-69409500D01*
X120822878Y-69409500D01*
X120870330Y-69418938D01*
X120968256Y-69459501D01*
X120968260Y-69459501D01*
X120968261Y-69459502D01*
X121093928Y-69484500D01*
X121093931Y-69484500D01*
X121222071Y-69484500D01*
X121306615Y-69467682D01*
X121347744Y-69459501D01*
X121466127Y-69410465D01*
X121572669Y-69339276D01*
X121663276Y-69248669D01*
X121734465Y-69142127D01*
X121783501Y-69023744D01*
X121798109Y-68950308D01*
X121830494Y-68888397D01*
X121891210Y-68853822D01*
X121919717Y-68850499D01*
X123221860Y-68850499D01*
X123221863Y-68850499D01*
X123339253Y-68835046D01*
X123339257Y-68835044D01*
X123339262Y-68835044D01*
X123485341Y-68774536D01*
X123610782Y-68678282D01*
X123707036Y-68552841D01*
X123767544Y-68406762D01*
X123783000Y-68289361D01*
X123782999Y-68010640D01*
X123767544Y-67893238D01*
X123767542Y-67893234D01*
X123758935Y-67872455D01*
X123751465Y-67802986D01*
X123758935Y-67777545D01*
X123767544Y-67756762D01*
X123783000Y-67639361D01*
X123782999Y-67360640D01*
X123767544Y-67243238D01*
X123767542Y-67243234D01*
X123758935Y-67222455D01*
X123751465Y-67152986D01*
X123758935Y-67127545D01*
X123767544Y-67106762D01*
X123783000Y-66989361D01*
X123782999Y-66710640D01*
X123782999Y-66710638D01*
X123782999Y-66710636D01*
X123767546Y-66593246D01*
X123767544Y-66593239D01*
X123767544Y-66593238D01*
X123707036Y-66447159D01*
X123610782Y-66321718D01*
X123580360Y-66298374D01*
X123539158Y-66241949D01*
X123535003Y-66172203D01*
X123569214Y-66111282D01*
X123580351Y-66101631D01*
X123610782Y-66078282D01*
X123707036Y-65952841D01*
X123767544Y-65806762D01*
X123783000Y-65689361D01*
X123782999Y-65410640D01*
X123782999Y-65410638D01*
X123782999Y-65410636D01*
X123767546Y-65293246D01*
X123767544Y-65293239D01*
X123767544Y-65293238D01*
X123707036Y-65147159D01*
X123610782Y-65021718D01*
X123485341Y-64925464D01*
X123457990Y-64914135D01*
X123339262Y-64864956D01*
X123339260Y-64864955D01*
X123221870Y-64849501D01*
X123221867Y-64849500D01*
X123221861Y-64849500D01*
X123221854Y-64849500D01*
X121868136Y-64849500D01*
X121750746Y-64864953D01*
X121750737Y-64864956D01*
X121604660Y-64925463D01*
X121479216Y-65021719D01*
X121382964Y-65147158D01*
X121378902Y-65154195D01*
X121376144Y-65152602D01*
X121341648Y-65195355D01*
X121275341Y-65217379D01*
X121223539Y-65208016D01*
X121170144Y-65185899D01*
X121170138Y-65185897D01*
X121044471Y-65160900D01*
X121044469Y-65160900D01*
X120916331Y-65160900D01*
X120916329Y-65160900D01*
X120790661Y-65185897D01*
X120784829Y-65187667D01*
X120784200Y-65185594D01*
X120724433Y-65192006D01*
X120661961Y-65160716D01*
X120658795Y-65157660D01*
X120642451Y-65141315D01*
X120642448Y-65141313D01*
X120535913Y-65070128D01*
X120535904Y-65070123D01*
X120417524Y-65021089D01*
X120417518Y-65021087D01*
X120291851Y-64996090D01*
X120291849Y-64996090D01*
X120163711Y-64996090D01*
X120163709Y-64996090D01*
X120038041Y-65021087D01*
X120038032Y-65021090D01*
X120028590Y-65025001D01*
X119959120Y-65032467D01*
X119896642Y-65001189D01*
X119878040Y-64979328D01*
X119834479Y-64914135D01*
X119834473Y-64914127D01*
X119743872Y-64823526D01*
X119743868Y-64823523D01*
X119637333Y-64752338D01*
X119637324Y-64752333D01*
X119518944Y-64703299D01*
X119518938Y-64703297D01*
X119393271Y-64678300D01*
X119393269Y-64678300D01*
X119265131Y-64678300D01*
X119265129Y-64678300D01*
X119139461Y-64703297D01*
X119139455Y-64703299D01*
X119021075Y-64752333D01*
X119021066Y-64752338D01*
X118914531Y-64823523D01*
X118914527Y-64823526D01*
X118823926Y-64914127D01*
X118823923Y-64914131D01*
X118752738Y-65020666D01*
X118752735Y-65020673D01*
X118724115Y-65089766D01*
X118680273Y-65144169D01*
X118613978Y-65166233D01*
X118546279Y-65148953D01*
X118521873Y-65129993D01*
X117427019Y-64035139D01*
X117393534Y-63973816D01*
X117390700Y-63947458D01*
X117390700Y-62929071D01*
X117967499Y-62929071D01*
X117992497Y-63054738D01*
X117992499Y-63054744D01*
X118041533Y-63173124D01*
X118041538Y-63173133D01*
X118112723Y-63279668D01*
X118112726Y-63279672D01*
X118203327Y-63370273D01*
X118203331Y-63370276D01*
X118309866Y-63441461D01*
X118309872Y-63441464D01*
X118309873Y-63441465D01*
X118428256Y-63490501D01*
X118428260Y-63490501D01*
X118428261Y-63490502D01*
X118553928Y-63515500D01*
X118553931Y-63515500D01*
X118682071Y-63515500D01*
X118784308Y-63495163D01*
X118832692Y-63495163D01*
X118934928Y-63515500D01*
X118934931Y-63515500D01*
X119063071Y-63515500D01*
X119165307Y-63495163D01*
X119188744Y-63490501D01*
X119307127Y-63441465D01*
X119311109Y-63438803D01*
X119377787Y-63417926D01*
X119445167Y-63436411D01*
X119448891Y-63438804D01*
X119452874Y-63441466D01*
X119479033Y-63452301D01*
X119571256Y-63490501D01*
X119571260Y-63490501D01*
X119571261Y-63490502D01*
X119696928Y-63515500D01*
X119696931Y-63515500D01*
X119825071Y-63515500D01*
X119927308Y-63495163D01*
X119975692Y-63495163D01*
X120077928Y-63515500D01*
X120077931Y-63515500D01*
X120206071Y-63515500D01*
X120308308Y-63495163D01*
X120356692Y-63495163D01*
X120458928Y-63515500D01*
X120458931Y-63515500D01*
X120587071Y-63515500D01*
X120689307Y-63495163D01*
X120712744Y-63490501D01*
X120831127Y-63441465D01*
X120937669Y-63370276D01*
X121028276Y-63279669D01*
X121099465Y-63173127D01*
X121148501Y-63054744D01*
X121171066Y-62941305D01*
X121173500Y-62929071D01*
X121173500Y-62800928D01*
X121148502Y-62675261D01*
X121148501Y-62675260D01*
X121148501Y-62675256D01*
X121109675Y-62581522D01*
X121099466Y-62556875D01*
X121099461Y-62556866D01*
X121028276Y-62450331D01*
X121028273Y-62450327D01*
X120937672Y-62359726D01*
X120937668Y-62359723D01*
X120831133Y-62288538D01*
X120831124Y-62288533D01*
X120712744Y-62239499D01*
X120712738Y-62239497D01*
X120587071Y-62214500D01*
X120587069Y-62214500D01*
X120458931Y-62214500D01*
X120458926Y-62214500D01*
X120356691Y-62234836D01*
X120308309Y-62234836D01*
X120206073Y-62214500D01*
X120206069Y-62214500D01*
X120077931Y-62214500D01*
X120077926Y-62214500D01*
X119975691Y-62234836D01*
X119927309Y-62234836D01*
X119825073Y-62214500D01*
X119825069Y-62214500D01*
X119696931Y-62214500D01*
X119696929Y-62214500D01*
X119571261Y-62239497D01*
X119571255Y-62239499D01*
X119452875Y-62288533D01*
X119452866Y-62288538D01*
X119448891Y-62291195D01*
X119382213Y-62312073D01*
X119314833Y-62293588D01*
X119311109Y-62291195D01*
X119307133Y-62288538D01*
X119307124Y-62288533D01*
X119188744Y-62239499D01*
X119188738Y-62239497D01*
X119063071Y-62214500D01*
X119063069Y-62214500D01*
X118934931Y-62214500D01*
X118934926Y-62214500D01*
X118832691Y-62234836D01*
X118784309Y-62234836D01*
X118682073Y-62214500D01*
X118682069Y-62214500D01*
X118553931Y-62214500D01*
X118553929Y-62214500D01*
X118428261Y-62239497D01*
X118428255Y-62239499D01*
X118309875Y-62288533D01*
X118309866Y-62288538D01*
X118203331Y-62359723D01*
X118203327Y-62359726D01*
X118112726Y-62450327D01*
X118112723Y-62450331D01*
X118041538Y-62556866D01*
X118041533Y-62556875D01*
X117992499Y-62675255D01*
X117992497Y-62675261D01*
X117967500Y-62800928D01*
X117967500Y-62800931D01*
X117967500Y-62929069D01*
X117967500Y-62929071D01*
X117967499Y-62929071D01*
X117390700Y-62929071D01*
X117390700Y-62788198D01*
X117390700Y-62788196D01*
X117351481Y-62641827D01*
X117275715Y-62510597D01*
X117168565Y-62403447D01*
X117027018Y-62261900D01*
X116993533Y-62200577D01*
X116990699Y-62174219D01*
X116990699Y-61790624D01*
X116990698Y-61790606D01*
X116980549Y-61691254D01*
X116980548Y-61691251D01*
X116927203Y-61530265D01*
X116927197Y-61530256D01*
X116920973Y-61520165D01*
X116845651Y-61398050D01*
X116827211Y-61330661D01*
X116848133Y-61263997D01*
X116863506Y-61245277D01*
X116882912Y-61225872D01*
X116975014Y-61076550D01*
X117030199Y-60910013D01*
X117040700Y-60807225D01*
X117040699Y-59757208D01*
X117030199Y-59654419D01*
X116975014Y-59487882D01*
X116915656Y-59391647D01*
X123014500Y-59391647D01*
X123014500Y-59988337D01*
X123014501Y-59988355D01*
X123024650Y-60087707D01*
X123024651Y-60087710D01*
X123077996Y-60248694D01*
X123078001Y-60248705D01*
X123167029Y-60393040D01*
X123167032Y-60393044D01*
X123286956Y-60512968D01*
X123325855Y-60536961D01*
X123372578Y-60588908D01*
X123383801Y-60657871D01*
X123355957Y-60721953D01*
X123325856Y-60748036D01*
X123286958Y-60772029D01*
X123167029Y-60891959D01*
X123078001Y-61036294D01*
X123077996Y-61036305D01*
X123024651Y-61197290D01*
X123014500Y-61296647D01*
X123014500Y-61893337D01*
X123014501Y-61893355D01*
X123024650Y-61992707D01*
X123024651Y-61992710D01*
X123077996Y-62153694D01*
X123078001Y-62153705D01*
X123167029Y-62298040D01*
X123167032Y-62298044D01*
X123286956Y-62417968D01*
X123325855Y-62441961D01*
X123372578Y-62493908D01*
X123383801Y-62562871D01*
X123355957Y-62626953D01*
X123325856Y-62653036D01*
X123286958Y-62677029D01*
X123167029Y-62796959D01*
X123078001Y-62941294D01*
X123077996Y-62941305D01*
X123024651Y-63102290D01*
X123014500Y-63201647D01*
X123014500Y-63798337D01*
X123014501Y-63798355D01*
X123024650Y-63897707D01*
X123024651Y-63897710D01*
X123077996Y-64058694D01*
X123078001Y-64058705D01*
X123167029Y-64203040D01*
X123167032Y-64203044D01*
X123286955Y-64322967D01*
X123286959Y-64322970D01*
X123431294Y-64411998D01*
X123431297Y-64411999D01*
X123431303Y-64412003D01*
X123592292Y-64465349D01*
X123691655Y-64475500D01*
X124238344Y-64475499D01*
X124238352Y-64475498D01*
X124238355Y-64475498D01*
X124292760Y-64469940D01*
X124337708Y-64465349D01*
X124498697Y-64412003D01*
X124643044Y-64322968D01*
X124762968Y-64203044D01*
X124852003Y-64058697D01*
X124905349Y-63897708D01*
X124915500Y-63798345D01*
X124915499Y-63201656D01*
X124912585Y-63173133D01*
X124905349Y-63102292D01*
X124905348Y-63102289D01*
X124898370Y-63081231D01*
X124852003Y-62941303D01*
X124851999Y-62941297D01*
X124851998Y-62941294D01*
X124762970Y-62796959D01*
X124762969Y-62796958D01*
X124762968Y-62796956D01*
X124643044Y-62677032D01*
X124643043Y-62677031D01*
X124643042Y-62677030D01*
X124604144Y-62653037D01*
X124557420Y-62601088D01*
X124546199Y-62532126D01*
X124574043Y-62468044D01*
X124604143Y-62441962D01*
X124643044Y-62417968D01*
X124762968Y-62298044D01*
X124852003Y-62153697D01*
X124905349Y-61992708D01*
X124915500Y-61893345D01*
X124915499Y-61296656D01*
X124908268Y-61225872D01*
X124905349Y-61197292D01*
X124905348Y-61197289D01*
X124877571Y-61113463D01*
X124852003Y-61036303D01*
X124851999Y-61036297D01*
X124851998Y-61036294D01*
X124762970Y-60891959D01*
X124762969Y-60891958D01*
X124762968Y-60891956D01*
X124643044Y-60772032D01*
X124643043Y-60772031D01*
X124643042Y-60772030D01*
X124604144Y-60748037D01*
X124557420Y-60696088D01*
X124546199Y-60627126D01*
X124574043Y-60563044D01*
X124604143Y-60536962D01*
X124643044Y-60512968D01*
X124762968Y-60393044D01*
X124852003Y-60248697D01*
X124905349Y-60087708D01*
X124915500Y-59988345D01*
X124915499Y-59391656D01*
X124905349Y-59292292D01*
X124852003Y-59131303D01*
X124851999Y-59131297D01*
X124851998Y-59131294D01*
X124762970Y-58986959D01*
X124762967Y-58986955D01*
X124643044Y-58867032D01*
X124643040Y-58867029D01*
X124498705Y-58778001D01*
X124498699Y-58777998D01*
X124498697Y-58777997D01*
X124498694Y-58777996D01*
X124337709Y-58724651D01*
X124238346Y-58714500D01*
X123691662Y-58714500D01*
X123691644Y-58714501D01*
X123592292Y-58724650D01*
X123592289Y-58724651D01*
X123431305Y-58777996D01*
X123431294Y-58778001D01*
X123286959Y-58867029D01*
X123286955Y-58867032D01*
X123167032Y-58986955D01*
X123167029Y-58986959D01*
X123078001Y-59131294D01*
X123077996Y-59131305D01*
X123024651Y-59292290D01*
X123014500Y-59391647D01*
X116915656Y-59391647D01*
X116882912Y-59338560D01*
X116758856Y-59214504D01*
X116623965Y-59131303D01*
X116609536Y-59122403D01*
X116609531Y-59122401D01*
X116608062Y-59121914D01*
X116442997Y-59067217D01*
X116442995Y-59067216D01*
X116340210Y-59056716D01*
X115740198Y-59056716D01*
X115740180Y-59056717D01*
X115637403Y-59067216D01*
X115637400Y-59067217D01*
X115470868Y-59122401D01*
X115470863Y-59122403D01*
X115321542Y-59214505D01*
X115197489Y-59338558D01*
X115105387Y-59487879D01*
X115105386Y-59487882D01*
X115050201Y-59654419D01*
X115050201Y-59654420D01*
X115050200Y-59654420D01*
X115039700Y-59757199D01*
X115039700Y-60807217D01*
X115039701Y-60807235D01*
X115050200Y-60910012D01*
X115050201Y-60910015D01*
X115075150Y-60985304D01*
X115077552Y-61055132D01*
X115041820Y-61115174D01*
X114979300Y-61146367D01*
X114918440Y-61142014D01*
X114862909Y-61123613D01*
X114763546Y-61113462D01*
X114216862Y-61113462D01*
X114216844Y-61113463D01*
X114117492Y-61123612D01*
X114117489Y-61123613D01*
X113956505Y-61176958D01*
X113956494Y-61176963D01*
X113812159Y-61265991D01*
X113812155Y-61265994D01*
X113692232Y-61385917D01*
X113692229Y-61385921D01*
X113603201Y-61530256D01*
X113603196Y-61530267D01*
X113549851Y-61691252D01*
X113539700Y-61790609D01*
X113539700Y-61843850D01*
X113520015Y-61910889D01*
X113503381Y-61931531D01*
X112700989Y-62733922D01*
X112639666Y-62767407D01*
X112569974Y-62762423D01*
X112544418Y-62749343D01*
X112441138Y-62680334D01*
X112441124Y-62680326D01*
X112322744Y-62631292D01*
X112322738Y-62631290D01*
X112197071Y-62606293D01*
X112197069Y-62606293D01*
X112068931Y-62606293D01*
X112068929Y-62606293D01*
X111943261Y-62631290D01*
X111943255Y-62631292D01*
X111845331Y-62671854D01*
X111797878Y-62681293D01*
X111312204Y-62681293D01*
X111165833Y-62720512D01*
X111034605Y-62796278D01*
X111034602Y-62796280D01*
X110462987Y-63367895D01*
X110462985Y-63367898D01*
X110387220Y-63499125D01*
X110361789Y-63594034D01*
X110356575Y-63609391D01*
X110330126Y-63673245D01*
X110286285Y-63727649D01*
X110219991Y-63749714D01*
X110215565Y-63749793D01*
X107362499Y-63749793D01*
X107295460Y-63730108D01*
X107249705Y-63677304D01*
X107238499Y-63625793D01*
X107238499Y-63323129D01*
X107238498Y-63323123D01*
X107232091Y-63263516D01*
X107181797Y-63128671D01*
X107181793Y-63128664D01*
X107095547Y-63013455D01*
X107095544Y-63013452D01*
X106980335Y-62927206D01*
X106980328Y-62927202D01*
X106845482Y-62876908D01*
X106845483Y-62876908D01*
X106785883Y-62870501D01*
X106785881Y-62870500D01*
X106785873Y-62870500D01*
X106785865Y-62870500D01*
X102210718Y-62870500D01*
X102143679Y-62850815D01*
X102097924Y-62798011D01*
X102086718Y-62746382D01*
X102086807Y-62653036D01*
X102093621Y-55490135D01*
X106980500Y-55490135D01*
X106980500Y-57285870D01*
X106980501Y-57285876D01*
X106986908Y-57345483D01*
X107037202Y-57480328D01*
X107037206Y-57480335D01*
X107123452Y-57595544D01*
X107123455Y-57595547D01*
X107238664Y-57681793D01*
X107238671Y-57681797D01*
X107373517Y-57732091D01*
X107373516Y-57732091D01*
X107380444Y-57732835D01*
X107433127Y-57738500D01*
X109228872Y-57738499D01*
X109288483Y-57732091D01*
X109423331Y-57681796D01*
X109526690Y-57604421D01*
X109592152Y-57580004D01*
X109660425Y-57594855D01*
X109675303Y-57604416D01*
X109778665Y-57681793D01*
X109778668Y-57681795D01*
X109778671Y-57681797D01*
X109913517Y-57732091D01*
X109913516Y-57732091D01*
X109920444Y-57732835D01*
X109973127Y-57738500D01*
X111768872Y-57738499D01*
X111828483Y-57732091D01*
X111963331Y-57681796D01*
X112066690Y-57604421D01*
X112132152Y-57580004D01*
X112200425Y-57594855D01*
X112215303Y-57604416D01*
X112318665Y-57681793D01*
X112318668Y-57681795D01*
X112318671Y-57681797D01*
X112453517Y-57732091D01*
X112453516Y-57732091D01*
X112460444Y-57732835D01*
X112513127Y-57738500D01*
X114308872Y-57738499D01*
X114368483Y-57732091D01*
X114503331Y-57681796D01*
X114606690Y-57604421D01*
X114672152Y-57580004D01*
X114740425Y-57594855D01*
X114755303Y-57604416D01*
X114858665Y-57681793D01*
X114858668Y-57681795D01*
X114858671Y-57681797D01*
X114993517Y-57732091D01*
X114993516Y-57732091D01*
X115000444Y-57732835D01*
X115053127Y-57738500D01*
X116848872Y-57738499D01*
X116908483Y-57732091D01*
X117043331Y-57681796D01*
X117146690Y-57604421D01*
X117212152Y-57580004D01*
X117280425Y-57594855D01*
X117295303Y-57604416D01*
X117398665Y-57681793D01*
X117398668Y-57681795D01*
X117398671Y-57681797D01*
X117533517Y-57732091D01*
X117533516Y-57732091D01*
X117540444Y-57732835D01*
X117593127Y-57738500D01*
X119388872Y-57738499D01*
X119448483Y-57732091D01*
X119583331Y-57681796D01*
X119686690Y-57604421D01*
X119752152Y-57580004D01*
X119820425Y-57594855D01*
X119835303Y-57604416D01*
X119938665Y-57681793D01*
X119938668Y-57681795D01*
X119938671Y-57681797D01*
X120073517Y-57732091D01*
X120073516Y-57732091D01*
X120080444Y-57732835D01*
X120133127Y-57738500D01*
X121928872Y-57738499D01*
X121988483Y-57732091D01*
X122123331Y-57681796D01*
X122238546Y-57595546D01*
X122324796Y-57480331D01*
X122375091Y-57345483D01*
X122381500Y-57285873D01*
X122381499Y-55490128D01*
X122375091Y-55430517D01*
X122324796Y-55295669D01*
X122324795Y-55295668D01*
X122324793Y-55295664D01*
X122238547Y-55180455D01*
X122238544Y-55180452D01*
X122123335Y-55094206D01*
X122123328Y-55094202D01*
X121988482Y-55043908D01*
X121988483Y-55043908D01*
X121928883Y-55037501D01*
X121928881Y-55037500D01*
X121928873Y-55037500D01*
X121928864Y-55037500D01*
X120133129Y-55037500D01*
X120133123Y-55037501D01*
X120073516Y-55043908D01*
X119938671Y-55094202D01*
X119938669Y-55094203D01*
X119835311Y-55171578D01*
X119769847Y-55195995D01*
X119701574Y-55181144D01*
X119686689Y-55171578D01*
X119583330Y-55094203D01*
X119583328Y-55094202D01*
X119448482Y-55043908D01*
X119448483Y-55043908D01*
X119388883Y-55037501D01*
X119388881Y-55037500D01*
X119388873Y-55037500D01*
X119388864Y-55037500D01*
X117593129Y-55037500D01*
X117593123Y-55037501D01*
X117533516Y-55043908D01*
X117398671Y-55094202D01*
X117398669Y-55094203D01*
X117295311Y-55171578D01*
X117229847Y-55195995D01*
X117161574Y-55181144D01*
X117146689Y-55171578D01*
X117043330Y-55094203D01*
X117043328Y-55094202D01*
X116908482Y-55043908D01*
X116908483Y-55043908D01*
X116848883Y-55037501D01*
X116848881Y-55037500D01*
X116848873Y-55037500D01*
X116848864Y-55037500D01*
X115053129Y-55037500D01*
X115053123Y-55037501D01*
X114993516Y-55043908D01*
X114858671Y-55094202D01*
X114858669Y-55094203D01*
X114755311Y-55171578D01*
X114689847Y-55195995D01*
X114621574Y-55181144D01*
X114606689Y-55171578D01*
X114503330Y-55094203D01*
X114503328Y-55094202D01*
X114368482Y-55043908D01*
X114368483Y-55043908D01*
X114308883Y-55037501D01*
X114308881Y-55037500D01*
X114308873Y-55037500D01*
X114308864Y-55037500D01*
X112513129Y-55037500D01*
X112513123Y-55037501D01*
X112453516Y-55043908D01*
X112318671Y-55094202D01*
X112318669Y-55094203D01*
X112215311Y-55171578D01*
X112149847Y-55195995D01*
X112081574Y-55181144D01*
X112066689Y-55171578D01*
X111963330Y-55094203D01*
X111963328Y-55094202D01*
X111828482Y-55043908D01*
X111828483Y-55043908D01*
X111768883Y-55037501D01*
X111768881Y-55037500D01*
X111768873Y-55037500D01*
X111768864Y-55037500D01*
X109973129Y-55037500D01*
X109973123Y-55037501D01*
X109913516Y-55043908D01*
X109778671Y-55094202D01*
X109778669Y-55094203D01*
X109675311Y-55171578D01*
X109609847Y-55195995D01*
X109541574Y-55181144D01*
X109526689Y-55171578D01*
X109423330Y-55094203D01*
X109423328Y-55094202D01*
X109288482Y-55043908D01*
X109288483Y-55043908D01*
X109228883Y-55037501D01*
X109228881Y-55037500D01*
X109228873Y-55037500D01*
X109228864Y-55037500D01*
X107433129Y-55037500D01*
X107433123Y-55037501D01*
X107373516Y-55043908D01*
X107238671Y-55094202D01*
X107238664Y-55094206D01*
X107123455Y-55180452D01*
X107123452Y-55180455D01*
X107037206Y-55295664D01*
X107037202Y-55295671D01*
X106986908Y-55430517D01*
X106980501Y-55490116D01*
X106980501Y-55490123D01*
X106980500Y-55490135D01*
X102093621Y-55490135D01*
X102100436Y-48326127D01*
X102100500Y-48325892D01*
X102100500Y-48263938D01*
X102100504Y-48263922D01*
X102100765Y-48255957D01*
X102100974Y-48252759D01*
X102117417Y-48001883D01*
X102119529Y-47985840D01*
X102120561Y-47980653D01*
X122135500Y-47980653D01*
X122135500Y-48138346D01*
X122166261Y-48292989D01*
X122166264Y-48293001D01*
X122226602Y-48438672D01*
X122226609Y-48438685D01*
X122314210Y-48569788D01*
X122314213Y-48569792D01*
X122425707Y-48681286D01*
X122425711Y-48681289D01*
X122556814Y-48768890D01*
X122556827Y-48768897D01*
X122693505Y-48825510D01*
X122702503Y-48829237D01*
X122843851Y-48857353D01*
X122857153Y-48859999D01*
X122857156Y-48860000D01*
X122857158Y-48860000D01*
X123014844Y-48860000D01*
X123014845Y-48859999D01*
X123169497Y-48829237D01*
X123315179Y-48768894D01*
X123446289Y-48681289D01*
X123557789Y-48569789D01*
X123645394Y-48438679D01*
X123705737Y-48292997D01*
X123736500Y-48138342D01*
X123736500Y-47980658D01*
X123736500Y-47980655D01*
X123736499Y-47980653D01*
X123705738Y-47826010D01*
X123705737Y-47826003D01*
X123677637Y-47758162D01*
X123645397Y-47680327D01*
X123645390Y-47680314D01*
X123557789Y-47549211D01*
X123557786Y-47549207D01*
X123446292Y-47437713D01*
X123446288Y-47437710D01*
X123315185Y-47350109D01*
X123315172Y-47350102D01*
X123169501Y-47289764D01*
X123169489Y-47289761D01*
X123014845Y-47259000D01*
X123014842Y-47259000D01*
X122857158Y-47259000D01*
X122857155Y-47259000D01*
X122702510Y-47289761D01*
X122702498Y-47289764D01*
X122556827Y-47350102D01*
X122556814Y-47350109D01*
X122425711Y-47437710D01*
X122425707Y-47437713D01*
X122314213Y-47549207D01*
X122314210Y-47549211D01*
X122226609Y-47680314D01*
X122226602Y-47680327D01*
X122166264Y-47825998D01*
X122166261Y-47826010D01*
X122135500Y-47980653D01*
X102120561Y-47980653D01*
X102168409Y-47740107D01*
X102172606Y-47724445D01*
X102252095Y-47490278D01*
X102253138Y-47487205D01*
X102259336Y-47472239D01*
X102370149Y-47247533D01*
X102378252Y-47233498D01*
X102517448Y-47025176D01*
X102527305Y-47012331D01*
X102692502Y-46823960D01*
X102703960Y-46812502D01*
X102892331Y-46647305D01*
X102905176Y-46637448D01*
X103113498Y-46498252D01*
X103127533Y-46490149D01*
X103352239Y-46379336D01*
X103367205Y-46373138D01*
X103563635Y-46306459D01*
X103604445Y-46292606D01*
X103620107Y-46288409D01*
X103865829Y-46239531D01*
X103881881Y-46237417D01*
X104135952Y-46220765D01*
X104144070Y-46220501D01*
X146727953Y-46238523D01*
G37*
%TD.AperFunction*%
%TA.AperFunction,Conductor*%
G36*
X124722138Y-72645185D02*
G01*
X124742780Y-72661819D01*
X126781255Y-74700294D01*
X126814740Y-74761617D01*
X126809756Y-74831309D01*
X126767884Y-74887242D01*
X126702420Y-74911659D01*
X126680974Y-74911333D01*
X126677723Y-74911001D01*
X126677714Y-74911000D01*
X126677709Y-74911000D01*
X126677703Y-74911000D01*
X126077698Y-74911000D01*
X126077680Y-74911001D01*
X125974903Y-74921500D01*
X125974900Y-74921501D01*
X125808368Y-74976685D01*
X125808363Y-74976687D01*
X125659042Y-75068789D01*
X125534985Y-75192846D01*
X125533237Y-75195682D01*
X125531529Y-75197217D01*
X125530507Y-75198511D01*
X125530285Y-75198336D01*
X125481289Y-75242405D01*
X125412326Y-75253626D01*
X125348244Y-75225782D01*
X125322163Y-75195682D01*
X125320414Y-75192846D01*
X125196357Y-75068789D01*
X125196356Y-75068788D01*
X125103588Y-75011569D01*
X125047036Y-74976687D01*
X125047031Y-74976685D01*
X125039550Y-74974206D01*
X124880497Y-74921501D01*
X124880495Y-74921500D01*
X124777710Y-74911000D01*
X124177698Y-74911000D01*
X124177680Y-74911001D01*
X124074903Y-74921500D01*
X124074900Y-74921501D01*
X123908368Y-74976685D01*
X123908363Y-74976687D01*
X123759042Y-75068789D01*
X123634989Y-75192842D01*
X123542887Y-75342163D01*
X123542885Y-75342168D01*
X123496239Y-75482937D01*
X123456466Y-75540382D01*
X123410626Y-75563708D01*
X123274365Y-75600219D01*
X123274363Y-75600219D01*
X123274363Y-75600220D01*
X123143135Y-75675985D01*
X123143132Y-75675987D01*
X122764013Y-76055105D01*
X122702690Y-76088590D01*
X122632998Y-76083606D01*
X122588651Y-76055105D01*
X122520372Y-75986826D01*
X122520368Y-75986823D01*
X122413833Y-75915638D01*
X122413824Y-75915633D01*
X122295444Y-75866599D01*
X122295438Y-75866597D01*
X122169771Y-75841600D01*
X122169769Y-75841600D01*
X122041631Y-75841600D01*
X122041629Y-75841600D01*
X121915961Y-75866597D01*
X121915951Y-75866600D01*
X121834875Y-75900183D01*
X121765406Y-75907652D01*
X121702927Y-75876376D01*
X121699742Y-75873303D01*
X120522819Y-74696380D01*
X120508115Y-74669452D01*
X120491523Y-74643634D01*
X120490631Y-74637433D01*
X120489334Y-74635057D01*
X120486500Y-74608699D01*
X120486500Y-74454700D01*
X120506185Y-74387661D01*
X120558989Y-74341906D01*
X120610500Y-74330700D01*
X120842613Y-74330700D01*
X120842616Y-74330700D01*
X120913196Y-74324286D01*
X121075606Y-74273678D01*
X121221185Y-74185672D01*
X121341472Y-74065385D01*
X121381022Y-73999962D01*
X121386712Y-73990550D01*
X121394646Y-73983283D01*
X121399116Y-73973497D01*
X121419963Y-73960099D01*
X121438240Y-73943362D01*
X121450394Y-73940542D01*
X121457894Y-73935723D01*
X121492829Y-73930700D01*
X121505438Y-73930700D01*
X121572477Y-73950385D01*
X121580923Y-73956323D01*
X121604659Y-73974536D01*
X121604663Y-73974538D01*
X121625776Y-73983283D01*
X121750738Y-74035044D01*
X121868139Y-74050500D01*
X123221860Y-74050499D01*
X123221863Y-74050499D01*
X123339253Y-74035046D01*
X123339257Y-74035044D01*
X123339262Y-74035044D01*
X123485341Y-73974536D01*
X123610782Y-73878282D01*
X123707036Y-73752841D01*
X123767544Y-73606762D01*
X123783000Y-73489361D01*
X123782999Y-73210640D01*
X123781663Y-73200495D01*
X123776970Y-73164843D01*
X123767544Y-73093238D01*
X123758934Y-73072454D01*
X123751465Y-73002986D01*
X123758935Y-72977545D01*
X123767544Y-72956762D01*
X123783000Y-72839361D01*
X123783000Y-72749500D01*
X123802685Y-72682461D01*
X123855489Y-72636706D01*
X123907000Y-72625500D01*
X124655099Y-72625500D01*
X124722138Y-72645185D01*
G37*
%TD.AperFunction*%
%TA.AperFunction,Conductor*%
G36*
X117836763Y-68435839D02*
G01*
X117882518Y-68488643D01*
X117893724Y-68540153D01*
X117893724Y-68740057D01*
X117908212Y-68850117D01*
X117908215Y-68850125D01*
X117934285Y-68913063D01*
X117943724Y-68960516D01*
X117943724Y-69533192D01*
X117924039Y-69600231D01*
X117907405Y-69620873D01*
X117252380Y-70275898D01*
X117191057Y-70309383D01*
X117121365Y-70304399D01*
X117065432Y-70262527D01*
X117041015Y-70197063D01*
X117040699Y-70188217D01*
X117040699Y-70097689D01*
X117040698Y-70097672D01*
X117030199Y-69994894D01*
X117030198Y-69994891D01*
X117005294Y-69919736D01*
X116975014Y-69828357D01*
X116882912Y-69679035D01*
X116863509Y-69659632D01*
X116830024Y-69598309D01*
X116835008Y-69528617D01*
X116845645Y-69506865D01*
X116927203Y-69374642D01*
X116980549Y-69213653D01*
X116990700Y-69114290D01*
X116990699Y-68540153D01*
X117010383Y-68473115D01*
X117063187Y-68427360D01*
X117114699Y-68416154D01*
X117769724Y-68416154D01*
X117836763Y-68435839D01*
G37*
%TD.AperFunction*%
%TA.AperFunction,Conductor*%
G36*
X117195902Y-65432228D02*
G01*
X117202380Y-65438260D01*
X117889681Y-66125561D01*
X117894313Y-66132493D01*
X117898551Y-66135436D01*
X117916561Y-66165789D01*
X117926648Y-66190141D01*
X117934117Y-66259610D01*
X117902842Y-66322090D01*
X117842753Y-66357742D01*
X117812087Y-66361594D01*
X117564582Y-66361594D01*
X117497543Y-66341909D01*
X117476901Y-66325275D01*
X117027018Y-65875392D01*
X116993533Y-65814069D01*
X116990699Y-65787711D01*
X116990699Y-65525941D01*
X117010384Y-65458902D01*
X117063188Y-65413147D01*
X117132346Y-65403203D01*
X117195902Y-65432228D01*
G37*
%TD.AperFunction*%
%TA.AperFunction,Conductor*%
G36*
X114108125Y-63051207D02*
G01*
X114117492Y-63054311D01*
X114216855Y-63064462D01*
X114515700Y-63064461D01*
X114582739Y-63084145D01*
X114628494Y-63136949D01*
X114639700Y-63188461D01*
X114639700Y-64602954D01*
X114620015Y-64669993D01*
X114567211Y-64715748D01*
X114515700Y-64726954D01*
X114216863Y-64726954D01*
X114216844Y-64726955D01*
X114118676Y-64736984D01*
X114049983Y-64724214D01*
X114018394Y-64701307D01*
X113409117Y-64092030D01*
X113382237Y-64051801D01*
X113375335Y-64035139D01*
X113354645Y-63985187D01*
X113327745Y-63920244D01*
X113320276Y-63850775D01*
X113327745Y-63825340D01*
X113343890Y-63786363D01*
X113382239Y-63693778D01*
X113409114Y-63653557D01*
X113981442Y-63081229D01*
X113995109Y-63073766D01*
X114005711Y-63062351D01*
X114025151Y-63057362D01*
X114042763Y-63047746D01*
X114059229Y-63048618D01*
X114073388Y-63044985D01*
X114108125Y-63051207D01*
G37*
%TD.AperFunction*%
%TD*%
M02*
