M48
; DRILL file KiCad 10.0.3 date 2026-06-27T13:58:56
; FORMAT={-:-/ absolute / metric / decimal}
; #@! TF.CreationDate,2026-06-27T13:58:56+01:00
; #@! TF.GenerationSoftware,Kicad,Pcbnew,10.0.3
; #@! TF.FileFunction,Plated,1,4,PTH
FMAT,2
METRIC
; #@! TA.AperFunction,Plated,PTH,ViaDrill
T1C0.150
; #@! TA.AperFunction,Plated,PTH,ComponentDrill
T2C0.460
; #@! TA.AperFunction,Plated,PTH,ComponentDrill
T3C1.000
; #@! TA.AperFunction,Plated,PTH,ComponentDrill
T4C1.100
%
G90
G05
T1
X102.87Y-48.26
X102.87Y-49.53
X102.87Y-50.8
X102.87Y-52.07
X102.87Y-53.34
X102.87Y-54.61
X102.87Y-55.88
X102.87Y-57.15
X102.87Y-71.12
X102.87Y-72.39
X102.87Y-73.66
X102.87Y-74.93
X102.87Y-76.2
X102.87Y-77.47
X102.87Y-78.74
X102.87Y-80.01
X102.87Y-81.28
X102.87Y-82.55
X104.14Y-46.99
X104.14Y-48.26
X104.14Y-49.53
X104.14Y-50.8
X104.14Y-52.07
X104.14Y-53.34
X104.14Y-54.61
X104.14Y-55.88
X104.14Y-57.15
X104.14Y-71.12
X104.14Y-72.39
X104.14Y-73.66
X104.14Y-74.93
X104.14Y-76.2
X104.14Y-77.47
X104.14Y-78.74
X104.14Y-80.01
X104.14Y-81.28
X104.14Y-82.55
X104.14Y-83.82
X105.41Y-46.99
X105.41Y-48.26
X105.41Y-49.53
X105.41Y-50.8
X105.41Y-52.07
X105.41Y-53.34
X105.41Y-54.61
X105.41Y-55.88
X105.41Y-57.15
X105.41Y-71.12
X105.41Y-72.39
X105.41Y-73.66
X105.41Y-74.93
X105.41Y-76.2
X105.41Y-77.47
X105.41Y-78.74
X105.41Y-80.01
X105.41Y-81.28
X105.41Y-82.55
X105.41Y-83.82
X106.68Y-46.99
X106.68Y-48.26
X106.68Y-49.53
X106.68Y-50.8
X106.68Y-52.07
X106.68Y-53.34
X106.68Y-71.12
X106.68Y-72.39
X106.68Y-73.66
X106.68Y-74.93
X106.68Y-76.2
X106.68Y-77.47
X106.68Y-78.74
X106.68Y-80.01
X106.68Y-81.28
X106.68Y-82.55
X106.68Y-83.82
X107.188Y-63.881
X107.188Y-64.77
X107.442Y-63.5
X107.442Y-65.151
X107.696Y-63.881
X107.696Y-64.77
X107.95Y-46.99
X107.95Y-48.26
X107.95Y-49.53
X107.95Y-50.8
X107.95Y-52.07
X107.95Y-53.34
X107.95Y-63.5
X107.95Y-65.151
X107.95Y-71.12
X107.95Y-72.39
X107.95Y-73.66
X107.95Y-74.93
X107.95Y-76.2
X107.95Y-77.47
X107.95Y-78.74
X107.95Y-80.01
X107.95Y-81.28
X107.95Y-82.55
X107.95Y-83.82
X108.204Y-63.881
X108.204Y-64.77
X108.458Y-63.5
X108.458Y-65.151
X108.712Y-63.881
X108.712Y-64.77
X108.966Y-63.5
X108.966Y-65.151
X109.22Y-46.99
X109.22Y-48.26
X109.22Y-49.53
X109.22Y-50.8
X109.22Y-52.07
X109.22Y-53.34
X109.22Y-63.881
X109.22Y-64.77
X109.22Y-67.31
X109.22Y-68.58
X109.22Y-69.85
X109.22Y-71.12
X109.22Y-72.39
X109.22Y-73.66
X109.22Y-74.93
X109.22Y-76.2
X109.22Y-77.47
X109.22Y-78.74
X109.22Y-80.01
X109.22Y-81.28
X109.22Y-82.55
X109.22Y-83.82
X109.474Y-63.5
X109.474Y-65.151
X109.728Y-63.881
X109.728Y-64.77
X109.855Y-59.69
X109.855Y-60.96
X109.855Y-62.23
X109.982Y-63.5
X109.982Y-65.151
X110.236Y-63.881
X110.236Y-64.77
X110.49Y-46.99
X110.49Y-48.26
X110.49Y-49.53
X110.49Y-50.8
X110.49Y-52.07
X110.49Y-53.34
X110.49Y-67.31
X110.49Y-68.58
X110.49Y-69.85
X110.49Y-71.12
X110.49Y-72.39
X110.49Y-73.66
X110.49Y-74.93
X110.49Y-76.2
X110.49Y-77.47
X110.49Y-78.74
X110.49Y-80.01
X110.49Y-81.28
X110.49Y-82.55
X110.49Y-83.82
X111.052Y-65.27
X111.633Y-64.897
X111.696Y-64.262
X111.76Y-46.99
X111.76Y-48.26
X111.76Y-49.53
X111.76Y-50.8
X111.76Y-52.07
X111.76Y-53.34
X111.76Y-67.31
X111.76Y-68.58
X111.76Y-69.85
X111.76Y-71.12
X111.76Y-72.39
X111.76Y-73.66
X111.76Y-74.93
X111.76Y-76.2
X111.76Y-77.47
X111.76Y-78.74
X111.76Y-80.01
X111.76Y-81.28
X111.76Y-82.55
X111.76Y-83.82
X112.133Y-63.257
X112.322Y-64.635
X113.03Y-46.99
X113.03Y-48.26
X113.03Y-49.53
X113.03Y-50.8
X113.03Y-52.07
X113.03Y-53.34
X113.03Y-76.2
X113.03Y-77.47
X113.03Y-78.74
X113.03Y-80.01
X113.03Y-81.28
X113.03Y-82.55
X113.03Y-83.82
X113.284Y-59.588
X113.791Y-59.215
X114.14Y-60.282
X114.14Y-63.896
X114.14Y-70.623
X114.14Y-74.236
X114.3Y-46.99
X114.3Y-48.26
X114.3Y-49.53
X114.3Y-50.8
X114.3Y-52.07
X114.3Y-53.34
X114.3Y-76.2
X114.3Y-77.47
X114.3Y-78.74
X114.3Y-80.01
X114.3Y-81.28
X114.3Y-82.55
X114.3Y-83.82
X114.402Y-59.182
X114.49Y-68.816
X114.91Y-59.233
X115.095Y-75.438
X115.468Y-59.233
X115.57Y-46.99
X115.57Y-48.26
X115.57Y-49.53
X115.57Y-50.8
X115.57Y-52.07
X115.57Y-53.34
X115.57Y-75.438
X115.57Y-76.2
X115.57Y-77.47
X115.57Y-78.74
X115.57Y-80.01
X115.57Y-81.28
X115.57Y-82.55
X115.57Y-83.82
X115.976Y-59.03
X116.025Y-75.429
X116.484Y-59.08
X116.499Y-75.453
X116.607Y-69.529
X116.838Y-72.123
X116.84Y-46.99
X116.84Y-48.26
X116.84Y-49.53
X116.84Y-50.8
X116.84Y-52.07
X116.84Y-53.34
X116.84Y-73.027
X116.84Y-76.2
X116.84Y-77.47
X116.84Y-78.74
X116.84Y-80.01
X116.84Y-81.28
X116.84Y-82.55
X116.84Y-83.82
X116.84Y-68.936
X116.841Y-72.598
X116.842Y-69.9
X116.849Y-73.529
X116.899Y-74.002
X116.92Y-59.356
X116.942Y-60.046
X116.967Y-67.31
X116.967Y-68.266
X116.967Y-70.706
X116.967Y-74.422
X116.967Y-74.897
X116.967Y-75.372
X117.094Y-60.96
X117.094Y-61.341
X117.094Y-61.722
X117.094Y-62.103
X117.094Y-62.484
X117.094Y-65.024
X117.094Y-65.532
X117.094Y-66.04
X117.156Y-71.788
X117.395Y-70.346
X117.408Y-68.266
X117.465Y-71.478
X117.558Y-69.884
X117.823Y-68.266
X117.83Y-67.371
X117.83Y-69.127
X117.833Y-68.723
X117.855Y-69.602
X117.856Y-62.865
X117.867Y-66.512
X118.11Y-46.99
X118.11Y-48.26
X118.11Y-49.53
X118.11Y-74.93
X118.11Y-76.2
X118.11Y-77.47
X118.11Y-78.74
X118.11Y-80.01
X118.11Y-81.28
X118.11Y-82.55
X118.11Y-83.82
X118.237Y-62.865
X118.28Y-64.211
X118.28Y-70.663
X118.618Y-62.865
X118.936Y-73.355
X118.999Y-62.865
X119.126Y-51.145
X119.126Y-68.936
X119.148Y-72.502
X119.256Y-71.727
X119.329Y-65.329
X119.38Y-46.99
X119.38Y-48.26
X119.38Y-49.53
X119.38Y-76.2
X119.38Y-77.47
X119.38Y-78.74
X119.38Y-80.01
X119.38Y-81.28
X119.38Y-82.55
X119.38Y-83.82
X119.456Y-66.929
X119.619Y-72.569
X119.687Y-68.275
X119.719Y-71.831
X119.761Y-62.865
X119.95Y-72.238
X120.142Y-62.865
X120.199Y-69.031
X120.228Y-65.647
X120.234Y-71.865
X120.523Y-62.865
X120.65Y-46.99
X120.65Y-48.26
X120.65Y-49.53
X120.934Y-67.015
X120.978Y-69.351
X120.98Y-65.811
X121.03Y-70.264
X121.03Y-70.739
X121.031Y-69.789
X121.082Y-67.589
X121.158Y-68.834
X121.158Y-72.263
X122.029Y-78.575
X122.055Y-77.61
X122.106Y-76.492
X122.131Y-79.667
X122.415Y-59.69
X122.415Y-61.595
X122.415Y-63.5
X122.453Y-72.72
X122.545Y-65.55
X122.545Y-66.2
X122.545Y-68.15
X122.545Y-68.8
X122.545Y-69.45
X122.545Y-70.1
X122.545Y-70.75
X122.545Y-74.0
X123.274Y-78.981
X123.477Y-76.924
X123.965Y-59.69
X123.965Y-61.417
X123.965Y-63.322
X125.476Y-55.679
X125.921Y-63.5
X127.567Y-78.956
X127.617Y-77.153
X128.27Y-71.4
X128.27Y-73.35
X128.27Y-74.0
X128.295Y-67.513
X128.295Y-68.834
X128.321Y-68.174
X128.372Y-66.218
X128.372Y-66.853
X128.71Y-79.591
X128.761Y-76.467
X128.862Y-78.549
X128.938Y-77.584
X129.781Y-63.5
X130.81Y-73.8
X131.331Y-63.5
X132.715Y-74.155
X134.62Y-48.26
X134.62Y-50.8
X134.62Y-53.34
X137.16Y-48.26
X137.16Y-50.8
X137.16Y-53.34
X137.16Y-53.34
X139.7Y-48.26
X139.7Y-50.8
X139.7Y-53.34
X142.24Y-48.26
X142.24Y-50.8
X142.24Y-53.34
X142.24Y-66.04
X142.24Y-68.58
X142.24Y-71.12
X142.24Y-73.66
X142.24Y-76.2
X142.24Y-78.74
X142.24Y-81.28
X142.24Y-83.82
X144.78Y-48.26
X144.78Y-50.8
X144.78Y-53.34
X144.78Y-63.5
X144.78Y-66.04
X144.78Y-68.58
X144.78Y-71.12
X144.78Y-73.66
X144.78Y-76.2
X144.78Y-78.74
X144.78Y-81.28
X144.78Y-83.82
X147.32Y-48.26
X147.32Y-50.8
X147.32Y-53.34
X147.32Y-60.96
X147.32Y-63.5
X147.32Y-66.04
X147.32Y-68.58
X147.32Y-71.12
X147.32Y-73.66
X147.32Y-76.2
X147.32Y-78.74
X147.32Y-81.28
X147.32Y-83.82
T2
X107.638Y-60.136
X107.638Y-68.896
T3
X108.331Y-56.388
X110.871Y-56.388
X113.411Y-56.388
X115.951Y-56.388
X118.491Y-56.388
X121.031Y-56.388
X121.59Y-83.312
X124.079Y-83.312
X126.619Y-83.312
X129.159Y-83.312
X132.334Y-57.404
X134.874Y-57.404
X137.414Y-57.404
X139.954Y-57.404
X142.494Y-57.404
X145.034Y-57.404
X147.574Y-57.404
T4
X122.936Y-50.599
X125.476Y-50.599
X128.016Y-50.599
X130.556Y-50.599
M30
