%TF.GenerationSoftware,KiCad,Pcbnew,10.0.3*%
%TF.CreationDate,2026-06-27T13:58:59+01:00*%
%TF.ProjectId,Ai1_CC1000,4169315f-4343-4313-9030-302e6b696361,rev?*%
%TF.SameCoordinates,Original*%
%TF.FileFunction,Soldermask,Top*%
%TF.FilePolarity,Negative*%
%FSLAX46Y46*%
G04 Gerber Fmt 4.6, Leading zero omitted, Abs format (unit mm)*
G04 Created by KiCad (PCBNEW 10.0.3) date 2026-06-27 13:58:59*
%MOMM*%
%LPD*%
G01*
G04 APERTURE LIST*
G04 Aperture macros list*
%AMRoundRect*
0 Rectangle with rounded corners*
0 $1 Rounding radius*
0 $2 $3 $4 $5 $6 $7 $8 $9 X,Y pos of 4 corners*
0 Add a 4 corners polygon primitive as box body*
4,1,4,$2,$3,$4,$5,$6,$7,$8,$9,$2,$3,0*
0 Add four circle primitives for the rounded corners*
1,1,$1+$1,$2,$3*
1,1,$1+$1,$4,$5*
1,1,$1+$1,$6,$7*
1,1,$1+$1,$8,$9*
0 Add four rect primitives between the rounded corners*
20,1,$1+$1,$2,$3,$4,$5,0*
20,1,$1+$1,$4,$5,$6,$7,0*
20,1,$1+$1,$6,$7,$8,$9,0*
20,1,$1+$1,$8,$9,$2,$3,0*%
%AMFreePoly0*
4,1,6,1.000000,0.000000,0.500000,-0.750000,-0.500000,-0.750000,-0.500000,0.750000,0.500000,0.750000,1.000000,0.000000,1.000000,0.000000,$1*%
%AMFreePoly1*
4,1,6,0.500000,-0.750000,-0.650000,-0.750000,-0.150000,0.000000,-0.650000,0.750000,0.500000,0.750000,0.500000,-0.750000,0.500000,-0.750000,$1*%
G04 Aperture macros list end*
%ADD10RoundRect,0.225000X-0.225000X-0.250000X0.225000X-0.250000X0.225000X0.250000X-0.225000X0.250000X0*%
%ADD11R,1.700000X1.700000*%
%ADD12RoundRect,0.250000X0.250000X0.475000X-0.250000X0.475000X-0.250000X-0.475000X0.250000X-0.475000X0*%
%ADD13C,1.700000*%
%ADD14RoundRect,0.062500X0.062500X0.062500X-0.062500X0.062500X-0.062500X-0.062500X0.062500X-0.062500X0*%
%ADD15RoundRect,0.200000X0.200000X0.275000X-0.200000X0.275000X-0.200000X-0.275000X0.200000X-0.275000X0*%
%ADD16RoundRect,0.062500X-0.062500X-0.062500X0.062500X-0.062500X0.062500X0.062500X-0.062500X0.062500X0*%
%ADD17RoundRect,0.225000X0.250000X-0.225000X0.250000X0.225000X-0.250000X0.225000X-0.250000X-0.225000X0*%
%ADD18RoundRect,0.225000X-0.250000X0.225000X-0.250000X-0.225000X0.250000X-0.225000X0.250000X0.225000X0*%
%ADD19RoundRect,0.100000X-0.637500X-0.100000X0.637500X-0.100000X0.637500X0.100000X-0.637500X0.100000X0*%
%ADD20C,1.100000*%
%ADD21RoundRect,0.249999X0.850001X0.850001X-0.850001X0.850001X-0.850001X-0.850001X0.850001X-0.850001X0*%
%ADD22C,2.200000*%
%ADD23RoundRect,0.250000X-0.250000X-0.475000X0.250000X-0.475000X0.250000X0.475000X-0.250000X0.475000X0*%
%ADD24RoundRect,0.225000X0.225000X0.250000X-0.225000X0.250000X-0.225000X-0.250000X0.225000X-0.250000X0*%
%ADD25FreePoly0,90.000000*%
%ADD26FreePoly1,90.000000*%
%ADD27RoundRect,0.200000X-0.200000X-0.275000X0.200000X-0.275000X0.200000X0.275000X-0.200000X0.275000X0*%
%ADD28RoundRect,0.250000X-0.750000X3.687500X-0.750000X-3.687500X0.750000X-3.687500X0.750000X3.687500X0*%
%ADD29FreePoly0,180.000000*%
%ADD30FreePoly1,180.000000*%
%ADD31R,5.080000X2.290000*%
%ADD32R,5.080000X2.420000*%
G04 APERTURE END LIST*
%TO.C,JP1*%
G36*
X118376000Y-50644500D02*
G01*
X119876000Y-50644500D01*
X119876000Y-53094500D01*
X118376000Y-53094500D01*
X118376000Y-50644500D01*
G37*
%TO.C,JP2*%
G36*
X124976000Y-54929500D02*
G01*
X127426000Y-54929500D01*
X127426000Y-56429500D01*
X124976000Y-56429500D01*
X124976000Y-54929500D01*
G37*
%TD*%
D10*
%TO.C,C1_0*%
X122415000Y-59690000D03*
X123965000Y-59690000D03*
%TD*%
D11*
%TO.C,J13*%
X126619000Y-83312000D03*
%TD*%
D12*
%TO.C,L41_1*%
X116040200Y-70622691D03*
X114140200Y-70622691D03*
%TD*%
D10*
%TO.C,C31_2*%
X114490200Y-65702454D03*
X116040200Y-65702454D03*
%TD*%
D11*
%TO.C,J1*%
X134874000Y-57404000D03*
D13*
X137414000Y-57404000D03*
X139954000Y-57404000D03*
X142494000Y-57404000D03*
X145034000Y-57404000D03*
%TD*%
D11*
%TO.C,J10*%
X121589800Y-83312000D03*
%TD*%
D14*
%TO.C,IC8*%
X122834400Y-77598600D03*
X122834400Y-77198600D03*
X122834400Y-76798600D03*
X122434400Y-76798600D03*
X122434400Y-77198600D03*
X122434400Y-77598600D03*
%TD*%
D15*
%TO.C,R131*%
X120586000Y-73355200D03*
X118936000Y-73355200D03*
%TD*%
D10*
%TO.C,C1_2*%
X122415000Y-63500000D03*
X123965000Y-63500000D03*
%TD*%
D12*
%TO.C,L32_1*%
X116040200Y-60282216D03*
X114140200Y-60282216D03*
%TD*%
D11*
%TO.C,J6*%
X121031000Y-56388000D03*
%TD*%
D16*
%TO.C,IC2*%
X120224600Y-65951200D03*
X120224600Y-66351200D03*
X120224600Y-66751200D03*
X120624600Y-66751200D03*
X120624600Y-66351200D03*
X120624600Y-65951200D03*
%TD*%
D11*
%TO.C,J8*%
X110871000Y-56388000D03*
%TD*%
D14*
%TO.C,IC6*%
X111323500Y-64725293D03*
X111323500Y-64325293D03*
X111323500Y-63925293D03*
X110923500Y-63925293D03*
X110923500Y-64325293D03*
X110923500Y-64725293D03*
%TD*%
D11*
%TO.C,J4*%
X118491000Y-56388000D03*
%TD*%
%TO.C,J5*%
X115951000Y-56388000D03*
%TD*%
D16*
%TO.C,IC9*%
X128031800Y-78560600D03*
X128031800Y-78960600D03*
X128031800Y-79360600D03*
X128431800Y-79360600D03*
X128431800Y-78960600D03*
X128431800Y-78560600D03*
%TD*%
D11*
%TO.C,J2*%
X147574000Y-57404000D03*
%TD*%
D10*
%TO.C,C31_1*%
X114490200Y-62088962D03*
X116040200Y-62088962D03*
%TD*%
D17*
%TO.C,C181*%
X132715000Y-75705000D03*
X132715000Y-74155000D03*
%TD*%
D11*
%TO.C,J3*%
X132334000Y-57404000D03*
%TD*%
D18*
%TO.C,C1_4*%
X132110000Y-68935000D03*
X132110000Y-70485000D03*
%TD*%
D19*
%TO.C,U1*%
X122545000Y-65550000D03*
X122545000Y-66200000D03*
X122545000Y-66850000D03*
X122545000Y-67500000D03*
X122545000Y-68150000D03*
X122545000Y-68800000D03*
X122545000Y-69450000D03*
X122545000Y-70100000D03*
X122545000Y-70750000D03*
X122545000Y-71400000D03*
X122545000Y-72050000D03*
X122545000Y-72700000D03*
X122545000Y-73350000D03*
X122545000Y-74000000D03*
X128270000Y-74000000D03*
X128270000Y-73350000D03*
X128270000Y-72700000D03*
X128270000Y-72050000D03*
X128270000Y-71400000D03*
X128270000Y-70750000D03*
X128270000Y-70100000D03*
X128270000Y-69450000D03*
X128270000Y-68800000D03*
X128270000Y-68150000D03*
X128270000Y-67500000D03*
X128270000Y-66850000D03*
X128270000Y-66200000D03*
X128270000Y-65550000D03*
%TD*%
D18*
%TO.C,C1_5*%
X130175000Y-68935000D03*
X130175000Y-70485000D03*
%TD*%
%TO.C,C171*%
X130810000Y-72250000D03*
X130810000Y-73800000D03*
%TD*%
D16*
%TO.C,IC4*%
X120199200Y-67786400D03*
X120199200Y-68186400D03*
X120199200Y-68586400D03*
X120599200Y-68586400D03*
X120599200Y-68186400D03*
X120599200Y-67786400D03*
%TD*%
D11*
%TO.C,J12*%
X129159000Y-83312000D03*
%TD*%
D20*
%TO.C,SO1*%
X125476000Y-48059500D03*
X122936000Y-48059500D03*
D21*
X125476000Y-50599500D03*
D22*
X122936000Y-50599500D03*
%TD*%
D23*
%TO.C,L101_0*%
X124477700Y-76136500D03*
X126377700Y-76136500D03*
%TD*%
D11*
%TO.C,J7*%
X113411000Y-56388000D03*
%TD*%
D24*
%TO.C,C281*%
X131331000Y-63500000D03*
X129781000Y-63500000D03*
%TD*%
D16*
%TO.C,IC10*%
X128031800Y-76782600D03*
X128031800Y-77182600D03*
X128031800Y-77582600D03*
X128431800Y-77582600D03*
X128431800Y-77182600D03*
X128431800Y-76782600D03*
%TD*%
D23*
%TO.C,L101_2*%
X124477700Y-78170300D03*
X126377700Y-78170300D03*
%TD*%
D10*
%TO.C,C1_1*%
X122415000Y-61595000D03*
X123965000Y-61595000D03*
%TD*%
D25*
%TO.C,JP1*%
X119126000Y-52594500D03*
D26*
X119126000Y-51144500D03*
%TD*%
D23*
%TO.C,L101_1*%
X124477700Y-80225900D03*
X126377700Y-80225900D03*
%TD*%
D10*
%TO.C,C41_1*%
X114490200Y-68815945D03*
X116040200Y-68815945D03*
%TD*%
D14*
%TO.C,IC5*%
X112776000Y-64272793D03*
X112776000Y-63872793D03*
X112776000Y-63472793D03*
X112376000Y-63472793D03*
X112376000Y-63872793D03*
X112376000Y-64272793D03*
%TD*%
D12*
%TO.C,L41_2*%
X116040200Y-74236183D03*
X114140200Y-74236183D03*
%TD*%
D18*
%TO.C,C1_3*%
X133985000Y-68935000D03*
X133985000Y-70485000D03*
%TD*%
D27*
%TO.C,R281*%
X125921000Y-63500000D03*
X127571000Y-63500000D03*
%TD*%
D11*
%TO.C,J11*%
X124079000Y-83312000D03*
%TD*%
D10*
%TO.C,C42_2*%
X114490200Y-72429437D03*
X116040200Y-72429437D03*
%TD*%
D11*
%TO.C,J9*%
X108331000Y-56388000D03*
%TD*%
D10*
%TO.C,C42_1*%
X114490200Y-67259200D03*
X116040200Y-67259200D03*
%TD*%
D20*
%TO.C,SO2*%
X130556000Y-48059500D03*
X128016000Y-48059500D03*
D21*
X130556000Y-50599500D03*
D22*
X128016000Y-50599500D03*
%TD*%
D28*
%TO.C,Y1*%
X139065000Y-68357500D03*
X139065000Y-80232500D03*
%TD*%
D16*
%TO.C,IC1*%
X118522800Y-65944800D03*
X118522800Y-66344800D03*
X118522800Y-66744800D03*
X118922800Y-66744800D03*
X118922800Y-66344800D03*
X118922800Y-65944800D03*
%TD*%
D29*
%TO.C,JP2*%
X126926000Y-55679500D03*
D30*
X125476000Y-55679500D03*
%TD*%
D12*
%TO.C,L32_2*%
X116040200Y-63895708D03*
X114140200Y-63895708D03*
%TD*%
D14*
%TO.C,IC7*%
X122809000Y-79376600D03*
X122809000Y-78976600D03*
X122809000Y-78576600D03*
X122409000Y-78576600D03*
X122409000Y-78976600D03*
X122409000Y-79376600D03*
%TD*%
D31*
%TO.C,AE1*%
X104198000Y-64516000D03*
D32*
X104198000Y-60136000D03*
X104198000Y-68896000D03*
%TD*%
D16*
%TO.C,IC3*%
X118519224Y-67840654D03*
X118519224Y-68240654D03*
X118519224Y-68640654D03*
X118919224Y-68640654D03*
X118919224Y-68240654D03*
X118919224Y-67840654D03*
%TD*%
M02*
